<?xml version="1.0" encoding="UTF-8"?>
<svg width="558px" height="424px" viewBox="0 0 558 424" version="1.1" xmlns="http://www.w3.org/2000/svg" xmlns:xlink="http://www.w3.org/1999/xlink">
    <!-- Generator: Sketch 41.2 (35397) - http://www.bohemiancoding.com/sketch -->
    <title>Badge</title>
    <desc>Created with Sketch.</desc>
    <defs>
        <path d="M54.2334192,198.212276 C58.198977,197.212335 61.1643519,196.901402 61.1643519,196.901402 L61.1643519,38.8392396 C52.3519648,21.9381955 30.7166404,3.43331727 0.534337444,0.244423538 L0.534337444,198.212276 L54.2334192,198.212276 L54.2334192,198.212276 Z" id="path-1"></path>
        <path d="M0.757031299,13.5270406 C13.6551951,11.4371214 28.0836893,8.40169376 42.9693564,3.99399604 C50.2952254,1.82515791 57.3329763,0.553227965 64.0468205,0.0359789834 L64.0468205,159.708962 L0.757033985,159.708962 L0.757033985,13.5270434 L0.757031299,13.5270406 Z" id="path-3"></path>
        <path d="M34.3831293,0.440540198 L0.331443609,78.6305901 L209.998406,84.185158 L248.203792,84.185158 C249.786165,69.4206563 275.134277,66.7627881 275.134277,66.7627881 L275.134277,0.440540198 L34.3831293,0.440540198 L34.3831293,0.440540198 Z" id="path-5"></path>
        <path d="M34.3831293,0.440540198 L0.331443609,78.6305901 L209.998406,84.185158 L248.203792,84.185158 C249.786165,69.4206563 275.134277,66.7627881 275.134277,66.7627881 L275.134277,0.440540198 L34.3831293,0.440540198 L34.3831293,0.440540198 Z" id="path-7"></path>
        <path d="M28.4451739,0.641709307 L0.331443609,65.1969267 L248.133789,71.7617901 C248.46043,61.6222144 259.691519,56.8846117 267.564105,54.8050046 L267.564105,0.641709307 L28.4451739,0.641709307 L28.4451739,0.641709307 Z" id="path-9"></path>
        <path d="M22.5072185,0.00327445545 L0.331443609,50.9236594 L248.133789,57.4885228 C248.350069,50.7747654 253.347092,46.4293484 258.984414,43.6557126 L258.984414,0.00327445545 L22.5072185,0.00327445545 L22.5072185,0.00327445545 Z" id="path-11"></path>
        <path d="M16.5692631,0.204443564 L0.331443609,37.489996 L248.133789,44.0548594 C248.219909,41.3815455 249.064019,39.0837341 250.404724,37.1111363 L250.404724,0.204443564 L16.5692631,0.204443564 L16.5692631,0.204443564 Z" id="path-13"></path>
        <polygon id="path-15" points="10.6313442 0.405528713 0.331443609 24.0563327 241.824949 30.4540601 241.824949 0.405528713"></polygon>
        <polygon id="path-17" points="4.69338881 0.606697822 0.331443609 10.6226693 233.245259 16.7931007 233.245259 0.606697822 4.69338881 0.606697822"></polygon>
        <path d="M11.085372,188.310238 C5.48640776,186.496454 0.623449624,185.98655 0.623449624,185.98655 L0.623449624,27.9243881 C5.75506358,18.0826015 15.2348658,7.69696335 28.2185215,0.108477385 L28.2185215,188.310238 L11.085372,188.310238 L11.085372,188.310238 Z" id="path-19"></path>
        <path d="M50.5941536,4.5571384 C41.0214048,1.81460462 31.9452241,0.603675248 23.4485865,0.603675248 C15.2212001,0.603675248 7.53670969,1.73868633 0.468970937,3.71646348 L0.468971729,155.988425 L50.5941537,155.988425 L50.5941537,4.55713619 L50.5941536,4.5571384 Z" id="path-21"></path>
        <path d="M0.623449624,0.440540198 L0.623449624,66.7627881 C0.623449624,66.7627881 25.971561,69.4206563 27.5547194,84.185158 L65.7600302,84.185158 L275.426283,78.6305901 L241.374597,0.440540198 L0.623449624,0.440540198 L0.623449624,0.440540198 Z" id="path-23"></path>
        <path d="M0.623449624,0.440540198 L0.623449624,66.7627881 C0.623449624,66.7627881 25.971561,69.4206563 27.5547194,84.185158 L65.7600302,84.185158 L275.426283,78.6305901 L241.374597,0.440540198 L0.623449624,0.440540198 L0.623449624,0.440540198 Z" id="path-25"></path>
        <path d="M0.641825865,54.8050171 C8.51447643,56.8846306 19.745713,61.6222347 20.0728962,71.7617901 L267.874403,65.1969267 L239.760673,0.641709307 L0.641825865,0.641709307 L0.641825865,54.8050171 L0.641825865,54.8050171 Z" id="path-27"></path>
        <path d="M0.830538947,43.655677 C6.46800763,46.4293112 11.4652783,50.7747366 11.6819188,57.4885228 L259.483426,50.9236594 L237.307651,0.00327445545 L0.830538947,0.00327445545 L0.830538947,43.655677 L0.830538947,43.655677 Z" id="path-29"></path>
        <path d="M0.180238195,37.1106793 C1.52122163,39.0833792 2.36557443,41.3813391 2.45184361,44.0548594 L250.25335,37.489996 L234.015531,0.204443564 L0.180238195,0.204443564 L0.180238195,37.1106793 L0.180238195,37.1106793 Z" id="path-31"></path>
        <polygon id="path-33" points="0.368951278 30.4540796 241.862373 24.0563327 231.562472 0.405528713 0.368951278 0.405528713"></polygon>
        <polygon id="path-35" points="0.557664361 16.7931194 233.471395 10.6226693 229.10945 0.606697822 0.557664361 0.606697822 0.557664361 16.7931194"></polygon>
        <path d="M0.825957225,18.9646926 C10.3926846,18.844247 49.5319105,17.5495306 92.4761233,4.8336 C102.401811,1.89498614 111.791314,0.603675248 120.570794,0.603675248 C123.545048,0.603960918 126.448402,0.752570798 129.277356,1.03569769 L129.277356,134.375903 C120.661625,132.498938 110.859778,131.41901 99.709985,131.41901 C57.3009397,131.41901 36.3711804,139.480269 15.3110163,145.041754 L0.825957225,145.041752 L0.825957225,18.9646926 L0.825957225,18.9646926 Z" id="path-37"></path>
        <path d="M0.0912938346,92.7104151 L101.412346,91.9823564 L101.412346,1.42665603 C95.9419908,0.786660082 90.0706437,0.440792079 83.7671278,0.440792079 C41.8396241,0.440792079 20.9092113,8.32155819 0.0912938346,13.876861 L0.0912938346,92.7104151 L0.0912938346,92.7104151 Z" id="path-39"></path>
        <polygon id="path-41" points="2.58022556 7.2839002 2.58022556 0.264475248 0.50975188 0.264475248 0.50975188 7.2839002 2.58022556 7.2839002"></polygon>
    </defs>
    <g id="Homepage" stroke="none" stroke-width="1" fill="none" fill-rule="evenodd">
        <g id="3.5a_Desktop_Accreditation_Celebration" transform="translate(-421.000000, -248.000000)">
            <g id="Badge" transform="translate(421.000000, 248.000000)">
                <path d="M488.725852,213.469307 C488.725852,329.394265 394.806481,423.370297 278.951416,423.370297 C163.096352,423.370297 69.1769802,329.394265 69.1769802,213.469307 C69.1769802,97.5443485 163.096352,3.56831683 278.951416,3.56831683 C394.806481,3.56831683 488.725852,97.5443485 488.725852,213.469307" id="Fill-1" fill="#008373"></path>
                <polygon id="Fill-3" fill="#016859" points="199.656847 -0.000167920793 144.695945 130.138446 247.06587 136.855278"></polygon>
                <polygon id="Fill-4" fill="#016859" points="190.007055 186.392079 244.967958 56.2534653 292.37698 193.108911"></polygon>
                <polygon id="Fill-5" fill="#016859" points="233.640138 172.958416 288.60104 42.819802 336.010063 179.675248"></polygon>
                <polygon id="Fill-6" fill="#016859" points="379.643146 208.221782 434.604048 78.0831683 482.01307 214.938614"></polygon>
                <polygon id="Fill-7" fill="#016859" points="282.727356 160.784158 337.688258 30.6455446 385.097281 167.50099"></polygon>
                <polygon id="Fill-8" fill="#016859" points="81.3438974 212.839604 136.3048 82.7009901 183.713822 219.556436"></polygon>
                <polygon id="Fill-9" fill="#016859" points="96.4476568 224.174257 151.408559 94.0356436 198.817582 230.891089"></polygon>
                <g id="Group-14" transform="translate(127.542857, 17.841584)" fill="#2AA296">
                    <path d="M250.074371,34.6240919 C255.122383,25.8846543 264.558876,20.0049077 275.368972,20.0049077 C291.293369,20.0049077 304.240648,32.7660483 304.559505,48.6228087 C304.660196,48.6177711 304.762566,48.6118939 304.864097,48.6118939 C317.726626,48.6118939 328.153255,59.0473315 328.153255,71.9109038 C328.153255,84.7828721 317.726626,95.2149513 304.864097,95.2149513 L213.88912,95.2149513 C203.586678,95.2149513 195.236816,86.8583731 195.236816,76.5522345 C195.236816,66.413177 203.318166,58.1716246 213.384822,57.9012721 C213.094494,56.4319651 212.937583,54.9139612 212.937583,53.358175 C212.937583,40.4878859 223.365051,30.0583255 236.225902,30.0583255 C241.413204,30.0583255 246.20613,31.7543255 250.074371,34.6240919" id="Fill-10"></path>
                    <path d="M42.2728214,11.9490756 C46.1595221,5.2204895 53.4244304,0.694184554 61.7466018,0.694184554 C74.0066589,0.694184554 83.9743011,10.5192301 84.2201567,22.7262321 C84.2973537,22.7228737 84.3762289,22.717836 84.454265,22.717836 C94.3572965,22.717836 102.384106,30.7520063 102.384106,40.655135 C102.384106,50.5649806 94.3572965,58.5966321 84.454265,58.5966321 L14.4147762,58.5966321 C6.48278526,58.5966321 0.0544574436,52.1635865 0.0544574436,44.2284895 C0.0544574436,36.4226915 6.27636722,30.0778044 14.026274,29.8695826 C13.8022349,28.738636 13.6814048,27.5699073 13.6814048,26.3717925 C13.6814048,16.4636261 21.709892,8.43449347 31.6112454,8.43449347 C35.6053507,8.43449347 39.2948635,9.74007762 42.2728214,11.9490756" id="Fill-12"></path>
                </g>
                <g id="Group-29" transform="translate(140.129323, 326.815842)" stroke="#2AA296" stroke-linecap="round">
                    <path d="M37.1659886,12.2410899 C31.3116036,12.8741513 25.1668908,13.2116721 18.8308638,13.2116721 C12.3454773,13.2116721 6.06063519,12.8581988 0.0812246617,12.1957513" id="Stroke-15" stroke-width="3.931"></path>
                    <path d="M92.0322406,5.18841663 C80.0885233,14.0370028 59.5734226,20.5036325 35.3377624,22.5136444 C30.1311609,22.9460404 24.7525444,23.1718939 19.2505805,23.1718939" id="Stroke-17" stroke-width="4.655"></path>
                    <path d="M139.982901,10.3664222 C140.184284,11.0129172 140.29085,11.6846004 140.29085,12.3730756 C140.29085,16.2864697 136.862296,19.6448855 131.975391,21.0822875" id="Stroke-19" stroke-width="3"></path>
                    <path d="M169.01627,11.5527826 C169.075846,11.9608301 169.106893,12.3739152 169.106893,12.7928776 C169.106893,19.491238 161.276432,24.9217964 151.618417,24.9217964 C150.956369,24.9217964 150.301873,24.8957687 149.659124,24.8462321" id="Stroke-21" stroke-width="4"></path>
                    <path d="M112.488353,5.06877307 C115.832996,2.06299089 120.936389,0.142816634 126.65484,0.142816634 C127.629872,0.142816634 128.586443,0.198230495 129.51952,0.305699802" id="Stroke-23" stroke-width="3"></path>
                    <path d="M140.668108,5.20873505 C144.012752,2.20295287 149.116144,0.282778614 154.834595,0.282778614 C155.809627,0.282778614 156.766198,0.338192475 157.699275,0.445661782" id="Stroke-25" stroke-width="3"></path>
                    <path d="M144.895315,13.4545695 C144.895315,18.049722 141.705065,22.1008111 136.853402,24.4928428 C133.942572,25.9285655 130.432626,26.7664903 126.655008,26.7664903 C119.630921,26.7664903 113.534036,23.869017 110.486433,19.6223002" id="Stroke-27" stroke-width="4"></path>
                </g>
                <g id="Group-34" transform="translate(4.195489, 100.122772)">
                    <path d="M288.512432,225.189171 L255.669307,225.189171 C249.835899,225.189171 245.062272,220.412664 245.062272,214.575737 L245.062272,214.575737 C245.062272,208.737971 249.835899,203.962303 255.669307,203.962303 L288.512432,203.962303 C294.346678,203.962303 299.119466,208.737971 299.119466,214.575737 L299.119466,214.575737 C299.119466,220.412664 294.346678,225.189171 288.512432,225.189171" id="Fill-30" fill="#000000"></path>
                    <path d="M0.331359699,209.608724 L83.3525296,18.9741259 C83.3525296,18.9741259 127.765134,19.4787279 177.224912,4.83351604 C226.684689,-9.81085624 263.021817,16.4485972 275.134193,39.6787596 L275.134193,197.741762 C275.134193,197.741762 248.638003,200.519171 248.133706,216.173587 L0.331359699,209.608724 Z" id="Fill-32" fill="#FFB73E"></path>
                </g>
                <g id="Group-64" transform="translate(4.195489, 100.962376)">
                    <g id="Group-37" transform="translate(213.969925, 0.000000)">
                        <mask id="mask-2" fill="white">
                            <use xlink:href="#path-1"></use>
                        </mask>
                        <g id="Clip-36"></g>
                        <polygon id="Fill-35" fill="#F4AD3A" mask="url(#mask-2)" points="19.2680337 -1.9039699 0.534337444 160.215159 64.8369149 198.212276 65.8488668 18.3607113"></polygon>
                    </g>
                    <g id="Group-40" transform="translate(134.255639, 0.000000)">
                        <mask id="mask-4" fill="white">
                            <use xlink:href="#path-3"></use>
                        </mask>
                        <g id="Clip-39"></g>
                        <path d="M37.2116355,3.16228436 L0.757033985,159.708962 C0.757033985,159.708962 37.2116355,141.976526 37.2116355,139.443441 C37.2116355,136.910356 64.0468205,-6.46377505 64.0468205,-6.46377505 L37.2116355,3.16228436 Z" id="Fill-38" fill="#FFCA5B" mask="url(#mask-4)"></path>
                    </g>
                    <polygon id="Fill-41" fill="#FFCA5B" points="91.9755176 13.2947089 33.242871 154.642036 10.4588499 150.589267 73.2418214 2.65524752"></polygon>
                    <g id="Group-45" transform="translate(0.000000, 130.138614)">
                        <mask id="mask-6" fill="white">
                            <use xlink:href="#path-5"></use>
                        </mask>
                        <g id="Clip-44"></g>
                        <path d="M276.143795,63.396564 C276.143795,63.396564 269.58289,0.440540198 184.458941,0.440540198 C99.3341531,0.440540198 100.764815,32.9290154 13.9576358,12.476263 L-17.3331582,84.185158 L20.5185411,83.9332768 L250.404472,82.4177917 C250.404472,82.4177917 263.526282,62.30256 276.143795,63.396564" id="Fill-43" fill="#FFCA5B" mask="url(#mask-6)"></path>
                    </g>
                    <g id="Group-48" transform="translate(0.000000, 130.138614)">
                        <mask id="mask-8" fill="white">
                            <use xlink:href="#path-7"></use>
                        </mask>
                        <g id="Clip-47"></g>
                        <path d="M276.143795,63.396564 C276.143795,63.396564 269.58289,0.440540198 184.458941,0.440540198 C99.3341531,0.440540198 100.764815,32.9290154 13.9576358,12.476263 L-17.3331582,84.185158 L20.5185411,83.9332768 L250.404472,82.4177917 C250.404472,82.4177917 263.526282,62.30256 276.143795,63.396564 L276.143795,63.396564 Z" id="Stroke-46" stroke="#FFCA5B" mask="url(#mask-8)"></path>
                    </g>
                    <g id="Group-51" transform="translate(0.000000, 143.572277)">
                        <mask id="mask-10" fill="white">
                            <use xlink:href="#path-9"></use>
                        </mask>
                        <g id="Clip-50"></g>
                        <path d="M267.564105,63.5977331 C267.564105,63.5977331 261.003199,0.641709307 175.879251,0.641709307 C90.7544626,0.641709307 92.1851242,33.1301846 5.37794526,12.6774321 L-25.9128487,84.3863271 L11.9388505,84.1344459 L241.824781,82.6189608 C241.824781,82.6189608 254.946592,62.5037291 267.564105,63.5977331 L267.564105,63.5977331 Z" id="Stroke-49" stroke="#F4AD3A" stroke-width="2.896" mask="url(#mask-10)"></path>
                    </g>
                    <g id="Group-54" transform="translate(0.000000, 157.845545)">
                        <mask id="mask-12" fill="white">
                            <use xlink:href="#path-11"></use>
                        </mask>
                        <g id="Clip-53"></g>
                        <path d="M258.984414,62.9592982 C258.984414,62.9592982 252.423509,0.00327445545 167.29956,0.00327445545 C82.174772,0.00327445545 83.6054337,32.4917497 -3.20174526,12.0389972 L-34.4925392,83.7478923 L3.35916,83.4960111 L233.245091,81.9805259 C233.245091,81.9805259 246.366901,61.8652943 258.984414,62.9592982 L258.984414,62.9592982 Z" id="Stroke-52" stroke="#F4AD3A" stroke-width="2.896" mask="url(#mask-12)"></path>
                    </g>
                    <g id="Group-57" transform="translate(0.000000, 171.279208)">
                        <mask id="mask-14" fill="white">
                            <use xlink:href="#path-13"></use>
                        </mask>
                        <g id="Clip-56"></g>
                        <path d="M250.404724,63.1604673 C250.404724,63.1604673 243.843818,0.204443564 158.719869,0.204443564 C73.5950815,0.204443564 75.0257432,32.6929188 -11.7814358,12.2401663 L-43.0722298,83.9490614 L-5.22053053,83.6971802 L224.6654,82.181695 C224.6654,82.181695 237.787211,62.0664634 250.404724,63.1604673 L250.404724,63.1604673 Z" id="Stroke-55" stroke="#F4AD3A" stroke-width="2.896" mask="url(#mask-14)"></path>
                    </g>
                    <g id="Group-60" transform="translate(0.000000, 184.712871)">
                        <mask id="mask-16" fill="white">
                            <use xlink:href="#path-15"></use>
                        </mask>
                        <g id="Clip-59"></g>
                        <path d="M241.824949,63.3615525 C241.824949,63.3615525 235.264044,0.405528713 150.140095,0.405528713 C65.0153071,0.405528713 66.4459687,32.894004 -20.3612102,12.4412515 L-51.6520042,84.1501465 L-13.800305,83.8982653 L216.085626,82.3827802 C216.085626,82.3827802 229.207436,62.2675485 241.824949,63.3615525 L241.824949,63.3615525 Z" id="Stroke-58" stroke="#F4AD3A" stroke-width="2.896" mask="url(#mask-16)"></path>
                    </g>
                    <g id="Group-63" transform="translate(0.000000, 198.146535)">
                        <mask id="mask-18" fill="white">
                            <use xlink:href="#path-17"></use>
                        </mask>
                        <g id="Clip-62"></g>
                        <path d="M233.245259,63.5627216 C233.245259,63.5627216 226.684353,0.606697822 141.560405,0.606697822 C56.4356165,0.606697822 57.8662782,33.0951731 -28.9409008,12.6424206 L-60.2316947,84.3513156 L-22.3799955,84.0994345 L207.505935,82.5839493 C207.505935,82.5839493 220.627746,62.4687176 233.245259,63.5627216 L233.245259,63.5627216 Z" id="Stroke-61" stroke="#F4AD3A" stroke-width="2.896" mask="url(#mask-18)"></path>
                    </g>
                </g>
                <path d="M554.006902,309.731496 L470.985732,119.096898 C470.985732,119.096898 426.573127,119.6015 377.11335,104.956288 C327.653572,90.311916 291.316445,116.57137 279.204069,139.801532 L279.204069,297.864534 C279.204069,297.864534 305.700258,300.641944 306.204556,316.29636 L554.006902,309.731496 Z" id="Fill-65" fill="#FFB73E"></path>
                <g id="Group-96" transform="translate(278.580451, 100.122772)">
                    <g id="Group-69" transform="translate(0.000000, 11.754455)">
                        <mask id="mask-20" fill="white">
                            <use xlink:href="#path-19"></use>
                        </mask>
                        <g id="Clip-68"></g>
                        <polygon id="Fill-67" fill="#F4AD3A" mask="url(#mask-20)" points="-7.73010406 9.97919683 -7.73010406 188.310238 28.2185215 168.551838 18.5982659 -0.153143762"></polygon>
                    </g>
                    <g id="Group-72" transform="translate(46.989474, 0.000000)">
                        <mask id="mask-22" fill="white">
                            <use xlink:href="#path-21"></use>
                        </mask>
                        <g id="Clip-71"></g>
                        <path d="M0.468971729,-0.0511318812 L17.177086,155.988425 C17.177086,155.988425 50.5941537,148.89545 50.5941537,147.375767 C50.5941537,145.856084 29.8357146,-4.61102099 29.8357146,-4.61102099 L0.468971729,-0.0511318812 Z" id="Fill-70" fill="#FFCA5B" mask="url(#mask-22)"></path>
                    </g>
                    <polygon id="Fill-73" fill="#FFCA5B" points="177.581864 12.6144618 239.352883 156.494874 271.250345 145.856252 193.278026 9.06797465"></polygon>
                    <g id="Group-77" transform="translate(0.000000, 130.978218)">
                        <mask id="mask-24" fill="white">
                            <use xlink:href="#path-23"></use>
                        </mask>
                        <g id="Clip-76"></g>
                        <path d="M-0.385984962,63.396564 C-0.385984962,63.396564 6.1749203,0.440540198 91.2988692,0.440540198 C176.423657,0.440540198 174.992995,32.9290154 261.800174,12.476263 L293.090968,84.185158 L255.239269,83.9332768 L25.3533383,82.4177917 C25.3533383,82.4177917 12.2315278,62.30256 -0.385984962,63.396564" id="Fill-75" fill="#FFCA5B" mask="url(#mask-24)"></path>
                    </g>
                    <g id="Group-80" transform="translate(0.000000, 130.978218)">
                        <mask id="mask-26" fill="white">
                            <use xlink:href="#path-25"></use>
                        </mask>
                        <g id="Clip-79"></g>
                        <path d="M-0.385984962,63.396564 C-0.385984962,63.396564 6.1749203,0.440540198 91.2988692,0.440540198 C176.423657,0.440540198 174.992995,32.9290154 261.800174,12.476263 L293.090968,84.185158 L255.239269,83.9332768 L25.3533383,82.4177917 C25.3533383,82.4177917 12.2315278,62.30256 -0.385984962,63.396564 L-0.385984962,63.396564 Z" id="Stroke-78" stroke="#FFCA5B" mask="url(#mask-26)"></path>
                    </g>
                    <g id="Group-83" transform="translate(7.551880, 144.411881)">
                        <mask id="mask-28" fill="white">
                            <use xlink:href="#path-27"></use>
                        </mask>
                        <g id="Clip-82"></g>
                        <path d="M0.641825865,63.5977331 C0.641825865,63.5977331 7.20273113,0.641709307 92.32668,0.641709307 C177.451468,0.641709307 176.020806,33.1301846 262.827985,12.6774321 L294.118779,84.3863271 L256.26708,84.1344459 L26.3811492,82.6189608 C26.3811492,82.6189608 13.2593386,62.5037291 0.641825865,63.5977331 L0.641825865,63.5977331 Z" id="Stroke-81" stroke="#F4AD3A" stroke-width="2.896" mask="url(#mask-28)"></path>
                    </g>
                    <g id="Group-86" transform="translate(15.942857, 158.685149)">
                        <mask id="mask-30" fill="white">
                            <use xlink:href="#path-29"></use>
                        </mask>
                        <g id="Clip-85"></g>
                        <path d="M0.830538947,62.9592982 C0.830538947,62.9592982 7.39144421,0.00327445545 92.5153931,0.00327445545 C177.640181,0.00327445545 176.209519,32.4917497 263.016698,12.0389972 L294.307492,83.7478923 L256.455793,83.4960111 L26.5698623,81.9805259 C26.5698623,81.9805259 13.4480517,61.8652943 0.830538947,62.9592982 L0.830538947,62.9592982 Z" id="Stroke-84" stroke="#F4AD3A" stroke-width="2.896" mask="url(#mask-30)"></path>
                    </g>
                    <g id="Group-89" transform="translate(25.172932, 172.118812)">
                        <mask id="mask-32" fill="white">
                            <use xlink:href="#path-31"></use>
                        </mask>
                        <g id="Clip-88"></g>
                        <path d="M0.180238195,63.1604673 C0.180238195,63.1604673 6.74114346,0.204443564 91.8650923,0.204443564 C176.98988,0.204443564 175.559219,32.6929188 262.366398,12.2401663 L293.657192,83.9490614 L255.805492,83.6971802 L25.9195615,82.181695 C25.9195615,82.181695 12.797751,62.0664634 0.180238195,63.1604673 L0.180238195,63.1604673 Z" id="Stroke-87" stroke="#F4AD3A" stroke-width="2.896" mask="url(#mask-32)"></path>
                    </g>
                    <g id="Group-92" transform="translate(33.563910, 185.552475)">
                        <mask id="mask-34" fill="white">
                            <use xlink:href="#path-33"></use>
                        </mask>
                        <g id="Clip-91"></g>
                        <path d="M0.368951278,63.3615525 C0.368951278,63.3615525 6.92985654,0.405528713 92.0538054,0.405528713 C177.178593,0.405528713 175.747932,32.894004 262.555111,12.4412515 L293.845905,84.1501465 L255.994205,83.8982653 L26.1082746,82.3827802 C26.1082746,82.3827802 12.9864641,62.2675485 0.368951278,63.3615525 L0.368951278,63.3615525 Z" id="Stroke-90" stroke="#F4AD3A" stroke-width="2.896" mask="url(#mask-34)"></path>
                    </g>
                    <g id="Group-95" transform="translate(41.954887, 198.986139)">
                        <mask id="mask-36" fill="white">
                            <use xlink:href="#path-35"></use>
                        </mask>
                        <g id="Clip-94"></g>
                        <path d="M0.557664361,63.5627216 C0.557664361,63.5627216 7.11856962,0.606697822 92.2425185,0.606697822 C177.367306,0.606697822 175.936645,33.0951731 262.743824,12.6424206 L294.034618,84.3513156 L256.182918,84.0994345 L26.2969877,82.5839493 C26.2969877,82.5839493 13.1751771,62.4687176 0.557664361,63.5627216 L0.557664361,63.5627216 Z" id="Stroke-93" stroke="#F4AD3A" stroke-width="2.896" mask="url(#mask-36)"></path>
                    </g>
                </g>
                <path d="M549.212297,305.186552 L308.075744,305.186552 C301.119623,294.987043 289.422601,288.269372 276.175765,288.269372 C262.930607,288.269372 251.233584,294.987043 244.276625,305.186552 L8.69070316,305.186552 C4.23089865,305.186552 0.615226466,308.800208 0.615226466,313.266061 C0.615226466,317.732754 4.23089865,321.34641 8.69070316,321.34641 L238.128556,321.34641 L254.494318,321.34641 C256.530808,313.413831 262.752718,307.199083 270.691422,305.186552 C272.456884,304.739043 274.27353,304.429229 276.175765,304.429229 C278.07716,304.429229 279.894646,304.739043 281.658429,305.186552 C289.595455,307.199083 295.819882,313.413831 297.856372,321.34641 L314.222974,321.34641 L549.212297,321.34641 C553.675458,321.34641 557.286935,317.732754 557.286935,313.266061 C557.286935,308.800208 553.675458,305.186552 549.212297,305.186552" id="Fill-97" fill="#2A1247"></path>
                <g id="Group-101" transform="translate(88.944361, 100.122772)">
                    <mask id="mask-38" fill="white">
                        <use xlink:href="#path-37"></use>
                    </mask>
                    <g id="Clip-100"></g>
                    <path d="M129.277356,144.632865 C91.8888388,144.632865 53.3876779,145.041752 15.9991606,145.041752 C-51.8376965,89.2399937 133.779955,52.811257 65.9061771,-3.01988752 L80.4821441,-3.01988752 C97.0207606,5.85304713 118.655218,16.500065 117.900869,38.3457204 C117.489711,50.2378709 110.585615,60.769863 104.87975,70.8064887 C98.8113952,81.4795343 90.6486523,93.752865 91.6832598,106.671011 C93.2699937,126.493221 120.3267,127.129641 129.277356,144.632865" id="Fill-99" fill="#2AA296" mask="url(#mask-38)"></path>
                </g>
                <g id="Group-104" transform="translate(104.887218, 231.100990)">
                    <mask id="mask-40" fill="white">
                        <use xlink:href="#path-39"></use>
                    </mask>
                    <g id="Clip-103"></g>
                    <polygon id="Fill-102" fill="#008373" mask="url(#mask-40)" points="0.0912938346 8.3960396 0.0912938346 97.8835485 101.412346 90.0122614 101.412346 4.17887946e-13 82.42776 -3.56831683 8.69204571 6.2970297"></polygon>
                </g>
                <g id="Group-177" transform="translate(102.369925, 120.273267)">
                    <path d="M42.640514,151.898378 L42.640514,151.898378 C41.6596087,151.898378 40.8574313,151.095716 40.8574313,150.114219 L40.8574313,127.235011 C40.8574313,126.253514 41.6596087,125.450853 42.640514,125.450853 C43.6214192,125.450853 44.4235967,126.253514 44.4235967,127.235011 L44.4235967,150.114219 C44.4235967,151.095716 43.6214192,151.898378 42.640514,151.898378" id="Fill-105" fill="#2AA296"></path>
                    <path d="M93.4326108,163.792711 L93.4326108,163.792711 C92.2746559,163.792711 91.3264755,162.844798 91.3264755,161.685305 L91.3264755,134.662652 C91.3264755,133.503998 92.2746559,132.556086 93.4326108,132.556086 C94.5905657,132.556086 95.5387462,133.503998 95.5387462,134.662652 L95.5387462,161.685305 C95.5387462,162.844798 94.5905657,163.792711 93.4326108,163.792711" id="Fill-107" fill="#2AA296"></path>
                    <path d="M77.2256896,149.240695 L77.2256896,149.240695 C76.7985889,149.240695 76.4495242,148.89142 76.4495242,148.464062 L76.4495242,121.706723 C76.4495242,121.279365 76.7985889,120.92925 77.2256896,120.92925 C77.6527904,120.92925 78.001855,121.279365 78.001855,121.706723 L78.001855,148.464062 C78.001855,148.89142 77.6527904,149.240695 77.2256896,149.240695" id="Fill-109" fill="#2AA296"></path>
                    <path d="M55.1242746,145.601348 L55.1242746,145.601348 C54.5461362,145.601348 54.0728851,145.127811 54.0728851,144.549324 L54.0728851,131.063606 C54.0728851,130.485118 54.5461362,130.012421 55.1242746,130.012421 C55.7024129,130.012421 56.1756641,130.485118 56.1756641,131.063606 L56.1756641,144.549324 C56.1756641,145.127811 55.7024129,145.601348 55.1242746,145.601348" id="Fill-111" fill="#2AA296"></path>
                    <path d="M60.5137155,148.959764 L60.5137155,148.959764 C60.0866147,148.959764 59.7375501,148.610489 59.7375501,148.18313 L59.7375501,138.21871 C59.7375501,137.791352 60.0866147,137.441237 60.5137155,137.441237 C60.9408162,137.441237 61.2898809,137.791352 61.2898809,138.21871 L61.2898809,148.18313 C61.2898809,148.610489 60.9408162,148.959764 60.5137155,148.959764" id="Fill-113" fill="#2AA296"></path>
                    <path d="M61.2929856,135.753297 C61.2929856,136.188212 60.9405645,136.540006 60.506751,136.540006 C60.0720983,136.540006 59.7196773,136.188212 59.7196773,135.753297 C59.7196773,135.318383 60.0720983,134.966589 60.506751,134.966589 C60.9405645,134.966589 61.2929856,135.318383 61.2929856,135.753297" id="Fill-115" fill="#2AA296"></path>
                    <path d="M52.9697233,165.835132 L52.9697233,165.835132 C53.5478617,165.835132 54.0211128,166.308669 54.0211128,166.887156 L54.0211128,180.372874 C54.0211128,180.951362 53.5478617,181.424059 52.9697233,181.424059 C52.391585,181.424059 51.9183338,180.951362 51.9183338,180.372874 L51.9183338,166.887156 C51.9183338,166.308669 52.391585,165.835132 52.9697233,165.835132" id="Fill-117" fill="#2AA296"></path>
                    <path d="M47.5802824,162.476716 L47.5802824,162.476716 C48.0073832,162.476716 48.3564478,162.825991 48.3564478,163.25335 L48.3564478,173.21777 C48.3564478,173.645128 48.0073832,173.995243 47.5802824,173.995243 C47.1531817,173.995243 46.804117,173.645128 46.804117,173.21777 L46.804117,163.25335 C46.804117,162.825991 47.1531817,162.476716 47.5802824,162.476716" id="Fill-119" fill="#2AA296"></path>
                    <path d="M46.8010123,175.683183 C46.8010123,175.248268 47.1534334,174.896474 47.5872469,174.896474 C48.0218995,174.896474 48.3743206,175.248268 48.3743206,175.683183 C48.3743206,176.118097 48.0218995,176.469891 47.5872469,176.469891 C47.1534334,176.469891 46.8010123,176.118097 46.8010123,175.683183" id="Fill-121" fill="#2AA296"></path>
                    <path d="M11.9435495,172.119316 L11.9435495,172.119316 C10.9626442,172.119316 10.1604668,171.316654 10.1604668,170.335157 L10.1604668,139.05907 C10.1604668,138.078413 10.9626442,137.274912 11.9435495,137.274912 L11.9435495,137.274912 C12.9244547,137.274912 13.7266322,138.078413 13.7266322,139.05907 L13.7266322,170.335157 C13.7266322,171.316654 12.9244547,172.119316 11.9435495,172.119316" id="Fill-123" fill="#2AA296"></path>
                    <path d="M24.4272262,157.425743 L24.4272262,157.425743 C23.8490878,157.425743 23.3758367,156.952206 23.3758367,156.373719 L23.3758367,142.888 C23.3758367,142.309513 23.8490878,141.836816 24.4272262,141.836816 C25.0053645,141.836816 25.4786156,142.309513 25.4786156,142.888 L25.4786156,156.373719 C25.4786156,156.952206 25.0053645,157.425743 24.4272262,157.425743" id="Fill-125" fill="#2AA296"></path>
                    <path d="M25.474588,159.651449 C25.474588,160.226577 25.0088887,160.692558 24.4341068,160.692558 C23.8593248,160.692558 23.3927865,160.226577 23.3927865,159.651449 C23.3927865,159.07632 23.8593248,158.61034 24.4341068,158.61034 C25.0088887,158.61034 25.474588,159.07632 25.474588,159.651449" id="Fill-127" fill="#2AA296"></path>
                    <path d="M71.239818,188.910891 L71.239818,188.910891 C70.2589128,188.910891 69.4567353,188.10823 69.4567353,187.126733 L69.4567353,164.247525 C69.4567353,163.266028 70.2589128,162.463366 71.239818,162.463366 L71.239818,162.463366 C72.2207233,162.463366 73.0229008,163.266028 73.0229008,164.247525 L73.0229008,187.126733 C73.0229008,188.10823 72.2207233,188.910891 71.239818,188.910891" id="Fill-129" fill="#2AA296"></path>
                    <path d="M83.7234947,182.613861 L83.7234947,182.613861 C83.1453564,182.613861 82.6721053,182.140325 82.6721053,181.561838 L82.6721053,168.076119 C82.6721053,167.497632 83.1453564,167.024935 83.7234947,167.024935 L83.7234947,167.024935 C84.3016331,167.024935 84.7748842,167.497632 84.7748842,168.076119 L84.7748842,181.561838 C84.7748842,182.140325 84.3016331,182.613861 83.7234947,182.613861" id="Fill-131" fill="#2AA296"></path>
                    <path d="M84.7708565,184.839568 C84.7708565,185.414696 84.3051573,185.880676 83.7303753,185.880676 C83.1555934,185.880676 82.689055,185.414696 82.689055,184.839568 C82.689055,184.264439 83.1555934,183.798459 83.7303753,183.798459 C84.3051573,183.798459 84.7708565,184.264439 84.7708565,184.839568" id="Fill-133" fill="#2AA296"></path>
                    <path d="M95.4937705,128.869888 C95.4937705,130.020985 94.5615329,130.953785 93.4111299,130.953785 C92.2607269,130.953785 91.3276502,130.020985 91.3276502,128.869888 C91.3276502,127.718791 92.2607269,126.785991 93.4111299,126.785991 C94.5615329,126.785991 95.4937705,127.718791 95.4937705,128.869888" id="Fill-135" fill="#2AA296"></path>
                    <path d="M26.7244241,206.332673 L26.7244241,206.332673 C25.5664692,206.332673 24.6182887,205.38476 24.6182887,204.225267 L24.6182887,177.202614 C24.6182887,176.04396 25.5664692,175.096048 26.7244241,175.096048 C27.8823789,175.096048 28.8305594,176.04396 28.8305594,177.202614 L28.8305594,204.225267 C28.8305594,205.38476 27.8823789,206.332673 26.7244241,206.332673" id="Fill-137" fill="#2AA296"></path>
                    <path d="M28.7854998,171.40985 C28.7854998,172.560947 27.8532623,173.493747 26.7028592,173.493747 C25.5524562,173.493747 24.6193795,172.560947 24.6193795,171.40985 C24.6193795,170.258753 25.5524562,169.325953 26.7028592,169.325953 C27.8532623,169.325953 28.7854998,170.258753 28.7854998,171.40985" id="Fill-139" fill="#2AA296"></path>
                    <path d="M49.3428911,192.980703 C51.0261212,190.066438 54.1727377,188.105963 57.7766626,188.105963 C63.0864731,188.105963 67.403631,192.361076 67.5093573,197.648062 C67.5429212,197.646383 67.5773242,197.644703 67.6108881,197.644703 C71.8995167,197.644703 75.3758986,201.124022 75.3758986,205.412719 C75.3758986,209.704775 71.8995167,213.183254 67.6108881,213.183254 L37.2775047,213.183254 C33.8430776,213.183254 31.0589513,210.396608 31.0589513,206.960109 C31.0589513,203.579864 33.7532941,200.83184 37.1096851,200.742002 C37.0131889,200.251674 36.9603257,199.745392 36.9603257,199.227357 C36.9603257,194.936141 40.4375468,191.458501 44.7253362,191.458501 C46.4555558,191.458501 48.0531979,192.023555 49.3428911,192.980703" id="Fill-141" fill="#FFFFFF"></path>
                    <path d="M12.2431913,191.927084 C13.3659041,189.984241 15.4636484,188.676977 17.8668244,188.676977 C21.4078168,188.676977 24.2859221,191.513999 24.3572454,195.039496 C24.3799011,195.038657 24.4025567,195.036977 24.4252123,195.036977 C27.2848574,195.036977 29.6024454,197.356803 29.6024454,200.217334 C29.6024454,203.078704 27.2848574,205.39853 24.4252123,205.39853 L4.19792211,205.39853 C1.90718526,205.39853 0.0511010526,203.540486 0.0511010526,201.249207 C0.0511010526,198.99487 1.84760932,197.162855 4.08548301,197.102403 C4.02087248,196.775797 3.98646947,196.438276 3.98646947,196.09236 C3.98646947,193.230989 6.30489654,190.912003 9.16454165,190.912003 C10.317462,190.912003 11.3831161,191.288985 12.2431913,191.927084" id="Fill-143" fill="#FFFFFF"></path>
                    <path d="M25.6742932,202.267143 C26.3086511,201.169781 27.4934571,200.430929 28.8511173,200.430929 C30.8506872,200.430929 32.4768586,202.033733 32.5171353,204.025274 C32.5297218,204.024434 32.5423083,204.023594 32.5548947,204.023594 C34.1701579,204.023594 35.4799895,205.334216 35.4799895,206.949614 C35.4799895,208.566691 34.1701579,209.876474 32.5548947,209.876474 L21.1297398,209.876474 C19.8358511,209.876474 18.787818,208.826969 18.787818,207.532299 C18.787818,206.25946 19.8022872,205.224228 21.0668075,205.190644 C21.0298872,205.005931 21.010588,204.815341 21.010588,204.619713 C21.010588,203.003476 22.3195805,201.693693 23.9348436,201.693693 C24.5868226,201.693693 25.1884556,201.906953 25.6742932,202.267143" id="Fill-145" fill="#FFFFFF"></path>
                    <path d="M76.8592556,203.106747 C77.4936135,202.009385 78.6784195,201.270533 80.0360797,201.270533 C82.0356496,201.270533 83.6618211,202.873337 83.7020977,204.864878 C83.7146842,204.864038 83.7272707,204.863198 83.7398571,204.863198 C85.3551203,204.863198 86.6649519,206.17382 86.6649519,207.789218 C86.6649519,209.406295 85.3551203,210.716078 83.7398571,210.716078 L72.3147023,210.716078 C71.0208135,210.716078 69.9727805,209.666573 69.9727805,208.371903 C69.9727805,207.099064 70.9872496,206.063832 72.2517699,206.030248 C72.2148496,205.845535 72.1955504,205.654945 72.1955504,205.459317 C72.1955504,203.84308 73.5045429,202.533297 75.119806,202.533297 C75.771785,202.533297 76.373418,202.746557 76.8592556,203.106747" id="Fill-147" fill="#FFFFFF"></path>
                    <path d="M91.4430262,192.590455 C92.5657389,190.647612 94.6634833,189.340349 97.0666592,189.340349 C100.607652,189.340349 103.485757,192.17737 103.55708,195.702867 C103.579736,195.702028 103.602392,195.700349 103.625047,195.700349 C106.484692,195.700349 108.80228,198.020174 108.80228,200.880705 C108.80228,203.742075 106.484692,206.061901 103.625047,206.061901 L83.397757,206.061901 C81.1070202,206.061901 79.2509359,204.203857 79.2509359,201.912578 C79.2509359,199.658242 81.0474442,197.826226 83.2853179,197.765774 C83.2207074,197.439168 83.1863044,197.101648 83.1863044,196.755731 C83.1863044,193.89436 85.5047314,191.575374 88.3643765,191.575374 C89.5172968,191.575374 90.582951,191.952356 91.4430262,192.590455" id="Fill-149" fill="#FFFFFF"></path>
                    <path d="M332.552393,55.1689489 L323.540483,55.1689489 C322.479024,55.1689489 321.609719,54.2991192 321.609719,53.2370202 C321.609719,52.1740816 322.479024,51.3042519 323.540483,51.3042519 L332.552393,51.3042519 C333.614691,51.3042519 334.483157,52.1740816 334.483157,53.2370202 C334.483157,54.2991192 333.614691,55.1689489 332.552393,55.1689489" id="Fill-151" fill="#000000"></path>
                    <path d="M347.095048,21.7603517 C347.095048,32.4653022 338.422133,41.1426091 327.724476,41.1426091 C317.02598,41.1426091 308.353905,32.4653022 308.353905,21.7603517 C308.353905,11.0554012 317.02598,2.37809426 327.724476,2.37809426 C338.422133,2.37809426 347.095048,11.0554012 347.095048,21.7603517" id="Fill-153" fill="#008373"></path>
                    <path d="M329.581987,35.8028958 L329.189289,29.6402028 L339.227415,15.8136048 L328.94679,25.8393156 L328.575909,20.0166622 L334.609021,11.7062622 L328.429906,17.7320998 L327.767857,7.34200079 L327.229157,17.6028008 L321.182618,11.7062622 L327.110005,19.8705711 L326.7987,25.7948166 L316.564224,15.8136048 L326.597316,29.6334859 L326.270068,35.8616681 L318.959009,28.7317513 L326.126582,38.6038147 L325.373072,52.9518067 C325.373072,52.9518067 328.023782,54.57728 330.675331,52.9518067 L329.753163,38.4837513 L336.83263,28.7317513 L329.581987,35.8028958 Z" id="Fill-155" fill="#2AA296"></path>
                    <path d="M292.097309,77.8382558 L278.881519,77.8382558 C277.324154,77.8382558 276.049565,76.5628974 276.049565,75.0045925 C276.049565,73.4462875 277.324154,72.1709291 278.881519,72.1709291 L292.097309,72.1709291 C293.654674,72.1709291 294.929264,73.4462875 294.929264,75.0045925 C294.929264,76.5628974 293.654674,77.8382558 292.097309,77.8382558" id="Fill-157" fill="#000000"></path>
                    <path d="M313.424488,28.8435865 C313.424488,44.5425014 300.706284,57.2683786 285.016834,57.2683786 C269.328224,57.2683786 256.60918,44.5425014 256.60918,28.8435865 C256.60918,13.1455113 269.328224,0.418794455 285.016834,0.418794455 C300.706284,0.418794455 313.424488,13.1455113 313.424488,28.8435865" id="Fill-159" fill="#008373"></path>
                    <path d="M287.741049,49.4373925 L287.164589,40.3998954 L301.88572,20.1226202 L286.809651,34.8257648 L286.265076,26.2869925 L295.113362,14.0984618 L286.051945,22.9369727 L285.08027,7.69816079 L284.28984,22.7463826 L275.423094,14.0984618 L284.115308,26.0720539 L283.659678,34.7602756 L268.650736,20.1226202 L283.363476,40.3889806 L282.884351,49.5238717 L272.16236,39.0666044 L282.672899,53.5455747 L281.568646,74.5860499 C281.568646,74.5860499 285.456186,76.9705251 289.344565,74.5860499 L287.991939,53.3684182 L298.374096,39.0666044 L287.741049,49.4373925 Z" id="Fill-161" fill="#2AA296"></path>
                    <path d="M34.370031,217.716024 C34.370031,218.655541 33.6081302,219.417901 32.6691798,219.417901 C31.7302295,219.417901 30.9683287,218.655541 30.9683287,217.716024 C30.9683287,216.776507 31.7302295,216.014147 32.6691798,216.014147 C33.6081302,216.014147 34.370031,216.776507 34.370031,217.716024" id="Fill-163" fill="#2AA296"></path>
                    <path d="M73.7280785,241.369766 C70.1820514,241.541885 66.5781266,241.630883 62.9280514,241.630883 C47.0565176,241.630883 32.0761056,239.957552 18.8569597,236.992911" id="Stroke-165" stroke="#2AA296" stroke-width="5.433" stroke-linecap="round"></path>
                    <path d="M82.2635486,241.036276 C82.2635486,242.317511 81.2255847,243.356101 79.9451215,243.356101 C78.6654974,243.356101 77.6275335,242.317511 77.6275335,241.036276 C77.6275335,239.75504 78.6654974,238.71645 79.9451215,238.71645 C81.2255847,238.71645 82.2635486,239.75504 82.2635486,241.036276" id="Fill-167" fill="#2AA296"></path>
                    <path d="M14.244775,213.889109 C14.244775,214.600253 13.6683149,215.177061 12.9575991,215.177061 C12.2468833,215.177061 11.6704232,214.600253 11.6704232,213.889109 C11.6704232,213.177964 12.2468833,212.601156 12.9575991,212.601156 C13.6683149,212.601156 14.244775,213.177964 14.244775,213.889109" id="Fill-169" fill="#2AA296"></path>
                    <path d="M147.327104,222.329983 C147.327104,223.209888 146.613871,223.923552 145.734496,223.923552 C144.854283,223.923552 144.14105,223.209888 144.14105,222.329983 C144.14105,221.450078 144.854283,220.736415 145.734496,220.736415 C146.613871,220.736415 147.327104,221.450078 147.327104,222.329983" id="Fill-171" fill="#2AA296"></path>
                    <path d="M176.96991,214.047374 C176.96991,214.588079 176.531901,215.027192 175.990683,215.027192 C175.450304,215.027192 175.012295,214.588079 175.012295,214.047374 C175.012295,213.506669 175.450304,213.067556 175.990683,213.067556 C176.531901,213.067556 176.96991,213.506669 176.96991,214.047374" id="Fill-173" fill="#2AA296"></path>
                    <path d="M207.010364,213.557549 C207.010364,214.314872 206.396145,214.929462 205.639278,214.929462 C204.881573,214.929462 204.268193,214.314872 204.268193,213.557549 C204.268193,212.800227 204.881573,212.185636 205.639278,212.185636 C206.396145,212.185636 207.010364,212.800227 207.010364,213.557549" id="Fill-175" fill="#2AA296"></path>
                </g>
                <g id="Group-296" transform="translate(218.165414, 94.245545)">
                    <path d="M13.0530884,102.219011 C13.1537802,103.757166 13.9039335,105.200445 15.1416027,106.16515 L26.4685832,112.062528 L30.5029651,106.974528 L26.1111275,102.886497 L48.555314,92.8406352 L36.5637681,85.7275105 L16.0461501,96.9832412 C14.3738283,97.825364 13.2519546,99.4634313 13.0673531,101.324833 C13.0379847,101.623732 13.0337892,101.922631 13.0530884,102.219011" id="Fill-178" fill="#F7CAA7"></path>
                    <path d="M38.2614307,106.989221 C35.9211871,108.330909 33.2150968,107.016928 33.2150968,107.016928 L31.319575,107.471994 L32.6126247,110.19315 C32.6805916,110.063011 32.7317765,109.973174 32.7645014,109.941269 C33.0078397,109.74816 33.9350427,109.64237 34.8504983,109.740604 C37.2981465,110.396334 38.9402608,108.167186 38.2614307,106.989221" id="Fill-180" fill="#DEB695"></path>
                    <path d="M13.0530884,102.219011 C13.1537802,103.757166 13.9039335,105.200445 15.1416027,106.16515 L26.4685832,112.062528 L30.5029651,106.974528 L26.1111275,102.886497 L48.555314,92.8406352 L36.5637681,85.7275105 L16.0461501,96.9832412 C14.3738283,97.825364 13.2519546,99.4634313 13.0673531,101.324833 C13.0379847,101.623732 13.0337892,101.922631 13.0530884,102.219011" id="Fill-182" fill="#F7CAA7"></path>
                    <path d="M13.067437,101.324665 C13.2495212,99.464103 14.3739122,97.8260356 16.046234,96.9839129 L36.563852,85.726503 L38.4937768,86.2344634 C38.4937768,86.2344634 16.046234,96.9839129 13.067437,101.324665" id="Fill-184" fill="#F9D5B9"></path>
                    <polygon id="Fill-186" fill="#DEB695" points="48.5543071 92.8418107 26.1109597 102.887672 25.0016725 101.668567 45.2675612 90.8922503"></polygon>
                    <path d="M112.370627,102.219011 C112.269936,103.757166 111.519782,105.200445 110.282113,106.16515 L98.9551326,112.062528 L94.9207507,106.974528 L99.3125883,102.886497 L76.8684018,92.8406352 L88.8599477,85.7275105 L109.377566,96.9832412 C111.049888,97.825364 112.171761,99.4634313 112.356363,101.324833 C112.385731,101.623732 112.389927,101.922631 112.370627,102.219011" id="Fill-188" fill="#F7CAA7"></path>
                    <path d="M87.1622851,106.989221 C89.5025287,108.330909 92.2086189,107.016928 92.2086189,107.016928 L94.1041408,107.471994 L92.8110911,110.19315 C92.7431242,110.063011 92.6919392,109.973174 92.6592144,109.941269 C92.4158761,109.74816 91.4886731,109.64237 90.5732174,109.740604 C88.1255693,110.396334 86.483455,108.167186 87.1622851,106.989221" id="Fill-190" fill="#DEB695"></path>
                    <path d="M112.370627,102.219011 C112.269936,103.757166 111.519782,105.200445 110.282113,106.16515 L98.9551326,112.062528 L94.9207507,106.974528 L99.3125883,102.886497 L76.8684018,92.8406352 L88.8599477,85.7275105 L109.377566,96.9832412 C111.049888,97.825364 112.171761,99.4634313 112.356363,101.324833 C112.385731,101.623732 112.389927,101.922631 112.370627,102.219011" id="Fill-192" fill="#F7CAA7"></path>
                    <path d="M112.356279,101.324665 C112.174195,99.464103 111.049804,97.8260356 109.377482,96.9839129 L88.8598638,85.726503 L86.9299389,86.2344634 C86.9299389,86.2344634 109.377482,96.9839129 112.356279,101.324665" id="Fill-194" fill="#DEB695"></path>
                    <polygon id="Fill-196" fill="#F9D5B9" points="76.8694087 92.8418107 99.3127561 102.887672 100.422043 101.668567 80.1561546 90.8922503"></polygon>
                    <path d="M0.680088722,136.42263 C5.85648271,154.756222 20.9619203,179.673988 61.5138361,179.673988 C102.062395,179.673988 117.17035,154.756222 122.345905,136.42263 L60.7846602,131.401798 L0.680088722,136.42263 Z" id="Fill-198" fill="#32135A"></path>
                    <path d="M60.7854992,131.401546 L122.346744,136.422378 C117.373412,154.038109 103.218672,177.716619 66.1515293,179.547796 C95.6600797,174.275922 107.621418,153.452905 112.108074,137.560881 L50.5451504,132.540889 L60.7854992,131.401546 Z" id="Fill-200" fill="#220C3D"></path>
                    <path d="M57.3083621,161.236117 C57.3083621,166.387927 53.1346899,170.564117 47.9859862,170.564117 C42.8372824,170.564117 38.6636102,166.387927 38.6636102,161.236117 C38.6636102,156.084307 42.8372824,151.908117 47.9859862,151.908117 C53.1346899,151.908117 57.3083621,156.084307 57.3083621,161.236117" id="Fill-202" fill="#F7CAA7"></path>
                    <path d="M51.6753311,243.946595 C51.6753311,243.946595 50.7523236,246.995197 47.991692,246.995197 C45.2285432,246.995197 44.3072138,243.946595 44.3072138,243.946595 L38.6634424,161.356432 L57.3174244,161.356432 L51.6753311,243.946595 Z" id="Fill-204" fill="#F7CAA7"></path>
                    <path d="M47.9908529,246.995365 C50.686874,246.995365 51.674492,243.946763 51.674492,243.946763 L57.3165853,161.3566 L55.6333552,165.204505 C55.6333552,165.204505 49.6950605,246.594034 47.9908529,246.995365" id="Fill-206" fill="#DEB695"></path>
                    <path d="M47.9908529,246.995365 C45.2948319,246.995365 44.3072138,243.946763 44.3072138,243.946763 L38.6642815,161.3566 L40.3483507,165.204505 C40.3483507,165.204505 46.2866454,246.594034 47.9908529,246.995365" id="Fill-208" fill="#F9D5B9"></path>
                    <path d="M82.4896015,161.236117 C82.4896015,166.387927 78.3159293,170.564117 73.1672256,170.564117 C68.0185218,170.564117 63.8448496,166.387927 63.8448496,161.236117 C63.8448496,156.084307 68.0185218,151.908117 73.1672256,151.908117 C78.3159293,151.908117 82.4896015,156.084307 82.4896015,161.236117" id="Fill-210" fill="#F7CAA7"></path>
                    <path d="M76.8565705,243.946595 C76.8565705,243.946595 75.933563,246.995197 73.1729314,246.995197 C70.4097826,246.995197 69.4884532,243.946595 69.4884532,243.946595 L63.8446818,161.356432 L82.4986638,161.356432 L76.8565705,243.946595 Z" id="Fill-212" fill="#F7CAA7"></path>
                    <path d="M73.1720923,246.995365 C75.8681134,246.995365 76.8557314,243.946763 76.8557314,243.946763 L82.4978247,161.3566 L80.8145946,165.204505 C80.8145946,165.204505 74.8762998,246.594034 73.1720923,246.995365" id="Fill-214" fill="#DEB695"></path>
                    <path d="M73.1720923,246.995365 C70.4760713,246.995365 69.4884532,243.946763 69.4884532,243.946763 L63.8455209,161.3566 L65.5295901,165.204505 C65.5295901,165.204505 71.4678848,246.594034 73.1720923,246.995365" id="Fill-216" fill="#F9D5B9"></path>
                    <path d="M59.3842899,132.316295 L74.2673666,132.501008 L60.7855832,131.401126 L0.679333534,136.423637 C1.10895158,137.939122 1.61241023,139.505823 2.18635308,141.096033 L59.3842899,132.316295 Z" id="Fill-218" fill="#8562AD"></path>
                    <path d="M82.9407005,98.384876 L91.0984087,85.3920048 C91.0984087,85.3920048 83.9006283,72.4268404 65.664517,72.4268404 L57.3608057,72.4268404 C39.1280508,72.4268404 31.9277531,85.3920048 31.9277531,85.3920048 L40.0863005,98.384876 L49.6016689,135.514682 C49.6016689,135.514682 53.6998223,139.267712 61.5143395,139.267712 C69.3288568,139.267712 73.5352538,135.514682 73.5352538,135.514682 L82.9407005,98.384876 Z" id="Fill-220" fill="#FFFFFF"></path>
                    <path d="M65.6651883,72.4265046 L63.5481447,72.4265046 C81.7842559,72.4265046 88.9820364,85.3916689 88.9820364,85.3916689 L80.8226499,98.3845402 L70.6385206,135.514346 C70.6385206,135.514346 67.585883,138.91978 60.4569086,139.23631 C60.8026168,139.251423 61.1491642,139.268215 61.5141717,139.268215 C69.3278499,139.268215 73.5359251,135.514346 73.5359251,135.514346 L82.9396935,98.3845402 L91.0999191,85.3916689 C91.0999191,85.3916689 83.9021386,72.4265046 65.6651883,72.4265046" id="Fill-222" fill="#DEDEDE"></path>
                    <path d="M37.0404595,96.3070242 C37.0404595,96.3070242 62.4021889,92.2802836 62.4021889,101.599048 L57.3130611,101.599048 L37.0404595,96.3070242 Z" id="Fill-224" fill="#EBF4EF"></path>
                    <path d="M87.7626595,96.3070242 C87.7626595,96.3070242 62.4017693,92.2802836 62.4017693,101.599048 L67.490058,101.599048 L87.7626595,96.3070242 Z" id="Fill-226" fill="#EBF4EF"></path>
                    <path d="M57.3133967,101.599048 C57.3133967,101.599048 61.874732,103.405876 66.8170177,101.599048 L66.8170177,140.202359 C66.8170177,140.202359 62.5401365,143.340798 57.3133967,140.202359 L57.3133967,101.599048 Z" id="Fill-228" fill="#C53D42"></path>
                    <path d="M66.816766,101.599048 L57.313145,101.599048 C57.313145,101.599048 61.8744803,103.405876 66.816766,101.599048" id="Fill-230" fill="#900006"></path>
                    <path d="M57.3133967,103.216209 C57.3133967,103.216209 62.0853456,105.447876 66.8170177,103.216209 L66.8170177,107.966688 C66.8170177,107.966688 62.7004042,111.276407 57.3133967,107.966688 L57.3133967,103.216209 Z" id="Fill-232" fill="#AF0007"></path>
                    <path d="M57.3133967,133.299051 C57.3133967,133.299051 62.0853456,135.530718 66.8170177,133.299051 L66.8170177,138.048691 C66.8170177,138.048691 62.7004042,141.359249 57.3133967,138.048691 L57.3133967,133.299051 Z" id="Fill-234" fill="#AF0007"></path>
                    <polygon id="Fill-236" fill="#AF0007" points="35.458089 95.8941909 35.458089 131.265027 57.3132289 140.202611 57.3132289 101.5993"></polygon>
                    <path d="M36.5959056,130.004193 L56.1745732,138.010657 L56.1745732,103.155338 L36.5959056,98.0446685 L36.5959056,130.004193 Z M56.6058695,138.652954 L36.1646093,130.293857 L36.1646093,97.4854923 L36.4356379,97.556019 L56.6058695,102.821175 L56.6058695,138.652954 Z" id="Fill-238" fill="#900006"></path>
                    <polygon id="Fill-240" fill="#AF0007" points="88.6721576 95.8941909 88.6721576 131.265027 66.8170177 140.202611 66.8170177 101.5993"></polygon>
                    <path d="M87.533418,98.0448364 L67.9547504,103.155506 L67.9547504,138.010825 L87.533418,130.004361 L87.533418,98.0448364 Z M67.5234541,102.821343 L87.6953639,97.5561869 L87.9647143,97.4856602 L87.9647143,130.294025 L67.5234541,138.653122 L67.5234541,102.821343 Z" id="Fill-242" fill="#900006"></path>
                    <path d="M90.7592454,111.063903 C90.5821958,110.587848 90.1047492,110.263761 89.5727612,110.306581 L84.1337296,110.737297 C83.4901417,110.787674 83.0101777,111.351888 83.0605236,111.995864 C83.1100304,112.633963 83.6739041,113.120933 84.317492,113.068878 L89.7556845,112.639 C90.4001116,112.586945 90.8800755,112.02441 90.8288905,111.379594 C90.8196605,111.269606 90.7961657,111.163816 90.7592454,111.063903" id="Fill-244" fill="#F7CAA7"></path>
                    <path d="M91.0317844,113.991183 C90.8547347,113.515127 90.3798054,113.194398 89.8494956,113.23386 L83.7526114,113.691444 C83.1090235,113.740141 82.6273814,114.302676 82.676049,114.945812 C82.7205212,115.583911 83.2843949,116.07424 83.9279829,116.023864 L90.024028,115.56628 C90.6676159,115.517583 91.1500971,114.956727 91.1022686,114.312751 C91.0938776,114.201084 91.0695438,114.093614 91.0317844,113.991183" id="Fill-246" fill="#F7CAA7"></path>
                    <path d="M91.2491107,117.026855 C91.0443708,116.562554 90.5501423,116.265334 90.0206716,116.33754 L84.6168821,117.07891 C83.9766505,117.167069 83.5285723,117.75647 83.6166776,118.396249 C83.7014265,119.02931 84.2913122,119.482696 84.9323829,119.396217 L90.3370114,118.657366 C90.9780821,118.568368 91.4244821,117.978966 91.3372159,117.339187 C91.3229513,117.229199 91.2927438,117.124249 91.2491107,117.026855" id="Fill-248" fill="#F7CAA7"></path>
                    <path d="M90.8094235,121.398001 C92.6462084,120.302318 100.292067,115.271411 99.175228,108.076844 C98.7833693,106.255743 96.840858,106.500908 94.1649753,107.148242 C91.4882535,107.797256 88.7427257,110.577185 88.7427257,110.577185 L90.3789663,121.358539 C90.3789663,121.358539 90.5610505,121.54745 90.8094235,121.398001" id="Fill-250" fill="#F7CAA7"></path>
                    <path d="M87.7196977,119.628703 L90.7756917,119.025028 L90.7756917,121.409503 L88.1744887,121.924181 C87.5392917,122.050121 86.923394,121.630319 86.8017248,121.003135 C86.6758602,120.370074 87.0886962,119.753804 87.7196977,119.628703" id="Fill-252" fill="#F7CAA7"></path>
                    <path d="M34.6644704,111.063903 C34.84152,110.587848 35.3189666,110.263761 35.8509546,110.306581 L41.2899862,110.737297 C41.9335741,110.787674 42.413538,111.351888 42.3631922,111.995864 C42.3136854,112.633963 41.7498117,113.120933 41.1062238,113.068878 L35.6680313,112.639 C35.0244433,112.586945 34.5436403,112.02441 34.5948253,111.379594 C34.6040553,111.269606 34.6275501,111.163816 34.6644704,111.063903" id="Fill-254" fill="#F7CAA7"></path>
                    <path d="M34.3919314,113.991183 C34.5689811,113.515127 35.0439104,113.194398 35.5742202,113.23386 L41.6711044,113.691444 C42.3146923,113.740141 42.7963344,114.302676 42.7476668,114.945812 C42.7031946,115.583911 42.1393209,116.07424 41.4957329,116.023864 L35.3996878,115.56628 C34.7560998,115.517583 34.2736186,114.956727 34.3214472,114.312751 C34.3298382,114.201084 34.354172,114.093614 34.3919314,113.991183" id="Fill-256" fill="#F7CAA7"></path>
                    <path d="M34.1746051,117.026855 C34.379345,116.562554 34.8735735,116.265334 35.4030442,116.33754 L40.8068337,117.07891 C41.4470653,117.167069 41.8951435,117.75647 41.8070382,118.396249 C41.7222893,119.02931 41.1324036,119.482696 40.4913329,119.396217 L35.0867044,118.657366 C34.4456337,118.568368 33.9992337,117.978966 34.0864998,117.339187 C34.1007645,117.229199 34.130972,117.124249 34.1746051,117.026855" id="Fill-258" fill="#F7CAA7"></path>
                    <path d="M34.6142084,121.398001 C32.7774235,120.302318 25.1315648,115.271411 26.2484039,108.076844 C26.6402626,106.255743 28.5827738,106.500908 31.2586565,107.148242 C33.9353783,107.797256 36.6809062,110.577185 36.6809062,110.577185 L35.0446656,121.358539 C35.0446656,121.358539 34.8625814,121.54745 34.6142084,121.398001" id="Fill-260" fill="#F7CAA7"></path>
                    <path d="M37.704018,119.628703 L34.6480241,119.025028 L34.6480241,121.409503 L37.2492271,121.924181 C37.8844241,122.050121 38.5003218,121.630319 38.621991,121.003135 C38.7478556,120.370074 38.3350195,119.753804 37.704018,119.628703" id="Fill-262" fill="#F7CAA7"></path>
                    <path d="M54.6688962,57.8362028 L54.6688962,74.2546582 C54.6688962,78.0370741 57.7341203,81.1041473 61.5150947,81.1041473 C65.294391,81.1041473 68.3587759,78.0370741 68.3587759,74.2546582 L68.3587759,57.8362028 L54.6688962,57.8362028 Z" id="Fill-264" fill="#E3C4AC"></path>
                    <path d="M82.8319534,41.0270796 C82.3880707,52.8075628 72.4850391,61.9987073 60.7099805,61.5553964 C48.9382782,61.1112459 39.7526752,51.20224 40.1957188,39.4217568 C40.6396015,27.6421133 50.5426331,18.4509687 62.3160135,18.89344 C74.0902331,19.3367509 83.2741579,29.247436 82.8319534,41.0270796" id="Fill-266" fill="#000000"></path>
                    <path d="M75.2317417,14.2596657 C74.9464484,21.8412895 68.5751792,27.7554598 60.9972875,27.4699945 C53.4202349,27.1836895 47.5096304,20.807737 47.7940845,13.2252737 C48.0793777,5.64532911 54.4531642,-0.268841188 62.0285386,0.0166241584 C69.6064304,0.301249901 75.5170349,6.67720238 75.2317417,14.2596657" id="Fill-268" fill="#000000"></path>
                    <path d="M83.0662295,46.7421798 C83.0511257,49.1333719 81.1019017,51.060263 78.7138295,51.0434709 C76.3249182,51.0300372 74.400028,49.0796372 74.4134535,46.6876055 C74.4302355,44.2980927 76.3802986,42.3720412 78.7675317,42.3863145 C81.1581212,42.4031065 83.0813332,44.3509877 83.0662295,46.7421798" id="Fill-270" fill="#F9D5B9"></path>
                    <path d="M78.1597732,43.3889695 C80.5478454,43.4040824 82.4727356,45.351124 82.458471,47.7448349 C82.4542755,48.3426329 82.330089,48.9144032 82.1060499,49.4290804 C82.7018093,48.6944269 83.0601041,47.7607873 83.0659777,46.7431873 C83.0827597,44.3519952 81.1578695,42.4024349 78.7681191,42.3856428 C76.9791627,42.3738883 75.4335447,43.453619 74.7673011,45.0018487 C75.5661221,44.0102764 76.7886875,43.3805735 78.1597732,43.3889695" id="Fill-272" fill="#E3C4AC"></path>
                    <path d="M39.9612749,46.4704 C39.9461711,48.8615921 41.8710614,50.8094733 44.2599726,50.8262653 C46.6480448,50.8405386 48.5972689,48.9144871 48.6106944,46.5249743 C48.6249591,44.1354614 46.7017471,42.185901 44.3119967,42.1691089 C41.9256027,42.1531564 39.9738614,44.0825663 39.9612749,46.4704" id="Fill-274" fill="#F9D5B9"></path>
                    <path d="M44.9111125,43.178061 C42.5188448,43.1629481 40.5712989,45.0873204 40.5536779,47.4793521 C40.5536779,48.0788293 40.6694734,48.6531184 40.8876388,49.1694749 C40.3011095,48.4289442 39.9545621,47.4894273 39.9604358,46.4701481 C39.9738614,44.0806352 41.9256027,42.1537442 44.3119967,42.1705362 C46.1059877,42.1814511 47.6348238,43.2788135 48.2800899,44.8354392 C47.4946944,43.8346313 46.28052,43.1847778 44.9111125,43.178061" id="Fill-276" fill="#E3C4AC"></path>
                    <path d="M78.9326662,37.3766495 C78.9427353,36.1046495 77.9911985,35.054305 76.8298872,35.0475881 L46.3521789,34.8553188 C45.1866722,34.8469228 44.2259053,35.8846733 44.2191925,37.1583525 L44.1000406,56.1031762 C44.1017188,56.2022495 44.1109489,56.3105584 44.1151444,56.4129901 C44.1067534,56.5439683 44.0958451,56.6715881 44.0941669,56.8034059 C44.0874541,58.1375366 44.6286722,59.3339723 45.4879083,60.1332752 C45.4904256,60.1357941 45.4929429,60.1416713 45.4962992,60.1416713 L45.5055293,60.1483881 C45.8780887,60.4901069 46.3018331,60.7545822 46.7675323,60.9300594 L57.0783654,67.3169267 C57.5298,68.2648396 58.457003,69.0414733 59.1417068,69.0473505 L63.6115805,69.0750574 C64.2962842,69.0826139 65.2327173,68.3152158 65.6967383,67.3706614 L76.0872857,61.1147723 C76.5555023,60.9476911 76.9851203,60.684895 77.360197,60.3498931 L77.3643925,60.3448554 C77.368588,60.3448554 77.368588,60.3389782 77.3711053,60.3364594 C78.2429278,59.5463921 78.8009278,58.3558337 78.810997,57.0225426 C78.810997,56.8915644 78.8042842,56.7614257 78.7925368,56.6312871 C78.8009278,56.5271762 78.8135143,56.4213861 78.8151925,56.3231525 L78.9326662,37.3766495 Z" id="Fill-278" fill="#F7CAA7"></path>
                    <path d="M57.0781137,67.3177663 L47.9411783,60.9300594 C47.4754791,60.7554218 47.0500565,60.4892673 46.6791753,60.1483881 L46.6716235,60.1425109 C46.6682671,60.1425109 46.6657498,60.1366337 46.6615543,60.1341149 C45.8023182,59.3331327 45.2611002,58.136697 45.2694911,56.8025663 C45.2694911,56.6724277 45.2803994,56.5431287 45.2904686,56.4129901 C45.2862731,56.3097188 45.2753648,56.2030891 45.2736866,56.1023366 L45.3928385,37.1591921 C45.3995513,35.9090218 46.324237,34.8939406 47.4586971,34.8620356 L46.3510881,34.8553188 C45.1855814,34.8477624 44.2256535,35.8838337 44.2189408,37.1591921 L44.0997889,56.1023366 C44.1014671,56.2030891 44.1106971,56.3097188 44.1148926,56.4129901 C44.1065017,56.5431287 44.0955934,56.6724277 44.0947543,56.8025663 C44.0872024,58.136697 44.6275814,59.3331327 45.4876565,60.1341149 C45.4901738,60.1366337 45.4943693,60.1425109 45.4960475,60.1425109 L45.5061167,60.1483881 C45.8769979,60.4892673 46.3015814,60.7554218 46.7672806,60.9300594 L57.0781137,67.3177663 C57.5303874,68.264 57.5303874,68.264 57.0781137,67.3177663" id="Fill-280" fill="#F9D5B9"></path>
                    <path d="M78.9326662,37.3766495 C78.9393789,36.4304158 77.7562511,55.1846495 77.7562511,55.1846495 C77.7562511,55.2828832 77.7436647,55.3895129 77.7335955,55.4927842 C77.7445038,55.6229228 77.7520556,55.7522218 77.7520556,55.8848792 C77.7436647,57.2173307 76.621791,58.7361743 76.3121639,59.0191208 C76.0033759,59.3003881 75.5007564,59.6001267 75.0291835,59.9762693 C74.5584496,60.3515723 66.6189068,66.6704317 65.6967383,67.3706614 L76.0872857,61.1147723 C76.5555023,60.9476911 76.9851203,60.684895 77.360197,60.3498931 L77.3643925,60.3448554 C77.368588,60.3448554 77.368588,60.3389782 77.3711053,60.3364594 C78.2429278,59.5463921 78.8009278,58.3558337 78.810997,57.0225426 C78.810997,56.8915644 78.8042842,56.7614257 78.7925368,56.6312871 C78.8009278,56.5271762 78.8135143,56.4213861 78.8151925,56.3231525 L78.9326662,37.3766495 Z" id="Fill-282" fill="#E3C4AC"></path>
                    <path d="M55.5027077,49.4032206 C56.0229483,49.4057394 56.5154986,49.527482 56.9593814,49.7323453 C57.2748821,49.3805513 57.4754265,48.9212879 57.4762656,48.4108087 C57.4863347,47.3067295 56.5968911,46.4091929 55.4926385,46.398278 C54.3850295,46.3932404 53.4855167,47.2815414 53.479643,48.3856206 C53.4754475,48.906175 53.6759919,49.3780325 53.9998836,49.733185 C54.4588701,49.5249632 54.9640069,49.3990226 55.5027077,49.4032206" id="Fill-284" fill="#32135A"></path>
                    <path d="M67.572877,49.4032206 C68.0931176,49.4057394 68.585668,49.527482 69.0295507,49.7323453 C69.3467296,49.3805513 69.5464349,48.9212879 69.5464349,48.4108087 C69.5565041,47.3067295 68.6670605,46.4091929 67.5628078,46.398278 C66.4551988,46.3932404 65.555686,47.2815414 65.5498123,48.3856206 C65.5456168,48.906175 65.7461612,49.3780325 66.0700529,49.733185 C66.5290394,49.5249632 67.0341762,49.3990226 67.572877,49.4032206" id="Fill-286" fill="#32135A"></path>
                    <path d="M43.8891753,38.4745156 L43.8891753,44.9654939 C43.8891753,44.9654939 66.1563122,44.3215176 67.8378641,29.8878859 C42.8201648,32.3252562 42.8201648,33.1052483 42.8201648,33.1052483" id="Fill-288" fill="#000000"></path>
                    <path d="M79.829326,39.2471192 L79.829326,42.4544063 C79.829326,42.4544063 67.1312598,42.3628895 66.2703456,34.9802519 C72.5241411,31.4262083 78.3030072,29.0803549 78.3030072,29.0803549" id="Fill-290" fill="#000000"></path>
                    <path d="M55.7969792,56.9204467 C55.7969792,56.9204467 57.1017762,60.8145299 61.6798935,60.8145299 C66.2571717,60.8145299 67.5485432,56.9204467 67.5485432,56.9204467 L55.7969792,56.9204467 Z" id="Fill-292" fill="#DEB695"></path>
                    <path d="M56.4304141,56.9204467 C57.4792863,58.7348309 59.433545,59.955615 61.6781314,59.955615 C63.9202006,59.9522566 65.8677465,58.7314725 66.9141014,56.9204467 L56.4304141,56.9204467 Z" id="Fill-294" fill="#FFFFFF"></path>
                </g>
                <g id="Group-299" transform="translate(276.902256, 140.423762)">
                    <mask id="mask-42" fill="white">
                        <use xlink:href="#path-41"></use>
                    </mask>
                    <g id="Clip-298"></g>
                    <path d="M2.56638045,7.2839002 L2.58064511,0.263971485 C1.87244662,0.262292277 1.27333083,0.878561584 1.17431729,1.70725069 L0.50975188,7.27970218 L2.56638045,7.2839002 Z" id="Fill-297" fill="#F9D5B9" mask="url(#mask-42)"></path>
                </g>
            </g>
        </g>
    </g>
</svg>