<?xml version="1.0" encoding="UTF-8"?>
<svg width="182px" height="130px" viewBox="0 0 182 130" version="1.1" xmlns="http://www.w3.org/2000/svg" xmlns:xlink="http://www.w3.org/1999/xlink">
    <!-- Generator: Sketch 42 (36781) - http://www.bohemiancoding.com/sketch -->
    <title>Page 1</title>
    <desc>Created with Sketch.</desc>
    <defs>
        <polygon id="path-1" points="0 129.60352 181.71331 129.60352 181.71331 0 0 0"></polygon>
    </defs>
    <g id="Homepage" stroke="none" stroke-width="1" fill="none" fill-rule="evenodd">
        <g id="3.4a_Mobile_Accreditations_Complete-for-365" transform="translate(-97.000000, -2176.000000)">
            <g id="Page-1" transform="translate(97.000000, 2176.000000)">
                <path d="M0.155988496,40.6561433 L0.000161061947,40.6561433 L0.000161061947,83.1620935 C0.000161061947,115.664523 55.9651611,125.406019 90.8487628,125.406019 L90.8487628,84.6123427 C67.2696965,84.6123427 3.6808292,79.3722492 0.155988496,40.6561433 L0.155988496,40.6561433 Z" id="Fill-1" fill="#221F1F"></path>
                <path d="M125.413502,123.275882 C125.413502,124.300492 124.705232,125.185383 123.709064,125.397595 C120.058998,126.17719 110.19798,127.780928 90.8492058,127.780928 C72.4490863,127.780928 64.734219,126.616598 61.7654447,125.920835 C60.787396,125.692019 60.0964403,124.816847 60.0964403,123.806411 L60.0964403,118.452922 C60.0964403,117.835321 60.6609624,117.376474 61.2601128,117.508903 C64.3557235,118.189682 73.7436217,119.874822 90.8492058,119.874822 C108.760905,119.874822 120.714923,118.052393 124.2909,117.427097 C124.878374,117.323826 125.413502,117.779028 125.413502,118.378405 L125.413502,123.275882 Z" id="Fill-3" fill="#2F2F2F"></path>
                <path d="M60.0967221,123.109393 L62.8915496,123.385187 C63.7024965,123.465779 64.4043239,122.825093 64.4043239,122.006215 C64.4043239,121.302757 63.8800673,120.711075 63.1846823,120.629673 L59.3107398,119.875187 L60.0967221,123.109393 Z" id="Fill-5" fill="#221F1F"></path>
                <path d="M104.63639,127.679034 C96.9207177,130.245016 88.5889832,130.245016 80.8733106,127.679034 L80.8733106,125.896698 C88.7858814,126.422368 96.7238195,126.422368 104.63639,125.896698 L104.63639,127.679034 Z" id="Fill-7" fill="#505150"></path>
                <path d="M181.541859,40.6561433 C178.017019,79.3722492 114.427749,79.87119 90.849085,79.87119 L90.849085,119.874741 C125.732687,119.874741 181.697687,115.664523 181.697687,83.1620935 L181.697687,40.6561433 L181.541859,40.6561433 Z" id="Fill-9" fill="#505150"></path>
                <path d="M0.155988496,83.563838 C3.6808292,44.8477321 67.2696965,40.0033084 90.8487628,40.0033084 L90.8487628,1.18393146 C55.9651611,1.18393146 0.000161061947,8.55545794 0.000161061947,41.0578879 L0.000161061947,83.563838 L0.155988496,83.563838 Z" id="Fill-11" fill="#505150"></path>
                <path d="M181.541859,83.563838 L181.697687,83.563838 L181.697687,41.0578879 C181.697687,8.55545794 125.732687,1.18393146 90.849085,1.18393146 L90.849085,40.0033084 C114.427749,40.0033084 178.017019,44.8477321 181.541859,83.563838" id="Fill-13" fill="#221F1F"></path>
                <path d="M90.8488836,1.18437695 C71.1675164,1.18437695 44.7775164,3.53166667 25.5120916,11.4142835 L25.5120916,44.602352 L26.9338659,44.4346885 C46.0607774,37.0048442 71.6458704,34.7673053 90.8488836,34.7673053 C110.055923,34.7673053 135.648264,37.0064642 154.777189,44.4399533 L156.185676,44.602352 L156.185676,11.4142835 C136.920251,3.53166667 110.530251,1.18437695 90.8488836,1.18437695" id="Fill-15" fill="#5E5E5E"></path>
                <path d="M43.0439261,34.0126168 C51.090581,32.1399688 67.072758,28.4922741 90.8491252,28.4922741 C114.624687,28.4922741 130.607669,32.1399688 138.654324,34.0126168 L138.654324,11.7166044 C130.353594,9.68560748 113.855214,6.56277259 90.8491252,6.56277259 C67.8430367,6.56277259 51.3446562,9.68560748 43.0439261,11.7166044 L43.0439261,34.0126168 Z" id="Fill-17" fill="#1EBAED"></path>
                <path d="M25.5118097,44.9976978 C8.66754867,50.9943022 0,64.9958287 0,83.162215 C3.76160177,83.162215 5.52804867,79.6161713 5.52804867,79.6161713 C5.52804867,79.6161713 6.36154425,58.6537726 30.8687301,50.5800031 C28.2933496,48.4279159 25.5118097,44.9976978 25.5118097,44.9976978" id="Fill-19" fill="#221F1F"></path>
                <path d="M143.948793,74.7208411 L143.948793,97.1820872 C143.948793,103.020748 149.741386,107.043053 155.181656,105.006791 C164.513585,101.515826 176.269094,94.873271 176.269094,83.564081 C176.269094,64.8120872 169.367992,62.9787227 169.367992,62.9787227 C169.367992,62.9787227 160.109346,70.7337695 143.948793,74.7208411" id="Fill-21" fill="#2F2F2F"></path>
                <path d="M156.201782,44.9976978 C173.046043,50.9943022 181.713189,64.9958287 181.713189,83.162215 C177.951587,83.162215 176.185543,79.6161713 176.185543,79.6161713 C176.185543,79.6161713 175.352047,58.6537726 150.844862,50.5800031 C153.420242,48.4279159 156.201782,44.9976978 156.201782,44.9976978" id="Fill-23" fill="#505150"></path>
                <path d="M25.5118097,44.9976978 C25.5118097,48.815486 29.2432124,51.5147072 32.8340885,50.2758598 C53.2547301,43.2279159 77.9954558,42.3738037 90.8486018,42.3738037 C103.70215,42.3738037 128.442473,43.2279159 148.863115,50.2758598 C152.453991,51.5147072 156.185394,48.815486 156.185394,44.9976978 C136.921177,37.115081 110.529969,34.7677913 90.8486018,34.7677913 C71.1672345,34.7677913 44.7772345,37.115081 25.5118097,44.9976978" id="Fill-25" fill="#C7C7C7"></path>
                <path d="M117.997324,117.830745 C99.0427491,120.440464 84.6184438,121.371118 64.9338553,118.558502 C58.4507093,117.340308 54.3714128,112.614545 54.6283066,106.980402 C55.274165,100.237816 55.9192181,93.4960405 56.5646739,86.7542648 C57.3031429,81.5943583 62.0830588,77.0156044 67.6308376,77.5999969 C83.5473819,78.5310561 99.3837978,78.5310561 115.299939,77.5999969 C120.530426,77.4724268 126.048811,81.2213676 126.366506,86.7542648 C127.011559,93.4960405 127.657417,100.237816 128.30247,106.980402 C129.11382,112.913019 123.356661,117.28604 117.997324,117.830745" id="Fill-27" fill="#505150"></path>
                <path d="M124.512844,100.828729 C123.109189,104.145956 119.262627,106.406174 115.61699,106.767421 C98.365242,109.084336 85.2366801,109.263745 67.3201491,106.767421 C63.2468925,106.681159 59.7478217,103.980723 58.4609367,100.458978 C58.2873925,102.22633 58.1142509,103.993277 57.9407066,105.759819 C57.7063615,110.762997 62.0304721,115.280598 67.3201491,115.392779 C85.2366801,117.889508 98.365242,117.70929 115.61699,115.392779 C120.495556,114.909227 125.735707,111.027047 124.997238,105.759819 C124.83537,104.115583 124.674711,102.472561 124.512844,100.828729" id="Fill-29" fill="#2F2F2F"></path>
                <path d="M77.407177,92.6509595 C77.407177,94.5823302 75.5867743,96.148405 73.3403628,96.148405 C71.0951593,96.148405 69.2739513,94.5823302 69.2739513,92.6509595 C69.2739513,90.7195888 71.0951593,89.153514 73.3403628,89.153514 C75.5867743,89.153514 77.407177,90.7195888 77.407177,92.6509595" id="Fill-31" fill="#ACACAC"></path>
                <path d="M61.2899496,14.8730125 C60.1129894,15.1070935 59.160308,16.081081 58.8571088,17.2219221 C58.4568699,16.2212056 57.4349319,15.639243 56.2571664,15.874134 C54.7870735,16.1665327 53.6491708,17.6082773 53.7160115,19.095785 C53.7502372,19.8385265 54.0784009,20.4520779 54.5821221,20.8436978 C55.086246,21.2349128 59.1687637,24.1163769 59.1687637,24.1163769 C59.1687637,24.1163769 62.9202991,19.6773427 63.3805336,19.0937601 C63.8403655,18.5113925 64.108131,17.7787757 64.0747106,17.0360343 C64.0070646,15.5485265 62.7600425,14.5806137 61.2899496,14.8730125" id="Fill-33" fill="#FFFFFF"></path>
                <polygon id="Fill-35" fill="#FFFFFF" points="86.0811279 15.3432804 86.0811279 20.5031869 97.0381721 20.5031869 97.0381721 15.3432804 91.55965 17.198514"></polygon>
                <polygon id="Fill-37" fill="#FFFFFF" points="91.5596903 16.4955016 97.0382124 14.6418879 97.0382124 13.7407975 86.0811681 13.7407975 86.0811681 14.6418879"></polygon>
                <path d="M124.480591,15.8355794 C124.636419,16.5054237 124.237388,17.0485078 123.589516,17.0485078 C122.941242,17.0485078 122.290149,16.5054237 122.134321,15.8355794 C121.978494,15.1657352 122.377525,14.6226511 123.026202,14.6226511 C123.673671,14.6226511 124.324764,15.1657352 124.480591,15.8355794" id="Fill-39" fill="#FFFFFF"></path>
                <polygon id="Fill-41" fill="#FFFFFF" points="124.021363 17.5323427 119.417005 17.5323427 120.061253 20.3097259 120.871394 20.3097259 120.497328 18.6958629 121.989164 18.6958629 121.946885 21.632405 121.132315 24.0007539 118.661222 25.2918442 119.326408 25.9531838 122.139354 24.8508162 123.23216 22.0292897 125.088399 23.0433707 124.362412 25.4242741 125.342474 25.4242741 126.598354 22.2058629 124.170346 20.9277321 124.167124 19.0757383 125.702447 20.1781059 127.406885 19.0757383 126.9237 18.4646168 125.425823 18.9878567"></polygon>
                <path d="M115.747249,45.1152243 C106.762005,43.8913614 102.209589,43.6775296 93.1510628,44.0529502 C91.587554,44.1185576 90.2414788,42.9323583 90.1424257,41.3654735 C90.0437752,39.7985888 91.2859655,38.441486 92.9179257,38.3734486 C100.654939,37.9802087 108.839302,38.3649439 116.506656,39.481891 C118.124523,39.7022025 119.235448,41.171081 118.991842,42.7209564 C118.748638,44.2720467 117.29747,45.3266262 115.747249,45.1152243" id="Fill-43" fill="#ACACAC"></path>
                <path d="M140.024962,50.0853551 C138.307236,49.6232679 137.430254,49.4288754 135.647298,49.1223022 C133.853873,48.8128941 132.525112,47.2225202 132.776771,45.4385639 C133.028431,43.6554174 134.943054,42.3805265 136.95351,42.7365078 C138.951484,43.0904642 139.934767,43.3123956 141.863484,43.8388754 C143.804683,44.36981 144.789174,46.2691869 144.176736,47.9583769 C143.56309,49.646757 141.753559,50.5506822 140.024962,50.0853551" id="Fill-45" fill="#ACACAC"></path>
                <path d="M154.799174,9.74716511 C132.240435,0.296853583 103.540001,0.00445482866 91.1108509,0 L90.9457624,0 L90.7806739,0 C78.3519261,0.00445482866 49.6510898,0.296853583 27.0927535,9.74716511 C25.2864438,10.504081 25.5115279,12.8647352 25.5115279,12.8647352 C47.8757845,3.75137072 78.7267978,2.38090343 90.9457624,2.36915888 C103.16513,2.38090343 134.014935,3.75137072 156.379594,12.8647352 C156.379594,12.8647352 156.605484,10.504081 154.799174,9.74716511" id="Fill-47" fill="#C7C7C7"></path>
                <mask id="mask-2" fill="white">
                    <use xlink:href="#path-1"></use>
                </mask>
                <g id="Clip-50"></g>
                <polygon id="Fill-49" fill="#5E5E5E" mask="url(#mask-2)" points="75.0101726 30.1749844 75.679385 30.1749844 75.679385 6.56358255 75.0101726 6.56358255"></polygon>
                <polygon id="Fill-51" fill="#5E5E5E" mask="url(#mask-2)" points="107.131159 30.1749844 107.800372 30.1749844 107.800372 6.56358255 107.131159 6.56358255"></polygon>
            </g>
        </g>
    </g>
</svg>