<?xml version="1.0" encoding="UTF-8"?>
<svg width="228px" height="153px" viewBox="0 0 228 153" version="1.1" xmlns="http://www.w3.org/2000/svg" xmlns:xlink="http://www.w3.org/1999/xlink">
    <!-- Generator: Sketch 42 (36781) - http://www.bohemiancoding.com/sketch -->
    <title>Page 1</title>
    <desc>Created with Sketch.</desc>
    <defs>
        <polygon id="path-1" points="161.06595 0.710500171 0.6792 0.710500171 0.6792 34.4570193 161.06595 34.4570193 161.06595 0.710500171"></polygon>
        <polygon id="path-3" points="227.9835 143.29363 227.9835 0.658481409 0.00135 0.658481409 0.00135 143.29363"></polygon>
    </defs>
    <g id="Homepage" stroke="none" stroke-width="1" fill="none" fill-rule="evenodd">
        <g id="3.4a_Mobile_Accreditations_Complete-for-365" transform="translate(-74.000000, -1302.000000)">
            <g id="Page-1" transform="translate(74.000000, 1302.000000)">
                <polygon id="Fill-1" fill="#333333" points="33.6792 19.7978037 18.2817 76.5236299 207.41595 76.5236299 194.3067 19.7978037 179.32545 9.65153284 154.9827 8.61488921 140.58795 11.3068788 81.94695 11.3068788 69.88245 7.16776754 48.8667 11.1001472"></polygon>
                <g id="Group-52" transform="translate(0.000000, 0.036570)">
                    <g id="Group-4" transform="translate(33.000000, 0.000000)">
                        <mask id="mask-2" fill="white">
                            <use xlink:href="#path-1"></use>
                        </mask>
                        <g id="Clip-3"></g>
                        <path d="M161.06595,19.1387252 C160.5657,17.85878 159.44295,14.9205036 159.22695,13.9607313 C158.9502,12.719595 156.72795,11.3374035 153.54045,9.68429645 C150.3507,8.02820414 138.97545,2.64198593 134.81295,1.6747504 C130.65345,0.709753848 126.7677,0.709753848 124.40895,0.709753848 C122.0502,0.709753848 119.5557,1.54041214 118.1682,2.2285226 C116.77995,2.91961835 111.23295,6.36838021 108.73545,6.36838021 L80.99295,6.36838021 L53.25045,6.36838021 C50.7537,6.36838021 45.2052,2.91961835 43.81995,2.2285226 C42.4317,1.54041214 39.93495,0.709753848 37.57695,0.709753848 C35.21895,0.709753848 31.33395,0.709753848 27.1737,1.6747504 C23.0112,2.64198593 11.6367,8.02820414 8.4477,9.68429645 C5.25795,11.3374035 3.03645,12.719595 2.7612,13.9607313 C2.48295,15.2048529 0.6792,19.7611592 0.6792,19.7611592 C7.95945,15.4085993 27.31245,9.61488835 34.5942,9.61488835 C41.87745,9.61488835 45.10995,16.4840518 50.1972,23.2793291 C57.6507,33.2285705 59.6667,34.4570193 64.76745,34.4570193 L96.3597,34.4570193 C101.4567,34.4570193 103.4742,33.2285705 110.92395,23.2793291 C116.01345,16.4840518 119.2497,9.61488835 126.5307,9.61488835 C133.81395,9.61488835 153.16395,15.4085993 160.44495,19.7611592 L161.06595,19.1387252 Z" id="Fill-2" fill="#000000" mask="url(#mask-2)"></path>
                    </g>
                    <path d="M124.319025,20.8616881 C124.319025,26.7740645 119.503275,31.5662091 113.563275,31.5662091 C107.624025,31.5662091 102.809025,26.7740645 102.809025,20.8616881 C102.809025,14.9537896 107.624025,10.1608988 113.563275,10.1608988 C119.503275,10.1608988 124.319025,14.9537896 124.319025,20.8616881" id="Fill-5" fill="#FFFFFF"></path>
                    <path d="M116.3808,16.5246518 C118.02705,15.3178463 119.7963,14.3379233 121.63905,13.8095261 C119.3523,13.2751583 116.4858,13.3378495 113.81355,14.7080999 C111.13605,13.3378495 108.2703,13.2751583 105.9858,13.8095261 C107.82705,14.3379233 109.5948,15.3178463 111.2433,16.5246518 C108.8208,18.7897442 106.8258,22.5362893 105.9858,28.4583679 C105.9858,28.4583679 109.1493,23.0131901 113.81355,18.6628692 C118.47555,23.0131901 121.63905,28.4583679 121.63905,28.4583679 C120.7998,22.5362893 118.80255,18.7897442 116.3808,16.5246518" id="Fill-7" fill="#000000"></path>
                    <path d="M193.307025,17.1565641 C193.316696,17.1799055 193.322338,17.2000275 193.329591,17.2209543 C193.322338,17.2000275 193.316696,17.1799055 193.307025,17.1565641" id="Fill-9" fill="#4F4F4F"></path>
                    <path d="M192.74805,15.6195104 C192.764974,15.6645836 192.781093,15.7048275 192.795599,15.7531201 C192.781093,15.7048275 192.764974,15.6645836 192.74805,15.6195104" id="Fill-11" fill="#4F4F4F"></path>
                    <path d="M193.0335,16.4116584 C193.041559,16.4390242 193.050424,16.4623657 193.060901,16.4873169 C193.050424,16.4623657 193.041559,16.4390242 193.0335,16.4116584" id="Fill-13" fill="#4F4F4F"></path>
                    <g id="Group-17" transform="translate(0.000000, 8.955885)">
                        <mask id="mask-4" fill="white">
                            <use xlink:href="#path-3"></use>
                        </mask>
                        <g id="Clip-16"></g>
                        <path d="M200.96385,17.2238825 C198.8061,11.9936459 194.3061,10.8047522 194.3061,10.8047522 C194.3061,10.8047522 194.2131,10.5659287 194.0661,10.1830646 L193.44435,10.8047522 C186.1641,6.45219237 166.8141,0.658481409 159.5316,0.658481409 C152.2491,0.658481409 149.01435,7.52839115 143.92485,14.3229222 C136.47435,24.2729099 134.45685,25.502105 129.3606,25.502105 L97.76685,25.502105 C92.6661,25.502105 90.65085,24.2729099 83.19735,14.3229222 C78.1101,7.52839115 74.8776,0.658481409 67.59435,0.658481409 C60.31185,0.658481409 40.96035,6.45219237 33.67935,10.8047522 C33.67935,10.8047522 29.1786,11.9936459 27.02235,17.2238825 C24.0861,24.3378401 0.00135,84.9266378 0.00135,108.73511 C0.00135,140.001596 22.8606,143.29363 25.1496,143.29363 C27.43635,143.29363 51.1581,118.884367 58.8546,111.636071 C66.5556,104.391506 72.7956,104.179551 77.58285,104.179551 L113.9931,104.179551 L150.4041,104.179551 C155.19135,104.179551 161.43135,104.391506 169.13085,111.636071 C176.82885,118.884367 200.54985,143.29363 202.8411,143.29363 C205.12785,143.29363 227.98485,140.001596 227.98485,108.73511 C227.98485,84.9266378 203.9016,24.3378401 200.96385,17.2238825" id="Fill-15" fill="#333333" mask="url(#mask-4)"></path>
                    </g>
                    <path d="M192.5313,14.9863294 C192.537747,15.0040367 192.544195,15.0233537 192.54903,15.0418659 C192.544195,15.0233537 192.537747,15.0040367 192.5313,14.9863294" id="Fill-18" fill="#4F4F4F"></path>
                    <path d="M192.33435,14.3626266 C192.345633,14.4004559 192.355304,14.4350657 192.367393,14.47209 C192.355304,14.4350657 192.345633,14.4004559 192.33435,14.3626266" id="Fill-20" fill="#4F4F4F"></path>
                    <path d="M164.6973,82.9087277 C164.6973,94.7260173 155.07105,104.302097 143.19705,104.302097 C131.32305,104.302097 121.6953,94.7260173 121.6953,82.9087277 C121.6953,71.0906918 131.32305,61.5108806 143.19705,61.5108806 C155.07105,61.5108806 164.6973,71.0906918 164.6973,82.9087277" id="Fill-22" fill="#737373"></path>
                    <path d="M161.92515,82.9087277 C161.92515,93.1953074 153.5394,101.54667 143.19765,101.54667 C132.85515,101.54667 124.4709,93.1953074 124.4709,82.9087277 C124.4709,72.6161774 132.85515,64.2685468 143.19765,64.2685468 C153.5394,64.2685468 161.92515,72.6161774 161.92515,82.9087277" id="Fill-24" fill="#333333"></path>
                    <path d="M102.9645,82.9087277 C102.9645,93.1953074 94.58025,101.54667 84.24075,101.54667 C73.89825,101.54667 65.5125,93.1953074 65.5125,82.9087277 C65.5125,72.6161774 73.89825,64.2685468 84.24075,64.2685468 C94.58025,64.2685468 102.9645,72.6161774 102.9645,82.9087277" id="Fill-26" fill="#737373"></path>
                    <path d="M71.972325,68.8424662 C68.016825,72.2539119 65.513325,77.2863727 65.513325,82.9091755 C65.513325,93.1950089 73.897575,101.546371 84.240825,101.546371 C89.885325,101.546371 94.945575,99.0499184 98.381325,95.1123145 L71.972325,68.8424662 Z" id="Fill-28" fill="#000000"></path>
                    <path d="M143.197275,101.545998 C148.507275,101.545998 153.294525,99.3406115 156.701775,95.8105003 L130.234275,69.466766 C126.684525,72.8602999 124.470525,77.6255768 124.470525,82.9088024 C124.470525,93.195382 132.856275,101.545998 143.197275,101.545998" id="Fill-30" fill="#4F4F4F"></path>
                    <path d="M76.67805,45.7777052 C76.67805,57.5920095 67.0518,67.1770449 55.1793,67.1770449 C43.30605,67.1770449 33.67905,57.5920095 33.67905,45.7777052 C33.67905,33.9634008 43.30605,24.3850824 55.1793,24.3850824 C67.0518,24.3850824 76.67805,33.9634008 76.67805,45.7777052" id="Fill-32" fill="#737373"></path>
                    <path d="M73.9059,45.7777052 C73.9059,56.0717481 65.52165,64.4134082 55.17915,64.4134082 C44.8389,64.4134082 36.4539,56.0717481 36.4539,45.7777052 C36.4539,35.4873939 44.8389,27.1427485 55.17915,27.1427485 C65.52165,27.1427485 73.9059,35.4873939 73.9059,45.7777052" id="Fill-34" fill="#333333"></path>
                    <path d="M55.179375,64.4137813 C60.489375,64.4137813 65.280375,62.2113801 68.686125,58.6805226 L42.214125,32.3367883 C38.668125,35.7295759 36.454125,40.4978381 36.454125,45.7780783 C36.454125,56.0713749 44.839125,64.4137813 55.179375,64.4137813" id="Fill-36" fill="#4F4F4F"></path>
                    <path d="M180.3687,61.9928565 C180.3687,66.6864863 176.5452,70.4882593 171.8352,70.4882593 C167.1237,70.4882593 163.3047,66.6864863 163.3047,61.9928565 C163.3047,57.3081826 167.1237,53.5071559 171.8352,53.5071559 C176.5452,53.5071559 180.3687,57.3081826 180.3687,61.9928565" id="Fill-38" fill="#000000"></path>
                    <path d="M180.3687,31.764358 C180.3687,36.4587342 176.5452,40.2582682 171.8352,40.2582682 C167.1237,40.2582682 163.3047,36.4587342 163.3047,31.764358 C163.3047,27.0796841 167.1237,23.2794038 171.8352,23.2794038 C176.5452,23.2794038 180.3687,27.0796841 180.3687,31.764358" id="Fill-40" fill="#000000"></path>
                    <path d="M194.930475,47.088772 C194.930475,51.7779239 191.111475,55.5782042 186.399975,55.5782042 C181.686225,55.5782042 177.868725,51.7779239 177.868725,47.088772 C177.868725,42.4011128 181.686225,38.5993398 186.399975,38.5993398 C191.111475,38.5993398 194.930475,42.4011128 194.930475,47.088772" id="Fill-42" fill="#000000"></path>
                    <path d="M165.594975,47.088772 C165.594975,51.7779239 161.774475,55.5782042 157.061475,55.5782042 C152.351475,55.5782042 148.531725,51.7779239 148.531725,47.088772 C148.531725,42.4011128 152.351475,38.5993398 157.061475,38.5993398 C161.774475,38.5993398 165.594975,42.4011128 165.594975,47.088772" id="Fill-44" fill="#000000"></path>
                    <path d="M155.8884,82.9087277 C155.8884,89.8838691 150.20865,95.5395102 143.1969,95.5395102 C136.1874,95.5395102 130.5039,89.8838691 130.5039,82.9087277 C130.5039,75.9335863 136.1874,70.2786916 143.1969,70.2786916 C150.20865,70.2786916 155.8884,75.9335863 155.8884,82.9087277" id="Fill-46" fill="#4F4F4F"></path>
                    <path d="M103.380825,47.4998471 C103.380825,50.5881346 100.866825,53.0935433 97.767825,53.0935433 C94.660575,53.0935433 92.145825,50.5881346 92.145825,47.4998471 C92.145825,44.4115596 94.660575,41.9143605 97.767825,41.9143605 C100.866825,41.9143605 103.380825,44.4115596 103.380825,47.4998471" id="Fill-48" fill="#000000"></path>
                    <path d="M135.8655,47.088772 C135.8655,50.1755669 133.35075,52.6787366 130.248,52.6787366 C127.146,52.6787366 124.62975,50.1755669 124.62975,47.088772 C124.62975,43.9997382 127.146,41.4988074 130.248,41.4988074 C133.35075,41.4988074 135.8655,43.9997382 135.8655,47.088772" id="Fill-50" fill="#000000"></path>
                </g>
                <g id="Group-61" transform="translate(153.000000, 26.904223)">
                    <path d="M18.093375,9.56040672 L18.093375,5.87729921 L15.287625,0.726172969 L17.131875,0.726172969 L18.199125,2.9935044 C18.501375,3.64877662 18.725625,4.14732085 18.962625,4.74960409 L18.988875,4.74960409 C19.213125,4.18612969 19.463625,3.63608911 19.765875,2.9935044 L20.833125,0.726172969 L22.663875,0.726172969 L19.713375,5.83774406 L19.713375,9.56040672 L18.093375,9.56040672 Z" id="Fill-53" fill="#FFB800"></path>
                    <path d="M19.897725,35.1322184 L19.199475,32.9566848 C19.028475,32.4193317 18.882975,31.8163022 18.751725,31.3050704 L18.725475,31.3050704 C18.593475,31.8163022 18.461475,32.4327655 18.303975,32.9566848 L17.618475,35.1322184 L19.897725,35.1322184 Z M17.355225,36.3517113 L16.590975,38.8548811 L14.918475,38.8548811 L17.763975,30.0206473 L19.831725,30.0206473 L22.716225,38.8548811 L20.977725,38.8548811 L20.174475,36.3517113 L17.355225,36.3517113 Z" id="Fill-55" fill="#107C10"></path>
                    <path d="M5.850225,24.7059269 L4.888725,22.9490809 C4.506225,22.2676874 4.256475,21.7960108 4.005975,21.284779 L3.966225,21.284779 C3.755475,21.7960108 3.518475,22.2676874 3.162975,22.9490809 L2.280225,24.7059269 L0.423225,24.7059269 L3.057225,20.2361942 L0.528225,15.8716932 L2.385975,15.8716932 L3.347475,17.6934693 C3.636975,18.2435099 3.847725,18.6763777 4.084725,19.1741756 L4.111725,19.1741756 C4.348725,18.624135 4.533225,18.2308224 4.809225,17.6934693 L5.757975,15.8716932 L7.614975,15.8716932 L5.019975,20.1839516 L7.720725,24.7059269 L5.850225,24.7059269 Z" id="Fill-57" fill="#0078D6"></path>
                    <path d="M32.52285,23.539423 C32.7336,23.5655443 33.01035,23.5789781 33.37935,23.5789781 C34.4196,23.5789781 35.34135,23.1856655 35.34135,22.0975256 C35.34135,21.0750621 34.44585,20.6556281 33.3261,20.6556281 L32.52285,20.6556281 L32.52285,23.539423 Z M32.52285,19.4756904 L33.35235,19.4756904 C34.4721,19.4756904 35.10435,18.9517711 35.10435,18.2047011 C35.10435,17.3785207 34.4721,16.998642 33.4446,16.998642 C32.9706,16.998642 32.6946,17.0247633 32.52285,17.0643185 L32.52285,19.4756904 Z M30.9156,15.9896123 C31.42935,15.8843807 32.3646,15.8060167 33.2736,15.8060167 C34.4721,15.8060167 35.2101,15.9500572 35.8161,16.3694911 C36.36885,16.6971272 36.73785,17.2740354 36.73785,18.0211055 C36.73785,18.833852 36.2241,19.580922 35.2626,19.9346794 L35.2626,19.9608008 C36.19785,20.1966391 37.05435,20.9310216 37.05435,22.1497682 C37.05435,22.9363934 36.7116,23.5528568 36.19785,23.9722907 C35.5656,24.5223313 34.5246,24.7977247 32.9046,24.7977247 C32.0091,24.7977247 31.32435,24.7320482 30.9156,24.6798056 L30.9156,15.9896123 Z" id="Fill-59" fill="#E71123"></path>
                </g>
                <g id="Group-74" transform="translate(42.000000, 32.874813)">
                    <path d="M57.2208,44.4816394 L47.85705,44.4816394 L47.85705,35.1637879 C47.85705,34.2502877 47.1138,33.5084419 46.19355,33.5084419 L38.28705,33.5084419 C37.36755,33.5084419 36.6213,34.2502877 36.6213,35.1637879 L36.6213,44.4816394 L27.2583,44.4816394 C26.34105,44.4816394 25.59405,45.2212462 25.59405,46.1362391 L25.59405,54.000252 C25.59405,54.9182302 26.34105,55.6600759 27.2583,55.6600759 L36.6213,55.6600759 L36.6213,64.9801664 C36.6213,65.892174 37.36755,66.6332734 38.28705,66.6332734 L46.19355,66.6332734 C47.1138,66.6332734 47.85705,65.892174 47.85705,64.9801664 L47.85705,55.6600759 L57.2208,55.6600759 C58.1403,55.6600759 58.88505,54.9182302 58.88505,54.000252 L58.88505,46.1362391 C58.88505,45.2212462 58.1403,44.4816394 57.2208,44.4816394" id="Fill-62" fill="#737373"></path>
                    <path d="M92.506875,40.8818216 C90.046875,43.1849766 88.504875,46.4456649 88.504875,50.0705591 C88.504875,57.0457005 94.188375,62.7013416 101.197125,62.7013416 C104.839125,62.7013416 108.115125,61.1646611 110.431875,58.715973 L92.506875,40.8818216 Z" id="Fill-64" fill="#737373"></path>
                    <path d="M25.87065,12.9394619 C25.87065,19.9146033 20.18865,25.5702444 13.17915,25.5702444 C6.1689,25.5702444 0.48615,19.9146033 0.48615,12.9394619 C0.48615,5.96730585 6.1689,0.310918457 13.17915,0.310918457 C20.18865,0.310918457 25.87065,5.96730585 25.87065,12.9394619" id="Fill-66" fill="#4F4F4F"></path>
                    <path d="M4.48965,3.75505311 C2.02965,6.05522278 0.48615,9.31665739 0.48615,12.9393127 C0.48615,19.9144541 6.1689,25.5700951 13.17915,25.5700951 C16.82265,25.5700951 20.0979,24.0356536 22.4109,21.5892045 L4.48965,3.75505311 Z" id="Fill-68" fill="#737373"></path>
                    <path d="M57.2208,44.4816394 L47.85705,44.4816394 L47.85705,35.1637879 C47.85705,34.2502877 47.1138,33.5084419 46.19355,33.5084419 L38.28705,33.5084419 C37.36755,33.5084419 36.6213,34.2502877 36.6213,35.1637879 L36.6213,44.4816394 L47.85705,55.6600759 L57.2208,55.6600759 C58.1403,55.6600759 58.88505,54.9182302 58.88505,54.000252 L58.88505,46.1362391 C58.88505,45.2212462 58.1403,44.4816394 57.2208,44.4816394" id="Fill-70" fill="#4F4F4F"></path>
                    <path d="M111.185325,50.0704845 C111.185325,55.5596954 106.713825,60.008531 101.197575,60.008531 C95.684325,60.008531 91.209825,55.5596954 91.209825,50.0704845 C91.209825,44.5850052 95.684325,40.130199 101.197575,40.130199 C106.713825,40.130199 111.185325,44.5850052 111.185325,50.0704845 L111.185325,50.0704845 Z M23.165325,12.9393873 C23.165325,18.4285982 18.695325,22.8774338 13.179075,22.8774338 C7.665075,22.8774338 3.192825,18.4285982 3.192825,12.9393873 C3.192825,7.45017643 7.665075,3.00357977 13.179075,3.00357977 C18.695325,3.00357977 23.165325,7.45017643 23.165325,12.9393873 L23.165325,12.9393873 Z" id="Stroke-72" stroke="#000000" stroke-width="1.109"></path>
                </g>
            </g>
        </g>
    </g>
</svg>