<?xml version="1.0" encoding="UTF-8"?>
<svg width="264px" height="168px" viewBox="0 0 264 168" version="1.1" xmlns="http://www.w3.org/2000/svg" xmlns:xlink="http://www.w3.org/1999/xlink">
    <!-- Generator: Sketch 42 (36781) - http://www.bohemiancoding.com/sketch -->
    <title>Group 3</title>
    <desc>Created with Sketch.</desc>
    <defs>
        <polygon id="path-1" points="180.598774 107.595555 180.598774 0.112670141 0.123719939 0.112670141 0.123719939 107.595555 180.598774 107.595555"></polygon>
        <polygon id="path-3" points="103.947505 107.595077 103.947505 0.112192428 0.200730511 0.112192428 0.200730511 107.595077 103.947505 107.595077"></polygon>
        <polygon id="path-5" points="0 136.836685 180.598774 136.836685 180.598774 0.184686374 0 0.184686374"></polygon>
        <polygon id="path-7" points="0 169.512939 88.8358413 169.512939 88.8358413 0.311520807 0 0.311520807"></polygon>
        <polygon id="path-9" points="71.0086153 0.304658156 0.12155625 0.304658156 0.12155625 23.4460681 71.0086153 23.4460681 71.0086153 0.304658156"></polygon>
    </defs>
    <g id="Homepage" stroke="none" stroke-width="1" fill="none" fill-rule="evenodd">
        <g id="3.4a_Mobile_Accreditations_Complete-for-365" transform="translate(-58.000000, -1528.000000)">
            <g id="Group-3" transform="translate(52.000000, 1528.000000)">
                <g id="Page-1" transform="translate(89.160936, 0.000000)">
                    <polygon id="Fill-1" fill="#231F1F" points="86.5955735 135.865735 94.3720843 135.865735 94.3720843 106.807689 86.5955735 106.807689"></polygon>
                    <polygon id="Fill-2" fill="#424242" points="45.3955164 137.216467 134.954141 137.216467 134.954141 134.393187 45.3955164 134.393187"></polygon>
                    <g id="Group-27" transform="translate(0.000000, 0.502792)">
                        <g id="Group-5" transform="translate(0.000000, 0.194072)">
                            <mask id="mask-2" fill="white">
                                <use xlink:href="#path-1"></use>
                            </mask>
                            <g id="Clip-4"></g>
                            <path d="M180.720098,101.681476 C180.720098,104.884537 178.127129,107.595555 174.924544,107.595555 L6.04263512,107.595555 C2.83166555,107.595555 0.123719939,104.884537 0.123719939,101.681476 L0.123719939,6.01719447 C0.123719939,2.81532761 2.83166555,0.112670141 6.04263512,0.112670141 L174.924544,0.112670141 C178.127129,0.112670141 180.720098,2.81532761 180.720098,6.01719447 L180.720098,101.681476 Z" id="Fill-3" fill="#424242" mask="url(#mask-2)"></path>
                        </g>
                        <g id="Group-8" transform="translate(76.651269, 0.194072)">
                            <mask id="mask-4" fill="white">
                                <use xlink:href="#path-3"></use>
                            </mask>
                            <g id="Clip-7"></g>
                            <path d="M98.2736339,0.112192428 L0.200730511,0.112192428 L3.53146768,4.91081272 L98.5191575,4.91081272 L98.5191575,15.6259002 L98.5191575,59.4560059 L98.5191575,98.4791314 L68.4215576,98.4791314 L74.709357,107.595077 L98.2736339,107.595077 C101.475022,107.595077 104.069188,104.884059 104.069188,101.680998 L104.069188,6.01671675 C104.069188,2.8148499 101.475022,0.112192428 98.2736339,0.112192428" id="Fill-6" fill="#646464" mask="url(#mask-4)"></path>
                        </g>
                        <mask id="mask-6" fill="white">
                            <use xlink:href="#path-5"></use>
                        </mask>
                        <g id="Clip-10"></g>
                        <polygon id="Fill-9" fill="#00BCF2" mask="url(#mask-6)" points="5.18114672 99.0412805 175.294266 99.0412805 175.294266 4.98091811 5.18114672 4.98091811"></polygon>
                        <polygon id="Fill-11" fill="#001F50" mask="url(#mask-6)" points="5.05778608 99.1642914 127.178827 99.1642914 127.178827 24.8012024 5.05778608 24.8012024"></polygon>
                        <path d="M16.527331,36.9970786 C16.527331,39.0846815 14.8038752,40.8140001 12.8241166,40.8140001 C10.7305788,40.8140001 8.99754154,39.0846815 8.99754154,36.9970786 C8.99754154,34.9011158 10.7305788,33.3043624 12.8241166,33.3043624 C14.8038752,33.3043624 16.527331,34.9011158 16.527331,36.9970786" id="Fill-12" fill="#A2A2A2" mask="url(#mask-6)"></path>
                        <polygon id="Fill-13" fill="#00BCF2" mask="url(#mask-6)" points="31.3312062 71.9585745 46.5045644 71.9585745 46.5045644 59.2812837 31.3312062 59.2812837"></polygon>
                        <polygon id="Fill-14" fill="#0078D7" mask="url(#mask-6)" points="46.5033668 71.9585745 76.1111171 71.9585745 76.1111171 52.9993667 46.5033668 52.9993667"></polygon>
                        <polygon id="Fill-15" fill="#0078D7" mask="url(#mask-6)" points="31.3312062 59.2800894 76.1135125 59.2800894 76.1135125 32.0648183 31.3312062 32.0648183"></polygon>
                        <polygon id="Fill-16" fill="#0078D7" mask="url(#mask-6)" points="93.9912233 45.2425128 124.470882 45.2425128 124.470882 32.0648183 93.9912233 32.0648183"></polygon>
                        <polygon id="Fill-17" fill="#107C10" mask="url(#mask-6)" points="79.6909709 58.2912249 93.992421 58.2912249 93.992421 32.0684012 79.6909709 32.0684012"></polygon>
                        <polygon id="Fill-18" fill="#E81123" mask="url(#mask-6)" points="93.9912233 58.2912249 124.470882 58.2912249 124.470882 45.2460956 93.9912233 45.2460956"></polygon>
                        <polygon id="Fill-19" fill="#0078D7" mask="url(#mask-6)" points="79.6909709 71.9585745 93.992421 71.9585745 93.992421 58.2888364 79.6909709 58.2888364"></polygon>
                        <polygon id="Fill-20" fill="#008272" mask="url(#mask-6)" points="109.287942 71.9585745 124.470882 71.9585745 124.470882 58.2888364 109.287942 58.2888364"></polygon>
                        <polygon id="Fill-21" fill="#00188F" mask="url(#mask-6)" points="93.9912233 71.9585745 109.164582 71.9585745 109.164582 58.2888364 93.9912233 58.2888364"></polygon>
                        <polygon id="Fill-22" fill="#00BCF2" mask="url(#mask-6)" points="10.1155722 50.2907378 15.5422425 50.2907378 15.5422425 43.6397879 10.1155722 43.6397879"></polygon>
                        <polygon id="Fill-23" fill="#0078D7" mask="url(#mask-6)" points="10.1155722 56.8150938 15.5422425 56.8150938 15.5422425 50.2871549 10.1155722 50.2871549"></polygon>
                        <polygon id="Fill-24" fill="#00188F" mask="url(#mask-6)" points="10.1155722 63.3430328 15.5422425 63.3430328 15.5422425 56.8150938 10.1155722 56.8150938"></polygon>
                        <polygon id="Fill-25" fill="#0078D7" mask="url(#mask-6)" points="10.1155722 75.4052689 15.5422425 75.4052689 15.5422425 63.3418385 10.1155722 63.3418385"></polygon>
                        <polygon id="Fill-26" fill="#000000" mask="url(#mask-6)" points="5.05778608 99.1642914 175.170906 99.1642914 175.170906 92.1455031 5.05778608 92.1455031"></polygon>
                    </g>
                </g>
                <g id="Page-1">
                    <g id="Group-13" transform="translate(0.000000, 0.380191)">
                        <path d="M77.1755113,7.56301018 C77.1755113,3.69384724 74.2688648,0.311932566 70.4088821,0.311932566 L13.5722148,0.311932566 C9.71223215,0.311932566 6.28845221,3.69384724 6.28845221,7.56301018 L6.28845221,160.829352 C6.28845221,164.653221 9.71223215,167.561613 13.5722148,167.561613 L70.4088821,167.561613 C74.2688648,167.561613 77.1755113,164.653221 77.1755113,160.829352 L77.1755113,7.56301018 L77.1755113,7.56301018 Z" id="Fill-1" fill="#424242"></path>
                        <mask id="mask-8" fill="white">
                            <use xlink:href="#path-7"></use>
                        </mask>
                        <g id="Clip-4"></g>
                        <polygon id="Fill-3" fill="#000000" mask="url(#mask-8)" points="9.71168346 164.654182 73.7909621 164.654182 73.7909621 144.42034 9.71168346 144.42034"></polygon>
                        <path d="M41.7515971,102.996003 C37.851835,102.996003 34.9451885,100.088984 34.9451885,96.2253112 C34.9451885,92.3630109 37.851835,89.016782 41.7515971,89.016782 C45.6129515,89.016782 49.0353597,92.3630109 49.0353597,96.2253112 C49.0353597,100.088984 45.6129515,102.996003 41.7515971,102.996003 M41.7515971,90.9287167 C38.8463223,90.9287167 36.8957554,93.3580954 36.8957554,96.2253112 C36.8957554,98.6546898 38.8463223,101.045638 41.7515971,101.045638 C44.6568719,101.045638 47.0847928,98.6546898 47.0847928,96.2253112 C47.0847928,93.3580954 44.6568719,90.9287167 41.7515971,90.9287167" id="Fill-5" fill="#E6E6E6" mask="url(#mask-8)"></path>
                        <polygon id="Fill-6" fill="#000000" mask="url(#mask-8)" points="15.999587 10.4311868 32.5176791 10.4311868 32.5176791 8.0416115 15.999587 8.0416115"></polygon>
                        <polygon id="Fill-7" fill="#000000" mask="url(#mask-8)" points="35.4243256 10.4311868 48.0412839 10.4311868 48.0412839 8.0416115 35.4243256 8.0416115"></polygon>
                        <polygon id="Fill-8" fill="#000000" mask="url(#mask-8)" points="15.999587 16.2465977 32.5176791 16.2465977 32.5176791 13.817219 15.999587 13.817219"></polygon>
                        <polygon id="Fill-9" fill="#000000" mask="url(#mask-8)" points="35.4243256 16.2465977 48.0412839 16.2465977 48.0412839 13.817219 35.4243256 13.817219"></polygon>
                        <polygon id="Fill-10" fill="#000000" mask="url(#mask-8)" points="6.28927524 21.5445647 77.1749626 21.5445647 77.1749626 19.5928266 6.28927524 19.5928266"></polygon>
                        <polygon id="Fill-11" fill="#000000" mask="url(#mask-8)" points="6.28927524 40.8217528 77.1749626 40.8217528 77.1749626 38.8700147 6.28927524 38.8700147"></polygon>
                        <polygon id="Fill-12" fill="#000000" mask="url(#mask-8)" points="6.28927524 60.098941 77.1749626 60.098941 77.1749626 58.1472029 6.28927524 58.1472029"></polygon>
                    </g>
                    <polygon id="Fill-14" fill="#424242" points="9.71209498 148.945847 10.212095 148.663106 10.212095 146.273531 9.71209498 145.983927"></polygon>
                    <polygon id="Fill-15" fill="#424242" points="13.0947237 144.799708 11.1441568 146.273805 11.1441568 148.663381 13.0947237 150.097675 15.5226446 148.663381 15.5226446 146.273805"></polygon>
                    <polygon id="Fill-16" fill="#424242" points="18.4291539 144.799708 16.5183665 146.273805 16.5183665 148.663381 18.4291539 150.097675 20.8557031 148.663381 20.8557031 146.273805"></polygon>
                    <polygon id="Fill-17" fill="#424242" points="9.71209498 150.198418 9.71209498 154.353068 10.6668028 154.917178 12.6173698 153.482883 12.6173698 151.093308 10.6668028 149.617838"></polygon>
                    <polygon id="Fill-18" fill="#424242" points="13.572352 151.093583 16.0002728 149.619485 17.9494681 151.093583 17.9494681 153.483158 16.0002728 154.917452 13.572352 153.483158"></polygon>
                    <polygon id="Fill-19" fill="#424242" points="19.4233669 151.093583 21.3341544 149.619485 23.7620752 151.093583 23.7620752 153.483158 21.3341544 154.917452 19.4233669 153.483158"></polygon>
                    <polygon id="Fill-20" fill="#424242" points="24.2796202 144.799708 21.8516993 146.273805 21.8516993 148.663381 24.2796202 150.097675 26.1890359 148.663381 26.1890359 146.273805"></polygon>
                    <polygon id="Fill-21" fill="#424242" points="29.6115813 144.799708 27.1850321 146.273805 27.1850321 148.663381 29.6115813 150.097675 32.0395022 148.663381 32.0395022 146.273805"></polygon>
                    <polygon id="Fill-22" fill="#424242" points="34.944777 144.799708 32.9955817 146.273805 32.9955817 148.663381 34.944777 150.097675 37.3726978 148.663381 37.3726978 146.273805"></polygon>
                    <polygon id="Fill-23" fill="#424242" points="40.2792072 144.799708 38.3286402 146.273805 38.3286402 148.663381 40.2792072 150.097675 42.707128 148.663381 42.707128 146.273805"></polygon>
                    <polygon id="Fill-24" fill="#424242" points="24.7564254 151.093583 26.7069924 149.619485 29.1349132 151.093583 29.1349132 153.483158 26.7069924 154.917452 24.7564254 153.483158"></polygon>
                    <polygon id="Fill-25" fill="#424242" points="30.0893467 151.093583 32.5172676 149.619485 34.4678345 151.093583 34.4678345 153.483158 32.5172676 154.917452 30.0893467 153.483158"></polygon>
                    <polygon id="Fill-26" fill="#424242" points="35.4239141 151.093583 37.851835 149.619485 39.8010302 151.093583 39.8010302 153.483158 37.851835 154.917452 35.4239141 153.483158"></polygon>
                    <polygon id="Fill-27" fill="#424242" points="41.2745176 151.093583 43.185305 149.619485 45.6132259 151.093583 45.6132259 153.483158 43.185305 154.917452 41.2745176 153.483158"></polygon>
                    <polygon id="Fill-28" fill="#424242" points="9.71209498 158.584716 10.212095 158.301975 10.212095 155.912399 9.71209498 155.622796"></polygon>
                    <polygon id="Fill-29" fill="#424242" points="11.1445683 155.912811 13.0951352 154.438714 15.5230561 155.912811 15.5230561 158.302386 13.0951352 159.736681 11.1445683 158.302386"></polygon>
                    <polygon id="Fill-30" fill="#424242" points="16.5183665 155.912811 18.4291539 154.438714 20.8570748 155.912811 20.8570748 158.302386 18.4291539 159.736681 16.5183665 158.302386"></polygon>
                    <polygon id="Fill-31" fill="#424242" points="9.71209498 159.634564 9.71209498 163.701372 10.6668028 164.077445 12.6173698 163.120791 12.6173698 160.215145 10.6668028 159.258491"></polygon>
                    <polygon id="Fill-32" fill="#424242" points="13.572352 160.214458 16.0002728 159.257805 17.9494681 160.214458 17.9494681 163.121478 16.0002728 164.078131 13.572352 163.121478"></polygon>
                    <polygon id="Fill-33" fill="#424242" points="19.4233669 160.214458 21.3341544 159.257805 23.7620752 160.214458 23.7620752 163.121478 21.3341544 164.078131 19.4233669 163.121478"></polygon>
                    <polygon id="Fill-34" fill="#424242" points="21.8512878 155.912811 24.2792087 154.438714 26.1899961 155.912811 26.1899961 158.302386 24.2792087 159.736681 21.8512878 158.302386"></polygon>
                    <polygon id="Fill-35" fill="#424242" points="27.1843463 155.912811 29.6122672 154.438714 32.040188 155.912811 32.040188 158.302386 29.6122672 159.736681 27.1843463 158.302386"></polygon>
                    <polygon id="Fill-36" fill="#424242" points="32.9959933 155.912811 34.9451885 154.438714 37.3731093 155.912811 37.3731093 158.302386 34.9451885 159.736681 32.9959933 158.302386"></polygon>
                    <polygon id="Fill-37" fill="#424242" points="38.3290517 155.912811 40.2796187 154.438714 42.7075395 155.912811 42.7075395 158.302386 40.2796187 159.736681 38.3290517 158.302386"></polygon>
                    <polygon id="Fill-38" fill="#424242" points="24.7564254 160.214458 26.7069924 159.257805 29.1349132 160.214458 29.1349132 163.121478 26.7069924 164.078131 24.7564254 163.121478"></polygon>
                    <polygon id="Fill-39" fill="#424242" points="30.0893467 160.214458 32.5172676 159.257805 34.4678345 160.214458 34.4678345 163.121478 32.5172676 164.078131 30.0893467 163.121478"></polygon>
                    <polygon id="Fill-40" fill="#424242" points="35.4239141 160.214458 37.851835 159.257805 39.8010302 160.214458 39.8010302 163.121478 37.851835 164.078131 35.4239141 163.121478"></polygon>
                    <polygon id="Fill-41" fill="#424242" points="41.2745176 160.214458 43.185305 159.257805 45.6132259 160.214458 45.6132259 163.121478 43.185305 164.078131 41.2745176 163.121478"></polygon>
                    <polygon id="Fill-42" fill="#424242" points="45.6124028 144.799708 43.7029871 146.273805 43.7029871 148.663381 45.6124028 150.097675 48.0403237 148.663381 48.0403237 146.273805"></polygon>
                    <polygon id="Fill-43" fill="#424242" points="51.4628691 144.799708 49.0363199 146.273805 49.0363199 148.663381 51.4628691 150.097675 53.413436 148.663381 53.413436 146.273805"></polygon>
                    <polygon id="Fill-44" fill="#424242" points="56.7960648 144.799708 54.3695156 146.273805 54.3695156 148.663381 56.7960648 150.097675 59.2239856 148.663381 59.2239856 146.273805"></polygon>
                    <polygon id="Fill-45" fill="#424242" points="62.1292604 144.799708 60.1800652 146.273805 60.1800652 148.663381 62.1292604 150.097675 64.5571813 148.663381 64.5571813 146.273805"></polygon>
                    <polygon id="Fill-46" fill="#424242" points="46.6074389 151.093583 48.5580058 149.619485 50.9859267 151.093583 50.9859267 153.483158 48.5580058 154.917452 46.6074389 153.483158"></polygon>
                    <polygon id="Fill-47" fill="#424242" points="51.9404974 151.093583 53.8910643 149.619485 56.3189852 151.093583 56.3189852 153.483158 53.8910643 154.917452 51.9404974 153.483158"></polygon>
                    <polygon id="Fill-48" fill="#424242" points="57.2734187 151.093583 59.7013396 149.619485 61.6519065 151.093583 61.6519065 153.483158 59.7013396 154.917452 57.2734187 153.483158"></polygon>
                    <polygon id="Fill-49" fill="#424242" points="62.6081232 151.093583 65.0360441 149.619485 67.463965 151.093583 67.463965 153.483158 65.0360441 154.917452 62.6081232 153.483158"></polygon>
                    <polygon id="Fill-50" fill="#424242" points="67.4636906 144.799708 65.5542749 146.273805 65.5542749 148.663381 67.4636906 150.097675 69.8916115 148.663381 69.8916115 146.273805"></polygon>
                    <polygon id="Fill-51" fill="#424242" points="73.3141569 144.799708 70.8876077 146.273805 70.8876077 148.663381 73.3141569 150.097675 74.2688648 149.396312 74.2688648 145.520286"></polygon>
                    <g id="Group-54" transform="translate(76.124487, 144.495873)" fill="#424242">
                        <polygon id="Fill-52" points="0.0950823109 1.77724592 2.52300318 0.304520903 4.95092404 1.77724592 4.95092404 4.16819372 2.52300318 5.60248789 0.0950823109 4.16819372"></polygon>
                    </g>
                    <polygon id="Fill-55" fill="#424242" points="68.4587267 151.093583 70.4092936 149.619485 72.8372145 151.093583 72.8372145 153.483158 70.4092936 154.917452 68.4587267 153.483158"></polygon>
                    <polygon id="Fill-56" fill="#424242" points="73.7919223 151.093445 73.7919223 153.483021 74.2919223 153.833016 74.2919223 150.73247"></polygon>
                    <polygon id="Fill-57" fill="#424242" points="43.7024384 155.912811 45.6132259 154.438714 48.0411467 155.912811 48.0411467 158.302386 45.6132259 159.736681 43.7024384 158.302386"></polygon>
                    <polygon id="Fill-58" fill="#424242" points="49.0353597 155.912811 51.4632806 154.438714 53.4138475 155.912811 53.4138475 158.302386 51.4632806 159.736681 49.0353597 158.302386"></polygon>
                    <polygon id="Fill-59" fill="#424242" points="54.3684182 155.912811 56.7963391 154.438714 59.22426 155.912811 59.22426 158.302386 56.7963391 159.736681 54.3684182 158.302386"></polygon>
                    <polygon id="Fill-60" fill="#424242" points="60.1800652 155.912811 62.1292604 154.438714 64.5571813 155.912811 64.5571813 158.302386 62.1292604 159.736681 60.1800652 158.302386"></polygon>
                    <polygon id="Fill-61" fill="#424242" points="46.6074389 160.214458 48.5580058 159.257805 50.9859267 160.214458 50.9859267 163.121478 48.5580058 164.078131 46.6074389 163.121478"></polygon>
                    <polygon id="Fill-62" fill="#424242" points="51.9404974 160.214458 53.8910643 159.257805 56.3189852 160.214458 56.3189852 163.121478 53.8910643 164.078131 51.9404974 163.121478"></polygon>
                    <polygon id="Fill-63" fill="#424242" points="57.2734187 160.214458 59.7013396 159.257805 61.6519065 160.214458 61.6519065 163.121478 59.7013396 164.078131 57.2734187 163.121478"></polygon>
                    <polygon id="Fill-64" fill="#424242" points="62.6081232 160.214458 65.0360441 159.257805 67.463965 160.214458 67.463965 163.121478 65.0360441 164.078131 62.6081232 163.121478"></polygon>
                    <polygon id="Fill-65" fill="#424242" points="65.553589 155.912811 67.4643765 154.438714 69.8922973 155.912811 69.8922973 158.302386 67.4643765 159.736681 65.553589 158.302386"></polygon>
                    <polygon id="Fill-66" fill="#424242" points="70.887059 155.912262 70.887059 158.30321 73.3136082 159.736132 74.2683161 159.034769 74.2683161 155.160116 73.3136082 154.438165"></polygon>
                    <g id="Group-69" transform="translate(76.124487, 154.103585)" fill="#424242">
                        <polygon id="Fill-67" points="0.0950823109 1.80922588 2.52300318 0.335128329 4.95092404 1.80922588 4.95092404 4.19880114 2.52300318 5.63309531 0.0950823109 4.19880114"></polygon>
                    </g>
                    <polygon id="Fill-70" fill="#424242" points="68.4587267 160.214458 70.4092936 159.257805 72.8372145 160.214458 72.8372145 163.121478 70.4092936 164.078131 68.4587267 163.121478"></polygon>
                    <polygon id="Fill-71" fill="#424242" points="73.7919223 160.214733 73.7919223 163.121752 74.2919223 163.355082 74.2919223 159.981403"></polygon>
                    <g id="Group-74" transform="translate(6.167445, 144.495873)">
                        <mask id="mask-10" fill="white">
                            <use xlink:href="#path-9"></use>
                        </mask>
                        <g id="Clip-73"></g>
                        <path d="M64.2419861,-139.935822 C65.6740479,-139.935822 67.1472609,-138.494665 67.1472609,-136.552535 L67.1472609,16.713807 C67.1472609,18.6257417 65.6740479,19.5823953 64.2419861,19.5823953 L7.40531885,19.5823953 C5.49453141,19.5823953 4.02131841,18.6257417 4.02131841,16.713807 L4.02131841,-136.552535 C4.02131841,-138.494665 5.49453141,-139.935822 7.40531885,-139.935822 L64.2419861,-139.935822 Z M64.2419861,-143.804985 L7.40531885,-143.804985 C3.54396448,-143.804985 0.12155625,-140.421698 0.12155625,-136.552535 L0.12155625,16.713807 C0.12155625,20.5376764 3.54396448,23.4460681 7.40531885,23.4460681 L64.2419861,23.4460681 C68.1019688,23.4460681 71.0086153,20.5376764 71.0086153,16.713807 L71.0086153,-136.552535 C71.0086153,-140.421698 68.1019688,-143.804985 64.2419861,-143.804985 L64.2419861,-143.804985 Z" id="Fill-72" fill="#A7A7A7" mask="url(#mask-10)"></path>
                    </g>
                    <polygon id="Fill-75" fill="#000000" points="67.4632791 52.7531588 70.8856873 52.7531588 70.8856873 45.5446296 67.4632791 45.5446296"></polygon>
                    <polygon id="Fill-76" fill="#000000" points="61.6527295 52.7531588 65.0353582 52.7531588 65.0353582 45.5446296 61.6527295 45.5446296"></polygon>
                </g>
            </g>
        </g>
    </g>
</svg>