<?xml version="1.0" encoding="UTF-8"?>
<svg width="227px" height="76px" viewBox="0 0 227 76" version="1.1" xmlns="http://www.w3.org/2000/svg" xmlns:xlink="http://www.w3.org/1999/xlink">
    <!-- Generator: Sketch 42 (36781) - http://www.bohemiancoding.com/sketch -->
    <title>Page 1</title>
    <desc>Created with Sketch.</desc>
    <defs>
        <polygon id="path-1" points="223.110027 0.206540944 0.0815783957 0.206540944 0.0815783957 31.3937567 223.110027 31.3937567 223.110027 0.206540944"></polygon>
        <polygon id="path-3" points="0 75.9083985 226.979457 75.9083985 226.979457 0.266570264 0 0.266570264"></polygon>
    </defs>
    <g id="Homepage" stroke="none" stroke-width="1" fill="none" fill-rule="evenodd">
        <g id="3.4b_Desktop_Accreditations_New-content" transform="translate(-438.000000, -1104.000000)">
            <g id="Page-1" transform="translate(438.000000, 1104.000000)">
                <path d="M40.2847032,25.3657291 L61.4925628,25.3657291 C63.5952854,25.3657291 65.2309311,27.1131589 65.2309311,29.2240773 L65.2309311,34.0392819 C65.2309311,36.1502003 63.5952854,37.7861913 61.4925628,37.7861913 L40.2847032,37.7861913 C38.1808115,37.7861913 36.5439966,36.1502003 36.5439966,34.0392819 L36.5439966,29.2240773 C36.5439966,27.1131589 38.1808115,25.3657291 40.2847032,25.3657291 L40.2847032,25.3657291 Z" id="Fill-1" fill="#A80000"></path>
                <g id="Group-5" transform="translate(0.000000, 0.060029)">
                    <mask id="mask-2" fill="white">
                        <use xlink:href="#path-1"></use>
                    </mask>
                    <g id="Clip-4"></g>
                    <path d="M136.323179,0.0917181818 C71.2071761,0.0917181818 0.935205872,5.59480909 0.935205872,5.59480909 C0.935205872,5.59480909 -0.818524354,20.9651894 0.701375175,31.3937567 L220.647205,31.3937567 L223.110027,0.0917181818 L136.323179,0.0917181818 Z" id="Fill-3" fill="#585858" mask="url(#mask-2)"></path>
                </g>
                <mask id="mask-4" fill="white">
                    <use xlink:href="#path-3"></use>
                </mask>
                <g id="Clip-7"></g>
                <polygon id="Fill-6" fill="#616161" mask="url(#mask-4)" points="222.409237 9.29544344 227.08702 9.29544344 227.08702 8.11862682 222.409237 8.11862682"></polygon>
                <path d="M198.512558,72.7371782 C195.229575,75.6649252 192.773768,75.8988883 183.878848,75.8988883 C174.853568,75.8988883 154.009899,69.2160635 148.972602,67.4552145 C143.934719,65.5875942 136.322946,65.1109164 136.322946,49.284279 C136.322946,44.0017318 136.905184,37.6695599 137.725345,31.4534943 L196.057335,31.4534943 C196.76175,31.9284218 197.463242,32.5130377 198.045481,32.9797969 C199.332134,34.0393402 200.619372,34.9763593 202.033463,35.9168791 C207.411569,39.5470987 213.269028,42.6014542 219.474895,44.9457523 C225.331769,33.3316166 226.971507,22.7764409 227.086669,14.8106117 C227.205338,28.6430205 222.876547,51.1618179 198.512558,72.7371782" id="Fill-8" fill="#A8A8A8" mask="url(#mask-4)"></path>
                <path d="M177.788026,9.29567682 L141.827788,9.29567682 C140.425973,15.2771959 138.905489,23.3696334 137.725228,31.4539027 L196.057218,31.4539027 C188.78976,25.3656125 182.579802,17.8542901 177.788026,9.29567682" id="Fill-9" fill="#4A4A4A" mask="url(#mask-4)"></path>
                <polygon id="Fill-10" fill="#000000" mask="url(#mask-4)" points="32.9087477 31.4536693 34.1948165 31.4536693 34.1948165 3.54555361 32.9087477 3.54555361"></polygon>
                <polygon id="Fill-11" fill="#898989" mask="url(#mask-4)" points="31.6220943 31.4536693 33.0250785 31.4536693 33.0250785 3.54555361 31.6220943 3.54555361"></polygon>
                <path d="M227.086493,14.8104951 C226.971332,22.7763242 225.332179,33.3314999 219.47472,44.9456356 C213.268853,42.6013375 207.411394,39.546982 202.033288,35.9167624 C200.619197,34.9762426 199.332543,34.0392235 198.045306,32.9796802 C197.463067,32.5135044 196.76216,31.9283051 196.05716,31.4539611 L202.500365,31.4539611 L220.646796,31.4539611 L222.409295,9.29573517 L226.733994,9.29573517 C226.971332,10.9363937 227.086493,12.8139326 227.086493,14.8104951" id="Fill-12" fill="#818181" mask="url(#mask-4)"></path>
                <path d="M198.045189,32.9797969 L194.996036,64.5274674 L199.217265,64.5274674 L202.033171,35.9168791 C200.619665,34.9763593 199.332427,34.0393402 198.045189,32.9797969" id="Fill-13" fill="#B2B2B2" mask="url(#mask-4)"></path>
                <path d="M202.500599,31.453786 L198.278785,31.453786 L198.044955,32.9800886 C199.332193,34.0390485 200.619431,34.9760676 202.033522,35.9171708 L202.500599,31.453786 Z" id="Fill-14" fill="#8D8D8D" mask="url(#mask-4)"></path>
                <path d="M227.149493,8.11763496 L226.733994,8.11763496 C226.873872,8.47762299 226.873872,8.94379873 226.873872,9.29561848 L227.149493,9.29561848 L227.149493,8.11763496 Z" id="Fill-15" fill="#929292" mask="url(#mask-4)"></path>
                <path d="M226.754576,8.11763496 L226.618832,8.11763496 C226.618832,8.47762299 226.754576,8.94379873 226.754576,9.29561848 L226.894454,9.29561848 C226.894454,8.94379873 226.894454,8.47762299 226.754576,8.11763496" id="Fill-16" fill="#757575" mask="url(#mask-4)"></path>
                <path d="M143.348798,0.151747502 L225.332179,0.151747502 C225.332179,0.151747502 226.971332,4.84034362 226.971332,8.11757661 L141.827729,8.11757661 L143.348798,0.151747502 Z" id="Fill-17" fill="#585858" mask="url(#mask-4)"></path>
                <polygon id="Fill-18" fill="#717171" mask="url(#mask-4)" points="141.828022 8.11763496 143.34909 0.151805847 168.881064 0.151805847 168.881064 8.11763496"></polygon>
                <polygon id="Fill-19" fill="#898989" mask="url(#mask-4)" points="141.828022 8.11763496 143.34909 0.151805847 152.137032 0.151805847 152.137032 8.11763496"></polygon>
                <path d="M222.409295,9.29567682 L177.787968,9.29567682 C182.580328,17.8542901 188.789702,25.3656125 196.05716,31.4539027 L198.279136,31.4539027 L202.500365,31.4539027 L220.646796,31.4539027 L222.409295,9.29567682 Z" id="Fill-20" fill="#515151" mask="url(#mask-4)"></path>
                <path d="M172.27915,13.5178055 L155.412358,13.5178055 C151.903143,13.5178055 149.087237,16.4432187 149.087237,19.9655003 C149.087237,23.4877819 151.903143,26.2988391 155.412358,26.2988391 L172.27915,26.2988391 C175.788364,26.2988391 178.72294,23.4877819 178.72294,19.9655003 C178.72294,16.4432187 175.788364,13.5178055 172.27915,13.5178055" id="Fill-21" fill="#231F1F" mask="url(#mask-4)"></path>
                <path d="M172.045495,15.6248732 C169.69725,15.6248732 167.827774,17.6214356 167.827774,19.9657337 C167.827774,22.3100317 169.69725,24.1875706 172.045495,24.1875706 C174.504809,24.1875706 176.381885,22.3100317 176.381885,19.9657337 C176.381885,17.6214356 174.504809,15.6248732 172.045495,15.6248732" id="Fill-22" fill="#3D3D3D" mask="url(#mask-4)"></path>
                <path d="M155.645721,15.6248732 C153.309167,15.6248732 151.436183,17.6214356 151.436183,19.9657337 C151.436183,22.3100317 153.309167,24.1875706 155.645721,24.1875706 C157.993965,24.1875706 159.982111,22.3100317 159.982111,19.9657337 C159.982111,17.6214356 157.993965,15.6248732 155.645721,15.6248732" id="Fill-23" fill="#3D3D3D" mask="url(#mask-4)"></path>
                <path d="M172.045495,21.2583066 C171.344587,21.2583066 170.762349,20.6655224 170.762349,19.9653836 C170.762349,19.2658283 171.344587,18.6730441 172.045495,18.6730441 C172.750494,18.6730441 173.332733,19.2658283 173.332733,19.9653836 C173.332733,20.6655224 172.750494,21.2583066 172.045495,21.2583066" id="Fill-24" fill="#231F1F" mask="url(#mask-4)"></path>
                <path d="M155.645721,21.2583066 C154.944813,21.2583066 154.358483,20.6655224 154.358483,19.9653836 C154.358483,19.2658283 154.944813,18.6730441 155.645721,18.6730441 C156.346628,18.6730441 156.932959,19.2658283 156.932959,19.9653836 C156.932959,20.6655224 156.346628,21.2583066 155.645721,21.2583066" id="Fill-25" fill="#231F1F" mask="url(#mask-4)"></path>
                <path d="M142.061735,8.11763496 L141.242159,8.11763496 L141.242159,9.29561848 L141.827905,9.29561848 C141.827905,8.94379873 141.946574,8.47762299 142.061735,8.11763496" id="Fill-26" fill="#2E2E2E" mask="url(#mask-4)"></path>
                <path d="M177.08706,8.11763496 L142.06156,8.11763496 C141.946983,8.47762299 141.828314,8.94379873 141.828314,9.29561848 L177.787968,9.29561848 C177.554137,8.94379873 177.320891,8.47762299 177.08706,8.11763496" id="Fill-27" fill="#363636" mask="url(#mask-4)"></path>
                <path d="M222.409295,8.11763496 L177.08706,8.11763496 C177.320891,8.47762299 177.554137,8.94379873 177.787968,9.29561848 L222.409295,9.29561848 L222.409295,8.11763496 Z" id="Fill-28" fill="#484848" mask="url(#mask-4)"></path>
            </g>
        </g>
    </g>
</svg>