<?xml version="1.0" encoding="UTF-8"?>
<svg width="258px" height="171px" viewBox="0 0 258 171" version="1.1" xmlns="http://www.w3.org/2000/svg" xmlns:xlink="http://www.w3.org/1999/xlink">
    <!-- Generator: Sketch 42 (36781) - http://www.bohemiancoding.com/sketch -->
    <title>Page 1</title>
    <desc>Created with Sketch.</desc>
    <defs>
        <path d="M25.0623928,91.9034651 C26.8949597,91.439831 28.2653212,91.295663 28.2653212,91.295663 L28.2653212,18.0082726 C24.1929336,10.1719037 14.1947994,1.59189815 0.246928464,0.113329863 L0.246928464,91.9034651 L25.0623928,91.9034651 L25.0623928,91.9034651 Z" id="path-1"></path>
        <path d="M0.349839934,6.27197232 C6.31035014,5.30295657 12.9780579,3.89554465 19.8570348,1.85186349 C23.2424714,0.846256043 26.4947627,0.256510687 29.59737,0.0166820811 L29.59737,74.0509483 L0.349841175,74.0509483 L0.349841175,6.27197358 L0.349839934,6.27197232 Z" id="path-3"></path>
        <path d="M15.8891604,0.204261671 L0.153166997,36.4580028 L97.0446383,39.0334438 L114.700143,39.0334438 C115.431391,32.187708 127.145281,30.9553561 127.145281,30.9553561 L127.145281,0.204261671 L15.8891604,0.204261671 L15.8891604,0.204261671 Z" id="path-5"></path>
        <path d="M15.8891604,0.204261671 L0.153166997,36.4580028 L97.0446383,39.0334438 L114.700143,39.0334438 C115.431391,32.187708 127.145281,30.9553561 127.145281,30.9553561 L127.145281,0.204261671 L15.8891604,0.204261671 L15.8891604,0.204261671 Z" id="path-7"></path>
        <path d="M13.1451075,0.297536107 L0.153166997,30.2293259 L114.667793,33.2732024 C114.818741,28.5718683 120.008861,26.3752228 123.646947,25.4109883 L123.646947,0.297536107 L13.1451075,0.297536107 L13.1451075,0.297536107 Z" id="path-9"></path>
        <path d="M10.4010546,0.00151823998 L0.153166997,23.6113568 L114.667793,26.6552333 C114.767741,23.5423203 117.076969,21.5275163 119.682093,20.2414873 L119.682093,0.00151823998 L10.4010546,0.00151823998 L10.4010546,0.00151823998 Z" id="path-11"></path>
        <path d="M7.65700165,0.0947926758 L0.153166997,17.3826799 L114.667793,20.4265564 C114.707591,19.1870428 115.097672,18.1216354 115.717239,17.2070171 L115.717239,0.0947926758 L7.65700165,0.0947926758 L7.65700165,0.0947926758 Z" id="path-13"></path>
        <polygon id="path-15" points="4.91296565 0.188028182 0.153166997 11.1540031 111.752347 14.120385 111.752347 0.188028182"></polygon>
        <polygon id="path-17" points="2.16891275 0.281302618 0.153166997 4.92532622 107.787493 7.78631968 107.787493 0.281302618 2.16891275 0.281302618"></polygon>
        <path d="M5.12278134,87.3122684 C2.53538332,86.4712861 0.288109059,86.2348631 0.288109059,86.2348631 L0.288109059,12.9474727 C2.65953477,8.38421196 7.04034889,3.56878806 13.0403667,0.050296822 L13.0403667,87.3122684 L5.12278134,87.3122684 L5.12278134,87.3122684 Z" id="path-19"></path>
        <path d="M23.3806124,2.1129711 C18.9568458,0.841362886 14.7625536,0.279901166 10.8360803,0.279901166 C7.03403369,0.279901166 3.48287056,0.806162474 0.21672124,1.72318223 L0.216721606,72.3258773 L23.3806124,72.3258773 L23.3806124,2.11297008 L23.3806124,2.1129711 Z" id="path-21"></path>
        <path d="M0.288109059,0.204261671 L0.288109059,30.9553561 C0.288109059,30.9553561 12.0019994,32.187708 12.7336099,39.0334438 L30.3890799,39.0334438 L127.280223,36.4580028 L111.54423,0.204261671 L0.288109059,0.204261671 L0.288109059,0.204261671 Z" id="path-23"></path>
        <path d="M0.288109059,0.204261671 L0.288109059,30.9553561 C0.288109059,30.9553561 12.0019994,32.187708 12.7336099,39.0334438 L30.3890799,39.0334438 L127.280223,36.4580028 L111.54423,0.204261671 L0.288109059,0.204261671 L0.288109059,0.204261671 Z" id="path-25"></path>
        <path d="M0.296601103,25.4109941 C3.93471694,26.3752315 9.12490532,28.5718777 9.27610352,33.2732024 L123.790342,30.2293259 L110.798402,0.297536107 L0.296601103,0.297536107 L0.296601103,25.4109941 L0.296601103,25.4109941 Z" id="path-27"></path>
        <path d="M0.38380935,20.2414708 C2.98900107,21.5274991 5.29834395,23.5423069 5.39845804,26.6552333 L119.912697,23.6113568 L109.664809,0.00151823998 L0.38380935,0.00151823998 L0.38380935,20.2414708 L0.38380935,20.2414708 Z" id="path-29"></path>
        <path d="M0.083291825,17.2068052 C0.702988205,18.1214708 1.09318123,19.1869471 1.13304801,20.4265564 L115.647287,17.3826799 L108.143452,0.0947926758 L0.083291825,0.0947926758 L0.083291825,17.2068052 L0.083291825,17.2068052 Z" id="path-31"></path>
        <polygon id="path-33" points="0.170500072 14.120394 111.769641 11.1540031 107.009843 0.188028182 0.170500072 0.188028182"></polygon>
        <polygon id="path-35" points="0.257708319 7.78632834 107.891996 4.92532622 105.87625 0.281302618 0.257708319 0.281302618 0.257708319 7.78632834"></polygon>
        <path d="M0.38169204,8.79320393 C4.80267604,8.73735792 22.8897277,8.13704734 42.7351431,2.24115579 C47.3220099,0.878632728 51.6610952,0.279901166 55.7182757,0.279901166 C57.0927403,0.280033621 58.4344406,0.348938348 59.7417594,0.480213479 L59.7417594,62.3049761 C55.7602508,61.434699 51.2306128,60.9339777 46.0780613,60.9339777 C26.479958,60.9339777 16.8078802,64.671676 7.0755396,67.2503239 L0.38169204,67.2503232 L0.38169204,8.79320393 L0.38169204,8.79320393 Z" id="path-37"></path>
        <path d="M0.0421887829,42.9862801 L46.864758,42.648707 L46.864758,0.661485938 C44.3367927,0.364744248 41.6235209,0.204378459 38.7105349,0.204378459 C19.3349619,0.204378459 9.66258213,3.85838884 0.0421887829,6.43417067 L0.0421887829,42.9862801 L0.0421887829,42.9862801 Z" id="path-39"></path>
        <polygon id="path-41" points="1.19237599 3.37726644 1.19237599 0.122627075 0.235566963 0.122627075 0.235566963 3.37726644 1.19237599 3.37726644"></polygon>
    </defs>
    <g id="Homepage" stroke="none" stroke-width="1" fill="none" fill-rule="evenodd">
        <g id="3.4a_Mobile_Accreditations_Complete-for-365" transform="translate(-59.000000, -1275.000000)">
            <g id="Page-1" transform="translate(59.000000, 1275.000000)">
                <polygon id="Fill-3" fill="#016859" points="92.2655885 -7.78584617e-05 66.8670106 60.3402291 114.174285 63.4545675"></polygon>
                <polygon id="Fill-4" fill="#016859" points="87.8062186 86.4228913 113.204797 26.0825843 135.113494 89.5372297"></polygon>
                <polygon id="Fill-5" fill="#016859" points="107.969975 80.1942144 133.368553 19.8539075 155.27725 83.3085528"></polygon>
                <polygon id="Fill-6" fill="#016859" points="175.441007 96.5444911 200.839584 36.2041842 222.748281 99.6588296"></polygon>
                <polygon id="Fill-7" fill="#016859" points="130.654201 74.549476 156.052779 14.2091691 177.961476 77.6638144"></polygon>
                <polygon id="Fill-8" fill="#016859" points="37.5907096 98.6855988 62.9892875 38.3452918 84.8979845 101.799937"></polygon>
                <polygon id="Fill-9" fill="#016859" points="44.5704715 103.941045 69.9690494 43.6007379 91.8777464 107.055383"></polygon>
                <g id="Group-14" transform="translate(58.940211, 8.272461)" fill="#2AA296">
                    <path d="M115.564576,16.0538696 C117.897368,12.001726 122.258168,9.27551199 127.253739,9.27551199 C134.612734,9.27551199 140.595941,15.1923657 140.743292,22.5445401 C140.789824,22.5422044 140.837131,22.5394793 140.88405,22.5394793 C146.828093,22.5394793 151.646455,27.3779934 151.646455,33.3423407 C151.646455,39.310581 146.828093,44.1475379 140.88405,44.1475379 L98.8426181,44.1475379 C94.081645,44.1475379 90.2229999,40.2729116 90.2229999,35.4943486 C90.2229999,30.7932547 93.9575603,26.9719615 98.6095716,26.8466094 C98.4754051,26.1653478 98.4028931,25.4615074 98.4028931,24.7401487 C98.4028931,18.772687 103.221643,13.936898 109.16491,13.936898 C111.562071,13.936898 113.776982,14.7232685 115.564576,16.0538696" id="Fill-10"></path>
                    <path d="M19.5351514,5.5403302 C21.3312768,2.42054168 24.6885422,0.321866876 28.534391,0.321866876 C34.2000189,0.321866876 38.8062739,4.87736541 38.9198889,10.5372862 C38.9555633,10.535729 38.9920131,10.5333933 39.0280752,10.5333933 C43.6044724,10.5333933 47.3138281,14.2585313 47.3138281,18.850234 C47.3138281,23.4450511 43.6044724,27.1690213 39.0280752,27.1690213 L6.6613684,27.1690213 C2.99583012,27.1690213 0.0251659192,24.1862636 0.0251659192,20.5070621 C0.0251659192,16.8878115 2.90044004,13.9459296 6.48183341,13.8493851 C6.37830028,13.3250084 6.32246218,12.7831135 6.32246218,12.2275934 C6.32246218,7.63355491 10.0325934,3.91075262 14.6082151,3.91075262 C16.4539743,3.91075262 18.158975,4.51610215 19.5351514,5.5403302" id="Fill-12"></path>
                </g>
                <g id="Group-29" transform="translate(64.756680, 151.532029)" stroke="#2AA296" stroke-linecap="round">
                    <path d="M17.1751776,5.68049317 C14.4697443,6.0405825 11.6301445,6.23256647 8.70213444,6.23256647 C5.70510225,6.23256647 2.80074578,6.03150864 0.0375356083,5.65470428" id="Stroke-15" stroke-width="3.931"></path>
                    <path d="M42.5300157,2.40567072 C37.0105751,6.5084223 27.5301196,9.50675161 16.3303162,10.4387174 C13.9242372,10.6392029 11.4386664,10.7439226 8.89609427,10.7439226" id="Stroke-17" stroke-width="4.655"></path>
                    <path d="M64.6890147,4.80651421 C64.7820781,5.10626928 64.8313242,5.41770312 64.8313242,5.73692281 C64.8313242,7.55141423 63.2469183,9.10858345 60.9885776,9.77505187" id="Stroke-19" stroke-width="3"></path>
                    <path d="M78.1059395,5.35658423 C78.1334707,5.54578029 78.147818,5.7373121 78.147818,5.93156896 C78.147818,9.03734295 74.5291993,11.5552856 70.0660293,11.5552856 C69.7600831,11.5552856 69.4576267,11.5432175 69.1605991,11.5202493" id="Stroke-21" stroke-width="4"></path>
                    <path d="M51.9832113,2.35019656 C53.5288407,0.956530118 55.8872247,0.0662186207 58.5298401,0.0662186207 C58.9804225,0.0662186207 59.4224741,0.0919119127 59.8536683,0.141741328" id="Stroke-23" stroke-width="3"></path>
                    <path d="M65.0056632,2.41509159 C66.5512927,1.02142514 68.9096767,0.131113648 71.5522921,0.131113648 C72.0028745,0.131113648 72.444926,0.15680694 72.8761202,0.206636354" id="Stroke-25" stroke-width="3"></path>
                    <path d="M66.9591434,6.23837023 C66.9591434,8.368967 65.4848626,10.2473024 63.242808,11.3563961 C61.8976528,12.022086 60.2756337,12.4105997 58.5299177,12.4105997 C55.2839406,12.4105997 52.4664434,11.067152 51.0580826,9.09811148" id="Stroke-27" stroke-width="4"></path>
                </g>
                <g id="Group-34" transform="translate(1.938823, 46.423107)">
                    <path d="M133.327605,104.411621 L118.150113,104.411621 C115.454374,104.411621 113.248381,102.196938 113.248381,99.4905774 L113.248381,99.4905774 C113.248381,96.783828 115.454374,94.5695334 118.150113,94.5695334 L133.327605,94.5695334 C136.023732,94.5695334 138.229337,96.783828 138.229337,99.4905774 L138.229337,99.4905774 C138.229337,102.196938 136.023732,104.411621 133.327605,104.411621" id="Fill-30" fill="#000000"></path>
                    <path d="M0.15312822,97.1875631 L38.5189404,8.79757783 C38.5189404,8.79757783 59.0429302,9.0315425 81.8993237,2.24111686 C104.755717,-4.54891949 121.547861,7.62658658 127.145242,18.397526 L127.145242,91.6853057 C127.145242,91.6853057 114.900801,92.9730846 114.667755,100.23144 L0.15312822,97.1875631 Z" id="Fill-32" fill="#FFB73E"></path>
                </g>
                <g id="Group-64" transform="translate(1.938823, 46.812399)">
                    <g id="Group-37" transform="translate(98.879960, 0.000000)">
                        <mask id="mask-2" fill="white">
                            <use xlink:href="#path-1"></use>
                        </mask>
                        <g id="Clip-36"></g>
                        <polygon id="Fill-35" fill="#F4AD3A" mask="url(#mask-2)" points="8.90415977 -0.882798155 0.246928464 74.2856526 29.9624891 91.9034651 30.4301331 8.51316087"></polygon>
                    </g>
                    <g id="Group-40" transform="translate(62.042328, 0.000000)">
                        <mask id="mask-4" fill="white">
                            <use xlink:href="#path-3"></use>
                        </mask>
                        <g id="Clip-39"></g>
                        <path d="M17.196272,1.46623053 L0.349841175,74.0509483 C0.349841175,74.0509483 17.196272,65.8290949 17.196272,64.6546 C17.196272,63.4801051 29.59737,-2.99700572 29.59737,-2.99700572 L17.196272,1.46623053 Z" id="Fill-38" fill="#FFCA5B" mask="url(#mask-4)"></path>
                    </g>
                    <polygon id="Fill-41" fill="#FFCA5B" points="42.5038028 6.16424897 15.3622232 71.7016082 4.83325244 69.8224942 33.8465715 1.23113691"></polygon>
                    <g id="Group-45" transform="translate(0.000000, 60.340307)">
                        <mask id="mask-6" fill="white">
                            <use xlink:href="#path-5"></use>
                        </mask>
                        <g id="Clip-44"></g>
                        <path d="M127.611801,29.3945664 C127.611801,29.3945664 124.57987,0.204261671 85.2423194,0.204261671 C45.9043815,0.204261671 46.5655201,15.2679273 6.45011427,5.78476683 L-8.0100135,39.0334438 L9.48204528,38.9166562 L115.717123,38.2139835 C115.717123,38.2139835 121.780985,28.8873186 127.611801,29.3945664" id="Fill-43" fill="#FFCA5B" mask="url(#mask-6)"></path>
                    </g>
                    <g id="Group-48" transform="translate(0.000000, 60.340307)">
                        <mask id="mask-8" fill="white">
                            <use xlink:href="#path-7"></use>
                        </mask>
                        <g id="Clip-47"></g>
                        <path d="M127.611801,29.3945664 C127.611801,29.3945664 124.57987,0.204261671 85.2423194,0.204261671 C45.9043815,0.204261671 46.5655201,15.2679273 6.45011427,5.78476683 L-8.0100135,39.0334438 L9.48204528,38.9166562 L115.717123,38.2139835 C115.717123,38.2139835 121.780985,28.8873186 127.611801,29.3945664 L127.611801,29.3945664 Z" id="Stroke-46" stroke="#FFCA5B" mask="url(#mask-8)"></path>
                    </g>
                    <g id="Group-51" transform="translate(0.000000, 66.568984)">
                        <mask id="mask-10" fill="white">
                            <use xlink:href="#path-9"></use>
                        </mask>
                        <g id="Clip-50"></g>
                        <path d="M123.646947,29.4878409 C123.646947,29.4878409 120.615016,0.297536107 81.2774657,0.297536107 C41.9395278,0.297536107 42.6006664,15.3612018 2.48526054,5.87804127 L-11.9748672,39.1267183 L5.51719155,39.0099306 L111.752269,38.307258 C111.752269,38.307258 117.816131,28.980593 123.646947,29.4878409 L123.646947,29.4878409 Z" id="Stroke-49" stroke="#F4AD3A" stroke-width="2.896" mask="url(#mask-10)"></path>
                    </g>
                    <g id="Group-54" transform="translate(0.000000, 73.186953)">
                        <mask id="mask-12" fill="white">
                            <use xlink:href="#path-11"></use>
                        </mask>
                        <g id="Clip-53"></g>
                        <path d="M119.682093,29.191823 C119.682093,29.191823 116.650162,0.00151823998 77.312612,0.00151823998 C37.9746741,0.00151823998 38.6358126,15.0651839 -1.47959319,5.5820234 L-15.939721,38.8307004 L1.55233782,38.7139127 L107.787416,38.0112401 C107.787416,38.0112401 113.851278,28.6845751 119.682093,29.191823 L119.682093,29.191823 Z" id="Stroke-52" stroke="#F4AD3A" stroke-width="2.896" mask="url(#mask-12)"></path>
                    </g>
                    <g id="Group-57" transform="translate(0.000000, 79.415630)">
                        <mask id="mask-14" fill="white">
                            <use xlink:href="#path-13"></use>
                        </mask>
                        <g id="Clip-56"></g>
                        <path d="M115.717239,29.2850974 C115.717239,29.2850974 112.685308,0.0947926758 73.3477582,0.0947926758 C34.0098203,0.0947926758 34.6709589,15.1584583 -5.44444692,5.67529784 L-19.9045747,38.9239748 L-2.41251591,38.8071872 L103.822562,38.1045146 C103.822562,38.1045146 109.886424,28.7778496 115.717239,29.2850974 L115.717239,29.2850974 Z" id="Stroke-55" stroke="#F4AD3A" stroke-width="2.896" mask="url(#mask-14)"></path>
                    </g>
                    <g id="Group-60" transform="translate(0.000000, 85.644307)">
                        <mask id="mask-16" fill="white">
                            <use xlink:href="#path-15"></use>
                        </mask>
                        <g id="Clip-59"></g>
                        <path d="M111.752347,29.3783329 C111.752347,29.3783329 108.720416,0.188028182 69.3828657,0.188028182 C30.0449278,0.188028182 30.7060664,15.2516938 -9.40933942,5.76853335 L-23.8694672,39.0172104 L-6.37740842,38.9004227 L99.8576693,38.1977501 C99.8576693,38.1977501 105.921531,28.8710851 111.752347,29.3783329 L111.752347,29.3783329 Z" id="Stroke-58" stroke="#F4AD3A" stroke-width="2.896" mask="url(#mask-16)"></path>
                    </g>
                    <g id="Group-63" transform="translate(0.000000, 91.872983)">
                        <mask id="mask-18" fill="white">
                            <use xlink:href="#path-17"></use>
                        </mask>
                        <g id="Clip-62"></g>
                        <path d="M107.787493,29.4716074 C107.787493,29.4716074 104.755562,0.281302618 65.418012,0.281302618 C26.0800741,0.281302618 26.7412127,15.3449683 -13.3741932,5.86180778 L-27.8343209,39.1104848 L-10.3422621,38.9936971 L95.8928156,38.2910245 C95.8928156,38.2910245 101.956678,28.9643595 107.787493,29.4716074 L107.787493,29.4716074 Z" id="Stroke-61" stroke="#F4AD3A" stroke-width="2.896" mask="url(#mask-18)"></path>
                    </g>
                </g>
                <path d="M256.018131,143.61067 L217.652319,55.220685 C217.652319,55.220685 197.128329,55.4546496 174.271935,48.664224 C151.415542,41.8741876 134.623398,54.0496937 129.026017,64.8206331 L129.026017,138.108413 C129.026017,138.108413 141.270458,139.396192 141.503504,146.654547 L256.018131,143.61067 Z" id="Fill-65" fill="#FFB73E"></path>
                <g id="Group-96" transform="translate(128.737830, 46.423107)">
                    <g id="Group-69" transform="translate(0.000000, 5.450092)">
                        <mask id="mask-20" fill="white">
                            <use xlink:href="#path-19"></use>
                        </mask>
                        <g id="Clip-68"></g>
                        <polygon id="Fill-67" fill="#F4AD3A" mask="url(#mask-20)" points="-3.57224212 4.6269726 -3.57224212 87.3122684 13.0403667 78.1510527 8.59464611 -0.0710069161"></polygon>
                    </g>
                    <g id="Group-72" transform="translate(21.714815, 0.000000)">
                        <mask id="mask-22" fill="white">
                            <use xlink:href="#path-21"></use>
                        </mask>
                        <g id="Clip-71"></g>
                        <path d="M0.216721606,-0.0237079013 L7.93788929,72.3258773 C7.93788929,72.3258773 23.3806124,69.0371359 23.3806124,68.3325169 C23.3806124,67.6278978 13.7877053,-2.1379544 13.7877053,-2.1379544 L0.216721606,-0.0237079013 Z" id="Fill-70" fill="#FFCA5B" mask="url(#mask-22)"></path>
                    </g>
                    <polygon id="Fill-73" fill="#FFCA5B" points="82.0642787 5.84884435 110.609954 72.5606984 125.350435 67.6279757 89.3178024 4.20447366"></polygon>
                    <g id="Group-77" transform="translate(0.000000, 60.729599)">
                        <mask id="mask-24" fill="white">
                            <use xlink:href="#path-23"></use>
                        </mask>
                        <g id="Clip-76"></g>
                        <path d="M-0.178371692,29.3945664 C-0.178371692,29.3945664 2.85355931,0.204261671 42.1911094,0.204261671 C81.5290473,0.204261671 80.8679088,15.2679273 120.983315,5.78476683 L135.443442,39.0334438 L117.951384,38.9166562 L11.7163058,38.2139835 C11.7163058,38.2139835 5.65244382,28.8873186 -0.178371692,29.3945664" id="Fill-75" fill="#FFCA5B" mask="url(#mask-24)"></path>
                    </g>
                    <g id="Group-80" transform="translate(0.000000, 60.729599)">
                        <mask id="mask-26" fill="white">
                            <use xlink:href="#path-25"></use>
                        </mask>
                        <g id="Clip-79"></g>
                        <path d="M-0.178371692,29.3945664 C-0.178371692,29.3945664 2.85355931,0.204261671 42.1911094,0.204261671 C81.5290473,0.204261671 80.8679088,15.2679273 120.983315,5.78476683 L135.443442,39.0334438 L117.951384,38.9166562 L11.7163058,38.2139835 C11.7163058,38.2139835 5.65244382,28.8873186 -0.178371692,29.3945664 L-0.178371692,29.3945664 Z" id="Stroke-78" stroke="#FFCA5B" mask="url(#mask-26)"></path>
                    </g>
                    <g id="Group-83" transform="translate(3.489881, 66.958276)">
                        <mask id="mask-28" fill="white">
                            <use xlink:href="#path-27"></use>
                        </mask>
                        <g id="Clip-82"></g>
                        <path d="M0.296601103,29.4878409 C0.296601103,29.4878409 3.32853211,0.297536107 42.6660822,0.297536107 C82.0040201,0.297536107 81.3428816,15.3612018 121.458287,5.87804127 L135.918415,39.1267183 L118.426356,39.0099306 L12.1912786,38.307258 C12.1912786,38.307258 6.12741662,28.980593 0.296601103,29.4878409 L0.296601103,29.4878409 Z" id="Stroke-81" stroke="#F4AD3A" stroke-width="2.896" mask="url(#mask-28)"></path>
                    </g>
                    <g id="Group-86" transform="translate(7.367526, 73.576245)">
                        <mask id="mask-30" fill="white">
                            <use xlink:href="#path-29"></use>
                        </mask>
                        <g id="Clip-85"></g>
                        <path d="M0.38380935,29.191823 C0.38380935,29.191823 3.41574035,0.00151823998 42.7532905,0.00151823998 C82.0912284,0.00151823998 81.4300898,15.0651839 121.545496,5.5820234 L136.005623,38.8307004 L118.513565,38.7139127 L12.2784869,38.0112401 C12.2784869,38.0112401 6.21462486,28.6845751 0.38380935,29.191823 L0.38380935,29.191823 Z" id="Stroke-84" stroke="#F4AD3A" stroke-width="2.896" mask="url(#mask-30)"></path>
                    </g>
                    <g id="Group-89" transform="translate(11.632936, 79.804922)">
                        <mask id="mask-32" fill="white">
                            <use xlink:href="#path-31"></use>
                        </mask>
                        <g id="Clip-88"></g>
                        <path d="M0.083291825,29.2850974 C0.083291825,29.2850974 3.11522283,0.0947926758 42.452773,0.0947926758 C81.7907109,0.0947926758 81.1295723,15.1584583 121.244978,5.67529784 L135.705106,38.9239748 L118.213047,38.8071872 L11.9779693,38.1045146 C11.9779693,38.1045146 5.91410734,28.7778496 0.083291825,29.2850974 L0.083291825,29.2850974 Z" id="Stroke-87" stroke="#F4AD3A" stroke-width="2.896" mask="url(#mask-32)"></path>
                    </g>
                    <g id="Group-92" transform="translate(15.510582, 86.033599)">
                        <mask id="mask-34" fill="white">
                            <use xlink:href="#path-33"></use>
                        </mask>
                        <g id="Clip-91"></g>
                        <path d="M0.170500072,29.3783329 C0.170500072,29.3783329 3.20243108,0.188028182 42.5399812,0.188028182 C81.8779191,0.188028182 81.2167805,15.2516938 121.332186,5.76853335 L135.792314,39.0172104 L118.300255,38.9004227 L12.0651776,38.1977501 C12.0651776,38.1977501 6.00131558,28.8710851 0.170500072,29.3783329 L0.170500072,29.3783329 Z" id="Stroke-90" stroke="#F4AD3A" stroke-width="2.896" mask="url(#mask-34)"></path>
                    </g>
                    <g id="Group-95" transform="translate(19.388227, 92.262276)">
                        <mask id="mask-36" fill="white">
                            <use xlink:href="#path-35"></use>
                        </mask>
                        <g id="Clip-94"></g>
                        <path d="M0.257708319,29.4716074 C0.257708319,29.4716074 3.28963932,0.281302618 42.6271895,0.281302618 C81.9651273,0.281302618 81.3039888,15.3449683 121.419395,5.86180778 L135.879522,39.1104848 L118.387464,38.9936971 L12.1523858,38.2910245 C12.1523858,38.2910245 6.08852383,28.9643595 0.257708319,29.4716074 L0.257708319,29.4716074 Z" id="Stroke-93" stroke="#F4AD3A" stroke-width="2.896" mask="url(#mask-36)"></path>
                    </g>
                </g>
                <path d="M253.802444,141.503353 L142.368219,141.503353 C139.153651,136.77423 133.748213,133.659503 127.626574,133.659503 C121.505711,133.659503 116.100273,136.77423 112.885317,141.503353 L4.01615498,141.503353 C1.95518641,141.503353 0.284308967,143.178867 0.284308967,145.249513 C0.284308967,147.320548 1.95518641,148.996062 4.01615498,148.996062 L110.044166,148.996062 L117.607126,148.996062 C118.548231,145.318028 121.423505,142.436487 125.092145,141.503353 C125.908002,141.29586 126.747512,141.152211 127.626574,141.152211 C128.505249,141.152211 129.345147,141.29586 130.160228,141.503353 C133.828093,142.436487 136.70453,145.318028 137.645635,148.996062 L145.208982,148.996062 L253.802444,148.996062 C255.864964,148.996062 257.533902,147.320548 257.533902,145.249513 C257.533902,143.178867 255.864964,141.503353 253.802444,141.503353" id="Fill-97" fill="#2A1247"></path>
                <g id="Group-101" transform="translate(41.103042, 46.423107)">
                    <mask id="mask-38" fill="white">
                        <use xlink:href="#path-37"></use>
                    </mask>
                    <g id="Clip-100"></g>
                    <path d="M59.7417594,67.0607378 C42.4637467,67.0607378 24.6715582,67.2503232 7.39354542,67.2503232 C-23.9552795,41.3771782 61.822504,24.4865637 30.4566175,-1.40020656 L37.1924754,-1.40020656 C44.8353147,2.7138345 54.833048,7.6504502 54.4844477,17.7794466 C54.2944431,23.2933828 51.1039164,28.1766655 48.4671174,32.8302656 C45.6628042,37.7789494 41.8906307,43.4696243 42.3687444,49.4592757 C43.1020071,58.6500776 55.605475,58.9451612 59.7417594,67.0607378" id="Fill-99" fill="#2AA296" mask="url(#mask-38)"></path>
                </g>
                <g id="Group-104" transform="translate(48.470569, 107.152706)">
                    <mask id="mask-40" fill="white">
                        <use xlink:href="#path-39"></use>
                    </mask>
                    <g id="Clip-103"></g>
                    <polygon id="Fill-102" fill="#008373" mask="url(#mask-40)" points="0.0421887829 3.89292303 0.0421887829 45.3848646 46.864758 41.7352492 46.864758 -1.00186526e-12 38.0915851 -1.65449229 4.0167754 2.91969227"></polygon>
                </g>
                <g id="Group-177" transform="translate(47.307275, 55.766122)">
                    <path d="M19.7050698,70.4294788 L19.7050698,70.4294788 C19.2517731,70.4294788 18.8810702,70.0573153 18.8810702,69.6022326 L18.8810702,58.9940174 C18.8810702,58.5389347 19.2517731,58.1667712 19.7050698,58.1667712 C20.1583666,58.1667712 20.5290695,58.5389347 20.5290695,58.9940174 L20.5290695,69.6022326 C20.5290695,70.0573153 20.1583666,70.4294788 19.7050698,70.4294788" id="Fill-105" fill="#2AA296"></path>
                    <path d="M43.1771559,75.9444271 L43.1771559,75.9444271 C42.6420408,75.9444271 42.2038669,75.5049161 42.2038669,74.9673034 L42.2038669,62.4379307 C42.2038669,61.9007073 42.6420408,61.4611963 43.1771559,61.4611963 C43.712271,61.4611963 44.1504449,61.9007073 44.1504449,62.4379307 L44.1504449,74.9673034 C44.1504449,75.5049161 43.712271,75.9444271 43.1771559,75.9444271" id="Fill-107" fill="#2AA296"></path>
                    <path d="M35.6876,69.1972129 L35.6876,69.1972129 C35.4902278,69.1972129 35.3289178,69.0352673 35.3289178,68.8371175 L35.3289178,56.4307611 C35.3289178,56.2326114 35.4902278,56.0702765 35.6876,56.0702765 C35.8849721,56.0702765 36.0462822,56.2326114 36.0462822,56.4307611 L36.0462822,68.8371175 C36.0462822,69.0352673 35.8849721,69.1972129 35.6876,69.1972129" id="Fill-109" fill="#2AA296"></path>
                    <path d="M25.4740757,67.5097865 L25.4740757,67.5097865 C25.2069059,67.5097865 24.9882067,67.2902257 24.9882067,67.0220033 L24.9882067,60.7691903 C24.9882067,60.5009679 25.2069059,60.2817963 25.4740757,60.2817963 C25.7412454,60.2817963 25.9599447,60.5009679 25.9599447,60.7691903 L25.9599447,67.0220033 C25.9599447,67.2902257 25.7412454,67.5097865 25.4740757,67.5097865" id="Fill-111" fill="#2AA296"></path>
                    <path d="M27.9646486,69.0669557 L27.9646486,69.0669557 C27.7672764,69.0669557 27.6059664,68.9050101 27.6059664,68.7068603 L27.6059664,64.0867393 C27.6059664,63.8885895 27.7672764,63.7262546 27.9646486,63.7262546 C28.1620207,63.7262546 28.3233308,63.8885895 28.3233308,64.0867393 L28.3233308,68.7068603 C28.3233308,68.9050101 28.1620207,69.0669557 27.9646486,69.0669557" id="Fill-113" fill="#2AA296"></path>
                    <path d="M28.3247655,62.9436214 C28.3247655,63.1452748 28.1619044,63.3083883 27.9614301,63.3083883 C27.7605681,63.3083883 27.597707,63.1452748 27.597707,62.9436214 C27.597707,62.741968 27.7605681,62.5788545 27.9614301,62.5788545 C28.1619044,62.5788545 28.3247655,62.741968 28.3247655,62.9436214" id="Fill-115" fill="#2AA296"></path>
                    <path d="M24.4784126,76.8914196 L24.4784126,76.8914196 C24.7455824,76.8914196 24.9642816,77.1109804 24.9642816,77.3792028 L24.9642816,83.6320158 C24.9642816,83.9002382 24.7455824,84.1194098 24.4784126,84.1194098 C24.2112429,84.1194098 23.9925437,83.9002382 23.9925437,83.6320158 L23.9925437,77.3792028 C23.9925437,77.1109804 24.2112429,76.8914196 24.4784126,76.8914196" id="Fill-117" fill="#2AA296"></path>
                    <path d="M21.9878397,75.3342504 L21.9878397,75.3342504 C22.1852119,75.3342504 22.3465219,75.496196 22.3465219,75.6943457 L22.3465219,80.3144668 C22.3465219,80.5126166 22.1852119,80.6749515 21.9878397,80.6749515 C21.7904676,80.6749515 21.6291575,80.5126166 21.6291575,80.3144668 L21.6291575,75.6943457 C21.6291575,75.496196 21.7904676,75.3342504 21.9878397,75.3342504" id="Fill-119" fill="#2AA296"></path>
                    <path d="M21.6277228,81.4575847 C21.6277228,81.2559313 21.7905839,81.0928178 21.9910582,81.0928178 C22.1919202,81.0928178 22.3547813,81.2559313 22.3547813,81.4575847 C22.3547813,81.6592381 22.1919202,81.8223516 21.9910582,81.8223516 C21.7905839,81.8223516 21.6277228,81.6592381 21.6277228,81.4575847" id="Fill-121" fill="#2AA296"></path>
                    <path d="M5.51936303,79.8051557 L5.51936303,79.8051557 C5.06606627,79.8051557 4.69536336,79.4329922 4.69536336,78.9779095 L4.69536336,64.476382 C4.69536336,64.0216885 5.06606627,63.6491358 5.51936303,63.6491358 L5.51936303,63.6491358 C5.97265978,63.6491358 6.34336269,64.0216885 6.34336269,64.476382 L6.34336269,78.9779095 C6.34336269,79.4329922 5.97265978,79.8051557 5.51936303,79.8051557" id="Fill-123" fill="#2AA296"></path>
                    <path d="M11.2883301,72.9923068 L11.2883301,72.9923068 C11.0211603,72.9923068 10.8024611,72.7727459 10.8024611,72.5045235 L10.8024611,66.2517106 C10.8024611,65.9834882 11.0211603,65.7643166 11.2883301,65.7643166 C11.5554999,65.7643166 11.7741991,65.9834882 11.7741991,66.2517106 L11.7741991,72.5045235 C11.7741991,72.7727459 11.5554999,72.9923068 11.2883301,72.9923068" id="Fill-125" fill="#2AA296"></path>
                    <path d="M11.7723378,74.0242818 C11.7723378,74.290947 11.5571285,74.5070042 11.2915098,74.5070042 C11.025891,74.5070042 10.810294,74.290947 10.810294,74.0242818 C10.810294,73.7576165 11.025891,73.5415593 11.2915098,73.5415593 C11.5571285,73.5415593 11.7723378,73.7576165 11.7723378,74.0242818" id="Fill-127" fill="#2AA296"></path>
                    <path d="M32.921404,87.5907682 L32.921404,87.5907682 C32.4681073,87.5907682 32.0974044,87.2186047 32.0974044,86.763522 L32.0974044,76.1553068 C32.0974044,75.7002241 32.4681073,75.3280606 32.921404,75.3280606 L32.921404,75.3280606 C33.3747008,75.3280606 33.7454037,75.7002241 33.7454037,76.1553068 L33.7454037,86.763522 C33.7454037,87.2186047 33.3747008,87.5907682 32.921404,87.5907682" id="Fill-129" fill="#2AA296"></path>
                    <path d="M38.6903711,84.6710759 L38.6903711,84.6710759 C38.4232013,84.6710759 38.2045021,84.451515 38.2045021,84.1832926 L38.2045021,77.9304797 C38.2045021,77.6622573 38.4232013,77.4430857 38.6903711,77.4430857 L38.6903711,77.4430857 C38.9575409,77.4430857 39.1762401,77.6622573 39.1762401,77.9304797 L39.1762401,84.1832926 C39.1762401,84.451515 38.9575409,84.6710759 38.6903711,84.6710759" id="Fill-131" fill="#2AA296"></path>
                    <path d="M39.1743788,85.7030509 C39.1743788,85.9697161 38.9591695,86.1857733 38.6935508,86.1857733 C38.4279321,86.1857733 38.212335,85.9697161 38.212335,85.7030509 C38.212335,85.4363856 38.4279321,85.2203284 38.6935508,85.2203284 C38.9591695,85.2203284 39.1743788,85.4363856 39.1743788,85.7030509" id="Fill-133" fill="#2AA296"></path>
                    <path d="M44.1296607,59.7520474 C44.1296607,60.2857671 43.6988543,60.7182709 43.1672291,60.7182709 C42.6356039,60.7182709 42.2044098,60.2857671 42.2044098,59.7520474 C42.2044098,59.2183276 42.6356039,58.7858239 43.1672291,58.7858239 C43.6988543,58.7858239 44.1296607,59.2183276 44.1296607,59.7520474" id="Fill-135" fill="#2AA296"></path>
                    <path d="M12.3499131,95.6685834 L12.3499131,95.6685834 C11.814798,95.6685834 11.3766241,95.2290724 11.3766241,94.6914598 L11.3766241,82.162087 C11.3766241,81.6248636 11.814798,81.1853526 12.3499131,81.1853526 C12.8850282,81.1853526 13.3232021,81.6248636 13.3232021,82.162087 L13.3232021,94.6914598 C13.3232021,95.2290724 12.8850282,95.6685834 12.3499131,95.6685834" id="Fill-137" fill="#2AA296"></path>
                    <path d="M13.3023792,79.4762037 C13.3023792,80.0099234 12.8715727,80.4424272 12.3399475,80.4424272 C11.8083224,80.4424272 11.3771282,80.0099234 11.3771282,79.4762037 C11.3771282,78.9424839 11.8083224,78.5099802 12.3399475,78.5099802 C12.8715727,78.5099802 13.3023792,78.9424839 13.3023792,79.4762037" id="Fill-139" fill="#2AA296"></path>
                    <path d="M22.8023779,89.4777847 C23.5802336,88.1265512 25.0343507,87.2175536 26.6997994,87.2175536 C29.1535735,87.2175536 31.1486221,89.190487 31.1974804,91.6418607 C31.212991,91.6410821 31.2288893,91.6403035 31.2443999,91.6403035 C33.2262645,91.6403035 34.832773,93.2535308 34.832773,95.2420359 C34.832773,97.2320981 33.2262645,98.8449361 31.2443999,98.8449361 L17.2267115,98.8449361 C15.6395912,98.8449361 14.3529884,97.552875 14.3529884,95.9595016 C14.3529884,94.3922108 15.5981004,93.1180571 17.1491586,93.0764028 C17.1045657,92.8490561 17.0801365,92.6143128 17.0801365,92.3741195 C17.0801365,90.3844465 18.6870328,88.7719978 20.6685096,88.7719978 C21.4680801,88.7719978 22.2063838,89.0339915 22.8023779,89.4777847" id="Fill-141" fill="#FFFFFF"></path>
                    <path d="M5.65783375,88.9892618 C6.17666271,88.0884394 7.14607408,87.4823113 8.25663175,87.4823113 C9.89299814,87.4823113 11.2230305,88.79773 11.2559905,90.4323684 C11.2664602,90.4319791 11.2769298,90.4312005 11.2873995,90.4312005 C12.608901,90.4312005 13.6799067,91.5068152 13.6799067,92.833134 C13.6799067,94.1598422 12.608901,95.2354568 11.2873995,95.2354568 L1.93994726,95.2354568 C0.881350042,95.2354568 0.023614861,94.373953 0.023614861,93.3115743 C0.023614861,92.2663244 0.853818759,91.4168886 1.88798681,91.3888596 C1.85812894,91.2374249 1.84223059,91.0809294 1.84223059,90.9205409 C1.84223059,89.5938328 2.91362404,88.5186074 4.23512562,88.5186074 C4.76791411,88.5186074 5.26037509,88.6933997 5.65783375,88.9892618" id="Fill-143" fill="#FFFFFF"></path>
                    <path d="M11.8646258,93.7835523 C12.1577758,93.2747472 12.7052993,92.93217 13.3327023,92.93217 C14.2567453,92.93217 15.008233,93.675329 15.0268457,94.5987303 C15.0326621,94.598341 15.0384786,94.5979518 15.0442951,94.5979518 C15.7907418,94.5979518 16.3960423,95.205637 16.3960423,95.9546354 C16.3960423,96.7044124 15.7907418,97.3117084 15.0442951,97.3117084 L9.76449297,97.3117084 C9.16656004,97.3117084 8.68224212,96.825093 8.68224212,96.2248043 C8.68224212,95.6346372 9.15104946,95.1546398 9.73541063,95.1390681 C9.71834899,95.0534238 9.70943041,94.9650544 9.70943041,94.8743493 C9.70943041,94.1249616 10.3143431,93.5176656 11.0607899,93.5176656 C11.3620829,93.5176656 11.6401101,93.6165459 11.8646258,93.7835523" id="Fill-145" fill="#FFFFFF"></path>
                    <path d="M35.5182632,94.1728446 C35.8114132,93.6640395 36.3589368,93.3214623 36.9863398,93.3214623 C37.9103827,93.3214623 38.6618704,94.0646213 38.6804831,94.9880226 C38.6862996,94.9876334 38.692116,94.9872441 38.6979325,94.9872441 C39.4443793,94.9872441 40.0496797,95.5949293 40.0496797,96.3439277 C40.0496797,97.0937047 39.4443793,97.7010007 38.6979325,97.7010007 L33.4181304,97.7010007 C32.8201975,97.7010007 32.3358796,97.2143853 32.3358796,96.6140966 C32.3358796,96.0239295 32.8046869,95.5439321 33.3890481,95.5283604 C33.3719864,95.4427161 33.3630679,95.3543467 33.3630679,95.2636416 C33.3630679,94.5142539 33.9679805,93.9069579 34.7144273,93.9069579 C35.0157204,93.9069579 35.2937475,94.0058382 35.5182632,94.1728446" id="Fill-147" fill="#FFFFFF"></path>
                    <path d="M42.2577274,89.2968417 C42.7765564,88.3960193 43.7459677,87.7898912 44.8565254,87.7898912 C46.4928918,87.7898912 47.8229242,89.1053099 47.8558842,90.7399482 C47.8663538,90.739559 47.8768235,90.7387804 47.8872931,90.7387804 C49.2087947,90.7387804 50.2798004,91.814395 50.2798004,93.1407139 C50.2798004,94.467422 49.2087947,95.5430367 47.8872931,95.5430367 L38.5398409,95.5430367 C37.4812437,95.5430367 36.6235085,94.6815328 36.6235085,93.6191541 C36.6235085,92.5739043 37.4537124,91.7244685 38.4878805,91.6964394 C38.4580226,91.5450047 38.4421242,91.3885092 38.4421242,91.2281208 C38.4421242,89.9014126 39.5135177,88.8261873 40.8350193,88.8261873 C41.3678078,88.8261873 41.8602687,89.0009795 42.2577274,89.2968417" id="Fill-149" fill="#FFFFFF"></path>
                    <path d="M153.679389,25.5797354 L149.514797,25.5797354 C149.024275,25.5797354 148.622551,25.1764286 148.622551,24.6839738 C148.622551,24.1911298 149.024275,23.787823 149.514797,23.787823 L153.679389,23.787823 C154.170299,23.787823 154.571635,24.1911298 154.571635,24.6839738 C154.571635,25.1764286 154.170299,25.5797354 153.679389,25.5797354" id="Fill-151" fill="#000000"></path>
                    <path d="M160.399852,10.0894443 C160.399852,15.0529212 156.391918,19.0762571 151.448308,19.0762571 C146.50431,19.0762571 142.496763,15.0529212 142.496763,10.0894443 C142.496763,5.12596747 146.50431,1.10263152 151.448308,1.10263152 C156.391918,1.10263152 160.399852,5.12596747 160.399852,10.0894443" id="Fill-153" fill="#008373"></path>
                    <path d="M152.306702,16.600436 L152.125228,13.7430305 L156.764056,7.33216481 L152.013164,11.9807042 L151.841772,9.28096208 L154.6298,5.42774686 L151.774301,8.22169772 L151.468355,3.40420547 L151.21941,8.16174671 L148.425179,5.42774686 L151.164348,9.21322522 L151.020487,11.9600717 L146.290923,7.33216481 L150.927424,13.7399161 L150.776195,16.6276864 L147.397603,13.3218162 L150.709888,17.8991151 L150.361675,24.5517312 C150.361675,24.5517312 151.586623,25.3054011 152.811959,24.5517312 L152.385806,17.8434463 L155.657376,13.3218162 L152.306702,16.600436 Z" id="Fill-155" fill="#2AA296"></path>
                    <path d="M134.984252,36.0906276 L128.87696,36.0906276 C128.157269,36.0906276 127.568255,35.4992926 127.568255,34.7767661 C127.568255,34.0542396 128.157269,33.4629046 128.87696,33.4629046 L134.984252,33.4629046 C135.703943,33.4629046 136.292957,34.0542396 136.292957,34.7767661 C136.292957,35.4992926 135.703943,36.0906276 134.984252,36.0906276" id="Fill-157" fill="#000000"></path>
                    <path d="M144.839986,13.3736699 C144.839986,20.6526574 138.962638,26.5531608 131.712217,26.5531608 C124.462183,26.5531608 118.584448,20.6526574 118.584448,13.3736699 C118.584448,6.09507173 124.462183,0.194179001 131.712217,0.194179001 C138.962638,0.194179001 144.839986,6.09507173 144.839986,13.3736699" id="Fill-159" fill="#008373"></path>
                    <path d="M132.971133,22.9222315 L132.704739,18.7318892 L139.50768,9.33009077 L132.540715,16.1473776 L132.289055,12.1882749 L136.378032,6.53691849 L132.190563,10.6349986 L131.741532,3.56934327 L131.376258,10.5466292 L127.27875,6.53691849 L131.295603,12.088616 L131.085046,16.1170128 L124.149102,9.33009077 L130.948166,18.7268284 L130.726752,22.9623286 L125.771897,18.113693 L130.629035,24.8270388 L130.118737,34.5827039 C130.118737,34.5827039 131.91525,35.688294 133.712151,34.5827039 L133.087075,24.7448981 L137.884886,18.113693 L132.971133,22.9222315 Z" id="Fill-161" fill="#2AA296"></path>
                    <path d="M15.8831073,100.946608 C15.8831073,101.382227 15.5310171,101.735704 15.0971086,101.735704 C14.6632001,101.735704 14.3111099,101.382227 14.3111099,100.946608 C14.3111099,100.51099 14.6632001,100.157513 15.0971086,100.157513 C15.5310171,100.157513 15.8831073,100.51099 15.8831073,100.946608" id="Fill-163" fill="#2AA296"></path>
                    <path d="M34.071281,111.913946 C32.432588,111.993751 30.7671393,112.035016 29.0803635,112.035016 C21.7457971,112.035016 14.8230366,111.259156 8.71419392,109.884565" id="Stroke-165" stroke="#2AA296" stroke-width="5.433" stroke-linecap="round"></path>
                    <path d="M38.0156996,111.759319 C38.0156996,112.353379 37.5360348,112.834934 36.9443061,112.834934 C36.3529652,112.834934 35.8733004,112.353379 35.8733004,111.759319 C35.8733004,111.165259 36.3529652,110.683704 36.9443061,110.683704 C37.5360348,110.683704 38.0156996,111.165259 38.0156996,111.759319" id="Fill-167" fill="#2AA296"></path>
                    <path d="M6.5828073,99.1722142 C6.5828073,99.5019448 6.31641306,99.7693886 5.98797648,99.7693886 C5.65953991,99.7693886 5.39314567,99.5019448 5.39314567,99.1722142 C5.39314567,98.8424836 5.65953991,98.5750398 5.98797648,98.5750398 C6.31641306,98.5750398 6.5828073,98.8424836 6.5828073,99.1722142" id="Fill-169" fill="#2AA296"></path>
                    <path d="M68.0829239,103.085925 C68.0829239,103.493904 67.753324,103.824802 67.3469467,103.824802 C66.9401817,103.824802 66.6105819,103.493904 66.6105819,103.085925 C66.6105819,102.677947 66.9401817,102.347049 67.3469467,102.347049 C67.753324,102.347049 68.0829239,102.677947 68.0829239,103.085925" id="Fill-171" fill="#2AA296"></path>
                    <path d="M81.7814821,99.2455958 C81.7814821,99.4963 81.579069,99.6998999 81.3289608,99.6998999 C81.0792405,99.6998999 80.8768274,99.4963 80.8768274,99.2455958 C80.8768274,98.9948915 81.0792405,98.7912917 81.3289608,98.7912917 C81.579069,98.7912917 81.7814821,98.9948915 81.7814821,99.2455958" id="Fill-173" fill="#2AA296"></path>
                    <path d="M95.6638019,99.0184826 C95.6638019,99.3696243 95.3799582,99.6545863 95.0301946,99.6545863 C94.6800432,99.6545863 94.3965873,99.3696243 94.3965873,99.0184826 C94.3965873,98.667341 94.6800432,98.382379 95.0301946,98.382379 C95.3799582,98.382379 95.6638019,98.667341 95.6638019,99.0184826" id="Fill-175" fill="#2AA296"></path>
                </g>
                <g id="Group-296" transform="translate(100.818783, 43.698061)">
                    <path d="M6.03210409,47.3950532 C6.07863584,48.1082367 6.42529734,48.7774302 6.99725005,49.224727 L12.2316837,51.9591162 L14.0960556,49.6000048 L12.066496,47.7045406 L22.4384221,43.0466582 L16.896879,39.7485738 L7.41526023,44.9674264 C6.64244549,45.3578866 6.12400429,46.1173959 6.03869609,46.9804569 C6.02512433,47.119045 6.02318551,47.257633 6.03210409,47.3950532" id="Fill-178" fill="#F7CAA7"></path>
                    <path d="M17.6814042,49.6068174 C16.5999289,50.2289065 15.3493882,49.6196641 15.3493882,49.6196641 L14.4734281,49.8306605 L15.0709733,51.0923569 C15.1023822,51.0320166 15.1260358,50.9903623 15.1411586,50.9755692 C15.2536104,50.8860319 15.6820902,50.8369811 16.1051413,50.8825283 C17.2362505,51.1865656 17.9951057,50.1529945 17.6814042,49.6068174" id="Fill-180" fill="#DEB695"></path>
                    <path d="M6.03210409,47.3950532 C6.07863584,48.1082367 6.42529734,48.7774302 6.99725005,49.224727 L12.2316837,51.9591162 L14.0960556,49.6000048 L12.066496,47.7045406 L22.4384221,43.0466582 L16.896879,39.7485738 L7.41526023,44.9674264 C6.64244549,45.3578866 6.12400429,46.1173959 6.03869609,46.9804569 C6.02512433,47.119045 6.02318551,47.257633 6.03210409,47.3950532" id="Fill-182" fill="#F7CAA7"></path>
                    <path d="M6.03873486,46.9803791 C6.12287977,46.1177073 6.64248427,45.358198 7.41529901,44.9677379 L16.8969177,39.7481067 L17.7887762,39.9836285 C17.7887762,39.9836285 7.41529901,44.9677379 6.03873486,46.9803791" id="Fill-184" fill="#F9D5B9"></path>
                    <polygon id="Fill-186" fill="#DEB695" points="22.4379568 43.0472032 12.0664184 47.7050856 11.5537937 47.1398332 20.9190831 42.1432665"></polygon>
                    <path d="M51.9288079,47.3950532 C51.8822761,48.1082367 51.5356146,48.7774302 50.9636619,49.224727 L45.7292283,51.9591162 L43.8648563,49.6000048 L45.894416,47.7045406 L35.5224898,43.0466582 L41.064033,39.7485738 L50.5456517,44.9674264 C51.3184665,45.3578866 51.8369077,46.1173959 51.9222159,46.9804569 C51.9357876,47.119045 51.9377265,47.257633 51.9288079,47.3950532" id="Fill-188" fill="#F7CAA7"></path>
                    <path d="M40.2795078,49.6068174 C41.3609831,50.2289065 42.6115238,49.6196641 42.6115238,49.6196641 L43.4874839,49.8306605 L42.8899387,51.0923569 C42.8585298,51.0320166 42.8348761,50.9903623 42.8197533,50.9755692 C42.7073016,50.8860319 42.2788218,50.8369811 41.8557707,50.8825283 C40.7246615,51.1865656 39.9658063,50.1529945 40.2795078,49.6068174" id="Fill-190" fill="#DEB695"></path>
                    <path d="M51.9288079,47.3950532 C51.8822761,48.1082367 51.5356146,48.7774302 50.9636619,49.224727 L45.7292283,51.9591162 L43.8648563,49.6000048 L45.894416,47.7045406 L35.5224898,43.0466582 L41.064033,39.7485738 L50.5456517,44.9674264 C51.3184665,45.3578866 51.8369077,46.1173959 51.9222159,46.9804569 C51.9357876,47.119045 51.9377265,47.257633 51.9288079,47.3950532" id="Fill-192" fill="#F7CAA7"></path>
                    <path d="M51.9221771,46.9803791 C51.8380322,46.1177073 51.3184277,45.358198 50.545613,44.9677379 L41.0639942,39.7481067 L40.1721358,39.9836285 C40.1721358,39.9836285 50.545613,44.9677379 51.9221771,46.9803791" id="Fill-194" fill="#DEB695"></path>
                    <polygon id="Fill-196" fill="#F9D5B9" points="35.5229552 43.0472032 45.8944935 47.7050856 46.4071183 47.1398332 37.0418289 42.1432665"></polygon>
                    <path d="M0.314283166,63.2539652 C2.70640266,71.7545519 9.68694006,83.3079689 28.4268252,83.3079689 C47.1651592,83.3079689 54.1468599,71.7545519 56.5385916,63.2539652 L28.0898578,60.9259972 L0.314283166,63.2539652 Z" id="Fill-198" fill="#32135A"></path>
                    <path d="M28.0902455,60.9258804 L56.5389794,63.2538484 C54.2406989,71.4215902 47.6994987,82.4004117 30.5699998,83.2494583 C44.2065157,80.8050919 49.7340993,71.1502535 51.8074764,63.7817288 L23.357967,61.4541501 L28.0902455,60.9258804 Z" id="Fill-200" fill="#220C3D"></path>
                    <path d="M26.483388,74.7590321 C26.483388,77.1477296 24.5546472,79.0840695 22.1753239,79.0840695 C19.7960006,79.0840695 17.8672598,77.1477296 17.8672598,74.7590321 C17.8672598,72.3703345 19.7960006,70.4339946 22.1753239,70.4339946 C24.5546472,70.4339946 26.483388,72.3703345 26.483388,74.7590321" id="Fill-202" fill="#F7CAA7"></path>
                    <path d="M23.880247,113.108723 C23.880247,113.108723 23.453706,114.522243 22.1779607,114.522243 C20.901052,114.522243 20.4752865,113.108723 20.4752865,113.108723 L17.8671822,74.8148176 L26.4875759,74.8148176 L23.880247,113.108723 Z" id="Fill-204" fill="#F7CAA7"></path>
                    <path d="M22.1775729,114.522321 C23.4234604,114.522321 23.8798593,113.108801 23.8798593,113.108801 L26.4871881,74.8148955 L25.7093324,76.5990221 C25.7093324,76.5990221 22.9651227,114.336239 22.1775729,114.522321" id="Fill-206" fill="#DEB695"></path>
                    <path d="M22.1775729,114.522321 C20.9316854,114.522321 20.4752865,113.108801 20.4752865,113.108801 L17.86757,74.8148955 L18.6458134,76.5990221 C18.6458134,76.5990221 21.3900231,114.336239 22.1775729,114.522321" id="Fill-208" fill="#F9D5B9"></path>
                    <path d="M38.1201633,74.7590321 C38.1201633,77.1477296 36.1914225,79.0840695 33.8120992,79.0840695 C31.4327759,79.0840695 29.5040351,77.1477296 29.5040351,74.7590321 C29.5040351,72.3703345 31.4327759,70.4339946 33.8120992,70.4339946 C36.1914225,70.4339946 38.1201633,72.3703345 38.1201633,74.7590321" id="Fill-210" fill="#F7CAA7"></path>
                    <path d="M35.5170224,113.108723 C35.5170224,113.108723 35.0904814,114.522243 33.814736,114.522243 C32.5378273,114.522243 32.1120619,113.108723 32.1120619,113.108723 L29.5039575,74.8148176 L38.1243512,74.8148176 L35.5170224,113.108723 Z" id="Fill-212" fill="#F7CAA7"></path>
                    <path d="M33.8143482,114.522321 C35.0602357,114.522321 35.5166346,113.108801 35.5166346,113.108801 L38.1239634,74.8148955 L37.3461077,76.5990221 C37.3461077,76.5990221 34.601898,114.336239 33.8143482,114.522321" id="Fill-214" fill="#DEB695"></path>
                    <path d="M33.8143482,114.522321 C32.5684607,114.522321 32.1120619,113.108801 32.1120619,113.108801 L29.5043453,74.8148955 L30.2825887,76.5990221 C30.2825887,76.5990221 33.0267984,114.336239 33.8143482,114.522321" id="Fill-216" fill="#F9D5B9"></path>
                    <path d="M27.4427175,61.3500144 L34.3204973,61.4356587 L28.0902843,60.9256858 L0.313934178,63.2544323 C0.512469627,63.957105 0.745128356,64.6835244 1.01035931,65.420844 L27.4427175,61.3500144 Z" id="Fill-218" fill="#8562AD"></path>
                    <path d="M38.3286256,45.617311 L42.0984725,39.5930126 C42.0984725,39.5930126 38.7722282,33.5815609 30.3449413,33.5815609 L26.5076233,33.5815609 C18.0818874,33.5815609 14.7544798,39.5930126 14.7544798,39.5930126 L18.5247145,45.617311 L22.9219645,62.8329845 C22.9219645,62.8329845 24.8158066,64.5731211 28.4270578,64.5731211 C32.0383091,64.5731211 33.9821727,62.8329845 33.9821727,62.8329845 L38.3286256,45.617311 Z" id="Fill-220" fill="#FFFFFF"></path>
                    <path d="M30.3452515,33.5814051 L29.3669215,33.5814051 C37.7942085,33.5814051 41.1204527,39.5928569 41.1204527,39.5928569 L37.3498303,45.6171553 L32.643532,62.8328288 C32.643532,62.8328288 31.2328445,64.4117984 27.9383969,64.5585616 C28.0981559,64.5655688 28.2583027,64.5733547 28.4269803,64.5733547 C32.0378437,64.5733547 33.9824829,62.8328288 33.9824829,62.8328288 L38.3281602,45.6171553 L42.0991705,39.5928569 C42.0991705,39.5928569 38.7729262,33.5814051 30.3452515,33.5814051" id="Fill-222" fill="#DEDEDE"></path>
                    <path d="M17.117168,44.6538904 C17.117168,44.6538904 28.8373515,42.7868445 28.8373515,47.1075998 L26.4855595,47.1075998 L17.117168,44.6538904 Z" id="Fill-224" fill="#EBF4EF"></path>
                    <path d="M40.5569533,44.6538904 C40.5569533,44.6538904 28.8371576,42.7868445 28.8371576,47.1075998 L31.1885618,47.1075998 L40.5569533,44.6538904 Z" id="Fill-226" fill="#EBF4EF"></path>
                    <path d="M26.4857146,47.1075998 C26.4857146,47.1075998 28.5936027,47.9453568 30.8775359,47.1075998 L30.8775359,65.0064813 C30.8775359,65.0064813 28.9011,66.4616559 26.4857146,65.0064813 L26.4857146,47.1075998 Z" id="Fill-228" fill="#C53D42"></path>
                    <path d="M30.8774195,47.1075998 L26.4855983,47.1075998 C26.4855983,47.1075998 28.5934864,48.3741561 30.8774195,47.1075998" id="Fill-230" fill="#900006"></path>
                    <path d="M26.4857146,47.8574157 C26.4857146,47.8574157 28.6909316,48.8921546 30.8775359,47.8574157 L30.8775359,50.0600315 C30.8775359,50.0600315 28.975163,51.5946218 26.4857146,50.0600315 L26.4857146,47.8574157 Z" id="Fill-232" fill="#AF0007"></path>
                    <path d="M26.4857146,61.805681 C26.4857146,61.805681 28.6909316,62.84042 30.8775359,61.805681 L30.8775359,64.0079076 C30.8775359,64.0079076 28.975163,65.5428872 26.4857146,64.0079076 L26.4857146,61.805681 Z" id="Fill-234" fill="#AF0007"></path>
                    <polygon id="Fill-236" fill="#AF0007" points="16.3859216 44.4624754 16.3859216 60.8625815 26.485637 65.0065981 26.485637 47.1077166"></polygon>
                    <path d="M16.9117304,60.2779813 L25.9594406,63.9902727 L25.9594406,47.829192 L16.9117304,45.4595697 L16.9117304,60.2779813 Z M26.1587515,64.2880813 L16.7124194,60.4122871 L16.7124194,45.2003011 L16.8376673,45.2330016 L26.1587515,47.6742537 L26.1587515,64.2880813 Z" id="Fill-238" fill="#900006"></path>
                    <polygon id="Fill-240" fill="#AF0007" points="40.9772513 44.4624754 40.9772513 60.8625815 30.8775359 65.0065981 30.8775359 47.1077166"></polygon>
                    <path d="M40.451016,45.4596476 L31.4033058,47.8292699 L31.4033058,63.9903505 L40.451016,60.2780591 L40.451016,45.4596476 Z M31.2039948,47.6743315 L40.5258546,45.2330795 L40.650327,45.2003789 L40.650327,60.412365 L31.2039948,64.2881591 L31.2039948,47.6743315 Z" id="Fill-242" fill="#900006"></path>
                    <path d="M41.9417381,51.4960919 C41.8599197,51.2753632 41.6392817,51.1250963 41.393439,51.1449503 L38.8799492,51.3446572 C38.5825338,51.3680147 38.3607325,51.6296192 38.3839983,51.9282064 C38.4068764,52.2240685 38.6674542,52.4498581 38.9648696,52.4257219 L41.4779717,52.2264043 C41.7757748,52.2022682 41.9975762,51.9414423 41.9739225,51.6424658 C41.9696571,51.5914685 41.9587997,51.5424177 41.9417381,51.4960919" id="Fill-244" fill="#F7CAA7"></path>
                    <path d="M42.067684,52.8533595 C41.9858657,52.6326308 41.7663909,52.4839211 41.5213237,52.5022179 L38.7038265,52.7143822 C38.4064111,52.7369611 38.1838343,52.997787 38.2063246,53.2959849 C38.2268761,53.591847 38.4874539,53.8191937 38.7848693,53.7958362 L41.6019788,53.5836719 C41.8993942,53.5610929 42.1223588,53.3010457 42.1002562,53.0024585 C42.0963786,52.9506826 42.0851334,52.9008532 42.067684,52.8533595" id="Fill-246" fill="#F7CAA7"></path>
                    <path d="M42.168115,54.2608848 C42.0735005,54.0456061 41.8451071,53.9077967 41.6004277,53.9412758 L39.103224,54.2850209 C38.8073597,54.3258966 38.6002934,54.5991798 38.6410087,54.8958205 C38.6801729,55.1893469 38.9527714,55.3995648 39.2490235,55.3594677 L41.7466149,55.0168904 C42.0428671,54.9756254 42.2491578,54.7023422 42.2088303,54.4057015 C42.2022383,54.3547042 42.1882788,54.3060427 42.168115,54.2608848" id="Fill-248" fill="#F7CAA7"></path>
                    <path d="M41.9649264,56.2876184 C42.813743,55.7795919 46.3470535,53.4469524 45.8309389,50.1111067 C45.6498529,49.2667317 44.752178,49.380405 43.5155968,49.6805494 C42.2786279,49.9814724 41.0098623,51.2704192 41.0098623,51.2704192 L41.7660032,56.2693216 C41.7660032,56.2693216 41.8501481,56.3569124 41.9649264,56.2876184" id="Fill-250" fill="#F7CAA7"></path>
                    <path d="M40.5370998,55.4672627 L41.9493382,55.1873615 L41.9493382,56.2929517 L40.7472681,56.5315879 C40.4537304,56.5899817 40.1691112,56.3953355 40.1128853,56.1045342 C40.0547207,55.8110078 40.2455008,55.5252672 40.5370998,55.4672627" id="Fill-252" fill="#F7CAA7"></path>
                    <path d="M16.0191739,51.4960919 C16.1009922,51.2753632 16.3216303,51.1250963 16.567473,51.1449503 L19.0809628,51.3446572 C19.3783782,51.3680147 19.6001795,51.6296192 19.5769136,51.9282064 C19.5540355,52.2240685 19.2934578,52.4498581 18.9960424,52.4257219 L16.4829403,52.2264043 C16.1855249,52.2022682 15.9633358,51.9414423 15.9869895,51.6424658 C15.9912549,51.5914685 16.0021123,51.5424177 16.0191739,51.4960919" id="Fill-254" fill="#F7CAA7"></path>
                    <path d="M15.893228,52.8533595 C15.9750463,52.6326308 16.194521,52.4839211 16.4395882,52.5022179 L19.2570854,52.7143822 C19.5545009,52.7369611 19.7770777,52.997787 19.7545874,53.2959849 C19.7340358,53.591847 19.4734581,53.8191937 19.1760427,53.7958362 L16.3589332,53.5836719 C16.0615178,53.5610929 15.8385532,53.3010457 15.8606558,53.0024585 C15.8645334,52.9506826 15.8757786,52.9008532 15.893228,52.8533595" id="Fill-256" fill="#F7CAA7"></path>
                    <path d="M15.792797,54.2608848 C15.8874115,54.0456061 16.1158048,53.9077967 16.3604843,53.9412758 L18.857688,54.2850209 C19.1535523,54.3258966 19.3606186,54.5991798 19.3199033,54.8958205 C19.2807391,55.1893469 19.0081406,55.3995648 18.7118885,55.3594677 L16.214297,55.0168904 C15.9180449,54.9756254 15.7117542,54.7023422 15.7520817,54.4057015 C15.7586737,54.3547042 15.7726332,54.3060427 15.792797,54.2608848" id="Fill-258" fill="#F7CAA7"></path>
                    <path d="M15.9959468,56.2876184 C15.1471302,55.7795919 11.6138197,53.4469524 12.1299343,50.1111067 C12.3110203,49.2667317 13.2086952,49.380405 14.4452764,49.6805494 C15.6822453,49.9814724 16.9510109,51.2704192 16.9510109,51.2704192 L16.19487,56.2693216 C16.19487,56.2693216 16.1107251,56.3569124 15.9959468,56.2876184" id="Fill-260" fill="#F7CAA7"></path>
                    <path d="M17.4238122,55.4672627 L16.0115737,55.1873615 L16.0115737,56.2929517 L17.2136438,56.5315879 C17.5071816,56.5899817 17.7918008,56.3953355 17.8480266,56.1045342 C17.9061913,55.8110078 17.7154112,55.5252672 17.4238122,55.4672627" id="Fill-262" fill="#F7CAA7"></path>
                    <path d="M25.2636359,26.8164392 L25.2636359,34.4290502 C25.2636359,36.182812 26.6801397,37.6048968 28.4274068,37.6048968 C30.1738983,37.6048968 31.5900145,36.182812 31.5900145,34.4290502 L31.5900145,26.8164392 L25.2636359,26.8164392 Z" id="Fill-264" fill="#E3C4AC"></path>
                    <path d="M38.2783713,19.0226905 C38.0732438,24.4848508 33.4968466,28.7464337 28.0553467,28.5408873 C22.6153979,28.3349517 18.3705394,23.7405239 18.575279,18.2783636 C18.7804065,12.8165926 23.3568037,8.55500979 28.7975281,8.76016683 C34.2386402,8.96571317 38.4827232,13.5609195 38.2783713,19.0226905" id="Fill-266" fill="#000000"></path>
                    <path d="M34.7661551,6.61166261 C34.6343151,10.1269721 31.6900189,12.8691471 28.1881173,12.7367877 C24.6866034,12.604039 21.9551899,9.64775329 22.0866421,6.1320545 C22.2184821,2.61752359 25.1639416,-0.124651395 28.6646799,0.0077079876 C32.1665816,0.139678078 34.897995,3.09596383 34.7661551,6.61166261" id="Fill-268" fill="#000000"></path>
                    <path d="M38.3866351,21.6725643 C38.3796554,22.7812688 37.4788783,23.6746946 36.3753004,23.6669088 C35.2713347,23.6606801 34.3818029,22.7563541 34.3880071,21.6472603 C34.3957624,20.5393344 35.2969272,19.6462979 36.4001173,19.6529158 C37.5048585,19.6607017 38.3936149,20.5638598 38.3866351,21.6725643" id="Fill-270" fill="#F9D5B9"></path>
                    <path d="M36.1192595,20.1178087 C37.2228374,20.124816 38.1123693,21.0275848 38.1057773,22.1374572 C38.1038384,22.4146333 38.0464493,22.6797413 37.9429162,22.9183775 C38.218229,22.5777468 38.3838044,22.1448537 38.3865188,21.6730315 C38.3942741,20.564327 37.5047422,19.6603902 36.4003888,19.6526044 C35.5736748,19.6471543 34.8594125,20.1477842 34.5515274,20.8656392 C34.9206793,20.405885 35.4856522,20.1139158 36.1192595,20.1178087" id="Fill-272" fill="#E3C4AC"></path>
                    <path d="M18.4669376,21.5465504 C18.4599579,22.6552549 19.3494897,23.558413 20.4534554,23.5661989 C21.5570333,23.5728168 22.4578104,22.6797803 22.4640146,21.5718544 C22.4706066,20.4639285 21.5818502,19.5599918 20.4774968,19.5522059 C19.3746944,19.5448094 18.4727541,20.4394031 18.4669376,21.5465504" id="Fill-274" fill="#F9D5B9"></path>
                    <path d="M20.7543607,20.0200185 C19.648844,20.0130112 18.7488425,20.9052692 18.7406994,22.0143629 C18.7406994,22.2923176 18.7942109,22.5585936 18.8950297,22.7980083 C18.6239823,22.4546525 18.4638355,22.0190345 18.4665499,21.5464336 C18.4727541,20.4385077 19.3746944,19.5450819 20.4774968,19.5528677 C21.3065374,19.5579285 22.0130444,20.0667336 22.3112354,20.7884815 C21.9482877,20.3244451 21.3871924,20.0231328 20.7543607,20.0200185" id="Fill-276" fill="#E3C4AC"></path>
                    <path d="M36.4764294,17.3301255 C36.4810826,16.7403476 36.0413576,16.2533429 35.5046915,16.2502286 L21.4203075,16.1610807 C20.8817026,16.1571877 20.4377122,16.638353 20.43461,17.2289095 L20.3795475,26.012901 C20.380323,26.0588375 20.3845884,26.1090562 20.3865272,26.1565498 C20.3826496,26.2172794 20.3776087,26.2764519 20.3768331,26.3375708 C20.373731,26.9561562 20.6238391,27.5108978 21.02091,27.881504 C21.0220733,27.8826719 21.0232366,27.885397 21.0247877,27.885397 L21.0290531,27.8885113 C21.2012206,28.0469533 21.3970417,28.1695803 21.612251,28.2509424 L26.3771018,31.212289 C26.5857191,31.6518 27.0141989,32.0118954 27.3306148,32.0146204 L29.3962365,32.0274671 C29.7126524,32.0309707 30.1453976,31.6751575 30.3598314,31.2372037 L35.1615198,28.3365867 C35.3778924,28.2591176 35.5764279,28.1372691 35.7497586,27.9819414 L35.7516975,27.9796057 C35.7536363,27.9796057 35.7536363,27.9768806 35.7547996,27.9757128 C36.157687,27.6093887 36.4155504,27.0573722 36.4202036,26.439176 C36.4202036,26.3784464 36.4171014,26.3181061 36.4116727,26.2577658 C36.4155504,26.2094936 36.4213668,26.1604428 36.4221424,26.1148956 L36.4764294,17.3301255 Z" id="Fill-278" fill="#F7CAA7"></path>
                    <path d="M26.3769854,31.2126783 L22.1546173,28.2509424 C21.9394079,28.1699696 21.7428113,28.046564 21.5714194,27.8885113 L21.5679295,27.8857862 C21.5663784,27.8857862 21.5652151,27.8830612 21.5632763,27.8818933 C21.1662054,27.5105085 20.9160973,26.9557669 20.9199749,26.3371815 C20.9199749,26.2768412 20.9250159,26.2168901 20.929669,26.1565498 C20.9277302,26.1086669 20.9226893,26.0592268 20.9219138,26.0125117 L20.9769763,17.2292987 C20.9800784,16.6496425 21.407395,16.1789881 21.9316526,16.164195 L21.4198034,16.1610807 C20.8811985,16.157577 20.4375958,16.6379637 20.4344937,17.2292987 L20.3794312,26.0125117 C20.3802067,26.0592268 20.3844721,26.1086669 20.3864109,26.1565498 C20.3825333,26.2168901 20.3774923,26.2768412 20.3771046,26.3371815 C20.3736147,26.9557669 20.6233351,27.5105085 21.0207937,27.8818933 C21.021957,27.8830612 21.0238958,27.8857862 21.0246714,27.8857862 L21.0293245,27.8885113 C21.2007165,28.046564 21.3969253,28.1699696 21.6121347,28.2509424 L26.3769854,31.2126783 C26.5859905,31.6514107 26.5859905,31.6514107 26.3769854,31.2126783" id="Fill-280" fill="#F9D5B9"></path>
                    <path d="M36.4764294,17.3301255 C36.4795315,16.891393 35.9327835,25.5870152 35.9327835,25.5870152 C35.9327835,25.6325624 35.926967,25.6820025 35.9223139,25.7298855 C35.9273548,25.7902258 35.9308447,25.8501768 35.9308447,25.911685 C35.926967,26.5294919 35.4085258,27.2337216 35.2654407,27.3649131 C35.1227434,27.4953261 34.8904724,27.6343034 34.6725487,27.8087064 C34.4550128,27.98272 30.7859847,30.9125339 30.3598314,31.2372037 L35.1615198,28.3365867 C35.3778924,28.2591176 35.5764279,28.1372691 35.7497586,27.9819414 L35.7516975,27.9796057 C35.7536363,27.9796057 35.7536363,27.9768806 35.7547996,27.9757128 C36.157687,27.6093887 36.4155504,27.0573722 36.4202036,26.439176 C36.4202036,26.3784464 36.4171014,26.3181061 36.4116727,26.2577658 C36.4155504,26.2094936 36.4213668,26.1604428 36.4221424,26.1148956 L36.4764294,17.3301255 Z" id="Fill-282" fill="#E3C4AC"></path>
                    <path d="M25.6489575,22.9063873 C25.8893715,22.9075552 26.1169893,22.9640026 26.3221167,23.0589899 C26.4679162,22.8958764 26.5605919,22.6829335 26.5609797,22.4462438 C26.5656329,21.9343244 26.1546025,21.518171 25.6443043,21.5131102 C25.1324551,21.5107744 24.7167715,21.9226457 24.7140572,22.4345651 C24.7121183,22.6759263 24.8047941,22.8947086 24.9544712,23.0593792 C25.1665784,22.9628347 25.4000126,22.9044409 25.6489575,22.9063873" id="Fill-284" fill="#32135A"></path>
                    <path d="M31.2268342,22.9063873 C31.4672482,22.9075552 31.694866,22.9640026 31.8999934,23.0589899 C32.0465684,22.8958764 32.1388564,22.6829335 32.1388564,22.4462438 C32.1435096,21.9343244 31.7324792,21.518171 31.222181,21.5131102 C30.7103318,21.5107744 30.2946482,21.9226457 30.2919339,22.4345651 C30.289995,22.6759263 30.3826708,22.8947086 30.5323479,23.0593792 C30.7444551,22.9628347 30.9778893,22.9044409 31.2268342,22.9063873" id="Fill-286" fill="#32135A"></path>
                    <path d="M20.2821023,17.8391641 L20.2821023,20.8487829 C20.2821023,20.8487829 30.5722101,20.5501957 31.3492902,13.8578717 C19.7880902,14.9879872 19.7880902,15.3496398 19.7880902,15.3496398" id="Fill-288" fill="#000000"></path>
                    <path d="M36.8907946,18.1973908 L36.8907946,19.6844874 C36.8907946,19.6844874 31.0227537,19.6420546 30.6249073,16.2190074 C33.5149165,14.571133 36.1854509,13.4834503 36.1854509,13.4834503" id="Fill-290" fill="#000000"></path>
                    <path d="M25.7849465,26.3918381 C25.7849465,26.3918381 26.3879204,28.1973758 28.5035638,28.1973758 C30.6188194,28.1973758 31.215589,26.3918381 31.215589,26.3918381 L25.7849465,26.3918381 Z" id="Fill-292" fill="#DEB695"></path>
                    <path d="M26.07767,26.3918381 C26.5623757,27.2330988 27.4654793,27.7991298 28.5027495,27.7991298 C29.5388563,27.7975726 30.4388578,27.2315416 30.9224002,26.3918381 L26.07767,26.3918381 Z" id="Fill-294" fill="#FFFFFF"></path>
                </g>
                <g id="Group-299" transform="translate(127.962301, 65.109138)">
                    <mask id="mask-42" fill="white">
                        <use xlink:href="#path-41"></use>
                    </mask>
                    <g id="Clip-298"></g>
                    <path d="M1.18597787,3.37726644 L1.19256987,0.1223935 C0.86529659,0.121614915 0.588432702,0.407355466 0.542676485,0.791586969 L0.235566963,3.37531998 L1.18597787,3.37726644 Z" id="Fill-297" fill="#F9D5B9" mask="url(#mask-42)"></path>
                </g>
            </g>
        </g>
    </g>
</svg>