<?xml version="1.0" encoding="UTF-8"?>
<svg width="217px" height="290px" viewBox="0 0 217 290" version="1.1" xmlns="http://www.w3.org/2000/svg" xmlns:xlink="http://www.w3.org/1999/xlink">
    <!-- Generator: Sketch 42 (36781) - http://www.bohemiancoding.com/sketch -->
    <title>Page 1</title>
    <desc>Created with Sketch.</desc>
    <defs>
        <polygon id="path-1" points="0.0256180556 289.957758 216.734778 289.957758 216.734778 0.340126667 0.0256180556 0.340126667"></polygon>
    </defs>
    <g id="Homepage" stroke="none" stroke-width="1" fill="none" fill-rule="evenodd">
        <g id="3.4a_Mobile_Accreditations_Complete-for-365" transform="translate(-79.000000, -952.000000)">
            <g id="Page-1" transform="translate(79.000000, 952.000000)">
                <path d="M102.919182,146.666782 C102.919182,146.963984 102.611765,146.963984 102.310376,146.963984 C102.008988,146.963984 101.707599,146.963984 101.707599,146.666782 C101.707599,146.061819 102.008988,146.061819 102.310376,146.061819 C102.611765,146.061819 102.919182,146.061819 102.919182,146.666782 L102.919182,146.666782 Z" id="Fill-1" fill="#DCDCDC"></path>
                <path d="M105.334814,146.666782 C105.334814,146.963984 105.027397,146.963984 104.730529,146.963984 C104.424619,146.963984 104.126244,146.963984 104.126244,146.666782 C104.126244,146.061819 104.424619,146.061819 104.730529,146.061819 C105.027397,146.061819 105.334814,146.061819 105.334814,146.666782" id="Fill-3" fill="#DCDCDC"></path>
                <path d="M108.078206,146.666782 C108.078206,146.963984 107.781338,146.963984 107.473922,146.963984 C107.146915,146.963984 106.850047,146.963984 106.850047,146.666782 C106.850047,146.061819 107.146915,146.061819 107.473922,146.061819 C107.781338,146.061819 108.078206,146.061819 108.078206,146.666782" id="Fill-5" fill="#DCDCDC"></path>
                <path d="M110.800953,146.666782 C110.800953,146.963984 110.493537,146.963984 110.196669,146.963984 C109.890759,146.963984 109.592384,146.963984 109.592384,146.666782 C109.592384,146.061819 109.890759,146.061819 110.196669,146.061819 C110.493537,146.061819 110.800953,146.061819 110.800953,146.666782" id="Fill-7" fill="#DCDCDC"></path>
                <path d="M113.247478,146.666782 C113.247478,146.963984 112.920471,146.963984 112.613054,146.963984 C112.305638,146.963984 112.008769,146.963984 112.008769,146.666782 C112.008769,146.061819 112.305638,146.061819 112.613054,146.061819 C112.920471,146.061819 113.247478,146.061819 113.247478,146.666782" id="Fill-9" fill="#DCDCDC"></path>
                <path d="M115.959978,146.666782 C115.959978,146.963984 115.66311,146.963984 115.355693,146.963984 C115.058825,146.963984 114.751408,146.963984 114.751408,146.666782 C114.751408,146.061819 115.058825,146.061819 115.355693,146.061819 C115.66311,146.061819 115.959978,146.061819 115.959978,146.666782" id="Fill-11" fill="#DCDCDC"></path>
                <mask id="mask-2" fill="white">
                    <use xlink:href="#path-1"></use>
                </mask>
                <g id="Clip-14"></g>
                <polygon id="Fill-13" fill="#32135A" mask="url(#mask-2)" points="21.86275 148.777969 193.666472 148.777969 193.666472 143.935244 21.86275 143.935244"></polygon>
                <path d="M214.022579,156.075399 L214.022579,287.209172 C214.022579,289.049709 212.783871,290.261145 210.972524,290.261145 L5.76737778,290.261145 C4.25741944,290.261145 2.74595417,289.049709 2.74595417,287.209172 L2.74595417,156.075399 C2.74595417,154.559219 4.25741944,153.041529 5.76737778,153.041529 L20.0486903,153.041529 C21.8630514,152.744328 23.3745167,150.930946 23.3745167,148.77812 L23.3745167,147.568193 L192.45519,147.568193 L192.45519,148.77812 C192.45519,150.930946 193.662253,152.744328 195.781017,153.041529 L210.972524,153.041529 C212.783871,153.041529 214.022579,154.559219 214.022579,156.075399" id="Fill-15" fill="#32135A" mask="url(#mask-2)"></path>
                <polygon id="Fill-16" fill="#000000" mask="url(#mask-2)" points="21.86275 149.413106 193.666472 149.413106 193.666472 148.480768 21.86275 148.480768"></polygon>
                <path d="M212.179888,193.419755 C212.179888,192.814791 211.872471,192.511555 211.269693,192.511555 L211.269693,180.662717 C211.872471,180.662717 212.179888,180.354955 212.179888,179.749992 C212.179888,179.146537 211.872471,178.838775 211.269693,178.838775 L211.269693,172.463274 L190.950054,172.463274 C190.950054,171.85831 190.642638,171.552057 190.018763,171.552057 C189.403929,171.552057 189.107061,171.85831 189.107061,172.463274 L177.263985,172.463274 C177.263985,171.85831 176.967117,171.552057 176.364339,171.552057 C175.760054,171.552057 175.452638,171.85831 175.452638,172.463274 L163.62011,172.463274 C163.62011,171.85831 163.312693,171.552057 162.708408,171.552057 C162.104124,171.552057 161.807256,171.85831 161.807256,172.463274 L149.964179,172.463274 C149.964179,171.85831 149.667311,171.552057 149.064533,171.552057 C148.428603,171.552057 148.131735,171.85831 148.131735,172.463274 L136.288658,172.463274 C136.288658,171.85831 135.982749,171.552057 135.378464,171.552057 C134.774179,171.552057 134.477311,171.85831 134.477311,172.463274 L122.941651,172.463274 C122.941651,171.85831 122.337367,171.552057 121.733082,171.552057 C121.128797,171.552057 120.822888,171.85831 120.822888,172.463274 L109.285721,172.463274 C109.285721,171.85831 108.681436,171.552057 108.384568,171.552057 C107.78179,171.552057 107.147367,171.85831 107.147367,172.463274 L95.637325,172.463274 C95.637325,171.85831 95.0059153,171.552057 94.4031375,171.552057 C94.1002417,171.552057 93.4959569,171.85831 93.4959569,172.463274 L81.9602972,172.463274 C81.9602972,171.85831 81.3560125,171.552057 81.0531167,171.552057 C80.4488319,171.552057 79.8430403,171.85831 79.8430403,172.463274 L68.3088875,172.463274 C68.3088875,171.85831 67.7030958,171.552057 67.4017069,171.552057 C66.7974222,171.552057 66.1931375,171.85831 66.1931375,172.463274 L54.6559708,172.463274 C54.6559708,171.85831 54.3545819,171.552057 53.7246792,171.552057 C53.1203944,171.552057 52.5161097,171.85831 52.5161097,172.463274 L40.98045,172.463274 C40.98045,171.85831 40.6775542,171.552057 40.0732694,171.552057 C39.4689847,171.552057 38.8647,171.85831 38.8647,172.463274 L39.1660889,172.463274 L27.3275333,172.463274 C27.3275333,171.85831 27.0261444,171.552057 26.4218597,171.552057 C25.817575,171.552057 25.5146792,171.85831 25.5146792,172.463274 L8.51333194,172.463274 L8.51333194,178.838775 C7.90904722,178.838775 7.60615139,179.146537 7.60615139,179.749992 C7.60615139,180.354955 7.90904722,180.662717 8.51333194,180.662717 L8.51333194,192.511555 C7.90904722,192.511555 7.60615139,192.814791 7.60615139,193.419755 C7.60615139,193.721482 7.90904722,194.024718 8.51333194,194.024718 L8.51333194,205.852435 C7.90904722,205.852435 7.60615139,206.458907 7.60615139,206.784773 C7.60615139,207.391245 7.90904722,207.692972 8.51333194,207.692972 L8.51333194,219.522197 C7.90904722,219.522197 7.60615139,220.127161 7.60615139,220.428888 C7.60615139,221.035361 7.90904722,221.337088 8.51333194,221.337088 L8.51333194,233.190451 C7.90904722,233.190451 7.60615139,233.795415 7.60615139,234.098651 C7.60615139,234.703615 7.90904722,235.006851 8.51333194,235.006851 L8.51333194,245.623132 L26.7247556,245.623132 C26.7247556,246.228095 27.3275333,246.531331 27.933325,246.531331 C28.5376097,246.531331 28.8405056,246.228095 28.8405056,245.623132 L40.98045,245.623132 C40.98045,246.228095 41.2818389,246.531331 41.8876306,246.531331 C42.5160264,246.531331 42.8189222,246.228095 42.8189222,245.623132 L54.9588667,245.623132 C54.9588667,246.228095 55.2617625,246.531331 55.8660472,246.531331 C56.4703319,246.531331 56.7717208,246.228095 56.7717208,245.623132 L136.596075,245.623132 C136.596075,246.228095 136.923082,246.531331 137.527367,246.531331 C138.131651,246.531331 138.428519,246.228095 138.428519,245.623132 L150.568464,245.623132 C150.568464,246.228095 150.875881,246.531331 151.480165,246.531331 C152.082943,246.531331 152.379811,246.228095 152.379811,245.623132 L164.827172,245.623132 C164.827172,246.228095 165.12404,246.531331 165.728325,246.531331 C166.035742,246.531331 166.670165,246.228095 166.670165,245.623132 L178.81011,245.623132 C178.81011,246.228095 179.106978,246.531331 179.711263,246.531331 C180.31404,246.531331 180.621457,246.228095 180.621457,245.623132 L192.761401,245.623132 C192.761401,246.228095 193.365686,246.531331 193.662554,246.531331 C194.266839,246.531331 194.574256,246.228095 194.574256,245.623132 L211.269693,245.623132 L211.269693,235.006851 C211.872471,235.006851 212.179888,234.703615 212.179888,234.098651 C212.179888,233.795415 211.872471,233.190451 211.269693,233.190451 L211.269693,221.337088 C211.872471,221.337088 212.179888,221.035361 212.179888,220.428888 C212.179888,220.127161 211.872471,219.522197 211.269693,219.522197 L211.269693,207.692972 C211.872471,207.692972 212.179888,207.391245 212.179888,206.784773 C212.179888,206.458907 211.872471,205.852435 211.269693,205.852435 L211.269693,194.024718 C211.872471,194.024718 212.179888,193.721482 212.179888,193.419755" id="Fill-17" fill="#000000" mask="url(#mask-2)"></path>
                <path d="M208.249174,162.757757 L8.815625,162.757757 C7.60705556,162.757757 6.699875,161.538778 6.699875,160.328851 L6.699875,158.51396 C6.699875,157.284421 7.60705556,156.373204 8.815625,156.373204 L208.249174,156.373204 C209.457743,156.373204 210.367938,157.284421 210.367938,158.51396 L210.367938,160.328851 C210.367938,161.538778 209.457743,162.757757 208.249174,162.757757" id="Fill-18" fill="#000000" mask="url(#mask-2)"></path>
                <path d="M120.822134,280.551555 L72.866641,280.551555 C71.3295576,280.551555 70.423884,279.315981 70.423884,277.802818 L70.423884,256.568748 C70.423884,255.029938 71.3295576,253.818502 72.866641,253.818502 L120.822134,253.818502 C122.029197,253.818502 123.237766,255.029938 123.237766,256.568748 L123.237766,277.802818 C123.237766,279.315981 122.029197,280.551555 120.822134,280.551555 L120.822134,280.551555 Z M72.866641,254.726702 C71.9609674,254.726702 71.3295576,255.660548 71.3295576,256.568748 L71.3295576,277.802818 C71.3295576,278.711018 71.9609674,279.315981 72.866641,279.315981 L120.822134,279.315981 C121.733835,279.315981 122.336613,278.711018 122.336613,277.802818 L122.336613,256.568748 C122.336613,255.660548 121.733835,254.726702 120.822134,254.726702 L72.866641,254.726702 Z" id="Fill-19" fill="#000000" mask="url(#mask-2)"></path>
                <path d="M88.3325625,190.393277 C88.3325625,191.603204 87.4253819,192.511404 86.2168125,192.511404 L78.635375,192.511404 C77.7281944,192.511404 76.7969028,191.603204 76.7969028,190.393277 L76.7969028,182.804832 C76.7969028,181.564732 77.7281944,180.662567 78.635375,180.662567 L86.2168125,180.662567 C87.4253819,180.662567 88.3325625,181.564732 88.3325625,182.804832 L88.3325625,190.393277 Z M102.00959,182.804832 C102.00959,181.564732 101.076792,180.662567 99.8682222,180.662567 L92.5881736,180.662567 C91.3796042,180.662567 90.4724236,181.564732 90.4724236,182.804832 L90.4724236,190.393277 C90.4724236,191.603204 91.3796042,192.511404 92.5881736,192.511404 L99.8682222,192.511404 C101.076792,192.511404 102.00959,191.603204 102.00959,190.393277 L102.00959,182.804832 Z M115.662507,182.804832 C115.662507,181.564732 114.752312,180.662567 113.85116,180.662567 L106.235062,180.662567 C105.028,180.662567 104.126847,181.564732 104.126847,182.804832 L104.126847,190.393277 C104.126847,191.603204 105.028,192.511404 106.235062,192.511404 L113.85116,192.511404 C114.752312,192.511404 115.662507,191.603204 115.662507,190.393277 L115.662507,182.804832 Z M129.011021,182.804832 C129.011021,181.564732 128.100826,180.662567 127.199674,180.662567 L119.613715,180.662567 C118.376514,180.662567 117.475361,181.564732 117.475361,182.804832 L117.475361,190.393277 C117.475361,191.603204 118.376514,192.511404 119.613715,192.511404 L127.199674,192.511404 C128.100826,192.511404 129.011021,191.603204 129.011021,190.393277 L129.011021,182.804832 Z M142.993958,182.804832 C142.993958,181.564732 142.052118,180.662567 140.843549,180.662567 L133.269646,180.662567 C132.061076,180.662567 131.150882,181.564732 131.150882,182.804832 L131.150882,190.393277 C131.150882,191.603204 132.061076,192.511404 133.269646,192.511404 L140.843549,192.511404 C142.052118,192.511404 142.993958,191.603204 142.993958,190.393277 L142.993958,182.804832 Z M156.637833,182.804832 C156.637833,181.564732 155.738187,180.662567 154.499479,180.662567 L146.913521,180.662567 C146.013875,180.662567 145.102174,181.564732 145.102174,182.804832 L145.102174,190.393277 C145.102174,191.603204 146.013875,192.511404 146.913521,192.511404 L154.499479,192.511404 C155.738187,192.511404 156.637833,191.603204 156.637833,190.393277 L156.637833,182.804832 Z M169.085194,182.804832 C169.085194,181.564732 168.175,180.662567 166.966431,180.662567 L160.896458,180.662567 C159.65775,180.662567 158.758104,181.564732 158.758104,182.804832 L158.758104,190.393277 C158.758104,191.603204 159.65775,192.511404 160.896458,192.511404 L166.966431,192.511404 C168.175,192.511404 169.085194,191.603204 169.085194,190.393277 L169.085194,182.804832 Z M181.522007,182.804832 C181.522007,181.564732 180.622361,180.662567 179.413792,180.662567 L173.036403,180.662567 C172.105111,180.662567 171.194917,181.564732 171.194917,182.804832 L171.194917,190.393277 C171.194917,191.603204 172.105111,192.511404 173.036403,192.511404 L179.413792,192.511404 C180.622361,192.511404 181.522007,191.603204 181.522007,190.393277 L181.522007,182.804832 Z M191.247826,196.144203 C191.247826,194.932767 190.346674,194.026076 189.404833,194.026076 L181.225139,194.026076 C180.018076,194.026076 179.106375,194.932767 179.106375,196.144203 L179.106375,204.037393 C179.106375,204.944084 180.018076,205.852284 181.225139,205.852284 L189.404833,205.852284 C190.346674,205.852284 191.247826,204.944084 191.247826,204.037393 L191.247826,196.144203 Z M177.570799,196.144203 C177.570799,194.932767 176.660604,194.026076 175.452035,194.026076 L167.570715,194.026076 C166.342556,194.026076 165.430854,194.932767 165.430854,196.144203 L165.430854,204.037393 C165.430854,204.944084 166.342556,205.852284 167.570715,205.852284 L175.452035,205.852284 C176.660604,205.852284 177.570799,204.944084 177.570799,204.037393 L177.570799,196.144203 Z M163.619507,196.144203 C163.619507,194.932767 162.709312,194.026076 161.500743,194.026076 L153.29091,194.026076 C152.380715,194.026076 151.479562,194.932767 151.479562,196.144203 L151.479562,204.037393 C151.479562,204.944084 152.380715,205.852284 153.29091,205.852284 L161.500743,205.852284 C162.709312,205.852284 163.619507,204.944084 163.619507,204.037393 L163.619507,196.144203 Z M149.360799,196.144203 C149.360799,194.932767 148.429507,194.026076 147.220937,194.026076 L139.032201,194.026076 C138.131049,194.026076 137.220854,194.932767 137.220854,196.144203 L137.220854,204.037393 C137.220854,204.944084 138.131049,205.852284 139.032201,205.852284 L147.220937,205.852284 C148.429507,205.852284 149.360799,204.944084 149.360799,204.037393 L149.360799,196.144203 Z M135.080993,196.144203 C135.080993,194.932767 134.170799,194.026076 133.269646,194.026076 L125.08091,194.026076 C123.842201,194.026076 122.941049,194.932767 122.941049,196.144203 L122.941049,204.037393 C122.941049,204.944084 123.842201,205.852284 125.08091,205.852284 L133.269646,205.852284 C134.170799,205.852284 135.080993,204.944084 135.080993,204.037393 L135.080993,196.144203 Z M121.129701,196.144203 C121.129701,194.932767 120.218,194.026076 119.316847,194.026076 L111.097972,194.026076 C109.889403,194.026076 108.989757,194.932767 108.989757,196.144203 L108.989757,204.037393 C108.989757,204.944084 109.889403,205.852284 111.097972,205.852284 L119.316847,205.852284 C120.218,205.852284 121.129701,204.944084 121.129701,204.037393 L121.129701,196.144203 Z M107.146764,196.144203 C107.146764,194.932767 106.235063,194.026076 105.028,194.026076 L97.1481875,194.026076 C95.9396181,194.026076 95.0068194,194.932767 95.0068194,196.144203 L95.0068194,204.037393 C95.0068194,204.944084 95.9396181,205.852284 97.1481875,205.852284 L105.028,205.852284 C106.235063,205.852284 107.146764,204.944084 107.146764,204.037393 L107.146764,196.144203 Z M92.8910694,196.144203 C92.8910694,194.932767 91.9853958,194.026076 90.7753194,194.026076 L82.866875,194.026076 C81.6583056,194.026076 80.751125,194.932767 80.751125,196.144203 L80.751125,204.037393 C80.751125,204.944084 81.6583056,205.852284 82.866875,205.852284 L90.7753194,205.852284 C91.9853958,205.852284 92.8910694,204.944084 92.8910694,204.037393 L92.8910694,196.144203 Z M79.2396597,196.144203 C79.2396597,194.932767 78.3324792,194.026076 77.0982917,194.026076 L68.9125694,194.026076 C68.0053889,194.026076 67.0997153,194.932767 67.0997153,196.144203 L67.0997153,204.037393 C67.0997153,204.944084 68.0053889,205.852284 68.9125694,205.852284 L77.0982917,205.852284 C78.3324792,205.852284 79.2396597,204.944084 79.2396597,204.037393 L79.2396597,196.144203 Z M64.9583472,196.144203 C64.9583472,194.932767 64.0511667,194.026076 63.1439861,194.026076 L54.9582639,194.026076 C53.7255833,194.026076 52.8184028,194.932767 52.8184028,196.144203 L52.8184028,204.037393 C52.8184028,204.944084 53.7255833,205.852284 54.9582639,205.852284 L63.1439861,205.852284 C64.0511667,205.852284 64.9583472,204.944084 64.9583472,204.037393 L64.9583472,196.144203 Z M51.0040417,196.144203 C51.0040417,194.932767 50.0968611,194.026076 48.8882917,194.026076 L40.9798472,194.026076 C39.7712778,194.026076 38.8640972,194.932767 38.8640972,196.144203 L38.8640972,204.037393 C38.8640972,204.944084 39.7712778,205.852284 40.9798472,205.852284 L48.8882917,205.852284 C50.0968611,205.852284 51.0040417,204.944084 51.0040417,204.037393 L51.0040417,196.144203 Z M37.0497361,196.144203 C37.0497361,194.932767 36.1440625,194.026076 34.909875,194.026076 L27.0255417,194.026076 C25.8169722,194.026076 24.9097917,194.932767 24.9097917,196.144203 L24.9097917,204.037393 C24.9097917,204.944084 25.8169722,205.852284 27.0255417,205.852284 L34.909875,205.852284 C36.1440625,205.852284 37.0497361,204.944084 37.0497361,204.037393 L37.0497361,196.144203 Z M39.4683819,209.812457 C39.4683819,208.601021 38.5627083,207.692821 37.6555278,207.692821 L29.4441875,207.692821 C28.2356181,207.692821 27.3284375,208.601021 27.3284375,209.812457 L27.3284375,217.705647 C27.3284375,218.613847 28.2356181,219.522047 29.4441875,219.522047 L37.6555278,219.522047 C38.5627083,219.522047 39.4683819,218.613847 39.4683819,217.705647 L39.4683819,209.812457 Z M53.4226875,209.812457 C53.4226875,208.601021 52.5155069,207.692821 51.3069375,207.692821 L43.4226042,207.692821 C42.2140347,207.692821 41.2827431,208.601021 41.2827431,209.812457 L41.2827431,217.705647 C41.2827431,218.613847 42.2140347,219.522047 43.4226042,219.522047 L51.3069375,219.522047 C52.5155069,219.522047 53.4226875,218.613847 53.4226875,217.705647 L53.4226875,209.812457 Z M67.4011042,209.812457 C67.4011042,208.601021 66.4939236,207.692821 65.2597361,207.692821 L57.3769097,207.692821 C56.1683403,207.692821 55.2611597,208.601021 55.2611597,209.812457 L55.2611597,217.705647 C55.2611597,218.613847 56.1683403,219.522047 57.3769097,219.522047 L65.2597361,219.522047 C66.4939236,219.522047 67.4011042,218.613847 67.4011042,217.705647 L67.4011042,209.812457 Z M81.9596944,209.812457 C81.9596944,208.601021 81.0525139,207.692821 79.8439444,207.692821 L71.6582222,207.692821 C70.7269306,207.692821 69.81975,208.601021 69.81975,209.812457 L69.81975,217.705647 C69.81975,218.613847 70.7269306,219.522047 71.6582222,219.522047 L79.8439444,219.522047 C81.0525139,219.522047 81.9596944,218.613847 81.9596944,217.705647 L81.9596944,209.812457 Z M95.6367222,209.812457 C95.6367222,208.601021 94.7039236,207.692821 93.4953542,207.692821 L85.3096319,207.692821 C84.4024514,207.692821 83.4711597,208.601021 83.4711597,209.812457 L83.4711597,217.705647 C83.4711597,218.613847 84.4024514,219.522047 85.3096319,219.522047 L93.4953542,219.522047 C94.7039236,219.522047 95.6367222,218.613847 95.6367222,217.705647 L95.6367222,209.812457 Z M109.889403,209.812457 C109.889403,208.601021 108.989757,207.692821 107.781187,207.692821 L99.8682222,207.692821 C98.6581458,207.692821 97.7524722,208.601021 97.7524722,209.812457 L97.7524722,217.705647 C97.7524722,218.613847 98.6581458,219.522047 99.8682222,219.522047 L107.781187,219.522047 C108.989757,219.522047 109.889403,218.613847 109.889403,217.705647 L109.889403,209.812457 Z M123.545333,209.812457 C123.545333,208.601021 122.633632,207.692821 121.732479,207.692821 L113.543743,207.692821 C112.305035,207.692821 111.405389,208.601021 111.405389,209.812457 L111.405389,217.705647 C111.405389,218.613847 112.305035,219.522047 113.543743,219.522047 L121.732479,219.522047 C122.633632,219.522047 123.545333,218.613847 123.545333,217.705647 L123.545333,209.812457 Z M137.825139,209.812457 C137.825139,208.601021 136.923986,207.692821 135.685278,207.692821 L127.803958,207.692821 C126.595389,207.692821 125.683687,208.601021 125.683687,209.812457 L125.683687,217.705647 C125.683687,218.613847 126.595389,219.522047 127.803958,219.522047 L135.685278,219.522047 C136.923986,219.522047 137.825139,218.613847 137.825139,217.705647 L137.825139,209.812457 Z M152.083847,209.812457 C152.083847,208.601021 151.172146,207.692821 149.965083,207.692821 L141.75525,207.692821 C140.843549,207.692821 139.636486,208.601021 139.636486,209.812457 L139.636486,217.705647 C139.636486,218.613847 140.843549,219.522047 141.75525,219.522047 L149.965083,219.522047 C151.172146,219.522047 152.083847,218.613847 152.083847,217.705647 L152.083847,209.812457 Z M166.035139,209.812457 C166.035139,208.601021 165.124944,207.692821 163.916375,207.692821 L155.738187,207.692821 C154.826486,207.692821 153.895194,208.601021 153.895194,209.812457 L153.895194,217.705647 C153.895194,218.613847 154.826486,219.522047 155.738187,219.522047 L163.916375,219.522047 C165.124944,219.522047 166.035139,218.613847 166.035139,217.705647 L166.035139,209.812457 Z M180.018076,209.812457 C180.018076,208.601021 179.106375,207.692821 177.878215,207.692821 L169.986347,207.692821 C168.777778,207.692821 167.878132,208.601021 167.878132,209.812457 L167.878132,217.705647 C167.878132,218.613847 168.777778,219.522047 169.986347,219.522047 L177.878215,219.522047 C179.106375,219.522047 180.018076,218.613847 180.018076,217.705647 L180.018076,209.812457 Z M213.387854,209.812457 C213.387854,208.601021 212.476153,207.692821 211.26909,207.692821 L183.948188,207.692821 C183.037993,207.692821 182.126292,208.601021 182.126292,209.812457 L182.126292,217.705647 C182.126292,218.613847 183.037993,219.522047 183.948188,219.522047 L211.26909,219.522047 C212.476153,219.522047 213.387854,218.613847 213.387854,217.705647 L213.387854,209.812457 Z M213.387854,223.480711 C213.387854,222.245137 212.476153,221.336937 211.26909,221.336937 L177.264889,221.336937 C176.056319,221.336937 175.155167,222.245137 175.155167,223.480711 L175.155167,231.37541 C175.155167,232.282101 176.056319,233.190301 177.264889,233.190301 L211.26909,233.190301 C212.476153,233.190301 213.387854,232.282101 213.387854,231.37541 L213.387854,223.480711 Z M23.0713194,196.144203 C23.0713194,194.932767 22.1641389,194.026076 21.2584653,194.026076 L6.37286806,194.026076 C5.16279167,194.026076 4.25711806,194.932767 4.25711806,196.144203 L4.25711806,204.037393 C4.25711806,204.944084 5.16279167,205.852284 6.37286806,205.852284 L21.2584653,205.852284 C22.1641389,205.852284 23.0713194,204.944084 23.0713194,204.037393 L23.0713194,196.144203 Z M25.8169722,209.812457 C25.8169722,208.601021 24.9097917,207.692821 23.9785,207.692821 L6.37286806,207.692821 C5.16279167,207.692821 4.25711806,208.601021 4.25711806,209.812457 L4.25711806,217.705647 C4.25711806,218.613847 5.16279167,219.522047 6.37286806,219.522047 L23.9785,219.522047 C24.9097917,219.522047 25.8169722,218.613847 25.8169722,217.705647 L25.8169722,209.812457 Z M211.873375,196.144203 C211.873375,194.932767 213.080437,194.026076 211.873375,194.026076 L195.177937,194.026076 C194.266236,194.026076 193.36659,194.932767 193.36659,196.144203 L193.36659,204.037393 C193.36659,204.944084 194.266236,205.852284 195.177937,205.852284 L211.873375,205.852284 C213.080437,205.852284 211.873375,204.944084 211.873375,204.037393 L211.873375,196.144203 Z M212.179285,182.804832 C212.179285,181.564732 213.387854,180.662567 212.179285,180.662567 L185.483764,180.662567 C184.276701,180.662567 183.334861,181.564732 183.334861,182.804832 L183.334861,190.393277 C183.334861,191.603204 184.276701,192.511404 185.483764,192.511404 L212.179285,192.511404 C213.387854,192.511404 212.179285,191.603204 212.179285,190.393277 L212.179285,182.804832 Z M47.3527153,182.804832 C47.3527153,181.564732 46.4455347,180.662567 45.2354583,180.662567 L37.9569167,180.662567 C36.7483472,180.662567 35.8170556,181.564732 35.8170556,182.804832 L35.8170556,190.393277 C35.8170556,191.603204 36.7483472,192.511404 37.9569167,192.511404 L45.2354583,192.511404 C46.4455347,192.511404 47.3527153,191.603204 47.3527153,190.393277 L47.3527153,182.804832 Z M33.3984097,182.804832 C33.3984097,181.564732 32.4927361,180.662567 31.5855556,180.662567 L23.9785,180.662567 C22.7684236,180.662567 21.86275,181.564732 21.86275,182.804832 L21.86275,190.393277 C21.86275,191.603204 22.7684236,192.511404 23.9785,192.511404 L31.5855556,192.511404 C32.4927361,192.511404 33.3984097,191.603204 33.3984097,190.393277 L33.3984097,182.804832 Z M38.8640972,169.132052 C38.8640972,167.923633 37.9569167,167.010907 37.0497361,167.010907 L29.4441875,167.010907 C28.2356181,167.010907 27.3284375,167.923633 27.3284375,169.132052 L27.3284375,176.726532 C27.3284375,177.936459 28.2356181,178.838624 29.4441875,178.838624 L37.0497361,178.838624 C37.9569167,178.838624 38.8640972,177.936459 38.8640972,176.726532 L38.8640972,169.132052 Z M25.5155833,169.132052 C25.5155833,167.923633 24.6084028,167.010907 23.3742153,167.010907 L5.16279167,167.010907 C3.95422222,167.010907 5.16279167,167.923633 5.16279167,169.132052 L5.16279167,176.726532 C5.16279167,177.936459 3.95422222,178.838624 5.16279167,178.838624 L23.3742153,178.838624 C24.6084028,178.838624 25.5155833,177.936459 25.5155833,176.726532 L25.5155833,169.132052 Z M52.5155069,169.132052 C52.5155069,167.923633 51.6098333,167.010907 50.7026528,167.010907 L43.1197083,167.010907 C41.8870278,167.010907 40.9798472,167.923633 40.9798472,169.132052 L40.9798472,176.726532 C40.9798472,177.936459 41.8870278,178.838624 43.1197083,178.838624 L50.7026528,178.838624 C51.6098333,178.838624 52.5155069,177.936459 52.5155069,176.726532 L52.5155069,169.132052 Z M66.1925347,169.132052 C66.1925347,167.923633 65.2597361,167.010907 64.3540625,167.010907 L56.772625,167.010907 C55.5640556,167.010907 54.656875,167.923633 54.656875,169.132052 L54.656875,176.726532 C54.656875,177.936459 55.5640556,178.838624 56.772625,178.838624 L64.3540625,178.838624 C65.2597361,178.838624 66.1925347,177.936459 66.1925347,176.726532 L66.1925347,169.132052 Z M79.8439444,169.132052 C79.8439444,167.923633 78.9382708,167.010907 77.7281944,167.010907 L70.4240347,167.010907 C69.2154653,167.010907 68.3082847,167.923633 68.3082847,169.132052 L68.3082847,176.726532 C68.3082847,177.936459 69.2154653,178.838624 70.4240347,178.838624 L77.7281944,178.838624 C78.9382708,178.838624 79.8439444,177.936459 79.8439444,176.726532 L79.8439444,169.132052 Z M93.4953542,169.132052 C93.4953542,167.923633 92.5881736,167.010907 91.3796042,167.010907 L84.1010625,167.010907 C82.866875,167.010907 81.9596944,167.923633 81.9596944,169.132052 L81.9596944,176.726532 C81.9596944,177.936459 82.866875,178.838624 84.1010625,178.838624 L91.3796042,178.838624 C92.5881736,178.838624 93.4953542,177.936459 93.4953542,176.726532 L93.4953542,169.132052 Z M107.146764,169.132052 C107.146764,167.923633 106.235062,167.010907 105.028,167.010907 L97.7524722,167.010907 C96.5423958,167.010907 95.6367222,167.923633 95.6367222,169.132052 L95.6367222,176.726532 C95.6367222,177.936459 96.5423958,178.838624 97.7524722,178.838624 L105.028,178.838624 C106.235062,178.838624 107.146764,177.936459 107.146764,176.726532 L107.146764,169.132052 Z M120.822285,169.132052 C120.822285,167.923633 119.921132,167.010907 118.682424,167.010907 L111.405389,167.010907 C110.196819,167.010907 109.286625,167.923633 109.286625,169.132052 L109.286625,176.726532 C109.286625,177.936459 110.196819,178.838624 111.405389,178.838624 L118.682424,178.838624 C119.921132,178.838624 120.822285,177.936459 120.822285,176.726532 L120.822285,169.132052 Z M134.476708,169.132052 C134.476708,167.923633 133.566514,167.010907 132.357944,167.010907 L125.08091,167.010907 C123.842201,167.010907 122.941049,167.923633 122.941049,169.132052 L122.941049,176.726532 C122.941049,177.936459 123.842201,178.838624 125.08091,178.838624 L132.357944,178.838624 C133.566514,178.838624 134.476708,177.936459 134.476708,176.726532 L134.476708,169.132052 Z M148.132639,169.132052 C148.132639,167.923633 147.220938,167.010907 146.013875,167.010907 L138.427917,167.010907 C137.528271,167.010907 136.595472,167.923633 136.595472,169.132052 L136.595472,176.726532 C136.595472,177.936459 137.528271,178.838624 138.427917,178.838624 L146.013875,178.838624 C147.220938,178.838624 148.132639,177.936459 148.132639,176.726532 L148.132639,169.132052 Z M161.80816,169.132052 C161.80816,167.923633 160.896458,167.010907 159.65775,167.010907 L152.083847,167.010907 C151.172146,167.010907 150.270993,167.923633 150.270993,169.132052 L150.270993,176.726532 C150.270993,177.936459 151.172146,178.838624 152.083847,178.838624 L159.65775,178.838624 C160.896458,178.838624 161.80816,177.936459 161.80816,176.726532 L161.80816,169.132052 Z M175.452035,169.132052 C175.452035,167.923633 174.552389,167.010907 173.343819,167.010907 L165.727722,167.010907 C164.828076,167.010907 163.619507,167.923633 163.619507,169.132052 L163.619507,176.726532 C163.619507,177.936459 164.828076,178.838624 165.727722,178.838624 L173.343819,178.838624 C174.552389,178.838624 175.452035,177.936459 175.452035,176.726532 L175.452035,169.132052 Z M189.107965,169.132052 C189.107965,167.923633 188.196264,167.010907 186.989201,167.010907 L179.413792,167.010907 C178.175083,167.010907 177.264889,167.923633 177.264889,169.132052 L177.264889,176.726532 C177.264889,177.936459 178.175083,178.838624 179.413792,178.838624 L186.989201,178.838624 C188.196264,178.838624 189.107965,177.936459 189.107965,176.726532 L189.107965,169.132052 Z M212.783569,169.132052 C212.783569,167.923633 214.022278,167.010907 212.783569,167.010907 L193.059174,167.010907 C191.850604,167.010907 190.949451,167.923633 190.949451,169.132052 L190.949451,176.726532 C190.949451,177.936459 191.850604,178.838624 193.059174,178.838624 L212.783569,178.838624 C214.022278,178.838624 212.783569,177.936459 212.783569,176.726532 L212.783569,169.132052 Z M20.0483889,182.804832 C20.0483889,181.564732 19.1427153,180.662567 17.9070208,180.662567 L7.00126389,180.662567 C5.76858333,180.662567 4.86140278,181.564732 4.86140278,182.804832 L4.86140278,190.393277 C4.86140278,191.603204 5.76858333,192.511404 7.00126389,192.511404 L17.9070208,192.511404 C19.1427153,192.511404 20.0483889,191.603204 20.0483889,190.393277 L20.0483889,182.804832 Z M61.0282361,182.804832 C61.0282361,181.564732 60.1225625,180.662567 58.888375,180.662567 L51.6098333,180.662567 C50.3997569,180.662567 49.4940833,181.564732 49.4940833,182.804832 L49.4940833,190.393277 C49.4940833,191.603204 50.3997569,192.511404 51.6098333,192.511404 L58.888375,192.511404 C60.1225625,192.511404 61.0282361,191.603204 61.0282361,190.393277 L61.0282361,182.804832 Z M74.6811528,182.804832 C74.6811528,181.564732 73.7739722,180.662567 72.5654028,180.662567 L64.9583472,180.662567 C63.7497778,180.662567 62.8425972,181.564732 62.8425972,182.804832 L62.8425972,190.393277 C62.8425972,191.603204 63.7497778,192.511404 64.9583472,192.511404 L72.5654028,192.511404 C73.7739722,192.511404 74.6811528,191.603204 74.6811528,190.393277 L74.6811528,182.804832 Z M173.343819,223.480711 C173.343819,222.245137 172.433625,221.336937 171.500826,221.336937 L163.31209,221.336937 C162.105028,221.336937 161.203875,222.245137 161.203875,223.480711 L161.203875,231.37541 C161.203875,232.282101 162.105028,233.190301 163.31209,233.190301 L171.500826,233.190301 C172.433625,233.190301 173.343819,232.282101 173.343819,231.37541 L173.343819,223.480711 Z M159.360882,223.480711 C159.360882,222.245137 158.450688,221.336937 157.242118,221.336937 L149.063931,221.336937 C147.825222,221.336937 146.913521,222.245137 146.913521,223.480711 L146.913521,231.37541 C146.913521,232.282101 147.825222,233.190301 149.063931,233.190301 L157.242118,233.190301 C158.450688,233.190301 159.360882,232.282101 159.360882,231.37541 L159.360882,223.480711 Z M145.40959,223.480711 C145.40959,222.245137 144.497889,221.336937 143.290826,221.336937 L135.377861,221.336937 C134.170799,221.336937 133.269646,222.245137 133.269646,223.480711 L133.269646,231.37541 C133.269646,232.282101 134.170799,233.190301 135.377861,233.190301 L143.290826,233.190301 C144.497889,233.190301 145.40959,232.282101 145.40959,231.37541 L145.40959,223.480711 Z M131.150882,223.480711 C131.150882,222.245137 130.21959,221.336937 129.307889,221.336937 L121.129701,221.336937 C119.921132,221.336937 118.98984,222.245137 118.98984,223.480711 L118.98984,231.37541 C118.98984,232.282101 119.921132,233.190301 121.129701,233.190301 L129.307889,233.190301 C130.21959,233.190301 131.150882,232.282101 131.150882,231.37541 L131.150882,223.480711 Z M117.167944,223.480711 C117.167944,222.245137 116.266792,221.336937 115.059729,221.336937 L107.146764,221.336937 C105.938194,221.336937 105.028,222.245137 105.028,223.480711 L105.028,231.37541 C105.028,232.282101 105.938194,233.190301 107.146764,233.190301 L115.059729,233.190301 C116.266792,233.190301 117.167944,232.282101 117.167944,231.37541 L117.167944,223.480711 Z M103.216653,223.480711 C103.216653,222.245137 102.310979,221.336937 101.076792,221.336937 L92.8910694,221.336937 C91.9853958,221.336937 91.0782153,222.245137 91.0782153,223.480711 L91.0782153,231.37541 C91.0782153,232.282101 91.9853958,233.190301 92.8910694,233.190301 L101.076792,233.190301 C102.310979,233.190301 103.216653,232.282101 103.216653,231.37541 L103.216653,223.480711 Z M88.9368472,223.480711 C88.9368472,222.245137 88.0296667,221.336937 87.1239931,221.336937 L78.9382708,221.336937 C77.7281944,221.336937 76.7969028,222.245137 76.7969028,223.480711 L76.7969028,231.37541 C76.7969028,232.282101 77.7281944,233.190301 78.9382708,233.190301 L87.1239931,233.190301 C88.0296667,233.190301 88.9368472,232.282101 88.9368472,231.37541 L88.9368472,223.480711 Z M74.9825417,223.480711 C74.9825417,222.245137 74.0768681,221.336937 72.8667917,221.336937 L64.9583472,221.336937 C63.7497778,221.336937 62.8425972,222.245137 62.8425972,223.480711 L62.8425972,231.37541 C62.8425972,232.282101 63.7497778,233.190301 64.9583472,233.190301 L72.8667917,233.190301 C74.0768681,233.190301 74.9825417,232.282101 74.9825417,231.37541 L74.9825417,223.480711 Z M61.0282361,223.480711 C61.0282361,222.245137 60.1225625,221.336937 58.888375,221.336937 L50.7026528,221.336937 C49.4940833,221.336937 48.5869028,222.245137 48.5869028,223.480711 L48.5869028,231.37541 C48.5869028,232.282101 49.4940833,233.190301 50.7026528,233.190301 L58.888375,233.190301 C60.1225625,233.190301 61.0282361,232.282101 61.0282361,231.37541 L61.0282361,223.480711 Z M46.7484306,223.480711 C46.7484306,222.245137 45.84125,221.336937 44.9340694,221.336937 L36.7483472,221.336937 C35.5141597,221.336937 34.6069792,222.245137 34.6069792,223.480711 L34.6069792,231.37541 C34.6069792,232.282101 35.5141597,233.190301 36.7483472,233.190301 L44.9340694,233.190301 C45.84125,233.190301 46.7484306,232.282101 46.7484306,231.37541 L46.7484306,223.480711 Z M33.0970208,223.480711 C33.0970208,222.245137 32.1898403,221.336937 30.9797639,221.336937 L6.37286806,221.336937 C5.16279167,221.336937 4.25711806,222.245137 4.25711806,223.480711 L4.25711806,231.37541 C4.25711806,232.282101 5.16279167,233.190301 6.37286806,233.190301 L30.9797639,233.190301 C32.1898403,233.190301 33.0970208,232.282101 33.0970208,231.37541 L33.0970208,223.480711 Z M26.7241528,237.124827 C26.7241528,235.9149 25.8169722,235.0067 24.9097917,235.0067 L6.37286806,235.0067 C5.16279167,235.0067 4.25711806,235.9149 4.25711806,237.124827 L4.25711806,248.97819 C4.25711806,250.188117 5.16279167,251.096317 6.37286806,251.096317 L24.9097917,251.096317 C25.8169722,251.096317 26.7241528,250.188117 26.7241528,248.97819 L26.7241528,237.124827 Z M40.9798472,237.124827 C40.9798472,235.9149 40.0726667,235.0067 38.8640972,235.0067 L30.9797639,235.0067 C29.7455764,235.0067 28.8399028,235.9149 28.8399028,237.124827 L28.8399028,248.97819 C28.8399028,250.188117 29.7455764,251.096317 30.9797639,251.096317 L38.8640972,251.096317 C40.0726667,251.096317 40.9798472,250.188117 40.9798472,248.97819 L40.9798472,237.124827 Z M54.9582639,237.124827 C54.9582639,235.9149 54.0525903,235.0067 53.1197917,235.0067 L44.9340694,235.0067 C43.7255,235.0067 42.8183194,235.9149 42.8183194,237.124827 L42.8183194,248.97819 C42.8183194,250.188117 43.7255,251.096317 44.9340694,251.096317 L53.1197917,251.096317 C54.0525903,251.096317 54.9582639,250.188117 54.9582639,248.97819 L54.9582639,237.124827 Z M150.567861,237.124827 C150.567861,235.9149 149.668215,235.0067 148.429507,235.0067 L140.546681,235.0067 C139.339618,235.0067 138.427917,235.9149 138.427917,237.124827 L138.427917,248.97819 C138.427917,250.188117 139.339618,251.096317 140.546681,251.096317 L148.429507,251.096317 C149.668215,251.096317 150.567861,250.188117 150.567861,248.97819 L150.567861,237.124827 Z M164.828076,237.124827 C164.828076,235.9149 163.916375,235.0067 162.709312,235.0067 L154.499479,235.0067 C153.587778,235.0067 152.380715,235.9149 152.380715,237.124827 L152.380715,248.97819 C152.380715,250.188117 153.587778,251.096317 154.499479,251.096317 L162.709312,251.096317 C163.916375,251.096317 164.828076,250.188117 164.828076,248.97819 L164.828076,237.124827 Z M178.809507,237.124827 C178.809507,235.9149 177.878215,235.0067 176.660604,235.0067 L168.482417,235.0067 C167.570715,235.0067 166.669562,235.9149 166.669562,237.124827 L166.669562,248.97819 C166.669562,250.188117 167.570715,251.096317 168.482417,251.096317 L176.660604,251.096317 C177.878215,251.096317 178.809507,250.188117 178.809507,248.97819 L178.809507,237.124827 Z M212.783569,237.124827 C212.783569,235.9149 211.873375,235.0067 210.972222,235.0067 L196.713514,235.0067 C195.782222,235.0067 194.870521,235.9149 194.870521,237.124827 L194.870521,248.97819 C194.870521,250.188117 195.782222,251.096317 196.713514,251.096317 L210.972222,251.096317 C211.873375,251.096317 212.783569,250.188117 212.783569,248.97819 L212.783569,237.124827 Z M192.762306,237.124827 C192.762306,235.9149 191.850604,235.0067 190.643542,235.0067 L182.730576,235.0067 C181.522007,235.0067 180.622361,235.9149 180.622361,237.124827 L180.622361,238.033026 C180.622361,239.267092 181.522007,240.175291 182.730576,240.175291 L190.643542,240.175291 C191.850604,240.175291 192.762306,239.267092 192.762306,238.033026 L192.762306,237.124827 Z M192.762306,244.109818 C192.762306,242.89989 191.850604,241.991691 190.643542,241.991691 L182.730576,241.991691 C181.522007,241.991691 180.622361,242.89989 180.622361,244.109818 L180.622361,248.97819 C180.622361,250.188117 181.522007,251.096317 182.730576,251.096317 L190.643542,251.096317 C191.850604,251.096317 192.762306,250.188117 192.762306,248.97819 L192.762306,244.109818 Z M136.595472,237.124827 C136.595472,235.9149 135.685278,235.0067 134.476708,235.0067 L58.888375,235.0067 C57.6798056,235.0067 56.772625,235.9149 56.772625,237.124827 L56.772625,248.97819 C56.772625,250.188117 57.6798056,251.096317 58.888375,251.096317 L134.476708,251.096317 C135.685278,251.096317 136.595472,250.188117 136.595472,248.97819 L136.595472,237.124827 Z" id="Fill-20" fill="#32135A" mask="url(#mask-2)"></path>
                <path d="M206.713899,161.240973 L7.60735694,161.240973 C6.07027361,161.240973 5.16309306,160.031046 5.16309306,158.822628 L5.16309306,157.285326 C5.16309306,155.767637 6.07027361,154.85642 7.60735694,154.85642 L206.713899,154.85642 C207.952607,154.85642 209.159669,155.767637 209.159669,157.285326 L209.159669,158.822628 C209.159669,160.031046 207.952607,161.240973 206.713899,161.240973" id="Fill-21" fill="#32135A" mask="url(#mask-2)"></path>
                <polygon id="Fill-22" fill="#0078D7" mask="url(#mask-2)" points="199.128844 122.981327 199.128844 122.981327 17.6053306 122.981327 17.6053306 12.8040356 199.128844 12.8040356"></polygon>
                <polygon id="Fill-23" fill="#FFFFFF" mask="url(#mask-2)" points="21.86275 117.232363 71.3312153 117.232363 71.3312153 47.4005591 21.86275 47.4005591"></polygon>
                <polygon id="Fill-24" fill="#3D3D3D" mask="url(#mask-2)" points="17.6056319 117.232363 25.2126875 117.232363 25.2126875 47.4005591 17.6056319 47.4005591"></polygon>
                <polygon id="Fill-25" fill="#585858" mask="url(#mask-2)" points="25.2126875 65.6067942 71.3312153 65.6067942 71.3312153 47.3990505 25.2126875 47.3990505"></polygon>
                <path d="M48.2846097,59.5604776 C45.8418528,59.5604776 43.7261028,57.7154142 43.7261028,55.2970685 C43.7261028,52.8787229 45.8418528,51.0336595 48.2846097,51.0336595 C50.7017486,51.0336595 52.5161097,52.8787229 52.5161097,55.2970685 C52.5161097,57.7154142 50.7017486,59.5604776 48.2846097,59.5604776 M48.2846097,51.6687958 C46.1432417,51.6687958 44.6317764,53.1759245 44.6317764,55.2970685 C44.6317764,57.4182126 46.1432417,58.9253413 48.2846097,58.9253413 C50.0974639,58.9253413 51.911825,57.4182126 51.911825,55.2970685 C51.911825,53.1759245 50.0974639,51.6687958 48.2846097,51.6687958" id="Fill-26" fill="#00BCF2" mask="url(#mask-2)"></path>
                <polygon id="Fill-27" fill="#00BCF2" mask="url(#mask-2)" points="25.2126875 106.285691 71.3312153 106.285691 71.3312153 88.0779471 25.2126875 88.0779471"></polygon>
                <polygon id="Fill-28" fill="#D2D2D2" mask="url(#mask-2)" points="25.2126875 77.1584302 71.3312153 77.1584302 71.3312153 76.5534666 25.2126875 76.5534666"></polygon>
                <polygon id="Fill-29" fill="#BBBBBB" mask="url(#mask-2)" points="27.0255417 113.880171 32.794125 113.880171 32.794125 107.801871 27.0255417 107.801871"></polygon>
                <polygon id="Fill-30" fill="#BBBBBB" mask="url(#mask-2)" points="27.0255417 84.1479469 30.678375 84.1479469 30.678375 80.7942461 27.0255417 80.7942461"></polygon>
                <polygon id="Fill-31" fill="#BBBBBB" mask="url(#mask-2)" points="27.0255417 72.5978196 30.678375 72.5978196 30.678375 69.5714931 27.0255417 69.5714931"></polygon>
                <polygon id="Fill-32" fill="#BBBBBB" mask="url(#mask-2)" points="46.4455347 70.1779653 55.5640556 70.1779653 55.5640556 68.361566 46.4455347 68.361566"></polygon>
                <polygon id="Fill-33" fill="#BBBBBB" mask="url(#mask-2)" points="46.4455347 73.498476 68.6111806 73.498476 68.6111806 71.6820767 46.4455347 71.6820767"></polygon>
                <polygon id="Fill-34" fill="#BBBBBB" mask="url(#mask-2)" points="46.4455347 81.6979199 61.0282361 81.6979199 61.0282361 79.8815205 46.4455347 79.8815205"></polygon>
                <polygon id="Fill-35" fill="#BBBBBB" mask="url(#mask-2)" points="46.4455347 85.050112 68.6111806 85.050112 68.6111806 83.2095744 46.4455347 83.2095744"></polygon>
                <polygon id="Fill-36" fill="#BBBBBB" mask="url(#mask-2)" points="34.909875 109.637883 44.0283958 109.637883 44.0283958 107.797345 34.909875 107.797345"></polygon>
                <polygon id="Fill-37" fill="#BBBBBB" mask="url(#mask-2)" points="34.909875 112.967446 68.6096736 112.967446 68.6096736 111.151046 34.909875 111.151046"></polygon>
                <polygon id="Fill-38" fill="#0078D7" mask="url(#mask-2)" points="31.2826597 63.4962106 64.9583472 63.4962106 64.9583472 61.6798113 31.2826597 61.6798113"></polygon>
                <polygon id="Fill-39" fill="#0078D7" mask="url(#mask-2)" points="17.6056319 65.6067942 25.2126875 65.6067942 25.2126875 58.3185674 17.6056319 58.3185674"></polygon>
                <polygon id="Fill-40" fill="#717171" mask="url(#mask-2)" points="18.8398194 54.3840412 23.3742153 54.3840412 23.3742153 51.6609509 18.8398194 51.6609509"></polygon>
                <polygon id="Fill-41" fill="#717171" mask="url(#mask-2)" points="18.8398194 71.992856 23.3742153 71.992856 23.3742153 69.2697656 18.8398194 69.2697656"></polygon>
                <polygon id="Fill-42" fill="#717171" mask="url(#mask-2)" points="18.8398194 79.8845378 23.3742153 79.8845378 23.3742153 77.1614474 18.8398194 77.1614474"></polygon>
                <path d="M76.7964507,60.7698013 L77.0978396,61.0670028 L90.4734785,74.7186619 C98.6592007,82.9075453 112.009222,82.9075453 120.217548,74.7186619 L133.873478,60.7698013 L76.7964507,60.7698013 Z" id="Fill-43" fill="#0060AC" mask="url(#mask-2)"></path>
                <polygon id="Fill-44" fill="#FF8C00" mask="url(#mask-2)" points="146.310291 56.8034429 155.133451 56.8034429 146.310291 52.273005"></polygon>
                <polygon id="Fill-45" fill="#FFB900" mask="url(#mask-2)" points="146.310291 52.2733068 155.133451 52.2733068 146.310291 56.8037446"></polygon>
                <path d="M148.429206,52.2733068 C148.429206,47.7021357 144.805004,44.073863 140.547886,44.073863 L132.35915,44.073863 L132.35915,52.2733068 C132.35915,53.4832339 132.66506,54.6916524 133.269344,55.9015795 L129.615004,60.4621901 L92.8907681,23.7193283 L92.8907681,24.0270903 L92.8907681,42.8337631 C92.8907681,54.6916524 102.310678,63.7932613 113.850858,63.7932613 L126.891956,63.7932613 L109.286324,87.1711052 L109.59374,87.1711052 L124.149317,87.1711052 L127.199372,87.1711052 L127.199372,84.7527596 C127.199372,76.8610778 132.961928,70.1778144 140.547886,68.6616339 L140.547886,60.4621901 C145.101872,60.1649886 148.429206,56.8037446 148.429206,52.2733068" id="Fill-46" fill="#00BCF2" mask="url(#mask-2)"></path>
                <path d="M92.8907681,103.559432 L100.472206,103.559432 C105.335115,103.559432 108.989456,99.6037853 108.989456,95.062787 L108.989456,87.1711052 L92.8907681,103.559432 Z" id="Fill-47" fill="#00BCF2" mask="url(#mask-2)"></path>
                <path d="M140.547283,70.7830797 L140.547283,68.6619357 C132.962832,70.1781162 127.198769,76.8613795 127.198769,84.7530613 L127.198769,87.1714069 C134.774179,85.6537178 140.547283,78.9719631 140.547283,70.7830797" id="Fill-48" fill="#FFFFFF" mask="url(#mask-2)"></path>
                <path d="M145.102324,51.9658465 C145.102324,52.5708101 144.49804,53.1757736 143.893755,53.1757736 C143.290977,53.1757736 142.994109,52.5708101 142.994109,51.9658465 C142.994109,51.3608829 143.290977,50.7257466 143.893755,50.7257466 C144.49804,50.7257466 145.102324,51.3608829 145.102324,51.9658465" id="Fill-49" fill="#FFFFFF" mask="url(#mask-2)"></path>
                <path d="M143.894508,50.7257466 C143.290224,50.7257466 142.993356,51.3608829 142.993356,51.9658465 C142.993356,52.5708101 143.290224,53.1757736 143.894508,53.1757736 C144.498793,53.1757736 145.103078,52.5708101 145.103078,51.9658465 C145.103078,51.3608829 144.498793,50.7257466 143.894508,50.7257466" id="Fill-50" fill="#FFFFFF" mask="url(#mask-2)"></path>
                <polygon id="Fill-51" fill="#000000" mask="url(#mask-2)" points="17.6056319 123.586744 199.133667 123.586744 199.133667 115.995281 17.6056319 115.995281"></polygon>
                <polygon id="Fill-52" fill="#E9E9E9" mask="url(#mask-2)" points="25.2126875 123.586744 71.3312153 123.586744 71.3312153 115.995281 25.2126875 115.995281"></polygon>
                <path d="M89.2395924,119.957867 C89.2395924,120.860032 88.3324118,121.771249 87.4252313,121.771249 C86.2166618,121.771249 85.3094813,120.860032 85.3094813,119.957867 C85.3094813,118.74794 86.2166618,117.836723 87.4252313,117.836723 C88.3324118,117.836723 89.2395924,118.74794 89.2395924,119.957867" id="Fill-53" fill="#0078D7" mask="url(#mask-2)"></path>
                <path d="M79.5418021,119.957867 C79.5418021,120.860032 78.6346215,121.771249 77.401941,121.771249 C76.1918646,121.771249 75.286191,120.860032 75.286191,119.957867 C75.286191,118.74794 76.1918646,117.836723 77.401941,117.836723 C78.6346215,117.836723 79.5418021,118.74794 79.5418021,119.957867" id="Fill-54" fill="#585858" mask="url(#mask-2)"></path>
                <polygon id="Fill-55" fill="#FFB900" mask="url(#mask-2)" points="94.7039236 121.771853 99.5653264 121.771853 99.5653264 117.837327 94.7039236 117.837327"></polygon>
                <polygon id="Fill-56" fill="#FFFFFF" mask="url(#mask-2)" points="104.731132 121.771853 109.289639 121.771853 109.289639 117.837327 104.731132 117.837327"></polygon>
                <polygon id="Fill-57" fill="#FFFFFF" mask="url(#mask-2)" points="23.3739139 117.539069 19.1424139 118.441234 19.1424139 121.475104 23.3739139 122.080067"></polygon>
                <path d="M215.834228,132.082484 C215.834228,133.630346 214.319749,135.137474 212.784172,135.137474 L3.954825,135.137474 C2.44335972,135.137474 0.931894444,133.630346 0.931894444,132.082484 L0.931894444,4.90284937 C0.931894444,3.08795867 2.44335972,1.85841926 3.954825,1.85841926 L212.784172,1.85841926 C214.319749,1.85841926 215.834228,3.08795867 215.834228,4.90284937 L215.834228,132.082484 Z M17.6047278,122.982383 L199.128242,122.982383 L199.128242,12.8050916 L17.6047278,12.8050916 L17.6047278,122.982383 Z" id="Fill-58" fill="#000000" mask="url(#mask-2)"></path>
                <polygon id="Fill-59" fill="#BBBBBB" mask="url(#mask-2)" points="210.972072 64.3979232 202.783335 65.9156123 202.783335 71.3874398 210.972072 72.597367"></polygon>
                <polygon id="Fill-60" fill="#C9C9C9" mask="url(#mask-2)" points="210.972072 64.3979232 202.783335 65.9156123 202.783335 71.3874398 210.972072 72.597367"></polygon>
                <path d="M212.783871,136.048842 L3.95452361,136.048842 C1.83877361,136.048842 0.000301388889,134.23546 0.000301388889,132.082635 L0.000301388889,4.90300023 C0.000301388889,2.79090799 1.83877361,0.648642998 3.95452361,0.648642998 L212.783871,0.648642998 C214.923732,0.648642998 216.735079,2.79090799 216.735079,4.90300023 L216.735079,132.082635 C216.735079,134.23546 214.923732,136.048842 212.783871,136.048842 L212.783871,136.048842 Z M3.95452361,2.79090799 C3.04734306,2.79090799 2.14166944,3.6930731 2.14166944,4.90300023 L2.14166944,132.082635 C2.14166944,133.014972 3.04734306,133.927698 3.95452361,133.927698 L212.783871,133.927698 C213.695572,133.927698 214.626864,133.014972 214.626864,132.082635 L214.626864,4.90300023 C214.626864,3.6930731 213.695572,2.79090799 212.783871,2.79090799 L3.95452361,2.79090799 Z" id="Fill-61" fill="#A2A2A2" mask="url(#mask-2)"></path>
                <path d="M210.972072,72.5972161 L202.783335,71.387289 L202.783335,65.9154614 L210.972072,64.3977723 L210.972072,72.5972161 Z M212.783419,2.79105885 L88.029516,2.79105885 L98.0552174,12.8038847 L199.128995,12.8038847 L199.128995,113.573314 L214.626412,129.059476 L214.626412,4.90164246 C214.626412,3.69322397 213.69512,2.79105885 212.783419,2.79105885 L212.783419,2.79105885 Z" id="Fill-62" fill="#424242" mask="url(#mask-2)"></path>
                <path d="M212.783871,0.649095589 L85.9142181,0.649095589 L88.0299681,2.79136058 L212.783871,2.79136058 C213.695572,2.79136058 214.626864,3.69352569 214.626864,4.90194418 L214.626864,129.059778 L216.735079,131.180922 L216.735079,4.90194418 C216.735079,2.79136058 214.923732,0.649095589 212.783871,0.649095589" id="Fill-63" fill="#B6B6B6" mask="url(#mask-2)"></path>
                <path d="M199.128844,12.8044882 L98.0550667,12.8044882 L132.35915,47.097323 L132.35915,44.0740138 L140.547886,44.0740138 C144.805004,44.0740138 148.429206,47.7022866 148.429206,52.2734576 L155.133601,52.2734576 L150.569067,54.3840412 L155.133601,56.8038955 L147.220636,56.8038955 C146.617858,57.7151124 145.706157,58.627838 144.499094,59.2328016 L199.128844,113.572409 L199.128844,12.8044882 Z" id="Fill-64" fill="#3393DF" mask="url(#mask-2)"></path>
                <path d="M150.568464,54.3846447 L147.518408,55.9023338 C147.518408,56.1980268 147.22154,56.5057888 147.22154,56.8029903 L155.134506,56.8029903 L150.568464,54.3846447 Z" id="Fill-65" fill="#FFA333" mask="url(#mask-2)"></path>
                <path d="M155.133752,52.2733068 L148.429356,52.2733068 C148.429356,53.7804355 148.132488,54.9888539 147.517655,55.9015795 L150.56771,54.385399 L155.133752,52.2733068 Z" id="Fill-66" fill="#FFC733" mask="url(#mask-2)"></path>
                <path d="M143.894508,53.175321 C143.290224,53.175321 142.993356,52.5703575 142.993356,51.9653939 C142.993356,51.361939 143.290224,50.725294 143.894508,50.725294 C144.498793,50.725294 145.103078,51.361939 145.103078,51.9653939 C145.103078,52.5703575 144.498793,53.175321 143.894508,53.175321 M140.547585,44.0737121 L132.358849,44.0737121 L132.358849,47.0970213 L144.498793,59.2324998 C145.705856,58.6275363 146.617557,57.7163193 147.221842,56.8035938 C147.221842,56.5063922 147.51871,56.1986302 147.51871,55.9014287 C148.132036,54.9887031 148.428904,53.7802846 148.428904,52.2731559 C148.428904,47.7019848 144.80621,44.0737121 140.547585,44.0737121" id="Fill-67" fill="#33C9F6" mask="url(#mask-2)"></path>
            </g>
        </g>
    </g>
</svg>