<?xml version="1.0" encoding="UTF-8"?>
<svg width="171px" height="201px" viewBox="0 0 171 201" version="1.1" xmlns="http://www.w3.org/2000/svg" xmlns:xlink="http://www.w3.org/1999/xlink">
    <!-- Generator: Sketch 42 (36781) - http://www.bohemiancoding.com/sketch -->
    <title>Page 1</title>
    <desc>Created with Sketch.</desc>
    <defs>
        <polygon id="path-1" points="0 200.236016 170.145 200.236016 170.145 0.598038235 0 0.598038235"></polygon>
    </defs>
    <g id="Homepage" stroke="none" stroke-width="1" fill="none" fill-rule="evenodd">
        <g id="3.4b_Desktop_Accreditations_New-content" transform="translate(-508.000000, -740.000000)">
            <g id="Page-1" transform="translate(508.000000, 740.000000)">
                <polygon id="Fill-1" fill="#FFCB40" points="7.55071875 191.354691 160.804125 191.354691 160.804125 8.99574605 7.55071875 8.99574605"></polygon>
                <polygon id="Fill-2" fill="#FF8C00" points="12.9879844 19.2184621 155.815734 19.2184621 155.815734 16.7595638 12.9879844 16.7595638"></polygon>
                <polygon id="Fill-3" fill="#FF8C00" points="12.9879844 26.3682228 155.815734 26.3682228 155.815734 23.9119943 12.9879844 23.9119943"></polygon>
                <polygon id="Fill-4" fill="#FF8C00" points="12.9879844 33.5179835 155.815734 33.5179835 155.815734 31.061755 12.9879844 31.061755"></polygon>
                <polygon id="Fill-5" fill="#FF8C00" points="12.9879844 40.6650743 155.815734 40.6650743 155.815734 38.2088459 12.9879844 38.2088459"></polygon>
                <polygon id="Fill-6" fill="#FF8C00" points="12.9879844 47.814835 155.815734 47.814835 155.815734 45.3586066 12.9879844 45.3586066"></polygon>
                <polygon id="Fill-7" fill="#FF8C00" points="12.9879844 54.9645957 155.815734 54.9645957 155.815734 52.5083672 12.9879844 52.5083672"></polygon>
                <polygon id="Fill-8" fill="#FF8C00" points="12.9879844 62.1116866 155.815734 62.1116866 155.815734 59.6554581 12.9879844 59.6554581"></polygon>
                <polygon id="Fill-9" fill="#FF8C00" points="12.9879844 69.2614473 155.815734 69.2614473 155.815734 66.8052188 12.9879844 66.8052188"></polygon>
                <polygon id="Fill-10" fill="#FF8C00" points="12.9879844 76.4085381 155.815734 76.4085381 155.815734 73.9523097 12.9879844 73.9523097"></polygon>
                <polygon id="Fill-11" fill="#FF8C00" points="12.9879844 83.5582988 155.815734 83.5582988 155.815734 81.1020703 12.9879844 81.1020703"></polygon>
                <polygon id="Fill-12" fill="#FF8C00" points="12.9879844 90.7080595 155.815734 90.7080595 155.815734 88.251831 12.9879844 88.251831"></polygon>
                <polygon id="Fill-13" fill="#FF8C00" points="12.9879844 97.8551503 155.815734 97.8551503 155.815734 95.3989219 12.9879844 95.3989219"></polygon>
                <polygon id="Fill-14" fill="#FF8C00" points="12.9879844 105.004911 155.815734 105.004911 155.815734 102.548683 12.9879844 102.548683"></polygon>
                <polygon id="Fill-15" fill="#FF8C00" points="12.9879844 112.152002 155.815734 112.152002 155.815734 109.695773 12.9879844 109.695773"></polygon>
                <polygon id="Fill-16" fill="#FF8C00" points="12.9879844 119.301763 155.815734 119.301763 155.815734 116.845534 12.9879844 116.845534"></polygon>
                <polygon id="Fill-17" fill="#FF8C00" points="12.9879844 126.451523 155.815734 126.451523 155.815734 123.995295 12.9879844 123.995295"></polygon>
                <polygon id="Fill-18" fill="#FF8C00" points="12.9879844 134.212671 155.813063 134.212671 155.813063 130.528329 12.9879844 130.528329"></polygon>
                <path d="M15.8575781,186.530338 L152.948813,186.530338 L152.948813,13.8734954 L15.8575781,13.8734954 L15.8575781,186.530338 Z M6.02507812,196.355251 L162.778641,196.355251 L162.778641,4.04858154 L6.02507812,4.04858154 L6.02507812,196.355251 Z" id="Fill-19" fill="#FF8C00"></path>
                <polygon id="Fill-20" fill="#FF8C00" points="10.9413281 103.269532 157.865062 103.269532 157.865062 97.1289611 10.9413281 97.1289611"></polygon>
                <g id="Group-28" transform="translate(0.000000, 0.260116)">
                    <path d="M141.251344,156.832323 C140.572687,156.832323 140.022281,156.282342 140.022281,155.604209 L140.022281,12.0296459 C140.022281,11.3515132 140.572687,10.8015316 141.251344,10.8015316 C141.93,10.8015316 142.480406,11.3515132 142.480406,12.0296459 L142.480406,155.604209 C142.480406,156.282342 141.93,156.832323 141.251344,156.832323 L141.251344,156.832323 Z" id="Fill-21" fill="#FF8C00"></path>
                    <mask id="mask-2" fill="white">
                        <use xlink:href="#path-1"></use>
                    </mask>
                    <g id="Clip-24"></g>
                    <polygon id="Fill-23" fill="#FF8C00" mask="url(#mask-2)" points="0 200.236016 170.145 200.236016 170.145 186.486476 0 186.486476"></polygon>
                    <polygon id="Fill-25" fill="#F08400" mask="url(#mask-2)" points="0 200.236016 170.145 200.236016 170.145 186.486476 0 186.486476"></polygon>
                    <polygon id="Fill-26" fill="#FF8C00" mask="url(#mask-2)" points="1.42410937 14.347578 168.720891 14.347578 168.720891 0.598038235 1.42410937 0.598038235"></polygon>
                    <polygon id="Fill-27" fill="#F08400" mask="url(#mask-2)" points="1.42410937 14.347578 168.720891 14.347578 168.720891 0.598038235 1.42410937 0.598038235"></polygon>
                </g>
            </g>
        </g>
    </g>
</svg>