<svg width="375" height="454" viewBox="0 0 375 454" xmlns="http://www.w3.org/2000/svg" xmlns:xlink="http://www.w3.org/1999/xlink"><defs><path id="a" d="M0 454h375V0H0z"/><path id="c" d="M64.073.603H.07v183.82h64.003V.602z"/><path id="e" d="M0 197.397h300.524V1.144H0z"/></defs><g fill="none" fill-rule="evenodd"><mask id="b" fill="#fff"><use xlink:href="#a"/></mask><use fill="#008272" xlink:href="#a"/><path fill="#007365" mask="url(#b)" d="M0 454h375V354H0"/><path fill="#40A195" mask="url(#b)" d="M224.32-33h-79.79L-34.45 354h455.71"/><g mask="url(#b)"><path d="M389.707 202.097h-39.643c-1.152 0-2.195-.698-2.652-1.778l-18.035-42.524 5.302-2.34 17.283 40.744h37.744v5.897z" fill="#FFF"/><path d="M271.933 172.418c.52 1.067 1.804 1.506 2.85.975l3.682-1.87c1.046-.534 1.475-1.842.956-2.91l-4.7-9.63c-.52-1.067-1.803-1.506-2.85-.973l-3.68 1.87c-1.048.532-1.477 1.842-.957 2.91l4.7 9.628z" fill="#004B50"/><path d="M332.445 171.515c7.495 0 13.573-6.203 13.573-13.852 0-7.65-6.078-13.852-13.573-13.852-7.497 0-13.574 6.202-13.574 13.853 0 7.65 6.078 13.852 13.575 13.852zM278.08 172.336c.85 1.74 2.942 2.457 4.648 1.59l6.005-3.05c1.706-.868 2.408-3.005 1.558-4.745l-7.665-15.703c-.848-1.74-2.94-2.457-4.648-1.59l-6.004 3.05c-1.706.87-2.407 3.003-1.558 4.746l7.665 15.703z" fill="#FFF"/><path d="M363.083 141.724c4.745-2.412 6.693-8.346 4.33-13.188l-8.83-18.093c-2.36-4.84-8.178-6.828-12.922-4.418l-65.708 33.394c-4.744 2.41-6.693 8.345-4.33 13.188l8.83 18.09c2.362 4.843 8.178 6.832 12.922 4.42l65.71-33.394zM343.55 198.534c0 3.644 2.892 6.597 6.46 6.597 3.573 0 6.466-2.952 6.466-6.596s-2.893-6.597-6.465-6.597c-3.568 0-6.46 2.953-6.46 6.597" fill="#004B50"/><path d="M347.35 198.248c0 1.342 1.066 2.43 2.382 2.43 1.315 0 2.38-1.088 2.38-2.43s-1.065-2.43-2.38-2.43c-1.316 0-2.38 1.088-2.38 2.43" fill="#FFF"/></g><g transform="translate(35.433 211)" mask="url(#b)"><g transform="translate(236.45 .542)"><mask id="d" fill="#fff"><use xlink:href="#c"/></mask><path d="M52.548.602H.07c6.29 0 11.435 5.225 11.435 11.615v160.516c0 6.388-5.146 11.613-11.434 11.613l32.385.076c6.29 0 31.618-30.635 31.618-37.06l-.09-135.145c0-6.39-5.146-11.615-11.435-11.615" fill="#003D41" mask="url(#d)"/></g><path d="M277.042 173.625c0 6.388-5.147 11.616-11.436 11.616H145.96c-6.29 0-11.435-5.227-11.435-11.615V12.758c0-6.388 5.146-11.613 11.434-11.613h119.646c6.29 0 11.436 5.225 11.436 11.613v160.867z" fill="#004B50"/><path d="M262.462 166.134c0 1.837-1.48 3.342-3.29 3.342h-106.46c-1.812 0-3.292-1.505-3.292-3.342v-145.2c0-1.836 1.48-3.34 3.29-3.34h106.462c1.81 0 3.29 1.504 3.29 3.34v145.2z" fill="#008272"/><mask id="f" fill="#fff"><use xlink:href="#e"/></mask><path fill="#003D41" mask="url(#f)" d="M133.537 66.91H149.7V48.618h-16.163M133.968 133.705h16.162V115.41h-16.162"/><g mask="url(#f)"><path d="M193.26 18.204v120.072" fill="#003D41"/><path d="M193.26 18.204v120.072" stroke="#000" stroke-width=".75"/></g><path fill="#003D41" mask="url(#f)" d="M148.854 75.374h113.633V60.616h-69.384"/><path d="M152.71 169.476l40.55-31.202" stroke="#000" stroke-width=".75" mask="url(#f)"/><path fill="#004B50" mask="url(#f)" d="M148.892 81.483h113.583v-6.11H148.892"/><path d="M193.21 137.535h68.628M149.44 124.066h113.634v-14.758H193.69" fill="#003D41" mask="url(#f)"/><path fill="#004B50" mask="url(#f)" d="M149.48 130.175H263.06v-6.11H149.48"/><path d="M193.26 138.275h68.578" stroke="#000" mask="url(#f)"/><path d="M.104 184.256V30.142s-2.35-20.31 15.29-20.31h108.21s11.386-1.823 10.586 15.53v145.752s.8 9.374-16.468 11.946L20.1 197.397s-18.82 0-19.996-13.14" fill="#003D41" mask="url(#f)"/><path fill="#004B50" mask="url(#f)" d="M17.973 28.176V175.61l101.84-13.08-.49-134.46"/><path fill="#003D41" mask="url(#f)" d="M26.73 36.777V167.26l86.786-11.576-.417-119"/><path d="M27.328 36.777l-8.758-8.602M113.1 36.683l6.223-8.613M113.516 155.684l6.297 6.846M26.73 167.26l-8.758 8.35" stroke="#000" stroke-width=".5" mask="url(#f)"/></g><ellipse fill="#004B50" mask="url(#b)" cx="107.776" cy="312.5" rx="16.24" ry="26.5"/><g mask="url(#b)"><path d="M214.516 323.03c-60.95 0-210.686-10.917-259.535-35.212l8.09-16.77c60.748 30.217 214.924 33.31 251.446 33.31 76.25 0 220.17-18.837 249.264-33.307l8.087 16.77c-48.846 24.293-196.407 35.21-257.35 35.21" fill="#FFF100"/><path d="M468.287 280.394c-41.306 20.974-193.06 33.402-253.864 33.402-60.735 0-214.6-12.4-255.894-33.332l-3.148 6.526-.4.83c48.848 24.295 198.585 35.21 259.534 35.21 60.944 0 208.505-10.915 257.353-35.21l-.38-.785-3.203-6.64" fill="#D6CA00"/></g></g></svg>