<svg width="1400" height="567" viewBox="0 0 1400 567" xmlns="http://www.w3.org/2000/svg" xmlns:xlink="http://www.w3.org/1999/xlink"><defs><path id="a" d="M86.16.798H.096v243.236H86.16V.798z"/><path id="c" d="M0 261.202h404.117V1.514H0z"/></defs><g fill="none" fill-rule="evenodd"><path fill="#008272" d="M0 567h1401V0H0"/><path fill="#007365" d="M0 567h1401V404H0"/><path fill="#40A195" d="M810.76 0H586.24L300.523 404h795.956"/><g transform="translate(485 213)"><g transform="translate(317.957 .717)"><mask id="b" fill="#fff"><use xlink:href="#a"/></mask><path d="M70.662.797H.096C8.55.797 15.47 7.71 15.47 16.167v212.4c0 8.452-6.92 15.366-15.374 15.366l43.546.1c8.458 0 42.518-40.537 42.518-49.038l-.12-178.828C86.04 7.71 79.12.797 70.66.797" fill="#003D41" mask="url(#b)"/></g><path d="M372.54 229.747c0 8.453-6.92 15.37-15.378 15.37h-160.89c-8.455 0-15.375-6.917-15.375-15.37V16.882c0-8.453 6.92-15.367 15.375-15.367h160.89c8.457 0 15.378 6.914 15.378 15.367v212.865z" fill="#004B50"/><path d="M352.935 219.834c0 2.43-1.993 4.422-4.425 4.422H205.35c-2.434 0-4.424-1.99-4.424-4.422V27.702c0-2.43 1.99-4.423 4.425-4.423h143.16c2.432 0 4.425 1.99 4.425 4.422v192.132z" fill="#008272"/><mask id="d" fill="#fff"><use xlink:href="#c"/></mask><path fill="#003D41" mask="url(#d)" d="M179.568 88.54h21.735V64.33h-21.735M180.147 176.923h21.734v-24.207h-21.733"/><g mask="url(#d)"><path d="M259.88 24.09v158.88" fill="#003D41"/><path d="M259.88 24.09v158.88" stroke="#000" stroke-width=".75"/></g><path fill="#003D41" mask="url(#d)" d="M200.164 99.737h152.804v-19.53h-93.3"/><path d="M205.35 224.256l54.528-41.287" stroke="#000" stroke-width=".75" mask="url(#d)"/><path fill="#004B50" mask="url(#d)" d="M200.216 107.82H352.95v-8.083H200.217"/><path d="M259.81 181.99h92.285M200.954 164.168h152.803V144.64h-93.3" fill="#003D41" mask="url(#d)"/><path fill="#004B50" mask="url(#d)" d="M201.006 172.252H353.74v-8.084H201.007"/><path d="M259.88 182.97h92.215" stroke="#000" mask="url(#d)"/><path d="M.14 243.813V39.883S-3.022 13.01 20.702 13.01H166.21s15.312-2.412 14.236 20.55v192.864s1.076 12.403-22.145 15.807L27.03 261.203s-25.308 0-26.89-17.39" fill="#003D41" mask="url(#d)"/><path fill="#004B50" mask="url(#d)" d="M24.168 37.284v195.088l136.946-17.306-.66-177.923"/><path fill="#003D41" mask="url(#d)" d="M35.945 48.664v172.66l116.7-15.318-.56-157.465"/><path d="M36.75 48.664L24.97 37.282M152.085 48.54l8.37-11.397M152.646 206.006l8.467 9.06M35.945 221.323l-11.778 11.05" stroke="#000" stroke-width=".5" mask="url(#d)"/></g><g><path d="M1332.69 194.09h-52.122c-1.515 0-2.886-.9-3.487-2.29l-23.712-54.784 6.97-3.016 22.726 52.492h49.626v7.597z" fill="#FFF"/><path d="M1177.838 155.854c.684 1.374 2.372 1.94 3.748 1.256l4.84-2.41c1.375-.687 1.94-2.372 1.257-3.748l-6.18-12.406c-.684-1.374-2.37-1.94-3.748-1.254l-4.84 2.41c-1.377.685-1.94 2.372-1.256 3.748l6.178 12.404z" fill="#004B50"/><path d="M1257.4 154.69c9.856 0 17.847-7.99 17.847-17.845 0-9.856-7.99-17.845-17.847-17.845-9.857 0-17.846 7.99-17.846 17.845 0 9.854 7.99 17.845 17.846 17.845z" fill="#FFF"/><path d="M1315.368 197.3c0 2.506 2.05 4.558 4.558 4.558h8.817c2.506 0 4.56-2.052 4.56-4.558v-14.742c0-2.508-2.054-4.558-4.56-4.558h-8.817c-2.508 0-4.558 2.05-4.558 4.558V197.3z" fill="#000"/><path d="M1185.92 155.75c1.117 2.24 3.868 3.164 6.11 2.047l7.897-3.93c2.243-1.118 3.166-3.87 2.048-6.113l-10.08-20.23c-1.114-2.244-3.865-3.166-6.11-2.05l-7.894 3.93c-2.242 1.12-3.165 3.87-2.047 6.114l10.077 20.23z" fill="#FFF"/><path d="M1297.685 116.31c6.238-3.107 8.8-10.75 5.692-16.988l-11.61-23.31c-3.104-6.237-10.752-8.796-16.99-5.69l-86.395 43.02c-6.238 3.107-8.8 10.752-5.693 16.99l11.608 23.306c3.106 6.24 10.753 8.8 16.99 5.694l86.397-43.02zM1272 189.5c0 4.694 3.804 8.497 8.497 8.497 4.696 0 8.5-3.803 8.5-8.498 0-4.696-3.804-8.5-8.5-8.5-4.693 0-8.497 3.804-8.497 8.5" fill="#004B50"/><path d="M1277 189.13c0 1.73 1.4 3.13 3.13 3.13s3.128-1.4 3.128-3.13-1.4-3.13-3.128-3.13c-1.73 0-3.13 1.4-3.13 3.13" fill="#FFF"/><path d="M1346.607 169h-17.68c-2.505 0-4.56 2.05-4.56 4.558v33.72c0 2.505 2.055 4.557 4.56 4.557h17.68V169z" fill="#004B50"/><path d="M1329 197.3c0 2.506 2.05 4.558 4.56 4.558h8.815c2.507 0 4.56-2.052 4.56-4.558v-14.742c0-2.508-2.053-4.558-4.56-4.558h-8.816c-2.51 0-4.56 2.05-4.56 4.558V197.3z" fill="#004B50"/></g><ellipse fill="#004B50" cx="583" cy="344.5" rx="21" ry="33.5"/><g><path d="M942.06 521.53h71.44c-8.18-6.864-18.37-11.412-29.556-12.65V305.79h9.628c1.585 0 2.875-1.287 2.875-2.872 0-1.587-1.29-2.873-2.875-2.873h-9.628v-6.85c4.007-2.185 6.724-6.432 6.724-11.316 0-7.113-5.77-12.88-12.89-12.88-7.118 0-12.887 5.767-12.887 12.88 0 4.885 2.718 9.132 6.725 11.317v6.85h-9.628c-1.585 0-2.875 1.286-2.875 2.873 0 1.585 1.29 2.872 2.875 2.872h9.628V508.88c-11.188 1.238-21.378 5.783-29.556 12.65" fill="#FFF"/><path d="M984.918 281.88c0 4.884-2.72 9.13-6.724 11.316v6.85h5.75v-6.85c4.007-2.185 6.725-6.432 6.725-11.316 0-7.11-5.775-12.88-12.89-12.88-.988 0-1.948.123-2.875.332 5.73 1.31 10.013 6.424 10.013 12.548M990.693 302.92c0 1.584-1.287 2.873-2.873 2.873h5.75c1.59 0 2.876-1.29 2.876-2.874 0-1.586-1.287-2.874-2.875-2.874h-5.75c1.586 0 2.873 1.288 2.873 2.873M983.945 508.88V305.793h-5.75V508.88c11.185 1.237 21.372 5.785 29.553 12.652h5.753c-8.18-6.867-18.368-11.415-29.555-12.652" fill="#C6C6C6"/><path d="M423.443 521.53H352c8.18-6.864 18.368-11.412 29.556-12.65V305.79h-9.628c-1.585 0-2.872-1.287-2.872-2.872 0-1.587 1.287-2.873 2.872-2.873h9.628v-6.85c-4.004-2.185-6.724-6.432-6.724-11.316 0-7.113 5.774-12.88 12.888-12.88 7.122 0 12.892 5.767 12.892 12.88 0 4.885-2.718 9.132-6.725 11.317v6.85h9.626c1.588 0 2.875 1.286 2.875 2.873 0 1.585-1.287 2.872-2.875 2.872h-9.626V508.88c11.188 1.238 21.376 5.783 29.556 12.65" fill="#FFF"/><path d="M380.584 281.88c0 4.884 2.72 9.13 6.724 11.316v6.85h-5.752v-6.85c-4.005-2.185-6.725-6.432-6.725-11.316 0-7.11 5.775-12.88 12.89-12.88.99 0 1.95.123 2.878.332-5.73 1.31-10.014 6.424-10.014 12.548M374.808 302.92c0 1.584 1.285 2.873 2.873 2.873h-5.75c-1.587 0-2.874-1.29-2.874-2.874 0-1.586 1.287-2.874 2.875-2.874h5.75c-1.587 0-2.872 1.288-2.872 2.873M381.557 508.88V305.793h5.75V508.88c-11.185 1.237-21.373 5.785-29.556 12.652H352c8.18-6.867 18.37-11.415 29.557-12.652" fill="#C6C6C6"/><path d="M400.55 301.09c1.257-2.376 3.702-3.85 6.386-3.85 1.876 0 3.62.728 4.937 1.97 3.188-3.817 8.674-5.11 13.33-2.808l4.15 2.053-9.775 19.735-4.15-2.055c-5.334-2.64-7.574-9.02-5.14-14.395-.815-1.006-2.022-1.627-3.352-1.627-1.614 0-3.087.89-3.844 2.32-.37.7-1.238.97-1.944.596-.7-.37-.97-1.24-.597-1.94M965.13 301.09c-1.256-2.373-3.7-3.85-6.386-3.85-1.875 0-3.62.73-4.936 1.97-3.19-3.815-8.675-5.11-13.33-2.807l-4.15 2.053 9.775 19.735 4.15-2.052c5.334-2.64 7.574-9.023 5.14-14.396.815-1.007 2.022-1.628 3.35-1.628 1.618 0 3.088.89 3.846 2.32.368.7 1.236.97 1.942.6.7-.373.97-1.243.598-1.944" fill="#FFB900"/><path d="M683.948 352.03c-61.923 0-214.057-10.917-263.687-35.212l8.22-16.77c61.72 30.217 218.362 33.31 255.468 33.31 77.47 0 223.694-18.837 253.253-33.307l8.217 16.77c-49.628 24.293-199.55 35.21-261.47 35.21" fill="#FFF100"/><path d="M955.487 301.956c-4.378 2.58-8.95 5.06-13.707 7.438l3.254 6.64.028.06-.02-.04 1.06 2.14 4.153-2.056c5.26-2.605 7.51-8.85 5.232-14.182M410.16 302.04c-1.44 3.443-1 7.257.914 10.22l.005.007.027.042c.002.004.005.01.007.01.01.013.017.027.026.04.002.006.007.01.012.017l.02.03c.006.01.01.017.017.025.004.01.01.018.016.025l.02.03c.003.008.008.015.015.022.008.01.015.023.025.034.002.005.007.01.01.014.008.015.018.03.03.04 0 .005.002.008.004.01l.032.047c.003.002.003.002.003.005.01.016.026.033.037.05 1.014 1.41 2.377 2.6 4.045 3.428l4.152 2.053 1.09-2.2 3.196-6.526c-4.755-2.37-9.33-4.85-13.705-7.424" fill="#DB9D00"/><path d="M941.78 309.394c-41.968 20.974-196.15 33.402-257.926 33.402-61.707 0-218.035-12.4-259.988-33.332l-3.198 6.526-.407.83c49.63 24.295 201.765 35.21 263.688 35.21 61.92 0 211.84-10.915 261.47-35.21l-.385-.785-3.254-6.64" fill="#D6CA00"/></g></g></svg>