<?xml version="1.0" encoding="UTF-8"?>
<svg width="1400px" height="506px" viewBox="0 0 1400 506" version="1.1" xmlns="http://www.w3.org/2000/svg" xmlns:xlink="http://www.w3.org/1999/xlink">
    <!-- Generator: Sketch 41.2 (35397) - http://www.bohemiancoding.com/sketch -->
    <title>Page 1</title>
    <desc>Created with Sketch.</desc>
    <defs>
        <polygon id="path-1" points="65.2185218 0.604968506 0.0726788217 0.604968506 0.0726788217 185.069677 65.2185218 185.069677 65.2185218 0.604968506"></polygon>
        <polygon id="path-3" points="0 198.089917 305.895844 198.089917 305.895844 1.1484001 0 1.1484001"></polygon>
    </defs>
    <g id="Your-Rewards" stroke="none" stroke-width="1" fill="none" fill-rule="evenodd">
        <g id="7.3_Desktop_Bronze_Your_Rewards_Empty" transform="translate(0.000000, -546.000000)">
            <g id="Illustration" transform="translate(0.000000, 546.000000)">
                <g id="Page-1">
                    <polygon id="Fill-1" fill="#008272" points="0.0150990635 430 1400.0151 430 1400.0151 -5.68434189e-14 0.0150990635 -5.68434189e-14"></polygon>
                    <polygon id="Fill-2" fill="#007365" points="0.0150990635 505.38448 1400.0151 505.38448 1400.0151 306.38448 0.0150990635 306.38448"></polygon>
                    <polygon id="Fill-3" fill="#40A195" points="807.426525 0 637.477206 0 421.202725 306.38448 1023.70101 306.38448"></polygon>
                    <g transform="translate(560.843335, 161.534392)">
                        <g id="Group-3" transform="translate(240.676751, 0.543432)">
                            <mask id="mask-2" fill="white">
                                <use xlink:href="#path-1"></use>
                            </mask>
                            <g id="Clip-2"></g>
                            <path d="M53.4872051,0.604205795 L0.0726788217,0.604205795 C6.47244436,0.604205795 11.7106934,5.84784399 11.7106934,12.2603368 L11.7106934,173.339182 C11.7106934,179.749768 6.47244436,184.993406 0.0726788217,184.993406 L33.034994,185.069677 C39.4366636,185.069677 65.2185218,154.326703 65.2185218,147.879888 L65.1271238,12.2603368 C65.1271238,5.84784399 59.8888747,0.604205795 53.4872051,0.604205795" id="Fill-1" fill="#003D41" mask="url(#mask-2)"></path>
                        </g>
                        <path d="M281.993358,174.234605 C281.993358,180.645191 276.755109,185.890736 270.353439,185.890736 L148.567482,185.890736 C142.167716,185.890736 136.929467,180.645191 136.929467,174.234605 L136.929467,12.8030057 C136.929467,6.39241965 142.167716,1.14878146 148.567482,1.14878146 L270.353439,1.14878146 C276.755109,1.14878146 281.993358,6.39241965 281.993358,12.8030057 L281.993358,174.234605 Z" id="Fill-4" fill="#004B50"></path>
                        <path d="M267.153366,166.716944 C267.153366,168.560797 265.645299,170.070965 263.80401,170.070965 L155.440232,170.070965 C153.597039,170.070965 152.090875,168.560797 152.090875,166.716944 L152.090875,21.0086321 C152.090875,19.1647782 153.597039,17.6546104 155.440232,17.6546104 L263.80401,17.6546104 C265.645299,17.6546104 267.153366,19.1647782 267.153366,21.0086321 L267.153366,166.716944 Z" id="Fill-6" fill="#008272"></path>
                        <mask id="mask-4" fill="white">
                            <use xlink:href="#path-3"></use>
                        </mask>
                        <g id="Clip-9"></g>
                        <polygon id="Fill-8" fill="#003D41" mask="url(#mask-4)" points="135.924089 67.1457838 152.375733 67.1457838 152.375733 48.7873298 135.924089 48.7873298"></polygon>
                        <polygon id="Fill-10" fill="#003D41" mask="url(#mask-4)" points="136.362038 134.174734 152.813681 134.174734 152.813681 115.81628 136.362038 115.81628"></polygon>
                        <g id="Group-13" mask="url(#mask-4)">
                            <g transform="translate(196.124918, 17.704429)">
                                <path d="M0.589898055,0.563782111 L0.589898055,121.056868" id="Fill-11" stroke="none" fill="#003D41" fill-rule="evenodd"></path>
                                <path d="M0.589898055,0.563782111 L0.589898055,121.056868" id="Stroke-12" stroke="#000000" stroke-width="0.75" fill="none"></path>
                            </g>
                        </g>
                        <polygon id="Fill-14" fill="#003D41" mask="url(#mask-4)" points="151.514116 75.6381896 267.17831 75.6381896 267.17831 60.8282485 196.554298 60.8282485"></polygon>
                        <path d="M155.440232,170.070965 L196.714055,138.759771" id="Stroke-15" stroke="#000000" stroke-width="0.75" mask="url(#mask-4)"></path>
                        <polygon id="Fill-16" fill="#004B50" mask="url(#mask-4)" points="151.55315 81.7688607 267.165933 81.7688607 267.165933 75.6385709 151.55315 75.6385709"></polygon>
                        <path d="M196.663405,138.017654 L266.51815,138.017654" id="Fill-17" fill="#003D41" mask="url(#mask-4)"></path>
                        <polygon id="Fill-18" fill="#003D41" mask="url(#mask-4)" points="152.112011 124.501461 267.776206 124.501461 267.776206 109.69152 197.152194 109.69152"></polygon>
                        <polygon id="Fill-19" fill="#004B50" mask="url(#mask-4)" points="152.151046 130.631942 267.763829 130.631942 267.763829 124.501652 152.151046 124.501652"></polygon>
                        <path d="M196.714816,138.760534 L266.51815,138.760534" id="Stroke-20" stroke="#000000" mask="url(#mask-4)"></path>
                        <path d="M0.106059786,184.902262 L0.106059786,30.2473506 C0.106059786,30.2473506 -2.28742587,9.86580559 15.670381,9.86580559 L125.812612,9.86580559 C125.812612,9.86580559 137.403023,8.03720595 136.588057,25.4518051 L136.588057,171.714989 C136.588057,171.714989 137.403023,181.121122 119.826041,183.702899 L20.4592564,198.089536 C20.4592564,198.089536 1.30375467,198.089536 0.106059786,184.902262" id="Fill-21" fill="#003D41" mask="url(#mask-4)"></path>
                        <polygon id="Fill-22" fill="#004B50" mask="url(#mask-4)" points="18.2942658 28.2749799 18.2942658 176.225662 121.954854 163.101312 121.455973 28.1682004"></polygon>
                        <polygon id="Fill-23" fill="#003D41" mask="url(#mask-4)" points="27.2086194 36.9060084 27.2086194 167.846328 115.544806 156.230239 115.120186 36.8125763"></polygon>
                        <path d="M27.816797,36.9060084 L18.9016818,28.2740265" id="Stroke-24" stroke="#000000" stroke-width="0.5" mask="url(#mask-4)"></path>
                        <path d="M115.120186,36.8120042 L121.455211,28.1685817" id="Stroke-25" stroke="#000000" stroke-width="0.5" mask="url(#mask-4)"></path>
                        <path d="M115.544806,156.23043 L121.954092,163.100549" id="Stroke-26" stroke="#000000" stroke-width="0.5" mask="url(#mask-4)"></path>
                        <path d="M27.2086194,167.846137 L18.2935041,176.226424" id="Stroke-27" stroke="#000000" stroke-width="0.5" mask="url(#mask-4)"></path>
                    </g>
                </g>
            </g>
        </g>
    </g>
</svg>