<svg width="149" height="121" viewBox="0 0 149 121" xmlns="http://www.w3.org/2000/svg"><g fill="none" fill-rule="evenodd"><path d="M136.886 105.845H92.76c-1.284 0-2.444-.76-2.953-1.938L69.732 57.552 75.634 55l19.238 44.417h42.014v6.428z" fill="#717171"/><path d="M5.79 73.492c.578 1.163 2.007 1.642 3.172 1.063l4.098-2.04c1.164-.58 1.64-2.007 1.064-3.17L8.892 58.846c-.58-1.163-2.008-1.642-3.173-1.062l-4.1 2.04c-1.164.58-1.642 2.007-1.062 3.17l5.23 10.497z" fill="#004B50"/><path d="M73.146 72.507c8.343 0 15.11-6.762 15.11-15.1 0-8.34-6.767-15.1-15.11-15.1-8.345 0-15.11 6.76-15.11 15.1 0 8.338 6.765 15.1 15.11 15.1z" fill="#717171"/><path d="M122.22 108.562c0 2.12 1.736 3.857 3.86 3.857h7.464c2.122 0 3.86-1.738 3.86-3.858V96.088c0-2.123-1.738-3.857-3.86-3.857h-7.464c-2.124 0-3.86 1.735-3.86 3.858v12.474z" fill="#000"/><path d="M12.63 73.403c.947 1.897 3.276 2.678 5.175 1.733l6.685-3.326c1.898-.945 2.68-3.274 1.733-5.172l-8.532-17.12c-.944-1.896-3.272-2.677-5.173-1.73L5.834 51.11c-1.9.947-2.68 3.273-1.734 5.172l8.53 17.12z" fill="#717171"/><path d="M107.25 40.032c5.28-2.63 7.45-9.098 4.82-14.375l-9.83-19.723C99.613.656 93.14-1.51 87.858 1.117L14.715 37.52c-5.28 2.63-7.45 9.098-4.82 14.377l9.83 19.72c2.628 5.28 9.102 7.447 14.383 4.818l73.142-36.403zM85.506 101.96c0 3.973 3.22 7.19 7.193 7.19 3.975 0 7.195-3.217 7.195-7.19 0-3.972-3.22-7.19-7.196-7.19-3.974 0-7.194 3.218-7.194 7.19" fill="#004B50"/><path d="M89.74 101.648c0 1.463 1.183 2.65 2.65 2.65 1.462 0 2.647-1.187 2.647-2.65 0-1.462-1.185-2.648-2.648-2.648-1.467 0-2.65 1.186-2.65 2.648" fill="#FFF"/><path d="M148.667 84.615H133.7c-2.12 0-3.86 1.735-3.86 3.857v28.53c0 2.122 1.74 3.858 3.86 3.858h14.967V84.615z" fill="#004B50"/><path d="M133.76 108.562c0 2.12 1.737 3.857 3.86 3.857h7.465c2.122 0 3.86-1.738 3.86-3.858V96.088c0-2.123-1.738-3.857-3.86-3.857h-7.464c-2.123 0-3.86 1.735-3.86 3.858v12.474z" fill="#004B50"/></g></svg>