<?xml version="1.0" encoding="UTF-8"?>
<svg width="359px" height="176px" viewBox="0 0 359 176" version="1.1" xmlns="http://www.w3.org/2000/svg" xmlns:xlink="http://www.w3.org/1999/xlink">
    <!-- Generator: Sketch 41.2 (35397) - http://www.bohemiancoding.com/sketch -->
    <title>Page 1 Copy</title>
    <desc>Created with Sketch.</desc>
    <defs></defs>
    <g id="History" stroke="none" stroke-width="1" fill="none" fill-rule="evenodd">
        <g id="7.4_Mobile_Bronze_History" transform="translate(-8.000000, -624.000000)">
            <g id="Page-1-Copy" transform="translate(8.000000, 624.000000)">
                <polygon id="Fill-1" fill="#008272" points="172.020833 7.4893617 239.956597 7.4893617 239.956597 1.87234043 172.020833 1.87234043"></polygon>
                <polygon id="Fill-2" fill="#00B294" points="136.494792 7.4893617 172.020833 7.4893617 172.020833 1.87234043 136.494792 1.87234043"></polygon>
                <polygon id="Fill-3" fill="#008272" points="136.494792 28.7092199 172.020833 28.7092199 172.020833 6.24113475 136.494792 6.24113475"></polygon>
                <polygon id="Fill-4" fill="#00B294" points="120.913194 46.1843972 208.170139 46.1843972 208.170139 24.964539 120.913194 24.964539"></polygon>
                <polygon id="Fill-5" fill="#00B294" points="107.201389 63.035461 220.635417 63.035461 220.635417 41.8156028 107.201389 41.8156028"></polygon>
                <polygon id="Fill-6" fill="#00B294" points="94.1128472 79.2624113 234.347222 79.2624113 234.347222 58.0425532 94.1128472 58.0425532"></polygon>
                <polygon id="Fill-7" fill="#00B294" points="79.7777778 95.4893617 249.305556 95.4893617 249.305556 74.2695035 79.7777778 74.2695035"></polygon>
                <polygon id="Fill-8" fill="#00B294" points="66.0659722 111.716312 262.394097 111.716312 262.394097 90.4964539 66.0659722 90.4964539"></polygon>
                <polygon id="Fill-9" fill="#00B294" points="52.3541667 128.567376 276.729167 128.567376 276.729167 107.347518 52.3541667 107.347518"></polygon>
                <polygon id="Fill-10" fill="#00B294" points="37.3958333 144.170213 291.064236 144.170213 291.064236 122.950355 37.3958333 122.950355"></polygon>
                <polygon id="Fill-11" fill="#00B294" points="24.3072917 159.77305 304.152778 159.77305 304.152778 138.553191 24.3072917 138.553191"></polygon>
                <polygon id="Fill-12" fill="#00B294" points="24.3072917 176 304.152778 176 304.152778 156.652482 24.3072917 156.652482"></polygon>
                <polygon id="Fill-13" fill="#32F9EB" points="162.048611 46.1843972 249.305556 46.1843972 249.305556 24.964539 162.048611 24.964539"></polygon>
                <polygon id="Fill-14" fill="#32F9EB" points="148.960069 63.035461 262.394097 63.035461 262.394097 41.8156028 148.960069 41.8156028"></polygon>
                <polygon id="Fill-15" fill="#00D8CC" points="162.048611 42.4397163 249.305556 42.4397163 249.305556 28.7092199 162.048611 28.7092199"></polygon>
                <polygon id="Fill-16" fill="#00D8CC" points="148.960069 63.035461 262.394097 63.035461 262.394097 45.5602837 148.960069 45.5602837"></polygon>
                <polygon id="Fill-17" fill="#32F9EB" points="134.625 79.2624113 274.859375 79.2624113 274.859375 58.0425532 134.625 58.0425532"></polygon>
                <polygon id="Fill-18" fill="#00D8CC" points="134.625 78.6382979 274.859375 78.6382979 274.859375 61.1631206 134.625 61.1631206"></polygon>
                <polygon id="Fill-19" fill="#32F9EB" points="120.913194 95.4893617 290.440972 95.4893617 290.440972 74.2695035 120.913194 74.2695035"></polygon>
                <polygon id="Fill-20" fill="#00D8CC" points="121.536458 95.4893617 289.817708 95.4893617 289.817708 78.0141844 121.536458 78.0141844"></polygon>
                <polygon id="Fill-21" fill="#32F9EB" points="107.824653 111.716312 304.152778 111.716312 304.152778 90.4964539 107.824653 90.4964539"></polygon>
                <polygon id="Fill-22" fill="#00D8CC" points="107.824653 111.716312 304.152778 111.716312 304.152778 94.2411348 107.824653 94.2411348"></polygon>
                <polygon id="Fill-23" fill="#32F9EB" points="94.1128472 128.567376 318.487847 128.567376 318.487847 107.347518 94.1128472 107.347518"></polygon>
                <polygon id="Fill-24" fill="#00D8CC" points="94.1128472 128.567376 318.487847 128.567376 318.487847 111.092199 94.1128472 111.092199"></polygon>
                <polygon id="Fill-25" fill="#32F9EB" points="77.9079861 144.170213 331.576389 144.170213 331.576389 122.950355 77.9079861 122.950355"></polygon>
                <polygon id="Fill-26" fill="#00D8CC" points="77.9079861 144.170213 331.576389 144.170213 331.576389 126.695035 77.9079861 126.695035"></polygon>
                <polygon id="Fill-27" fill="#32F9EB" points="66.0659722 159.77305 345.911458 159.77305 345.911458 138.553191 66.0659722 138.553191"></polygon>
                <polygon id="Fill-28" fill="#00D8CC" points="66.0659722 161.021277 345.911458 161.021277 345.911458 143.546099 66.0659722 143.546099"></polygon>
                <polygon id="Fill-29" fill="#32F9EB" points="52.3541667 176 359 176 359 155.404255 52.3541667 155.404255"></polygon>
                <polygon id="Fill-30" fill="#00D8CC" points="52.3541667 175.375887 359 175.375887 359 160.397163 52.3541667 160.397163"></polygon>
                <polygon id="Fill-31" fill="#32F9EB" points="172.020833 28.7092199 239.956597 28.7092199 239.956597 6.24113475 172.020833 6.24113475"></polygon>
                <polygon id="Fill-32" fill="#008272" points="185.109375 28.7092199 185.109375 42.2699325 193.900714 42.2699325 193.900714 58.1646068 202.053653 58.1646068 202.053653 74.6941977 212.020991 74.6941977 212.020991 90.588872 221.397365 90.588872 221.397365 106.485524 230.178821 106.485524 230.178821 122.382176 241.292512 122.382176 241.292512 138.907812 250.097686 138.907812 250.097686 155.389932 260.041307 155.389932 260.041307 171.284606 260.041307 176 281.715278 176 193.268243 28.7092199"></polygon>
                <polygon id="Fill-33" fill="#B0FFF6" points="193.211806 28.7092199 281.4765 176 287.324653 176 199.081654 28.7092199"></polygon>
                <polygon id="Fill-34" fill="#B0FFF6" points="226.868056 28.7092199 315.708074 176 320.980903 176 232.14287 28.7092199"></polygon>
                <polygon id="Fill-35" fill="#008272" points="203.807292 28.7092199 211.909722 28.7092199 211.909722 14.9787234 203.807292 14.9787234"></polygon>
                <polygon id="Fill-36" fill="#00B294" points="147.713542 28.7092199 155.815972 28.7092199 155.815972 14.9787234 147.713542 14.9787234"></polygon>
                <polygon id="Fill-37" fill="#32F9EB" points="172.020833 4.36879433 239.956597 4.36879433 239.956597 0 172.020833 0"></polygon>
                <polygon id="Fill-38" fill="#008272" points="136.494792 4.36879433 172.020833 4.36879433 172.020833 0 136.494792 0"></polygon>
                <polygon id="Fill-39" fill="#008272" points="129.213553 24.964539 0 174.751773 21.5267528 174.751773 149.583333 24.964539"></polygon>
                <polygon id="Fill-40" fill="#32F9EB" points="148.299088 24.964539 18.6979167 174.751773 27.4613287 174.751773 157.0625 24.964539"></polygon>
                <polygon id="Fill-41" fill="#00B294" points="149.583333 41.8156028 161.425347 41.8156028 161.425347 24.964539 149.583333 24.964539"></polygon>
                <polygon id="Fill-42" fill="#00B294" points="135.871528 57.4184397 148.960069 57.4184397 148.960069 41.8156028 135.871528 41.8156028"></polygon>
                <polygon id="Fill-43" fill="#00B294" points="121.536458 74.893617 135.248264 74.893617 135.248264 58.0425532 121.536458 58.0425532"></polygon>
                <polygon id="Fill-44" fill="#00B294" points="107.201389 89.8723404 120.913194 89.8723404 120.913194 74.2695035 107.201389 74.2695035"></polygon>
                <polygon id="Fill-45" fill="#00B294" points="94.1128472 107.347518 107.824653 107.347518 107.824653 90.4964539 94.1128472 90.4964539"></polygon>
                <polygon id="Fill-46" fill="#00B294" points="79.1545139 122.950355 94.1128472 122.950355 94.1128472 107.347518 79.1545139 107.347518"></polygon>
                <polygon id="Fill-47" fill="#00B294" points="66.0659722 138.553191 79.1545139 138.553191 79.1545139 122.950355 66.0659722 122.950355"></polygon>
                <polygon id="Fill-48" fill="#00B294" points="52.3541667 155.404255 65.4427083 155.404255 65.4427083 138.553191 52.3541667 138.553191"></polygon>
                <polygon id="Fill-49" fill="#00B294" points="38.0190972 176 51.7309028 176 51.7309028 155.404255 38.0190972 155.404255"></polygon>
                <polygon id="Fill-50" fill="#32F9EB" points="198.821181 28.7092199 287.243388 176 315.371528 176 226.92758 28.7092199"></polygon>
            </g>
        </g>
    </g>
</svg>