<svg width="689" height="207" viewBox="0 0 689 207" xmlns="http://www.w3.org/2000/svg" xmlns:xlink="http://www.w3.org/1999/xlink"><defs><path id="a" d="M27.594 7.03V.73H.438v6.3h27.156z"/><path id="c" d="M.216.298v11.807H27.59V.298H.215z"/><path id="e" d="M27.594 12.105V.298H.438v11.807h27.156z"/><path id="g" d="M.216.73v6.3H27.59V.73H.215z"/><path id="i" d="M27.594 7.03V.73H.438v6.3h27.156z"/><path id="k" d="M.216.298v11.807H27.59V.298H.215z"/><path id="m" d="M27.594 12.105V.298H.438v11.807h27.156z"/><path id="o" d="M.216.73v6.3H27.59V.73H.215z"/></defs><g fill="none" fill-rule="evenodd"><path fill="#008272" d="M346.688 8.81h80.046V2.2h-80.046"/><path fill="#00B294" d="M304.828 8.81h41.86V2.2h-41.86"/><path fill="#008272" d="M304.828 33.766h41.86V7.34h-41.86"/><path fill="#00B294" d="M286.47 54.32h102.81V29.36H286.47"/><path fill="#00B294" d="M270.313 74.138h133.656V49.18H270.31"/><path fill="#00B294" d="M254.89 93.223h165.235V68.266H254.89"/><path fill="#00B294" d="M238 112.31h199.75V87.35H238"/><path fill="#00B294" d="M221.844 131.394h231.328v-24.958H221.844"/><path fill="#00B294" d="M205.688 151.213h264.375v-24.958H205.688"/><path fill="#00B294" d="M188.063 169.564h298.89v-24.958h-298.89"/><path fill="#00B294" d="M172.64 187.915h329.735v-24.958H172.64"/><path fill="#00B294" d="M172.64 207h329.735v-22.755H172.64"/><path fill="#32F9EB" d="M334.938 54.32H437.75V29.36H334.937"/><path fill="#32F9EB" d="M319.516 74.138h133.656V49.18H319.516"/><path fill="#00D8CC" d="M334.938 49.915H437.75v-16.15H334.937M319.516 74.138h133.656V53.585H319.516"/><path fill="#32F9EB" d="M302.625 93.223H467.86V68.266H302.624"/><path fill="#00D8CC" d="M302.625 92.49H467.86V71.935H302.624"/><path fill="#32F9EB" d="M286.47 112.31h199.75V87.35H286.47"/><path fill="#00D8CC" d="M287.203 112.31h198.28V91.754h-198.28"/><path fill="#32F9EB" d="M271.047 131.394h231.328v-24.958H271.047"/><path fill="#00D8CC" d="M271.047 131.394h231.328V110.84H271.047"/><path fill="#32F9EB" d="M254.89 151.213h264.376v-24.958H254.89"/><path fill="#00D8CC" d="M254.89 151.213h264.376V130.66H254.89"/><path fill="#32F9EB" d="M235.797 169.564h298.89v-24.958h-298.89"/><path fill="#00D8CC" d="M235.797 169.564h298.89V149.01h-298.89"/><path fill="#32F9EB" d="M221.844 187.915h329.734v-24.958H221.844"/><path fill="#00D8CC" d="M221.844 189.383h329.734V168.83H221.844"/><path fill="#32F9EB" d="M205.688 207H567v-24.223H205.687"/><path fill="#00D8CC" d="M205.688 206.266H567V188.65H205.687"/><path fill="#32F9EB" d="M346.688 33.766h80.046V7.34h-80.046"/><path fill="#008272" d="M362.11 33.766v15.95h10.358V68.41h9.606v19.44h11.745v18.695h11.047v18.696h10.346v18.698h13.095v19.437h10.375v19.385H450.4V207h25.538L371.723 33.766"/><path fill="#B0FFF6" d="M371.656 33.766l104 173.234h6.89L378.574 33.766M411.313 33.766L515.99 207h6.213L417.528 33.766"/><path fill="#008272" d="M384.14 33.766h9.548v-16.15h-9.547"/><path fill="#00B294" d="M318.047 33.766h9.547v-16.15h-9.547"/><path fill="#32F9EB" d="M346.688 5.138h80.046V0h-80.046"/><path fill="#008272" d="M304.828 5.138h41.86V0h-41.86M296.25 29.362L144 205.532h25.364L320.25 29.362"/><path fill="#32F9EB" d="M318.737 29.362L166.03 205.532h10.327l152.706-176.17"/><path fill="#00B294" d="M320.25 49.18h13.953V29.363H320.25M304.094 67.532h15.422v-18.35h-15.422M287.203 88.085h16.156v-19.82h-16.157M270.313 105.702h16.156v-18.35H270.31M254.89 126.255h16.157v-19.82H254.89M237.266 144.606h17.625v-18.35h-17.624M221.844 162.957h15.422v-18.35h-15.422M205.688 182.777h15.42v-19.82h-15.42M188.797 207h16.156v-24.223h-16.156"/><path fill="#32F9EB" d="M378.266 33.766L482.45 207h33.144L411.384 33.766"/><g><path fill="#008A00" d="M611.524 206.99h5.914v-78.482h-5.914"/><path d="M614.59 128.51c1.532 4.78 4.382 9.135 8.096 12.82 3.732 3.922 8.33 6.53 13.146 8.274-1.75-4.783-4.383-9.352-8.097-13.056-3.95-3.9-8.33-6.51-13.146-8.037" fill="#7FBA00"/><path d="M615.022 128.29c-.215 4.357.45 8.707 2.417 12.825 1.748 4.353 4.598 7.824 7.878 10.666.217-4.352-.65-8.704-2.415-13.056-1.965-4.118-4.6-7.604-7.88-10.433" fill="#7FBA00"/><path d="M615.022 128.29c.217 4.357-.65 8.707-2.4 12.825-1.98 4.353-4.596 7.824-7.896 10.666-.217-4.352.45-8.704 2.417-13.056 1.75-4.118 4.598-7.604 7.88-10.433" fill="#7FBA00"/><g transform="translate(614.15 124.52)"><mask id="b" fill="#fff"><use xlink:href="#a"/></mask><path d="M.438 3.99c4.165 1.958 8.764 3.04 13.795 3.04 4.815 0 9.63-1.082 13.58-3.04-3.95-2.18-8.765-3.26-13.58-3.26-5.03 0-9.63 1.08-13.795 3.26" fill="#7FBA00" mask="url(#b)"/></g><path d="M614.59 128.51c-1.75 4.78-4.382 9.135-8.098 12.82-3.95 3.922-8.33 6.53-13.145 8.274 1.534-4.783 4.382-9.352 8.096-13.056 3.95-3.9 8.33-6.51 13.146-8.037" fill="#7FBA00"/><g transform="translate(587 128.18)"><mask id="d" fill="#fff"><use xlink:href="#c"/></mask><path d="M27.59.33c-3.282 3.706-7.447 6.96-12.478 9.135C10.296 11.425 5.032 12.29 0 12.073 3.282 8.368 7.447 5.11 12.478 2.94 17.293.974 22.558.112 27.588.33" fill="#7FBA00" mask="url(#d)"/></g><g transform="translate(614.15 128.18)"><mask id="f" fill="#fff"><use xlink:href="#e"/></mask><path d="M.438.33C3.503 4.037 7.668 7.29 12.7 9.466c5.03 1.96 10.08 2.824 15.112 2.608C24.53 8.368 20.364 5.11 15.55 2.94 10.517.974 5.47.112.437.33" fill="#7FBA00" mask="url(#f)"/></g><g transform="translate(587 124.52)"><mask id="h" fill="#fff"><use xlink:href="#g"/></mask><path d="M27.59 3.99c-4.166 1.958-8.764 3.04-13.795 3.04C8.763 7.03 4.165 5.948 0 3.99 4.165 1.81 8.763.73 13.795.73c5.03 0 9.63 1.08 13.794 3.26" fill="#7FBA00" mask="url(#h)"/></g><path d="M614.59 128.723c-3.5.22-7.015-.212-10.297-1.725-3.28-1.315-6.13-3.274-8.312-5.883 3.282-.212 6.78.22 10.063 1.746 3.3 1.296 6.13 3.26 8.546 5.863" fill="#7FBA00"/><path d="M615.69 128.723c-2.85-.863-5.266-2.17-7.015-4.348-1.966-1.945-3.066-4.554-3.5-7.156 2.634.642 5.032 1.937 6.998 4.114 1.768 2.178 3.066 4.568 3.516 7.39" fill="#7FBA00"/><path d="M613.49 128.723c.45-2.82 1.532-5.21 3.516-7.39 1.75-1.957 4.147-3.47 6.997-4.114-.434 2.6-1.75 5.21-3.5 7.39-1.964 1.942-4.38 3.25-7.014 4.113" fill="#7FBA00"/><path d="M614.59 128.723c3.498.22 6.78-.212 10.296-1.725 3.282-1.315 6.13-3.274 8.313-5.883-3.283-.212-6.782.22-10.063 1.746-3.516 1.296-6.365 3.26-8.548 5.863" fill="#7FBA00"/><path d="M622.47 128.723c-1.533-2.82-4.598-4.78-7.88-4.78-3.498 0-6.564 1.96-8.097 4.78h15.976z" fill="#7FBA00"/><path fill="#BA131A" d="M663.9 206.99h4.834v-59.256H663.9"/><g fill="#DD5900"><path d="M666.317 147.734c1.316 3.92 3.517 7.624 6.582 10.664 3.083 3.058 6.815 5.233 10.764 6.546-1.316-3.92-3.516-7.625-6.58-10.683-3.085-3.037-6.818-5.23-10.767-6.526"/><path d="M666.75 147.734c-.216 3.49.45 6.96 1.984 10.448 1.533 3.49 3.733 6.33 6.365 8.506.215-3.488-.433-6.978-1.966-10.466-1.55-3.488-3.733-6.31-6.384-8.488"/><path d="M666.75 147.734c.234 3.49-.433 6.96-1.966 10.448-1.532 3.49-3.732 6.33-6.365 8.506-.217-3.488.432-6.978 1.965-10.466 1.55-3.488 3.732-6.31 6.365-8.488"/><path d="M666.317 147.734c3.517 1.744 7.25 2.607 11.198 2.607 3.95 0 7.898-.862 11.198-2.606-3.3-1.53-7.25-2.41-11.198-2.41-3.95 0-7.68.88-11.198 2.41M666.317 147.734c-1.316 3.92-3.3 7.624-6.58 10.664-3.085 3.058-6.6 5.233-10.55 6.546 1.316-3.92 3.516-7.625 6.6-10.683 3.065-3.037 6.798-5.23 10.53-6.526"/><path d="M666.317 147.734c-2.632 3.254-5.932 5.664-9.88 7.41-3.95 1.743-8.116 2.39-12.3 2.39 2.633-3.273 5.933-5.664 10.1-7.408 3.965-1.745 8.13-2.392 12.08-2.392"/><path d="M666.317 147.734c2.633 3.254 6.15 5.664 10.098 7.41 3.95 1.743 8.133 2.39 12.298 2.39-2.632-3.273-6.15-5.664-10.098-7.408-3.95-1.745-8.132-2.392-12.298-2.392M666.317 147.734c-3.3 1.744-7.032 2.607-10.98 2.607-3.95 0-7.9-.862-11.2-2.606 3.3-1.53 7.25-2.41 11.2-2.41 3.948 0 7.68.88 10.98 2.41"/><path d="M666.317 147.95c-2.632.215-5.48-.216-8.115-1.313-2.866-1.08-5.066-2.608-6.815-4.784 2.633 0 5.48.216 8.132 1.296 2.848 1.096 5.048 2.84 6.797 4.8"/><path d="M667.2 147.95c-2.2-.432-3.948-1.745-5.5-3.274-1.532-1.744-2.415-3.704-2.848-6.095 2.2.648 4.166 1.744 5.716 3.49 1.533 1.744 2.417 3.704 2.633 5.88"/><path d="M665.434 147.95c.45-2.176 1.316-4.136 2.867-5.88 1.533-1.53 3.5-2.842 5.7-3.274-.434 2.176-1.317 4.136-2.85 5.88-1.533 1.53-3.517 2.842-5.716 3.274"/><path d="M666.534 147.95c2.632.215 5.5-.216 8.132-1.313 2.85-1.08 5.05-2.608 6.798-4.784-2.632 0-5.482.216-8.114 1.296-2.867 1.096-5.05 2.84-6.816 4.8"/><path d="M672.9 147.95c-1.317-2.176-3.733-3.704-6.583-3.704-2.632 0-5.05 1.528-6.365 3.704H672.9z"/></g></g><g><path fill="#008A00" d="M77.476 206.99h-5.914v-78.482h5.914"/><path d="M74.41 128.51c-1.532 4.78-4.382 9.135-8.096 12.82-3.732 3.922-8.33 6.53-13.146 8.274 1.75-4.783 4.383-9.352 8.097-13.056 3.95-3.9 8.33-6.51 13.146-8.037" fill="#7FBA00"/><path d="M73.978 128.29c.215 4.357-.45 8.707-2.417 12.825-1.748 4.353-4.598 7.824-7.878 10.666-.217-4.352.65-8.704 2.415-13.056 1.965-4.118 4.6-7.604 7.88-10.433" fill="#7FBA00"/><path d="M73.978 128.29c-.217 4.357.65 8.707 2.4 12.825 1.98 4.353 4.596 7.824 7.896 10.666.217-4.352-.45-8.704-2.417-13.056-1.75-4.118-4.598-7.604-7.88-10.433" fill="#7FBA00"/><g transform="matrix(-1 0 0 1 74.85 124.52)"><mask id="j" fill="#fff"><use xlink:href="#i"/></mask><path d="M.438 3.99c4.165 1.958 8.764 3.04 13.795 3.04 4.815 0 9.63-1.082 13.58-3.04-3.95-2.18-8.765-3.26-13.58-3.26-5.03 0-9.63 1.08-13.795 3.26" fill="#7FBA00" mask="url(#j)"/></g><path d="M74.41 128.51c1.75 4.78 4.382 9.135 8.098 12.82 3.95 3.922 8.33 6.53 13.145 8.274-1.534-4.783-4.382-9.352-8.096-13.056-3.95-3.9-8.33-6.51-13.146-8.037" fill="#7FBA00"/><g transform="matrix(-1 0 0 1 102 128.18)"><mask id="l" fill="#fff"><use xlink:href="#k"/></mask><path d="M27.59.33c-3.282 3.706-7.447 6.96-12.478 9.135C10.296 11.425 5.032 12.29 0 12.073 3.282 8.368 7.447 5.11 12.478 2.94 17.293.974 22.558.112 27.588.33" fill="#7FBA00" mask="url(#l)"/></g><g transform="matrix(-1 0 0 1 74.85 128.18)"><mask id="n" fill="#fff"><use xlink:href="#m"/></mask><path d="M.438.33C3.503 4.037 7.668 7.29 12.7 9.466c5.03 1.96 10.08 2.824 15.112 2.608C24.53 8.368 20.364 5.11 15.55 2.94 10.517.974 5.47.112.437.33" fill="#7FBA00" mask="url(#n)"/></g><g transform="matrix(-1 0 0 1 102 124.52)"><mask id="p" fill="#fff"><use xlink:href="#o"/></mask><path d="M27.59 3.99c-4.166 1.958-8.764 3.04-13.795 3.04C8.763 7.03 4.165 5.948 0 3.99 4.165 1.81 8.763.73 13.795.73c5.03 0 9.63 1.08 13.794 3.26" fill="#7FBA00" mask="url(#p)"/></g><path d="M74.41 128.723c3.5.22 7.015-.212 10.297-1.725 3.28-1.315 6.13-3.274 8.312-5.883-3.282-.212-6.78.22-10.063 1.746-3.3 1.296-6.13 3.26-8.546 5.863" fill="#7FBA00"/><path d="M73.31 128.723c2.85-.863 5.266-2.17 7.015-4.348 1.966-1.945 3.066-4.554 3.5-7.156-2.634.642-5.032 1.937-6.998 4.114-1.768 2.178-3.066 4.568-3.516 7.39" fill="#7FBA00"/><path d="M75.51 128.723c-.45-2.82-1.532-5.21-3.516-7.39-1.75-1.957-4.147-3.47-6.997-4.114.434 2.6 1.75 5.21 3.5 7.39 1.964 1.942 4.38 3.25 7.014 4.113" fill="#7FBA00"/><path d="M74.41 128.723c-3.498.22-6.78-.212-10.296-1.725-3.282-1.315-6.13-3.274-8.313-5.883 3.283-.212 6.782.22 10.063 1.746 3.516 1.296 6.365 3.26 8.548 5.863" fill="#7FBA00"/><path d="M66.53 128.723c1.533-2.82 4.598-4.78 7.88-4.78 3.498 0 6.564 1.96 8.097 4.78H66.53z" fill="#7FBA00"/><path fill="#BA131A" d="M25.1 206.99h-4.834v-59.256H25.1"/><g fill="#DD5900"><path d="M22.683 147.734c-1.316 3.92-3.517 7.624-6.582 10.664-3.083 3.058-6.815 5.233-10.764 6.546 1.316-3.92 3.516-7.625 6.58-10.683 3.085-3.037 6.818-5.23 10.767-6.526"/><path d="M22.25 147.734c.216 3.49-.45 6.96-1.984 10.448-1.533 3.49-3.733 6.33-6.365 8.506-.215-3.488.433-6.978 1.966-10.466 1.55-3.488 3.733-6.31 6.384-8.488"/><path d="M22.25 147.734c-.234 3.49.433 6.96 1.966 10.448 1.532 3.49 3.732 6.33 6.365 8.506.217-3.488-.432-6.978-1.965-10.466-1.55-3.488-3.732-6.31-6.365-8.488"/><path d="M22.683 147.734c-3.517 1.744-7.25 2.607-11.198 2.607-3.95 0-7.898-.862-11.198-2.606 3.3-1.53 7.25-2.41 11.198-2.41 3.95 0 7.68.88 11.198 2.41M22.683 147.734c1.316 3.92 3.3 7.624 6.58 10.664 3.085 3.058 6.6 5.233 10.55 6.546-1.316-3.92-3.516-7.625-6.6-10.683-3.065-3.037-6.798-5.23-10.53-6.526"/><path d="M22.683 147.734c2.632 3.254 5.932 5.664 9.88 7.41 3.95 1.743 8.116 2.39 12.3 2.39-2.633-3.273-5.933-5.664-10.1-7.408-3.965-1.745-8.13-2.392-12.08-2.392M22.683 147.734c-2.633 3.254-6.15 5.664-10.098 7.41-3.95 1.743-8.133 2.39-12.298 2.39 2.632-3.273 6.15-5.664 10.098-7.408 3.95-1.745 8.132-2.392 12.298-2.392"/><path d="M22.683 147.734c3.3 1.744 7.032 2.607 10.98 2.607 3.95 0 7.9-.862 11.2-2.606-3.3-1.53-7.25-2.41-11.2-2.41-3.948 0-7.68.88-10.98 2.41"/><path d="M22.683 147.95c2.632.215 5.48-.216 8.115-1.313 2.866-1.08 5.066-2.608 6.815-4.784-2.633 0-5.48.216-8.132 1.296-2.848 1.096-5.048 2.84-6.797 4.8"/><path d="M21.8 147.95c2.2-.432 3.948-1.745 5.5-3.274 1.532-1.744 2.415-3.704 2.848-6.095-2.2.648-4.166 1.744-5.716 3.49-1.533 1.744-2.417 3.704-2.633 5.88"/><path d="M23.566 147.95c-.45-2.176-1.316-4.136-2.867-5.88-1.533-1.53-3.5-2.842-5.7-3.274.434 2.176 1.317 4.136 2.85 5.88 1.533 1.53 3.517 2.842 5.716 3.274"/><path d="M22.466 147.95c-2.632.215-5.5-.216-8.132-1.313-2.85-1.08-5.05-2.608-6.798-4.784 2.632 0 5.482.216 8.114 1.296 2.867 1.096 5.05 2.84 6.816 4.8"/><path d="M16.1 147.95c1.317-2.176 3.733-3.704 6.583-3.704 2.632 0 5.05 1.528 6.365 3.704H16.1z"/></g></g></g></svg>