<?xml version="1.0" encoding="utf-8"?>
<!-- Generator: Adobe Illustrator 21.0.0, SVG Export Plug-In . SVG Version: 6.00 Build 0)  -->
<svg version="1.1" id="Layer_1" xmlns="http://www.w3.org/2000/svg" xmlns:xlink="http://www.w3.org/1999/xlink" x="0px" y="0px"
	 width="4179.8px" height="1773.6px" viewBox="0 0 4179.8 1773.6" style="enable-background:new 0 0 4179.8 1773.6;"
	 xml:space="preserve">
<style type="text/css">
	.st0{fill-rule:evenodd;clip-rule:evenodd;fill:#70C3EA;}
	.st1{clip-path:url(#SVGID_2_);}
	.st2{clip-path:url(#SVGID_4_);fill:#80BC44;}
	.st3{clip-path:url(#SVGID_4_);fill:#6DB643;}
	.st4{clip-path:url(#SVGID_4_);fill:#6A8837;}
	.st5{clip-path:url(#SVGID_4_);fill:#5AB146;}
	.st6{clip-path:url(#SVGID_4_);fill:#53A842;}
	.st7{clip-path:url(#SVGID_4_);fill:#789043;}
	.st8{clip-path:url(#SVGID_4_);fill:#73A83F;}
	.st9{clip-path:url(#SVGID_4_);fill:#72A040;}
	.st10{clip-path:url(#SVGID_4_);fill:#90C140;}
	.st11{clip-path:url(#SVGID_4_);fill:#8CBF40;}
	.st12{clip-path:url(#SVGID_4_);fill:#89B33B;}
	.st13{clip-path:url(#SVGID_4_);fill:#9CD0B4;}
	.st14{clip-path:url(#SVGID_4_);}
	.st15{fill:#4EAF46;}
	.st16{fill:#493927;}
	.st17{fill:#1AA448;}
	.st18{fill:#118B42;}
	.st19{fill:#5B833A;}
	.st20{fill:#6B5146;}
	.st21{fill:#A6C83B;}
	.st22{fill:#99C33E;}
	.st23{fill:#8CBF3F;}
	.st24{fill:#98A72F;}
	.st25{clip-path:url(#SVGID_4_);fill:#6EB857;}
	.st26{clip-path:url(#SVGID_4_);fill:#493927;}
	.st27{clip-path:url(#SVGID_4_);fill:#1AA448;}
	.st28{clip-path:url(#SVGID_4_);fill:#18A54C;}
	.st29{clip-path:url(#SVGID_4_);fill:#118B42;}
	.st30{clip-path:url(#SVGID_4_);fill:#6B5146;}
	.st31{clip-path:url(#SVGID_4_);fill:#628E3C;}
	.st32{clip-path:url(#SVGID_4_);fill:#5D8E40;}
	.st33{clip-path:url(#SVGID_4_);fill:#4D8A3E;}
	.st34{clip-path:url(#SVGID_4_);fill:#4C8A3D;}
	.st35{clip-path:url(#SVGID_4_);fill:#4C853C;}
	.st36{clip-path:url(#SVGID_4_);fill:#5D793C;}
	.st37{clip-path:url(#SVGID_4_);fill:#A6C83B;}
	.st38{clip-path:url(#SVGID_4_);fill:#A4C739;}
	.st39{clip-path:url(#SVGID_4_);fill:#A1C743;}
	.st40{clip-path:url(#SVGID_4_);fill:#98A72F;}
	.st41{fill:#737373;}
	.st42{fill:#969696;}
	.st43{fill:#E52229;}
	.st44{fill:#515251;}
	.st45{fill:#DFDFDD;}
	.st46{opacity:0.5;fill:#1AA448;}
	.st47{fill:#F28A1A;}
	.st48{fill:#DD5B12;}
	.st49{fill:#FBB811;}
	.st50{fill:#333333;}
	.st51{fill-rule:evenodd;clip-rule:evenodd;fill:#333333;}
	.st52{fill:none;stroke:#333333;stroke-width:1.2191;stroke-miterlimit:10;}
	.st53{fill:none;stroke:#FBB811;stroke-width:2.3028;stroke-linecap:round;stroke-miterlimit:10;}
	.st54{fill:#E5D901;}
	.st55{fill:#22BCEF;}
	.st56{fill:#1D284A;}
	.st57{fill:#069FCC;}
	.st58{fill:#1A2340;}
	.st59{fill:#1B2544;}
	.st60{fill:#E51B26;}
	.st61{fill:#D01322;}
	.st62{fill:#9A8D78;}
	.st63{fill:#D99D06;}
</style>
<rect x="-1.1" y="-3.4" class="st0" width="4196.2" height="856"/>
<g>
	<defs>
		<rect id="SVGID_1_" x="-384.7" y="130.2" width="4823.3" height="1298.9"/>
	</defs>
	<clipPath id="SVGID_2_">
		<use xlink:href="#SVGID_1_"  style="overflow:visible;"/>
	</clipPath>
	<g class="st1">
		<defs>
			<rect id="SVGID_3_" x="-1.1" y="130.2" width="4196" height="1298.9"/>
		</defs>
		<clipPath id="SVGID_4_">
			<use xlink:href="#SVGID_3_"  style="overflow:visible;"/>
		</clipPath>
		<rect x="130.7" y="791.8" class="st2" width="3669.6" height="631.4"/>
		<path class="st2" d="M3956.7,748.9c0,155.5-125.1,280.9-280.3,280.9c-155.3,0-280.3-125.4-280.3-280.9
			c0-155.5,125-280.9,280.3-280.9C3831.6,468,3956.7,593.4,3956.7,748.9z"/>
		<path class="st2" d="M3251.2,603.8c0,110.3-89.1,198.5-198,198.5c-108.9,0-198.1-88.2-198.1-198.5c0-109.1,89.2-198.4,198.1-198.4
			C3162.1,405.4,3251.2,494.7,3251.2,603.8z"/>
		<path class="st2" d="M3719.2,591.1c0,212.3-171.4,384.1-383.4,384.1c-212,0-383.4-171.8-383.4-384.1
			c0-212.5,171.4-384.3,383.4-384.3C3547.8,206.8,3719.2,378.6,3719.2,591.1z"/>
		<path class="st2" d="M4437.4,1032.1c0,212.3-171.4,384.1-383.4,384.1c-211.9,0-383.3-171.8-383.3-384.1
			c0-212.5,171.4-384.3,383.3-384.3C4266,647.9,4437.4,819.7,4437.4,1032.1z"/>
		<path class="st2" d="M383.3,1046c0,212.4,141.3,384.2-383.4,384.2c-211.9,0-383.4-171.7-383.4-384.2
			c0-212.4,171.5-384.1,383.4-384.1C211.9,661.9,383.3,833.6,383.3,1046z"/>
		<path class="st2" d="M3062.5,769.8c0,212.3-172.6,384.2-383.4,384.2c-211.9,0-383.4-171.8-383.4-384.2
			c0-212.4,171.5-384.3,383.4-384.3C2889.9,385.6,3062.5,557.4,3062.5,769.8z"/>
		<path class="st2" d="M2690.6,645.6c0,171.8-139,310-310.4,310c-170.2,0-309.3-138.2-309.3-310c0-171.7,139-311,309.3-311
			C2551.6,334.6,2690.6,473.9,2690.6,645.6z"/>
		<path class="st2" d="M1378.2,714.1c0,138.1-111.1,249.5-249,249.5c-136.7,0-247.9-111.4-247.9-249.5
			c0-137,111.2-248.4,247.9-248.4C1267.1,465.7,1378.2,577.1,1378.2,714.1z"/>
		<path class="st2" d="M2355.9,733.8c0,172.9-140.1,312.2-312.8,312.2c-172.6,0-312.7-139.3-312.7-312.2
			c0-173,140.1-313.4,312.7-313.4C2215.8,420.4,2355.9,560.8,2355.9,733.8z"/>
		<path class="st2" d="M1570.5,572.5c0,121.9-98.5,220.5-220.1,220.5c-121.6,0-220-98.6-220-220.5c0-121.9,98.4-220.5,220-220.5
			C1472.1,351.9,1570.5,450.6,1570.5,572.5z"/>
		<path class="st2" d="M2090.6,557.4c0,236.7-190,427.1-426.2,427.1c-235.2,0-426.3-190.3-426.3-427.1
			c0-235.7,191.2-427.2,426.3-427.2C1900.6,130.2,2090.6,321.7,2090.6,557.4z"/>
		<path class="st2" d="M1145.4,833.6c0,183.4-147.1,330.8-330.1,330.8c-181.9,0-330.1-147.4-330.1-330.8
			c0-182.3,148.3-329.6,330.1-329.6C998.4,504,1145.4,651.3,1145.4,833.6z"/>
		<path class="st2" d="M866.3,647.9c0,249.5-201.6,451.5-450.6,451.5c-249,0-450.5-201.9-450.5-451.5
			c0-249.5,201.5-451.5,450.5-451.5C664.7,196.4,866.3,398.4,866.3,647.9z"/>
		<path class="st3" d="M2885.3,1093.6c-59.2,38.3-130.9,60.4-206.2,60.4c-45.2,0-86.8-6.9-126.3-20.9c-23.2,0-23.2,0-23.2,0
			c0-9.3,0-9.3,0-9.3c-2.3-1.2-4.6-2.3-6.9-3.5c-52.1,18.6-102,41.8-147.1,70.8c1.1,6.9,1.1,12.7,1.1,18.5
			c0,33.7-24.3,62.7-57.9,67.3c2.3,55.8,2.3,55.8,2.3,55.8c-24.3,0-24.3,0-24.3,0c2.3-55.8,2.3-55.8,2.3-55.8
			c-9.3-1.2-17.4-4.6-25.5-9.3c-49.8,45.2-92.7,97.5-128.6,154.4c592,0,592,0,592,0c67.1-106.8,155.2-198.4,259.5-268.1
			c1.1-30.2,1.1-30.2,1.1-30.2C2961.7,1111,2924.6,1100.6,2885.3,1093.6z"/>
		<path class="st3" d="M2755.5,1082c-67.2,0-133.2,9.3-195.8,26.7c1.2,24.3,1.2,24.3,1.2,24.3c-8.1,0-8.1,0-8.1,0
			c39.4,14,81.1,20.9,126.3,20.9c75.3,0,147.1-22.1,206.2-60.4C2843.5,1085.5,2800.7,1082,2755.5,1082z M2529.6,1118
			c-2.3,1.2-4.6,2.3-6.9,2.3c2.3,1.2,4.6,2.3,6.9,3.5C2529.6,1118,2529.6,1118,2529.6,1118z"/>
		<path class="st4" d="M2529.6,1123.8c0,9.3,0,9.3,0,9.3c23.2,0,23.2,0,23.2,0C2544.7,1130.7,2536.6,1127.2,2529.6,1123.8z"/>
		<path class="st4" d="M2533.1,1061.1c-3.5,56.9-3.5,56.9-3.5,56.9c0,5.8,0,5.8,0,5.8c7,3.5,15.1,6.9,23.2,9.3c8.1,0,8.1,0,8.1,0
			c-1.2-24.3-1.2-24.3-1.2-24.3c-2.3-47.7-2.3-47.7-2.3-47.7c-3.4,0-8.1,1.2-11.6,1.2C2541.2,1062.2,2536.6,1061.1,2533.1,1061.1z"
			/>
		<path class="st5" d="M2598,867.2c-15.1,14-30.2,26.7-47.6,38.3c2.3,36,2.3,36,2.3,36c45.2-36,45.2-36,45.2-36
			c-45.2,52.3-45.2,52.3-45.2,52.3c2.3,48.7,2.3,48.7,2.3,48.7c56.8-46.4,56.8-46.4,56.8-46.4c-55.6,62.6-55.6,62.6-55.6,62.6
			c1.1,38.3,1.1,38.3,1.1,38.3c42.9-5.8,75.3-42.9,75.3-87C2632.7,945,2616.6,904.4,2598,867.2z M2534.3,914.8
			c-9.3,5.9-19.7,10.5-30.1,15.2c33.6,26.7,33.6,26.7,33.6,26.7c1.2-36,1.2-36,1.2-36C2534.3,914.8,2534.3,914.8,2534.3,914.8z
			 M2503,931.1c-13.9,5.8-26.6,10.4-40.5,13.9c-2.3,10.5-4.6,20.9-4.6,29c0,44.1,32.4,80.1,75.2,87c1.2-22,1.2-22,1.2-22
			c-51-56.9-51-56.9-51-56.9c51,42.9,51,42.9,51,42.9c2.3-54.5,2.3-54.5,2.3-54.5C2503,931.1,2503,931.1,2503,931.1z"/>
		<path class="st5" d="M2545.8,776.8c0,0-66,97.4-83.3,168.3c13.9-3.5,26.6-8.1,40.5-13.9c-5.8-6.9-5.8-6.9-5.8-6.9
			c6.9,5.8,6.9,5.8,6.9,5.8c10.4-4.6,20.8-9.3,30.1-15.2c-22-27.8-22-27.8-22-27.8c27.8,19.7,27.8,19.7,27.8,19.7
			c5.8-111.4,5.8-111.4,5.8-111.4c3.4,82.4,3.4,82.4,3.4,82.4c20.9-11.6,20.9-11.6,20.9-11.6c-19.7,27.9-19.7,27.9-19.7,27.9
			c0,11.6,0,11.6,0,11.6c17.4-11.6,32.4-24.3,47.6-38.3C2573.6,818.5,2545.8,776.8,2545.8,776.8z"/>
		<path class="st6" d="M2550.5,905.5c-2.3,1.2-4.6,2.3-6.9,3.5c5.8,4.6,5.8,4.6,5.8,4.6c-3.4,14-3.4,14-3.4,14c-6.9-7-6.9-7-6.9-7
			c-1.2,36-1.2,36-1.2,36c9.3,6.9,9.3,6.9,9.3,6.9c-1.1,17.4-1.1,17.4-1.1,17.4c-9.3-10.4-9.3-10.4-9.3-10.4
			c-2.3,54.5-2.3,54.5-2.3,54.5c11.6,9.4,11.6,9.4,11.6,9.4c0,18.5,0,18.5,0,18.5c-11.6-13.9-11.6-13.9-11.6-13.9
			c-1.2,22-1.2,22-1.2,22c3.5,0,8.1,1.2,12.7,1.2c3.4,0,8.1-1.2,11.6-1.2c-1.1-38.3-1.1-38.3-1.1-38.3c-7,7-7,7-7,7
			c0-18.6,0-18.6,0-18.6c5.8-4.7,5.8-4.7,5.8-4.7c-2.3-48.7-2.3-48.7-2.3-48.7c-3.5,4.6-3.5,4.6-3.5,4.6
			c-1.1-17.4-1.1-17.4-1.1-17.4c4.6-3.5,4.6-3.5,4.6-3.5C2550.5,905.5,2550.5,905.5,2550.5,905.5z"/>
		<path class="st6" d="M2545.8,795.3c-5.8,111.4-5.8,111.4-5.8,111.4c3.5,2.3,3.5,2.3,3.5,2.3c2.3-1.2,4.6-2.3,6.9-3.5
			c0-11.6,0-11.6,0-11.6c-1.2,0-1.2,0-1.2,0c-5.8-12.7-5.8-12.7-5.8-12.7c5.8-3.6,5.8-3.6,5.8-3.6
			C2545.8,795.3,2545.8,795.3,2545.8,795.3z"/>
		<polygon class="st6" points="2483.3,982.2 2534.3,1039.1 2545.8,1053 2545.8,1034.5 2534.3,1025.1 		"/>
		<path class="st6" d="M2504.2,930l-1.2,1.1c33.6,39.5,33.6,39.5,33.6,39.5c9.3,10.4,9.3,10.4,9.3,10.4c1.1-17.4,1.1-17.4,1.1-17.4
			c-9.3-6.9-9.3-6.9-9.3-6.9C2504.2,930,2504.2,930,2504.2,930z"/>
		<path class="st6" d="M2497.2,924.2c5.8,6.9,5.8,6.9,5.8,6.9l1.2-1.1C2497.2,924.2,2497.2,924.2,2497.2,924.2z"/>
		<path class="st6" d="M2543.5,909c-2.3,2.3-5.8,3.5-9.3,5.8c4.6,5.9,4.6,5.9,4.6,5.9c6.9,7,6.9,7,6.9,7c3.4-14,3.4-14,3.4-14
			C2543.5,909,2543.5,909,2543.5,909z"/>
		<path class="st6" d="M2512.3,887c22,27.8,22,27.8,22,27.8c3.4-2.3,6.9-3.5,9.3-5.8c-3.5-2.3-3.5-2.3-3.5-2.3
			C2512.3,887,2512.3,887,2512.3,887z"/>
		<polygon class="st6" points="2611.9,960.2 2555.1,1006.5 2549.3,1011.2 2549.3,1029.8 2556.3,1022.8 		"/>
		<polygon class="st6" points="2598,905.5 2552.8,941.5 2548.2,945 2549.3,962.5 2552.8,957.8 		"/>
		<polygon class="st6" points="2570.1,866.1 2549.3,877.7 2543.5,881.2 2549.3,894 2550.5,894 		"/>
		<path class="st7" d="M3046.3,1035.6c-44,0-44,0-44,0c-4.7,88.2-4.7,88.2-4.7,88.2c-1.1,30.2-1.1,30.2-1.1,30.2
			c17.4-11.6,34.7-23.2,53.2-33.7C3046.3,1035.6,3046.3,1035.6,3046.3,1035.6z"/>
		<path class="st7" d="M3045.1,1020.5c-6.9,1.1-13.9,1.1-22,1.1c-6.9,0-13.9,0-20.8-1.1c0,15.1,0,15.1,0,15.1l0,0c44,0,44,0,44,0
			l0,0C3045.1,1020.5,3045.1,1020.5,3045.1,1020.5z"/>
		<path class="st8" d="M3059,855.7c-9.3,11.6-9.3,11.6-9.3,11.6c-3.4,11.7-6.9,22.1-10.4,33.7c1.2,27.9,1.2,27.9,1.2,27.9
			c50.9-41.8,50.9-41.8,50.9-41.8C3079.8,877.7,3069.4,867.2,3059,855.7z M3098.3,892.8c-55.5,67.4-55.5,67.4-55.5,67.4
			c0,9.3,0,9.3,0,9.3c2.3,51,2.3,51,2.3,51c19.7-1.2,38.2-5.8,55.5-11.6c18.5-33.6,37.2-60.4,37.2-60.4s8.1,12.8,20.8,32.5
			c13.9-9.3,26.6-19.7,39.4-31.3C3162.1,935.7,3128.6,916.1,3098.3,892.8z M2995.3,988c-7,9.3-15.1,19.8-22.1,29
			c9.3,1.2,19.8,3.5,29,3.5c1.1-22,1.1-22,1.1-22C2995.3,988,2995.3,988,2995.3,988z"/>
		<path class="st8" d="M3023.1,527.2c-15.1,0-30.1,1.1-44.1,3.5c17.4,22.1,32.5,45.2,44.1,70.8c1.2-15.1,1.2-15.1,1.2-15.1
			c1.1,18.5,1.1,18.5,1.1,18.5c9.3,22.1,18.5,44.1,24.3,67.3c15.1-11.6,15.1-11.6,15.1-11.6c-12.7,19.7-12.7,19.7-12.7,19.7
			c5.8,29.1,10.4,59.2,10.4,89.4c0,23.2-2.3,45.2-5.8,66.1c52.1-42.9,52.1-42.9,52.1-42.9c-49.8,62.7-49.8,62.7-49.8,62.7
			c10.4,11.6,20.9,22,32.4,31.4c36-30.2,36-30.2,36-30.2c-29,36-29,36-29,36c30.2,23.2,63.8,42.9,99.6,56.8
			c44-45.2,71.9-106.7,71.9-175.2C3269.8,637.5,3159.8,527.2,3023.1,527.2z"/>
		<path class="st8" d="M2979,530.7c-114.6,20.9-202.7,121.9-202.7,243.8c0,119.5,84.6,218.2,196.9,242.5c6.9-9.3,15.1-19.7,22.1-29
			c-76.5-91.7-76.5-91.7-76.5-91.7c86.9,72,86.9,72,86.9,72c4.6-106.8,4.6-106.8,4.6-106.8c-73-90.5-73-90.5-73-90.5
			c74.2,60.3,74.2,60.3,74.2,60.3c3.4-63.7,3.4-63.7,3.4-63.7c-56.8-74.4-56.8-74.4-56.8-74.4c58,45.3,58,45.3,58,45.3
			c6.9-137,6.9-137,6.9-137C3011.5,575.9,2996.5,552.8,2979,530.7z M3025.4,605c3.5,83.5,3.5,83.5,3.5,83.5
			c20.8-16.2,20.8-16.2,20.8-16.2C3044,649,3034.7,627,3025.4,605z M3052,680.4c-22,31.4-22,31.4-22,31.4
			c6.9,140.4,6.9,140.4,6.9,140.4c19.7-16.3,19.7-16.3,19.7-16.3c3.5-20.9,5.8-42.9,5.8-66.1C3062.5,739.6,3057.8,709.4,3052,680.4z
			 M3049.7,867.2c-11.6,14-11.6,14-11.6,14c1.1,19.7,1.1,19.7,1.1,19.7C3042.8,889.4,3046.3,878.9,3049.7,867.2z"/>
		<path class="st9" d="M3024.3,586.4c-1.2,15.1-1.2,15.1-1.2,15.1c1.2,1.2,1.2,2.3,2.3,3.5C3024.3,586.4,3024.3,586.4,3024.3,586.4z
			"/>
		<path class="st9" d="M3023.1,601.5c-6.9,137-6.9,137-6.9,137c1.1,0,1.1,0,1.1,0c7-120.8,7-120.8,7-120.8
			c3.4,71.9,3.4,71.9,3.4,71.9c1.2-1.1,1.2-1.1,1.2-1.1c-3.5-83.5-3.5-83.5-3.5-83.5C3024.3,603.8,3024.3,602.6,3023.1,601.5z
			 M3030,711.8c-1.1,2.3-1.1,2.3-1.1,2.3c8.1,138.1,8.1,138.1,8.1,138.1l0,0C3030,711.8,3030,711.8,3030,711.8z M3015,767.5
			c-3.4,63.7-3.4,63.7-3.4,63.7c1.1,0,1.1,0,1.1,0c3.5-62.6,3.5-62.6,3.5-62.6C3015,767.5,3015,767.5,3015,767.5z M3010.4,861.5
			c-4.6,106.8-4.6,106.8-4.6,106.8l0,0c5.8-105.7,5.8-105.7,5.8-105.7C3010.4,861.5,3010.4,861.5,3010.4,861.5z"/>
		<path class="st9" d="M3039.3,900.9L3039.3,900.9c1.2,27.9,1.2,27.9,1.2,27.9l0,0C3039.3,900.9,3039.3,900.9,3039.3,900.9z"/>
		<path class="st9" d="M3038.2,881.2L3038.2,881.2c1.1,19.7,1.1,19.7,1.1,19.7l0,0C3038.2,881.2,3038.2,881.2,3038.2,881.2z"/>
		<path class="st9" d="M3039.3,900.9c-9.3,24.4-19.7,46.4-32.4,68.5c17.4,13.9,17.4,13.9,17.4,13.9c-17.4,18.6-17.4,18.6-17.4,18.6
			c-3.5-3.5-3.5-3.5-3.5-3.5c-1.1,22-1.1,22-1.1,22c6.9,1.1,13.9,1.1,20.8,1.1c8.1,0,15.1,0,22-1.1c-2.3-51-2.3-51-2.3-51
			c0-9.3,0-9.3,0-9.3c-2.3,2.3-2.3,2.3-2.3,2.3c-18.5-18.6-18.5-18.6-18.5-18.6c18.5-15.1,18.5-15.1,18.5-15.1
			C3039.3,900.9,3039.3,900.9,3039.3,900.9z"/>
		<path class="st9" d="M3024.3,617.7c-7,120.8-7,120.8-7,120.8c12.7,9.3,12.7,9.3,12.7,9.3c-12.7,23.2-12.7,23.2-12.7,23.2
			c-1.1-2.3-1.1-2.3-1.1-2.3c-3.5,62.6-3.5,62.6-3.5,62.6c17.4,14,17.4,14,17.4,14c-17.4,18.5-17.4,18.5-17.4,18.5
			c-1.1-1.2-1.1-1.2-1.1-1.2c-5.8,105.7-5.8,105.7-5.8,105.7c1.2,1.1,1.2,1.1,1.2,1.1c12.7-22.1,23.1-44.1,32.4-68.5
			c-1.1-19.7-1.1-19.7-1.1-19.7c-3.5,4.6-3.5,4.6-3.5,4.6c-18.5-17.4-18.5-17.4-18.5-17.4c20.8-16.2,20.8-16.2,20.8-16.2
			c-8.1-138.1-8.1-138.1-8.1-138.1l0,0c-4.6-20.9-4.6-20.9-4.6-20.9c3.4-3.5,3.4-3.5,3.4-3.5
			C3024.3,617.7,3024.3,617.7,3024.3,617.7z"/>
		<path class="st9" d="M3006.9,969.4c-4.6,5.8-8.1,11.6-11.6,18.5c8.1,10.5,8.1,10.5,8.1,10.5c3.5,3.5,3.5,3.5,3.5,3.5
			c17.4-18.6,17.4-18.6,17.4-18.6C3006.9,969.4,3006.9,969.4,3006.9,969.4z"/>
		<path class="st9" d="M2918.8,896.3c76.5,91.7,76.5,91.7,76.5,91.7c3.5-7,7-12.7,11.6-18.5c-1.2-1.1-1.2-1.1-1.2-1.1l0,0
			C2918.8,896.3,2918.8,896.3,2918.8,896.3z"/>
		<polygon class="st9" points="2937.4,771 3010.4,861.5 3011.5,862.6 3012.7,863.8 3030,845.2 3012.7,831.3 3011.5,831.3 		"/>
		<polygon class="st9" points="2958.2,693.1 3015,767.5 3016.2,768.7 3017.3,771 3030,747.7 3017.3,738.5 3016.2,738.5 		"/>
		<path class="st9" d="M3091.4,887c-50.9,41.8-50.9,41.8-50.9,41.8l0,0c-18.5,15.1-18.5,15.1-18.5,15.1
			c18.5,18.6,18.5,18.6,18.5,18.6c2.3-2.3,2.3-2.3,2.3-2.3l0,0c55.5-67.4,55.5-67.4,55.5-67.4C3096,890.5,3093.7,888.2,3091.4,887z"
			/>
		<path class="st9" d="M3127.4,856.9c-36,30.2-36,30.2-36,30.2c2.3,1.1,4.6,3.5,6.9,5.8C3127.4,856.9,3127.4,856.9,3127.4,856.9z"/>
		<path class="st9" d="M3053.2,851.1c-1.2,4.6-2.3,10.4-3.5,16.2c9.3-11.6,9.3-11.6,9.3-11.6
			C3056.7,854.5,3055.5,852.2,3053.2,851.1z"/>
		<path class="st9" d="M3108.8,793c-52.1,42.9-52.1,42.9-52.1,42.9c-1.1,4.6-2.3,10.5-3.5,15.1c2.3,1.1,3.5,3.5,5.8,4.6
			C3108.8,793,3108.8,793,3108.8,793z"/>
		<path class="st9" d="M3056.7,835.9c-19.7,16.3-19.7,16.3-19.7,16.3l0,0c-20.8,16.2-20.8,16.2-20.8,16.2
			c18.5,17.4,18.5,17.4,18.5,17.4c3.5-4.6,3.5-4.6,3.5-4.6l0,0c11.6-14,11.6-14,11.6-14c1.2-5.8,2.3-11.6,3.5-16.2
			C3054.3,846.4,3055.5,840.5,3056.7,835.9z"/>
		<path class="st9" d="M3064.8,660.7c-15.1,11.6-15.1,11.6-15.1,11.6c0,2.3,1.2,5.8,2.3,8.1C3064.8,660.7,3064.8,660.7,3064.8,660.7
			z"/>
		<path class="st9" d="M3049.7,672.3c-20.8,16.2-20.8,16.2-20.8,16.2c-1.2,1.1-1.2,1.1-1.2,1.1c-3.4,3.5-3.4,3.5-3.4,3.5
			c4.6,20.9,4.6,20.9,4.6,20.9l0,0c1.1-2.3,1.1-2.3,1.1-2.3c22-31.4,22-31.4,22-31.4C3050.9,678.1,3049.7,674.6,3049.7,672.3z"/>
		<path class="st4" d="M2318.8,1277c-3.5,0-7,1.2-10.4,1.2c-2.3,0-5.8-1.2-9.3-1.2c-2.3,55.8-2.3,55.8-2.3,55.8
			c24.3,0,24.3,0,24.3,0C2318.8,1277,2318.8,1277,2318.8,1277z"/>
		<path class="st10" d="M2308.4,1054.1c0,0-67.2,102.2-67.2,155.5c0,24.4,12.7,46.5,32.4,58.1c9.3-6.9,17.4-15.1,25.5-22.1
			c-41.7-47.6-41.7-47.6-41.7-47.6c44,36,44,36,44,36c1.1-37.1,1.1-37.1,1.1-37.1c-34.7-41.8-34.7-41.8-34.7-41.8
			c35.9,27.9,35.9,27.9,35.9,27.9c1.1-37.1,1.1-37.1,1.1-37.1c-15.1-20.9-15.1-20.9-15.1-20.9c16.2,9.3,16.2,9.3,16.2,9.3
			c2.3-64.9,2.3-64.9,2.3-64.9c4.6,87,4.6,87,4.6,87c22.1-15,22.1-15,22.1-15c-20.9,25.5-20.9,25.5-20.9,25.5
			c1.2,27.9,1.2,27.9,1.2,27.9c31.4-24.4,31.4-24.4,31.4-24.4c-31.4,36-31.4,36-31.4,36c1.1,25.6,1.1,25.6,1.1,25.6
			c18.6-13.9,38.3-27.9,59.2-40.6C2364,1135.3,2308.4,1054.1,2308.4,1054.1z"/>
		<path class="st11" d="M2375.6,1191.1c-20.9,12.7-40.5,26.7-59.2,40.6c1.2,16.3,1.2,16.3,1.2,16.3c39.4-32.5,39.4-32.5,39.4-32.5
			c-39.4,44.1-39.4,44.1-39.4,44.1c1.2,17.4,1.2,17.4,1.2,17.4c33.6-4.6,57.9-33.7,57.9-67.3
			C2376.7,1203.8,2376.7,1198.1,2375.6,1191.1z M2299.1,1245.6c-8.1,7-16.2,15.1-25.5,22.1c8.1,4.6,16.2,8.1,25.5,9.3
			c1.1-30.2,1.1-30.2,1.1-30.2C2299.1,1245.6,2299.1,1245.6,2299.1,1245.6z"/>
		<path class="st12" d="M2308.4,1069.3c-2.3,64.9-2.3,64.9-2.3,64.9c4.6,2.3,4.6,2.3,4.6,2.3c-4.6,10.5-4.6,10.5-4.6,10.5
			c-1.2-1.2-1.2-1.2-1.2-1.2c-1.1,37.1-1.1,37.1-1.1,37.1c3.4,3.5,3.4,3.5,3.4,3.5c-1.1,12.7-1.1,12.7-1.1,12.7
			c-3.5-2.3-3.5-2.3-3.5-2.3c-1.1,37.1-1.1,37.1-1.1,37.1c4.6,3.5,4.6,3.5,4.6,3.5c0,15.1,0,15.1,0,15.1c-5.8-5.9-5.8-5.9-5.8-5.9
			c-1.1,30.2-1.1,30.2-1.1,30.2c3.4,0,6.9,1.2,9.3,1.2c3.4,0,6.9-1.2,10.4-1.2c-1.2-17.4-1.2-17.4-1.2-17.4
			c-9.3,10.4-9.3,10.4-9.3,10.4c0-13.9,0-13.9,0-13.9c9.3-8.1,9.3-8.1,9.3-8.1c-1.2-16.3-1.2-16.3-1.2-16.3
			c-1.1-25.6-1.1-25.6-1.1-25.6c-6.9,8.2-6.9,8.2-6.9,8.2c-1.2-12.8-1.2-12.8-1.2-12.8c8.1-6.9,8.1-6.9,8.1-6.9
			c-1.2-27.9-1.2-27.9-1.2-27.9c-5.8,5.8-5.8,5.8-5.8,5.8c-2.3-10.4-2.3-10.4-2.3-10.4c6.9-5.8,6.9-5.8,6.9-5.8
			C2308.4,1069.3,2308.4,1069.3,2308.4,1069.3z"/>
		<polygon class="st12" points="2357.1,1215.5 2317.6,1248 2308.4,1256.1 2308.4,1270 2317.6,1259.6 		"/>
		<polygon class="st12" points="2346.7,1170.2 2315.3,1194.6 2307.2,1201.5 2308.4,1214.4 2315.3,1206.2 		"/>
		<polygon class="st12" points="2335.1,1141.2 2313,1156.3 2306.1,1162.1 2308.4,1172.5 2314.1,1166.7 		"/>
		<polygon class="st12" points="2257.4,1198.1 2299.1,1245.6 2300.2,1246.8 2306.1,1252.7 2306.1,1237.5 2301.4,1234 		"/>
		<polygon class="st12" points="2267.8,1155.1 2302.6,1196.9 2306.1,1199.2 2307.2,1186.5 2303.7,1183 		"/>
		<polygon class="st12" points="2289.8,1124.9 2304.9,1145.9 2306.1,1147 2310.7,1136.5 2306.1,1134.2 		"/>
		<path class="st13" d="M1882.1,1423.2c-1721.3,0-1721.3,0-1721.3,0c-6.9,0-13.9,1.2-22,1.2c1744.5,0,1744.5,0,1744.5,0
			L1882.1,1423.2z"/>
		<g class="st14">
			<path class="st15" d="M1136.2,1217.5c-4.6,16.3-10.4,33.7-16.2,48.8c3.4,1.1,6.9,1.1,9.3,1.1c40.5,0,77.5-9.3,110-25.6
				C1205.7,1231.5,1170.9,1223.4,1136.2,1217.5z"/>
			<g>
				<polygon class="st16" points="647.4,1422.2 674,860.5 700.6,1422.2 				"/>
				<polygon class="st16" points="674,1288.8 570.8,1171.6 674,1257.4 				"/>
				<polygon class="st16" points="674,1169.3 593,1074 677.4,1141.4 				"/>
				<polygon class="st16" points="674,1081 619.6,1012.5 680.9,1056.7 				"/>
				<polygon class="st16" points="680.9,1251.6 784,1134.5 680.9,1219.1 				"/>
				<polygon class="st16" points="680.9,1137.9 762,1042.7 677.4,1110 				"/>
				<polygon class="st16" points="680.9,1025.3 714.6,977.7 670.5,1003.2 				"/>
				<path class="st17" d="M674,827.9c0,0-144.8,217.1-144.8,330.8c0,4.6,0,9.4,0,14c15.1,26.6,33.6,60.3,47.5,93.9
					c20.9,18.6,47.6,31.4,76.5,36c1.2-36,1.2-36,1.2-36c-83.5-95.1-83.5-95.1-83.5-95.1c84.6,70.8,84.6,70.8,84.6,70.8
					c4.7-89.4,4.7-89.4,4.7-89.4C593,1074,593,1074,593,1074c68.3,54.5,68.3,54.5,68.3,54.5c2.3-60.3,2.3-60.3,2.3-60.3
					c-44-55.8-44-55.8-44-55.8c45.2,32.5,45.2,32.5,45.2,32.5c9.3-184.5,9.3-184.5,9.3-184.5c6.9,137,6.9,137,6.9,137
					c33.7-19.8,33.7-19.8,33.7-19.8c-32.5,46.5-32.5,46.5-32.5,46.5c3.4,78.9,3.4,78.9,3.4,78.9c76.5-60.4,76.5-60.4,76.5-60.4
					c-75.3,88.3-75.3,88.3-75.3,88.3c3.4,81.2,3.4,81.2,3.4,81.2c93.8-77.7,93.8-77.7,93.8-77.7c-92.7,104.4-92.7,104.4-92.7,104.4
					c3.4,63.9,3.4,63.9,3.4,63.9c70.7-10.4,125.1-70.8,125.1-143.9C819.9,1045,674,827.9,674,827.9z"/>
				<path class="st18" d="M674,860.5c-9.3,184.5-9.3,184.5-9.3,184.5c16.2,11.6,16.2,11.6,16.2,11.6C674,1081,674,1081,674,1081
					c-10.4-12.7-10.4-12.7-10.4-12.7c-2.3,60.3-2.3,60.3-2.3,60.3c16.2,12.8,16.2,12.8,16.2,12.8c-3.4,27.9-3.4,27.9-3.4,27.9
					c-13.9-16.3-13.9-16.3-13.9-16.3c-4.7,89.4-4.7,89.4-4.7,89.4c18.5,15.1,18.5,15.1,18.5,15.1c0,31.4,0,31.4,0,31.4
					c-19.7-22.1-19.7-22.1-19.7-22.1c-1.2,36-1.2,36-1.2,36c7,1.2,13.9,1.2,20.9,1.2c6.9,0,13.9,0,20.8-1.2
					c-3.4-63.9-3.4-63.9-3.4-63.9c-10.4,12.8-10.4,12.8-10.4,12.8c0-32.5,0-32.5,0-32.5c9.3-6.9,9.3-6.9,9.3-6.9
					c-3.4-81.2-3.4-81.2-3.4-81.2c-5.8,6.9-5.8,6.9-5.8,6.9c-3.5-27.9-3.5-27.9-3.5-27.9c8.1-6.9,8.1-6.9,8.1-6.9
					c-3.4-78.9-3.4-78.9-3.4-78.9c-1.2,1.2-1.2,1.2-1.2,1.2c-10.4-22.1-10.4-22.1-10.4-22.1c10.4-5.8,10.4-5.8,10.4-5.8
					C674,860.5,674,860.5,674,860.5z"/>
				<polygon class="st18" points="570.8,1171.6 654.3,1266.7 674,1288.8 674,1257.4 655.4,1242.4 				"/>
				<polygon class="st18" points="593,1074 660.1,1153 674,1169.3 677.4,1141.4 661.2,1128.6 				"/>
				<polygon class="st18" points="619.6,1012.5 663.6,1068.3 674,1081 680.9,1056.7 664.7,1045 				"/>
				<polygon class="st18" points="784,1134.5 690.2,1212.2 680.9,1219.1 680.9,1251.6 691.3,1238.8 				"/>
				<polygon class="st18" points="762,1042.7 685.5,1103.1 677.4,1110 680.9,1137.9 686.7,1131 				"/>
				<polygon class="st18" points="714.6,977.7 680.9,997.5 670.5,1003.2 680.9,1025.3 682.1,1024.2 				"/>
			</g>
			<path class="st19" d="M1447.8,984.2c0,152-124,276.3-275.7,276.3c-151.7,0-274.5-124.2-274.5-276.3s122.8-275,274.5-275
				C1323.8,709.2,1447.8,832.2,1447.8,984.2z"/>
			<polygon class="st20" points="1173.2,775.3 1140.8,1433.4 1205.7,1433.4 			"/>
			<polygon class="st20" points="1173.2,808.9 1148.9,1275.6 1197.5,1275.6 			"/>
			<polygon class="st20" points="1056.2,1120.1 1153.6,1237.3 1173.2,1217.5 			"/>
			<polygon class="st20" points="1077.1,980.7 1160.5,1084.1 1180.2,1064.3 			"/>
			<polygon class="st20" points="1100.2,893.7 1166.3,979.6 1180.2,955.2 			"/>
			<polygon class="st20" points="1289.1,1076 1191.8,1194.3 1172.1,1174.6 			"/>
			<polygon class="st20" points="1268.3,1006.3 1184.8,1108.5 1165.1,1088.7 			"/>
			<polygon class="st20" points="1218.4,857.7 1177.9,916.9 1173.2,893.7 			"/>
			<g>
				<polygon class="st16" points="519.9,1421.3 502.6,1064.9 486.4,1421.3 				"/>
				<polygon class="st16" points="502.6,1336.5 567.4,1263.4 502.6,1316.8 				"/>
				<polygon class="st16" points="502.6,1261 553.5,1200.7 500.2,1243.7 				"/>
				<polygon class="st16" points="502.6,1205.4 537.3,1162.4 497.9,1190.2 				"/>
				<polygon class="st16" points="497.9,1313.3 433,1239 497.9,1293.5 				"/>
				<polygon class="st16" points="497.9,1241.4 447,1181 500.2,1223.9 				"/>
				<polygon class="st16" points="497.9,1169.4 477.1,1140.4 504.9,1156.7 				"/>
				<path class="st21" d="M502.6,1045.3c0,0-91.5,136.9-91.5,208.9c0,27.9,11.6,53.4,31.2,69.6c15.2-6.9,31.4-13.9,46.4-20.9
					C433,1239,433,1239,433,1239c59.2,48.7,59.2,48.7,59.2,48.7c2.3-51,2.3-51,2.3-51C447,1181,447,1181,447,1181
					c48.6,38.3,48.6,38.3,48.6,38.3c2.3-49.9,2.3-49.9,2.3-49.9c-20.8-29-20.8-29-20.8-29c22,12.7,22,12.7,22,12.7
					c3.4-88.2,3.4-88.2,3.4-88.2c5.8,118.4,5.8,118.4,5.8,118.4c28.9-20.9,28.9-20.9,28.9-20.9c-27.8,34.9-27.8,34.9-27.8,34.9
					c1.1,38.3,1.1,38.3,1.1,38.3c42.8-34.8,42.8-34.8,42.8-34.8c-41.7,49.9-41.7,49.9-41.7,49.9c2.3,41.8,2.3,41.8,2.3,41.8
					c11.6-4.6,23.1-9.3,34.7-13.9c18.5-15.1,18.5-15.1,18.5-15.1c-10.4,12.8-10.4,12.8-10.4,12.8c11.6-4.6,24.4-9.3,37.1-12.8
					c0-3.5,1.2-5.8,1.2-9.3c0-19.7-8.1-46.4-18.6-72c-25.5-24.3-44-56.8-47.5-93.9C514.2,1062.6,502.6,1045.3,502.6,1045.3z"/>
				<path class="st22" d="M594.1,1263.4c-12.7,3.5-25.6,8.2-37.1,12.8c-41.7,46.4-41.7,46.4-41.7,46.4c1.2,23.2,1.2,23.2,1.2,23.2
					C558.1,1340,590.6,1305.2,594.1,1263.4z M548.9,1278.5c-11.6,4.7-23.1,9.3-34.7,13.9c0,15.1,0,15.1,0,15.1
					C548.9,1278.5,548.9,1278.5,548.9,1278.5z M488.7,1302.8c-15.1,7-31.2,14-46.4,20.9c12.9,11.6,29,19.8,47.6,22.1
					c1.1-40.6,1.1-40.6,1.1-40.6C488.7,1302.8,488.7,1302.8,488.7,1302.8z"/>
				<path class="st23" d="M529.2,1088.2c3.5,37.1,22,69.6,47.5,93.9C562.8,1148.5,544.2,1114.8,529.2,1088.2z"/>
				<path class="st24" d="M502.6,1064.9c-3.4,88.2-3.4,88.2-3.4,88.2c5.8,3.6,5.8,3.6,5.8,3.6c-6.9,12.7-6.9,12.7-6.9,12.7l0,0
					c-2.3,49.9-2.3,49.9-2.3,49.9c4.6,4.6,4.6,4.6,4.6,4.6c-2.3,17.4-2.3,17.4-2.3,17.4c-3.4-4.6-3.4-4.6-3.4-4.6
					c-2.3,51-2.3,51-2.3,51c5.8,5.8,5.8,5.8,5.8,5.8c0,19.8,0,19.8,0,19.8c-6.9-8.1-6.9-8.1-6.9-8.1c-1.1,40.6-1.1,40.6-1.1,40.6
					c3.4,0,8.1,1.2,12.7,1.2c4.6,0,9.3-1.2,13.9-1.2c-1.2-23.2-1.2-23.2-1.2-23.2c-12.7,13.9-12.7,13.9-12.7,13.9
					c0-19.7,0-19.7,0-19.7c11.6-9.3,11.6-9.3,11.6-9.3c0-15.1,0-15.1,0-15.1c-2.3-41.8-2.3-41.8-2.3-41.8
					c-9.3,10.4-9.3,10.4-9.3,10.4c-2.3-17.4-2.3-17.4-2.3-17.4c10.4-8.1,10.4-8.1,10.4-8.1c-1.1-38.3-1.1-38.3-1.1-38.3
					c-7,8.1-7,8.1-7,8.1c-4.6-15.1-4.6-15.1-4.6-15.1c10.4-6.9,10.4-6.9,10.4-6.9C502.6,1064.9,502.6,1064.9,502.6,1064.9z"/>
				<polygon class="st24" points="567.4,1263.4 548.9,1278.5 514.2,1307.5 502.6,1316.8 502.6,1336.5 515.3,1322.6 557,1276.2 				
					"/>
				<polygon class="st24" points="553.5,1200.7 510.7,1235.6 500.2,1243.7 502.6,1261 511.9,1250.6 				"/>
				<polygon class="st24" points="537.3,1162.4 508.4,1183.3 497.9,1190.2 502.6,1205.4 509.5,1197.3 				"/>
				<polygon class="st24" points="433,1239 488.7,1302.8 491,1305.2 497.9,1313.3 497.9,1293.5 492.2,1287.8 				"/>
				<polygon class="st24" points="447,1181 494.5,1236.7 497.9,1241.4 500.2,1223.9 495.6,1219.3 				"/>
				<polygon class="st24" points="477.1,1140.4 497.9,1169.4 504.9,1156.7 499.1,1153.1 				"/>
			</g>
		</g>
		<path class="st25" d="M4246.3,1423.2c-156.3-251.9-435.5-421.3-755.2-421.3c-318.5,0-597.6,169.4-754,421.3
			C4246.3,1423.2,4246.3,1423.2,4246.3,1423.2z"/>
		<polygon class="st26" points="3429.7,1158.6 3448.2,771 3466.7,1158.6 		"/>
		<polygon class="st26" points="3448.2,1065.8 3377.5,985.6 3448.2,1044.9 		"/>
		<polygon class="st26" points="3448.2,984.5 3392.5,918.4 3450.5,964.8 		"/>
		<polygon class="st26" points="3448.2,923 3411.1,876.5 3452.8,906.7 		"/>
		<polygon class="st26" points="3452.8,1040.2 3524.6,960.2 3452.8,1018.1 		"/>
		<polygon class="st26" points="3452.8,962.5 3509.5,897.4 3451.7,942.7 		"/>
		<polygon class="st26" points="3452.8,884.7 3476,852.2 3447.1,869.6 		"/>
		<path class="st27" d="M3474.8,948.5c-4.6,2.3-9.3,4.7-15.1,5.9c-2.3,3.5-2.3,3.5-2.3,3.5c2.3,45.2,2.3,45.2,2.3,45.2
			c4.6,0,8.1,0,12.7,0c16.2-13.9,16.2-13.9,16.2-13.9C3482.9,976.4,3478.3,962.5,3474.8,948.5z M3430.8,963.6
			c-26.6,5.8-54.5,10.4-82.3,11.6v1.1c0,12.9,2.3,25.6,6.9,36c13.9-1.1,27.8-3.5,41.8-4.6c-19.8-22.1-19.8-22.1-19.8-22.1
			c25.6,20.9,25.6,20.9,25.6,20.9c11.6-1.1,23.2-2.3,34.7-2.3c1.2-31.3,1.2-31.3,1.2-31.3C3430.8,963.6,3430.8,963.6,3430.8,963.6z
			 M3492.2,996.2c-5.8,5.8-5.8,5.8-5.8,5.8c2.4,0,3.5,0,4.7,0c1.1,0,3.4,0,4.6,0C3494.5,1000.8,3493.4,998.5,3492.2,996.2z"/>
		<path class="st27" d="M3448.2,748.9c0,0-98.5,147.4-99.6,226.3c27.8-1.2,55.7-5.8,82.3-11.6c-38.3-45.2-38.3-45.2-38.3-45.2
			c47.6,37.2,47.6,37.2,47.6,37.2c1.2-40.7,1.2-40.7,1.2-40.7c-30.1-38.3-30.1-38.3-30.1-38.3c31.2,22.1,31.2,22.1,31.2,22.1
			c5.8-127.6,5.8-127.6,5.8-127.6c4.6,95.1,4.6,95.1,4.6,95.1c15.1-9.3,15.1-9.3,15.1-9.3c2.3-19.8,6.9-38.3,12.7-55.8
			C3463.2,769.8,3448.2,748.9,3448.2,748.9z M3467.9,864.9c-13.9,18.6-13.9,18.6-13.9,18.6c2.3,55.7,2.3,55.7,2.3,55.7
			c13.9-11.6,13.9-11.6,13.9-11.6c-2.3-14-3.5-29.1-3.5-42.9C3466.7,877.7,3466.7,870.7,3467.9,864.9z M3472.5,939.2
			c-12.7,15.1-12.7,15.1-12.7,15.1c5.8-1.1,10.4-3.6,15.1-5.9C3473.7,946.2,3473.7,942.7,3472.5,939.2z"/>
		<path class="st28" d="M3491,1001.9c-1.2,0-2.3,0-4.7,0c-25.4,30.2-25.4,30.2-25.4,30.2c2.3,44.1,2.3,44.1,2.3,44.1
			c23.1-3.5,44-15.1,59-31.4c-10.4-13.9-19.7-27.9-26.6-42.9C3494.5,1001.9,3492.2,1001.9,3491,1001.9z M3472.5,1003.1
			c-4.6,0-8.1,0-12.7,0c0,10.4,0,10.4,0,10.4C3472.5,1003.1,3472.5,1003.1,3472.5,1003.1z M3437.8,1004.2c-11.6,0-23.1,1.2-34.7,2.3
			c32.4,27.9,32.4,27.9,32.4,27.9C3437.8,1004.2,3437.8,1004.2,3437.8,1004.2z M3397.3,1007.7c-14,1.1-27.9,3.5-41.8,4.6
			c12.7,33.7,42.9,58.1,78.8,63.9c1.1-25.6,1.1-25.6,1.1-25.6C3397.3,1007.7,3397.3,1007.7,3397.3,1007.7z"/>
		<path class="st29" d="M3448.2,771c-5.8,127.6-5.8,127.6-5.8,127.6c10.4,8.1,10.4,8.1,10.4,8.1c-4.6,16.3-4.6,16.3-4.6,16.3
			c-6.9-8.2-6.9-8.2-6.9-8.2c-1.2,40.7-1.2,40.7-1.2,40.7c10.4,9.3,10.4,9.3,10.4,9.3c-2.3,19.7-2.3,19.7-2.3,19.7
			c-9.3-11.6-9.3-11.6-9.3-11.6c-1.2,31.3-1.2,31.3-1.2,31.3c-2.3,30.2-2.3,30.2-2.3,30.2c12.7,10.4,12.7,10.4,12.7,10.4
			c0,20.9,0,20.9,0,20.9c-12.7-15.1-12.7-15.1-12.7-15.1c-1.1,25.6-1.1,25.6-1.1,25.6c4.6,0,9.3,0,13.9,0c5.8,0,10.4,0,15.1,0
			c-2.3-44.1-2.3-44.1-2.3-44.1c-8.1,8.1-8.1,8.1-8.1,8.1c0-22.1,0-22.1,0-22.1c6.9-4.6,6.9-4.6,6.9-4.6c0-10.4,0-10.4,0-10.4
			c-2.3-45.2-2.3-45.2-2.3-45.2c-4.6,4.6-4.6,4.6-4.6,4.6c-1.1-19.8-1.1-19.8-1.1-19.8c4.6-3.5,4.6-3.5,4.6-3.5
			c-2.3-55.7-2.3-55.7-2.3-55.7c-1.2,1.2-1.2,1.2-1.2,1.2c-5.8-15.2-5.8-15.2-5.8-15.2c5.8-3.5,5.8-3.5,5.8-3.5
			C3448.2,771,3448.2,771,3448.2,771z"/>
		<polygon class="st29" points="3377.5,985.6 3397.3,1007.7 3435.5,1050.6 3448.2,1065.8 3448.2,1044.9 3435.5,1034.5 3403,1006.5 
					"/>
		<polygon class="st29" points="3392.5,918.4 3430.8,963.6 3438.9,972.9 3448.2,984.5 3450.5,964.8 3440.1,955.5 		"/>
		<polygon class="st29" points="3411.1,876.5 3441.3,914.8 3448.2,923 3452.8,906.7 3442.4,898.6 		"/>
		<path class="st29" d="M3488.7,989.2c-16.2,13.9-16.2,13.9-16.2,13.9c-12.7,10.4-12.7,10.4-12.7,10.4c-6.9,4.6-6.9,4.6-6.9,4.6
			c0,22.1,0,22.1,0,22.1c8.1-8.1,8.1-8.1,8.1-8.1c25.4-30.2,25.4-30.2,25.4-30.2c5.8-5.8,5.8-5.8,5.8-5.8
			C3491,993.8,3489.9,991.5,3488.7,989.2z"/>
		<path class="st29" d="M3470.2,927.7c-13.9,11.6-13.9,11.6-13.9,11.6c-4.6,3.5-4.6,3.5-4.6,3.5c1.1,19.8,1.1,19.8,1.1,19.8
			c4.6-4.6,4.6-4.6,4.6-4.6c2.3-3.5,2.3-3.5,2.3-3.5c12.7-15.1,12.7-15.1,12.7-15.1C3471.4,935.7,3471.4,932.3,3470.2,927.7z"/>
		<path class="st29" d="M3467.9,856.9c-15.1,9.3-15.1,9.3-15.1,9.3c-5.8,3.5-5.8,3.5-5.8,3.5c5.8,15.2,5.8,15.2,5.8,15.2
			c1.2-1.2,1.2-1.2,1.2-1.2c13.9-18.6,13.9-18.6,13.9-18.6C3467.9,861.5,3467.9,859.2,3467.9,856.9z"/>
		<polygon class="st30" points="3723.9,688.5 3693.8,1303.7 3754,1303.7 		"/>
		<polygon class="st30" points="3723.9,721 3700.7,1155.1 3747,1155.1 		"/>
		<polygon class="st30" points="3615,1011.2 3705.3,1120.3 3723.9,1101.8 		"/>
		<polygon class="st30" points="3634.6,881.2 3712.3,977.5 3730.8,959 		"/>
		<polygon class="st30" points="3655.5,799.9 3718.1,880.1 3730.8,856.9 		"/>
		<polygon class="st30" points="3832.8,970.6 3741.2,1079.7 3722.7,1061.1 		"/>
		<polygon class="st30" points="3813.1,904.4 3735.5,1000.8 3716.9,982.2 		"/>
		<polygon class="st30" points="3766.7,765.1 3728.5,822 3723.9,799.9 		"/>
		<path class="st31" d="M3546.7,998.5c-1.1,2.3-1.1,3.5-2.3,5.8c5.8,0,10.4,0,16.2,1.2C3554.8,1003.1,3551.3,1000.8,3546.7,998.5z"
			/>
		<path class="st31" d="M3723.9,627c-2.4,0-4.7,0-5.8,0c-6.9,63.8-27.8,123-61.5,174c60.3,45.4,60.3,45.4,60.3,45.4
			c7-157.9,7-157.9,7-157.9c5.8,106.8,5.8,106.8,5.8,106.8c37-30.2,37-30.2,37-30.2c-35.9,54.6-35.9,54.6-35.9,54.6
			c0,5.8,0,5.8,0,5.8c38.2-60.4,92.7-108,156.3-139.3C3842,649,3785.2,627,3723.9,627z M3656.6,801.1
			c-31.2,47.7-71.7,87.1-120.3,117.3c8.1,20.9,12.7,40.6,12.7,58c0,8.1-1.1,15.2-2.3,22.1c4.6,2.3,8.1,4.6,13.9,6.9
			c17.4,1.1,35.9,3.4,54.4,5.8l0,0c18.5,2.3,37,5.8,55.7,9.3c1.2-27.8,4.6-54.5,11.6-81.2c-47.6-58-47.6-58-47.6-58
			c52.2,41.8,52.2,41.8,52.2,41.8c4.6-19.8,12.7-38.3,20.8-55.8C3656.6,801.1,3656.6,801.1,3656.6,801.1z"/>
		<path class="st31" d="M3718.1,627c-110.1,2.3-203.9,74.3-237.5,174c18.5,32.5,42.8,76.6,55.7,117.3
			c48.6-30.2,89.1-69.6,120.3-117.3c-1.1-1.1-1.1-1.1-1.1-1.1c1.1,1.1,1.1,1.1,1.1,1.1C3690.3,750.1,3711.1,690.8,3718.1,627z"/>
		<path class="st31" d="M3887.2,686.2c-63.7,31.3-118.2,78.9-156.3,139.3c6.9,139.3,6.9,139.3,6.9,139.3
			c75.3-60.4,75.3-60.4,75.3-60.4c-74.2,90.6-74.2,90.6-74.2,90.6c2.3,42.9,2.3,42.9,2.3,42.9c2.4,1.2,4.7,1.2,7,2.3
			c84.6-69.6,84.6-69.6,84.6-69.6c-63.8,76.6-63.8,76.6-63.8,76.6c37.1,11.6,73,26.7,107.8,42.9c62.6-46.4,103.1-121.8,103.1-205.4
			C3979.9,804.6,3944,732.7,3887.2,686.2z M3707.7,867.2c-8.1,17.5-16.2,36-20.8,55.8c25.4,20.8,25.4,20.8,25.4,20.8
			c2.3-67.3,2.3-67.3,2.3-67.3C3707.7,867.2,3707.7,867.2,3707.7,867.2z M3682.2,939.2c-7,26.7-10.4,53.4-11.6,81.2
			c12.7,2.3,24.3,5.9,37,8.2c2.3-53.4,2.3-53.4,2.3-53.4C3682.2,939.2,3682.2,939.2,3682.2,939.2z"/>
		<path class="st32" d="M3544.4,1004.2c-3.4,15.1-11.6,29.1-22.1,40.6c42.9,53.3,106.6,89.3,179.6,96.4c1.1-23.2,1.1-23.2,1.1-23.2
			c-88.1-106.8-88.1-106.8-88.1-106.8c-18.5-2.4-37-4.7-54.4-5.8C3554.8,1004.2,3550.2,1004.2,3544.4,1004.2z M3615,1011.2
			c90.4,75.4,90.4,75.4,90.4,75.4c2.3-58,2.3-58,2.3-58c-12.7-2.3-24.3-5.9-37-8.2C3652,1017,3633.5,1013.5,3615,1011.2z
			 M3741.2,1037.9c0,8.1,0,8.1,0,8.1c7-5.8,7-5.8,7-5.8C3745.9,1039.1,3743.6,1039.1,3741.2,1037.9z M3769,1047.2
			c-25.4,30.2-25.4,30.2-25.4,30.2c0,10.4,0,10.4,0,10.4c3.4,53.4,3.4,53.4,3.4,53.4c48.7-4.7,92.7-23.2,129.8-51.1
			C3842,1073.9,3806.1,1058.7,3769,1047.2z"/>
		<path class="st33" d="M3477.1,947.3c0,1.1-1.1,1.1-2.3,1.1c3.5,14,8.1,27.9,13.9,40.7c18.5-15.2,18.5-15.2,18.5-15.2
			C3496.8,966,3486.4,956.7,3477.1,947.3z M3509.5,975.2c-17.4,20.9-17.4,20.9-17.4,20.9c1.2,2.3,2.3,4.6,3.5,5.8
			c16.2,1.2,32.5,1.2,48.7,2.3c1.2-2.3,1.2-3.5,2.3-5.8C3534,991.5,3521.1,984.5,3509.5,975.2z"/>
		<path class="st33" d="M3536.3,918.4c-18.6,11.6-38.3,20.9-59.2,29c9.3,9.3,19.7,18.6,30.1,26.7c17.4-13.9,17.4-13.9,17.4-13.9
			c-15.1,15.1-15.1,15.1-15.1,15.1c11.6,9.3,24.4,16.3,37.1,23.2c1.2-6.9,2.3-14,2.3-22.1C3549,959,3544.4,939.2,3536.3,918.4z"/>
		<path class="st33" d="M3480.6,801.1c-5.8,17.5-10.4,36-12.7,55.8c8.1-4.7,8.1-4.7,8.1-4.7c-8.1,12.7-8.1,12.7-8.1,12.7
			c-1.2,5.8-1.2,12.7-1.2,19.8c0,13.9,1.2,28.9,3.5,42.9c39.4-30.2,39.4-30.2,39.4-30.2c-37,41.8-37,41.8-37,41.8
			c1.2,3.5,1.2,6.9,2.3,9.3c1.2,0,2.3,0,2.3-1.1c20.9-8.1,40.5-17.4,59.2-29C3523.4,877.7,3499.1,833.6,3480.6,801.1z"/>
		<path class="st34" d="M3495.7,1001.9c6.9,15.1,16.2,29.1,26.6,42.9c10.5-11.6,18.6-25.6,22.1-40.6
			C3528.2,1003.1,3511.9,1003.1,3495.7,1001.9z"/>
		<path class="st35" d="M3524.6,960.2c-17.4,13.9-17.4,13.9-17.4,13.9c-18.5,15.2-18.5,15.2-18.5,15.2c1.1,2.3,2.3,4.6,3.4,6.9
			c17.4-20.9,17.4-20.9,17.4-20.9C3524.6,960.2,3524.6,960.2,3524.6,960.2z"/>
		<path class="st35" d="M3509.5,897.4c-39.4,30.2-39.4,30.2-39.4,30.2c1.2,4.6,1.2,8.1,2.3,11.6
			C3509.5,897.4,3509.5,897.4,3509.5,897.4z"/>
		<path class="st35" d="M3476,852.2c-8.1,4.7-8.1,4.7-8.1,4.7c0,2.3,0,4.6,0,8.1C3476,852.2,3476,852.2,3476,852.2z"/>
		<path class="st36" d="M3723.9,688.5l-7,157.9l1.2,1.1l5.8-126.6l4.6,75.4l1.1-1.1L3723.9,688.5z M3730.8,819.7l-1.2,1.2l8.1,145.1
			v-1.2l-6.9-139.3V819.7z M3714.6,876.5l-2.3,67.3l3.5-66.2L3714.6,876.5z M3710,975.2l-2.3,53.4l-2.3,58l5.8-111.4H3710z
			 M3738.9,995v1.2l2.3,49.9v-8.1L3738.9,995z M3743.6,1077.4L3743.6,1077.4v10.4V1077.4z"/>
		<path class="st36" d="M3723.9,721c-5.8,126.6-5.8,126.6-5.8,126.6c12.7,9.3,12.7,9.3,12.7,9.3c-12.7,23.2-12.7,23.2-12.7,23.2
			c-2.3-2.4-2.3-2.4-2.3-2.4c-3.5,66.2-3.5,66.2-3.5,66.2c18.5,15.1,18.5,15.1,18.5,15.1c-18.5,18.5-18.5,18.5-18.5,18.5
			c-1.1-2.3-1.1-2.3-1.1-2.3c-5.8,111.4-5.8,111.4-5.8,111.4c18.5,15.1,18.5,15.1,18.5,15.1c-18.5,18.5-18.5,18.5-18.5,18.5
			c-2.3-2.3-2.3-2.3-2.3-2.3c-1.1,23.2-1.1,23.2-1.1,23.2c6.9,0,13.9,0,22,0c6.9,0,15,0,23.1,0c-3.4-53.4-3.4-53.4-3.4-53.4
			c0-10.4,0-10.4,0-10.4c-2.4,2.3-2.4,2.3-2.4,2.3c-18.5-18.6-18.5-18.6-18.5-18.6c18.5-15.1,18.5-15.1,18.5-15.1
			c-2.3-49.9-2.3-49.9-2.3-49.9c-3.4,4.6-3.4,4.6-3.4,4.6c-18.5-18.6-18.5-18.6-18.5-18.6c20.9-16.2,20.9-16.2,20.9-16.2
			c-8.1-145.1-8.1-145.1-8.1-145.1c-1.1,1.1-1.1,1.1-1.1,1.1c-4.6-22.1-4.6-22.1-4.6-22.1c4.6-3.5,4.6-3.5,4.6-3.5
			C3723.9,721,3723.9,721,3723.9,721z"/>
		<polygon class="st36" points="3615,1011.2 3615,1011.2 3703,1118 3705.3,1120.3 3723.9,1101.8 3705.3,1086.6 		"/>
		<polygon class="st36" points="3634.6,881.2 3682.2,939.2 3710,975.2 3711.1,975.2 3712.3,977.5 3730.8,959 3712.3,943.9 
			3686.8,923 		"/>
		<polygon class="st36" points="3655.5,799.9 3656.6,801.1 3707.7,867.2 3714.6,876.5 3715.8,877.7 3718.1,880.1 3730.8,856.9 
			3718.1,847.6 3716.9,846.4 3656.6,801.1 		"/>
		<polygon class="st36" points="3832.8,970.6 3748.2,1040.2 3741.2,1046 3722.7,1061.1 3741.2,1079.7 3743.6,1077.4 3769,1047.2 		
			"/>
		<polygon class="st36" points="3813.1,904.4 3737.8,964.8 3737.8,966 3716.9,982.2 3735.5,1000.8 3738.9,996.2 3738.9,995 		"/>
		<polygon class="st36" points="3766.7,765.1 3729.7,795.3 3728.5,796.4 3723.9,799.9 3728.5,822 3729.7,820.9 3730.8,819.7 		"/>
		<polygon class="st26" points="3151.7,1256.1 3137.8,964.8 3123.8,1256.1 		"/>
		<polygon class="st26" points="3137.8,1186.5 3191,1126.1 3137.8,1170.2 		"/>
		<polygon class="st26" points="3137.8,1124.9 3179.5,1076.2 3135.5,1109.9 		"/>
		<polygon class="st26" points="3137.8,1079.7 3165.6,1043.7 3134.3,1067 		"/>
		<polygon class="st26" points="3134.3,1166.7 3081,1106.4 3134.3,1150.5 		"/>
		<polygon class="st26" points="3134.3,1108.7 3091.4,1059.9 3135.5,1093.6 		"/>
		<polygon class="st26" points="3134.3,1049.5 3116.9,1025.1 3138.9,1039.1 		"/>
		<path class="st37" d="M3158.6,981c-6.9,4.6-12.7,8.2-19.7,11.7c3.5,68.4,3.5,68.4,3.5,68.4c23.1-17.4,23.1-17.4,23.1-17.4
			c-23.1,29-23.1,29-23.1,29c0,1.2,0,1.2,0,1.2c17.4-6.9,34.7-14,52.1-20.9C3184.1,1027.5,3170.2,1000.8,3158.6,981z M3135.5,993.8
			c-10.5,5.8-22.1,11.6-34.8,15c-17.4,33.7-35.9,74.3-38.2,104.5c17.4-9.3,34.7-18.6,52.1-26.7c-23.2-26.7-23.2-26.7-23.2-26.7
			c30.1,23.2,30.1,23.2,30.1,23.2c3.4-1.2,7.1-3.5,10.5-4.6c1.2-29,1.2-29,1.2-29c-16.3-24.4-16.3-24.4-16.3-24.4
			c17.4,10.5,17.4,10.5,17.4,10.5C3135.5,993.8,3135.5,993.8,3135.5,993.8z"/>
		<path class="st38" d="M3137.8,948.5c0,0-18.6,26.7-37.2,60.4c12.7-3.4,24.3-9.3,34.8-15c2.3-29.1,2.3-29.1,2.3-29.1
			c1.1,27.9,1.1,27.9,1.1,27.9c6.9-3.4,12.7-7.1,19.7-11.7C3145.9,961.3,3137.8,948.5,3137.8,948.5z"/>
		<path class="st39" d="M3194.5,1053c-17.4,6.9-34.7,14-52.1,20.9c1.1,30.2,1.1,30.2,1.1,30.2c35.9-27.9,35.9-27.9,35.9-27.9
			c-34.7,39.5-34.7,39.5-34.7,39.5c2.3,46.4,2.3,46.4,2.3,46.4c44-36,44-36,44-36c-44,48.8-44,48.8-44,48.8
			c1.1,18.5,1.1,18.5,1.1,18.5c37-4.6,64.8-36,64.8-74.3C3213,1100.6,3204.9,1077.4,3194.5,1053z M3132,1078.5
			c-3.4,1.2-7.1,3.5-10.5,4.6c10.5,8.1,10.5,8.1,10.5,8.1C3132,1078.5,3132,1078.5,3132,1078.5z M3114.6,1086.6
			c-17.4,8.1-34.7,17.5-52.1,26.7c0,2.3,0,3.5,0,5.8c0,38.3,27.8,69.7,63.7,74.3c2.4-32.5,2.4-32.5,2.4-32.5
			c-47.6-54.5-47.6-54.5-47.6-54.5c47.6,40.6,47.6,40.6,47.6,40.6c2.3-41.8,2.3-41.8,2.3-41.8
			C3114.6,1086.6,3114.6,1086.6,3114.6,1086.6z"/>
		<path class="st40" d="M3137.8,964.8c-2.3,29.1-2.3,29.1-2.3,29.1c-1.2,41.8-1.2,41.8-1.2,41.8c4.6,3.5,4.6,3.5,4.6,3.5
			c-4.6,10.4-4.6,10.4-4.6,10.4c-1.1,0-1.1,0-1.1,0c-1.2,29-1.2,29-1.2,29c0,12.7,0,12.7,0,12.7c3.5,2.3,3.5,2.3,3.5,2.3
			c-1.2,15.1-1.2,15.1-1.2,15.1c-3.4-3.5-3.4-3.5-3.4-3.5c-2.3,41.8-2.3,41.8-2.3,41.8c5.8,3.5,5.8,3.5,5.8,3.5
			c0,16.2,0,16.2,0,16.2c-5.8-5.8-5.8-5.8-5.8-5.8c-2.4,32.5-2.4,32.5-2.4,32.5c3.5,1.2,8.1,1.2,11.6,1.2c3.4,0,6.9,0,10.4-1.2
			c-1.1-18.5-1.1-18.5-1.1-18.5c-9.3,11.6-9.3,11.6-9.3,11.6c0-16.3,0-16.3,0-16.3c9.3-8.1,9.3-8.1,9.3-8.1
			c-2.3-46.4-2.3-46.4-2.3-46.4c-6.9,9.3-6.9,9.3-6.9,9.3c-2.3-15-2.3-15-2.3-15c8.1-5.8,8.1-5.8,8.1-5.8
			c-1.1-30.2-1.1-30.2-1.1-30.2c0-1.2,0-1.2,0-1.2c-4.6,6.9-4.6,6.9-4.6,6.9c-3.5-12.7-3.5-12.7-3.5-12.7c8.1-5.9,8.1-5.9,8.1-5.9
			c-3.5-68.4-3.5-68.4-3.5-68.4C3137.8,964.8,3137.8,964.8,3137.8,964.8z"/>
		<polygon class="st40" points="3191,1126.1 3147.1,1162.1 3137.8,1170.2 3137.8,1186.5 3147.1,1174.9 		"/>
		<polygon class="st40" points="3179.5,1076.2 3143.6,1104.1 3135.5,1109.9 3137.8,1124.9 3144.7,1115.7 		"/>
		<polygon class="st40" points="3165.6,1043.7 3142.4,1061.1 3134.3,1067 3137.8,1079.7 3142.4,1072.7 		"/>
		<polygon class="st40" points="3081,1106.4 3128.6,1160.9 3134.3,1166.7 3134.3,1150.5 3128.6,1147 		"/>
		<polygon class="st40" points="3091.4,1059.9 3114.6,1086.6 3130.9,1105.3 3134.3,1108.7 3135.5,1093.6 3132,1091.3 3121.5,1083.2 
					"/>
		<polygon class="st40" points="3116.9,1025.1 3133.2,1049.5 3134.3,1049.5 3138.9,1039.1 3134.3,1035.6 		"/>
	</g>
</g>
<rect x="-10" y="1421.4" class="st15" width="4205.2" height="355.6"/>
<g>
	<path class="st41" d="M943.9,1421.3c0-36,0-36,0-36c0-24.3-19.7-44.1-44-44.1c-3.5,0-3.5,0-3.5,0c-24.3,0-44,19.8-44,44.1
		c0,36,0,36,0,36H943.9z"/>
	<path class="st42" d="M989.1,1421.3c0-2.3,0-2.3,0-2.3c0-24.3-19.8-44.1-44.1-44.1c-2.3,0-2.3,0-2.3,0c-24.3,0-44,19.8-44,44.1
		c0,2.3,0,2.3,0,2.3H989.1z"/>
	<path class="st42" d="M836.1,1421.3c0-1.2,0-1.2,0-1.2c0-13.9-10.4-24.3-24.3-24.3c-1.1,0-1.1,0-1.1,0c-13.9,0-24.3,10.4-24.3,24.3
		c0,1.2,0,1.2,0,1.2H836.1z"/>
	<g>
		<path class="st43" d="M852.4,1329.6c4.6,3.5,10.4,5.8,16.2,5.8c4.6,0,8.1-1.2,11.6-2.3c-6.9-2.3-6.9-3.5-6.9-3.5H852.4z"/>
		<polygon class="st44" points="890.7,1331.9 898.8,1340.1 900,1340.1 900,1338.9 891.9,1330.7 890.7,1330.7 		"/>
		<polygon class="st44" points="895.3,1331.9 903.5,1340.1 904.6,1340.1 904.6,1338.9 896.5,1330.7 895.3,1330.7 		"/>
		<path class="st44" d="M896.5,1341.3c1.1,0,2.3-1.2,3.4-1.2c1.2,0,2.3,1.2,2.3,1.2c1.2,0,1.2,0,1.2,0l0,0c-1.2-1.2-2.3-2.3-3.5-2.3
			c-1.1,0-3.4,1.2-4.6,2.3l0,0C896.5,1341.3,896.5,1341.3,896.5,1341.3z"/>
		<path class="st44" d="M901.1,1341.3c1.1,0,2.3-1.2,3.4-1.2c1.2,0,1.2,1.2,2.3,1.2c1.2,0,1.2,0,1.2,0l0,0c-1.2-1.2-2.3-2.3-3.5-2.3
			c-2.3,0-3.4,1.2-4.6,2.3l0,0C901.1,1341.3,901.1,1341.3,901.1,1341.3z"/>
		<path class="st43" d="M898.8,1290.1c0,2.3,0,2.3,0,2.3c-1.2,0-1.2,0-1.2,0c1.2,3.5,1.2,3.5,1.2,3.5c0,5.9,0,5.9,0,5.9l0,0
			c1.1,0,1.1,0,1.1,0c4.6,8.1,3.5,18.5-2.3,25.5c-3.4,3.5-9.3,4.6-13.9,4.6c-3.6,0-7.1,0-10.5-2.3c2.3,3.5,2.3,3.5,2.3,3.5
			c15.1,0,15.1,0,15.1,0c8.1,0,15.1-6.9,15.1-15.1c0-10.4,0-10.4,0-10.4c2.3,0,3.4-1.2,4.6-3.5c4.6-2.3,4.6-2.3,4.6-2.3
			L898.8,1290.1z"/>
		<path class="st43" d="M883.8,1331.9c4.6,0,9.3-2.3,12.7-5.8c6.9-5.8,6.9-16.2,2.3-23.2c-25.6,25.5-25.6,25.5-25.6,25.5
			C876.7,1330.7,880.2,1331.9,883.8,1331.9z"/>
		<path class="st45" d="M908.1,1301.8l-1.2,1.2c-1.1,0-1.1-1.2-1.1-1.2c0-1.3,0-1.3,1.1-1.3C906.9,1300.5,908.1,1300.5,908.1,1301.8
			z"/>
		<polygon class="st43" points="898.8,1330.7 898.8,1334.2 895.3,1330.7 		"/>
		<polygon class="st43" points="894.2,1330.7 894.2,1335.4 890.7,1331.9 		"/>
	</g>
</g>
<path class="st46" d="M1982.2,1560.3h-272.7c-2.8,0-5-2.3-5-5v-33.1c0-2.8,2.3-5,5-5h272.7c2.8,0,5,2.3,5,5v33.1
	C1987.2,1558,1985,1560.3,1982.2,1560.3z"/>
<g>
	<g>
		<g>
			<g>
				<path class="st47" d="M1802.8,1470.3c9.8-26.8,9.8-26.8,9.8-26.8c-47.8,0-47.8,0-47.8,0c-10.4,0-18.4,8.8-18.4,19.2
					c0,21,0,21,0,21c4,2.3,7.5,5.8,9.8,10.5c2.9,0,2.9,0,2.9,0c3.4,0,3.4,0,3.4,0c7.5,0,12.7-5.8,12.7-12.8c-16.1,0-16.1,0-16.1,0
					c0-19.8,0-19.8,0-19.8L1802.8,1470.3z"/>
				<path class="st48" d="M1929.5,1501.7c0,0-12.1-8.2-12.1-29.2c0-8.2,0-8.2,0-8.2l0,0c0-4.7,0-4.7,0-4.7
					c-8.6-36.7-8.6-36.7-8.6-36.7c-63.3,0-63.3,0-63.3,0s-16.7,50.7,0,39c22.4-14.6,63.3-5.8,69.1,63.6c-6.9,1.7-12.1,7.6-12.1,15.2
					c15,0,15,0,15,0l0,0c4.6,0,4.6,0,4.6,0L1929.5,1501.7z"/>
				<path class="st48" d="M1783.9,1374.1c-19.6,0-35.1-15.7-35.1-36.1c0,0,35.1-2.3,35.1,19.2
					C1783.9,1361.8,1783.9,1374.1,1783.9,1374.1z"/>
				<path class="st49" d="M1909.4,1402.1c-66.8,0-66.8,0-66.8,0c-9.8,0-9.8,0-9.8,0c-35.7,0-35.7,0-35.7,0c0,2.9,0,2.9,0,2.9
					c-3.4-4.7-3.4-4.7-3.4-4.7c4-0.6,6.9-2.4,9.8-4.7c16.1,0,16.1,0,16.1,0c5.8,0,11-5.2,11-11c0-15.2,0-15.2,0-15.2
					c-2.9,0-2.9,0-2.9,0c-1.7-2.3-4.6-4.1-8.1-4.1c-11.5,0-11.5,0-11.5,0l-0.6,0.6c-0.6-8.1-6.9-14.5-15-14.5c-13.8,0-13.8,0-13.8,0
					c-8.1,0-15,7-15,15.2c0,6.4,0,6.4,0,6.4l0,0c0,35.6,0,35.6,0,35.6c0,37.3,29.9,67.6,66.8,67.6c25.9,0,48.9-15.7,59.9-37.9
					c2.3-0.6,4-0.6,6.3-0.6c24.8,0,44.9,19.8,46.1,44.9v-47.2C1942.8,1416.6,1927.8,1402.1,1909.4,1402.1z"/>
				<rect x="1783.9" y="1393.3" class="st49" width="21.9" height="34.4"/>
				<rect x="1763.7" y="1384.6" class="st49" width="21.9" height="8.7"/>
				<path class="st50" d="M1801.7,1365.3c0,1.8-1.1,3-2.3,3c-1.7,0-2.9-1.2-2.9-3c0-1.2,1.1-2.3,2.9-2.3
					C1800.6,1363,1801.7,1364.1,1801.7,1365.3z"/>
				<path class="st47" d="M1781.6,1351.3c0,19.8-15.5,36.1-35.1,36.1c0,0-2.9-36.1,18.4-36.1
					C1769.5,1351.3,1781.6,1351.3,1781.6,1351.3z"/>
				<polygon class="st49" points="1775.2,1540.8 1763.1,1540.8 1789,1455.7 1811.5,1455.7 				"/>
				<path class="st49" d="M1939.9,1540.8c0-82.8-45.5-94.5-69.1-78.7c-16.7,11.7,0-39,0-39c63.3,0,63.3,0,63.3,0
					c8.7,36.7,8.7,36.7,8.7,36.7c0,23.9,0,23.9,0,23.9c8.7,35,8.7,35,8.7,35L1939.9,1540.8z"/>
				<path class="st49" d="M1942.8,1472.6c0-8.2,0-8.2,0-8.2c-12.1,6.4-12.1,6.4-12.1,6.4c0,11.6,0,11.6,0,11.6s11.5,22.2,11.5,40.8
					c0,18.6,0,17.5,0,17.5c4.6,0,4.6,0,4.6,0c7.5-39,7.5-39,7.5-39S1942.8,1493.6,1942.8,1472.6z"/>
				<path class="st49" d="M1942.8,1525c-8.7,0-15.5,7-15.5,15.7c15.5,0,15.5,0,15.5,0V1525z"/>
				<path class="st49" d="M1760.9,1528c-6.9,0-12.1,5.9-12.1,12.8c23.6,0,23.6,0,23.6,0c5.2-12.8,5.2-12.8,5.2-12.8H1760.9z"/>
				<path class="st50" d="M1830.5,1377c0-7.6,0-7.6,0-7.6c0-2.3-1.7-4.1-4-4.1c-8.1,0-8.1,0-8.1,0s0.6,6.4,4,11.7H1830.5z"/>
				<path class="st47" d="M1914.5,1525.6c-6.9,1.7-12.1,7.6-12.1,15.2c15,0,15,0,15,0l0,0c4.6,0,4.6,0,4.6,0c7.5-39,7.5-39,7.5-39
					s-4.6-3-8-10.5c-5.2-2.3-11-4.6-16.7-5.2C1909.9,1495.9,1912.8,1509.3,1914.5,1525.6z"/>
				<path class="st51" d="M1763.7,1402.1c0,0,18.4,1.2,28.8-4.1c5.2,1.2,5.2,1.2,5.2,1.2s-4,9.9-34,8.2
					C1763.7,1402.1,1763.7,1402.1,1763.7,1402.1L1763.7,1402.1z"/>
				<path class="st47" d="M1805.7,1395.6c-20.1,0-20.1,0-20.1,0s2.3,19.8,20.1,19.8C1805.7,1408.4,1805.7,1395.6,1805.7,1395.6z"/>
				<path class="st52" d="M2117.8,1229.5c0,0-61,153.9-312,172"/>
				<path class="st53" d="M1931.2,1346.6c19,0,34.5,15.7,34.5,35c0,19.9-15.6,35.6-34.5,35.6"/>
			</g>
		</g>
		<path class="st41" d="M2301.8,1639.7c0-50.1,0-50.1,0-50.1c0-33.8,27.4-61.3,61.2-61.3c4.9,0,4.9,0,4.9,0
			c33.8,0,61.2,27.5,61.2,61.3c0,50.1,0,50.1,0,50.1H2301.8z"/>
		<g>
			<path class="st54" d="M2239.4,1631.3c-76.5,0-76.5,0-76.5,0"/>
			<path class="st17" d="M2115.7,1631.3c-83.4,0-83.4,0-83.4,0c-11.9,0-21.4,9.9-21.4,21.4c0,11.9,9.4,21.8,21.4,21.8
				c278.6,0,278.6,0,278.6,0c11.9,0,21.9-9.9,21.9-21.8c0-0.5-0.1-20.3-0.5-21.4"/>
			<rect x="2132.7" y="1403.5" class="st55" width="34.3" height="225"/>
			<polygon class="st56" points="2193.8,1654.8 2167.4,1628.5 2132.7,1628.5 2132.7,1662.8 2193.8,1662.8 			"/>
			<rect x="2132.7" y="1414" class="st57" width="16.4" height="214.5"/>
			<rect x="2132.7" y="1628.5" class="st58" width="16.4" height="34.3"/>
			<path class="st55" d="M2189.8,1412 M2258.3,1543.1c26.8-70.5,26.8-70.5,26.8-70.5c-95.4-60.6-95.4-60.6-95.4-60.6
				c16.9-26.8,16.9-26.8,16.9-26.8c106.3,67.6,106.3,67.6,106.3,67.6c6.5,4,9.4,11.9,6.5,18.9c-31.3,82.4-31.3,82.4-31.3,82.4
				C2258.3,1543.1,2258.3,1543.1,2258.3,1543.1z"/>
			<polygon class="st56" points="2319.9,1567.9 2293.6,1541.6 2258.3,1541.6 2258.3,1576.4 2319.9,1576.4 			"/>
			<polygon class="st57" points="2218.1,1414 2192.8,1414 2285.2,1472.5 2258.9,1541.6 2274.7,1541.6 2274.7,1540.6 2301.6,1466.1 
							"/>
			<polygon class="st58" points="2274.7,1541.6 2258.9,1541.6 2258.3,1541.6 2258.3,1567.9 2274.7,1567.9 			"/>
			<rect x="2075.1" y="1127.4" class="st56" width="161.9" height="219.5"/>
			<rect x="2075.1" y="1354.9" class="st56" width="161.9" height="50.7"/>
			<path class="st59" d="M2237,1127.4c-20.3,0-20.3,0-20.3,0c-10.4,8.4-21.9,13.9-33.3,13.9c-5,0-10.5-1-15.4-4
				c-0.5,0.5-0.5,0.5-0.5,0.5s-1.5,0-4.5,0c-6.4,0-19.3-1-27.8-10.4c-41.2,0-41.2,0-41.2,0c0,219.5,0,219.5,0,219.5
				c15.4,0,15.4,0,15.4,0c0-189.7,0-189.7,0-189.7c127.6,0,127.6,0,127.6,0C2237,1127.4,2237,1127.4,2237,1127.4z"/>
			<rect x="2093.9" y="1354.9" class="st59" width="15.4" height="50.7"/>
			<path class="st60" d="M2250.9,1271.4c0-114.2,0-114.2,0-114.2c-141.5,0-141.5,0-141.5,0c0,256.8,0,256.8,0,256.8
				c141.5,0,141.5,0,141.5,0s-3.5-119.7-13.9-142.5C2250.9,1271.4,2250.9,1271.4,2250.9,1271.4z"/>
			<path class="st61" d="M2109.4,1225.7c0,188.2,0,188.2,0,188.2c141.5,0,141.5,0,141.5,0l0,0v-0.5c0-5-1.5-42.7-4-78.5
				C2109.4,1225.7,2109.4,1225.7,2109.4,1225.7z"/>
			<path class="st60" d="M2027.4,1214.3L2027.4,1214.3c-5,4-7.4,10.4-5.5,16.9c2,5.9,7.4,10.4,13.9,10.4c66.6,0,66.6,0,66.6,0
				c0-29.8,0-29.8,0-29.8c-19.3,0-19.3,0-19.3,0c44.2-30.8,44.2-30.8,44.2-30.8c-17.9-23.9-17.9-23.9-17.9-23.9L2027.4,1214.3z"/>
			<path class="st49" d="M2157,1157.2c2.5,9.5,11.4,16.4,21.9,16.4c9.9,0,18.9-6.9,21.3-16.4H2157z"/>
			<path class="st49" d="M2200.7,1122c-10.4-3.5-10.4-3.5-10.4-3.5c-3.5,9-3.5,9-3.5,9c-19.4,0-19.4,0-19.4,0c0,31.3,0,31.3,0,31.3
				c22.9,0,22.9,0,22.9,0c0-17.9,0-17.9,0-17.9C2190.8,1134.9,2192.8,1124.9,2200.7,1122z"/>
			<polygon class="st62" points="2185.8,1074.3 2216.6,1091.2 2203.2,1104.1 			"/>
			<path d="M2182.4,1089.7c1,1,1,2.5,0,3.5c-1,1-2.5,1-3.5,0c-1-1-1-2.5,0-3.5C2179.9,1089.2,2181.4,1089.2,2182.4,1089.7z"/>
			<polygon class="st47" points="2185.8,1074.3 2216.6,1091.2 2203.2,1104.1 			"/>
			<path class="st49" d="M2126.7,1100.1c30.3,30.3,30.3,30.3,30.3,30.3l0,0c23.9,20.8,49.2,8.9,71.5-13.4c-2-2-2-2-2-2
				c-16.9-17.4-16.9-17.4-16.9-17.4c-21.4-21.3-21.4-21.3-21.4-21.3c-18.9-18.4-18.9-18.4-18.9-18.4
				C2126.7,1100.1,2126.7,1100.1,2126.7,1100.1z"/>
			<path class="st56" d="M2182.4,1089.7c1,1,1,2.5,0,3.5c-1,1-2.5,1-3.5,0c-1-1-1-2.5,0-3.5
				C2179.9,1089.2,2181.4,1089.2,2182.4,1089.7z"/>
			<path class="st60" d="M2332.4,1214.3L2332.4,1214.3c5.4,4,7.4,10.4,5.9,16.9c-2,5.9-7.9,10.4-14.4,10.4c-66.1,0-66.1,0-66.1,0
				c-0.5-29.8-0.5-29.8-0.5-29.8c19.9,0,19.9,0,19.9,0C2233,1181,2233,1181,2233,1181c17.9-23.9,17.9-23.9,17.9-23.9L2332.4,1214.3z
				"/>
			<path class="st56" d="M2153.5,1102.1c0.5-0.5,0.5-1.5,0.5-2c0-6.9,3.5-8.9,8.4-13.9c5.5-6.5,11.4-20.4,6.9-28.3c0-0.5,0-0.5,0-1
				c-0.5-14.4-10.4-6.9-10.4-6.9c-13.4-10.9-25.8,7.9-25.8,7.9c-7.9-0.5-10.4,7.4-10.4,16.4l0,0c-15.9,15.4-3,29.8,4,35.2
				c5.9,32.8,40.7,28.3,40.7,28.3C2171.9,1119.5,2154,1102.1,2153.5,1102.1z"/>
			<rect x="2105.3" y="1152.2" class="st56" width="20.4" height="119.2"/>
			<rect x="2237" y="1152.2" class="st56" width="20.9" height="119.2"/>
			<path class="st49" d="M2117.8,1241.6l0.5,0.5c8.4,0,14.9-7,14.9-14.9c0-8.4-6.4-15.4-14.9-15.4l-0.5,0.5c0-0.5,0-0.5,0-0.5
				c-15.4,0-15.4,0-15.4,0c0,30.3,0,30.3,0,30.3c15.4,0,15.4,0,15.4,0V1241.6z"/>
			<path class="st49" d="M2242.4,1241.6c-0.5,0-0.5,0.5-0.5,0.5c-8.4,0-14.9-7-14.9-14.9c0-8.4,6.5-15.4,14.9-15.4
				c0,0,0,0.5,0.5,0.5c0-0.5,0-0.5,0-0.5c15.4,0,15.4,0,15.4,0c0,30.3,0,30.3,0,30.3c-15.4,0-15.4,0-15.4,0V1241.6z"/>
			<path class="st49" d="M2154,1102.1c-5.5,5-5.5,13.4,0,18.9c5,5.5,13.9,5.5,18.9,0C2154,1102.1,2154,1102.1,2154,1102.1z"/>
			<path class="st63" d="M2158.5,1106.5L2158.5,1106.5c9.9,9.4,9.9,9.4,9.9,9.4l0,0C2158.5,1106.5,2158.5,1106.5,2158.5,1106.5z"/>
			<path class="st63" d="M2158.5,1106.5c-2.5,2.5-2.5,7,0,9.4c1.5,1.5,3.5,2,5,2c1.5,0,3.5-0.5,5-2
				C2158.5,1106.5,2158.5,1106.5,2158.5,1106.5z"/>
		</g>
	</g>
	<g>
		<path class="st42" d="M2238.8,1639.7c0-3.2,0-3.2,0-3.2c0-33.8,27.5-61.3,61.4-61.3c3.2,0,3.2,0,3.2,0c33.8,0,61.2,27.5,61.2,61.3
			c0,3.2,0,3.2,0,3.2H2238.8z"/>
	</g>
</g>
</svg>
