<svg width="729" height="379" viewBox="0 0 729 379" xmlns="http://www.w3.org/2000/svg" xmlns:xlink="http://www.w3.org/1999/xlink"><defs><path id="a" d="M90.445.292v30.77H.06V.29h90.385z"/></defs><g fill="none" fill-rule="evenodd"><path fill="#854CC7" d="M.027 110.618h33.077V68.674H.027M37.303 110.618H70.38V68.674H37.303M74.32 110.618h33.077V68.674H74.32M.027 156.758h33.077v-41.945H.027M37.303 156.758H70.38v-41.945H37.303M74.32 156.758h33.077v-41.945H74.32M.027 202.897h33.077v-41.945H.027M37.303 202.897H70.38v-41.945H37.303M74.32 202.897h33.077v-41.945H74.32"/><path d="M33.104 95.412v15.205H.027v-5.506H1.864v-.26C2.127 95.673 9.74 88.07 19.19 88.07c1.837 0 3.937.523 5.775 1.047 1.05.525 2.363 1.048 3.412 1.836 1.838 1.05 3.412 2.622 4.727 4.456zM33.104 114.812v17.827H.028V114.81" fill="#A579D6"/><path d="M57.518 110.617H37.305V95.15c1.574-.786 3.15-1.048 4.988-1.048 1.31 0 2.625.262 3.674.523 5.775 1.573 10.238 7.08 10.238 13.37v1.05c.524.26.788 1.05 1.313 1.572M66.706 121.628c0 3.933-2.102 7.34-4.988 9.175-1.838 1.31-3.938 1.835-6.038 1.835H37.303V114.81h27.04c1.312 1.836 2.363 4.196 2.363 6.818" fill="#008C74"/><path fill="#854CC7" d="M.027 110.618h33.077V68.674H.027M37.303 110.618H70.38V68.674H37.303M74.32 110.618h33.077V68.674H74.32M.027 156.758h33.077v-41.945H.027M37.303 156.758H70.38v-41.945H37.303M74.32 156.758h33.077v-41.945H74.32M.027 202.897h33.077v-41.945H.027M37.303 202.897H70.38v-41.945H37.303M74.32 202.897h33.077v-41.945H74.32"/><path d="M33.104 95.412v15.205H.027v-5.506H1.864v-.26C2.127 95.673 9.74 88.07 19.19 88.07c1.837 0 3.937.523 5.775 1.047 1.05.525 2.363 1.048 3.412 1.836 1.838 1.05 3.412 2.622 4.727 4.456M33.104 114.812v17.827H.028V114.81M57.518 110.617H37.305V95.15c1.574-.786 3.15-1.048 4.988-1.048 1.31 0 2.625.262 3.674.523 5.775 1.573 10.238 7.08 10.238 13.37v1.05c.524.26.788 1.05 1.313 1.572M66.706 121.628c0 3.933-2.102 7.34-4.988 9.175-1.838 1.31-3.938 1.835-6.038 1.835H37.303V114.81h27.04c1.312 1.836 2.363 4.196 2.363 6.818" fill="#A579D6"/><path d="M650.547 89.382c-1.836 13.108 7.614 25.43 21.003 27.266 13.387 1.572 25.463-7.867 27.3-21.237 1.575-13.107-7.874-25.428-21-27-13.388-1.835-25.465 7.602-27.303 20.972M579.143 92.53c0 13.37 11.026 24.117 24.412 24.117 13.392 0 24.415-10.748 24.415-24.118 0-13.635-11.023-24.383-24.415-24.383-13.386 0-24.412 10.748-24.412 24.382M508 92.53c0 13.37 11.026 24.117 24.413 24.117 13.39 0 24.415-10.748 24.415-24.118 0-13.635-11.026-24.383-24.415-24.383C519.026 68.147 508 78.895 508 92.53" fill="#D2D2D2"/><path d="M317.936 123.987V57.66c0-30.67 24.94-55.84 55.915-55.84 30.72 0 55.92 25.17 55.92 55.84v66.327H317.935z" fill="#3085B7"/><path d="M373.852 3.395c29.93 0 54.344 24.38 54.344 54.267v64.754H319.51V57.662c0-29.888 24.416-54.267 54.342-54.267m0-3.146c-31.764 0-57.492 25.69-57.492 57.412v67.9h114.984v-67.9C431.344 25.94 405.62.25 373.852.25" fill="#854CC7"/><path d="M327.387 55.3c0-25.427 20.74-46.138 46.466-46.138 25.466 0 46.204 20.71 46.204 46.14 0 25.69-20.738 46.4-46.204 46.4-25.727 0-46.466-20.71-46.466-46.4" fill="#AF89DA"/><path d="M335.525 55.3c0-20.97 17.062-38.274 38.327-38.274 21.002 0 38.33 17.303 38.33 38.275 0 21.238-17.328 38.277-38.33 38.277-21.265 0-38.327-17.04-38.327-38.276" fill="#D3BEEC"/><path d="M458.384 303.83h102.12c3.938 0 7.35-3.15 7.35-7.342 0-3.933-3.412-7.34-7.35-7.34h-102.12c-4.2 0-7.352 3.407-7.352 7.34 0 4.193 3.153 7.34 7.352 7.34" fill="#401367"/><path d="M460.747 306.71h102.118c3.938 0 7.352-3.406 7.352-7.34 0-3.93-3.414-7.34-7.352-7.34H460.747c-4.2 0-7.35 3.41-7.35 7.34 0 3.934 3.15 7.34 7.35 7.34" fill="#854CC7"/><path d="M544.75 364.387c.527-1.834 2.365-3.41 4.464-3.41 1.838 0 3.676 1.576 4.202 3.41h-8.665z" fill="#A579D6"/><path fill="#5C2D91" d="M316.36 131.33h114.722v-5.77h-114.72"/><path d="M475.71 88.596c-5.25-4.982-12.602-4.982-13.65-4.982h-24.415c-1.313-4.98-5.773-8.652-11.29-8.652V98.56c5.517 0 9.977-3.672 11.29-8.653h24.675s5.515 0 9.19 3.408c2.098 2.098 3.15 5.244 3.15 9.175v45.354c0 3.933-1.052 7.08-3.15 9.175-3.675 3.67-9.19 3.41-9.19 3.41h-21c-6.04 0-10.76 1.833-14.175 5.24-3.938 4.196-4.727 9.7-4.727 12.32-4.987 1.312-8.662 5.77-8.662 11.275h23.627c0-5.506-3.676-9.963-8.664-11.274.26-1.833.788-5.24 3.152-7.863 2.097-2.36 5.25-3.407 9.45-3.407h20.738c1.048 0 8.4.262 13.65-4.983 3.676-3.407 5.512-7.864 5.512-13.893V102.49c0-5.768-1.836-10.486-5.512-13.894M470.198 218.627c-4.2 0-7.614 3.67-7.614 7.864V251.66H497.5c4.462 0 7.876-3.41 7.876-7.602V218.626h-35.178z" fill="#854CC7"/><path d="M501.438 235.405c0 6.292-5.25 11.272-11.55 11.272-6.04 0-11.29-4.98-11.29-11.272 0-6.29 5.25-11.273 11.29-11.273 6.3 0 11.55 4.982 11.55 11.273" fill="#282828"/><path d="M493.824 204.47v28.838c6.3 0 11.552 4.98 11.552 11.533v-28.573c0-6.553-5.25-11.797-11.552-11.797M505.376 244.842v-1.833.785" fill="#A579D6"/><path d="M536.352 266.603c0 9.96-8.137 18.088-18.376 18.088-9.975 0-18.116-8.127-18.116-18.087 0-9.963 8.14-18.09 18.116-18.09 10.24 0 18.376 8.127 18.376 18.09" fill="#32135A"/><path d="M536.352 264.242c0 10.225-8.137 18.353-18.376 18.353-9.975 0-18.116-8.128-18.116-18.353 0-9.962 8.14-18.09 18.116-18.09 10.24 0 18.376 8.128 18.376 18.09" fill="#854CC7"/><path d="M532.414 264.242c0 7.864-6.563 14.42-14.438 14.42-7.614 0-14.176-6.556-14.176-14.42s6.562-14.155 14.176-14.155c7.875 0 14.438 6.29 14.438 14.155" fill="#282828"/><path d="M555.254 299.37c0-1.57 1.313-2.88 2.887-2.88 1.577 0 2.89 1.31 2.89 2.88 0 1.574-1.313 2.885-2.89 2.885-1.573 0-2.886-1.31-2.886-2.884M545.802 299.37c0-1.57 1.312-2.88 2.886-2.88 1.84 0 3.153 1.31 3.153 2.88 0 1.574-1.31 2.885-3.152 2.885-1.574 0-2.886-1.31-2.886-2.884M536.614 299.37c0-1.57 1.312-2.88 2.888-2.88 1.575 0 2.89 1.31 2.89 2.88 0 1.574-1.315 2.885-2.89 2.885-1.576 0-2.888-1.31-2.888-2.884M527.425 299.37c0-1.57 1.313-2.88 2.89-2.88 1.573 0 2.888 1.31 2.888 2.88 0 1.574-1.315 2.885-2.89 2.885-1.575 0-2.888-1.31-2.888-2.884M517.975 299.37c0-1.57 1.313-2.88 3.15-2.88 1.577 0 2.89 1.31 2.89 2.88 0 1.574-1.313 2.885-2.89 2.885-1.837 0-3.15-1.31-3.15-2.884M508.787 299.37c0-1.57 1.313-2.88 2.887-2.88 1.576 0 2.89 1.31 2.89 2.88 0 1.574-1.314 2.885-2.89 2.885-1.574 0-2.887-1.31-2.887-2.884M499.6 299.37c0-1.57 1.31-2.88 2.885-2.88 1.577 0 2.892 1.31 2.892 2.88 0 1.574-1.315 2.885-2.892 2.885-1.574 0-2.886-1.31-2.886-2.884M490.41 299.37c0-1.57 1.313-2.88 2.887-2.88 1.577 0 2.892 1.31 2.892 2.88 0 1.574-1.316 2.885-2.893 2.885-1.574 0-2.886-1.31-2.886-2.884M480.96 299.37c0-1.57 1.313-2.88 2.887-2.88 1.838 0 2.89 1.31 2.89 2.88 0 1.574-1.052 2.885-2.89 2.885-1.574 0-2.886-1.31-2.886-2.884M471.772 299.37c0-1.57 1.313-2.88 2.887-2.88 1.575 0 2.888 1.31 2.888 2.88 0 1.574-1.313 2.885-2.89 2.885-1.573 0-2.886-1.31-2.886-2.884M462.584 299.37c0-1.57 1.313-2.88 2.887-2.88 1.577 0 2.89 1.31 2.89 2.88 0 1.574-1.313 2.885-2.89 2.885-1.573 0-2.886-1.31-2.886-2.884" fill="#32135A"/><path fill="#A579D6" d="M547.114 362.29h3.938v-55.58h-3.938"/><path fill="#A579D6" d="M549.216 362.29h1.836v-55.58h-1.836"/><path d="M548.953 360.978h.262c1.838 0 3.676 1.573 4.2 3.41h-2.098c-.264-1.31-1.05-2.622-2.364-3.41" fill="#A579D6"/><path d="M369.128 104.85v182.986c0 2.886-2.364 4.98-4.99 4.98-2.885 0-5.25-2.094-5.25-4.98v-54.53c-.26-7.6-6.56-13.63-14.175-13.63-7.875 0-14.176 6.29-14.176 14.157v54.003c0 2.886-2.1 4.98-4.988 4.98-2.888 0-4.99-2.094-4.99-4.98V259c0-7.864-6.563-14.157-14.174-14.157-7.875 0-14.44 6.293-14.44 14.157v28.836c0 2.886-2.1 4.98-4.988 4.98-2.625 0-4.987-2.094-4.987-4.98v-43.78l16.277-24.904c.264-.262.526-.526.526-.788-.262-2.098-9.714-3.67-21.526-3.67-11.55 0-21.003 1.572-21.264 3.67 0 .262.26.526.525.788l16.276 24.905v43.78c0 7.866 6.3 14.157 14.174 14.157 7.877 0 14.178-6.29 14.178-14.158V259c0-2.884 2.36-4.982 5.25-4.982 2.625 0 4.986 2.098 4.986 4.982v30.41c.79 7.078 6.827 12.584 14.177 12.584 7.874 0 14.175-6.29 14.175-14.158v-54.003c0-2.886 2.363-4.98 4.988-4.98 2.89 0 5.25 2.094 5.25 4.98v54.003c0 7.867 6.3 14.158 14.176 14.158 7.875 0 14.176-6.29 14.176-14.158V104.85h-9.188z" fill="#854CC7"/><path d="M298.772 218.365c0 2.098-9.713 3.67-21.526 3.67-11.55 0-21.264-1.572-21.264-3.67 0-2.1 9.713-3.67 21.264-3.67 11.813 0 21.526 1.57 21.526 3.67M425.57 177.467h-.79c4.466 2.36 7.614 6.817 8.14 11.798h4.462c0-6.553-5.51-11.798-11.812-11.798M447.884 362.027h2.1c1.576 0 2.888 0 4.2-.523v-2.884h-6.3v3.407zM401.154 362.027h-1.835c-1.578 0-2.89 0-4.203-.523v-2.884h6.037v3.407z" fill="#5C2D91"/><path fill="#401367" d="M461.273 289.148h6.824V204.47h-6.824"/><path d="M463.108 347.084s0 13.11-13.125 13.11h-50.665s-13.39 0-13.39-13.11v-144.71s0-13.11 13.39-13.11h50.665s13.125 0 13.125 13.11v144.71z" fill="#5C2D91"/><path d="M424.52 204.994c-13.654 0-24.94 11.274-24.94 25.167h50.14c0-13.892-11.286-25.166-25.2-25.166" fill="#C2C2C2"/><path d="M427.668 225.18c0 1.573-1.312 2.884-3.148 2.884-1.576 0-2.89-1.31-2.89-2.883 0-1.834 1.314-3.147 2.89-3.147 1.836 0 3.148 1.313 3.148 3.148" fill="#A80000"/><path fill="#A80000" d="M423.73 227.803l-1.835-2.622 18.637-13.63"/><path d="M428.98 248.513c-2.36 2.622-6.3 2.622-8.66 0-2.626-2.36-2.626-6.29 0-8.652 2.36-2.36 6.3-2.36 8.66 0 2.364 2.362 2.364 6.292 0 8.653" fill="#E81123"/><path d="M428.98 248.513c-2.36 2.622-6.298 2.622-8.66 0-2.626-2.36-2.626-6.29 0-8.652 2.362-2.357 6.3-2.357 8.66 0 2.364 2.362 2.364 6.292 0 8.653z" stroke="#B2B2B2" stroke-width=".814"/><path d="M450.247 244.32c0 3.407-2.625 6.03-6.3 6.03-3.416 0-6.04-2.623-6.04-6.03 0-3.41 2.624-6.294 6.04-6.294 3.675 0 6.3 2.884 6.3 6.293" fill="#E81123"/><path d="M450.247 244.32c0 3.407-2.625 6.03-6.3 6.03-3.416 0-6.04-2.623-6.04-6.03 0-3.41 2.624-6.294 6.04-6.294 3.675 0 6.3 2.884 6.3 6.293z" stroke="#B2B2B2" stroke-width=".814"/><path d="M409.556 248.513c-2.363 2.622-6.3 2.622-8.664 0-2.625-2.36-2.625-6.29 0-8.652 2.363-2.36 6.3-2.36 8.664 0 2.362 2.362 2.362 6.292 0 8.653" fill="#E81123"/><path d="M409.556 248.513c-2.363 2.622-6.3 2.622-8.664 0-2.625-2.36-2.625-6.29 0-8.652 2.363-2.357 6.3-2.357 8.664 0 2.362 2.362 2.362 6.292 0 8.653z" stroke="#B2B2B2" stroke-width=".814"/><path d="M438.17 86.76v-.787c-2.362 4.72-6.825 7.605-11.814 8.128v4.458c6.563 0 11.813-5.244 11.813-11.797" fill="#5C2D91"/><path d="M342.875 55.826c0-17.04 13.912-30.935 30.977-30.935 17.063 0 30.978 13.895 30.978 30.936 0 7.08-2.364 13.634-6.563 18.876h.262-.263c-.523.785-1.05 1.573-1.836 2.36-2.89 3.67-8.14 11.272-8.14 18.874h-28.878c0-7.602-5.248-15.205-8.398-18.874-.525-.787-1.313-1.575-1.838-2.36-3.938-5.242-6.3-11.797-6.3-18.876" fill="#F4F1FF"/><path d="M342.876 55.826c0-17.04 13.912-30.935 30.975-30.935 17.066 0 30.98 13.897 30.98 30.936 0 7.08-2.363 13.634-6.562 18.876h.262-.262c-.525.785-1.05 1.573-1.838 2.36-2.89 3.67-8.14 11.272-8.14 18.874h-28.877c0-7.602-5.25-15.205-8.4-18.874-.526-.787-1.313-1.575-1.838-2.36-3.938-5.242-6.3-11.797-6.3-18.876" stroke="#FFF" stroke-width="1.512"/><path d="M351.54 55.826c0-12.32 9.974-22.545 22.312-22.545" stroke="#FFF" stroke-width="1.163" stroke-linecap="round"/><path d="M547.38 102.228L535.565 94.1c.262-.523.523-1.047.523-1.57 0-1.31-.788-2.623-1.575-3.148V78.896c0-1.31-1.05-2.097-2.102-2.097-1.05 0-2.097.785-2.097 2.096v10.486c-.79.525-1.313 1.31-1.58 2.098l-13.386 5.504c-.787.526-1.312 1.575-1.05 2.622.525.788 1.05 1.31 1.838 1.31.263 0 .525 0 .787-.26l13.39-5.245c.524.265 1.313.79 2.098.79 1.05 0 2.102-.525 2.625-1.312l11.815 8.39h.262c.264 0 .264 0 .525-.262 0-.264 0-.526-.26-.788M703.84 96.2c-2.102 15.99-16.802 27.262-32.816 25.166-16.012-1.835-27.563-16.78-25.466-32.77 2.102-15.99 16.802-27.265 32.816-25.167 16.016 2.096 27.565 16.777 25.465 32.77m-53.293-6.818c-1.836 13.108 7.613 25.43 21.003 27.266 13.386 1.572 25.465-7.867 27.3-21.237 1.575-13.107-7.874-25.428-21-27-13.39-1.835-25.463 7.602-27.303 20.972" fill="#5C2D91"/><path d="M686.514 78.896l-9.716 10.486c-.523-.262-1.048-.524-1.574-.524-1.312-.26-2.625.262-3.414 1.31l-7.348-7.603c-.79-.785-2.1-.785-2.89 0-.786.787-.786 2.098 0 2.884l8.664 7.6c.26.79 2.363 2.36 3.152 2.887l3.674 13.894c.264 1.05 1.577 1.573 2.625 1.312.787-.262 1.313-.788 1.313-1.573v-.79l-3.674-13.892c.523-.526.785-1.05 1.05-2.1 0-1.046-.265-2.095-.788-2.62l9.713-10.75v-.522c-.263-.262-.525-.262-.786 0M632.96 92.53c0 15.99-13.126 29.1-29.404 29.1-16.276 0-29.4-13.11-29.4-29.1 0-16.255 13.124-29.363 29.4-29.363 16.278 0 29.403 13.108 29.403 29.362m-53.816 0c0 13.37 11.023 24.117 24.412 24.117 13.39 0 24.415-10.748 24.415-24.118 0-13.635-11.025-24.383-24.414-24.383-13.39 0-24.412 10.748-24.412 24.382M561.817 92.53c0 15.99-13.127 29.1-29.403 29.1-16.276 0-29.4-13.11-29.4-29.1 0-16.255 13.124-29.363 29.4-29.363 16.276 0 29.403 13.108 29.403 29.362m-53.816 0c0 13.37 11.025 24.117 24.414 24.117 13.387 0 24.415-10.748 24.415-24.118 0-13.635-11.03-24.383-24.416-24.383-13.39 0-24.413 10.748-24.413 24.382" fill="#5C2D91"/><path d="M603.556 75.488l1.576 13.632c-.525-.262-1.05-.262-1.576-.262-1.313 0-2.36.523-3.148 1.573h-10.503c-1.05 0-2.1.788-2.1 2.1 0 1.046 1.05 1.834 2.1 1.834h10.503c.523.785 1.312 1.31 2.36 1.573l-3.15 11.797c-.26 1.047.262 2.096 1.313 2.358.79.264 1.84-.262 2.103-.785.26-.262.26-.526.26-.788l3.152-13.894c.525-.524.787-1.31.787-2.097 0-1.312-.526-2.1-1.313-2.887l-1.313-14.155v-.262c-.262-.262-.262-.262-.526-.262-.263 0-.524.262-.524.524" fill="#5C2D91"/><path d="M698.59 371.203H317.934c-3.674 0-6.824-3.148-6.824-6.817 0-3.933 3.15-6.815 6.825-6.815H698.59c3.675 0 6.823 2.883 6.823 6.816 0 3.67-3.148 6.817-6.824 6.817M304.81 339.22H101.357c-3.937 0-6.824-2.882-6.824-6.818 0-3.666 2.887-6.814 6.824-6.814H304.81c3.937 0 7.088 3.148 7.088 6.814 0 3.936-3.15 6.817-7.088 6.817" fill="#000" opacity=".195"/><path d="M404.83 55.826c0-17.04-13.914-30.935-30.977-30.935-1.05 0-2.1.263-3.15.263 15.752 1.573 28.088 14.68 28.088 30.673 0 7.08-2.624 13.634-6.562 18.876-.523.785-1.312 1.573-1.836 2.36-2.89 3.67-8.4 11.272-8.4 18.874h6.3c0-7.602 5.25-15.205 8.138-18.874.787-.787 1.312-1.575 1.838-2.36 4.2-5.242 6.562-11.797 6.562-18.876" fill="#EDE8FF"/><path fill="#001F50" d="M401.418 306.71h5.25v-37.225h-5.25M411.13 306.71h5.25v-37.225h-5.25M420.844 306.71h4.988v-37.225h-4.988M430.557 306.71h4.986v-37.225h-4.986M440.008 306.71h5.25v-37.225h-5.25"/><path fill="#FFB900" d="M409.03 282.33h9.45v-3.408h-9.45M399.318 294.652h9.45v-3.41h-9.45M418.744 294.652h9.452v-3.41h-9.452M428.196 302.518h9.45v-3.41h-9.45M437.91 279.71h9.448v-3.41h-9.45"/><path fill="#001F50" d="M395.12 332.404h59.065v-1.573H395.12M395.12 336.337h59.065v-1.834H395.12M395.12 340.006h59.065v-1.573H395.12M395.12 343.94h59.065v-1.573H395.12"/><path d="M388.555 95.412s1.574 0 1.574 1.573v1.835s0 1.575-1.575 1.575H358.89s-1.576 0-1.576-1.575v-1.835s0-1.573 1.576-1.573h29.665z" fill="#854CC7"/><path d="M388.555 100.394s1.574 0 1.574 1.834v1.835s0 1.573-1.575 1.573H358.89s-1.576 0-1.576-1.573v-1.835s0-1.834 1.576-1.834h29.665zM388.555 110.88s1.574 0 1.574 1.573v2.096s0 1.572-1.575 1.572H358.89s-1.576 0-1.576-1.573v-2.097s0-1.573 1.576-1.573h29.665z" fill="#5C2D91"/><path d="M388.555 105.636s1.574 0 1.574 1.573v2.095s0 1.575-1.575 1.575H358.89s-1.576 0-1.576-1.575v-2.096s0-1.574 1.576-1.574h29.665z" fill="#854CC7"/><path d="M187.727 327.423c1.838 2.1 1.312 2.1 2.1 4.457h3.675c-.26-1.575.262-2.622 2.887-1.575" fill="#282828"/><path d="M188.252 322.44l-.787 3.934c0 1.05.787 1.573 2.1 2.1l9.713 2.618c2.1.524 4.2.788 6.3.788h5.512c2.89 0 1.838-1.575 1.313-1.837-2.1-.52-7.35-2.096-11.287-4.192-3.415-1.836-12.864-3.41-12.864-3.41" fill="#4A4A4A"/><path d="M189.303 319.034c0 1.31-1.05 2.62-1.05 3.407-.265 1.05 14.7 5.246 14.7 5.246.262.26 2.626.26 1.838-.262-3.413-1.573-9.976-5.77-9.712-7.602l-5.775-.788z" fill="#BB9167"/><path d="M172.5 327.423c1.84 2.1 1.314 2.1 1.84 4.457h3.937c-.526-1.575 0-2.622 2.886-1.575" fill="#4A4A4A"/><path d="M173.026 322.44l-.787 3.934c0 1.05.786 1.573 2.1 2.1l9.712 2.618c2.1.524 4.2.788 6.3.788h5.513c2.89 0 1.838-1.575 1.312-1.837-2.1-.52-7.35-2.096-11.55-4.192-3.413-1.836-12.6-3.41-12.6-3.41" fill="#4A4A4A"/><path d="M174.076 319.034c0 1.31-1.05 2.62-1.05 3.407-.263 1.05 14.7 5.246 14.7 5.246.262.26 2.625.26 1.838-.262-3.412-1.573-9.974-5.77-9.713-7.602l-5.774-.788zM201.903 274.73c-.263 2.62-2.625 4.718-5.514 4.718-2.626-.262-4.725-2.886-4.725-5.506.26-2.884 2.887-4.982 5.512-4.718 2.888.26 4.988 2.622 4.726 5.506" fill="#BB9167"/><path d="M201.903 273.943c.262 2.882-2.1 5.242-4.726 5.504-2.887 0-5.25-2.097-5.512-4.98l-5.25-42.47c0-4.72 3.676-8.652 8.137-8.652 4.726-.262 8.664 3.148 8.926 7.602l-1.575 42.996zM173.814 320.87c0 1.57 5.51 2.096 5.775.52l7.087-46.66c.262-2.886-1.838-5.244-4.727-5.508-2.886-.262-5.25 1.837-5.51 4.72-2.365 14.158-.263 27.79-2.626 46.928" fill="#BB9167"/><path d="M189.04 320.87c0 1.57 5.775 2.096 5.775.52l7.088-46.66c.262-2.886-1.838-5.244-4.727-5.508-2.625-.262-5.25 1.837-5.51 4.72-2.363 14.158-.263 27.79-2.626 46.928M186.676 274.73c-.26 2.62-2.625 4.718-5.51 4.718-2.89-.262-4.99-2.886-4.728-5.506.264-2.884 2.627-4.982 5.514-4.718 2.89.26 4.988 2.622 4.724 5.506" fill="#BB9167"/><path d="M186.676 273.943c0 2.882-2.1 5.242-4.724 5.504-2.887 0-5.25-2.097-5.514-4.98l-5.25-42.47c0-4.72 3.414-8.652 8.14-8.652 4.462-.262 8.66 3.148 8.925 7.602l-1.577 42.996z" fill="#BB9167"/><path fill="#5C2D91" d="M187.727 270.796h16.275V229.9h-16.275M171.19 270.796h16.537V229.9H171.19"/><path fill="#A579D6" d="M189.827 235.668l-21.003-2.884 7.352-19.4 2.364-27.79 4.463-5.505 12.86-5.768-4.46 56.625"/><path d="M247.057 157.544c2.625-4.718 2.886-6.03 2.625-10.486 0-2.884-.79-3.67-1.577-2.36.787-2.884-1.048-4.72-1.574-2.884 0-.785-.524-1.573-1.575-1.31-.787 0-.526 1.31-.262 1.836-.787-.262-2.1 0-1.838 2.096 0 1.835-.525 2.096-.525 2.096-.526-1.573-1.574-2.096-2.36-1.31.522 2.098.26 5.243.522 7.866.264.523.264.787.525 1.31l-3.412 11.795 6.824-1.308 2.627-7.34z" fill="#BB9167"/><path fill="#A579D6" d="M190.877 235.668l13.913 2.358v-20.45l8.14-25.164-2.626-12.846-13.915-5.244-5.513 56.887"/><path d="M229.468 185.332c0 2.884 2.36 5.244 5.25 5.244 2.887 0 5.25-2.36 5.25-5.244s-2.1-5.242-4.99-5.242c-2.885 0-5.25 2.358-5.51 5.242" fill="#5C2D91"/><path d="M208.728 193.197c3.938.262 7.35-3.146 7.35-7.08 0-3.93-3.15-7.075-7.088-7.075-4.2 0-7.35 3.145-7.35 7.076 0 3.933 3.15 7.08 7.088 7.08" fill="#A579D6"/><path fill="#A579D6" d="M208.728 179.04l26.253 1.05-.263 10.486-25.99 2.884"/><path fill="#E6E6E6" d="M247.32 160.69l-8.138-2.36-.79 2.36 8.14 2.622"/><path d="M236.555 180.352c-2.625-.788-5.776.523-6.563 3.145-1.048 2.623.264 5.768 2.89 6.817 2.886 1.048 5.775-.525 6.823-3.145 1.05-2.623-.523-5.77-3.15-6.818" fill="#A579D6"/><path fill="#A579D6" d="M246.53 163.31l-6.825 23.857-9.71-3.67 7.61-23.07"/><path d="M203.216 167.243l-11.026-.787-1.312 10.227s-1.313 13.367 3.15 13.63c4.46.263 6.825-12.06 6.825-12.06l2.363-11.01z" fill="#BB9167"/><path d="M194.815 164.884c-1.312 5.504.526 8.65 7.088 8.914l1.574-6.555-8.662-2.36z" fill="#AB845F"/><path d="M207.154 163.05c2.886-.79 1.835-1.574 1.574-1.836-.262-.523-3.412-3.67-3.412-4.456 0-.262-.264-.526-.264-.788-1.836.788-3.674.526-4.725 0-1.048 1.31-1.574 2.622-1.574 3.41 0 .785.262 1.572.262 1.834 0 1.047-1.313.262-1.313.262s-1.312-1.05-2.36-1.31c-1.052.786-.526 3.67-.265 4.717.264.526.264.788.264.788s.524 4.196-1.837 4.98c3.938 2.1 8.924 1.312 11.287 1.05 2.625-.26 2.364-1.31 2.364-1.31-.264-1.574-.526-6.554 0-7.34" fill="#BB9167"/><path d="M197.702 154.398l.526 2.358v.264c0 .524.262 1.57.525 2.36 0-.79.526-2.098 1.575-3.41-1.575-.525-2.626-1.572-2.626-1.572M195.34 160.165c-.79-.26-1.312 0-1.576.524-.262.525 0 1.572.525 2.62.26.524.525 1.05.787 1.574-.262-1.05-.788-3.93.263-4.72" fill="#AB845F"/><path d="M195.34 165.67s.524 3.933-1.838 4.982h-.26c-3.152-.264-6.302-1.834-8.402-4.46-.264.265-.787.265-1.312.265-3.938.524-7.614-2.36-7.875-6.29-.526-3.934 2.36-7.605 6.298-8.13h1.314c.79-1.048 1.838-2.357 3.15-3.406 1.574-1.31 3.15-2.098 4.99-2.62 3.147-.79 6.298-.263 8.923 1.31 2.625-.526 5.252 1.31 5.775 3.93.526 1.576 0 3.41-1.05 4.72-1.836.787-3.674.525-4.725 0-1.575-.524-2.625-1.57-2.625-1.57l1.312 6.813c0 1.05-1.312.264-1.312.264s-1.313-1.05-2.362-1.31c-.79-.265-1.312 0-1.576.523-.262.523 0 1.573.525 2.622.26.523.525 1.047.787 1.573.263.523.263.785.263.785" fill="#A80000"/><path d="M202.69 159.64c.262 0 .262 0 .526.263 0-.262.262-.262.262-.524 0-.527-.526-.788-.787-.788-.525 0-.786.26-.786.787v.523c.26-.262.523-.262.787-.262" fill="#000"/><path fill="#D2D2D2" d="M194.815 185.594l-3.15 37.488 6.3-26.214 3.674-10.75-2.626-8.388-.525 2.36"/><path fill="#FFF" d="M194.815 185.594l-3.15 37.488-2.1-25.43-2.1-12.58 5.776-8.127-.263 2.096"/><path fill="#D2D2D2" d="M191.403 173.012l-1.313 2.622-3.414 10.486 6.565-9.175"/><path fill="#FFF" d="M199.015 177.73l2.625-3.146.787 2.884-.787 9.437"/><path d="M203.74 166.457s.79.262 1.576.262c.526 0 .788 0 1.05-.263h.525c.264 0 .264 0 .264.262 0 0 0 .26-.263.26h-.525c-.26 0-.523 0-1.05-.26-.786 0-1.575-.263-1.575-.263" fill="#8A0000"/><path d="M203.74 166.457s.79.262 1.576.262c.788.26 1.575 0 1.575 0l.264.26c0 .264 0 .264-.263.264 0 0-.786 0-1.574-.264-.787-.26-1.576-.523-1.576-.523" fill="#8A0000"/><path d="M199.278 200.538c0 .524-.264.786-.79.786-.26 0-.522-.524-.522-.786 0-.523.26-.787.787-.787.26 0 .525.527.525.788M195.864 212.073c0 .262-.26.524-.787.524-.26 0-.787-.262-.525-.785 0-.262.264-.526.79-.526.26 0 .522.264.522.787M192.452 223.87c0 .26-.262.523-.787.523-.262 0-.787-.262-.787-.785.26-.262.525-.526.787-.526.525 0 .787.264.787.787M204.003 237.764l-13.125-2.097v-4.456l-1.05 4.457-18.64-2.36v1.837l32.815 5.767" fill="#401367"/><path d="M209.254 179.827c-1.05-2.622.525-5.767 3.412-6.553 2.625-.787 5.514.786 6.562 3.67.787 2.622-.787 5.506-3.676 6.29-2.625 1.05-5.51-.523-6.298-3.407" fill="#5C2D91"/><path d="M183.527 179.827c3.674-1.05 7.875 1.05 8.926 4.983 1.05 3.67-1.315 7.602-4.988 8.91-3.938 1.05-7.876-1.308-8.927-4.98-1.05-3.93 1.05-7.863 4.99-8.913" fill="#A579D6"/><path fill="#A579D6" d="M187.465 193.46l28.088-10.225-2.886-9.96-29.14 6.552"/><path d="M240.493 153.087c-.262-2.622 0-5.767-.523-7.864.787-.787 1.835-.264 2.36 1.31.526 1.572.526 4.456 1.84 3.932M232.355 159.38c3.938-2.885 4.725-4.458 6.563-8.13 1.05-2.357.525-3.407-.526-2.62 1.838-1.836.79-4.194-.26-2.883.26-.524.524-1.573-.527-1.835-.525-.264-1.05 1.047-1.312 1.573-.526-.526-1.574-.526-2.1 1.047-.787 1.573-1.576 2.36-1.576 2.36 0-1.834-.523-2.62-1.31-2.098-.526 1.837-2.102 4.195-2.628 6.555 0 .525-.262.787-.262 1.31l-7.09 8.388 6.04 1.575 4.987-5.244z" fill="#BB9167"/><path fill="#B2B2B2" d="M227.892 154.398l6.563 5.504-1.574 2.1-6.562-5.507"/><path d="M217.13 174.06c2.36 1.834 2.886 4.982 1.312 7.34-1.838 2.36-4.99 2.884-7.35 1.05-2.363-1.574-2.89-4.983-1.05-7.08 1.573-2.358 4.988-2.884 7.087-1.31" fill="#A579D6"/><path fill="#A579D6" d="M226.055 156.495L210.04 175.37l8.402 6.03 14.963-19.137"/><path d="M233.406 162.262L218.442 181.4c-.525.787-1.312 1.31-2.89 2.098 0 0-27.564 9.96-28.087 10.222-3.676 1.05-7.614-1.047-8.926-4.718 1.31 3.41 5.25 5.244 8.66 4.195.527 0 26.78-10.224 26.78-10.224.786-.262 2.886-.786 4.2-2.358l1.05-1.312 13.912-17.04h.264z" fill="#854CC7"/><path d="M493.824 204.47v28.838c6.3 0 11.552 4.98 11.552 11.533v-28.573c0-6.553-5.25-11.797-11.552-11.797" fill="#A579D6"/><path fill="#854CC7" d="M515.385 260.114h5.53l-2.66 4.037h-3.41v.674h3l-3 4.377v.2h6.995v-.675h-5.902l2.668-3.9h3.234v-.674h-2.82l2.955-4.478v-.23h-6.59"/><path d="M518.384 272.397c-4.45 0-8.07-3.622-8.07-8.074 0-4.455 3.62-8.076 8.07-8.076 4.452 0 8.072 3.62 8.072 8.076 0 4.452-3.62 8.074-8.072 8.074m0-16.823c-4.82 0-8.74 3.924-8.74 8.75 0 4.823 3.92 8.745 8.74 8.745 4.822 0 8.744-3.923 8.744-8.747 0-4.825-3.922-8.75-8.744-8.75M489.867 236.087c-1.648 0-2.986-1.338-2.986-2.988s1.34-2.986 2.987-2.986 2.984 1.336 2.984 2.985c0 1.65-1.337 2.987-2.983 2.987m5.22-2.988c0-2.887-2.338-5.227-5.22-5.227-2.884 0-5.223 2.34-5.223 5.226s2.34 5.226 5.223 5.226c2.882 0 5.22-2.34 5.22-5.227M482.415 240.39l2.233.008.01 2.23 3.887-3.887c-1.112-.256-2.11-.816-2.89-1.594l-3.24 3.243zM494.085 237.146c-.78.78-1.775 1.343-2.886 1.595l3.884 3.892.01-2.234 2.232-.01-3.24-3.242z" fill="#854CC7"/><path d="M493.9 204.716v28.836c6.302 0 11.552 4.982 11.552 11.538v-28.577c0-6.553-5.25-11.797-11.55-11.797" fill="#A579D6"/><g><path d="M617.354 322.635c.1.44-.257.988-.715 1.094l-20.68 4.745c-.46.106-1.02-.233-1.12-.675l-9.573-41.755c-.1-.44.26-.988.72-1.094l20.675-4.745c.46-.106 1.02.233 1.12.675l9.572 41.755z" fill="#000"/><path fill="#00AEEF" d="M609.742 297.87l-18.607 4.272-1.976-8.618 18.607-4.27"/><path fill="#FFF" d="M596.282 305.61l-4.137.95-.91-3.98 4.135-.947"/><path fill="#00AEEF" d="M601.107 304.503l-4.366 1.002-.91-3.976 4.366-1.005M605.93 303.397l-4.366 1-.91-3.974 4.365-1.004M610.755 302.288l-4.366 1.002-.912-3.976 4.366-1.002M603.182 313.56l-8.96 2.056-1.976-8.613 8.962-2.058"/><path fill="#FDB813" d="M606.994 308.036l-4.366 1.002-.96-4.198 4.363-1.002"/><path fill="#00AEEF" d="M611.82 306.93l-4.367 1-.96-4.198 4.363-1"/><path fill="#FFF" d="M608.007 312.454l-4.366 1.002-.96-4.197 4.364-1.003"/><path fill="#00AEEF" d="M612.832 311.348l-4.366 1-.96-4.198 4.363-1M610.137 319.64l4.366-1.002-.56-2.43-4.36 1.002M600.488 321.852l9.19-2.107-.658-2.873-9.19 2.11M595.894 322.908l4.134-.95-.555-2.428-4.136.948"/><path fill="#4BC1BF" d="M599.37 319.087l-4.135.95-.91-3.978 4.135-.95"/><path fill="#00AEEF" d="M609.02 316.872l-9.19 2.11-.91-3.976 9.19-2.11"/><path fill="#68217A" d="M613.845 315.766l-4.366 1-.912-3.974 4.366-1.004"/><path d="M598.772 325.97l-1.073-.453.768-.875.23-.052s.05.22-.178.273l-.36.548.563.335.28.172-.23.052z" fill="#969696"/><path d="M599.13 325.42l-1.15.264s-.23.054-.28-.167l.232-.052 1.148-.266.227-.053c.052.22.052.22-.178.273M613.193 322.425c-.457.106-.737-.06-.79-.282-.1-.442.08-.715.538-.82.23-.055.51.114.612.556.052.218-.126.493-.36.545m-.202-.884c-.227.055-.408.328-.356.55 0 0 .28.168.51.114.23-.052.18-.273.18-.273-.052-.218-.1-.44-.334-.39" fill="#969696"/><path d="M612.376 323.078l-.05-.22-.05-.22.41-.328c-.053-.218.177-.273.227-.05l-.36.545s.053.223-.177.273M605.74 323.67l.69-.155-.153-.664-.638.38M605.512 323.723l-.102-.44-.46.106.102.44M605.74 323.67l.152.664.69-.158-.15-.66" fill="#969696"/><path fill="#969696" d="M605.512 323.723l-.46.106.15.663.46-.106"/><path fill="#000" d="M615.04 317.818l1.61-.37-1.167-5.082-1.608.37"/><path d="M599.918 284.545c.05.22-.18.273-.41.327l-4.595 1.05c-.227.056-.46.107-.51-.11-.05-.223.13-.496.36-.55l4.593-1.054c.23-.054.512.116.562.337" fill="#969696"/><path fill="#FFF" d="M588.63 290.157l.23-.052.202.883-.23.054M588.68 290.378l-.23.052.152.663.228-.052M588.5 290.653l-.23.052.102.442.23-.054"/><path fill="#FFF" d="M588.272 290.706l-.233.05.1.444.233-.054"/><path fill="#FFF" d="M588.09 290.98l-.23.05.053.222.228-.05M603.792 286.678l.917-.21.202.884-.917.21M603.153 287.057l.23-.052.1.442-.23.052"/></g><g transform="translate(638.125 336.657)"><mask id="b" fill="#fff"><use xlink:href="#a"/></mask><path fill="#000" mask="url(#b)" d="M46.19 30h44.26V12.302H46.19"/><path fill="#606060" mask="url(#b)" d="M90.035 11.25H.265l-.413 1.053h90.6"/><path fill="#757575" mask="url(#b)" d="M46.812 11.25H.265l-.413 1.053h46.96"/><path fill="#000" mask="url(#b)" d="M.265 31.05h89.77l.416-1.053H-.15"/><path d="M84.216 20.938c0 1.266-1.04 2.108-2.286 2.108-1.245 0-2.285-.842-2.285-2.108 0-1.473 1.04-2.315 2.285-2.315 1.247 0 2.286.842 2.286 2.315" fill="#FFF" mask="url(#b)"/><path d="M82.346 19.885c.418-.21.83-.422 1.248-.63-.418 0-1.04 0-1.665.208-.623-.208-1.246-.208-1.663-.208.417.208.832.42 1.04.63-.417.422-.83 1.266-1.04 2.53 0 0 .623-1.054 1.662-2.108 1.04 1.054 1.664 2.108 1.664 2.108-.208-1.264-.625-2.108-1.248-2.53M-.15 12.302v6.953l.83 1.053v1.474l-.83 1.054v7.162h46.96V12.302" fill="#333" mask="url(#b)"/><path fill="#737373" mask="url(#b)" d="M46.812 21.992H.06l-.208.844h46.96"/><path fill="#000" mask="url(#b)" d="M46.812 19.255H-.148L.06 20.31H46.81"/><path fill="#969696" mask="url(#b)" d="M.06 21.992h46.75V20.31H.06"/><path fill="#000" mask="url(#b)" d="M3.59 21.57h39.69v-.84H3.59"/><path fill="#FFF" mask="url(#b)" d="M41.202 21.57h2.077v-.84M3.593 21.57h.622v-.84h-.622"/><path fill="#333" mask="url(#b)" d="M71.54.292H18.552L.266 11.248h89.768"/><path fill="#000" mask="url(#b)" d="M46.812.292h-28.26L.265 11.248h46.547"/></g><path d="M580.08 252.843l.824-9.475-25.587-2.23-.826 9.476c-.463 5.327 2.644 10.97 4.417 14.7 2.097 3.467 4.698 4.588 4.107 11.4-.724 8.29-3.218 12.845-7.086 12.507l16.366 1.427c-3.87-.336-5.54-5.256-4.817-13.546.593-6.81 3.05-7.49 5.712-10.54 2.69-3.344 6.427-8.39 6.89-13.717" fill="#FFB900"/><path d="M576.328 292.795c-.05.596-.72 1.435-1.612 1.36l-21.668-1.89c-.89-.08-1.407-1.022-1.355-1.616.076-.894.748-1.734 1.64-1.657l21.667 1.89c.89.078 1.407 1.02 1.328 1.912M578.097 265.217c-.59-.05-1.157-.4-1.428-.72-.27-.325-.515-.944-.76-1.562.054-.59.4-1.16.723-1.433 1.338-1.674 2.625-2.757 4.258-4.41 1.932-1.62 3.914-3.84 6.54-6.597 1.287-1.085 1.686-2.245 1.763-3.134-.22-.913-.436-1.832-1.275-2.5-.54-.645-1.696-1.044-2.61-.826-1.803.143-3.436 1.792-3.296 3.597-.05.595-.372.866-.963.814-.296-.025-.567-.348-.84-.67-.036-2.993 2.267-5.48 5.252-5.52 1.184.104 2.64.53 3.744 1.523.81.968 1.594 2.23 1.493 3.417.114 2.1-.905 3.504-1.868 4.32-2.652 3.054-4.903 4.95-6.836 6.574-1.633 1.65-2.945 3.03-4.258 4.41l-.027.295c-.023.298-.023.298.247.618l.296.028s.295.025.322-.27c0 0 .296.027.025-.298.025-.296.374-.865.965-.81.59.05.862.372.835.668.193 1.214-.797 2.322-2.005 2.516l-.298-.027zM554.307 263.143c-1.16-.4-1.942-1.66-1.838-2.85.024-.296.642-.54.937-.515.59.052.837.673.81.968l-.025.296c-.025.296.27.323.27.323.296.027.296.027.592.05.027-.294.027-.294.05-.592l.026-.296c-1.055-1.586-2.106-3.17-3.432-5.08-1.622-1.935-3.216-4.165-5.595-7.66-.514-.94-1.57-2.525-1.092-4.574.4-1.162 1.095-2.297 2.356-3.082.965-.812 2.47-.98 3.95-.85 2.637.528 4.475 3.378 3.923 6.318-.03.294-.644.542-.942.515-.593-.052-.86-.375-.81-.968.452-1.754-.874-3.66-2.622-4.112-.862-.374-1.775-.153-2.716.36-.645.543-1.314 1.382-1.39 2.27-.373.863.116 2.102.9 3.364 2.107 3.175 3.972 5.727 5.3 7.633 1.322 1.91 2.405 3.198 3.433 5.08.566.347.512.94.463 1.534-.055.594-.4 1.162-1.018 1.406-.322.27-.938.515-1.53.463" fill="#FFB900"/><g><path fill="#333" d="M606.3 348.288l-1.216 13.392 42.53-7.66-5.13-12.247-3.786-1.677-5.56.865-3.143 1.12-13.23 2.383-2.872-.454-4.555 1.79"/><path d="M642.326 341.663c-.183-.243-.44-.893-.6-1.002-.047-.267-.66-.572-1.382-.72-.885-.258-3.667-1.005-4.66-1.102-.834.01-1.78.18-2.32.278-.54.097-1.053.33-1.302.512-.38.205-1.45 1.232-1.99 1.33-.54.096-6.212 1.118-6.212 1.118l-6.208 1.117c-.677.122-2.04-.465-2.332-.55-.293-.086-.992-.097-1.398-.025-.54.097-1.487.266-2.407.57-.897.438-3.245 2.108-3.847 2.634-.627.393-1.096.89-1.046 1.158-.086.293-.323 1.308-.323 1.308 1.45-1.232 5.53-3.353 7.286-3.67 1.62-.29 2.584 1.2 4.066 2.456 2.03 1.993 2.483 2.19 3.698 1.97.812-.146 6.21-1.12 7.023-1.263 1.215-.22 1.572-.56 2.914-3.158.816-1.675 1.335-3.43 2.956-3.724 1.622-.29 6.182.273 7.97.923l.113-.157z" fill="#000"/><path d="M626.735 344.885c.242 1.345-.645 2.61-1.995 2.857-1.35.24-2.623-.64-2.865-1.982-.243-1.342.645-2.613 1.994-2.854 1.35-.244 2.624.636 2.865 1.98" fill="#FFF"/><path d="M624.81 344.26c.357-.34.58-.658 1.094-.89-.54.097-1.215.22-1.705.585-.724-.147-1.4-.023-1.94.072.564.038 1.017.232 1.337.453-.444.634-.706 1.514-.733 2.904 0 0 .59-1.353 1.505-2.49 1.113.77 2.14 1.836 2.14 1.836-.513-1.295-1.063-2.03-1.7-2.47" fill="#000"/><path d="M641.91 340.905l.025.136-.025-.135zM641.958 341.174l.138-.025-.138.024z" fill="#505050"/><path d="M644.235 342.983c-.757-1.112-1.75-1.21-1.75-1.21s-.135.026-.16-.11l-.11.158c-1.79-.65-6.35-1.213-7.972-.922-1.62.294-2.14 2.05-2.955 3.724-1.344 2.597-1.7 2.938-2.916 3.16-.812.143-6.21 1.116-7.02 1.262-1.218.22-1.67.023-3.7-1.97-1.48-1.257-2.446-2.746-4.067-2.455-1.755.315-5.834 2.436-7.284 3.668 0 0-.897.438-1.22 1.745-.385 1.733-3.348 16.27-2.38 21.642 1.278 7.117 6.532 6.867 7.07 6.767.54-.097 4.82-6.55 6.282-8.477 1.464-1.927 2.815-2.173 3.895-2.367 1.08-.194 2.566-.46 8.238-1.483 5.67-1.02 7.156-1.286 8.1-1.46 1.08-.192 2.565-.46 4.613.837 2.043 1.295 8.3 5.85 8.838 5.754.54-.097 5.55-1.692 4.27-8.81-.966-5.372-8.805-17.963-9.77-19.453" fill="#333"/><path d="M641.885 340.77l.025.136-.025-.135zM641.727 340.66l.025.136-.025-.135z" fill="#505050"/><path d="M638.293 357.223c.485 2.685-1.29 5.224-3.99 5.71-2.566.462-5.112-1.296-5.597-3.98-.482-2.69 1.29-5.227 3.857-5.69 2.7-.485 5.248 1.275 5.73 3.96" fill="#737373"/><path d="M637.754 357.322c.41 2.284-1.14 4.502-3.572 4.94-2.296.413-4.524-1.126-4.932-3.407-.413-2.286 1.138-4.504 3.434-4.92 2.43-.435 4.66 1.102 5.07 3.387" fill="#333"/><path d="M624.388 359.73c.41 2.282-1.144 4.5-3.437 4.916-2.295.41-4.523-1.126-4.936-3.41-.41-2.283 1.144-4.504 3.44-4.92 2.293-.41 4.52 1.13 4.934 3.413" fill="#737373"/><path d="M616.946 357.878c-.825.84-1.148 2.148-.93 3.358.41 2.283 2.64 3.822 4.933 3.41 1.35-.242 2.335-.976 2.998-1.926l-7.002-4.842z" fill="#000"/><path d="M634.182 362.263c1.215-.22 2.22-.817 2.886-1.767l-7.002-4.842c-.69.82-1.035 1.99-.82 3.2.412 2.283 2.64 3.822 4.936 3.41" fill="#505050"/><path d="M617.083 352.446c.485 2.685-1.29 5.223-3.992 5.71-2.698.486-5.245-1.272-5.73-3.96-.48-2.685 1.293-5.223 3.995-5.71 2.7-.486 5.245 1.274 5.728 3.96" fill="#737373"/><path d="M616.41 352.57c.41 2.283-1.145 4.5-3.438 4.916-2.296.41-4.524-1.126-4.935-3.412-.412-2.283 1.142-4.502 3.437-4.917 2.296-.41 4.522 1.126 4.935 3.412" fill="#333"/><path d="M612.97 357.485c1.216-.22 2.202-.95 2.754-1.742l-7.03-4.978c-.662.953-.874 2.1-.658 3.308.41 2.286 2.64 3.825 4.935 3.412" fill="#505050"/><path d="M640.958 351.89c.194 1.077-.47 2.027-1.55 2.22-1.082.195-2.038-.464-2.23-1.538-.193-1.074.472-2.027 1.554-2.22 1.078-.197 2.035.464 2.226 1.538M639.75 345.176c.17.94-.47 2.026-1.55 2.22-1.08.194-2.062-.598-2.23-1.54-.192-1.075.448-2.158 1.528-2.354 1.08-.194 2.06.6 2.253 1.674M643.73 347.926c.195 1.076-.608 2.05-1.686 2.245-.945.17-2.034-.464-2.228-1.54-.194-1.074.607-2.05 1.552-2.22 1.08-.194 2.17.44 2.363 1.516M637.115 349.118c.194 1.074-.61 2.05-1.55 2.218-1.082.197-2.17-.44-2.365-1.514-.194-1.074.607-2.05 1.687-2.245.945-.17 2.034.465 2.228 1.54" fill="#000"/><path d="M636.404 357.565c.288 1.61-.844 3.062-2.465 3.353-1.485.27-3.053-.695-3.34-2.308-.292-1.612.84-3.065 2.326-3.33 1.622-.294 3.187.67 3.478 2.285" fill="#505050"/><path d="M623.097 351.78c.122.673-.324 1.304-.996 1.43-.676.12-1.447-.297-1.57-.97-.12-.67.46-1.33 1.133-1.448.677-.124 1.313.316 1.434.988M630.363 350.332c.12.673-.298 1.442-.975 1.562-.672.122-1.332-.454-1.454-1.124-.122-.672.32-1.306.997-1.426.677-.122 1.313.316 1.433.988" fill="#000"/><path d="M637.895 346.48l-.145-.803-.868-.954.404-.075.345.357c.16.11.184.243.208.38.11-.16.086-.295.197-.455l.196-.45.407-.073-.483 1.193.147.808-.405.072z" fill="#FCD116"/><path d="M638.846 352.55l-.17.586-.272.047.203-1.98.54-.096 1.012 1.76-.407.073-.365-.488-.542.097zm.494-.366l-.234-.515s-.158-.11-.183-.245c.025.136.05.27-.086.294l-.038.56.54-.096z" fill="#7FBA00"/><path d="M635.822 350.46l-.34-.354c-.163-.11-.185-.246-.345-.354.025.133.05.268-.06.426l-.064.427-.406.074.347-1.174-.708-.842.404-.072.207.377c.16.11.183.242.32.22-.024-.136-.024-.136.086-.293l.06-.43.544-.096-.507 1.064.868.952-.406.074z" fill="#00BCF2"/><path d="M640.996 347.448l.54-.097c.27-.047.405-.07.565.04.136-.026.294.085.32.218.046.266-.062.427-.175.585.135-.025.43.06.478.33.048.27-.063.428-.196.453-.113.157-.356.34-.63.39-.27.047-.403.072-.538.097l-.364-2.015zm.55.733l.135-.024c.272-.047.382-.205.358-.34-.05-.27-.183-.244-.318-.22-.136.023-.27.048-.27.048l.096.537zm.17.94l.134-.025c.27-.047.515-.23.467-.5-.025-.134-.318-.22-.588-.17l-.134.022.12.673z" fill="#E81123"/><path d="M623.36 358.664l-2.026.366-.385-2.148c-.026-.136-.346-.355-.48-.332l-1.756.316c-.27.05-.357.34-.332.476l.388 2.148-2.16.39c-.138.025-.248.183-.2.452l.315 1.747c.022.132.185.242.318.217l2.16-.39.386 2.153c.048.266.208.377.477.327l1.754-.316c.14-.022.382-.204.335-.473l-.386-2.15 2.022-.366c.27-.046.382-.206.36-.34l-.314-1.746c-.05-.27-.208-.377-.48-.33M631.18 356.425c-.442.635-.726 1.38-.582 2.185.29 1.613 1.856 2.577 3.342 2.308.947-.17 1.572-.56 2.016-1.193l-4.776-3.3z" fill="#737373"/><path d="M615.06 352.81c.287 1.613-.71 3.04-2.33 3.332-1.62.29-3.054-.697-3.343-2.31-.29-1.612.708-3.04 2.33-3.33 1.62-.292 3.05.698 3.342 2.31" fill="#505050"/><path d="M609.835 351.672c-.467.5-.593 1.354-.447 2.16.29 1.613 1.72 2.602 3.342 2.308.81-.144 1.437-.535 1.854-1.304l-4.75-3.164z" fill="#737373"/><path d="M623.36 358.664l-2.026.366-.385-2.148c-.026-.136-.346-.355-.48-.332l-1.756.316c-.27.05-.357.34-.332.476l.388 2.148 3 1.957 2.022-.366c.27-.046.382-.206.36-.34l-.314-1.746c-.05-.27-.208-.377-.48-.33" fill="#505050"/><path d="M633.845 360.383c-1.216.22-2.465-.526-2.707-1.87-.218-1.208.67-2.478 1.886-2.697 1.348-.244 2.623.636 2.84 1.846.24 1.342-.668 2.478-2.02 2.72m-.798-4.433c-1.08.195-1.856 1.303-1.637 2.513.216 1.212 1.33 1.98 2.41 1.785 1.213-.22 1.99-1.327 1.772-2.54-.216-1.206-1.33-1.978-2.546-1.76M612.634 355.606c-1.35.24-2.465-.526-2.706-1.87-.244-1.344.534-2.454 1.885-2.698 1.216-.218 2.465.528 2.706 1.87.238 1.34-.67 2.477-1.886 2.698m-.798-4.434c-1.216.22-1.99 1.33-1.775 2.538.22 1.21 1.334 1.98 2.55 1.76 1.215-.22 1.99-1.327 1.772-2.538-.215-1.21-1.33-1.98-2.546-1.76" fill="#000"/></g><g><path d="M629.196 304.87l-.018-.01c-2.192 5.04-1.396 3.202-3.38 7.753-2.574 5.92 6.783 12.12 13.095 14.87l3.234-7.428c-4.265-1.86-15.37-7.837-12.93-15.186" fill="#231F1F"/><path d="M645.34 329.825c-.085.2-.28.307-.49.255-.723-.14-2.626-.63-6.144-2.164-3.326-1.45-4.637-2.277-5.115-2.638-.16-.113-.215-.33-.136-.507l.42-.972c.056-.126.195-.15.295-.086.51.373 2.07 1.415 5.16 2.767 3.255 1.416 5.573 2.02 6.26 2.19.114.03.182.167.134.273l-.383.882z" fill="#2F2F2F"/><path d="M633.508 324.644l.5.26c.133.08.305.027.368-.117.063-.145.023-.29-.104-.346l-.647-.452-.117.656z" fill="#231F1F"/><path d="M641.22 328.992c-1.61-.144-3.12-.803-4.303-1.877l.14-.325c1.385.71 2.824 1.338 4.303 1.877l-.14.325zM662.07 319.206c-3.72 6.79-15.28 1.855-19.566-.014l-3.173 7.287c6.33 2.756 16.802 6.405 19.38.484 1.982-4.55 1.18-2.715 3.378-7.75l-.018-.008zM625.786 312.694c3.712-6.772 15.617-2.63 19.882-.77l3.09-7.085c-6.313-2.754-17.034-5.825-19.614.094-1.982 4.55-1.182 2.717-3.376 7.75l.018.01z" fill="#505050"/><path d="M658.66 327.03l.02.008c2.19-5.037 1.392-3.202 3.375-7.754 2.577-5.916-6.97-11.684-13.3-14.446l-3.087 7.088c4.288 1.868 15.424 7.774 12.993 15.103" fill="#231F1F"/><path d="M648.757 304.838c-3.554-1.55-8.525-3.204-12.638-3.285l-2.633 6.045.257.09c4.062.145 8.874 1.772 12.34 3.286 3.485 1.518 7.954 3.937 10.825 6.817l.24.127 2.635-6.045c-2.86-2.956-7.454-5.477-11.028-7.034" fill="#5E5E5E"/><path d="M637.49 307.053c1.608.293 4.794.893 9.097 2.768 4.32 1.886 6.928 3.815 8.238 4.792l1.77-4.064c-1.346-1.038-4.09-2.897-8.27-4.72-4.16-1.815-7.39-2.56-9.065-2.842l-1.77 4.067z" fill="#00BCF2"/><path d="M633.455 307.668c-3.534-.235-6.213 1.638-7.657 4.944.677.295 1.28-.21 1.28-.21s1.803-3.753 6.89-3.288c-.288-.598-.513-1.446-.513-1.446" fill="#231F1F"/><path d="M652.556 322.44l-1.786 4.1c-.463 1.064.266 2.258 1.407 2.307 1.964.11 4.623-.167 5.523-2.236 1.488-3.415.392-4.302.392-4.302s-2.304.686-5.536.133" fill="#2F2F2F"/><path d="M657.12 317.99c2.58 2.43 3.032 5.666 1.59 8.976-.675-.293-.714-1.083-.714-1.083s1.518-3.875-2.284-7.287c.636-.194 1.407-.607 1.407-.607" fill="#505050"/><path d="M633.455 307.668c-.307.704.158 1.482.893 1.548 4.262.316 8.824 2.134 11.134 3.14 2.33 1.016 6.765 3.124 9.9 6.03.546.497 1.43.305 1.737-.397-2.86-2.96-7.46-5.46-11.034-7.017-3.56-1.552-8.52-3.224-12.63-3.305" fill="#C8C8C8"/><path d="M644.42 328.247c-3.642-1.01-6.328-1.99-9.68-4.05-1.073-.747-1.424-1.927-.942-2.938.657-1.168 1.313-2.34 1.96-3.533.55-.873 1.764-1.33 2.73-.778 2.81 1.416 5.673 2.666 8.64 3.767.96.375 1.658 1.492 1.273 2.523-.417 1.295-.825 2.573-1.25 3.84-.33 1.143-1.713 1.504-2.73 1.167" fill="#505050"/><path d="M646.96 325.674c-.533.494-1.4.59-2.09.372-3.314-.932-5.707-1.954-8.747-3.814-.737-.345-1.148-1.1-1.116-1.86-.158.32-.334.628-.51.935-.437.903-.006 2.054.948 2.49 3.028 1.88 5.428 2.88 8.743 3.813.922.318 2.176.01 2.45-1.007.116-.313.207-.616.322-.93" fill="#2F2F2F"/><path d="M639.075 320.458c-.076.18-.26.313-.45.358-.172.057-.382.05-.578-.036-.178-.08-.325-.228-.41-.37-.104-.196-.122-.397-.037-.595.08-.18.212-.294.408-.357.174-.054.4-.04.596.045.214.093.376.25.464.438.052.175.077.357.007.518" fill="#ACACAC"/><path d="M639.075 320.458c-.076.18-.26.313-.45.358l-.296-.686.738-.19c.052.175.077.357.007.518" fill="#E3E3E3"/><path d="M638.33 320.13l-.694.28c-.103-.197-.12-.398-.036-.597.08-.178.212-.293.408-.356l.32.674z" fill="#E3E3E3"/><path d="M645.636 323.32c-.077.178-.262.314-.45.36-.172.053-.382.046-.578-.037-.18-.08-.325-.228-.41-.373-.107-.196-.123-.397-.037-.593.08-.18.213-.293.41-.357.173-.056.398-.042.595.043.214.093.376.253.464.44.067.18.076.355.006.517" fill="#ACACAC"/><path d="M645.636 323.32c-.077.178-.262.314-.45.36l-.296-.687.74-.19c.067.18.076.355.006.517" fill="#E3E3E3"/><path d="M644.89 322.994l-.693.275c-.106-.197-.122-.398-.036-.594.08-.18.213-.294.41-.357l.32.674z" fill="#E3E3E3"/><path d="M649.787 314.812c-1.3-.758-2.61-1.395-4.012-1.963-.284-.125-.44-.448-.33-.744.098-.277.44-.43.75-.316 1.454.55 2.855 1.266 4.18 2.058.26.18.364.524.186.788-.16.273-.513.354-.773.176M653.796 317.652c-.28-.23-.424-.334-.722-.528-.295-.194-.42-.59-.225-.89.174-.31.632-.39.966-.18.34.235.503.348.794.605.316.243.345.663.106.922-.24.26-.656.294-.92.07" fill="#ACACAC"/><path d="M659.667 311.458c-3.335-3.51-8.504-5.826-10.762-6.813l-.036-.013-.02-.01c-2.256-.985-7.47-3.194-12.314-3.25-.402-.005-.535.45-.535.45 4.784.095 10.474 2.277 12.682 3.24 2.22.97 7.695 3.656 11.02 7.098 0 0 .24-.41-.035-.702" fill="#C8C8C8"/></g><g><path d="M265.48 205.58c0 3.78-3.063 6.843-6.838 6.843-3.778 0-6.84-3.062-6.84-6.842 0-3.778 3.062-6.84 6.84-6.84 3.775 0 6.837 3.062 6.837 6.84" fill="#F8B746"/><path d="M266.688 175.443c0 2.56-2.074 4.64-4.636 4.64-2.56 0-4.635-2.08-4.635-4.64 0-2.563 2.075-4.64 4.635-4.64 2.562 0 4.636 2.077 4.636 4.64M278.716 189.79c0 2.113-1.71 3.824-3.822 3.824-2.11 0-3.823-1.71-3.823-3.823 0-2.11 1.713-3.824 3.824-3.824 2.11 0 3.822 1.713 3.822 3.825M242.677 135.687c0 1.562-1.267 2.83-2.828 2.83-1.564 0-2.83-1.268-2.83-2.83 0-1.564 1.266-2.83 2.83-2.83 1.56 0 2.827 1.266 2.827 2.83M252.88 135.682c.138 1.21-.732 2.304-1.94 2.44-1.212.14-2.304-.732-2.44-1.942-.14-1.21.732-2.304 1.94-2.44 1.212-.14 2.303.73 2.44 1.942M255.55 124.53c0 1.564-1.266 2.83-2.827 2.83-1.563 0-2.828-1.266-2.828-2.83 0-1.56 1.265-2.83 2.828-2.83 1.56 0 2.828 1.27 2.828 2.83" fill="#FFC95C"/><path d="M264.392 146.54c0 1.895-1.536 3.43-3.43 3.43-1.893 0-3.43-1.535-3.43-3.43 0-1.896 1.537-3.433 3.43-3.433 1.894 0 3.43 1.537 3.43 3.432" fill="#F9A207"/><path d="M269.988 153.186c0 .968-.785 1.756-1.753 1.756-.97 0-1.754-.788-1.754-1.756 0-.97.786-1.755 1.755-1.755.968 0 1.753.786 1.753 1.756M273.632 164.1c0 1.632-1.32 2.953-2.95 2.953-1.63 0-2.95-1.32-2.95-2.952 0-1.63 1.32-2.95 2.95-2.95 1.63 0 2.95 1.32 2.95 2.95" fill="#FFC95C"/><path d="M289.556 175.92c0 3.165-2.564 5.73-5.726 5.73-3.16 0-5.726-2.565-5.726-5.73 0-3.162 2.565-5.728 5.726-5.728 3.162 0 5.726 2.566 5.726 5.73" fill="#F9A106"/><path d="M291.41 212.436c0 3.163-2.565 5.73-5.726 5.73-3.162 0-5.726-2.567-5.726-5.73 0-3.164 2.564-5.73 5.726-5.73 3.16 0 5.726 2.566 5.726 5.73" fill="#FFC95C"/></g></g></svg>