<?xml version="1.0" encoding="UTF-8"?>
<svg width="310px" height="241px" viewBox="0 0 310 241" version="1.1" xmlns="http://www.w3.org/2000/svg" xmlns:xlink="http://www.w3.org/1999/xlink">
    <!-- Generator: Sketch 41.2 (35397) - http://www.bohemiancoding.com/sketch -->
    <title>animation-graphic-mobile</title>
    <desc>Created with Sketch.</desc>
    <defs></defs>
    <g id="Page-1" stroke="none" stroke-width="1" fill="none" fill-rule="evenodd">
        <g id="animation-graphic-mobile">
            <g id="Homepage">
                <g id="1.1_Mobile_Public_Hompeage_Register-Copy">
                    <path d="M101.042026,157.200529 L101.042026,72.9318565 C101.042026,33.964082 132.650748,1.98596566 171.907988,1.98596566 C210.839393,1.98596566 242.776808,33.964082 242.776808,72.9318565 L242.776808,157.200529 L101.042026,157.200529 Z" id="Fill-37" fill="#3085B7"></path>
                    <path d="M171.918812,3.9965478 C209.849851,3.9965478 240.792616,34.9712267 240.792616,72.9441648 L240.792616,155.214563 L103.047867,155.214563 L103.047867,72.9441648 C103.047867,34.9712267 133.990632,3.9965478 171.918812,3.9965478 M171.918812,0 C131.661207,0 99.054976,32.640385 99.054976,72.9441648 L99.054976,159.211111 L244.782649,159.211111 L244.782649,72.9441648 C244.782649,32.640385 212.179276,0 171.918812,0" id="Fill-38" fill="#854CC7"></path>
                    <path d="M112.964325,68.550641 C112.964325,36.2428238 139.24824,9.9298283 171.854471,9.9298283 C204.129152,9.9298283 230.413067,36.2428238 230.413067,68.550641 C230.413067,101.191026 204.129152,127.504022 171.854471,127.504022 C139.24824,127.504022 112.964325,101.191026 112.964325,68.550641" id="Fill-39" fill="#AF89DA"></path>
                    <path d="M124.886625,68.4890998 C124.886625,41.8435365 146.51169,19.8596566 173.461563,19.8596566 C200.079886,19.8596566 222.03936,41.8435365 222.03936,68.4890998 C222.03936,95.4700979 200.079886,117.118543 173.461563,117.118543 C146.51169,117.118543 124.886625,95.4700979 124.886625,68.4890998" id="Fill-40" fill="#D3BEEC"></path>
                    <polygon id="Fill-44" fill="#5C2D91" points="99.054976 166.205213 244.451099 166.205213 244.451099 158.877253 99.054976 158.877253"></polygon>
                    <path d="M302.759316,110.662583 C296.105449,104.332326 286.78775,104.332326 285.458692,104.332326 L254.515927,104.332326 C252.852461,98.004937 247.198961,93.3403862 240.207828,93.3403862 L240.207828,123.320229 C247.198961,123.320229 252.852461,118.655678 254.515927,112.328289 L285.458692,112.328289 L285.790242,112.328289 C285.790242,112.328289 292.778516,112.328289 297.437366,116.657404 C300.095483,119.323681 301.427399,123.320229 301.427399,128.31448 L301.427399,185.937589 C301.427399,190.934707 300.095483,194.931255 297.437366,197.594665 C292.778516,202.259215 285.790242,201.926647 285.790242,201.926647 L285.458692,201.926647 L259.174777,201.926647 C251.520544,201.926647 245.535494,204.257489 241.208195,208.586605 C236.217795,213.916291 235.217429,220.911683 235.217429,224.240228 C228.897971,225.905934 224.239121,231.568188 224.239121,238.56358 L254.184377,238.56358 C254.184377,231.568188 249.525528,225.905934 243.203211,224.240228 C243.534761,221.909386 244.203578,217.580271 247.198961,214.248859 C249.857078,211.250014 253.852827,209.919743 259.174777,209.919743 L285.458692,209.919743 C286.78775,209.919743 296.105449,210.252311 302.759316,203.589486 C307.418165,199.260371 309.744732,193.598117 309.744732,185.937589 L309.744732,128.31448 C309.744732,120.98652 307.418165,114.991698 302.759316,110.662583" id="Fill-45" fill="#854CC7"></path>
                    <path d="M166.945327,241 L166.945327,59.2840517 L178.589593,59.2840517 L178.589593,241 L166.945327,241 Z M153.969145,241 L153.969145,222.491711 C153.637595,212.832909 145.651812,205.172381 136.002563,205.172381 C126.021763,205.172381 118.03598,213.165477 118.03598,223.159713 L118.03598,241 L129.680246,241 L129.680246,223.159713 C129.680246,219.492866 132.675629,216.832324 136.002563,216.832324 C139.663904,216.832324 142.656429,219.492866 142.656429,223.159713 L142.656429,241 L153.969145,241 Z M98.444933,241 C95.36598,238.584049 91.51618,237.147631 87.427624,237.147631 C83.1973319,237.147631 79.2653562,238.584049 76.1387603,241 L98.444933,241 Z M56.4848596,241 L56.4848596,236.149927 L77.1124166,204.507246 C77.4468248,204.174678 77.7783748,203.839243 77.7783748,203.506675 C77.4468248,200.840399 65.4681507,198.844992 50.4969516,198.844992 C35.8573026,198.844992 23.8786285,200.840399 23.5470784,203.506675 C23.5470784,203.839243 23.8786285,204.174678 24.2130367,204.507246 L44.8405937,236.149927 L44.8405937,241 L56.4848596,241 Z" id="Combined-Shape" fill="#854CC7"></path>
                    <path d="M255.106719,110.228682 L255.106719,109.228112 C252.114194,115.2258 246.457837,118.88978 240.13552,119.554916 L240.13552,125.21717 C248.452853,125.21717 255.106719,118.554345 255.106719,110.228682" id="Fill-83" fill="#5C2D91"></path>
                    <path d="M132.834824,69.0926943 C132.834824,47.4413822 150.466998,29.789485 172.094922,29.789485 C193.719987,29.789485 211.355019,47.4413822 211.355019,69.0926943 C211.355019,78.0863603 208.359636,86.4148907 203.037686,93.0748481 L203.369236,93.0748481 L203.037686,93.0748481 C202.374586,94.0725515 201.70577,95.073122 200.71112,96.0736924 C197.04692,100.735376 190.393054,110.394178 190.393054,120.052979 L153.793931,120.052979 C153.793931,110.394178 147.142923,100.735376 143.150032,96.0736924 C142.484074,95.073122 141.486565,94.0725515 140.820607,93.0748481 C135.830207,86.4148907 132.834824,78.0863603 132.834824,69.0926943" id="Fill-84" fill="#F4F1FF"></path>
                    <path d="M132.834824,69.0926943 C132.834824,47.4442492 150.466998,29.789485 172.092064,29.789485 C193.719987,29.789485 211.355019,47.4442492 211.355019,69.0926943 C211.355019,78.0863603 208.359636,86.4148907 203.037686,93.0748481 L203.369236,93.0748481 L203.037686,93.0748481 C202.371728,94.0725515 201.70577,95.073122 200.708261,96.0736924 C197.04692,100.735376 190.393054,110.394178 190.393054,120.052979 L153.793931,120.052979 C153.793931,110.394178 147.140065,100.735376 143.147174,96.0736924 C142.481215,95.073122 141.483707,94.0725515 140.817749,93.0748481 C135.827349,86.4148907 132.834824,78.0863603 132.834824,69.0926943" id="Stroke-85" stroke="#FFFFFF" stroke-width="1.512"></path>
                    <path d="M144.757124,70.3491162 C144.757124,54.6954928 157.398898,41.705279 173.036055,41.705279" id="Stroke-86" stroke="#FFFFFF" stroke-width="1.163"></path>
                    <path d="M211.854712,69.0926943 C211.854712,47.4413822 194.21968,29.789485 172.594614,29.789485 C171.262698,29.789485 169.93364,30.1220528 168.601723,30.1220528 C188.56618,32.1203267 204.200479,48.7745205 204.200479,69.0926943 C204.200479,78.0863603 200.873546,86.4148907 195.883146,93.0748481 C195.220046,94.0725515 194.21968,95.073122 193.55658,96.0736924 C189.895238,100.735376 182.909822,110.394178 182.909822,120.052979 L190.892747,120.052979 C190.892747,110.394178 197.546613,100.735376 201.207954,96.0736924 C202.205462,95.073122 202.871421,94.0725515 203.537379,93.0748481 C208.859329,86.4148907 211.854712,78.0863603 211.854712,69.0926943" id="Fill-95" fill="#EDE8FF"></path>
                    <path d="M192.299829,121.143906 C192.299829,121.143906 194.294846,121.143906 194.294846,123.142179 L194.294846,125.473021 C194.294846,125.473021 194.294846,127.474162 192.299829,127.474162 L154.703198,127.474162 C154.703198,127.474162 152.705324,127.474162 152.705324,125.473021 L152.705324,123.142179 C152.705324,123.142179 152.705324,121.143906 154.703198,121.143906 L192.299829,121.143906 Z" id="Fill-110" fill="#854CC7"></path>
                    <path d="M192.299829,127.101803 C192.299829,127.101803 194.294846,127.101803 194.294846,129.432644 L194.294846,131.763486 C194.294846,131.763486 194.294846,133.76176 192.299829,133.76176 L154.703198,133.76176 C154.703198,133.76176 152.705324,133.76176 152.705324,131.763486 L152.705324,129.432644 C152.705324,129.432644 152.705324,127.101803 154.703198,127.101803 L192.299829,127.101803 Z" id="Fill-111" fill="#5C2D91"></path>
                    <path d="M192.299829,139.017597 C192.299829,139.017597 194.294846,139.017597 194.294846,141.01587 L194.294846,143.67928 C194.294846,143.67928 194.294846,145.677554 192.299829,145.677554 L154.703198,145.677554 C154.703198,145.677554 152.705324,145.677554 152.705324,143.67928 L152.705324,141.01587 C152.705324,141.01587 152.705324,139.017597 154.703198,139.017597 L192.299829,139.017597 Z" id="Fill-112" fill="#5C2D91"></path>
                    <path d="M192.299829,133.0597 C192.299829,133.0597 194.294846,133.0597 194.294846,135.057973 L194.294846,137.721383 C194.294846,137.721383 194.294846,139.722524 192.299829,139.722524 L154.703198,139.722524 C154.703198,139.722524 152.705324,139.722524 152.705324,137.721383 L152.705324,135.057973 C152.705324,135.057973 152.705324,133.0597 154.703198,133.0597 L192.299829,133.0597 Z" id="Fill-113" fill="#854CC7"></path>
                    <path d="M36.1765221,186.152132 C36.1765221,190.954296 32.2951001,194.844766 27.5104901,194.844766 C22.7230219,194.844766 18.8416,190.954296 18.8416,186.152132 C18.8416,181.349967 22.7230219,177.459497 27.5104901,177.459497 C32.2951001,177.459497 36.1765221,181.349967 36.1765221,186.152132" id="Fill-403" fill="#F8B746"></path>
                    <path d="M37.7087977,147.861247 C37.7087977,151.115251 35.079263,153.755725 31.8323592,153.755725 C28.5883136,153.755725 25.9587788,151.115251 25.9587788,147.861247 C25.9587788,144.604376 28.5883136,141.966769 31.8323592,141.966769 C35.079263,141.966769 37.7087977,144.604376 37.7087977,147.861247" id="Fill-405" fill="#FFC95C"></path>
                    <path d="M52.9529539,166.090551 C52.9529539,168.774029 50.7835877,170.947188 48.1083219,170.947188 C45.4330561,170.947188 43.2636899,168.774029 43.2636899,166.090551 C43.2636899,163.407073 45.4330561,161.231047 48.1083219,161.231047 C50.7835877,161.231047 52.9529539,163.407073 52.9529539,166.090551" id="Fill-407" fill="#FFC95C"></path>
                    <path d="M7.2776492,97.3505022 C7.2776492,99.334441 5.6713464,100.945675 3.693479,100.945675 C1.7127533,100.945675 0.1093088,99.334441 0.1093088,97.3505022 C0.1093088,95.3636962 1.7127533,93.7553294 3.693479,93.7553294 C5.6713464,93.7553294 7.2776492,95.3636962 7.2776492,97.3505022" id="Fill-409" fill="#FFC95C"></path>
                    <path d="M20.2092439,97.3436215 C20.3835935,98.883181 19.2803321,100.270792 17.7483423,100.445677 C16.2134943,100.620561 14.8301304,99.513913 14.6557808,97.9772206 C14.4814312,96.4376609 15.5846925,95.0500503 17.1166823,94.8751655 C18.6515303,94.7002807 20.0348943,95.8040619 20.2092439,97.3436215" id="Fill-411" fill="#FFC95C"></path>
                    <path d="M23.5936266,83.1753722 C23.5936266,85.1621782 21.9873238,86.770545 20.0094564,86.770545 C18.0287307,86.770545 16.4252862,85.1621782 16.4252862,83.1753722 C16.4252862,81.1914331 18.0287307,79.5801993 20.0094564,79.5801993 C21.9873238,79.5801993 23.5936266,81.1914331 23.5936266,83.1753722" id="Fill-413" fill="#FFC95C"></path>
                    <path d="M34.7977313,111.138019 C34.7977313,113.546268 32.8513039,115.498671 30.4504243,115.498671 C28.052403,115.498671 26.1031174,113.546268 26.1031174,111.138019 C26.1031174,108.729769 28.052403,106.777367 30.4504243,106.777367 C32.8513039,106.777367 34.7977313,108.729769 34.7977313,111.138019" id="Fill-415" fill="#F9A207"></path>
                    <path d="M41.8900438,119.583521 C41.8900438,120.813449 40.8953937,121.814019 39.6692302,121.814019 C38.4402086,121.814019 37.4455585,120.813449 37.4455585,119.583521 C37.4455585,118.350727 38.4402086,117.353023 39.6692302,117.353023 C40.8953937,117.353023 41.8900438,118.350727 41.8900438,119.583521" id="Fill-417" fill="#FFC95C"></path>
                    <path d="M46.5094505,133.450739 C46.5094505,135.523554 44.8345511,137.200728 42.770938,137.200728 C40.7044666,137.200728 39.0295673,135.523554 39.0295673,133.450739 C39.0295673,131.377924 40.7044666,129.70075 42.770938,129.70075 C44.8345511,129.70075 46.5094505,131.377924 46.5094505,133.450739" id="Fill-419" fill="#FFC95C"></path>
                    <path d="M66.6911298,148.468757 C66.6911298,152.48824 63.4413678,155.747978 59.4341855,155.747978 C55.4270032,155.747978 52.1772412,152.48824 52.1772412,148.468757 C52.1772412,144.449273 55.4270032,141.189535 59.4341855,141.189535 C63.4413678,141.189535 66.6911298,144.449273 66.6911298,148.468757" id="Fill-421" fill="#F9A106"></path>
                    <path d="M69.0399903,194.860821 C69.0399903,198.880305 65.7902283,202.140043 61.783046,202.140043 C57.7758637,202.140043 54.5261017,198.880305 54.5261017,194.860821 C54.5261017,190.841338 57.7758637,187.5816 61.783046,187.5816 C65.7902283,187.5816 69.0399903,190.841338 69.0399903,194.860821" id="Fill-423" fill="#FFC95C"></path>
                </g>
            </g>
        </g>
    </g>
</svg>