<svg width="299" height="224" viewBox="0 0 299 224" xmlns="http://www.w3.org/2000/svg"><g transform="translate(0 -1)" fill="none" fill-rule="evenodd"><ellipse fill="#1463A7" cx="149.5" cy="189.391" rx="149.5" ry="35"/><path fill="#9C683E" d="M146.937 214.077L49.4 169.53V64.15l96.992 45.266"/><path fill="#C0804D" d="M146.15 214.288l102.592-44.14V65.567L146.15 109.484"/><path fill="#D48F59" d="M49.606 64.215L146 22.502v86.76"/><path fill="#F4AA70" d="M146 22.58v86.847l102.746-43.954"/><path fill="#B57747" d="M.332 86.628l49.243-22.19 96.817 44.615-48.96 22.066M146.467 109.377l49.786 24.308 101.273-46.643-49.2-21.515"/><path fill="#C0804D" d="M248.675 65.334L145.99 22.53l45.293-21.39 107.1 41.782M49.565 64.343L.263 43.22l97.19-40.822 48.715 19.978"/></g></svg>