<svg width="267" height="212" viewBox="0 0 267 212" xmlns="http://www.w3.org/2000/svg"><g fill="none" fill-rule="evenodd"><ellipse fill="#1463A7" cx="133.5" cy="181" rx="133.5" ry="31"/><path fill="#9C683E" d="M32.025 21.46v143.99l104.34 39.417V41.12"/><path fill="#C0804D" d="M136.074 204.352l.245-163.23 105.378-19.1.266 142.482"/><path fill="#D48F59" d="M32.236 21.643L136.3 41.146 241.68 22.05 137.193.58"/><path fill="#C0804D" d="M72 29.25L168.836 7l31.364 6.315-90.85 22.623"/><path d="M66 125.944v-9.023c2.73 2.545 5.917 4.005 9.558 4.318 2.295.185 4.082-.287 5.362-1.422 1.28-1.15 1.92-2.836 1.92-5.047 0-2.283-.79-4.063-2.375-5.332-1.584-1.253-3.76-1.897-6.528-1.945l-3.784-.07v-8.134l3.5-.086c5.31-.118 7.964-2.373 7.964-6.773 0-4.14-2.04-6.06-6.116-5.738-2.73.23-5.385 1.51-7.964 3.79V81.94c2.864-2.064 6.2-3.353 10.013-3.817 4.17-.465 7.42.39 9.742 2.57 2.323 2.23 3.485 5.295 3.485 9.158 0 6.87-2.703 11.196-8.107 12.94v.177c2.882.446 5.158 1.78 6.827 4.012C91.167 109.234 92 112 92 115.265c0 4.93-1.394 8.746-4.182 11.397-2.787 2.58-6.637 3.585-11.55 3.022-4.21-.53-7.632-1.797-10.268-3.74z" fill="#FFF"/></g></svg>