<svg width="267" height="212" viewBox="0 0 267 212" xmlns="http://www.w3.org/2000/svg"><g fill="none" fill-rule="evenodd"><ellipse fill="#1463A7" cx="133.5" cy="181" rx="133.5" ry="31"/><path fill="#9C683E" d="M32.025 21.46v143.99l104.34 39.417V41.12"/><path fill="#C0804D" d="M136.074 204.352l.245-163.23 105.378-19.1.266 142.482"/><path fill="#D48F59" d="M32.236 21.643L136.3 41.146 241.68 22.05 137.193.58"/><path fill="#C0804D" d="M72 29.25L168.836 7l31.364 6.315-90.85 22.623"/><path d="M76.32 117.463l18.543 1.833-.16 9.276-29.072-4.395.058-3.282c.04-2.23.45-4.182 1.233-5.873.785-1.71 1.758-3.236 2.923-4.58 1.164-1.367 2.433-2.58 3.806-3.64 1.372-1.077 2.678-2.062 3.915-2.95 1.3-.945 2.44-1.86 3.424-2.748.982-.896 1.813-1.796 2.49-2.7.678-.907 1.188-1.832 1.53-2.77.343-.943.524-1.947.542-3.013.037-2.083-.466-3.638-1.507-4.654-1.042-1.004-2.654-1.44-4.835-1.316-3.772.23-7.41 2.016-10.908 5.25l.15-8.573c3.86-2.92 8.19-4.684 12.984-5.182 2.224-.214 4.212-.076 5.966.422 1.752.514 3.23 1.346 4.432 2.496 1.202 1.165 2.108 2.622 2.72 4.368.61 1.756.896 3.735.858 5.93-.04 2.338-.388 4.415-1.04 6.227-.653 1.804-1.506 3.43-2.56 4.88-1.054 1.437-2.263 2.734-3.628 3.89-1.364 1.142-2.778 2.226-4.242 3.25-.99.705-1.944 1.397-2.862 2.08-.92.673-1.73 1.338-2.434 1.993-.704.65-1.265 1.292-1.683 1.927-.42.63-.633 1.25-.644 1.856z" fill="#FFF"/></g></svg>