<svg width="267" height="220" viewBox="0 0 267 220" xmlns="http://www.w3.org/2000/svg"><g fill="none" fill-rule="evenodd"><ellipse fill="#1463A7" cx="133.5" cy="185" rx="133.5" ry="35"/><path fill="#D48F59" d="M28.236 21.643L132.3 41.146 237.68 22.05 133.193.58"/><path fill="#C0804D" d="M68 29.25L164.836 7l31.364 6.315-90.85 22.623"/><path fill="#9C683E" d="M28.025 21.46v143.99l104.34 39.417V41.12"/><path fill="#C0804D" d="M131.8 204.23l.245-163.232L237.425 21.9l.265 142.48"/><path d="M82.87 78.165l-.86 49.36-9.355-.944.632-36.21c-.525.51-1.143.996-1.855 1.454-.712.456-1.468.867-2.268 1.234-.8.366-1.628.676-2.485.933-.858.255-1.704.44-2.54.555l.147-8.393c2.455-.87 4.774-1.96 6.96-3.273 2.184-1.33 4.163-2.784 5.935-4.363l5.688-.352z" fill="#FFF" style="mix-blend-mode:luminosity"/></g></svg>