<?xml version="1.0" encoding="utf-8"?>
<!-- Generator: Adobe Illustrator 21.0.0, SVG Export Plug-In . SVG Version: 6.00 Build 0)  -->
<svg version="1.1" id="Layer_1" xmlns="http://www.w3.org/2000/svg" xmlns:xlink="http://www.w3.org/1999/xlink" x="0px" y="0px"
	 viewBox="0 0 1398.7 1066" style="enable-background:new 0 0 1398.7 1066;" xml:space="preserve">
<style type="text/css">
	.st0{fill:#008373;}
	.st1{fill:#016859;}
	.st2{fill:#2AA296;}
	.st3{fill:none;stroke:#2AA296;stroke-width:3.931;stroke-linecap:round;}
	.st4{fill:none;stroke:#2AA296;stroke-width:4.655;stroke-linecap:round;}
	.st5{fill:none;stroke:#2AA296;stroke-width:3;stroke-linecap:round;}
	.st6{fill:none;stroke:#2AA296;stroke-width:4;stroke-linecap:round;}
	.st7{fill:#FFB73E;}
	.st8{filter:url(#Adobe_OpacityMaskFilter);}
	.st9{fill:#FFFFFF;}
	.st10{mask:url(#mask-2);fill:#F4AD3A;}
	.st11{filter:url(#Adobe_OpacityMaskFilter_1_);}
	.st12{mask:url(#mask-4);fill:#FFCA5B;}
	.st13{fill:#FFCA5B;}
	.st14{filter:url(#Adobe_OpacityMaskFilter_2_);}
	.st15{mask:url(#mask-6);fill:#FFCA5B;}
	.st16{filter:url(#Adobe_OpacityMaskFilter_3_);}
	.st17{mask:url(#mask-8);fill:none;stroke:#FFCA5B;}
	.st18{filter:url(#Adobe_OpacityMaskFilter_4_);}
	.st19{mask:url(#mask-10);fill:none;stroke:#F4AD3A;stroke-width:2.896;}
	.st20{filter:url(#Adobe_OpacityMaskFilter_5_);}
	.st21{mask:url(#mask-12);fill:none;stroke:#F4AD3A;stroke-width:2.896;}
	.st22{filter:url(#Adobe_OpacityMaskFilter_6_);}
	.st23{mask:url(#mask-14);fill:none;stroke:#F4AD3A;stroke-width:2.896;}
	.st24{filter:url(#Adobe_OpacityMaskFilter_7_);}
	.st25{mask:url(#mask-16);fill:none;stroke:#F4AD3A;stroke-width:2.896;}
	.st26{filter:url(#Adobe_OpacityMaskFilter_8_);}
	.st27{mask:url(#mask-18);fill:none;stroke:#F4AD3A;stroke-width:2.896;}
	.st28{filter:url(#Adobe_OpacityMaskFilter_9_);}
	.st29{mask:url(#mask-20);fill:#F4AD3A;}
	.st30{filter:url(#Adobe_OpacityMaskFilter_10_);}
	.st31{mask:url(#mask-22);fill:#FFCA5B;}
	.st32{filter:url(#Adobe_OpacityMaskFilter_11_);}
	.st33{mask:url(#mask-24);fill:#FFCA5B;}
	.st34{filter:url(#Adobe_OpacityMaskFilter_12_);}
	.st35{mask:url(#mask-26);fill:none;stroke:#FFCA5B;}
	.st36{filter:url(#Adobe_OpacityMaskFilter_13_);}
	.st37{mask:url(#mask-28);fill:none;stroke:#F4AD3A;stroke-width:2.896;}
	.st38{filter:url(#Adobe_OpacityMaskFilter_14_);}
	.st39{mask:url(#mask-30);fill:none;stroke:#F4AD3A;stroke-width:2.896;}
	.st40{filter:url(#Adobe_OpacityMaskFilter_15_);}
	.st41{mask:url(#mask-32);fill:none;stroke:#F4AD3A;stroke-width:2.896;}
	.st42{filter:url(#Adobe_OpacityMaskFilter_16_);}
	.st43{mask:url(#mask-34);fill:none;stroke:#F4AD3A;stroke-width:2.896;}
	.st44{filter:url(#Adobe_OpacityMaskFilter_17_);}
	.st45{mask:url(#mask-36);fill:none;stroke:#F4AD3A;stroke-width:2.896;}
	.st46{fill:#2A1247;}
	.st47{filter:url(#Adobe_OpacityMaskFilter_18_);}
	.st48{mask:url(#mask-38);fill:#2AA296;}
	.st49{filter:url(#Adobe_OpacityMaskFilter_19_);}
	.st50{mask:url(#mask-40);fill:#008373;}
	.st51{fill:none;stroke:#2AA296;stroke-width:5.433;stroke-linecap:round;}
	.st52{fill:#F7CAA7;}
	.st53{fill:#DEB695;}
	.st54{fill:#F9D5B9;}
	.st55{fill:#32135A;}
	.st56{fill:#220C3D;}
	.st57{fill:#8562AD;}
	.st58{fill:#DEDEDE;}
	.st59{fill:#EBF4EF;}
	.st60{fill:#C53D42;}
	.st61{fill:#900006;}
	.st62{fill:#AF0007;}
	.st63{fill:#E3C4AC;}
	.st64{filter:url(#Adobe_OpacityMaskFilter_20_);}
	.st65{mask:url(#mask-42);fill:#F9D5B9;}
</style>
<g id="Homepage">
	<g id="_x33_.5_x5F_Desktop_x5F_Accreditation_x5F_Detail" transform="translate(0.000000, -96.000000)">
		<g id="Group-6" transform="translate(0.000000, 96.000000)">
			<rect id="Rectangle-128" class="st0" width="1400" height="1066"/>
			<g id="Illustration" transform="translate(834.000000, 221.000000)">
				<polygon id="Fill-3" class="st1" points="280.4,0 203,183.8 347.2,193.3 				"/>
				<polygon id="Fill-4" class="st1" points="266.8,263.3 344.2,79.5 411,272.8 				"/>
				<polygon id="Fill-5" class="st1" points="328.3,244.3 405.7,60.5 472.4,253.8 				"/>
				<polygon id="Fill-6" class="st1" points="533.9,294.1 611.2,110.3 678,303.6 				"/>
				<polygon id="Fill-7" class="st1" points="397.4,227.1 474.8,43.3 541.5,236.6 				"/>
				<polygon id="Fill-8" class="st1" points="113.8,300.6 191.2,116.8 258,310.1 				"/>
				<polygon id="Fill-9" class="st1" points="135.1,316.6 212.5,132.8 279.2,326.1 				"/>
				<g id="Group-14" transform="translate(178.884687, 25.900910)">
					<path id="Fill-10" class="st2" d="M352.1,48.2c7.1-12.3,20.4-20.6,35.6-20.6c22.4,0,40.7,18,41.1,40.4c0.1,0,0.3,0,0.4,0
						c18.1,0,32.8,14.7,32.8,32.9c0,18.2-14.7,32.9-32.8,32.9H301.2c-14.5,0-26.3-11.8-26.3-26.4c0-14.3,11.4-26,25.6-26.3
						c-0.4-2.1-0.6-4.2-0.6-6.4c0-18.2,14.7-32.9,32.8-32.9C339.9,41.8,346.7,44.2,352.1,48.2"/>
					<path id="Fill-12" class="st2" d="M59.5,16.2C65,6.7,75.2,0.3,86.9,0.3c17.3,0,31.3,13.9,31.6,31.1c0.1,0,0.2,0,0.3,0
						c13.9,0,25.2,11.3,25.2,25.3c0,14-11.3,25.3-25.2,25.3H20.3C9.1,82.1,0.1,73,0.1,61.8c0-11,8.8-20,19.7-20.3
						c-0.3-1.6-0.5-3.2-0.5-4.9c0-14,11.3-25.3,25.2-25.3C50.1,11.2,55.3,13.1,59.5,16.2"/>
				</g>
				<g id="Group-29" transform="translate(196.606922, 461.613257)">
					<path id="Stroke-15" class="st3" d="M52.3,17.3C44.1,18.4,35.4,19,26.5,19c-9.1,0-18-0.6-26.4-1.8"/>
					<path id="Stroke-17" class="st4" d="M129.6,7.3C112.8,19.8,83.9,29,49.8,31.8c-7.3,0.6-14.9,0.9-22.7,0.9"/>
					<path id="Stroke-19" class="st5" d="M197.1,14.6c0.3,0.9,0.4,1.9,0.4,2.8c0,5.5-4.8,10.3-11.7,12.3"/>
					<path id="Stroke-21" class="st6" d="M238,16.3c0.1,0.6,0.1,1.2,0.1,1.8c0,9.5-11,17.1-24.6,17.1c-0.9,0-1.9,0-2.8-0.1"/>
					<path id="Stroke-23" class="st5" d="M158.4,7.2c4.7-4.2,11.9-7,19.9-7c1.4,0,2.7,0.1,4,0.2"/>
					<path id="Stroke-25" class="st5" d="M198.1,7.4c4.7-4.2,11.9-7,19.9-7c1.4,0,2.7,0.1,4,0.2"/>
					<path id="Stroke-27" class="st6" d="M204,19c0,6.5-4.5,12.2-11.3,15.6c-4.1,2-9,3.2-14.4,3.2c-9.9,0-18.5-4.1-22.8-10.1"/>
				</g>
				<g id="Group-34" transform="translate(5.206786, 142.119534)">
					<path id="Fill-30" d="M406.2,317.4H360c-8.2,0-14.9-6.7-14.9-15l0,0c0-8.2,6.7-15,14.9-15h46.2c8.2,0,14.9,6.7,14.9,15l0,0
						C421.2,310.6,414.5,317.4,406.2,317.4"/>
					<path id="Fill-32" class="st7" d="M0.5,295.4L117.4,26.1c0,0,62.5,0.7,132.2-20c69.6-20.7,120.8,16.4,137.9,49.2v223.3
						c0,0-37.3,3.9-38,26L0.5,295.4z"/>
				</g>
				<g id="Group-64" transform="translate(5.206786, 142.604995)">
					<g id="Group-37" transform="translate(301.978618, 0.000000)">
						<defs>
							<filter id="Adobe_OpacityMaskFilter" filterUnits="userSpaceOnUse" x="0.1" y="-2.7" width="92" height="282.7">
								<feColorMatrix  type="matrix" values="1 0 0 0 0  0 1 0 0 0  0 0 1 0 0  0 0 0 1 0"/>
							</filter>
						</defs>
						<mask maskUnits="userSpaceOnUse" x="0.1" y="-2.7" width="92" height="282.7" id="mask-2">
							<g class="st8">
								<path id="path-1" class="st9" d="M75.7,280c5.6-1.4,9.8-1.9,9.8-1.9V54.9C73,31,42.5,4.8,0.1,0.3V280H75.7L75.7,280z"/>
							</g>
						</mask>
						<polygon id="Fill-35" class="st10" points="26.4,-2.7 0.1,226.3 90.6,280 92,25.9 						"/>
					</g>
					<g id="Group-40" transform="translate(189.737797, 0.000000)">
						<defs>
							<filter id="Adobe_OpacityMaskFilter_1_" filterUnits="userSpaceOnUse" x="0.4" y="-9.1" width="89.1" height="234.7">
								<feColorMatrix  type="matrix" values="1 0 0 0 0  0 1 0 0 0  0 0 1 0 0  0 0 0 1 0"/>
							</filter>
						</defs>
						<mask maskUnits="userSpaceOnUse" x="0.4" y="-9.1" width="89.1" height="234.7" id="mask-4">
							<g class="st11">
								<path id="path-3" class="st9" d="M0.4,19.1c18.2-3,38.5-7.2,59.4-13.5C70.1,2.6,80,0.8,89.5,0.1v225.5H0.4L0.4,19.1
									L0.4,19.1z"/>
							</g>
						</mask>
						<path id="Fill-38" class="st12" d="M51.7,4.5L0.4,225.6c0,0,51.3-25,51.3-28.6c0-3.6,37.8-206.1,37.8-206.1L51.7,4.5z"/>
					</g>
					<polygon id="Fill-41" class="st13" points="129.5,18.8 46.8,218.4 14.7,212.7 103.1,3.8 					"/>
					<g id="Group-45" transform="translate(0.000000, 183.815170)">
						<defs>
							<filter id="Adobe_OpacityMaskFilter_2_" filterUnits="userSpaceOnUse" x="-24.4" y="0.6" width="413.2" height="118.3">
								<feColorMatrix  type="matrix" values="1 0 0 0 0  0 1 0 0 0  0 0 1 0 0  0 0 0 1 0"/>
							</filter>
						</defs>
						<mask maskUnits="userSpaceOnUse" x="-24.4" y="0.6" width="413.2" height="118.3" id="mask-6">
							<g class="st14">
								<path id="path-5" class="st9" d="M48.4,0.6L0.5,111.1l295.2,7.8h53.8c2.2-20.9,37.9-24.6,37.9-24.6V0.6H48.4L48.4,0.6z"/>
							</g>
						</mask>
						<path id="Fill-43" class="st15" d="M388.8,89.5c0,0-9.2-88.9-129.1-88.9c-119.9,0-117.8,45.9-240.1,17l-44.1,101.3l53.3-0.4
							l323.7-2.1C352.6,116.4,371.1,88,388.8,89.5"/>
					</g>
					<g id="Group-48" transform="translate(0.000000, 183.815170)">
						<defs>
							<filter id="Adobe_OpacityMaskFilter_3_" filterUnits="userSpaceOnUse" x="-25.2" y="0.1" width="414.6" height="119.3">
								<feColorMatrix  type="matrix" values="1 0 0 0 0  0 1 0 0 0  0 0 1 0 0  0 0 0 1 0"/>
							</filter>
						</defs>
						<mask maskUnits="userSpaceOnUse" x="-25.2" y="0.1" width="414.6" height="119.3" id="mask-8">
							<g class="st16">
								<path id="path-7" class="st9" d="M48.4,0.6L0.5,111.1l295.2,7.8h53.8c2.2-20.9,37.9-24.6,37.9-24.6V0.6H48.4L48.4,0.6z"/>
							</g>
						</mask>
						<path id="Stroke-46" class="st17" d="M388.8,89.5c0,0-9.2-88.9-129.1-88.9c-119.9,0-117.8,45.9-240.1,17l-44.1,101.3l53.3-0.4
							l323.7-2.1C352.6,116.4,371.1,88,388.8,89.5L388.8,89.5z"/>
					</g>
					<g id="Group-51" transform="translate(0.000000, 203.490083)">
						<defs>
							<filter id="Adobe_OpacityMaskFilter_4_" filterUnits="userSpaceOnUse" x="-38.7" y="-1.2" width="417.1" height="121.2">
								<feColorMatrix  type="matrix" values="1 0 0 0 0  0 1 0 0 0  0 0 1 0 0  0 0 0 1 0"/>
							</filter>
						</defs>
						<mask maskUnits="userSpaceOnUse" x="-38.7" y="-1.2" width="417.1" height="121.2" id="mask-10">
							<g class="st18">
								<path id="path-9" class="st9" d="M40.1,0.2L0.5,91.4l348.9,9.3c0.5-14.3,16.3-21,27.4-24V0.2H40.1L40.1,0.2z"/>
							</g>
						</mask>
						<path id="Stroke-49" class="st19" d="M376.7,89.1c0,0-9.2-88.9-129.1-88.9c-119.9,0-117.8,45.9-240.1,17l-44.1,101.3l53.3-0.4
							l323.7-2.1C340.5,116,359,87.6,376.7,89.1L376.7,89.1z"/>
					</g>
					<g id="Group-54" transform="translate(0.000000, 222.950013)">
						<defs>
							<filter id="Adobe_OpacityMaskFilter_5_" filterUnits="userSpaceOnUse" x="-50.8" y="-1.4" width="417.1" height="121.2">
								<feColorMatrix  type="matrix" values="1 0 0 0 0  0 1 0 0 0  0 0 1 0 0  0 0 0 1 0"/>
							</filter>
						</defs>
						<mask maskUnits="userSpaceOnUse" x="-50.8" y="-1.4" width="417.1" height="121.2" id="mask-12">
							<g class="st20">
								<path id="path-11" class="st9" d="M31.7,0L0.5,71.9l348.9,9.3c0.3-9.5,7.3-15.6,15.3-19.5V0H31.7L31.7,0z"/>
							</g>
						</mask>
						<path id="Stroke-52" class="st21" d="M364.7,88.9c0,0-9.2-88.9-129.1-88.9C115.7,0,117.7,45.9-4.5,17l-44.1,101.3l53.3-0.4
							l323.7-2.1C328.4,115.8,346.9,87.4,364.7,88.9L364.7,88.9z"/>
					</g>
					<g id="Group-57" transform="translate(0.000000, 241.924482)">
						<defs>
							<filter id="Adobe_OpacityMaskFilter_6_" filterUnits="userSpaceOnUse" x="-62.9" y="-1.2" width="417.1" height="121.2">
								<feColorMatrix  type="matrix" values="1 0 0 0 0  0 1 0 0 0  0 0 1 0 0  0 0 0 1 0"/>
							</filter>
						</defs>
						<mask maskUnits="userSpaceOnUse" x="-62.9" y="-1.2" width="417.1" height="121.2" id="mask-14">
							<g class="st22">
								<path id="path-13" class="st9" d="M23.3,0.3L0.5,53l348.9,9.3c0.1-3.8,1.3-7,3.2-9.8V0.3H23.3L23.3,0.3z"/>
							</g>
						</mask>
						<path id="Stroke-55" class="st23" d="M352.6,89.2c0,0-9.2-88.9-129.1-88.9c-119.9,0-117.8,45.9-240.1,17l-44.1,101.3l53.3-0.4
							l323.7-2.1C316.3,116.1,334.8,87.7,352.6,89.2L352.6,89.2z"/>
					</g>
					<g id="Group-60" transform="translate(0.000000, 260.898951)">
						<defs>
							<filter id="Adobe_OpacityMaskFilter_7_" filterUnits="userSpaceOnUse" x="-74.9" y="-0.9" width="417.1" height="121.2">
								<feColorMatrix  type="matrix" values="1 0 0 0 0  0 1 0 0 0  0 0 1 0 0  0 0 0 1 0"/>
							</filter>
						</defs>
						<mask maskUnits="userSpaceOnUse" x="-74.9" y="-0.9" width="417.1" height="121.2" id="mask-16">
							<g class="st24">
								<polygon id="path-15" class="st9" points="15,0.6 0.5,34 340.5,43 340.5,0.6 								"/>
							</g>
						</mask>
						<path id="Stroke-58" class="st25" d="M340.5,89.5c0,0-9.2-88.9-129.1-88.9c-119.9,0-117.8,45.9-240.1,17l-44.1,101.3l53.3-0.4
							l323.7-2.1C304.3,116.4,322.7,88,340.5,89.5L340.5,89.5z"/>
					</g>
					<g id="Group-63" transform="translate(0.000000, 280.573864)">
						<defs>
							<filter id="Adobe_OpacityMaskFilter_8_" filterUnits="userSpaceOnUse" x="-87" y="-1.3" width="417.1" height="121.2">
								<feColorMatrix  type="matrix" values="1 0 0 0 0  0 1 0 0 0  0 0 1 0 0  0 0 0 1 0"/>
							</filter>
						</defs>
						<mask maskUnits="userSpaceOnUse" x="-87" y="-1.3" width="417.1" height="121.2" id="mask-18">
							<g class="st26">
								<polygon id="path-17" class="st9" points="6.6,0.2 0.5,14.3 328.4,23 328.4,0.2 								"/>
							</g>
						</mask>
						<path id="Stroke-61" class="st27" d="M328.4,89.1c0,0-9.2-88.9-129.1-88.9C79.5,0.2,81.5,46-40.7,17.2l-44.1,101.3l53.3-0.4
							l323.7-2.1C292.2,115.9,310.7,87.5,328.4,89.1L328.4,89.1z"/>
					</g>
				</g>
				<path id="Fill-65" class="st7" d="M779.4,437.5L662.5,168.2c0,0-62.5,0.7-132.2-20c-69.6-20.7-120.8,16.4-137.9,49.2v223.3
					c0,0,37.3,3.9,38,26L779.4,437.5z"/>
				<g id="Group-96" transform="translate(392.252131, 142.119534)">
					<g id="Group-69" transform="translate(0.000000, 15.902217)">
						<defs>
							<filter id="Adobe_OpacityMaskFilter_9_" filterUnits="userSpaceOnUse" x="-11.6" y="-0.2" width="50.6" height="266.2">
								<feColorMatrix  type="matrix" values="1 0 0 0 0  0 1 0 0 0  0 0 1 0 0  0 0 0 1 0"/>
							</filter>
						</defs>
						<mask maskUnits="userSpaceOnUse" x="-11.6" y="-0.2" width="50.6" height="266.2" id="mask-20">
							<g class="st28">
								<path id="path-19" class="st9" d="M14.9,266c-7.9-2.6-14.7-3.3-14.7-3.3V39.4C7.4,25.5,20.8,10.9,39,0.2V266H14.9L14.9,266z
									"/>
							</g>
						</mask>
						<polygon id="Fill-67" class="st29" points="-11.6,14.1 -11.6,266 39,238.1 25.5,-0.2 						"/>
					</g>
					<g id="Group-72" transform="translate(65.462384, 0.000000)">
						<defs>
							<filter id="Adobe_OpacityMaskFilter_10_" filterUnits="userSpaceOnUse" x="0.7" y="-7.2" width="70.6" height="226.8">
								<feColorMatrix  type="matrix" values="1 0 0 0 0  0 1 0 0 0  0 0 1 0 0  0 0 0 1 0"/>
							</filter>
						</defs>
						<mask maskUnits="userSpaceOnUse" x="0.7" y="-7.2" width="70.6" height="226.8" id="mask-22">
							<g class="st30">
								<path id="path-21" class="st9" d="M71.2,5.7C57.8,1.9,45,0.2,33,0.2c-11.6,0-22.4,1.6-32.4,4.4l0,215.1h70.6V5.7L71.2,5.7z"
									/>
							</g>
						</mask>
						<path id="Fill-70" class="st31" d="M0.7-0.8l23.5,220.4c0,0,47.1-10,47.1-12.2S42-7.2,42-7.2L0.7-0.8z"/>
					</g>
					<g id="Group-77" transform="translate(0.000000, 184.300631)">
						<defs>
							<filter id="Adobe_OpacityMaskFilter_11_" filterUnits="userSpaceOnUse" x="-1.2" y="0.6" width="413.2" height="118.3">
								<feColorMatrix  type="matrix" values="1 0 0 0 0  0 1 0 0 0  0 0 1 0 0  0 0 0 1 0"/>
							</filter>
						</defs>
						<mask maskUnits="userSpaceOnUse" x="-1.2" y="0.6" width="413.2" height="118.3" id="mask-24">
							<g class="st32">
								<path id="path-23" class="st9" d="M0.2,0.6v93.7c0,0,35.7,3.8,37.9,24.6h53.8l295.2-7.8L339.2,0.6H0.2L0.2,0.6z"/>
							</g>
						</mask>
						<path id="Fill-75" class="st33" d="M-1.2,89.5c0,0,9.2-88.9,129.1-88.9c119.9,0,117.8,45.9,240.1,17L412,118.9l-53.3-0.4
							L35,116.4C35,116.4,16.5,88-1.2,89.5"/>
					</g>
					<g id="Group-80" transform="translate(0.000000, 184.300631)">
						<defs>
							<filter id="Adobe_OpacityMaskFilter_12_" filterUnits="userSpaceOnUse" x="-1.8" y="0.1" width="414.6" height="119.3">
								<feColorMatrix  type="matrix" values="1 0 0 0 0  0 1 0 0 0  0 0 1 0 0  0 0 0 1 0"/>
							</filter>
						</defs>
						<mask maskUnits="userSpaceOnUse" x="-1.8" y="0.1" width="414.6" height="119.3" id="mask-26">
							<g class="st34">
								<path id="path-25" class="st9" d="M0.2,0.6v93.7c0,0,35.7,3.8,37.9,24.6h53.8l295.2-7.8L339.2,0.6H0.2L0.2,0.6z"/>
							</g>
						</mask>
						<path id="Stroke-78" class="st35" d="M-1.2,89.5c0,0,9.2-88.9,129.1-88.9c119.9,0,117.8,45.9,240.1,17L412,118.9l-53.3-0.4
							L35,116.4C35,116.4,16.5,88-1.2,89.5L-1.2,89.5z"/>
					</g>
					<g id="Group-83" transform="translate(10.633341, 203.975543)">
						<defs>
							<filter id="Adobe_OpacityMaskFilter_13_" filterUnits="userSpaceOnUse" x="-1.4" y="-1.2" width="417.1" height="121.2">
								<feColorMatrix  type="matrix" values="1 0 0 0 0  0 1 0 0 0  0 0 1 0 0  0 0 0 1 0"/>
							</filter>
						</defs>
						<mask maskUnits="userSpaceOnUse" x="-1.4" y="-1.2" width="417.1" height="121.2" id="mask-28">
							<g class="st36">
								<path id="path-27" class="st9" d="M0.2,76.7c11.1,2.9,26.9,9.6,27.4,24l348.9-9.3L336.9,0.2H0.2V76.7L0.2,76.7z"/>
							</g>
						</mask>
						<path id="Stroke-81" class="st37" d="M0.2,89.1c0,0,9.2-88.9,129.1-88.9c119.9,0,117.8,45.9,240.1,17l44.1,101.3l-53.3-0.4
							L36.4,116C36.4,116,18,87.6,0.2,89.1L0.2,89.1z"/>
					</g>
					<g id="Group-86" transform="translate(22.448164, 223.435473)">
						<defs>
							<filter id="Adobe_OpacityMaskFilter_14_" filterUnits="userSpaceOnUse" x="-1.2" y="-1.4" width="417.1" height="121.2">
								<feColorMatrix  type="matrix" values="1 0 0 0 0  0 1 0 0 0  0 0 1 0 0  0 0 0 1 0"/>
							</filter>
						</defs>
						<mask maskUnits="userSpaceOnUse" x="-1.2" y="-1.4" width="417.1" height="121.2" id="mask-30">
							<g class="st38">
								<path id="path-29" class="st9" d="M0.5,61.7c7.9,3.9,15,10.1,15.3,19.5l348.9-9.3L333.4,0H0.5V61.7L0.5,61.7z"/>
							</g>
						</mask>
						<path id="Stroke-84" class="st39" d="M0.5,88.9C0.5,88.9,9.7,0,129.6,0c119.9,0,117.8,45.9,240.1,17l44.1,101.3l-53.3-0.4
							l-323.7-2.1C36.7,115.8,18.2,87.4,0.5,88.9L0.5,88.9z"/>
					</g>
					<g id="Group-89" transform="translate(34.743844, 242.409942)">
						<defs>
							<filter id="Adobe_OpacityMaskFilter_15_" filterUnits="userSpaceOnUse" x="-1.4" y="-1.2" width="417.1" height="121.2">
								<feColorMatrix  type="matrix" values="1 0 0 0 0  0 1 0 0 0  0 0 1 0 0  0 0 0 1 0"/>
							</filter>
						</defs>
						<mask maskUnits="userSpaceOnUse" x="-1.4" y="-1.2" width="417.1" height="121.2" id="mask-32">
							<g class="st40">
								<path id="path-31" class="st9" d="M0.3,52.4c1.9,2.8,3.1,6,3.2,9.8L352.4,53L329.5,0.3H0.3V52.4L0.3,52.4z"/>
							</g>
						</mask>
						<path id="Stroke-87" class="st41" d="M0.3,89.2c0,0,9.2-88.9,129.1-88.9c119.9,0,117.8,45.9,240.1,17l44.1,101.3l-53.3-0.4
							l-323.7-2.1C36.5,116.1,18,87.7,0.3,89.2L0.3,89.2z"/>
					</g>
					<g id="Group-92" transform="translate(46.558667, 261.384412)">
						<defs>
							<filter id="Adobe_OpacityMaskFilter_16_" filterUnits="userSpaceOnUse" x="-1.1" y="-0.9" width="417.1" height="121.2">
								<feColorMatrix  type="matrix" values="1 0 0 0 0  0 1 0 0 0  0 0 1 0 0  0 0 0 1 0"/>
							</filter>
						</defs>
						<mask maskUnits="userSpaceOnUse" x="-1.1" y="-0.9" width="417.1" height="121.2" id="mask-34">
							<g class="st42">
								<polygon id="path-33" class="st9" points="0.5,43 340.6,34 326,0.6 0.5,0.6 								"/>
							</g>
						</mask>
						<path id="Stroke-90" class="st43" d="M0.5,89.5c0,0,9.2-88.9,129.1-88.9c119.9,0,117.8,45.9,240.1,17l44.1,101.3l-53.3-0.4
							l-323.7-2.1C36.8,116.4,18.3,88,0.5,89.5L0.5,89.5z"/>
					</g>
					<g id="Group-95" transform="translate(59.074116, 281.059324)">
						<defs>
							<filter id="Adobe_OpacityMaskFilter_17_" filterUnits="userSpaceOnUse" x="-1.5" y="-1.3" width="417.1" height="121.2">
								<feColorMatrix  type="matrix" values="1 0 0 0 0  0 1 0 0 0  0 0 1 0 0  0 0 0 1 0"/>
							</filter>
						</defs>
						<mask maskUnits="userSpaceOnUse" x="-1.5" y="-1.3" width="417.1" height="121.2" id="mask-36">
							<g class="st44">
								<polygon id="path-35" class="st9" points="0.1,23 328,14.3 321.9,0.2 0.1,0.2 								"/>
							</g>
						</mask>
						<path id="Stroke-93" class="st45" d="M0.1,89.1c0,0,9.2-88.9,129.1-88.9C249,0.2,247,46,369.3,17.2l44.1,101.3l-53.3-0.4
							l-323.7-2.1C36.3,115.9,17.9,87.5,0.1,89.1L0.1,89.1z"/>
					</g>
				</g>
				<path id="Fill-97" class="st46" d="M772.6,431.1H433.1c-9.8-14.4-26.3-23.9-44.9-23.9c-18.6,0-35.1,9.5-44.9,23.9H11.5
					c-6.3,0-11.4,5.1-11.4,11.4c0,6.3,5.1,11.4,11.4,11.4h323.1h23c2.9-11.2,11.6-20,22.8-22.8c2.5-0.6,5-1.1,7.7-1.1
					c2.7,0,5.2,0.4,7.7,1.1c11.2,2.8,19.9,11.6,22.8,22.8h23h330.9c6.3,0,11.4-5.1,11.4-11.4C784,436.2,778.9,431.1,772.6,431.1"/>
				<g id="Group-101" transform="translate(125.237126, 142.119534)">
					<defs>
						<filter id="Adobe_OpacityMaskFilter_18_" filterUnits="userSpaceOnUse" x="0.5" y="-5" width="180.9" height="209.1">
							<feColorMatrix  type="matrix" values="1 0 0 0 0  0 1 0 0 0  0 0 1 0 0  0 0 0 1 0"/>
						</filter>
					</defs>
					<mask maskUnits="userSpaceOnUse" x="0.5" y="-5" width="180.9" height="209.1" id="mask-38">
						<g class="st47">
							<path id="path-37" class="st9" d="M0.5,26.1c13.5-0.2,68.6-2,129-20c14-4.2,27.2-6,39.6-6c4.2,0,8.3,0.2,12.3,0.6v188.3
								c-12.1-2.7-25.9-4.2-41.6-4.2c-59.7,0-89.2,11.4-118.8,19.2H0.5V26.1L0.5,26.1z"/>
						</g>
					</mask>
					<path id="Fill-99" class="st48" d="M181.3,203.6c-52.6,0-106.9,0.6-159.5,0.6C-73.7,125.3,187.7,73.9,92.1-5h20.5
						c23.3,12.5,53.7,27.6,52.7,58.4C164.7,70.3,155,85.1,147,99.3c-8.5,15.1-20,32.4-18.6,50.7C130.6,178,168.7,178.9,181.3,203.6"
						/>
				</g>
				<g id="Group-104" transform="translate(146.984665, 326.420165)">
					<defs>
						<filter id="Adobe_OpacityMaskFilter_19_" filterUnits="userSpaceOnUse" x="0.1" y="-5" width="142.7" height="143.3">
							<feColorMatrix  type="matrix" values="1 0 0 0 0  0 1 0 0 0  0 0 1 0 0  0 0 0 1 0"/>
						</filter>
					</defs>
					<mask maskUnits="userSpaceOnUse" x="0.1" y="-5" width="142.7" height="143.3" id="mask-40">
						<g class="st49">
							<path id="path-39" class="st9" d="M0.1,130.9l142.7-1V2c-7.7-0.9-16-1.4-24.8-1.4c-59,0-88.5,11.1-117.8,19V130.9L0.1,130.9z
								"/>
						</g>
					</mask>
					<polygon id="Fill-102" class="st50" points="0.1,11.9 0.1,138.3 142.8,127.1 142.8,0 116.1,-5 12.2,8.9 					"/>
				</g>
				<g id="Group-177" transform="translate(143.440218, 169.880794)">
					<path id="Fill-105" class="st2" d="M60,214.5L60,214.5c-1.4,0-2.5-1.1-2.5-2.5v-32.3c0-1.4,1.1-2.5,2.5-2.5s2.5,1.1,2.5,2.5
						V212C62.6,213.4,61.4,214.5,60,214.5"/>
					<path id="Fill-107" class="st2" d="M131.6,231.4L131.6,231.4c-1.6,0-3-1.3-3-3v-38.2c0-1.6,1.3-3,3-3s3,1.3,3,3v38.2
						C134.5,230,133.2,231.4,131.6,231.4"/>
					<path id="Fill-109" class="st2" d="M108.7,210.8L108.7,210.8c-0.6,0-1.1-0.5-1.1-1.1v-37.8c0-0.6,0.5-1.1,1.1-1.1
						c0.6,0,1.1,0.5,1.1,1.1v37.8C109.8,210.3,109.3,210.8,108.7,210.8"/>
					<path id="Fill-111" class="st2" d="M77.6,205.7L77.6,205.7c-0.8,0-1.5-0.7-1.5-1.5v-19c0-0.8,0.7-1.5,1.5-1.5s1.5,0.7,1.5,1.5
						v19C79.1,205,78.4,205.7,77.6,205.7"/>
					<path id="Fill-113" class="st2" d="M85.2,210.4L85.2,210.4c-0.6,0-1.1-0.5-1.1-1.1v-14.1c0-0.6,0.5-1.1,1.1-1.1
						c0.6,0,1.1,0.5,1.1,1.1v14.1C86.3,209.9,85.8,210.4,85.2,210.4"/>
					<path id="Fill-115" class="st2" d="M86.3,191.7c0,0.6-0.5,1.1-1.1,1.1c-0.6,0-1.1-0.5-1.1-1.1s0.5-1.1,1.1-1.1
						C85.8,190.6,86.3,191.1,86.3,191.7"/>
					<path id="Fill-117" class="st2" d="M74.6,234.2L74.6,234.2c0.8,0,1.5,0.7,1.5,1.5v19c0,0.8-0.7,1.5-1.5,1.5s-1.5-0.7-1.5-1.5
						v-19C73.1,234.9,73.8,234.2,74.6,234.2"/>
					<path id="Fill-119" class="st2" d="M67,229.5L67,229.5c0.6,0,1.1,0.5,1.1,1.1v14.1c0,0.6-0.5,1.1-1.1,1.1
						c-0.6,0-1.1-0.5-1.1-1.1v-14.1C65.9,230,66.4,229.5,67,229.5"/>
					<path id="Fill-121" class="st2" d="M65.9,248.1c0-0.6,0.5-1.1,1.1-1.1c0.6,0,1.1,0.5,1.1,1.1c0,0.6-0.5,1.1-1.1,1.1
						C66.4,249.3,65.9,248.8,65.9,248.1"/>
					<path id="Fill-123" class="st2" d="M16.8,243.1L16.8,243.1c-1.4,0-2.5-1.1-2.5-2.5v-44.2c0-1.4,1.1-2.5,2.5-2.5l0,0
						c1.4,0,2.5,1.1,2.5,2.5v44.2C19.3,242,18.2,243.1,16.8,243.1"/>
					<path id="Fill-125" class="st2" d="M34.4,222.4L34.4,222.4c-0.8,0-1.5-0.7-1.5-1.5v-19c0-0.8,0.7-1.5,1.5-1.5s1.5,0.7,1.5,1.5
						v19C35.9,221.7,35.2,222.4,34.4,222.4"/>
					<path id="Fill-127" class="st2" d="M35.9,225.5c0,0.8-0.7,1.5-1.5,1.5s-1.5-0.7-1.5-1.5s0.7-1.5,1.5-1.5S35.9,224.7,35.9,225.5
						"/>
					<path id="Fill-129" class="st2" d="M100.3,266.8L100.3,266.8c-1.4,0-2.5-1.1-2.5-2.5V232c0-1.4,1.1-2.5,2.5-2.5l0,0
						c1.4,0,2.5,1.1,2.5,2.5v32.3C102.8,265.7,101.7,266.8,100.3,266.8"/>
					<path id="Fill-131" class="st2" d="M117.9,257.9L117.9,257.9c-0.8,0-1.5-0.7-1.5-1.5v-19c0-0.8,0.7-1.5,1.5-1.5l0,0
						c0.8,0,1.5,0.7,1.5,1.5v19C119.4,257.3,118.7,257.9,117.9,257.9"/>
					<path id="Fill-133" class="st2" d="M119.4,261.1c0,0.8-0.7,1.5-1.5,1.5c-0.8,0-1.5-0.7-1.5-1.5s0.7-1.5,1.5-1.5
						C118.7,259.6,119.4,260.3,119.4,261.1"/>
					<path id="Fill-135" class="st2" d="M134.5,182c0,1.6-1.3,2.9-2.9,2.9s-2.9-1.3-2.9-2.9c0-1.6,1.3-2.9,2.9-2.9
						S134.5,180.4,134.5,182"/>
					<path id="Fill-137" class="st2" d="M37.6,291.4L37.6,291.4c-1.6,0-3-1.3-3-3v-38.2c0-1.6,1.3-3,3-3c1.6,0,3,1.3,3,3v38.2
						C40.6,290.1,39.3,291.4,37.6,291.4"/>
					<path id="Fill-139" class="st2" d="M40.5,242.1c0,1.6-1.3,2.9-2.9,2.9s-2.9-1.3-2.9-2.9s1.3-2.9,2.9-2.9S40.5,240.5,40.5,242.1
						"/>
					<path id="Fill-141" class="st9" d="M69.5,272.6c2.4-4.1,6.8-6.9,11.9-6.9c7.5,0,13.6,6,13.7,13.5c0,0,0.1,0,0.1,0
						c6,0,10.9,4.9,10.9,11c0,6.1-4.9,11-10.9,11H52.5c-4.8,0-8.8-3.9-8.8-8.8c0-4.8,3.8-8.7,8.5-8.8c-0.1-0.7-0.2-1.4-0.2-2.1
						c0-6.1,4.9-11,10.9-11C65.4,270.4,67.7,271.2,69.5,272.6"/>
					<path id="Fill-143" class="st9" d="M17.2,271.1c1.6-2.7,4.5-4.6,7.9-4.6c5,0,9,4,9.1,9c0,0,0.1,0,0.1,0c4,0,7.3,3.3,7.3,7.3
						c0,4-3.3,7.3-7.3,7.3H5.9c-3.2,0-5.8-2.6-5.8-5.9c0-3.2,2.5-5.8,5.7-5.9c-0.1-0.5-0.1-0.9-0.1-1.4c0-4,3.3-7.3,7.3-7.3
						C14.5,269.7,16,270.2,17.2,271.1"/>
					<path id="Fill-145" class="st9" d="M36.2,285.7c0.9-1.5,2.6-2.6,4.5-2.6c2.8,0,5.1,2.3,5.2,5.1c0,0,0,0,0.1,0
						c2.3,0,4.1,1.9,4.1,4.1c0,2.3-1.8,4.1-4.1,4.1H29.8c-1.8,0-3.3-1.5-3.3-3.3c0-1.8,1.4-3.3,3.2-3.3c-0.1-0.3-0.1-0.5-0.1-0.8
						c0-2.3,1.8-4.1,4.1-4.1C34.6,284.9,35.5,285.2,36.2,285.7"/>
					<path id="Fill-147" class="st9" d="M108.2,286.9c0.9-1.5,2.6-2.6,4.5-2.6c2.8,0,5.1,2.3,5.2,5.1c0,0,0,0,0.1,0
						c2.3,0,4.1,1.9,4.1,4.1c0,2.3-1.8,4.1-4.1,4.1h-16.1c-1.8,0-3.3-1.5-3.3-3.3c0-1.8,1.4-3.3,3.2-3.3c-0.1-0.3-0.1-0.5-0.1-0.8
						c0-2.3,1.8-4.1,4.1-4.1C106.7,286.1,107.5,286.4,108.2,286.9"/>
					<path id="Fill-149" class="st9" d="M128.8,272c1.6-2.7,4.5-4.6,7.9-4.6c5,0,9,4,9.1,9c0,0,0.1,0,0.1,0c4,0,7.3,3.3,7.3,7.3
						c0,4-3.3,7.3-7.3,7.3h-28.5c-3.2,0-5.8-2.6-5.8-5.9c0-3.2,2.5-5.8,5.7-5.9c-0.1-0.5-0.1-0.9-0.1-1.4c0-4,3.3-7.3,7.3-7.3
						C126,270.6,127.5,271.1,128.8,272"/>
					<path id="Fill-157" d="M411.3,109.9h-18.6c-2.2,0-4-1.8-4-4c0-2.2,1.8-4,4-4h18.6c2.2,0,4,1.8,4,4
						C415.3,108.1,413.5,109.9,411.3,109.9"/>
					<path id="Fill-159" class="st0" d="M441.3,40.7c0,22.2-17.9,40.1-40,40.1c-22.1,0-40-18-40-40.1c0-22.2,17.9-40.1,40-40.1
						C423.4,0.6,441.3,18.6,441.3,40.7"/>
					<path id="Fill-161" class="st2" d="M405.2,69.8l-0.8-12.8l20.7-28.6l-21.2,20.8l-0.8-12.1l12.5-17.2l-12.8,12.5l-1.4-21.5
						l-1.1,21.3l-12.5-12.2L400,36.8l-0.6,12.3l-21.1-20.7L399,57L398.3,70l-15.1-14.8L398,75.6l-1.6,29.7c0,0,5.5,3.4,10.9,0
						l-1.9-30l14.6-20.2L405.2,69.8z"/>
					<path id="Fill-163" class="st2" d="M48.4,307.5c0,1.3-1.1,2.4-2.4,2.4s-2.4-1.1-2.4-2.4s1.1-2.4,2.4-2.4S48.4,306.2,48.4,307.5
						"/>
					<path id="Stroke-165" class="st51" d="M103.8,340.9c-5,0.2-10.1,0.4-15.2,0.4c-22.3,0-43.4-2.4-62.1-6.6"/>
					<path id="Fill-167" class="st2" d="M115.8,340.5c0,1.8-1.5,3.3-3.3,3.3c-1.8,0-3.3-1.5-3.3-3.3s1.5-3.3,3.3-3.3
						C114.4,337.2,115.8,338.6,115.8,340.5"/>
					<path id="Fill-169" class="st2" d="M20.1,302.1c0,1-0.8,1.8-1.8,1.8s-1.8-0.8-1.8-1.8s0.8-1.8,1.8-1.8S20.1,301.1,20.1,302.1"
						/>
					<path id="Fill-171" class="st2" d="M207.4,314c0,1.2-1,2.3-2.2,2.3c-1.2,0-2.2-1-2.2-2.3s1-2.3,2.2-2.3
						C206.4,311.8,207.4,312.8,207.4,314"/>
					<path id="Fill-173" class="st2" d="M249.2,302.3c0,0.8-0.6,1.4-1.4,1.4c-0.8,0-1.4-0.6-1.4-1.4s0.6-1.4,1.4-1.4
						C248.6,300.9,249.2,301.6,249.2,302.3"/>
					<path id="Fill-175" class="st2" d="M291.5,301.6c0,1.1-0.9,1.9-1.9,1.9c-1.1,0-1.9-0.9-1.9-1.9c0-1.1,0.9-1.9,1.9-1.9
						C290.6,299.7,291.5,300.6,291.5,301.6"/>
				</g>
				<g id="Group-296" transform="translate(307.185404, 133.117760)">
					<path id="Fill-178" class="st52" d="M17.7,144.4c0.1,2.2,1.2,4.2,2.9,5.6l15.9,8.3l5.7-7.2l-6.2-5.8l31.6-14.2l-16.9-10
						L21.9,137c-2.4,1.2-3.9,3.5-4.2,6.1C17.7,143.5,17.7,144,17.7,144.4"/>
					<path id="Fill-180" class="st53" d="M53.2,151.1c-3.3,1.9-7.1,0-7.1,0l-2.7,0.6l1.8,3.8c0.1-0.2,0.2-0.3,0.2-0.4
						c0.3-0.3,1.6-0.4,2.9-0.3C51.8,155.9,54.1,152.8,53.2,151.1"/>
					<path id="Fill-182" class="st52" d="M17.7,144.4c0.1,2.2,1.2,4.2,2.9,5.6l15.9,8.3l5.7-7.2l-6.2-5.8l31.6-14.2l-16.9-10
						L21.9,137c-2.4,1.2-3.9,3.5-4.2,6.1C17.7,143.5,17.7,144,17.7,144.4"/>
					<path id="Fill-184" class="st54" d="M17.7,143.1c0.3-2.6,1.8-4.9,4.2-6.1l28.9-15.9l2.7,0.7C53.5,121.8,21.9,137,17.7,143.1"/>
					<polygon id="Fill-186" class="st53" points="67.7,131.1 36.1,145.3 34.5,143.6 63,128.4 					"/>
					<path id="Fill-188" class="st52" d="M157.5,144.4c-0.1,2.2-1.2,4.2-2.9,5.6l-15.9,8.3l-5.7-7.2l6.2-5.8l-31.6-14.2l16.9-10
						l28.9,15.9c2.4,1.2,3.9,3.5,4.2,6.1C157.5,143.5,157.5,144,157.5,144.4"/>
					<path id="Fill-190" class="st53" d="M122,151.1c3.3,1.9,7.1,0,7.1,0l2.7,0.6l-1.8,3.8c-0.1-0.2-0.2-0.3-0.2-0.4
						c-0.3-0.3-1.6-0.4-2.9-0.3C123.4,155.9,121.1,152.8,122,151.1"/>
					<path id="Fill-192" class="st52" d="M157.5,144.4c-0.1,2.2-1.2,4.2-2.9,5.6l-15.9,8.3l-5.7-7.2l6.2-5.8l-31.6-14.2l16.9-10
						l28.9,15.9c2.4,1.2,3.9,3.5,4.2,6.1C157.5,143.5,157.5,144,157.5,144.4"/>
					<path id="Fill-194" class="st53" d="M157.5,143.1c-0.3-2.6-1.8-4.9-4.2-6.1l-28.9-15.9l-2.7,0.7
						C121.7,121.8,153.3,137,157.5,143.1"/>
					<polygon id="Fill-196" class="st54" points="107.5,131.1 139.1,145.3 140.7,143.6 112.2,128.4 					"/>
					<path id="Fill-198" class="st55" d="M0.3,192.7c7.3,25.9,28.6,61.1,85.7,61.1c57.1,0,78.4-35.2,85.7-61.1l-86.7-7.1L0.3,192.7z
						"/>
					<path id="Fill-200" class="st56" d="M84.9,185.6l86.7,7.1c-7,24.9-26.9,58.3-79.1,60.9c41.5-7.4,58.4-36.9,64.7-59.3l-86.7-7.1
						L84.9,185.6z"/>
					<path id="Fill-202" class="st52" d="M80,227.7c0,7.3-5.9,13.2-13.1,13.2c-7.2,0-13.1-5.9-13.1-13.2c0-7.3,5.9-13.2,13.1-13.2
						C74.1,214.6,80,220.5,80,227.7"/>
					<path id="Fill-204" class="st52" d="M72.1,344.6c0,0-1.3,4.3-5.2,4.3c-3.9,0-5.2-4.3-5.2-4.3l-7.9-116.7H80L72.1,344.6z"/>
					<path id="Fill-206" class="st53" d="M66.9,348.9c3.8,0,5.2-4.3,5.2-4.3L80,227.9l-2.4,5.4C77.6,233.3,69.3,348.3,66.9,348.9"/>
					<path id="Fill-208" class="st54" d="M66.9,348.9c-3.8,0-5.2-4.3-5.2-4.3l-7.9-116.7l2.4,5.4C56.1,233.3,64.5,348.3,66.9,348.9"
						/>
					<path id="Fill-210" class="st52" d="M115.4,227.7c0,7.3-5.9,13.2-13.1,13.2c-7.2,0-13.1-5.9-13.1-13.2
						c0-7.3,5.9-13.2,13.1-13.2C109.6,214.6,115.4,220.5,115.4,227.7"/>
					<path id="Fill-212" class="st52" d="M107.5,344.6c0,0-1.3,4.3-5.2,4.3c-3.9,0-5.2-4.3-5.2-4.3l-7.9-116.7h26.3L107.5,344.6z"/>
					<path id="Fill-214" class="st53" d="M102.3,348.9c3.8,0,5.2-4.3,5.2-4.3l7.9-116.7l-2.4,5.4
						C113.1,233.3,104.7,348.3,102.3,348.9"/>
					<path id="Fill-216" class="st54" d="M102.3,348.9c-3.8,0-5.2-4.3-5.2-4.3l-7.9-116.7l2.4,5.4
						C91.6,233.3,99.9,348.3,102.3,348.9"/>
					<path id="Fill-218" class="st57" d="M82.9,186.9l21,0.3l-19-1.6l-84.6,7.1c0.6,2.1,1.3,4.4,2.1,6.6L82.9,186.9z"/>
					<path id="Fill-220" class="st9" d="M116.1,139l11.5-18.4c0,0-10.1-18.3-35.8-18.3H80.1c-25.7,0-35.8,18.3-35.8,18.3L55.7,139
						l13.4,52.4c0,0,5.8,5.3,16.8,5.3s16.9-5.3,16.9-5.3L116.1,139z"/>
					<path id="Fill-222" class="st58" d="M91.8,102.3h-3c25.7,0,35.8,18.3,35.8,18.3L113.1,139l-14.3,52.4c0,0-4.3,4.8-14.3,5.3
						c0.5,0,1,0,1.5,0c11,0,16.9-5.3,16.9-5.3l13.2-52.4l11.5-18.4C127.6,120.6,117.4,102.3,91.8,102.3"/>
					<path id="Fill-224" class="st59" d="M51.5,136c0,0,35.7-5.7,35.7,7.5H80L51.5,136z"/>
					<path id="Fill-226" class="st59" d="M122.9,136c0,0-35.7-5.7-35.7,7.5h7.2L122.9,136z"/>
					<path id="Fill-228" class="st60" d="M80,143.5c0,0,6.4,2.6,13.4,0V198c0,0-6,4.4-13.4,0V143.5z"/>
					<path id="Fill-230" class="st61" d="M93.4,143.5H80C80,143.5,86.4,147.4,93.4,143.5"/>
					<path id="Fill-232" class="st62" d="M80,145.8c0,0,6.7,3.2,13.4,0v6.7c0,0-5.8,4.7-13.4,0V145.8z"/>
					<path id="Fill-234" class="st62" d="M80,188.3c0,0,6.7,3.2,13.4,0v6.7c0,0-5.8,4.7-13.4,0V188.3z"/>
					<polygon id="Fill-236" class="st62" points="49.2,135.4 49.2,185.4 80,198 80,143.5 					"/>
					<path id="Fill-238" class="st61" d="M50.8,183.6l27.6,11.3v-49.2l-27.6-7.2V183.6z M79,195.8L50.2,184v-46.3l0.4,0.1l28.4,7.4
						V195.8z"/>
					<polygon id="Fill-240" class="st62" points="124.2,135.4 124.2,185.4 93.4,198 93.4,143.5 					"/>
					<path id="Fill-242" class="st61" d="M122.5,138.5L95,145.7v49.2l27.6-11.3V138.5z M94.4,145.2l28.4-7.4l0.4-0.1V184l-28.8,11.8
						V145.2z"/>
					<path id="Fill-244" class="st52" d="M127.1,156.9c-0.2-0.7-0.9-1.1-1.7-1.1l-7.7,0.6c-0.9,0.1-1.6,0.9-1.5,1.8
						c0.1,0.9,0.9,1.6,1.8,1.5l7.7-0.6c0.9-0.1,1.6-0.9,1.5-1.8C127.2,157.2,127.1,157,127.1,156.9"/>
					<path id="Fill-246" class="st52" d="M127.5,161c-0.2-0.7-0.9-1.1-1.7-1.1l-8.6,0.6c-0.9,0.1-1.6,0.9-1.5,1.8
						c0.1,0.9,0.9,1.6,1.8,1.5l8.6-0.6c0.9-0.1,1.6-0.9,1.5-1.8C127.6,161.3,127.5,161.2,127.5,161"/>
					<path id="Fill-248" class="st52" d="M127.8,165.3c-0.3-0.7-1-1.1-1.7-1l-7.6,1c-0.9,0.1-1.5,1-1.4,1.9c0.1,0.9,0.9,1.5,1.9,1.4
						l7.6-1c0.9-0.1,1.5-1,1.4-1.9C127.9,165.6,127.8,165.4,127.8,165.3"/>
					<path id="Fill-250" class="st52" d="M127.2,171.5c2.6-1.5,13.4-8.7,11.8-18.8c-0.6-2.6-3.3-2.2-7.1-1.3
						c-3.8,0.9-7.6,4.8-7.6,4.8l2.3,15.2C126.6,171.4,126.8,171.7,127.2,171.5"/>
					<path id="Fill-252" class="st52" d="M122.8,169l4.3-0.9v3.4l-3.7,0.7c-0.9,0.2-1.8-0.4-1.9-1.3
						C121.3,170,121.9,169.1,122.8,169"/>
					<path id="Fill-254" class="st52" d="M48.1,156.9c0.2-0.7,0.9-1.1,1.7-1.1l7.7,0.6c0.9,0.1,1.6,0.9,1.5,1.8
						c-0.1,0.9-0.9,1.6-1.8,1.5l-7.7-0.6c-0.9-0.1-1.6-0.9-1.5-1.8C48,157.2,48.1,157,48.1,156.9"/>
					<path id="Fill-256" class="st52" d="M47.7,161c0.2-0.7,0.9-1.1,1.7-1.1l8.6,0.6c0.9,0.1,1.6,0.9,1.5,1.8
						c-0.1,0.9-0.9,1.6-1.8,1.5l-8.6-0.6c-0.9-0.1-1.6-0.9-1.5-1.8C47.6,161.3,47.7,161.2,47.7,161"/>
					<path id="Fill-258" class="st52" d="M47.4,165.3c0.3-0.7,1-1.1,1.7-1l7.6,1c0.9,0.1,1.5,1,1.4,1.9c-0.1,0.9-0.9,1.5-1.9,1.4
						l-7.6-1c-0.9-0.1-1.5-1-1.4-1.9C47.3,165.6,47.4,165.4,47.4,165.3"/>
					<path id="Fill-260" class="st52" d="M48,171.5c-2.6-1.5-13.4-8.7-11.8-18.8c0.6-2.6,3.3-2.2,7.1-1.3c3.8,0.9,7.6,4.8,7.6,4.8
						l-2.3,15.2C48.6,171.4,48.4,171.7,48,171.5"/>
					<path id="Fill-262" class="st52" d="M52.4,169l-4.3-0.9v3.4l3.7,0.7c0.9,0.2,1.8-0.4,1.9-1.3C53.9,170,53.3,169.1,52.4,169"/>
					<path id="Fill-264" class="st63" d="M76.3,81.7v23.2c0,5.3,4.3,9.7,9.6,9.7c5.3,0,9.6-4.3,9.6-9.7V81.7H76.3z"/>
					<path id="Fill-266" d="M115.9,57.9c-0.6,16.6-14.6,29.6-31.1,29c-16.6-0.6-29.5-14.6-28.9-31.3C56.5,39,70.5,26.1,87,26.7
						C103.6,27.3,116.6,41.3,115.9,57.9"/>
					<path id="Fill-268" d="M105.2,20.1c-0.4,10.7-9.4,19.1-20,18.7c-10.7-0.4-19-9.4-18.6-20.1C67,8,76-0.4,86.6,0
						C97.3,0.4,105.6,9.4,105.2,20.1"/>
					<path id="Fill-270" class="st54" d="M116.3,66c0,3.4-2.8,6.1-6.1,6.1c-3.4,0-6.1-2.8-6.1-6.2c0-3.4,2.8-6.1,6.1-6.1
						C113.6,59.9,116.3,62.6,116.3,66"/>
					<path id="Fill-272" class="st63" d="M109.4,61.3c3.4,0,6.1,2.8,6.1,6.2c0,0.8-0.2,1.7-0.5,2.4c0.8-1,1.3-2.4,1.4-3.8
						c0-3.4-2.7-6.1-6.1-6.2c-2.5,0-4.7,1.5-5.6,3.7C105.7,62.2,107.4,61.3,109.4,61.3"/>
					<path id="Fill-274" class="st54" d="M55.6,65.6c0,3.4,2.7,6.1,6.1,6.2c3.4,0,6.1-2.7,6.1-6.1c0-3.4-2.7-6.1-6.1-6.2
						C58.3,59.5,55.6,62.3,55.6,65.6"/>
					<path id="Fill-276" class="st63" d="M62.5,61c-3.4,0-6.1,2.7-6.1,6.1c0,0.8,0.2,1.7,0.5,2.4c-0.8-1-1.3-2.4-1.3-3.8
						c0-3.4,2.8-6.1,6.1-6.1c2.5,0,4.7,1.6,5.6,3.8C66.2,61.9,64.5,61,62.5,61"/>
					<path id="Fill-278" class="st52" d="M110.4,52.8c0-1.8-1.3-3.3-3-3.3l-42.9-0.3c-1.6,0-3,1.5-3,3.3l-0.2,26.8
						c0,0.1,0,0.3,0,0.4c0,0.2,0,0.4,0,0.6c0,1.9,0.8,3.6,2,4.7c0,0,0,0,0,0l0,0c0.5,0.5,1.1,0.9,1.8,1.1l14.5,9
						c0.6,1.3,1.9,2.4,2.9,2.4l6.3,0c1,0,2.3-1.1,2.9-2.4l14.6-8.8c0.7-0.2,1.3-0.6,1.8-1.1l0,0c0,0,0,0,0,0c1.2-1.1,2-2.8,2-4.7
						c0-0.2,0-0.4,0-0.6c0-0.1,0-0.3,0-0.4L110.4,52.8z"/>
					<path id="Fill-280" class="st54" d="M79.7,95.1l-12.9-9c-0.7-0.2-1.3-0.6-1.8-1.1l0,0c0,0,0,0,0,0c-1.2-1.1-2-2.8-2-4.7
						c0-0.2,0-0.4,0-0.6c0-0.1,0-0.3,0-0.4l0.2-26.8c0-1.8,1.3-3.2,2.9-3.2l-1.6,0c-1.6,0-3,1.5-3,3.3l-0.2,26.8c0,0.1,0,0.3,0,0.4
						c0,0.2,0,0.4,0,0.6c0,1.9,0.8,3.6,2,4.7c0,0,0,0,0,0l0,0c0.5,0.5,1.1,0.9,1.8,1.1L79.7,95.1C80.3,96.4,80.3,96.4,79.7,95.1"/>
					<path id="Fill-282" class="st63" d="M110.4,52.8c0-1.3-1.7,25.2-1.7,25.2c0,0.1,0,0.3,0,0.4c0,0.2,0,0.4,0,0.6
						c0,1.9-1.6,4-2,4.4c-0.4,0.4-1.1,0.8-1.8,1.4c-0.7,0.5-11.8,9.5-13.1,10.4l14.6-8.8c0.7-0.2,1.3-0.6,1.8-1.1l0,0c0,0,0,0,0,0
						c1.2-1.1,2-2.8,2-4.7c0-0.2,0-0.4,0-0.6c0-0.1,0-0.3,0-0.4L110.4,52.8z"/>
					<path id="Fill-284" class="st55" d="M77.4,69.8c0.7,0,1.4,0.2,2.1,0.5c0.4-0.5,0.7-1.1,0.7-1.9c0-1.6-1.2-2.8-2.8-2.8
						c-1.6,0-2.8,1.2-2.8,2.8c0,0.7,0.3,1.4,0.7,1.9C76,70,76.7,69.8,77.4,69.8"/>
					<path id="Fill-286" class="st55" d="M94.4,69.8c0.7,0,1.4,0.2,2.1,0.5c0.4-0.5,0.7-1.1,0.7-1.9c0-1.6-1.2-2.8-2.8-2.8
						c-1.6,0-2.8,1.2-2.8,2.8c0,0.7,0.3,1.4,0.7,1.9C93,70,93.7,69.8,94.4,69.8"/>
					<path id="Fill-288" d="M61.1,54.3v9.2c0,0,31.4-0.9,33.7-21.3c-35.2,3.4-35.2,4.5-35.2,4.5"/>
					<path id="Fill-290" d="M111.7,55.4V60c0,0-17.9-0.1-19.1-10.6c8.8-5,16.9-8.3,16.9-8.3"/>
					<path id="Fill-292" class="st53" d="M77.9,80.4c0,0,1.8,5.5,8.3,5.5c6.4,0,8.3-5.5,8.3-5.5H77.9z"/>
					<path id="Fill-294" class="st9" d="M78.8,80.4c1.5,2.6,4.2,4.3,7.4,4.3c3.2,0,5.9-1.7,7.4-4.3H78.8z"/>
				</g>
				<g id="Group-299" transform="translate(389.889166, 198.342498)">
					<defs>
						<filter id="Adobe_OpacityMaskFilter_20_" filterUnits="userSpaceOnUse" x="0" y="0.4" width="2.9" height="9.9">
							<feColorMatrix  type="matrix" values="1 0 0 0 0  0 1 0 0 0  0 0 1 0 0  0 0 0 1 0"/>
						</filter>
					</defs>
					<mask maskUnits="userSpaceOnUse" x="0" y="0.4" width="2.9" height="9.9" id="mask-42">
						<g class="st64">
							<polygon id="path-41" class="st9" points="2.9,10.3 2.9,0.4 0,0.4 0,10.3 							"/>
						</g>
					</mask>
					<path id="Fill-297" class="st65" d="M2.9,10.3l0-9.9c-1,0-1.8,0.9-2,2L0,10.3L2.9,10.3z"/>
				</g>
			</g>
		</g>
	</g>
</g>
</svg>
