<?xml version="1.0" encoding="UTF-8"?>
<svg width="566px" height="514px" viewBox="0 0 566 514" version="1.1" xmlns="http://www.w3.org/2000/svg" xmlns:xlink="http://www.w3.org/1999/xlink">
    <!-- Generator: Sketch 42 (36781) - http://www.bohemiancoding.com/sketch -->
    <title>Illustration</title>
    <desc>Created with Sketch.</desc>
    <defs>
        <path d="M75.662142,279.966276 C81.245802,278.553904 85.4211654,278.114724 85.4211654,278.114724 L85.4211654,54.858748 C73.0129809,30.9867534 42.5496011,4.84941233 0.0517423842,0.345237687 L0.0517423842,279.966276 L75.662142,279.966276 L75.662142,279.966276 Z" id="path-1"></path>
        <path d="M0.365304011,19.1063605 C18.5264213,16.1544399 38.8423034,11.8670295 59.8019027,5.64134686 C70.1170117,2.5779567 80.0264392,0.7814106 89.4797934,0.0508187598 L89.4797934,225.582009 L0.365307793,225.582009 L0.365307793,19.1063644 L0.365304011,19.1063605 Z" id="path-3"></path>
        <path d="M48.4127859,0.622243998 L0.466685517,111.062312 L295.685939,118.907899 L349.480611,118.907899 C351.708654,98.0536779 387.399783,94.299554 387.399783,94.299554 L387.399783,0.622243998 L48.4127859,0.622243998 L48.4127859,0.622243998 Z" id="path-5"></path>
        <path d="M48.4127859,0.622243998 L0.466685517,111.062312 L295.685939,118.907899 L349.480611,118.907899 C351.708654,98.0536779 387.399783,94.299554 387.399783,94.299554 L387.399783,0.622243998 L48.4127859,0.622243998 L48.4127859,0.622243998 Z" id="path-7"></path>
        <path d="M40.0519133,0.205943027 L0.466685517,91.3873988 L349.382045,100.659985 C349.841967,86.338272 365.655779,79.6466129 376.740686,76.7092577 L376.740686,0.205943027 L40.0519133,0.205943027 L40.0519133,0.205943027 Z" id="path-9"></path>
        <path d="M31.6910407,0.00462502686 L0.466685517,71.9274689 L349.382045,81.2000548 C349.686575,71.7171625 356.722579,65.5794488 364.660147,61.6618081 L364.660147,0.00462502686 L31.6910407,0.00462502686 L31.6910407,0.00462502686 Z" id="path-11"></path>
        <path d="M23.3301681,0.288767702 L0.466685517,52.9529998 L349.382045,62.2255857 C349.503304,58.4496453 350.691844,55.2040859 352.579609,52.4178768 L352.579609,0.288767702 L23.3301681,0.288767702 L23.3301681,0.288767702 Z" id="path-13"></path>
        <polygon id="path-15" points="14.969347 0.572791788 0.466685517 33.9785306 340.498952 43.0150443 340.498952 0.572791788"></polygon>
        <polygon id="path-17" points="6.60847434 0.156490816 0.466685517 14.3036178 328.418413 23.0190856 328.418413 0.156490816 6.60847434 0.156490816"></polygon>
        <path d="M14.9080102,265.980077 C7.02445036,263.418185 0.177215807,262.697968 0.177215807,262.697968 L0.177215807,39.4419918 C7.40272822,25.5408934 20.7506592,10.8716282 39.0321523,0.15321962 L39.0321523,265.980077 L14.9080102,265.980077 L14.9080102,265.980077 Z" id="path-19"></path>
        <path d="M71.2385398,5.73631746 C57.7597365,1.86260699 44.9801204,0.152221561 33.0165235,0.152221561 C21.432043,0.152221561 10.6119809,1.75537568 0.660329354,4.54890046 L0.66033047,219.626467 L71.23854,219.626467 L71.23854,5.73631435 L71.2385398,5.73631746 Z" id="path-21"></path>
        <path d="M0.177215807,0.622243998 L0.177215807,94.299554 C0.177215807,94.299554 35.8683444,98.0536779 38.0974931,118.907899 L91.8920595,118.907899 L387.110313,111.062312 L339.164213,0.622243998 L0.177215807,0.622243998 L0.177215807,0.622243998 Z" id="path-23"></path>
        <path d="M0.177215807,0.622243998 L0.177215807,94.299554 C0.177215807,94.299554 35.8683444,98.0536779 38.0974931,118.907899 L91.8920595,118.907899 L387.110313,111.062312 L339.164213,0.622243998 L0.177215807,0.622243998 L0.177215807,0.622243998 Z" id="path-25"></path>
        <path d="M0.20309027,76.7092753 C11.288089,79.6466396 27.1021078,86.3383007 27.5627946,100.659985 L376.476972,91.3873988 L336.891745,0.205943027 L0.20309027,0.205943027 L0.20309027,76.7092753 L0.20309027,76.7092753 Z" id="path-27"></path>
        <path d="M0.468805644,61.6617578 C8.40658123,65.5793963 15.442933,71.7171219 15.7479713,81.2000548 L364.662149,71.9274689 L333.437794,0.00462502686 L0.468805644,0.00462502686 L0.468805644,61.6617578 L0.468805644,61.6617578 Z" id="path-29"></path>
        <path d="M0.253782403,52.4172313 C2.14193933,55.2035847 3.33082098,58.4493537 3.45229135,62.2255857 L352.366469,52.9529998 L329.502987,0.288767702 L0.253782403,0.288767702 L0.253782403,52.4172313 L0.253782403,52.4172313 Z" id="path-31"></path>
        <polygon id="path-33" points="0.519497777 43.0150717 340.551646 33.9785306 326.048985 0.572791788 0.519497777 0.572791788"></polygon>
        <polygon id="path-35" points="0.0845875928 23.019112 328.036197 14.3036178 321.894408 0.156490816 0.0845875928 0.156490816 0.0845875928 23.019112"></polygon>
        <path d="M0.4623544,26.0863653 C13.9326793,25.9162411 69.0422346,24.0875101 129.50936,6.12680754 C143.485114,1.97614241 156.705901,0.152221561 169.067751,0.152221561 C173.255616,0.152625059 177.343651,0.362530093 181.32693,0.762434596 L181.32693,189.099714 C169.195645,186.448582 155.394261,184.92323 139.694919,184.92323 C79.9813305,184.92323 50.5114138,196.309411 20.857882,204.164767 L0.4623544,204.164765 L0.4623544,26.0863653 L0.4623544,26.0863653 Z" id="path-37"></path>
        <path d="M0.128545277,130.949456 L142.792536,129.921105 L142.792536,2.01509002 C135.090062,1.11112338 126.822976,0.622599769 117.94738,0.622599769 C58.9118212,0.622599769 29.4409843,11.7538414 0.128545277,19.6004667 L0.128545277,130.949456 L0.128545277,130.949456 Z" id="path-39"></path>
        <polygon id="path-41" points="2.93243258 10.2881944 2.93243258 0.373559861 0.0171249522 0.373559861 0.0171249522 10.2881944 2.93243258 10.2881944"></polygon>
    </defs>
    <g id="Homepage" stroke="none" stroke-width="1" fill="none" fill-rule="evenodd">
        <g id="3.5_Desktop_Accreditation_Detail" transform="translate(-834.000000, -317.000000)">
            <g id="Illustration" transform="translate(834.000000, 317.000000)">
                <polygon id="Fill-3" fill="#016859" points="280.423996 -0.000237180868 203.036903 183.814933 347.177747 193.302167"></polygon>
                <polygon id="Fill-4" fill="#016859" points="266.836713 263.270759 344.223805 79.4555896 410.977556 272.757994"></polygon>
                <polygon id="Fill-5" fill="#016859" points="328.273793 244.29629 405.660885 60.4811204 472.414637 253.783525"></polygon>
                <polygon id="Fill-6" fill="#016859" points="533.851717 294.104272 611.23881 110.289102 677.992561 303.591506"></polygon>
                <polygon id="Fill-7" fill="#016859" points="397.390509 227.100678 474.777601 43.2855078 541.531353 236.587912"></polygon>
                <polygon id="Fill-8" fill="#016859" points="113.834752 300.626746 191.221844 116.811576 257.975595 310.11398"></polygon>
                <polygon id="Fill-9" fill="#016859" points="135.101434 316.636454 212.488526 132.821284 279.242277 326.123689"></polygon>
                <g id="Group-14" transform="translate(178.884687, 25.900910)" fill="#2AA296">
                    <path d="M352.114459,48.2045903 C359.222257,35.8605122 372.509207,27.5556243 387.730244,27.5556243 C410.152415,27.5556243 428.382687,45.5801841 428.831651,67.9771731 C428.973429,67.9700577 429.117569,67.9617563 429.260529,67.9617563 C447.371471,67.9617563 462.052571,82.7013612 462.052571,100.870601 C462.052571,119.0517 447.371471,133.786562 429.260529,133.786562 L301.164215,133.786562 C286.657975,133.786562 274.901045,121.983256 274.901045,107.42628 C274.901045,93.1052998 286.279901,81.4644629 300.454145,81.0826018 C300.045352,79.0072692 299.824414,76.8631542 299.824414,74.6656735 C299.824414,56.4869461 314.506695,41.7556426 332.615275,41.7556426 C339.919199,41.7556426 346.667826,44.1511694 352.114459,48.2045903" id="Fill-10"></path>
                    <path d="M59.5217798,16.1771095 C64.9944059,6.67327225 75.2236798,0.280062047 86.9416215,0.280062047 C104.20426,0.280062047 118.239088,14.1575144 118.585263,31.3993774 C118.693959,31.3946337 118.805018,31.3875183 118.914896,31.3875183 C132.85875,31.3875183 144.16081,42.7354368 144.16081,56.7231783 C144.16081,70.720407 132.85875,82.0647677 118.914896,82.0647677 L20.2965667,82.0647677 C9.12801427,82.0647677 0.0766782027,72.9783688 0.0766782027,61.770387 C0.0766782027,50.7450346 8.83736962,41.7831556 19.7495403,41.4890513 C19.4340846,39.8916382 19.2639511,38.2408594 19.2639511,36.5485739 C19.2639511,22.553717 30.568374,11.212914 44.5098654,11.212914 C50.1337212,11.212914 55.328699,13.0569952 59.5217798,16.1771095" id="Fill-12"></path>
                </g>
                <g id="Group-29" transform="translate(196.606922, 461.613257)" stroke="#2AA296" stroke-linecap="round">
                    <path d="M52.3311602,17.3045327 C44.087958,18.4014758 35.435963,18.9863182 26.51459,18.9863182 C17.3829131,18.9863182 8.53361052,18.373834 0.114367489,17.2259718" id="Stroke-15" stroke-width="3.931"></path>
                    <path d="M129.584981,7.32841435 C112.767762,19.82666 83.8817004,28.9604951 49.7569465,31.79955 C42.4258487,32.4102908 34.852547,32.729299 27.1055674,32.729299" id="Stroke-17" stroke-width="4.655"></path>
                    <path d="M197.101379,14.6421235 C197.384935,15.5552698 197.534983,16.5039933 197.534983,17.4764348 C197.534983,23.0039349 192.707446,27.7475521 185.826493,29.7778203" id="Stroke-19" stroke-width="3"></path>
                    <path d="M237.981495,16.3178063 C238.06538,16.8941558 238.109095,17.4776207 238.109095,18.069387 C238.109095,27.5305317 227.083502,35.2009608 213.48464,35.2009608 C212.552451,35.2009608 211.630894,35.1641978 210.725879,35.0942294" id="Stroke-21" stroke-width="4"></path>
                    <path d="M158.387984,7.15942298 C163.097373,2.91388551 170.283148,0.201722325 178.33495,0.201722325 C179.707833,0.201722325 181.054723,0.27999201 182.368531,0.431787764" id="Stroke-23" stroke-width="3"></path>
                    <path d="M198.066178,7.35711323 C202.775566,3.11157576 209.961342,0.399412576 218.013144,0.399412576 C219.386026,0.399412576 220.732916,0.477682261 222.046724,0.629478014" id="Stroke-25" stroke-width="3"></path>
                    <path d="M204.018249,19.0039982 C204.018249,25.4944525 199.526253,31.2164409 192.694923,34.5950823 C188.59636,36.6229787 183.65422,37.8065112 178.335187,37.8065112 C168.444998,37.8065112 159.860347,33.7139554 155.569204,27.7156513" id="Stroke-27" stroke-width="4"></path>
                </g>
                <g id="Group-34" transform="translate(5.206786, 142.119534)">
                    <path d="M406.236746,317.369531 L359.992347,317.369531 C351.778682,317.369531 345.057229,310.622922 345.057229,302.378515 L345.057229,302.378515 C345.057229,294.132922 351.778682,287.387498 359.992347,287.387498 L406.236746,287.387498 C414.451593,287.387498 421.171865,294.132922 421.171865,302.378515 L421.171865,302.378515 C421.171865,310.622922 414.451593,317.369531 406.236746,317.369531" id="Fill-30" fill="#000000"></path>
                    <path d="M0.466567369,295.362824 L117.36361,26.0996895 C117.36361,26.0996895 179.898288,26.812418 249.539582,6.12668894 C319.180876,-14.5578542 370.344968,22.5324893 387.399665,55.3440901 L387.399665,278.601252 C387.399665,278.601252 350.091998,282.524223 349.381927,304.635409 L0.466567369,295.362824 Z" id="Fill-32" fill="#FFB73E"></path>
                </g>
                <g id="Group-64" transform="translate(5.206786, 142.604995)">
                    <g id="Group-37" transform="translate(301.978618, 0.000000)">
                        <mask id="mask-2" fill="white">
                            <use xlink:href="#path-1"></use>
                        </mask>
                        <g id="Clip-36"></g>
                        <polygon id="Fill-35" fill="#F4AD3A" mask="url(#mask-2)" points="26.4295167 -2.68927523 0.0517423842 226.29699 90.5922772 279.966276 92.0171449 25.9337115"></polygon>
                    </g>
                    <g id="Group-40" transform="translate(189.737797, 0.000000)">
                        <mask id="mask-4" fill="white">
                            <use xlink:href="#path-3"></use>
                        </mask>
                        <g id="Clip-39"></g>
                        <path d="M51.6948073,4.46659004 L0.365307793,225.582009 C0.365307793,225.582009 51.6948073,200.535709 51.6948073,196.957836 C51.6948073,193.379963 89.4797934,-9.12980301 89.4797934,-9.12980301 L51.6948073,4.46659004 Z" id="Fill-38" fill="#FFCA5B" mask="url(#mask-4)"></path>
                    </g>
                    <polygon id="Fill-41" fill="#FFCA5B" points="129.505113 18.778202 46.8072578 218.425195 14.7264683 212.700834 103.127339 3.75042242"></polygon>
                    <g id="Group-45" transform="translate(0.000000, 183.815170)">
                        <mask id="mask-6" fill="white">
                            <use xlink:href="#path-5"></use>
                        </mask>
                        <g id="Clip-44"></g>
                        <path d="M388.821224,89.5449078 C388.821224,89.5449078 379.583214,0.622243998 259.725377,0.622243998 C139.866358,0.622243998 141.880786,46.5108117 19.6528951,17.6221825 L-24.4057622,118.907899 L28.8909054,118.552127 L352.579254,116.41157 C352.579254,116.41157 371.055275,87.9996744 388.821224,89.5449078" id="Fill-43" fill="#FFCA5B" mask="url(#mask-6)"></path>
                    </g>
                    <g id="Group-48" transform="translate(0.000000, 183.815170)">
                        <mask id="mask-8" fill="white">
                            <use xlink:href="#path-7"></use>
                        </mask>
                        <g id="Clip-47"></g>
                        <path d="M388.821224,89.5449078 C388.821224,89.5449078 379.583214,0.622243998 259.725377,0.622243998 C139.866358,0.622243998 141.880786,46.5108117 19.6528951,17.6221825 L-24.4057622,118.907899 L28.8909054,118.552127 L352.579254,116.41157 C352.579254,116.41157 371.055275,87.9996744 388.821224,89.5449078 L388.821224,89.5449078 Z" id="Stroke-46" stroke="#FFCA5B" mask="url(#mask-8)"></path>
                    </g>
                    <g id="Group-51" transform="translate(0.000000, 203.490083)">
                        <mask id="mask-10" fill="white">
                            <use xlink:href="#path-9"></use>
                        </mask>
                        <g id="Clip-50"></g>
                        <path d="M376.740686,89.1286068 C376.740686,89.1286068 367.502676,0.205943027 247.644838,0.205943027 C127.78582,0.205943027 129.800247,46.0945108 7.5723565,17.2058815 L-36.4863008,118.491598 L16.8103668,118.135827 L340.498716,115.995269 C340.498716,115.995269 358.974736,87.5833735 376.740686,89.1286068 L376.740686,89.1286068 Z" id="Stroke-49" stroke="#F4AD3A" stroke-width="2.896" mask="url(#mask-10)"></path>
                    </g>
                    <g id="Group-54" transform="translate(0.000000, 222.950013)">
                        <mask id="mask-12" fill="white">
                            <use xlink:href="#path-11"></use>
                        </mask>
                        <g id="Clip-53"></g>
                        <path d="M364.660147,88.9272888 C364.660147,88.9272888 355.422137,0.00462502686 235.5643,0.00462502686 C115.705281,0.00462502686 117.719709,45.8931928 -4.5081821,17.0045635 L-48.5668394,118.29028 L4.72982818,117.934509 L328.418177,115.793951 C328.418177,115.793951 346.894198,87.3820555 364.660147,88.9272888 L364.660147,88.9272888 Z" id="Stroke-52" stroke="#F4AD3A" stroke-width="2.896" mask="url(#mask-12)"></path>
                    </g>
                    <g id="Group-57" transform="translate(0.000000, 241.924482)">
                        <mask id="mask-14" fill="white">
                            <use xlink:href="#path-13"></use>
                        </mask>
                        <g id="Clip-56"></g>
                        <path d="M352.579609,89.2114315 C352.579609,89.2114315 343.341598,0.288767702 223.483761,0.288767702 C103.624743,0.288767702 105.63917,46.1773354 -16.5887207,17.2887062 L-60.647378,118.574422 L-7.35071042,118.218651 L316.337638,116.078094 C316.337638,116.078094 334.813659,87.6661982 352.579609,89.2114315 L352.579609,89.2114315 Z" id="Stroke-55" stroke="#F4AD3A" stroke-width="2.896" mask="url(#mask-14)"></path>
                    </g>
                    <g id="Group-60" transform="translate(0.000000, 260.898951)">
                        <mask id="mask-16" fill="white">
                            <use xlink:href="#path-15"></use>
                        </mask>
                        <g id="Clip-59"></g>
                        <path d="M340.498952,89.4954556 C340.498952,89.4954556 331.260942,0.572791788 211.403105,0.572791788 C91.5440859,0.572791788 93.5585132,46.4613595 -28.6693774,17.5727302 L-72.7280347,118.858447 L-19.4313672,118.502675 L304.256982,116.362118 C304.256982,116.362118 322.733002,87.9502222 340.498952,89.4954556 L340.498952,89.4954556 Z" id="Stroke-58" stroke="#F4AD3A" stroke-width="2.896" mask="url(#mask-16)"></path>
                    </g>
                    <g id="Group-63" transform="translate(0.000000, 280.573864)">
                        <mask id="mask-18" fill="white">
                            <use xlink:href="#path-17"></use>
                        </mask>
                        <g id="Clip-62"></g>
                        <path d="M328.418413,89.0791546 C328.418413,89.0791546 319.180403,0.156490816 199.322566,0.156490816 C79.4635473,0.156490816 81.4779746,46.0450586 -40.749916,17.1564293 L-84.8085733,118.442146 L-31.5119058,118.086374 L292.176443,115.945817 C292.176443,115.945817 310.652464,87.5339213 328.418413,89.0791546 L328.418413,89.0791546 Z" id="Stroke-61" stroke="#F4AD3A" stroke-width="2.896" mask="url(#mask-18)"></path>
                    </g>
                </g>
                <path d="M779.362681,437.482358 L662.465638,168.219224 C662.465638,168.219224 599.93096,168.931952 530.289666,148.246223 C460.648372,127.56168 409.48428,164.652023 392.429583,197.463624 L392.429583,420.720786 C392.429583,420.720786 429.73725,424.643757 430.447321,446.754944 L779.362681,437.482358 Z" id="Fill-65" fill="#FFB73E"></path>
                <g id="Group-96" transform="translate(392.252131, 142.119534)">
                    <g id="Group-69" transform="translate(0.000000, 15.902217)">
                        <mask id="mask-20" fill="white">
                            <use xlink:href="#path-19"></use>
                        </mask>
                        <g id="Clip-68"></g>
                        <polygon id="Fill-67" fill="#F4AD3A" mask="url(#mask-20)" points="-11.5849133 14.0951844 -11.5849133 265.980077 39.0321523 238.07219 25.4864575 -0.216308948"></polygon>
                    </g>
                    <g id="Group-72" transform="translate(65.462384, 0.000000)">
                        <mask id="mask-22" fill="white">
                            <use xlink:href="#path-21"></use>
                        </mask>
                        <g id="Clip-71"></g>
                        <path d="M0.66033047,-0.77266522 L24.1860065,219.626467 C24.1860065,219.626467 71.23854,209.607947 71.23854,207.461461 C71.23854,205.314974 42.0098488,-7.21331159 42.0098488,-7.21331159 L0.66033047,-0.77266522 Z" id="Fill-70" fill="#FFCA5B" mask="url(#mask-22)"></path>
                    </g>
                    <g id="Group-77" transform="translate(0.000000, 184.300631)">
                        <mask id="mask-24" fill="white">
                            <use xlink:href="#path-23"></use>
                        </mask>
                        <g id="Clip-76"></g>
                        <path d="M-1.24410743,89.5449078 C-1.24410743,89.5449078 7.99390285,0.622243998 127.85174,0.622243998 C247.710759,0.622243998 245.696331,46.5108117 367.924222,17.6221825 L411.982879,118.907899 L358.686212,118.552127 L34.9978628,116.41157 C34.9978628,116.41157 16.5218423,87.9996744 -1.24410743,89.5449078" id="Fill-75" fill="#FFCA5B" mask="url(#mask-24)"></path>
                    </g>
                    <g id="Group-80" transform="translate(0.000000, 184.300631)">
                        <mask id="mask-26" fill="white">
                            <use xlink:href="#path-25"></use>
                        </mask>
                        <g id="Clip-79"></g>
                        <path d="M-1.24410743,89.5449078 C-1.24410743,89.5449078 7.99390285,0.622243998 127.85174,0.622243998 C247.710759,0.622243998 245.696331,46.5108117 367.924222,17.6221825 L411.982879,118.907899 L358.686212,118.552127 L34.9978628,116.41157 C34.9978628,116.41157 16.5218423,87.9996744 -1.24410743,89.5449078 L-1.24410743,89.5449078 Z" id="Stroke-78" stroke="#FFCA5B" mask="url(#mask-26)"></path>
                    </g>
                    <g id="Group-83" transform="translate(10.633341, 203.975543)">
                        <mask id="mask-28" fill="white">
                            <use xlink:href="#path-27"></use>
                        </mask>
                        <g id="Clip-82"></g>
                        <path d="M0.20309027,89.1286068 C0.20309027,89.1286068 9.44110055,0.205943027 129.298938,0.205943027 C249.157956,0.205943027 247.143529,46.0945108 369.37142,17.2058815 L413.430077,118.491598 L360.133409,118.135827 L36.4450605,115.995269 C36.4450605,115.995269 17.9690399,87.5833735 0.20309027,89.1286068 L0.20309027,89.1286068 Z" id="Stroke-81" stroke="#F4AD3A" stroke-width="2.896" mask="url(#mask-28)"></path>
                    </g>
                    <g id="Group-86" transform="translate(22.448164, 223.435473)">
                        <mask id="mask-30" fill="white">
                            <use xlink:href="#path-29"></use>
                        </mask>
                        <g id="Clip-85"></g>
                        <path d="M0.468805644,88.9272888 C0.468805644,88.9272888 9.70681592,0.00462502686 129.564653,0.00462502686 C249.423672,0.00462502686 247.409244,45.8931928 369.637135,17.0045635 L413.695792,118.29028 L360.399125,117.934509 L36.7107759,115.793951 C36.7107759,115.793951 18.2347553,87.3820555 0.468805644,88.9272888 L0.468805644,88.9272888 Z" id="Stroke-84" stroke="#F4AD3A" stroke-width="2.896" mask="url(#mask-30)"></path>
                    </g>
                    <g id="Group-89" transform="translate(34.743844, 242.409942)">
                        <mask id="mask-32" fill="white">
                            <use xlink:href="#path-31"></use>
                        </mask>
                        <g id="Clip-88"></g>
                        <path d="M0.253782403,89.2114315 C0.253782403,89.2114315 9.49179268,0.288767702 129.34963,0.288767702 C249.208648,0.288767702 247.194221,46.1773354 369.422112,17.2887062 L413.480769,118.574422 L360.184101,118.218651 L36.4957526,116.078094 C36.4957526,116.078094 18.0197321,87.6661982 0.253782403,89.2114315 L0.253782403,89.2114315 Z" id="Stroke-87" stroke="#F4AD3A" stroke-width="2.896" mask="url(#mask-32)"></path>
                    </g>
                    <g id="Group-92" transform="translate(46.558667, 261.384412)">
                        <mask id="mask-34" fill="white">
                            <use xlink:href="#path-33"></use>
                        </mask>
                        <g id="Clip-91"></g>
                        <path d="M0.519497777,89.4954556 C0.519497777,89.4954556 9.75750805,0.572791788 129.615345,0.572791788 C249.474364,0.572791788 247.459936,46.4613595 369.687827,17.5727302 L413.746484,118.858447 L360.449817,118.502675 L36.761468,116.362118 C36.761468,116.362118 18.2854475,87.9502222 0.519497777,89.4954556 L0.519497777,89.4954556 Z" id="Stroke-90" stroke="#F4AD3A" stroke-width="2.896" mask="url(#mask-34)"></path>
                    </g>
                    <g id="Group-95" transform="translate(59.074116, 281.059324)">
                        <mask id="mask-36" fill="white">
                            <use xlink:href="#path-35"></use>
                        </mask>
                        <g id="Clip-94"></g>
                        <path d="M0.0845875928,89.0791546 C0.0845875928,89.0791546 9.32259787,0.156490816 129.180435,0.156490816 C249.039454,0.156490816 247.025026,46.0450586 369.252917,17.1564293 L413.311574,118.442146 L360.014907,118.086374 L36.3265578,115.945817 C36.3265578,115.945817 17.8505373,87.5339213 0.0845875928,89.0791546 L0.0845875928,89.0791546 Z" id="Stroke-93" stroke="#F4AD3A" stroke-width="2.896" mask="url(#mask-36)"></path>
                    </g>
                </g>
                <path d="M772.611691,431.06282 L433.082027,431.06282 C423.287538,416.656455 406.817675,407.168034 388.165613,407.168034 C369.515915,407.168034 353.046051,416.656455 343.250381,431.06282 L11.5362231,431.06282 C5.25664461,431.06282 0.16563728,436.166953 0.16563728,442.474778 C0.16563728,448.783789 5.25664461,453.887921 11.5362231,453.887921 L334.59366,453.887921 L357.637292,453.887921 C360.504749,442.683497 369.265441,433.905433 380.443445,431.06282 C382.929284,430.430733 385.487193,429.993135 388.165613,429.993135 C390.842852,429.993135 393.401943,430.430733 395.885419,431.06282 C407.06106,433.905433 415.825296,442.683497 418.692754,453.887921 L441.737566,453.887921 L772.611691,453.887921 C778.895995,453.887921 783.981095,448.783789 783.981095,442.474778 C783.981095,436.166953 778.895995,431.06282 772.611691,431.06282" id="Fill-97" fill="#2A1247"></path>
                <g id="Group-101" transform="translate(125.237126, 142.119534)">
                    <mask id="mask-38" fill="white">
                        <use xlink:href="#path-37"></use>
                    </mask>
                    <g id="Clip-100"></g>
                    <path d="M181.32693,203.58723 C128.68244,203.58723 74.4713053,204.164765 21.826816,204.164765 C-73.6901223,125.347192 187.666764,73.8931754 92.0978401,-4.96590431 L112.62137,-4.96590431 C135.908386,7.56673256 166.370545,22.6051853 165.308392,53.4612298 C164.729466,70.2583786 155.008229,85.1343625 146.97415,99.3106627 C138.429669,114.385878 126.936209,131.721428 128.392977,149.967752 C130.62716,177.965767 168.724058,178.864682 181.32693,203.58723" id="Fill-99" fill="#2AA296" mask="url(#mask-38)"></path>
                </g>
                <g id="Group-104" transform="translate(146.984665, 326.420165)">
                    <mask id="mask-40" fill="white">
                        <use xlink:href="#path-39"></use>
                    </mask>
                    <g id="Clip-103"></g>
                    <polygon id="Fill-102" fill="#008373" mask="url(#mask-40)" points="0.128545277 11.8590432 0.128545277 138.256284 142.792536 127.138431 142.792536 -2.7000624e-12 116.061498 -5.04009337 12.2387391 8.89428242"></polygon>
                </g>
                <g id="Group-177" transform="translate(143.440218, 169.880794)">
                    <path d="M60.0395053,214.549896 L60.0395053,214.549896 C58.6583525,214.549896 57.5288554,213.416172 57.5288554,212.02985 L57.5288554,179.713957 C57.5288554,178.327635 58.6583525,177.19391 60.0395053,177.19391 C61.4206581,177.19391 62.5501552,178.327635 62.5501552,179.713957 L62.5501552,212.02985 C62.5501552,213.416172 61.4206581,214.549896 60.0395053,214.549896" id="Fill-105" fill="#2AA296"></path>
                    <path d="M131.556757,231.350129 L131.556757,231.350129 C129.926311,231.350129 128.591236,230.011243 128.591236,228.373509 L128.591236,190.205178 C128.591236,188.56863 129.926311,187.229744 131.556757,187.229744 C133.187203,187.229744 134.522278,188.56863 134.522278,190.205178 L134.522278,228.373509 C134.522278,230.011243 133.187203,231.350129 131.556757,231.350129" id="Fill-107" fill="#2AA296"></path>
                    <path d="M108.73678,210.796035 L108.73678,210.796035 C108.135406,210.796035 107.643909,210.302699 107.643909,209.699073 L107.643909,171.905489 C107.643909,171.301863 108.135406,170.807341 108.73678,170.807341 C109.338155,170.807341 109.829651,171.301863 109.829651,171.905489 L109.829651,209.699073 C109.829651,210.302699 109.338155,210.796035 108.73678,210.796035" id="Fill-109" fill="#2AA296"></path>
                    <path d="M77.6171267,205.655614 L77.6171267,205.655614 C76.8030854,205.655614 76.1367294,204.986764 76.1367294,204.169676 L76.1367294,185.121681 C76.1367294,184.304593 76.8030854,183.636928 77.6171267,183.636928 C78.431168,183.636928 79.0975241,184.304593 79.0975241,185.121681 L79.0975241,204.169676 C79.0975241,204.986764 78.431168,205.655614 77.6171267,205.655614" id="Fill-111" fill="#2AA296"></path>
                    <path d="M85.2056695,210.399231 L85.2056695,210.399231 C84.604295,210.399231 84.1127984,209.905895 84.1127984,209.30227 L84.1127984,195.227957 C84.1127984,194.624332 84.604295,194.12981 85.2056695,194.12981 C85.807044,194.12981 86.2985407,194.624332 86.2985407,195.227957 L86.2985407,209.30227 C86.2985407,209.905895 85.807044,210.399231 85.2056695,210.399231" id="Fill-113" fill="#2AA296"></path>
                    <path d="M86.3029122,191.745668 C86.3029122,192.359966 85.8066896,192.85686 85.1958632,192.85686 C84.5838554,192.85686 84.0876328,192.359966 84.0876328,191.745668 C84.0876328,191.131369 84.5838554,190.634476 85.1958632,190.634476 C85.8066896,190.634476 86.3029122,191.131369 86.3029122,191.745668" id="Fill-115" fill="#2AA296"></path>
                    <path d="M74.5834346,234.234959 L74.5834346,234.234959 C75.3974759,234.234959 76.0638319,234.90381 76.0638319,235.720898 L76.0638319,254.768893 C76.0638319,255.585981 75.3974759,256.253645 74.5834346,256.253645 C73.7693932,256.253645 73.1030372,255.585981 73.1030372,254.768893 L73.1030372,235.720898 C73.1030372,234.90381 73.7693932,234.234959 74.5834346,234.234959" id="Fill-117" fill="#2AA296"></path>
                    <path d="M66.9948917,229.491342 L66.9948917,229.491342 C67.5962662,229.491342 68.0877629,229.984678 68.0877629,230.588304 L68.0877629,244.662616 C68.0877629,245.266241 67.5962662,245.760764 66.9948917,245.760764 C66.3935172,245.760764 65.9020206,245.266241 65.9020206,244.662616 L65.9020206,230.588304 C65.9020206,229.984678 66.3935172,229.491342 66.9948917,229.491342" id="Fill-119" fill="#2AA296"></path>
                    <path d="M65.8976491,248.144906 C65.8976491,247.530607 66.3938717,247.033713 67.004698,247.033713 C67.6167059,247.033713 68.1129285,247.530607 68.1129285,248.144906 C68.1129285,248.759204 67.6167059,249.256098 67.004698,249.256098 C66.3938717,249.256098 65.8976491,248.759204 65.8976491,248.144906" id="Fill-121" fill="#2AA296"></path>
                    <path d="M16.8169831,243.111098 L16.8169831,243.111098 C15.4358302,243.111098 14.3063331,241.977373 14.3063331,240.591051 L14.3063331,196.414929 C14.3063331,195.029793 15.4358302,193.894882 16.8169831,193.894882 L16.8169831,193.894882 C18.1981359,193.894882 19.327633,195.029793 19.327633,196.414929 L19.327633,240.591051 C19.327633,241.977373 18.1981359,243.111098 16.8169831,243.111098" id="Fill-123" fill="#2AA296"></path>
                    <path d="M34.3944863,222.35706 L34.3944863,222.35706 C33.580445,222.35706 32.914089,221.68821 32.914089,220.871122 L32.914089,201.823127 C32.914089,201.006039 33.580445,200.338375 34.3944863,200.338375 C35.2085276,200.338375 35.8748837,201.006039 35.8748837,201.823127 L35.8748837,220.871122 C35.8748837,221.68821 35.2085276,222.35706 34.3944863,222.35706" id="Fill-125" fill="#2AA296"></path>
                    <path d="M35.8692126,225.500774 C35.8692126,226.313119 35.2134899,226.971296 34.4041745,226.971296 C33.5948591,226.971296 32.9379549,226.313119 32.9379549,225.500774 C32.9379549,224.68843 33.5948591,224.030253 34.4041745,224.030253 C35.2134899,224.030253 35.8692126,224.68843 35.8692126,225.500774" id="Fill-127" fill="#2AA296"></path>
                    <path d="M100.30844,266.828472 L100.30844,266.828472 C98.9272871,266.828472 97.79779,265.694748 97.79779,264.308426 L97.79779,231.992533 C97.79779,230.606211 98.9272871,229.472486 100.30844,229.472486 L100.30844,229.472486 C101.689593,229.472486 102.81909,230.606211 102.81909,231.992533 L102.81909,264.308426 C102.81909,265.694748 101.689593,266.828472 100.30844,266.828472" id="Fill-129" fill="#2AA296"></path>
                    <path d="M117.885943,257.93419 L117.885943,257.93419 C117.071902,257.93419 116.405546,257.26534 116.405546,256.448252 L116.405546,237.400257 C116.405546,236.583169 117.071902,235.915504 117.885943,235.915504 L117.885943,235.915504 C118.699984,235.915504 119.36634,236.583169 119.36634,237.400257 L119.36634,256.448252 C119.36634,257.26534 118.699984,257.93419 117.885943,257.93419" id="Fill-131" fill="#2AA296"></path>
                    <path d="M119.360669,261.077904 C119.360669,261.890248 118.704947,262.548425 117.895631,262.548425 C117.086316,262.548425 116.429412,261.890248 116.429412,261.077904 C116.429412,260.265559 117.086316,259.607382 117.895631,259.607382 C118.704947,259.607382 119.360669,260.265559 119.360669,261.077904" id="Fill-133" fill="#2AA296"></path>
                    <path d="M134.45895,182.02315 C134.45895,183.649025 133.146323,184.966564 131.526511,184.966564 C129.906699,184.966564 128.59289,183.649025 128.59289,182.02315 C128.59289,180.397275 129.906699,179.079735 131.526511,179.079735 C133.146323,179.079735 134.45895,180.397275 134.45895,182.02315" id="Fill-135" fill="#2AA296"></path>
                    <path d="M37.6290305,291.435987 L37.6290305,291.435987 C35.9985849,291.435987 34.6635099,290.097101 34.6635099,288.459367 L34.6635099,250.291037 C34.6635099,248.654489 35.9985849,247.315603 37.6290305,247.315603 C39.2594761,247.315603 40.5945511,248.654489 40.5945511,250.291037 L40.5945511,288.459367 C40.5945511,290.097101 39.2594761,291.435987 37.6290305,291.435987" id="Fill-137" fill="#2AA296"></path>
                    <path d="M40.5311055,242.109008 C40.5311055,243.734883 39.2184786,245.052423 37.5986664,245.052423 C35.9788541,245.052423 34.6650458,243.734883 34.6650458,242.109008 C34.6650458,240.483134 35.9788541,239.165594 37.5986664,239.165594 C39.2184786,239.165594 40.5311055,240.483134 40.5311055,242.109008" id="Fill-139" fill="#2AA296"></path>
                    <path d="M69.4767135,272.576906 C71.8467671,268.460633 76.2773258,265.691546 81.3517923,265.691546 C88.8282125,265.691546 94.906939,271.701709 95.0558058,279.169349 C95.1030651,279.166977 95.1515059,279.164605 95.1987651,279.164605 C101.237321,279.164605 106.132203,284.078992 106.132203,290.136592 C106.132203,296.198935 101.237321,301.112136 95.1987651,301.112136 L52.4881792,301.112136 C47.6523721,301.112136 43.7322137,297.17612 43.7322137,292.322213 C43.7322137,287.547763 47.5259534,283.666298 52.2518827,283.539406 C52.1160123,282.846838 52.0415789,282.131738 52.0415789,281.400035 C52.0415789,275.338878 56.9376416,270.426862 62.9750163,270.426862 C65.4112328,270.426862 67.6607752,271.224976 69.4767135,272.576906" id="Fill-141" fill="#FFFFFF"></path>
                    <path d="M17.2388904,271.088715 C18.8197138,268.344533 21.7734196,266.49808 25.1571849,266.49808 C30.1430403,266.49808 34.1955247,270.50525 34.2959507,275.484862 C34.3278507,275.483677 34.3597507,275.481305 34.3916508,275.481305 C38.4181425,275.481305 41.6813967,278.757958 41.6813967,282.798334 C41.6813967,286.839896 38.4181425,290.11655 34.3916508,290.11655 L5.91083791,290.11655 C2.68539117,290.11655 0.0719522734,287.492144 0.0719522734,284.255811 C0.0719522734,281.071658 2.60150593,278.484014 5.75251928,278.398629 C5.66154514,277.937313 5.61310436,277.460579 5.61310436,276.971986 C5.61310436,272.930425 8.87754002,269.654957 12.9040318,269.654957 C14.5273885,269.654957 16.027871,270.187428 17.2388904,271.088715" id="Fill-143" fill="#FFFFFF"></path>
                    <path d="M36.1504054,285.693601 C37.043606,284.143624 38.711859,283.100028 40.6234974,283.100028 C43.4389698,283.100028 45.7286825,285.36392 45.7853937,288.176885 C45.8031159,288.175699 45.8208382,288.174513 45.8385604,288.174513 C48.1129139,288.174513 49.9572078,290.02571 49.9572078,292.30739 C49.9572078,294.591441 48.1129139,296.441452 45.8385604,296.441452 L29.7514971,296.441452 C27.9296514,296.441452 26.4539799,294.959072 26.4539799,293.130407 C26.4539799,291.332576 27.8823921,289.870356 29.6628859,289.82292 C29.6109007,289.562021 29.5837266,289.292821 29.5837266,289.016505 C29.5837266,286.733639 31.426839,284.883629 33.7011925,284.883629 C34.6192043,284.883629 35.4663271,285.184848 36.1504054,285.693601" id="Fill-145" fill="#FFFFFF"></path>
                    <path d="M108.220827,286.879506 C109.114028,285.329529 110.782281,284.285933 112.693919,284.285933 C115.509391,284.285933 117.799104,286.549824 117.855815,289.362789 C117.873538,289.361603 117.89126,289.360417 117.908982,289.360417 C120.183336,289.360417 122.027629,291.211614 122.027629,293.493294 C122.027629,295.777346 120.183336,297.627356 117.908982,297.627356 L101.821919,297.627356 C100.000073,297.627356 98.5244016,296.144976 98.5244016,294.316312 C98.5244016,292.518481 99.9528137,291.056261 101.733308,291.008824 C101.681322,290.747925 101.654148,290.478725 101.654148,290.202409 C101.654148,287.919544 103.497261,286.069533 105.771614,286.069533 C106.689626,286.069533 107.536749,286.370753 108.220827,286.879506" id="Fill-147" fill="#FFFFFF"></path>
                    <path d="M128.755344,272.025698 C130.336168,269.281516 133.289873,267.435063 136.673639,267.435063 C141.659494,267.435063 145.711978,271.442233 145.812404,276.421845 C145.844305,276.42066 145.876205,276.418288 145.908105,276.418288 C149.934596,276.418288 153.19785,279.694941 153.19785,283.735317 C153.19785,287.776879 149.934596,291.053533 145.908105,291.053533 L117.427292,291.053533 C114.201845,291.053533 111.588406,288.429127 111.588406,285.192794 C111.588406,282.008641 114.11796,279.420998 117.268973,279.335612 C117.177999,278.874296 117.129558,278.397562 117.129558,277.908969 C117.129558,273.867408 120.393994,270.59194 124.420486,270.59194 C126.043842,270.59194 127.544325,271.124411 128.755344,272.025698" id="Fill-149" fill="#FFFFFF"></path>
                    <path d="M411.284393,109.943174 L392.676047,109.943174 C390.483216,109.943174 388.688544,108.141785 388.688544,105.940747 C388.688544,103.739708 390.483216,101.938319 392.676047,101.938319 L411.284393,101.938319 C413.477225,101.938319 415.271896,103.739708 415.271896,105.940747 C415.271896,108.141785 413.477225,109.943174 411.284393,109.943174" id="Fill-157" fill="#000000"></path>
                    <path d="M441.313893,40.7403199 C441.313893,62.9143589 423.406166,80.8891107 401.314809,80.8891107 C379.224634,80.8891107 361.315725,62.9143589 361.315725,40.7403199 C361.315725,18.5674668 379.224634,0.591529076 401.314809,0.591529076 C423.406166,0.591529076 441.313893,18.5674668 441.313893,40.7403199" id="Fill-159" fill="#008373"></path>
                    <path d="M405.15061,69.8281811 L404.338931,57.063107 L425.066857,28.4223317 L403.839164,49.1898882 L403.072382,37.1292412 L415.531113,19.9134682 L402.772286,32.397483 L401.404129,10.8733195 L400.291173,32.1282827 L387.806449,19.9134682 L400.045425,36.8256497 L399.40388,49.0973877 L378.270705,28.4223317 L398.986817,57.0476902 L398.31219,69.9503293 L383.215209,55.1798909 L398.014457,75.630811 L396.459626,105.349573 C396.459626,105.349573 401.933433,108.717542 407.408422,105.349573 L405.503873,75.3805851 L420.122354,55.1798909 L405.15061,69.8281811 Z" id="Fill-161" fill="#2AA296"></path>
                    <path d="M48.394343,307.514478 C48.394343,308.841505 47.321557,309.918306 45.9994783,309.918306 C44.6773996,309.918306 43.6046136,308.841505 43.6046136,307.514478 C43.6046136,306.187451 44.6773996,305.11065 45.9994783,305.11065 C47.321557,305.11065 48.394343,306.187451 48.394343,307.514478" id="Fill-163" fill="#2AA296"></path>
                    <path d="M103.812008,340.924367 C98.8190633,341.167478 93.7445967,341.293184 88.6051486,341.293184 C66.2574105,341.293184 45.1644066,338.929676 26.5513341,334.742248" id="Stroke-165" stroke="#2AA296" stroke-width="5.433" stroke-linecap="round"></path>
                    <path d="M115.830282,340.453326 C115.830282,342.263016 114.368788,343.72998 112.565846,343.72998 C110.764086,343.72998 109.302592,342.263016 109.302592,340.453326 C109.302592,338.643636 110.764086,337.176673 112.565846,337.176673 C114.368788,337.176673 115.830282,338.643636 115.830282,340.453326" id="Fill-167" fill="#2AA296"></path>
                    <path d="M20.0571983,302.109126 C20.0571983,303.113587 19.24552,303.928303 18.2448045,303.928303 C17.2440889,303.928303 16.4324106,303.113587 16.4324106,302.109126 C16.4324106,301.104665 17.2440889,300.289949 18.2448045,300.289949 C19.24552,300.289949 20.0571983,301.104665 20.0571983,302.109126" id="Fill-169" fill="#2AA296"></path>
                    <path d="M207.442303,314.031497 C207.442303,315.274324 206.438043,316.282343 205.19985,316.282343 C203.960475,316.282343 202.956215,315.274324 202.956215,314.031497 C202.956215,312.788669 203.960475,311.78065 205.19985,311.78065 C206.438043,311.78065 207.442303,312.788669 207.442303,314.031497" id="Fill-171" fill="#2AA296"></path>
                    <path d="M249.180529,302.332669 C249.180529,303.096391 248.563795,303.716619 247.801739,303.716619 C247.040865,303.716619 246.424131,303.096391 246.424131,302.332669 C246.424131,301.568947 247.040865,300.948719 247.801739,300.948719 C248.563795,300.948719 249.180529,301.568947 249.180529,302.332669" id="Fill-173" fill="#2AA296"></path>
                    <path d="M291.47866,301.640812 C291.47866,302.710498 290.613815,303.57858 289.548118,303.57858 C288.481239,303.57858 287.617575,302.710498 287.617575,301.640812 C287.617575,300.571127 288.481239,299.703045 289.548118,299.703045 C290.613815,299.703045 291.47866,300.571127 291.47866,301.640812" id="Fill-175" fill="#2AA296"></path>
                </g>
                <g id="Group-296" transform="translate(307.185404, 133.117760)">
                    <path d="M17.6786316,144.379938 C17.8204095,146.552514 18.8766547,148.591084 20.6193411,149.953688 L36.568171,158.28348 L42.248738,151.0969 L36.0648595,145.322732 L67.6671486,131.133386 L50.7825848,121.086405 L21.892979,136.984638 C19.5382848,138.1741 17.9586429,140.4878 17.6987168,143.11695 C17.6573649,143.539132 17.6514575,143.961313 17.6786316,144.379938" id="Fill-178" fill="#F7CAA7"></path>
                    <path d="M53.1729598,151.117653 C49.8778056,153.012728 46.0675251,151.156788 46.0675251,151.156788 L43.3985566,151.799548 L45.2192208,155.643064 C45.3149209,155.459249 45.3869913,155.332357 45.4330691,155.287293 C45.775699,155.014535 47.081237,154.865111 48.3702342,155.003862 C51.8166181,155.930053 54.128779,152.781477 53.1729598,151.117653" id="Fill-180" fill="#DEB695"></path>
                    <path d="M17.6786316,144.379938 C17.8204095,146.552514 18.8766547,148.591084 20.6193411,149.953688 L36.568171,158.28348 L42.248738,151.0969 L36.0648595,145.322732 L67.6671486,131.133386 L50.7825848,121.086405 L21.892979,136.984638 C19.5382848,138.1741 17.9586429,140.4878 17.6987168,143.11695 C17.6573649,143.539132 17.6514575,143.961313 17.6786316,144.379938" id="Fill-182" fill="#F7CAA7"></path>
                    <path d="M17.6988349,143.116712 C17.9552166,140.488748 19.5384029,138.175049 21.8930972,136.985587 L50.7827029,121.084982 L53.5001123,121.802454 C53.5001123,121.802454 21.8930972,136.985587 17.6988349,143.116712" id="Fill-184" fill="#F9D5B9"></path>
                    <polygon id="Fill-186" fill="#DEB695" points="67.6657309 131.135047 36.0646232 145.324392 34.5027036 143.602459 63.0378646 128.381377"></polygon>
                    <path d="M157.521597,144.379938 C157.379819,146.552514 156.323574,148.591084 154.580887,149.953688 L138.632057,158.28348 L132.95149,151.0969 L139.135369,145.322732 L107.53308,131.133386 L124.417643,121.086405 L153.307249,136.984638 C155.661943,138.1741 157.241585,140.4878 157.501511,143.11695 C157.542863,143.539132 157.548771,143.961313 157.521597,144.379938" id="Fill-188" fill="#F7CAA7"></path>
                    <path d="M122.027268,151.117653 C125.322423,153.012728 129.132703,151.156788 129.132703,151.156788 L131.801672,151.799548 L129.981007,155.643064 C129.885307,155.459249 129.813237,155.332357 129.767159,155.287293 C129.424529,155.014535 128.118991,154.865111 126.829994,155.003862 C123.38361,155.930053 121.071449,152.781477 122.027268,151.117653" id="Fill-190" fill="#DEB695"></path>
                    <path d="M157.521597,144.379938 C157.379819,146.552514 156.323574,148.591084 154.580887,149.953688 L138.632057,158.28348 L132.95149,151.0969 L139.135369,145.322732 L107.53308,131.133386 L124.417643,121.086405 L153.307249,136.984638 C155.661943,138.1741 157.241585,140.4878 157.501511,143.11695 C157.542863,143.539132 157.548771,143.961313 157.521597,144.379938" id="Fill-192" fill="#F7CAA7"></path>
                    <path d="M157.501393,143.116712 C157.245012,140.488748 155.661825,138.175049 153.307131,136.985587 L124.417525,121.084982 L121.700116,121.802454 C121.700116,121.802454 153.307131,136.985587 157.501393,143.116712" id="Fill-194" fill="#DEB695"></path>
                    <polygon id="Fill-196" fill="#F9D5B9" points="107.534497 131.135047 139.135605 145.324392 140.697525 143.602459 112.162364 128.381377"></polygon>
                    <path d="M0.256965864,192.691071 C7.54553031,218.586478 28.8145751,253.781746 85.9132527,253.781746 C143.007204,253.781746 164.279794,218.586478 171.567177,192.691071 L84.8865446,185.599363 L0.256965864,192.691071 Z" id="Fill-198" fill="#32135A"></path>
                    <path d="M84.8877261,185.599007 L171.568358,192.690715 C164.565712,217.572174 144.635287,251.017047 92.4433055,253.603505 C133.992494,246.157211 150.834525,216.745598 157.151911,194.298801 L70.4689158,187.208279 L84.8877261,185.599007 Z" id="Fill-200" fill="#220C3D"></path>
                    <path d="M79.9917815,227.73905 C79.9917815,235.015759 74.1150884,240.914447 66.8655129,240.914447 C59.6159374,240.914447 53.7392443,235.015759 53.7392443,227.73905 C53.7392443,220.462341 59.6159374,214.563653 66.8655129,214.563653 C74.1150884,214.563653 79.9917815,220.462341 79.9917815,227.73905" id="Fill-202" fill="#F7CAA7"></path>
                    <path d="M72.0602544,344.564026 C72.0602544,344.564026 70.7606238,348.870045 66.873547,348.870045 C62.9829257,348.870045 61.6856581,344.564026 61.6856581,344.564026 L53.739008,227.90899 L80.0045415,227.90899 L72.0602544,344.564026 Z" id="Fill-204" fill="#F7CAA7"></path>
                    <path d="M66.8723655,348.870282 C70.6684682,348.870282 72.0590729,344.564264 72.0590729,344.564264 L80.00336,227.909227 L77.6333065,233.344227 C77.6333065,233.344227 69.2719561,348.30342 66.8723655,348.870282" id="Fill-206" fill="#DEB695"></path>
                    <path d="M66.8723655,348.870282 C63.0762628,348.870282 61.6856581,344.564264 61.6856581,344.564264 L53.7401895,227.909227 L56.1114245,233.344227 C56.1114245,233.344227 64.4727749,348.30342 66.8723655,348.870282" id="Fill-208" fill="#F9D5B9"></path>
                    <path d="M115.447948,227.73905 C115.447948,235.015759 109.571255,240.914447 102.321679,240.914447 C95.0721037,240.914447 89.1954106,235.015759 89.1954106,227.73905 C89.1954106,220.462341 95.0721037,214.563653 102.321679,214.563653 C109.571255,214.563653 115.447948,220.462341 115.447948,227.73905" id="Fill-210" fill="#F7CAA7"></path>
                    <path d="M107.516421,344.564026 C107.516421,344.564026 106.21679,348.870045 102.329713,348.870045 C98.439092,348.870045 97.1418244,344.564026 97.1418244,344.564026 L89.1951743,227.90899 L115.460708,227.90899 L107.516421,344.564026 Z" id="Fill-212" fill="#F7CAA7"></path>
                    <path d="M102.328532,348.870282 C106.124635,348.870282 107.515239,344.564264 107.515239,344.564264 L115.459526,227.909227 L113.089473,233.344227 C113.089473,233.344227 104.728122,348.30342 102.328532,348.870282" id="Fill-214" fill="#DEB695"></path>
                    <path d="M102.328532,348.870282 C98.5324291,348.870282 97.1418244,344.564264 97.1418244,344.564264 L89.1963558,227.909227 L91.5675908,233.344227 C91.5675908,233.344227 99.9289412,348.30342 102.328532,348.870282" id="Fill-216" fill="#F9D5B9"></path>
                    <path d="M82.9147688,186.89105 L103.870721,187.151949 L84.8878442,185.598414 L0.25590253,192.692494 C0.860821478,194.833051 1.56971087,197.045949 2.37784478,199.292051 L82.9147688,186.89105 Z" id="Fill-218" fill="#8562AD"></path>
                    <path d="M116.083113,138.964387 L127.569484,120.612518 C127.569484,120.612518 117.434729,102.299783 91.7575732,102.299783 L80.0656241,102.299783 C54.3931948,102.299783 44.2548949,120.612518 44.2548949,120.612518 L55.7424476,138.964387 L69.1404571,191.408634 C69.1404571,191.408634 74.9108168,196.709626 85.9139616,196.709626 C96.9171065,196.709626 102.839877,191.408634 102.839877,191.408634 L116.083113,138.964387 Z" id="Fill-220" fill="#FFFFFF"></path>
                    <path d="M91.7585184,102.299309 L88.7776385,102.299309 C114.454794,102.299309 124.589549,120.612043 124.589549,120.612043 L113.100815,138.963913 L98.7611641,191.40816 C98.7611641,191.40816 94.4629314,196.218187 84.4250576,196.665273 C84.9118283,196.68662 85.3997805,196.710338 85.9137253,196.710338 C96.9156887,196.710338 102.840823,191.40816 102.840823,191.40816 L116.081695,138.963913 L127.571611,120.612043 C127.571611,120.612043 117.436855,102.299309 91.7585184,102.299309" id="Fill-222" fill="#DEDEDE"></path>
                    <path d="M51.4537849,136.029511 C51.4537849,136.029511 87.1640881,130.341914 87.1640881,143.504266 L79.9983978,143.504266 L51.4537849,136.029511 Z" id="Fill-224" fill="#EBF4EF"></path>
                    <path d="M122.872619,136.029511 C122.872619,136.029511 87.1634973,130.341914 87.1634973,143.504266 L94.3280061,143.504266 L122.872619,136.029511 Z" id="Fill-226" fill="#EBF4EF"></path>
                    <path d="M79.9988704,143.504266 C79.9988704,143.504266 86.4214083,146.056332 93.3803392,143.504266 L93.3803392,198.029775 C93.3803392,198.029775 87.3583238,202.462685 79.9988704,198.029775 L79.9988704,143.504266 Z" id="Fill-228" fill="#C53D42"></path>
                    <path d="M93.3799847,143.504266 L79.9985159,143.504266 C79.9985159,143.504266 86.4210538,147.362587 93.3799847,143.504266" id="Fill-230" fill="#900006"></path>
                    <path d="M79.9988704,145.788436 C79.9988704,145.788436 86.7179604,148.94057 93.3803392,145.788436 L93.3803392,152.498283 C93.3803392,152.498283 87.5839869,157.173118 79.9988704,152.498283 L79.9988704,145.788436 Z" id="Fill-232" fill="#AF0007"></path>
                    <path d="M79.9988704,188.279151 C79.9988704,188.279151 86.7179604,191.431285 93.3803392,188.279151 L93.3803392,194.987812 C93.3803392,194.987812 87.5839869,199.663832 79.9988704,194.987812 L79.9988704,188.279151 Z" id="Fill-234" fill="#AF0007"></path>
                    <polygon id="Fill-236" fill="#AF0007" points="49.2257455 135.446402 49.2257455 185.406179 79.9986341 198.030131 79.9986341 143.504622"></polygon>
                    <path d="M50.8278356,183.625307 L78.3953626,194.93409 L78.3953626,145.702458 L50.8278356,138.483859 L50.8278356,183.625307 Z M79.0026445,195.841307 L50.2205536,184.034444 L50.2205536,137.694046 L50.6021724,137.793662 L79.0026445,145.230468 L79.0026445,195.841307 Z" id="Fill-238" fill="#900006"></path>
                    <polygon id="Fill-240" fill="#AF0007" points="124.153228 135.446402 124.153228 185.406179 93.3803392 198.030131 93.3803392 143.504622"></polygon>
                    <path d="M122.549838,138.484096 L94.982311,145.702695 L94.982311,194.934327 L122.549838,183.625544 L122.549838,138.484096 Z M94.3750291,145.230705 L122.777864,137.793899 L123.15712,137.694284 L123.15712,184.034681 L94.3750291,195.841544 L94.3750291,145.230705 Z" id="Fill-242" fill="#900006"></path>
                    <path d="M127.091929,156.872965 C126.842636,156.200558 126.170372,155.742799 125.421313,155.80328 L117.762944,156.411649 C116.856747,156.482803 116.180939,157.279731 116.251828,158.189319 C116.321536,159.090606 117.115492,159.778431 118.021689,159.704905 L125.678876,159.097722 C126.586254,159.024196 127.262062,158.22964 127.189992,157.318865 C127.176995,157.163512 127.143914,157.014088 127.091929,156.872965" id="Fill-244" fill="#F7CAA7"></path>
                    <path d="M127.475674,161.007621 C127.226381,160.335213 126.557662,159.882198 125.810966,159.937935 L117.226315,160.584253 C116.320118,160.653035 115.641947,161.447591 115.710473,162.355994 C115.773092,163.257281 116.567048,163.949849 117.473245,163.878695 L126.056714,163.232377 C126.962911,163.163595 127.642263,162.371411 127.574919,161.461822 C127.563104,161.304097 127.528841,161.152301 127.475674,161.007621" id="Fill-246" fill="#F7CAA7"></path>
                    <path d="M127.781678,165.295376 C127.493396,164.639571 126.797503,164.219761 126.051988,164.321749 L118.443242,165.368903 C117.541771,165.493423 116.910859,166.325927 117.034915,167.229586 C117.154245,168.123758 117.984827,168.764147 118.887479,168.641998 L126.497407,167.598403 C127.400059,167.472697 128.028608,166.640192 127.905734,165.736533 C127.885649,165.581179 127.843115,165.432941 127.781678,165.295376" id="Fill-248" fill="#F7CAA7"></path>
                    <path d="M127.162581,171.469432 C129.748846,169.921826 140.514513,162.815888 138.94196,152.653874 C138.390208,150.081647 135.655076,150.427931 131.887329,151.342263 C128.118401,152.258967 124.25259,156.185497 124.25259,156.185497 L126.556481,171.413694 C126.556481,171.413694 126.812863,171.680523 127.162581,171.469432" id="Fill-250" fill="#F7CAA7"></path>
                    <path d="M122.812127,168.970375 L127.115086,168.11771 L127.115086,171.485678 L123.452491,172.212638 C122.558108,172.390523 121.6909,171.797571 121.519585,170.911701 C121.342363,170.017529 121.923652,169.147075 122.812127,168.970375" id="Fill-252" fill="#F7CAA7"></path>
                    <path d="M48.1082995,156.872965 C48.3575923,156.200558 49.0298558,155.742799 49.7789155,155.80328 L57.437284,156.411649 C58.3434809,156.482803 59.0192888,157.279731 58.9483998,158.189319 C58.8786924,159.090606 58.0847363,159.778431 57.1785393,159.704905 L49.5213524,159.097722 C48.6151555,159.024196 47.9381661,158.22964 48.0102365,157.318865 C48.0232328,157.163512 48.0563143,157.014088 48.1082995,156.872965" id="Fill-254" fill="#F7CAA7"></path>
                    <path d="M47.7245541,161.007621 C47.9738469,160.335213 48.6425658,159.882198 49.3892627,159.937935 L57.9739132,160.584253 C58.8801102,160.653035 59.558281,161.447591 59.489755,162.355994 C59.4271365,163.257281 58.6331804,163.949849 57.7269834,163.878695 L49.1435144,163.232377 C48.2373174,163.163595 47.5579651,162.371411 47.6253096,161.461822 C47.6371244,161.304097 47.6713874,161.152301 47.7245541,161.007621" id="Fill-256" fill="#F7CAA7"></path>
                    <path d="M47.4185502,165.295376 C47.7068318,164.639571 48.4027249,164.219761 49.1482403,164.321749 L56.7569864,165.368903 C57.6584574,165.493423 58.289369,166.325927 58.1653134,167.229586 C58.0459837,168.123758 57.2154016,168.764147 56.3127491,168.641998 L48.7028214,167.598403 C47.800169,167.472697 47.1716204,166.640192 47.2944945,165.736533 C47.3145797,165.581179 47.3571131,165.432941 47.4185502,165.295376" id="Fill-258" fill="#F7CAA7"></path>
                    <path d="M48.0375288,171.469432 C45.4512639,169.921826 34.685597,162.815888 36.25815,152.653874 C36.8099022,150.081647 39.5450338,150.427931 43.3127809,151.342263 C47.0817096,152.258967 50.9475197,156.185497 50.9475197,156.185497 L48.6436292,171.413694 C48.6436292,171.413694 48.3872475,171.680523 48.0375288,171.469432" id="Fill-260" fill="#F7CAA7"></path>
                    <path d="M52.3881011,168.970375 L48.0851425,168.11771 L48.0851425,171.485678 L51.7477377,172.212638 C52.6421198,172.390523 53.5093278,171.797571 53.6806428,170.911701 C53.8578651,170.017529 53.2765758,169.147075 52.3881011,168.970375" id="Fill-262" fill="#F7CAA7"></path>
                    <path d="M76.2753107,81.6911378 L76.2753107,104.881497 C76.2753107,110.223996 80.5912656,114.556104 85.915025,114.556104 C91.2364213,114.556104 95.5511948,110.223996 95.5511948,104.881497 L95.5511948,81.6911378 L76.2753107,81.6911378 Z" id="Fill-264" fill="#E3C4AC"></path>
                    <path d="M115.929993,57.9489775 C115.304988,74.5884011 101.361134,87.5704957 84.7813927,86.9443382 C68.2063772,86.3169948 55.2726902,72.320952 55.8965129,55.6815285 C56.521517,39.0432908 70.4653714,26.0611962 87.0427498,26.6861678 C103.62131,27.3123253 116.552634,41.3107399 115.929993,57.9489775" id="Fill-266" fill="#000000"></path>
                    <path d="M105.228598,20.1411618 C104.826894,30.8498779 95.8558991,39.2033879 85.1859322,38.8001804 C74.5171469,38.3957871 66.1947854,29.3900296 66.5953079,18.6801277 C66.9970119,7.97378348 75.9715516,-0.379726564 86.637974,0.0234809056 C97.3079408,0.425502471 105.630302,9.43125989 105.228598,20.1411618" id="Fill-268" fill="#000000"></path>
                    <path d="M116.259862,66.0213096 C116.238596,69.3987652 113.494012,72.1204156 110.131514,72.0966975 C106.767834,72.077723 104.057513,69.3228673 104.076417,65.9442259 C104.100046,62.5691422 106.845811,59.8486776 110.207129,59.868838 C113.573172,59.8925561 116.281129,62.6438541 116.259862,66.0213096" id="Fill-270" fill="#F9D5B9"></path>
                    <path d="M109.351381,61.285045 C112.71388,61.3063912 115.4242,64.0565034 115.404115,67.4375166 C115.398207,68.2818805 115.223348,69.0894813 114.907892,69.8164407 C115.746745,68.7787744 116.251238,67.4600488 116.259508,66.0227327 C116.283138,62.6452772 113.572817,59.8916074 110.207956,59.8678893 C107.689035,59.8512866 105.512745,61.3763596 104.574648,63.5631672 C105.699419,62.1626142 107.420839,61.2731859 109.351381,61.285045" id="Fill-272" fill="#E3C4AC"></path>
                    <path d="M55.5664067,65.6374324 C55.54514,69.0148879 58.2554605,71.766186 61.6191406,71.789904 C64.9816393,71.8100644 67.7262228,69.0895999 67.7451265,65.7145162 C67.7652117,62.3394325 65.0572542,59.5857627 61.6923925,59.5620446 C58.3322568,59.5395124 55.5841289,62.2647205 55.5664067,65.6374324" id="Fill-274" fill="#F9D5B9"></path>
                    <path d="M62.5359709,60.9871458 C59.1675648,60.9657995 56.4253444,63.6838922 56.4005332,67.0625336 C56.4005332,67.9092693 56.5635778,68.7204279 56.8707632,69.449759 C56.044907,68.4037914 55.5569548,67.0767645 55.5652252,65.6370766 C55.5841289,62.2619929 58.3322568,59.5403425 61.6923925,59.5640606 C64.2184017,59.5794774 66.3710625,61.1294543 67.2796224,63.3281209 C66.173755,61.914523 64.4641501,60.996633 62.5359709,60.9871458" id="Fill-276" fill="#E3C4AC"></path>
                    <path d="M110.439644,52.7929027 C110.453822,50.9962577 109.114021,49.5126913 107.47885,49.5032041 L64.5650487,49.231632 C62.9239697,49.219773 61.5711725,50.6855507 61.5617206,52.4845676 L61.3939501,79.2433127 C61.3963131,79.3832494 61.4093094,79.5362311 61.4152168,79.6809114 C61.403402,79.8659125 61.3880427,80.0461699 61.3856797,80.2323569 C61.3762279,82.1167589 62.138284,83.8066725 63.3481219,84.9356534 C63.3516663,84.9392112 63.3552108,84.9475125 63.3599367,84.9475125 L63.372933,84.9569997 C63.8975111,85.4396628 64.4941597,85.8132226 65.1498824,86.0610767 L79.6679372,95.0822508 C80.3035747,96.4211368 81.6091126,97.5180983 82.5732022,97.5263996 L88.8669585,97.5655345 C89.8310481,97.5762076 91.1495824,96.4922911 91.8029421,95.1581487 L106.433238,86.3219756 C107.092505,86.0859806 107.697424,85.7147926 108.225546,85.2416168 L108.231454,85.2345013 C108.237361,85.2345013 108.237361,85.2262 108.240906,85.2226423 C109.468466,84.1067063 110.254152,82.425094 110.268329,80.5418779 C110.268329,80.3568769 110.258877,80.1730617 110.242337,79.9892465 C110.254152,79.8421944 110.271874,79.6927704 110.274237,79.5540196 L110.439644,52.7929027 Z" id="Fill-278" fill="#F7CAA7"></path>
                    <path d="M79.6675827,95.0834367 L66.8024217,86.0610767 C66.146699,85.8144086 65.5476875,85.4384769 65.0254723,84.9569997 L65.014839,84.9486984 C65.0101131,84.9486984 65.0065686,84.9403971 65.0006612,84.9368394 C63.7908233,83.8054866 63.0287672,82.115573 63.040582,80.231171 C63.040582,80.0473558 63.0559413,79.8647266 63.0701191,79.6809114 C63.0642117,79.5350452 63.0488524,79.3844353 63.0464894,79.2421268 L63.2142599,52.4857535 C63.2237118,50.7199419 64.5257053,49.2861836 66.1230694,49.2411193 L64.5635127,49.231632 C62.9224338,49.2209589 61.570818,50.6843648 61.5613662,52.4857535 L61.3935957,79.2421268 C61.3959586,79.3844353 61.4089549,79.5350452 61.4148623,79.6809114 C61.4030475,79.8647266 61.3876883,80.0473558 61.3865068,80.231171 C61.3758734,82.115573 62.136748,83.8054866 63.3477674,84.9368394 C63.3513119,84.9403971 63.3572193,84.9486984 63.3595822,84.9486984 L63.37376,84.9569997 C63.8959752,85.4384769 64.4938053,85.8144086 65.149528,86.0610767 L79.6675827,95.0834367 C80.3044017,96.4199509 80.3044017,96.4199509 79.6675827,95.0834367" id="Fill-280" fill="#F9D5B9"></path>
                    <path d="M110.439644,52.7929027 C110.449096,51.4563885 108.783206,77.9459334 108.783206,77.9459334 C108.783206,78.0846842 108.765484,78.235294 108.751306,78.3811603 C108.766665,78.5649754 108.777299,78.7476047 108.777299,78.9349776 C108.765484,80.8170077 107.185842,82.9623087 106.749875,83.3619584 C106.315089,83.7592364 105.607382,84.1826042 104.943389,84.7138893 C104.280577,85.2439886 93.1013912,94.1691045 91.8029421,95.1581487 L106.433238,86.3219756 C107.092505,86.0859806 107.697424,85.7147926 108.225546,85.2416168 L108.231454,85.2345013 C108.237361,85.2345013 108.237361,85.2262 108.240906,85.2226423 C109.468466,84.1067063 110.254152,82.425094 110.268329,80.5418779 C110.268329,80.3568769 110.258877,80.1730617 110.242337,79.9892465 C110.254152,79.8421944 110.271874,79.6927704 110.274237,79.5540196 L110.439644,52.7929027 Z" id="Fill-282" fill="#E3C4AC"></path>
                    <path d="M77.4493497,69.7799148 C78.1818687,69.7834725 78.8753988,69.9554286 79.500403,70.2447893 C79.9446403,69.7478954 80.2270146,69.0992057 80.2281961,68.3781759 C80.2423739,66.8187117 78.9900026,65.55098 77.4351719,65.5355632 C75.8756152,65.5284478 74.6090662,66.7831346 74.6007958,68.3425988 C74.5948884,69.0778594 74.8772627,69.7443377 75.3333148,70.2459752 C75.9795857,69.9518709 76.690838,69.7739853 77.4493497,69.7799148" id="Fill-284" fill="#32135A"></path>
                    <path d="M94.4446184,69.7799148 C95.1771375,69.7834725 95.8706676,69.9554286 96.4956718,70.2447893 C96.9422721,69.7478954 97.2234649,69.0992057 97.2234649,68.3781759 C97.2376427,66.8187117 95.9852714,65.55098 94.4304407,65.5355632 C92.870884,65.5284478 91.6043349,66.7831346 91.5960646,68.3425988 C91.5901572,69.0778594 91.8725314,69.7443377 92.3285836,70.2459752 C92.9748544,69.9518709 93.6861068,69.7739853 94.4446184,69.7799148" id="Fill-286" fill="#32135A"></path>
                    <path d="M61.0970436,54.3435912 L61.0970436,63.5118175 C61.0970436,63.5118175 92.45004,62.6022289 94.8177306,42.2153477 C59.5918351,45.6580279 59.5918351,46.7597331 59.5918351,46.7597331" id="Fill-288" fill="#000000"></path>
                    <path d="M111.702176,55.4348604 L111.702176,59.9650149 C111.702176,59.9650149 93.8228043,59.8357513 92.6106034,49.4080946 C101.416191,44.3881616 109.55306,41.0747449 109.55306,41.0747449" id="Fill-290" fill="#000000"></path>
                    <path d="M77.8636955,80.397672 C77.8636955,80.397672 79.7009005,85.8978962 86.1470681,85.8978962 C92.5920542,85.8978962 94.4103555,80.397672 94.4103555,80.397672 L77.8636955,80.397672 Z" id="Fill-292" fill="#DEB695"></path>
                    <path d="M78.7555965,80.397672 C80.2324494,82.9604112 82.9841218,84.6847161 86.144587,84.6847161 C89.3015077,84.6799725 92.0437282,82.9556676 93.5170367,80.397672 L78.7555965,80.397672 Z" id="Fill-294" fill="#FFFFFF"></path>
                </g>
                <g id="Group-299" transform="translate(389.889166, 198.342498)">
                    <mask id="mask-42" fill="white">
                        <use xlink:href="#path-41"></use>
                    </mask>
                    <g id="Clip-298"></g>
                    <path d="M2.91293812,10.2881944 L2.93302332,0.372848319 C1.93585224,0.37047651 1.09227387,1.24093028 0.952858951,2.41141785 L0.0171249522,10.2822648 L2.91293812,10.2881944 Z" id="Fill-297" fill="#F9D5B9" mask="url(#mask-42)"></path>
                </g>
            </g>
        </g>
    </g>
</svg>