<svg width="404" height="199" viewBox="0 0 404 199" xmlns="http://www.w3.org/2000/svg"><g fill="none" fill-rule="evenodd"><path d="M230.682 81.15l4.07 3.134c.626.313 1.878.313 2.817-.314l4.38-4.702c1.566-1.568 2.818-1.568 3.757-.94h.313c.94.313 1.88.626 2.818.626 1.252.314 2.504.94 3.13 3.135l1.252 5.956c.313 1.254 1.565 1.88 2.19 1.88l5.322-.626c.626-.314 1.565-1.254 1.565-2.508v-5.957c0-2.194.94-3.135 1.88-3.762h.312c.625-.627 1.564-.94 2.503-1.567.94-.627 2.504-.94 4.382 0l5.008 3.135c1.252.628 2.505.314 2.818-.313l3.13-4.075c.627-.314.627-1.88-.312-2.822l-4.383-4.075c-1.565-1.567-1.565-2.82-1.252-4.075v-.314c.313-.94.626-1.88.94-2.508v-.313c.312-1.254.94-2.508 3.13-2.822l5.947-1.567c.94-.314 1.878-1.568 1.565-2.195l-.626-5.014c0-.94-.94-1.88-2.192-1.88l-6.26.312c-2.192 0-3.13-.94-3.444-2.194h-.313c-.312-.94-.938-1.88-1.25-2.508v-.314c-.94-.94-1.253-2.194 0-4.39l3.13-5.015c.625-.94.312-2.507-.314-2.82l-4.07-3.136c-.625-.312-2.19-.626-2.816.315l-4.382 4.702c-1.565 1.254-2.818 1.254-4.07.94l-2.817-.94c-1.564 0-2.503-.627-3.13-3.135l-1.25-5.643c-.314-1.255-1.566-1.882-2.505-1.882l-5.01.627c-.625 0-1.564 1.254-1.564 2.195v6.27c0 2.194-.938 3.134-1.877 3.76-1.252.315-2.19.942-2.817 1.57-1.252.626-2.504.94-4.382 0l-5.01-3.45c-1.25-.627-2.503 0-2.816.314l-3.13 4.075c-.626.626-.626 2.194.313 3.134l4.383 4.076c1.252 1.254 1.565 2.508 1.252 3.448-.313 1.254-.626 2.508-.94 4.075-.312.94-.938 2.195-3.13 2.508l-5.946 1.57c-1.253.312-1.88 1.253-1.566 2.193l.626 5.016c0 .626.94 1.88 2.19 1.88l6.26-.313c2.192 0 3.13.94 3.444 2.194.626.942.94 1.882 1.566 2.51v.312c.94.94 1.252 2.195 0 4.076l-3.13 5.33c-.627.94-.314 2.194.312 2.82zm15.338-15.676c-5.634-4.39-6.573-12.226-2.504-17.87 4.383-5.328 12.208-6.582 17.842-2.193 5.322 4.39 6.574 12.227 2.192 17.556-4.07 5.643-12.208 6.583-17.53 2.508z" fill="#4668C5"/><path d="M239.134 103.407c-1.565-.627-3.13-1.254-3.443-1.568 0-.314 0-2.51.94-4.076l2.19-5.643c.627-1.88 0-2.82-1.877-2.82l-6.26.313c-1.566.314-3.444.314-3.444 0-.314-.313-1.253-2.508-1.253-4.39V79.27c0-1.88-1.252-2.508-2.817-1.88l-5.32 2.82c-1.567.94-3.132 1.254-3.445 1.254-.626-.313-1.878-1.88-2.504-3.448l-2.503-5.643c-.626-1.567-2.19-1.88-3.13-.626l-4.07 4.702c-1.252 1.254-2.504 2.508-2.817 2.508-.313 0-2.504-.94-3.756-2.194l-4.382-4.39c-1.252-1.253-2.504-.94-3.13.628l-1.88 5.956c-.625 1.568-1.25 3.135-1.564 3.45-.313 0-2.504 0-4.07-.942l-5.946-2.194c-1.565-.627-2.818 0-2.505 1.88l.313 6.27c.314 1.568 0 3.45-.313 3.762 0 0-2.19.94-4.07.94h-6.26c-1.564 0-2.503 1.255-1.564 2.822l2.817 5.33c.626 1.567 1.252 3.135 1.252 3.762-.313.313-1.878 1.567-3.443 2.194l-5.95 2.508c-1.564.627-1.877 2.194-.312 3.135l4.696 4.076c1.252 1.254 2.19 2.508 2.19 2.822.314.313-.938 2.508-2.19 3.762l-4.383 4.39c-1.25 1.253-.625 2.506.94 3.133l5.948 1.88c1.565.628 3.13 1.255 3.13 1.57.313.312 0 2.507-.626 4.074l-2.504 5.957c-.626 1.567.313 2.82 2.19 2.508l5.948-.314c1.878 0 3.444 0 3.757.314.313.313.94 2.194.94 4.075v6.27c0 1.567 1.25 2.508 2.816 1.567l5.633-2.82c1.565-.628 3.13-1.255 3.443-1.255.313.312 1.88 1.88 2.505 3.447l2.505 5.957c.626 1.567 1.878 1.88 3.13.313l4.07-4.702c1.25-1.254 2.503-2.195 2.816-2.195.314 0 2.193.94 3.445 2.195l4.382 4.39c1.252 1.253 2.817.626 3.443-.942l1.878-5.956c.626-1.568 1.252-3.135 1.565-3.135.313-.314 2.505 0 4.07.627l5.634 2.507c1.878.627 3.13-.314 2.817-2.195l-.313-5.956c-.312-1.88 0-3.448 0-3.762.314-.313 2.505-.94 4.384-.94h5.947c1.88 0 2.818-1.254 1.88-2.822l-2.818-5.643c-.94-1.568-1.252-3.136-1.252-3.45.313-.313 1.878-1.88 3.443-2.507l5.634-2.194c1.878-.942 1.878-2.196.626-3.45l-4.695-4.075c-1.252-1.254-2.504-2.508-2.504-2.822 0-.313.94-2.194 2.19-3.448l4.383-4.39c1.252-1.253.94-2.82-.626-3.447l-5.946-1.88zm-40.067 22.258c-4.382-.627-7.512-4.703-6.573-9.092.626-4.702 4.695-7.524 9.39-6.897 4.383.627 7.2 5.016 6.574 9.405-.626 4.39-5.008 7.525-9.39 6.585z" fill="#002050"/><path d="M403.783 115.946v-7.21c0-1.254-.94-2.508-2.19-2.508l-10.33-1.567c-.314-2.507-.94-4.702-1.566-7.21l9.078-5.33c.94-.626 1.565-2.193.94-3.447l-2.506-6.27c-.627-1.254-1.88-1.88-3.13-1.568l-10.33 2.508c-.94-1.88-2.192-3.762-3.757-5.643l6.26-8.15c.94-1.254.627-2.822 0-3.762l-5.008-5.016c-.94-.627-2.504-.94-3.756 0l-8.14 6.27c-1.878-1.568-4.07-2.822-6.26-4.076l2.817-10.345c.313-1.253-.626-2.507-1.878-3.134l-6.26-2.508c-1.253-.627-2.818 0-3.444 1.254l-5.322 8.778c-2.19-.314-4.382-.94-6.573-1.254l-1.564-10.345c0-1.253-1.252-2.194-2.504-2.194h-7.2c-1.252 0-2.504.94-2.504 2.195l-1.565 10.346c-2.504.313-4.696.94-7.2 1.567l-5.32-9.09c-.627-.942-2.192-1.568-3.444-.942l-6.262 2.51c-1.252.627-1.878 1.88-1.565 3.134l2.504 10.346c-1.878.94-3.756 2.194-5.32 3.762l-8.453-6.27c-1.252-.94-2.817-.627-3.756 0l-4.695 5.016c-.94.94-1.252 2.508-.313 3.76l6.26 8.152c-1.565 2.195-2.817 4.076-4.07 6.27l-10.016-2.508c-1.252-.313-2.817.314-3.443 1.568l-2.503 6.27c-.626 1.253 0 2.82 1.252 3.448l9.077 5.33c-.626 2.194-1.252 4.388-1.565 6.583l-10.33 1.568c-1.252 0-2.19 1.254-2.19 2.508v7.21c0 1.254.938 2.508 2.19 2.508l10.33 1.568c.626 2.508.94 4.702 1.565 7.21l-9.078 5.33c-.94.626-1.566 2.194-.94 3.448l2.504 6.27c.626 1.254 2.19 1.88 3.443 1.567l10.017-2.508 3.756 5.642-6.26 8.15c-.94 1.255-.626 2.822.313 3.763l4.695 4.702c.94.94 2.504 1.254 3.756.314l8.452-6.27c1.878 1.568 3.756 2.822 5.947 4.076l-2.504 10.345c-.314 1.255.312 2.51 1.564 3.136l6.26 2.508c1.253.627 2.818 0 3.444-1.254l5.32-8.777c2.192.313 4.384.94 6.575 1.253l1.565 10.346c0 1.254 1.252 2.194 2.504 2.194h7.2c1.252 0 2.504-.94 2.504-2.194l1.565-10.346c2.505-.313 4.696-.94 7.2-1.567l5.322 9.09c.626.94 2.19 1.568 3.443.94l6.26-2.507c1.252-.627 1.878-1.88 1.565-3.135l-2.504-10.345 5.635-3.762 8.14 6.27c1.25.94 2.816.628 3.755-.313l5.01-4.702c.625-.94.938-2.508 0-3.762l-6.262-8.15c1.565-2.195 2.817-4.076 4.07-6.27l10.33 2.507c1.25.314 2.503-.313 3.13-1.567l2.504-6.27c.626-1.254 0-2.822-.94-3.45l-9.077-5.328c.313-2.194.94-4.39 1.252-6.583l10.33-1.568c1.252 0 2.19-1.254 2.19-2.508zm-25.042-3.762c0 5.643-1.564 11.286-1.564 11.286-.626 2.508-3.13 3.45-5.32 2.195l-17.217-10.973c-2.193-1.254-2.193-3.448 0-4.702l17.215-10.972c2.19-1.254 4.695-.314 5.32 2.194 0 0 1.566 5.643 1.566 10.972zm-12.52 31.663c-4.07 3.762-9.077 6.897-9.077 6.897-2.19 1.254-4.696 0-5.322-2.508l-4.694-19.75c-.626-2.508.94-4.075 3.443-3.762l20.033 5.016c2.504.627 3.443 2.82 2.19 5.016 0 0-2.816 5.33-6.573 9.09zm-44.762 6.27l10.956-17.556c1.252-2.193 3.443-2.193 4.695 0l10.955 17.557c1.252 2.194.313 4.702-2.19 5.33 0 0-5.635 1.567-10.957 1.567-5.634 0-11.268-1.568-11.268-1.568-2.505-.627-3.444-3.135-2.192-5.33zm13.46-26.96c-5.947 0-10.955-4.703-10.955-10.973 0-5.956 5.008-10.658 10.955-10.658 5.948 0 10.643 4.702 10.643 10.658 0 6.27-4.694 10.973-10.642 10.973zm-31.615 21.004c-3.756-3.76-6.573-8.777-6.573-8.777-1.252-2.508-.313-4.703 2.19-5.33l20.034-4.702c2.504-.626 3.756.942 3.443 3.45l-5.008 20.063c-.627 2.508-2.818 3.448-5.01 2.194 0 0-5.008-2.82-9.077-6.896zm-6.26-44.515l17.53 10.972c2.19 1.254 2.19 3.448 0 4.702l-17.53 10.658c-2.19 1.568-4.696.627-5.322-1.88 0 0-1.564-5.644-1.564-11.287 0-5.328 1.565-10.97 1.565-10.97.627-2.51 3.132-3.45 5.323-2.195zm5.947-18.183c3.756-4.075 9.078-6.897 9.078-6.897 2.19-1.254 4.382 0 5.008 2.508l4.695 19.75c.627 2.508-.938 4.076-3.442 3.45l-20.033-4.704c-2.504-.628-3.443-2.822-2.19-5.017 0 0 2.816-5.33 6.885-9.09zm44.45-6.27l-10.644 17.242c-1.565 2.195-3.756 2.195-5.008 0l-10.643-17.242c-1.565-2.194-.626-4.702 1.88-5.33 0 0 5.633-1.566 11.267-1.566 5.322 0 10.956 1.567 10.956 1.567 2.504.627 3.443 3.135 2.19 5.33zm18.154 5.957c4.07 3.76 6.887 8.777 6.887 8.777 1.253 2.194.314 4.702-2.19 5.33l-20.034 4.7c-2.504.628-4.07-.94-3.443-3.447l4.695-20.064c.626-2.508 2.818-3.448 5.01-2.194 0 0 5.32 2.82 9.076 6.897z" fill="#FCD116"/><path d="M161.505.58C124.568.58 94.518 29.424 92.64 65.79c-7.512-2.508-15.338-4.076-23.79-4.076-37.875 0-68.864 30.722-68.864 68.968 0 37.933 30.99 68.97 68.865 68.97h119.262V5.91c-8.14-3.448-17.217-5.33-26.607-5.33z" fill="#FFF"/></g></svg>