<?xml version="1.0" encoding="UTF-8"?>
<svg width="513px" height="608px" viewBox="0 0 513 608" version="1.1" xmlns="http://www.w3.org/2000/svg" xmlns:xlink="http://www.w3.org/1999/xlink">
    <!-- Generator: Sketch 42 (36781) - http://www.bohemiancoding.com/sketch -->
    <title>Group 4</title>
    <desc>Created with Sketch.</desc>
    <defs>
        <polygon id="path-1" points="123.228441 17.1823823 63.0625229 50.8593378 0.307786917 279.328354 759.419111 279.328354 708.786208 50.8593378 648.411514 9.84560561 549.602837 7.46498773 491.829808 17.1823823 255.73029 17.1823823 207.509549 0.335915941"></polygon>
        <path d="M479.567209,0.914294244 C476.968755,1.63646826 474.755734,2.460897 473.111224,3.27893482 C465.942191,5.85447577 444.226316,20.1254012 434.452405,20.1254012 L323.685703,20.1254012 L212.902942,20.1254012 C200.748989,20.1254012 179.033114,5.85447577 174.244123,3.27893482 C172.599613,2.460897 170.097518,1.63646826 167.229262,0.914294244 L106.848144,0.914294244 C89.8730816,5.90240768 44.1383756,27.4717643 32.1931988,34.5912497 C20.0424584,39.5442131 10.4773236,46.6732849 10.4773236,51.4217388 C8.09728168,56.3778976 0.912188812,73.224364 0.912188812,73.224364 C29.8131569,56.3778976 106.905959,32.2106318 138.186969,32.2106318 C167.07509,32.2106318 179.033114,61.1391334 200.748989,87.4984849 C229.63711,128.509022 237.011707,133.273453 258.727582,133.273453 L383.854834,133.273453 C405.570709,133.273453 412.945306,128.509022 444.226316,87.4984849 C463.340526,61.1391334 477.887368,32.2106318 506.775488,32.2106318 C535.676456,32.2106318 612.782106,56.3778976 641.667015,73.224364 L644.255832,70.648823 C641.667015,65.9035646 639.274125,53.8215294 636.878024,51.4217388 C636.878024,46.6732849 627.316101,39.5442131 615.162148,34.5912497 C600.840142,27.4717643 555.102224,5.90240768 538.111101,0.914294244 L479.567209,0.914294244 L479.567209,0.914294244 Z" id="path-3"></path>
        <path d="M0.284602672,43.5835107 C0.284602672,67.5590489 19.6075882,86.7733513 43.719565,86.7733513 C67.8315419,86.7733513 87.1513155,67.5590489 87.1513155,43.5835107 C87.1513155,19.4002676 67.8315419,0.18596523 43.719565,0.18596523 C19.6075882,0.18596523 0.284602672,19.4002676 0.284602672,43.5835107 L0.284602672,43.5835107 Z" id="path-5"></path>
        <path d="M34.6021482,4.76123576 C22.6601834,0.012781841 10.5094429,0.012781841 0.944308137,0.012781841 C10.5094429,2.38061788 17.6624165,7.33358125 22.6601834,12.0980125 C12.8894849,21.6077021 5.72045167,36.0735506 0.944308137,60.2408164 C0.944308137,60.2408164 15.2823745,38.457364 34.6021482,21.6077021 C51.5450918,38.457364 65.8831582,60.2408164 65.8831582,60.2408164 C61.1102266,36.0735506 53.9411934,21.6077021 44.167283,12.0980125 C51.5450918,7.33358125 56.3212353,2.38061788 65.8831582,0.012781841 C56.3212353,0.012781841 44.167283,0.012781841 34.6021482,4.76123576 L34.6021482,4.76123576 Z" id="path-7"></path>
        <path d="M576.07058,55.5470779 C544.78957,96.5608101 537.414974,101.309264 515.695886,101.309264 L390.571846,101.309264 C368.855971,101.309264 361.494222,96.5608101 332.593254,55.5470779 C310.877379,29.1909219 298.919354,0.259224896 270.050505,0.259224896 C238.750224,0.259224896 161.657421,24.4264907 132.772513,41.2729571 C132.772513,41.2729571 115.829569,46.0373883 106.074931,67.6291131 C95.2314467,93.8606462 14.9491954,295.99907 0.0586766176,405.280615 L0.0586766176,469.384742 C14.3581998,564.635021 88.7786744,575.090567 98.6168235,575.28549 L98.9765599,575.28549 C109.206565,574.700721 202.596712,476.520205 233.771729,447.866513 C265.25509,418.950794 289.354219,418.950794 308.500549,418.950794 L455.529968,418.950794 L600.166498,418.950794 C619.296767,418.950794 645.801634,418.950794 677.27536,447.866513 C708.463224,476.520205 802.030027,574.700721 812.115495,575.28549 L812.47202,575.28549 C822.300533,575.090567 896.534716,564.654194 910.975564,469.761807 L910.975564,404.855618 C895.937296,295.481405 815.844549,93.8286916 804.985005,67.6291131 C795.230367,46.0373883 778.496199,41.2729571 778.496199,41.2729571 C778.496199,41.2729571 776.100097,41.2729571 776.100097,38.7006116 L773.511279,41.2729571 C744.626371,24.4264907 667.520721,0.259224896 638.616541,0.259224896 C609.731632,0.259224896 595.18479,29.1909219 576.07058,55.5470779 L576.07058,55.5470779 Z" id="path-9"></path>
        <path d="M0.300662334,87.4725286 C0.300662334,135.63131 38.9594812,174.056719 84.7712735,174.056719 C132.786452,174.056719 171.44527,135.63131 171.44527,87.4725286 C171.44527,39.3265292 132.786452,0.885142486 84.7712735,0.885142486 C38.9594812,0.885142486 0.300662334,39.3265292 0.300662334,87.4725286 L0.300662334,87.4725286 Z" id="path-11"></path>
        <path d="M0.425927699,74.6906876 C0.425927699,115.512692 34.1030393,149.189648 75.1386881,149.189648 C118.380935,149.189648 152.24755,115.512692 152.24755,74.6906876 C152.24755,33.6769555 118.380935,0 75.1386881,0 C34.1030393,0 0.425927699,33.6769555 0.425927699,74.6906876 L0.425927699,74.6906876 Z" id="path-13"></path>
        <path d="M0.113279469,74.6906876 C0.113279469,115.512692 33.983107,149.189648 74.8260399,149.189648 C115.864901,149.189648 149.5388,115.512692 149.5388,74.6906876 C149.5388,33.6769555 115.864901,0 74.8260399,0 C33.983107,0 0.113279469,33.6769555 0.113279469,74.6906876 L0.113279469,74.6906876 Z" id="path-15"></path>
        <path d="M0.110067537,55.5179262 C0.110067537,96.3431262 33.9734712,130.020082 74.8196161,130.020082 C98.9315929,130.020082 118.254578,120.510392 132.798208,106.044543 L26.804438,0.0415409831 C9.88076601,12.1235761 0.110067537,33.7184964 0.110067537,55.5179262 L0.110067537,55.5179262 Z" id="path-17"></path>
        <path d="M0.425927699,53.4380742 C0.425927699,94.2600787 34.1030393,127.94023 75.1386881,127.94023 C96.6618474,127.94023 115.984833,120.811158 130.531675,106.345309 L24.5379045,0.530839016 C9.9910625,12.424342 0.425927699,31.635449 0.425927699,53.4380742 L0.425927699,53.4380742 Z" id="path-19"></path>
        <path d="M0.92182461,87.118461 C0.92182461,135.25807 39.3686559,173.702652 87.5926095,173.702652 C135.800503,173.702652 174.250547,135.25807 174.250547,87.118461 C174.250547,38.9596798 135.800503,0.534270396 87.5926095,0.534270396 C39.3686559,0.534270396 0.92182461,38.9596798 0.92182461,87.118461 L0.92182461,87.118461 Z" id="path-21"></path>
        <path d="M0.0256954595,74.7158988 C0.0256954595,115.537903 33.6995951,149.214859 74.7384559,149.214859 C115.584601,149.214859 149.451216,115.537903 149.451216,74.7158988 C149.451216,33.7053621 115.584601,0.00923391593 74.7384559,0.00923391593 C33.6995951,0.00923391593 0.0256954595,33.7053621 0.0256954595,74.7158988 L0.0256954595,74.7158988 Z" id="path-23"></path>
        <path d="M0.028907392,55.5463329 C0.028907392,96.3683374 33.7028071,130.048488 74.7416678,130.048488 C96.4575431,130.048488 115.584601,120.535603 127.738553,108.453568 L21.7447826,0.258479815 C7.19794059,14.5166234 0.028907392,33.9514126 0.028907392,55.5463329 L0.028907392,55.5463329 Z" id="path-25"></path>
        <path d="M0.157384689,22.0934121 C0.157384689,34.1786427 12.1025614,43.88006 24.2533018,43.88006 C36.2145382,43.88006 45.779673,34.1786427 45.779673,22.0934121 C45.779673,10.2031045 36.2145382,0.498491797 24.2533018,0.498491797 C12.1025614,0.498491797 0.157384689,10.2031045 0.157384689,22.0934121 L0.157384689,22.0934121 Z" id="path-27"></path>
        <path d="M0.950732002,21.9460685 C0.950732002,34.0312991 10.5158668,46.1293115 22.6666072,46.1293115 C34.6246317,46.1293115 44.1897665,34.0312991 44.1897665,21.9460685 C44.1897665,9.86403329 34.6246317,0.354343622 22.6666072,0.354343622 C10.5158668,0.354343622 0.950732002,9.86403329 0.950732002,21.9460685 L0.950732002,21.9460685 Z" id="path-29"></path>
        <path d="M50.6842939,0.920292549 C45.8953026,0.920292549 43.5152607,5.68791922 43.5152607,8.0685371 L43.5152607,46.5067283 L4.85965378,46.5067283 C2.46355218,46.5067283 0.0867221758,49.0822693 0.0867221758,53.843505 L0.0867221758,85.1398426 C0.0867221758,87.5204605 2.46355218,89.9042738 4.85965378,89.9042738 L43.5152607,89.9042738 L43.5152607,128.34566 C43.5152607,133.298624 45.8953026,135.663264 50.6842939,135.663264 L81.9653039,135.663264 C84.3453458,135.663264 89.137549,133.298624 89.137549,128.34566 L89.137549,89.9042738 L125.400266,89.9042738 C130.17641,89.9042738 132.569299,87.5204605 132.569299,85.1398426 L132.569299,53.843505 C132.569299,49.0822693 130.17641,46.5067283 125.400266,46.5067283 L89.137549,46.5067283 L89.137549,8.0685371 C89.137549,5.68791922 84.3453458,0.920292549 81.9653039,0.920292549 L50.6842939,0.920292549 L50.6842939,0.920292549 Z" id="path-31"></path>
        <path d="M0.29423847,51.2236202 C0.29423847,80.1553172 22.0133256,101.750238 50.9142937,101.750238 C79.7863544,101.750238 101.515077,80.1553172 101.515077,51.2236202 C101.515077,22.2919232 79.7863544,0.697002948 50.9142937,0.697002948 C22.0133256,0.697002948 0.29423847,22.2919232 0.29423847,51.2236202 L0.29423847,51.2236202 Z" id="path-33"></path>
        <path d="M0.303874267,36.363985 C0.303874267,65.2924866 22.0197495,86.8874069 50.9078698,86.8874069 C65.2459362,86.8874069 77.4127363,82.138953 86.9585995,70.0537223 L14.6419407,0.303216258 C5.0800178,7.43228805 0.303874267,21.9141138 0.303874267,36.363985 L0.303874267,36.363985 Z" id="path-35"></path>
        <path d="M7.58211317,0.920292549 C2.79312191,0.920292549 0.41307997,5.68791922 0.41307997,8.0685371 L0.41307997,46.5067283 L46.0353683,89.9042738 L82.2980856,89.9042738 C87.0742291,89.9042738 89.4671188,87.5204605 89.4671188,85.1398426 L89.4671188,53.843505 C89.4671188,49.0822693 87.0742291,46.5067283 82.2980856,46.5067283 L46.0353683,46.5067283 L46.0353683,8.0685371 C46.0353683,5.68791922 41.2431651,0.920292549 38.8631232,0.920292549 L7.58211317,0.920292549 L7.58211317,0.920292549 Z" id="path-37"></path>
        <path d="M0.236423686,41.6340441 C0.236423686,65.6095822 17.1665196,82.4560486 41.2752845,82.4560486 C62.9911597,82.4560486 82.1182173,65.6095822 82.1182173,41.6340441 C82.1182173,17.4667783 62.9911597,0.620311903 41.2752845,0.620311903 C17.1665196,0.620311903 0.236423686,17.4667783 0.236423686,41.6340441 L0.236423686,41.6340441 Z M2.61646562,41.6340441 C2.61646562,20.0391238 19.5594092,3.19265739 41.2752845,3.19265739 C62.9911597,3.19265739 79.7253277,20.0391238 79.7253277,41.6340441 C79.7253277,63.2289644 62.9911597,80.0754307 41.2752845,80.0754307 C19.5594092,80.0754307 2.61646562,63.2289644 2.61646562,41.6340441 L2.61646562,41.6340441 Z" id="path-39"></path>
    </defs>
    <g id="Homepage" stroke="none" stroke-width="1" fill="none" fill-rule="evenodd">
        <g id="3.5_Desktop_Bronze_Accreditation_Detail" transform="translate(-887.000000, -280.000000)">
            <g id="Group-4" transform="translate(887.000000, 280.000000)">
                <g id="Group-5" transform="translate(69.703566, 22.368222)">
                    <mask id="mask-2" fill="white">
                        <use xlink:href="#path-1"></use>
                    </mask>
                    <g id="Clip-4"></g>
                    <polygon id="Fill-3" fill="#424242" mask="url(#mask-2)" points="-44.6496314 324.058406 804.37653 324.058406 804.37653 -44.390941 -44.6496314 -44.390941"></polygon>
                </g>
                <g id="Group-8" transform="translate(131.847476, 0.000000)">
                    <mask id="mask-4" fill="white">
                        <use xlink:href="#path-3"></use>
                    </mask>
                    <g id="Clip-7"></g>
                    <polygon id="Fill-6" fill="#000000" mask="url(#mask-4)" points="-44.0452295 178.00031 689.213251 178.00031 689.213251 -46.2123534 -44.0452295 -46.2123534"></polygon>
                </g>
                <g id="Group-11" transform="translate(409.420725, 34.405284)">
                    <mask id="mask-6" fill="white">
                        <use xlink:href="#path-5"></use>
                    </mask>
                    <g id="Clip-10"></g>
                    <polygon id="Fill-9" fill="#FFFFFF" mask="url(#mask-6)" points="-44.6728157 131.497013 132.108734 131.497013 132.108734 -44.5408917 -44.6728157 -44.5408917"></polygon>
                </g>
                <g id="Group-14" transform="translate(420.921396, 49.044316)">
                    <mask id="mask-8" fill="white">
                        <use xlink:href="#path-7"></use>
                    </mask>
                    <g id="Clip-13"></g>
                    <polygon id="Fill-12" fill="#000000" mask="url(#mask-8)" points="-44.0131102 104.967673 110.843788 104.967673 110.843788 -44.7140751 -44.0131102 -44.7140751"></polygon>
                </g>
                <g id="Group-17" transform="translate(0.000000, 31.954602)">
                    <mask id="mask-10" fill="white">
                        <use xlink:href="#path-9"></use>
                    </mask>
                    <g id="Clip-16"></g>
                    <polygon id="Fill-15" fill="#424242" mask="url(#mask-10)" points="-47.2723598 620.015543 958.364415 620.015543 958.364415 -44.4676321 -47.2723598 -44.4676321"></polygon>
                </g>
                <g id="Group-20" transform="translate(486.507104, 240.771931)">
                    <mask id="mask-12" fill="white">
                        <use xlink:href="#path-11"></use>
                    </mask>
                    <g id="Clip-19"></g>
                    <polygon id="Fill-18" fill="#868686" mask="url(#mask-12)" points="-44.656756 218.780381 216.402689 218.780381 216.402689 -43.8417145 -44.656756 -43.8417145"></polygon>
                </g>
                <g id="Group-23" transform="translate(496.142901, 253.553772)">
                    <mask id="mask-14" fill="white">
                        <use xlink:href="#path-13"></use>
                    </mask>
                    <g id="Clip-22"></g>
                    <polygon id="Fill-21" fill="#424242" mask="url(#mask-14)" points="-44.5314906 193.916505 197.204969 193.916505 197.204969 -44.7300524 -44.5314906 -44.7300524"></polygon>
                </g>
                <g id="Group-26" transform="translate(260.166528, 253.553772)">
                    <mask id="mask-16" fill="white">
                        <use xlink:href="#path-15"></use>
                    </mask>
                    <g id="Clip-25"></g>
                    <polygon id="Fill-24" fill="#868686" mask="url(#mask-16)" points="-44.8441389 193.916505 194.499431 193.916505 194.499431 -44.7300524 -44.8441389 -44.7300524"></polygon>
                </g>
                <g id="Group-29" transform="translate(260.166528, 272.726533)">
                    <mask id="mask-18" fill="white">
                        <use xlink:href="#path-17"></use>
                    </mask>
                    <g id="Clip-28"></g>
                    <polygon id="Fill-27" fill="#000000" mask="url(#mask-18)" points="-44.8505627 174.746939 177.758839 174.746939 177.758839 -44.685316 -44.8505627 -44.685316"></polygon>
                </g>
                <g id="Group-32" transform="translate(496.142901, 274.809580)">
                    <mask id="mask-20" fill="white">
                        <use xlink:href="#path-19"></use>
                    </mask>
                    <g id="Clip-31"></g>
                    <polygon id="Fill-30" fill="#636363" mask="url(#mask-20)" points="-44.5314906 172.663891 175.489093 172.663891 175.489093 -44.1960179 -44.5314906 -44.1960179"></polygon>
                </g>
                <g id="Group-35" transform="translate(131.847476, 91.923569)">
                    <mask id="mask-22" fill="white">
                        <use xlink:href="#path-21"></use>
                    </mask>
                    <g id="Clip-34"></g>
                    <polygon id="Fill-33" fill="#868686" mask="url(#mask-22)" points="-44.0388057 218.429509 219.207965 218.429509 219.207965 -44.1925866 -44.0388057 -44.1925866"></polygon>
                </g>
                <g id="Group-38" transform="translate(144.695206, 104.326131)">
                    <mask id="mask-24" fill="white">
                        <use xlink:href="#path-23"></use>
                    </mask>
                    <g id="Clip-37"></g>
                    <polygon id="Fill-36" fill="#424242" mask="url(#mask-24)" points="-44.9317229 193.944911 194.411847 193.944911 194.411847 -44.717623 -44.9317229 -44.717623"></polygon>
                </g>
                <g id="Group-41" transform="translate(144.695206, 123.498892)">
                    <mask id="mask-26" fill="white">
                        <use xlink:href="#path-25"></use>
                    </mask>
                    <g id="Clip-40"></g>
                    <polygon id="Fill-39" fill="#636363" mask="url(#mask-26)" points="-44.9285109 174.775345 172.699183 174.775345 172.699183 -44.4683771 -44.9285109 -44.4683771"></polygon>
                </g>
                <g id="Group-59" transform="translate(366.318544, 164.080885)">
                    <mask id="mask-28" fill="white">
                        <use xlink:href="#path-27"></use>
                    </mask>
                    <g id="Clip-58"></g>
                    <polygon id="Fill-57" fill="#000000" mask="url(#mask-28)" points="-44.8000336 88.6101124 90.7370914 88.6101124 90.7370914 -44.2251697 -44.8000336 -44.2251697"></polygon>
                </g>
                <g id="Group-62" transform="translate(498.007774, 161.844415)">
                    <mask id="mask-30" fill="white">
                        <use xlink:href="#path-29"></use>
                    </mask>
                    <g id="Clip-61"></g>
                    <polygon id="Fill-60" fill="#000000" mask="url(#mask-30)" points="-44.0066863 90.859364 89.1503968 90.859364 89.1503968 -44.3725133 -44.0066863 -44.3725133"></polygon>
                </g>
                <g id="Group-77" transform="translate(269.960571, 259.944692)">
                    <mask id="mask-32" fill="white">
                        <use xlink:href="#path-31"></use>
                    </mask>
                    <g id="Clip-76"></g>
                    <polygon id="Fill-75" fill="#868686" mask="url(#mask-32)" points="-44.8739081 180.390121 177.526718 180.390121 177.526718 -43.8065644 -44.8739081 -43.8065644"></polygon>
                </g>
                <g id="Group-83" transform="translate(168.525792, 127.818410)">
                    <mask id="mask-34" fill="white">
                        <use xlink:href="#path-33"></use>
                    </mask>
                    <g id="Clip-82"></g>
                    <polygon id="Fill-81" fill="#636363" mask="url(#mask-34)" points="-44.6631799 146.473899 146.472496 146.473899 146.472496 -44.029854 -44.6631799 -44.029854"></polygon>
                </g>
                <g id="Group-86" transform="translate(168.525792, 142.671654)">
                    <mask id="mask-36" fill="white">
                        <use xlink:href="#path-35"></use>
                    </mask>
                    <g id="Clip-85"></g>
                    <polygon id="Fill-84" fill="#868686" mask="url(#mask-36)" points="-44.6535441 131.614264 131.91923 131.614264 131.91923 -44.4236407 -44.6535441 -44.4236407"></polygon>
                </g>
                <g id="Group-89" transform="translate(313.062752, 259.944692)">
                    <mask id="mask-38" fill="white">
                        <use xlink:href="#path-37"></use>
                    </mask>
                    <g id="Clip-88"></g>
                    <polygon id="Fill-87" fill="#636363" mask="url(#mask-38)" points="-44.5443384 134.627935 134.424537 134.627935 134.424537 -43.8065644 -44.5443384 -43.8065644"></polygon>
                </g>
                <g id="Group-95" transform="translate(178.161590, 137.404790)">
                    <mask id="mask-40" fill="white">
                        <use xlink:href="#path-39"></use>
                    </mask>
                    <g id="Clip-94"></g>
                    <polygon id="Fill-93" fill="#000000" mask="url(#mask-40)" points="-44.7209947 127.182906 127.078848 127.182906 127.078848 -44.1065451 -44.7209947 -44.1065451"></polygon>
                </g>
            </g>
        </g>
    </g>
</svg>