<?xml version="1.0" encoding="UTF-8"?>
<svg width="541px" height="368px" viewBox="0 0 541 368" version="1.1" xmlns="http://www.w3.org/2000/svg" xmlns:xlink="http://www.w3.org/1999/xlink">
    <!-- Generator: Sketch 41.2 (35397) - http://www.bohemiancoding.com/sketch -->
    <title>Page 1</title>
    <desc>Created with Sketch.</desc>
    <defs></defs>
    <g id="Page-1" stroke="none" stroke-width="1" fill="none" fill-rule="evenodd">
        <g id="9.1h_Desktop_Contact-Us_Thank-you" transform="translate(-760.000000, -754.000000)">
            <g id="Page-1" transform="translate(760.000000, 753.000000)">
                <g id="Group-70" transform="translate(0.000000, 0.582799)">
                    <path d="M359.762963,27.4078304 C359.272475,26.4255329 358.779641,25.6876347 358.042736,24.9497366 L358.042736,23.9674391 C358.042736,16.3487582 353.12378,9.95912433 346.238181,8.23657866 C344.762024,7.7454299 343.285868,7.50103052 341.814406,7.50103052 C338.122842,7.50103052 334.680042,8.73007742 331.976494,10.6946725 C330.256267,7.99217928 328.040859,5.53408547 325.337311,3.8138898 C323.861155,2.83159227 322.631416,2.09369413 321.157607,1.60254536 C318.942199,0.86464722 316.729138,0.620247835 314.26966,0.620247835 C303.204356,0.620247835 294.105695,9.22122619 293.861625,20.2802983 L293.861625,20.5270477 L293.612861,20.5270477 C284.516547,20.5270477 277.138113,27.8989792 277.138113,36.9934563 C277.138113,40.678247 278.367852,44.1209883 280.580913,46.8234815 C283.533225,50.7573716 288.205764,53.2131155 293.612861,53.2131155 L357.552249,53.2131155 C360.00938,53.2131155 362.468858,52.4752173 364.681919,51.2485204 C368.124719,48.7904266 370.584197,44.8565365 370.584197,40.1870982 C370.584197,33.7974643 365.911658,28.3901279 359.762963,27.4078304 Z" id="Fill-1" fill="#FFB900"></path>
                    <path d="M247.875957,350.594997 L43.2793032,350.594997 C39.5900862,350.594997 36.8865378,353.54424 36.8865378,357.23138 C36.8865378,360.918521 39.5900862,363.865414 43.2793032,363.865414 L247.875957,363.865414 C251.562827,363.865414 254.51514,360.918521 254.51514,357.23138 C254.51514,353.54424 251.562827,350.594997 247.875957,350.594997" id="Fill-3" fill-opacity="0.2" fill="#002050"></path>
                    <path d="M285.991295,322.085339 L6.39229601,322.085339 C2.70542582,322.085339 0.00187746413,325.036931 0.00187746413,328.477323 C0.00187746413,332.162113 2.70542582,335.111356 6.39229601,335.111356 L285.991295,335.111356 C289.678165,335.111356 292.630478,332.162113 292.630478,328.477323 C292.630478,325.036931 289.678165,322.085339 285.991295,322.085339" id="Fill-5" fill-opacity="0.2" fill="#002050"></path>
                    <polygon id="Fill-7" fill="#FFB900" opacity="0.300894475" points="447.306065 84.4262069 404.27224 84.4262069 315.254625 316.434073 536.326026 316.434073"></polygon>
                    <polygon id="Fill-9" fill-opacity="0.502094656" fill="#EDAD04" points="536.325088 316.432898 315.256033 316.432898 310.827564 328.476618 540.997627 328.476618"></polygon>
                    <polygon id="Fill-11" fill="#FFB900" points="59.5109194 328.477088 73.0357016 328.477088 73.0357016 225.006848 59.5109194 225.006848"></polygon>
                    <polygon id="Fill-13" fill="#FFB900" points="226.727262 328.477088 240.005628 328.477088 240.005628 225.006848 226.727262 225.006848"></polygon>
                    <path d="M263.368557,287.92324 C263.368557,289.890185 261.8924,291.61038 259.67934,291.61038 L40.0817471,291.61038 C37.8686863,291.61038 36.1484597,289.890185 36.1484597,287.92324 L36.1484597,281.533606 C36.1484597,279.566661 37.8686863,277.848815 40.0817471,277.848815 L259.67934,277.848815 C261.8924,277.848815 263.368557,279.566661 263.368557,281.533606 L263.368557,287.92324 Z" id="Fill-14" fill="#FF8C00"></path>
                    <path d="M260.661957,267.280422 C260.661957,269.245017 258.941731,270.965212 256.975087,270.965212 L42.7869382,270.965212 C40.5762242,270.965212 39.100068,269.245017 39.100068,267.280422 L39.100068,261.135187 C39.100068,258.923843 40.5762242,257.203647 42.7869382,257.203647 L256.975087,257.203647 C258.941731,257.203647 260.661957,258.923843 260.661957,261.135187 L260.661957,267.280422 Z" id="Fill-15" fill="#FFB900"></path>
                    <path d="M260.661957,246.635489 C260.661957,248.846833 258.941731,250.320279 256.975087,250.320279 L42.7869382,250.320279 C40.5762242,250.320279 39.100068,248.846833 39.100068,246.635489 L39.100068,240.490254 C39.100068,238.27891 40.5762242,236.803113 42.7869382,236.803113 L256.975087,236.803113 C258.941731,236.803113 260.661957,238.27891 260.661957,240.490254 L260.661957,246.635489 Z" id="Fill-16" fill="#FFB900"></path>
                    <path d="M260.661957,225.990321 C260.661957,228.201665 258.941731,229.921861 256.975087,229.921861 L42.7869382,229.921861 C40.5762242,229.921861 39.100068,228.201665 39.100068,225.990321 L39.100068,219.845086 C39.100068,217.880491 40.5762242,216.157945 42.7869382,216.157945 L256.975087,216.157945 C258.941731,216.157945 260.661957,217.880491 260.661957,219.845086 L260.661957,225.990321 Z" id="Fill-17" fill="#FFB900"></path>
                    <polygon id="Fill-18" fill="#C6C6C6" points="281.565878 116.86811 279.845651 116.376961 293.614504 72.1383228 295.33473 72.6294716"></polygon>
                    <path d="M271.236539,31.0937961 C268.532991,48.7892516 276.8924,65.0112608 290.170765,69.4339496 L287.467217,76.5614817 L299.025355,78.037278 L298.286104,70.6629965 C312.30372,70.1718478 324.845181,56.8990812 327.304659,38.9592263 C330.008207,19.5435752 319.18932,5.77965985 303.695547,3.56831541 C288.204121,1.35697098 273.942435,11.4337456 271.236539,31.0937961 Z" id="Fill-19" fill="#47B8E0"></path>
                    <path d="M303.695547,3.56831541 C299.76226,3.07716665 295.826626,3.32391603 292.137409,4.30621356 C294.596887,4.05946418 297.302782,4.05946418 299.76226,4.30621356 C315.256033,6.51755799 326.321337,20.2814733 323.369025,39.6971245 C321.155964,55.1788855 311.566816,67.2226052 300.008677,70.6629965 C313.287042,68.9428009 324.845181,56.163533 327.304659,38.9592263 C330.008207,19.5435752 319.18932,5.77965985 303.695547,3.56831541" id="Fill-20" fill="#0B6FBA"></path>
                    <path d="M174.840021,357.232085 C173.119794,356.003038 169.921065,352.071498 169.430577,350.348953 L169.430577,345.432765 L156.6427,345.188366 L156.6427,365.341915 L175.332855,365.341915 C175.332855,365.341915 176.809011,365.341915 176.809011,363.621719 L176.809011,359.934578 C176.809011,359.934578 177.299499,358.458782 174.840021,357.232085" id="Fill-21" fill="#000000"></path>
                    <path d="M176.808777,363.621014 L176.808777,366.079108 C176.808777,367.799304 175.332621,367.799304 175.332621,367.799304 L156.642465,367.799304 L156.642465,365.34121 L175.332621,365.34121 C175.332621,365.34121 176.808777,365.34121 176.808777,363.621014" id="Fill-22" fill="#000000"></path>
                    <path d="M174.840021,357.232085 C173.119794,356.003038 169.921065,352.071498 169.430577,350.348953 L169.430577,345.432765 L166.234195,345.432765 L165.004456,350.348953 C165.49729,352.071498 168.693673,356.003038 170.413899,356.987686 C172.873377,358.458782 172.380543,359.934578 172.380543,359.934578 L172.380543,363.621719 C172.380543,365.341915 170.906734,365.341915 170.906734,365.341915 L155.415308,365.341915 L175.332855,365.341915 C175.332855,365.341915 176.809011,365.341915 176.809011,363.621719 L176.809011,359.934578 C176.809011,359.934578 177.299499,358.458782 174.840021,357.232085" id="Fill-23" fill="#636363"></path>
                    <path d="M120.741361,360.917581 C120.741361,361.653129 120.741361,362.393377 120.985432,363.128925 C120.985432,365.09587 122.708005,364.851471 122.708005,364.851471 L140.905326,362.884526 L140.658909,360.673182 L122.461588,362.393377 C122.461588,362.393377 120.741361,362.637777 120.741361,360.917581" id="Fill-24" fill="#000000"></path>
                    <path d="M126.150101,341.993784 L126.642935,346.909971 C126.396518,348.627817 123.446552,352.808456 121.970396,354.281903 C119.757335,355.755349 120.247823,357.231145 120.247823,357.231145 C120.247823,357.231145 120.496587,359.19809 120.740657,360.918286 C120.740657,362.638482 122.463231,362.394082 122.463231,362.394082 L140.660552,360.671537 L138.693908,340.517987 L126.150101,341.993784 Z" id="Fill-25" fill="#000000"></path>
                    <path d="M137.217282,340.765912 L136.724448,345.924149 C136.480378,347.646694 133.528065,351.824984 131.805492,353.054031 C129.838848,354.774226 130.329336,356.000923 130.329336,356.000923 C130.329336,356.000923 130.5781,357.967868 130.82217,359.690414 C130.82217,361.655009 132.544744,361.40826 132.544744,361.40826 L140.660082,360.672712 L138.693439,340.519162 L137.217282,340.765912 Z" id="Fill-26" fill="#636363"></path>
                    <path d="M252.794209,181.014489 C253.038279,180.276591 253.531114,179.541042 254.270365,179.541042 L263.613096,178.556395 C264.596418,178.556395 265.33567,179.047544 265.57974,180.032191 C265.57974,181.014489 264.842835,181.996786 263.859513,181.996786 L254.760853,182.979084 C253.777531,182.979084 253.038279,182.487935 252.794209,181.505638 L252.794209,181.014489 Z" id="Fill-27" fill="#BC9871"></path>
                    <path d="M253.284697,185.438118 C253.284697,184.45582 254.021601,183.964671 254.760853,183.964671 L265.089252,182.735624 C266.072574,182.735624 266.811826,183.473523 267.055896,184.45582 C267.055896,185.193718 266.318991,186.176016 265.33567,186.420415 L255.253687,187.405063 C254.270365,187.405063 253.284697,186.911564 253.284697,185.929266 L253.284697,185.438118 Z" id="Fill-28" fill="#BC9871"></path>
                    <path d="M253.777296,189.124788 C254.021367,188.38689 254.514201,187.895741 255.497523,187.895741 L264.596183,187.404593 C265.579505,187.404593 266.562827,188.142491 266.562827,189.124788 C266.562827,190.107086 265.828269,190.844984 264.842601,190.844984 L255.74394,191.336133 C254.760618,191.336133 253.777296,190.598235 253.777296,189.615937 L253.777296,189.124788 Z" id="Fill-29" fill="#BC9871"></path>
                    <path d="M251.318288,193.793757 C251.318288,193.058208 252.055192,192.56471 252.794444,192.32031 L262.137175,192.073561 C263.120497,191.829162 263.859748,192.56471 263.859748,193.549357 C264.106165,194.531655 263.369261,195.513952 262.383592,195.513952 L253.038514,196.005101 C252.055192,196.005101 251.318288,195.267203 251.074217,194.284905 C251.074217,194.040506 251.074217,194.040506 251.318288,193.793757" id="Fill-30" fill="#BC9871"></path>
                    <path d="M171.645281,221.320177 L167.46323,199.446432 L199.678167,200.922229 L235.579975,181.997726 L242.958409,197.726237 L204.84354,217.635387 C203.611455,218.370935 201.891228,218.617684 200.415072,218.617684 L171.645281,221.320177 Z" id="Fill-31" fill="#004B1C"></path>
                    <polygon id="Fill-32" fill="#407855" points="199.431281 201.658482 236.809245 184.947674 235.579506 181.996081 199.677698 200.922934 199.431281 200.922934"></polygon>
                    <path d="M256.23654,188.63364 C256.973444,185.684397 255.499635,182.488405 255.499635,182.488405 L254.023479,182.979554 C252.300905,182.979554 250.580679,183.226303 250.334262,183.717452 C249.841427,184.208601 248.121201,191.582882 241.482018,190.353835 C240.498697,190.353835 239.759445,190.353835 239.268958,189.860337 L241.974853,195.514422 C247.630713,198.954814 255.499635,195.514422 255.499635,195.514422 C255.499635,195.514422 255.743705,191.827282 256.23654,188.63364" id="Fill-33" fill="#BC9871"></path>
                    <path d="M259.433626,177.573392 C255.497992,180.275886 250.581383,178.55569 250.581383,178.55569 L236.807837,184.700924 L239.267315,189.861512 C239.760149,190.35266 240.499401,190.35266 241.482722,190.35266 C248.121905,191.581707 249.842131,184.209776 250.334966,183.718627 C250.581383,183.225128 252.30161,182.980729 254.021836,182.980729 C258.450305,183.718627 260.909783,179.540337 259.433626,177.573392" id="Fill-34" fill="#D0B28D"></path>
                    <path d="M173.856699,280.797588 L123.446787,280.797588 L119.75757,212.718259 C121.480143,204.117281 109.673241,202.641484 136.234665,196.989749 L160.822404,196.742999 C192.29809,203.870531 175.576926,203.870531 177.545916,212.718259 L173.856699,280.797588 Z" id="Fill-35" fill="#004B1C"></path>
                    <polygon id="Fill-36" fill="#001A41" points="122.952779 291.61038 174.101943 291.61038 174.101943 272.932627 122.952779 272.932627"></polygon>
                    <polygon id="Fill-37" fill="#407855" points="172.628368 221.074603 172.872438 272.931922 174.102177 272.931922 177.05449 220.583454"></polygon>
                    <path d="M141.397691,243.685306 C140.167952,241.227212 137.462057,239.753766 134.512091,240.000515 L128.363396,239.262617 L131.806196,208.785544 C132.29903,204.609604 129.346718,200.922464 125.411084,200.428965 C121.480143,199.937816 117.78858,202.887059 117.298092,207.065348 L112.625553,245.158752 C112.381483,246.1434 112.381483,247.372447 112.381483,248.354744 C112.625553,252.533034 116.31477,255.482276 120.248058,255.237877 L135.495413,253.762081 C139.431047,253.517681 142.381013,250.07494 142.134596,245.89665 C142.134596,244.914353 141.888178,244.667604 141.397691,243.685306" id="Fill-38" fill="#004B1C"></path>
                    <path d="M134.51303,239.999575 L128.364335,239.261677 L129.840491,225.744511 L127.625083,220.090425 L126.151274,233.116443 C126.151274,233.116443 125.167952,240.490724 126.151274,241.473022 C127.381013,243.193217 130.823813,243.193217 133.283291,243.193217 L140.659378,242.455319 C139.183222,240.735123 136.970161,239.752826 134.51303,239.999575" id="Fill-39" fill="#407855"></path>
                    <polygon id="Fill-40" fill="#000000" points="150.496117 238.27844 142.134361 239.016338 142.134361 229.430712 150.496117 229.430712"></polygon>
                    <path d="M175.577864,176.344346 C175.577864,179.046839 173.364803,181.504933 170.414838,181.504933 C167.708943,181.504933 165.251812,179.046839 165.251812,176.344346 C165.251812,173.395103 167.462526,171.183759 170.414838,171.183759 C173.364803,170.937009 175.577864,173.395103 175.577864,176.344346" id="Fill-41" fill="#D9C1A4"></path>
                    <path d="M121.479439,176.344346 C121.479439,179.046839 123.938917,181.504933 126.642466,181.504933 C129.594778,181.504933 132.054256,179.046839 132.054256,176.344346 C132.054256,173.395103 129.594778,171.183759 126.642466,171.183759 C123.938917,170.937009 121.479439,173.395103 121.479439,176.344346" id="Fill-42" fill="#D9C1A4"></path>
                    <path d="M170.414369,161.352793 C170.414369,159.632598 169.18463,158.403551 167.71082,158.403551 L129.347187,158.403551 C127.871031,158.403551 126.643639,159.632598 126.643639,161.352793 L126.643639,185.193483 C126.643639,186.911329 127.380544,188.387125 128.610283,189.369423 C129.10077,189.860572 140.905326,197.972751 140.905326,197.972751 C141.888648,199.201798 143.364804,200.184096 144.594543,200.184096 L152.463465,200.184096 C153.693204,200.184096 155.41343,199.201798 156.152682,197.972751 C156.152682,197.972751 168.201308,189.616172 168.694142,189.369423 C169.677464,188.387125 170.414369,186.66693 170.414369,184.946734 L170.414369,161.352793 Z" id="Fill-43" fill="#D0B28D"></path>
                    <path d="M141.888178,179.293353 C142.381013,179.293353 142.873847,179.293353 143.364335,179.540102 C143.857169,179.048954 144.101239,178.557805 144.101239,178.066656 C144.101239,176.837609 143.117917,176.099711 141.888178,176.099711 C140.904857,176.099711 139.921535,176.837609 139.921535,178.066656 C139.921535,178.557805 140.167952,179.048954 140.660786,179.540102 C140.904857,179.293353 141.397691,179.293353 141.888178,179.293353" id="Fill-44" fill="#000000"></path>
                    <path d="M155.167013,179.293353 C155.659847,179.293353 156.152682,179.293353 156.643169,179.540102 C156.889586,179.048954 157.136003,178.557805 157.136003,178.066656 C157.136003,176.837609 156.396752,176.099711 155.167013,176.099711 C154.183691,176.099711 153.200369,176.837609 153.200369,178.066656 C153.200369,178.557805 153.446786,179.048954 153.693204,179.540102 C154.183691,179.293353 154.676525,179.293353 155.167013,179.293353" id="Fill-45" fill="#000000"></path>
                    <path d="M144.101943,173.149999 L137.216344,173.149999 C136.233022,173.149999 135.2497,172.4121 135.2497,171.429803 C135.2497,170.447505 136.233022,169.709607 137.216344,169.709607 L144.101943,169.709607 C145.085265,169.709607 145.82217,170.447505 145.82217,171.429803 C145.82217,172.4121 145.085265,173.149999 144.101943,173.149999" id="Fill-46" fill="#001F50"></path>
                    <path d="M160.085265,173.149999 L152.955595,173.149999 C151.972273,173.149999 151.235368,172.4121 151.235368,171.429803 C151.235368,170.447505 151.972273,169.709607 152.955595,169.709607 L160.085265,169.709607 C161.070934,169.709607 161.807838,170.447505 161.807838,171.429803 C161.807838,172.4121 161.070934,173.149999 160.085265,173.149999" id="Fill-47" fill="#001F50"></path>
                    <path d="M168.448194,186.175781 C167.71129,187.895976 156.153151,197.972751 156.153151,197.972751 C156.153151,197.972751 168.201777,189.616172 168.692265,189.369423 C169.675586,188.387125 170.414838,186.66693 170.414838,184.946734 L170.414838,174.869959 L168.201777,175.361108 C168.201777,175.361108 169.431516,183.717687 168.448194,186.175781" id="Fill-48" fill="#C2A081"></path>
                    <path d="M139.676526,346.663927 L137.463465,284.238684 C137.217048,279.322496 133.037343,275.635356 128.364804,275.882105 C123.445848,276.126504 119.758978,280.307144 120.003048,285.220981 L125.412492,347.399475 L139.676526,346.663927 Z" id="Fill-49" fill="#001F50"></path>
                    <path d="M137.462526,284.237509 C137.462526,282.270564 136.725621,280.305969 135.495882,279.076922 C134.266143,280.552718 133.775656,282.270564 133.775656,284.481908 L137.218456,346.662752 L138.445848,346.662752 L139.675587,346.662752 L137.462526,284.237509 Z" id="Fill-50" fill="#006FC8"></path>
                    <path d="M120.003518,285.219806 C119.759447,283.255211 120.496352,281.288266 121.479674,279.81247 C122.707066,281.288266 123.690388,283.010812 123.690388,284.975407 L127.872439,347.40065 L126.39863,347.40065 L125.412961,347.40065 L120.003518,285.219806 Z" id="Fill-51" fill="#001A41"></path>
                    <path d="M170.414369,350.840571 L174.84049,288.662078 C175.086907,283.74589 171.151273,279.567601 166.478734,279.320851 C161.562125,279.076452 157.380074,283.010342 157.136003,287.92418 L156.152682,350.349423 L170.414369,350.840571 Z" id="Fill-52" fill="#001F50"></path>
                    <path d="M174.840021,288.662078 C174.840021,286.695133 174.349533,284.728188 173.119794,283.254741 C171.890055,284.483788 171.153151,286.450733 170.906734,288.417678 L167.954421,350.840571 L169.18416,350.840571 L170.413899,350.840571 L174.840021,288.662078 Z" id="Fill-53" fill="#006FC8"></path>
                    <path d="M157.135534,287.92324 C157.379604,285.714245 158.118856,283.9917 159.348595,282.515903 C160.331917,283.9917 161.071168,285.958645 161.071168,287.92324 L158.61169,350.348483 L157.135534,350.348483 L156.152212,350.348483 L157.135534,287.92324 Z" id="Fill-54" fill="#001A41"></path>
                    <path d="M149.020195,183.225598 L149.020195,173.886722 C150.003517,173.886722 150.740422,174.869019 150.986839,175.853667 L151.723744,183.225598 L149.020195,183.225598 Z" id="Fill-55" fill="#D9C1A4"></path>
                    <path d="M143.3641,187.650402 C142.873612,187.650402 142.873612,187.650402 143.12003,187.894801 C143.12003,187.894801 144.347422,189.861747 148.527126,189.861747 C152.709178,189.861747 154.182987,187.894801 154.182987,187.894801 C154.431751,187.650402 154.182987,187.650402 153.938917,187.650402 L143.3641,187.650402 Z" id="Fill-56" fill="#FFFFFF"></path>
                    <path d="M415.092066,81.9683481 C415.092066,88.1135826 420.011022,92.7830209 425.913299,92.7830209 C431.815577,92.7830209 436.734533,88.1135826 436.734533,81.9683481 C436.734533,76.0698629 431.815577,71.1536753 425.913299,71.1536753 C420.011022,71.1536753 415.092066,76.0698629 415.092066,81.9683481" id="Fill-57" fill="#FFB900"></path>
                    <path d="M497.226662,311.271606 L494.27435,311.271606 L494.27435,228.939563 L478.785271,228.939563 L478.785271,59.6036894 C478.785271,43.875179 465.750976,31.0935611 450.013133,31.0935611 C437.96216,31.0935611 427.636107,38.7145919 423.454056,49.2825153 C419.764839,50.2648129 416.568456,52.9673061 415.585135,56.6544468 C404.273413,60.8327363 396.158074,71.6474091 396.158074,84.4266769 L455.422577,84.4266769 C455.422577,71.6474091 447.553655,60.8327363 436.241934,56.6544468 C435.012195,52.7229067 431.567048,49.7736641 427.387343,49.2825153 C431.322978,40.679187 439.931151,34.5339525 450.013133,34.5339525 C464.028403,34.5339525 475.093707,45.839774 475.093707,59.6036894 L475.093707,228.939563 L459.602281,228.939563 L459.602281,311.271606 L456.652316,311.271606 C454.439255,311.271606 452.716681,312.991802 452.716681,314.958747 L452.716681,328.475913 L500.913533,328.475913 L500.913533,314.958747 C500.913533,312.991802 499.439723,311.271606 497.226662,311.271606" id="Fill-58" fill="#FF8C00"></path>
                    <path d="M429.846822,55.1798255 C428.619429,54.9354261 427.387343,54.9354261 425.913534,54.9354261 C409.682857,54.9354261 396.404492,68.2058427 396.404492,84.4255019 L404.273413,84.4255019 C404.273413,69.4348896 415.338717,57.1467706 429.846822,55.1798255" id="Fill-59" fill="#FFA940"></path>
                    <path d="M429.846822,55.1798255 C428.619429,55.4242249 427.143273,55.6709743 425.913534,55.9177236 C438.454995,59.358115 447.553655,70.9083359 447.553655,84.4255019 L455.42023,84.4255019 C455.42023,69.4348896 444.357272,57.1467706 429.846822,55.1798255" id="Fill-60" fill="#DB7A00"></path>
                    <path d="M169.676525,172.166526 C172.628837,172.166526 174.839551,174.62462 174.839551,177.573862 C174.839551,178.311761 174.839551,178.802909 174.595481,179.540807 C175.332386,178.55616 175.578803,177.573862 175.578803,176.344816 C175.578803,173.395573 173.363395,170.937479 170.41343,171.184229 C168.200369,171.184229 166.480142,172.410925 165.740891,174.133471 C166.72656,173.148824 168.200369,172.166526 169.676525,172.166526" id="Fill-61" fill="#D0B28D"></path>
                    <path d="M127.380778,172.166526 C124.67723,172.166526 122.217752,174.62462 122.217752,177.573862 C122.217752,178.311761 122.461822,178.802909 122.70824,179.540807 C121.968988,178.55616 121.478501,177.573862 121.478501,176.344816 C121.478501,173.395573 123.937979,170.937479 126.643874,171.184229 C128.856935,171.184229 130.823578,172.410925 131.560483,174.133471 C130.577161,173.148824 129.101005,172.166526 127.380778,172.166526" id="Fill-62" fill="#BC9871"></path>
                    <path d="M128.8567,186.175781 C129.593605,187.895976 140.905326,197.972751 140.905326,197.972751 C140.905326,197.972751 128.8567,189.616172 128.610283,189.369423 L128.363866,189.369423 C127.380544,188.387125 126.643639,186.66693 126.643639,184.946734 L126.643639,174.869959 L128.8567,175.361108 C128.8567,175.361108 127.626961,183.717687 128.8567,186.175781" id="Fill-63" fill="#BC9871"></path>
                    <path d="M129.840022,166.75966 C131.316178,162.58137 137.462526,160.861175 137.462526,160.861175 L129.840022,158.156331 L129.840022,166.75966 Z" id="Fill-64" fill="#BC9871"></path>
                    <path d="M170.414369,160.61513 C170.170298,152.014152 163.282352,144.395471 154.920596,144.395471 L122.217517,144.395471 C122.217517,148.57141 123.937744,152.7497 126.643639,155.698942 L126.643639,174.379045 C126.643639,175.361343 127.380544,176.099241 128.363866,176.099241 C129.10077,176.099241 129.840022,175.361343 129.840022,174.379045 L129.840022,158.403786 C132.2995,159.879582 135.003048,160.85953 137.95536,160.85953 L167.462056,160.85953 L167.462056,174.379045 C167.462056,175.361343 167.954891,176.099241 168.938212,176.099241 C169.677464,176.099241 170.414369,175.361343 170.414369,174.379045 L170.414369,160.85953 L170.414369,160.61513 Z" id="Fill-65" fill="#001F50"></path>
                    <path d="M156.642934,227.464707 C156.642934,226.726809 155.90603,226.23566 155.166778,226.23566 L143.364569,226.23566 C142.625318,226.23566 142.13483,226.726809 142.13483,227.464707 L142.13483,243.439967 C142.13483,244.177865 142.625318,244.669014 143.364569,244.669014 L155.166778,244.669014 C155.90603,244.669014 156.642934,244.177865 156.642934,243.439967 L156.642934,227.464707 Z" id="Fill-66" fill="#000000"></path>
                    <path d="M176.808777,363.621014 L176.808777,366.079108 C176.808777,367.799304 175.332621,367.799304 175.332621,367.799304 L156.642465,367.799304 L156.642465,365.34121 L175.332621,365.34121 C175.332621,365.34121 176.808777,365.34121 176.808777,363.621014" id="Fill-67" fill="#7C7C7C"></path>
                    <path d="M135.496117,251.058882 L120.495179,252.287929 C116.561891,252.779078 112.870328,249.585436 112.626257,245.651546 C112.37984,246.636194 112.37984,247.618491 112.37984,248.356389 C112.626257,252.532329 116.313127,255.481571 120.248762,255.237172 L135.496117,253.761376 C139.431751,253.516976 142.381717,250.076585 142.1353,245.898295 L142.1353,245.651546 C141.398395,248.600789 138.6925,250.814483 135.496117,251.058882" id="Fill-68" fill="#003C16"></path>
                    <path d="M157.873612,242.210685 C157.629542,241.475137 157.136707,240.981638 156.397456,240.737238 C156.397456,240.24609 156.643873,239.752591 156.397456,239.261442 C156.153386,238.032395 154.9213,237.294497 153.693908,237.541246 L150.495178,238.279145 L145.085735,238.770293 L149.265439,234.836403 C149.265439,234.836403 150.985666,231.151613 148.038047,230.166965 C140.90603,237.294497 140.415543,235.821051 138.200135,238.523544 C136.233491,241.228387 136.233491,244.913178 136.723979,246.635724 L138.200135,253.025358 L149.265439,253.272107 L154.184395,252.287459 C155.414134,252.04306 156.153386,250.814013 155.904622,249.584966 C155.660551,249.338217 155.660551,248.847068 155.414134,248.600319 C156.397456,248.355919 156.89029,247.126872 156.89029,246.142225 C156.643873,245.651076 156.397456,245.159927 156.153386,244.913178 C157.380778,244.668779 158.117683,243.439732 157.873612,242.210685" id="Fill-69" fill="#D0B28D"></path>
                </g>
                <polygon id="Fill-71" fill="#FFB900" points="311.726166 129.951467 261.337375 106.707676 277.316942 139.071794"></polygon>
                <polygon id="Fill-72" fill="#FFB900" points="273.498649 133.946927 260.398643 108.172192 245.421173 140.72431"></polygon>
                <polygon id="Fill-73" fill="#FFB900" points="282.450398 139.337579 276.618525 140.594826 273.809369 135.213339 245.161613 141.868522 295.550404 165.112314"></polygon>
                <polygon id="Fill-74" fill="#FFB900" points="283.683422 138.761595 296.783428 164.53633 311.758552 131.981862"></polygon>
            </g>
        </g>
    </g>
</svg>