<svg width="429" height="245" viewBox="0 0 429 245" xmlns="http://www.w3.org/2000/svg" xmlns:xlink="http://www.w3.org/1999/xlink"><title>Group</title><defs><path id="a" d="M83.61 28.8V.61H.804V28.8H83.61z"/><path id="c" d="M.22 17.716h28.464V.246H.22z"/></defs><g fill="none" fill-rule="evenodd"><path d="M305.802 92.17s10.23 1.53 14.833.512c4.348-.766 1.79 6.118 1.79 6.118l-17.646 3.06 1.022-9.69" fill="#9D6853"/><path d="M263.093 77.638l9.462 15.81c.767 1.272 1.534 2.038 2.813 2.802.512.255 1.28.51 2.047.766l3.58.764 23.783 4.845 1.28-10.963-22.762-7.14L272.3 67.184l-9.207 10.454" fill="#0078D6"/><path d="M279.972 86.052l25.575 8.16" fill="#3393DE"/><path d="M239.112 225.194c-.767-.51-4.092-1.785-4.092-1.785v.254c-5.37-7.14-14.833-16.318-16.623-16.318-2.558 0-4.86 5.864-5.882 7.65-.512.764 4.347 5.354 9.718 9.687 0 0 5.882 5.355 7.417 5.1h2.3c3.582 0 9.976.255 10.743-.51 1.022-1.02-2.558-3.57-3.58-4.08" fill="#000"/><path fill="#001F50" d="M289.494 123.462L267.5 164.766l-28.132 35.95-12.53-7.648 21.993-35.95 8.952-33.4"/><path d="M235.02 223.664c-2.046-4.335-5.115-8.67-5.882-10.454l10.23-12.493-12.532-7.65-7.416 13.77-3.325 5.863s5.882 6.63 12.276 11.473l6.65-.51" fill="#9D6853"/><path d="M267.244 157.373l-4.603 8.413-26.085 33.146 2.813 1.785 28.132-35.95 2.046-3.825-2.302-3.57m21.227-31.87c-1.277 1.274-3.835 3.06-6.904 5.1l1.79 4.588 5.115-9.69" fill="#001D48"/><path d="M235.02 223.664l-3.07.254c0 .255 0 .51.257.51.51.255 1.278 1.275 2.046 1.785.767.255 3.837 2.55 3.837 3.57 2.3 0 4.09-.256 4.603-.51.255-.255.255-.255.255-.51 0-1.02-3.068-3.06-3.837-3.57-.766-.51-3.578-1.53-4.09-1.53" fill="#000"/><path d="M236.555 198.932l-2.046 2.55-10.488 12.748c1.024 1.784 5.628 5.61 7.93 9.69l3.068-.257c-2.045-4.334-5.115-8.668-5.88-10.453l10.228-12.493-2.813-1.785" fill="#8D5D4B"/><path d="M278.497 122.952l14.834 36.715s1.79 2.55 2.558 5.1c.768 2.804.768 6.12.768 6.12l3.836 38.244-12.788 3.57-10.23-40.03-29.41-43.09 30.433-6.628" fill="#00188E"/><path d="M290.517 227.743c-1.79 1.784 0 6.884.767 8.923.512 2.04 36.316-1.274 29.155-7.14-5.115-3.313-28.133-3.567-29.923-1.783" fill="#000"/><path d="M314.557 227.743c-4.603-2.294-10.23-4.844-12.275-5.61l-1.79-13.002-12.787 3.57 2.813 13.513 1.79 7.14s7.927 0 15.345-1.276l6.904-4.334M295.888 94.906s10.23 1.53 14.834.51c4.347-.766 1.79 6.118 1.79 6.118l-17.647 3.06 1.023-9.688" fill="#9D6853"/><path d="M271.08 100.515l-3.58-.765c-.767-.255-1.534-.51-2.046-.765-1.278-.765-2.046-1.53-2.813-2.805l-9.46-15.807s2.3 26.006 14.83 29.32l12.278 3.57 1.022-10.71-10.23-2.038" fill="#FFF000"/><path fill="#FFC633" d="M244.228 131.366v.51"/><path d="M390.515 223.408h-25.32c-6.138 0-11.764-4.844-12.53-10.708l-14.58-103.007c-.766-4.334-3.324-7.393-4.857-7.393h-5.372c-1.022 0-2.046-.765-2.046-2.04 0-1.02 1.024-2.04 2.046-2.04h5.372c4.09 0 7.928 4.845 8.95 10.964l14.578 103.006c.51 3.825 4.348 7.14 8.44 7.14h25.32c1.277 0 2.045 1.02 2.045 2.04 0 1.274-.767 2.038-2.045 2.038" fill="#737373"/><path d="M330.413 97.71h-30.946s-.51.765-.51 2.805.51 2.294.51 2.294h30.945s.767-.51.767-2.55c0-2.296-.767-2.55-.767-2.55" fill="#E71123"/><path d="M284.89 73.998c-1.277-6.373-7.416-16.572-11.25-17.847-.258 0-.77-.254-.77-.254s-3.068-.51-3.068 0c.51.765 4.348 2.804 4.86 3.824 3.068 3.824 6.392 9.944 7.16 14.278 1.28 6.374-.51 38.245 5.37 47.68l-7.16 5.353s1.28 3.06 1.534 3.57c5.115-3.314 8.44-6.373 8.44-6.373l-5.115-50.23" fill="#0078D6"/><path d="M297.166 17.65c-.766-2.804-3.07-4.59-5.626-4.844 0-.765 0-1.275-.256-1.784-1.022-3.825-5.115-5.865-8.695-4.845l-.256.255c-.768-2.04-2.302-3.57-4.35-4.59-3.067-1.53-6.392-1.274-8.95.256-.255 0-.255-.256-.51-.256-3.837-2.04-8.696-.255-10.487 3.57-.255.256-.255.51-.255.51-3.325-.254-6.906 1.275-8.44 4.59-.51 1.274-.768 2.804-.768 4.08-1.533.764-3.068 2.04-3.835 3.823-1.28 2.55-1.024 5.61.51 7.65v.255c-.51.51-.767 1.02-1.023 1.784-1.79 3.825-.255 8.414 3.325 10.454-1.023 2.294 0 5.1 2.302 6.12.766.51 1.534.51 2.3.51.257 0 .257.254.257.254 2.047 3.824 6.395 5.61 10.486 4.335 1.28-.255 2.302-1.02 3.07-1.785 3.325 0 3.068-1.53 2.557-3.315.51-1.53.768-3.314.256-5.1 1.79-2.804 3.835 2.55 5.88 2.805 2.047.51 2.303-1.785 3.582-5.61 1.023-3.823 1.278-1.274 5.114-.51 2.302.766 2.813-.51 3.07-1.783 1.022.508 2.045 1.018 3.58 1.018 3.07-.765 5.883-3.06 6.905-6.374.768-2.55.512-4.08-.254-5.864.766-1.53 1.278-3.57.51-5.61" fill="#000"/><path d="M310.72 95.415c-.51.255-.766.765-.766 1.275v4.845c0 1.02.512 1.53 1.534 1.53.512 0 .768-.255 1.023-.51 0 .764.77 1.53 1.536 1.53.767 0 1.278-.51 1.535-1.275.256.764.768 1.02 1.535 1.02.767 0 1.534-.51 1.534-1.275v-1.02c0 .764.51 1.275 1.278 1.275 1.022 0 1.534-.766 1.534-1.53v-4.335c0-.255-.767-1.275-1.022-1.275-3.07-2.04-9.72-.255-9.72-.255" fill="#9D6853"/><path d="M266.99 55.13l-8.44.765 6.904 79.295c11.51-3.314 22.76-11.983 22.76-11.983-5.625-9.434-4.09-42.834-5.37-49.21-1.278-6.118-7.416-16.317-11.252-17.59-3.837-1.276 0-1.786-4.603-1.276" fill="#FFF"/><path d="M366.474 232.587c2.046 0 3.837-.51 5.37-.764 1.024-1.276 1.534-2.805 1.534-4.59 0-3.825-3.067-6.884-6.904-6.884-3.837 0-7.16 3.058-7.16 6.883 0 1.785.766 3.314 1.534 4.59 1.535.254 3.58.764 5.626.764" fill="#000"/><path d="M366.474 228.508c-1.278 0-2.046-1.02-2.046-2.04v-3.824c0-1.275.768-2.04 2.046-2.04 1.023 0 2.046.765 2.046 2.04v3.824c0 1.02-1.023 2.04-2.046 2.04" fill="#737373"/><path d="M411.23 232.587c2.046 0 3.836-.51 5.37-.764 1.024-1.276 1.534-2.805 1.534-4.59 0-3.825-3.068-6.884-6.904-6.884-3.837 0-6.905 3.058-6.905 6.883 0 1.785.51 3.314 1.534 4.59 1.533.254 3.323.764 5.37.764" fill="#000"/><path d="M411.23 228.508c-1.024 0-2.047-1.02-2.047-2.04v-3.824c0-1.275 1.023-2.04 2.047-2.04 1.023 0 2.046.765 2.046 2.04v3.824c0 1.02-1.023 2.04-2.046 2.04" fill="#737373"/><path d="M333.994 234.627c1.535-.255 3.07-.51 4.603-.51 1.79 0 3.325.255 4.86.51 1.278-1.274 2.3-3.06 2.3-5.1 0-3.824-3.067-7.14-7.16-7.14-3.836 0-6.904 3.316-6.904 7.14 0 2.04 1.023 3.826 2.3 5.1" fill="#000"/><path d="M338.598 230.547c-1.024 0-2.046-1.02-2.046-2.04v-5.863c0-1.275 1.022-2.04 2.046-2.04 1.278 0 2.046.765 2.046 2.04v5.864c0 1.02-.768 2.04-2.046 2.04" fill="#D1D1D1"/><path d="M419.158 223.408h-82.095c-5.882 0-11.51-4.844-12.53-10.708l-14.58-103.007c-.51-4.334-3.324-7.393-4.602-7.393h-5.37c-1.278 0-2.046-.765-2.046-2.04 0-1.02.768-2.04 2.046-2.04h5.37c3.837 0 7.673 4.845 8.696 10.964l14.578 103.006c.767 3.825 4.604 7.14 8.44 7.14h82.094c1.278 0 2.046 1.02 2.046 2.04 0 1.274-.768 2.038-2.046 2.038" fill="#D1D1D1"/><path d="M278.753 84.197c-2.558-5.864-24.296-27.027-19.18-28.302-1.28 0-2.303.256-3.582.256-10.996 1.02-12.786 14.788-12.53 16.318-.256 11.73 1.534 53.29.768 59.408-1.024 6.12 21.482 8.923 28.643-2.55 5.628-9.18 6.906-42.835 5.883-45.13" fill="#0078D6"/><path d="M243.715 70.173c-.254 1.02-.254 2.04-.254 2.296 0-.256 0-1.276.255-2.297M244.228 132.13c-.256.51 0 1.275.51 1.785-.51-.51-.51-1.02-.51-1.785" fill="#E5A500"/><path d="M253.178 56.915c-6.394 2.296-8.95 9.435-9.462 13.26-.256 1.02-.256 2.038-.256 2.293v2.55c0 11.22 1.023 36.97 1.023 49.718 0 3.315-.255 5.865-.255 7.14v.255c0 .765 0 1.275.51 1.786 1.535 2.04 5.882 3.314 10.742 3.314 4.604 0 9.974-1.275 13.81-4.08-3.325 1.275-6.905 2.04-10.23 2.04-6.393 0-11.764-2.295-11.253-5.355.768-6.118-1.023-47.678-.766-59.406 0-1.02.767-9.18 6.138-13.515" fill="#006CC0"/><path d="M274.405 52.326l-12.276-8.414-2.046 14.533s13.81 17.083 17.134 16.063c3.325-1.02-2.813-22.182-2.813-22.182" fill="#9D6853"/><path d="M279.52 28.104l.256-.254-.256.254z" fill="#F9CCAD"/><path d="M291.285 42.127c0-.51-1.79-7.648-1.28-8.67 0-.508.256-1.018.256-1.528-3.323-.256-5.625-1.786-6.903-3.57-1.792-2.04-2.302-4.08-2.302-4.59l-1.28 4.08-.255.254-1.28 3.825c-.255 1.273-.766 2.55-.766 2.803-.767 1.53-2.046-.51-2.046-.51s-1.023-2.55-2.557-4.08c-2.046.51-3.58 4.845-4.092 6.63.257 1.02-2.3 7.65-6.65 7.14 4.094 6.118 12.022 8.67 15.346 10.198 3.837 1.786 4.604 0 4.604 0l5.627-10.453c4.602 1.275 3.834-.765 3.58-1.53" fill="#9D6853"/><path d="M284.93 48.863c-1.457-1.694-5.37-2.804-5.37-2.804s2.484 2.778 4.385 4.608l.986-1.805z" fill="#FF8B00"/><path d="M281.055 54.876c-3.07-1.02-5.115-2.295-6.65-3.314-3.836-3.06-6.138-6.885-7.416-10.455-1.024 1.785-2.814 3.06-4.86 2.805 4.09 6.12 12.02 8.67 15.344 10.2 1.79 1.02 3.07 1.02 3.58.764" fill="#81513C"/><path d="M285.402 36.773c-.255.765-1.023 1.275-1.79 1.02-.768-.255-1.278-1.02-1.023-1.784.254-.767 1.023-1.276 1.79-1.02.767 0 1.278.763 1.022 1.783" fill="#010101"/><path fill="#FFC633" d="M328.112 102.81v7.393"/><path d="M328.112 102.554v.255-.256z" fill="#EC414F"/><path d="M276.196 101.535l2.3.51-2.3-.51m2.557-17.338s-.51 1.785-1.28 4.334l1.536.51c0-2.55 0-4.333-.257-4.587v-.256" fill="#3393DE"/><path d="M253.178 80.372l9.463 15.81c.768 1.273 1.536 2.038 2.814 2.803.51.255 1.278.51 2.046.765l3.58.764 23.785 4.845 1.28-10.964-22.763-7.14-10.997-17.338-9.207 10.454" fill="#0078D6"/><path d="M273.382 87.257l4.092 1.275-4.092-1.275m-18.67-23.712c-.51 0-.766.255-.766.255l5.882 8.923 2.557-2.55c-1.535-2.294-2.557-4.08-2.813-4.59-1.023-1.783-3.58-2.038-4.86-2.038M286.68 91.59l9.21 2.805M283.612 90.57l3.07 1.02" fill="#3393DE"/><path fill="#FFF" d="M279.01 89.04l4.602 1.53"/><path fill="#5CA9E5" d="M277.474 88.53l1.535.51"/><path d="M262.385 70.174l-2.557 2.55 10.23 16.062 25.574 8.16.256-2.55-9.207-2.806-3.068-1.02-4.603-1.53-1.536-.508-4.09-1.275s-6.907-10.71-11-17.083" fill="#3393DE"/><path d="M257.782 5.668v.254-.254z" fill="#FFC633"/><path d="M273.638.823c-1.534 0-3.07.51-4.603 1.275-.257 0-.257-.256-.51-.256-1.025-.51-2.303-.764-3.327-.764-3.07 0-5.882 1.53-7.16 4.334-.256 0-.256.256-.256.256v.254c.51 0 1.28-.254 2.046-.254 1.278 0 2.3.254 3.58.764 0 .255.256.255.256.255 1.534-.765 3.07-1.02 4.86-1.02 1.278 0 2.813.255 4.09.765 2.047 1.02 3.582 2.805 4.35 4.59h.254c.767-.255 1.534-.255 2.047-.255 3.07 0 5.88 1.785 6.905 4.844 0 .51.256 1.276.256 1.786 2.557.51 4.602 2.294 5.626 4.844.51 2.04.255 4.08-.767 5.864.767 1.53 1.278 3.315.51 5.61-.255.51-.51 1.02-.767 1.53 2.56-1.02 4.605-3.06 5.883-5.865v-.256c.512-1.02.512-1.785.512-2.55 0-1.275-.256-2.294-.766-3.314.51-1.02 1.022-2.295 1.022-3.57 0-.765-.256-1.53-.512-2.04-.766-2.804-3.068-4.59-5.626-4.844 0-.765 0-1.275-.255-1.784-.768-3.06-3.58-5.1-6.65-5.1-.768 0-1.278.255-2.046.255l-.256.255c-.768-2.04-2.302-3.57-4.35-4.59-1.532-.764-2.812-1.02-4.346-1.02" fill="#333"/><path d="M310.465 110.458l36.572-.255c2.813 0 5.37 0 7.417.51l71.61 14.024-38.62 2.04-76.98-16.32" fill="#000"/><path d="M311.233 110.458c-2.046-.51-3.58 1.02-3.325 3.06l8.95 61.447c.513 2.04 2.303 3.825 4.604 3.825h97.95c2.303 0 4.094-1.785 4.35-3.825l5.114-46.404c.256-2.038-1.278-3.823-3.58-3.823h-34.78c-2.048 0-5.628-.255-7.675-.766l-71.607-13.512" fill="#A60000"/><path d="M310.465 110.458c-1.534 0-2.557 1.02-2.557 2.55v.51l8.95 61.447c.513 2.04 2.303 3.825 4.605 3.825h57.03c2.046 0 4.093-1.785 4.35-4.08l.51-5.61c-39.385-10.453-67.516-32.38-70.842-58.387l-1.278-.255h-.767" fill="#950000"/><path d="M425.296 124.737h-34.782c-1.023 0-2.557 0-4.092-.255 1.024.764 1.79 2.04 1.535 3.314l-5.116 46.914c-.254 2.295-2.3 4.08-4.346 4.08h40.92c2.302 0 4.092-1.785 4.347-3.826l5.116-46.403c.256-2.04-1.28-3.823-3.58-3.823" fill="#E71123"/><path fill="#CF0F1F" d="M424.784 132.64h-32.48l-.255 2.295h30.433l-3.58 34.675h-30.69l-.256 1.02H420.693"/><path fill="#FFC633" d="M283.356 135.19l1.28 3.315"/><path d="M319.672 229.018c.256.254.512.254.767.51.767.764 1.023 1.274.767 2.04.256-.766 0-1.276-.768-2.04-.256-.256-.512-.256-.768-.51m-35.037-90.513l8.695 21.162s1.79 2.55 2.558 5.1c.767 2.804.767 6.12.767 6.12l3.836 38.243-3.324.765 3.325-.765 1.792 13.004c2.046.765 7.672 3.314 12.275 5.61-4.603-2.296-10.23-4.845-12.275-5.61l-1.79-13.004-3.837-38.244s0-3.315-.767-6.12c-.767-2.55-2.558-5.1-2.558-5.1l-8.695-21.16" fill="#FFF"/><path fill="#334D73" d="M280.543 128.306l1.023 2.294"/><path fill="#334A6D" d="M281.566 130.6l1.79 4.59"/><path d="M280.543 128.306c-1.023.51-2.046 1.275-3.325 1.785l12.788 31.872s1.79 2.294 2.557 5.1c1.024 2.548.767 6.118.767 6.118l3.836 36.715 3.325-.764-3.834-38.244s0-3.315-.767-6.12c-.77-2.55-2.56-5.1-2.56-5.1l-8.695-21.16-1.28-3.316-1.79-4.59-1.022-2.294" fill="#3346A5"/><path d="M314.557 227.743l-3.324 2.04c2.557.51 4.603 1.02 5.882 1.784 1.023.766 1.023 1.53.767 2.296 1.79-.766 3.07-1.53 3.325-2.296.255-.764 0-1.274-.767-2.04-.256-.254-.512-.254-.768-.51-1.278-.51-3.068-1.02-5.115-1.274" fill="#333"/><path d="M300.49 209.13l-3.324.765v1.275l1.79 13.26c2.047.508 7.673 3.313 12.276 5.352l3.325-2.04c-4.603-2.294-10.23-4.843-12.275-5.608l-1.79-13.003" fill="#B18675"/><path d="M278.497 122.952l-3.325.764c-.255.255-.255.51-.255.51l2.3 5.865c1.28-.51 2.303-1.274 3.326-1.784l-2.046-5.354" fill="#FFF"/><path d="M275.172 123.717h-.51l.255.51s0-.256.255-.51" fill="#3393DE"/><path d="M378.75 234.627c1.535-.255 3.07-.51 4.86-.51 1.534 0 3.324.255 4.603.51 1.534-1.274 2.3-3.06 2.3-5.1 0-3.824-3.067-7.14-6.904-7.14-3.837 0-7.162 3.316-7.162 7.14 0 2.04 1.024 3.826 2.302 5.1" fill="#000"/><path d="M383.61 230.547c-1.28 0-2.047-1.02-2.047-2.04v-5.863c0-1.275.768-2.04 2.046-2.04 1.022 0 2.046.765 2.046 2.04v5.864c0 1.02-1.024 2.04-2.047 2.04" fill="#D1D1D1"/><path d="M320.635 92.682c-.51.254-.766.764-.766 1.274V98.8c0 1.02.51 1.53 1.532 1.53.512 0 .768-.255 1.024-.51 0 .765.767 1.53 1.534 1.53s1.28-.51 1.535-1.275c.255.765.767 1.02 1.535 1.02.767 0 1.533-.51 1.533-1.275V98.8c0 .766.512 1.275 1.28 1.275 1.022 0 1.533-.764 1.533-1.53V94.21c0-.254-.767-1.274-1.022-1.274-3.07-2.04-9.72-.254-9.72-.254" fill="#9D6853"/><path d="M284.95 48.876c-1.458-1.694-5.372-2.805-5.372-2.805s2.948 1.892 4.848 3.722l.523-.916z" fill="#FFF"/><g transform="translate(104.945 205.407)"><mask id="b" fill="#fff"><use xlink:href="#a"/></mask><path fill="#000" mask="url(#b)" d="M43.067 27.836h40.548v-16.22H43.067"/><path fill="#606060" mask="url(#b)" d="M83.235 10.65H.995l-.38.966h83"/><path fill="#757575" mask="url(#b)" d="M43.638 10.65H.996l-.38.966h43.022"/><path fill="#000" mask="url(#b)" d="M.996 28.8h82.24l.38-.964h-83"/><path d="M77.904 19.533c0 1.158-.952 1.93-2.094 1.93s-2.094-.772-2.094-1.93c0-1.35.952-2.124 2.094-2.124s2.094.772 2.094 2.123" fill="#FFF" mask="url(#b)"/><path d="M76.19 18.568l1.143-.58c-.38 0-.952 0-1.523.193-.57-.192-1.142-.192-1.523-.192.38.193.762.386.952.58-.382.386-.762 1.158-.953 2.317 0 0 .57-.966 1.523-1.93.95.964 1.523 1.93 1.523 1.93-.19-1.16-.572-1.93-1.142-2.317M.615 11.616v6.372l.762.965v1.353l-.762.965v6.566h43.023v-16.22" fill="#333" mask="url(#b)"/><path fill="#737373" mask="url(#b)" d="M43.638 20.5H.805l-.19.77h43.023"/><path fill="#000" mask="url(#b)" d="M43.638 17.988H.615l.19.966h42.833"/><path fill="#969696" mask="url(#b)" d="M.805 20.5h42.833v-1.546H.805"/><path fill="#000" mask="url(#b)" d="M4.04 20.112H40.4v-.772H4.04"/><path fill="#FFF" mask="url(#b)" d="M38.498 20.112H40.4v-.772M4.04 20.112h.572v-.772h-.57"/><path fill="#333" mask="url(#b)" d="M66.29.61H17.75L.996 10.65h82.24"/><path fill="#000" mask="url(#b)" d="M43.638.61h-25.89L.996 10.65h42.642"/></g><g><path d="M45.494 213.254l-.015-.007c-1.788 4.106-1.136 2.61-2.75 6.32-2.103 4.825 5.523 9.88 10.666 12.123l2.636-6.056c-3.476-1.517-12.525-6.39-10.538-12.38" fill="#231F1F"/><path d="M58.65 233.598c-.07.162-.23.25-.4.21-.588-.118-2.14-.515-5.007-1.767-2.71-1.18-3.777-1.855-4.167-2.148-.132-.093-.176-.27-.112-.416l.345-.79c.044-.104.156-.125.236-.072.42.305 1.688 1.155 4.207 2.254 2.652 1.157 4.54 1.65 5.1 1.79.094.022.15.134.11.22l-.313.72z" fill="#2F2F2F"/><path d="M49.008 229.374l.408.213c.11.065.25.02.3-.096.05-.117.017-.236-.084-.28l-.53-.37-.094.534z" fill="#231F1F"/><path d="M55.292 232.918c-1.31-.12-2.542-.656-3.506-1.53l.115-.264c1.128.58 2.3 1.092 3.507 1.53l-.115.264zM72.28 224.94c-3.03 5.536-12.45 1.512-15.94-.01l-2.586 5.938c5.157 2.25 13.69 5.223 15.79.4 1.614-3.71.963-2.216 2.752-6.32l-.016-.008zM42.717 219.632c3.024-5.52 12.725-2.143 16.2-.627l2.517-5.776c-5.143-2.245-13.88-4.748-15.98.076l-2.752 6.32.015.006z" fill="#505050"/><path d="M69.504 231.32l.014.006 2.75-6.32c2.102-4.825-5.677-9.528-10.834-11.777l-2.516 5.776c3.49 1.523 12.567 6.337 10.586 12.313" fill="#231F1F"/><path d="M61.434 213.23c-2.898-1.266-6.948-2.614-10.297-2.68l-2.146 4.927.21.075c3.31.117 7.23 1.444 10.057 2.677 2.84 1.237 6.48 3.21 8.82 5.557l.195.103 2.146-4.927c-2.33-2.41-6.073-4.464-8.984-5.734" fill="#5E5E5E"/><path d="M52.253 215.033c1.31.24 3.907.727 7.412 2.257 3.52 1.537 5.646 3.11 6.712 3.906l1.443-3.313c-1.097-.846-3.333-2.362-6.737-3.848-3.39-1.48-6.022-2.087-7.388-2.316l-1.442 3.313z" fill="#00BCF2"/><path d="M48.965 215.536c-2.88-.193-5.062 1.334-6.236 4.03.55.24 1.04-.173 1.04-.173s1.47-3.058 5.614-2.68c-.236-.487-.42-1.177-.42-1.177" fill="#231F1F"/><path d="M64.53 227.578l-1.456 3.344c-.377.865.217 1.84 1.147 1.878 1.6.09 3.766-.136 4.5-1.822 1.214-2.786.32-3.507.32-3.507s-1.88.56-4.51.108" fill="#2F2F2F"/><path d="M68.247 223.95c2.103 1.98 2.47 4.618 1.297 7.317-.55-.24-.582-.883-.582-.883s1.237-3.158-1.86-5.94c.517-.16 1.145-.495 1.145-.495" fill="#505050"/><path d="M48.965 215.536c-.25.57.13 1.207.728 1.26 3.472.258 7.19 1.74 9.072 2.56 1.897.83 5.512 2.547 8.065 4.917.445.403 1.168.248 1.418-.325-2.33-2.41-6.08-4.45-8.99-5.72-2.9-1.263-6.943-2.627-10.293-2.692" fill="#C8C8C8"/><path d="M57.9 232.31c-2.968-.823-5.154-1.62-7.888-3.3-.873-.61-1.16-1.572-.768-2.395.535-.952 1.072-1.905 1.6-2.88.447-.712 1.436-1.082 2.222-.634 2.29 1.157 4.623 2.175 7.042 3.073.78.305 1.35 1.217 1.035 2.056-.34 1.056-.672 2.096-1.02 3.132-.266.93-1.393 1.224-2.223.95" fill="#505050"/><path d="M59.97 230.213c-.435.403-1.14.48-1.702.304-2.703-.76-4.65-1.593-7.128-3.11-.602-.28-.936-.897-.91-1.513-.13.257-.273.51-.417.76-.354.735-.004 1.674.772 2.03 2.47 1.53 4.424 2.35 7.128 3.11.75.256 1.773.004 1.995-.822.094-.257.168-.504.26-.76" fill="#2F2F2F"/><path d="M53.545 225.962c-.063.146-.215.255-.368.292-.14.044-.31.04-.47-.03-.144-.063-.264-.185-.333-.302-.087-.16-.1-.323-.03-.485.063-.146.17-.24.333-.29.14-.044.324-.034.483.036.174.076.308.204.38.357.04.14.062.29.005.422" fill="#ACACAC"/><path d="M53.545 225.962c-.063.146-.215.255-.368.292l-.24-.557.602-.157c.04.14.062.29.005.422M52.937 225.697l-.563.225c-.087-.16-.1-.323-.03-.485.063-.146.17-.238.333-.29l.26.55z" fill="#E3E3E3"/><path d="M58.89 228.294c-.062.147-.214.255-.368.292-.14.045-.31.04-.47-.03-.144-.062-.263-.185-.333-.302-.087-.16-.102-.323-.032-.485.065-.147.173-.24.334-.29.14-.045.324-.034.484.035.173.076.308.204.38.357.056.147.062.29.005.422" fill="#ACACAC"/><path d="M58.89 228.294c-.062.147-.214.255-.368.292l-.24-.557.603-.158c.057.147.063.29.006.422" fill="#E3E3E3"/><path d="M58.283 228.03l-.564.224c-.087-.16-.102-.323-.03-.484.063-.147.17-.24.332-.29l.26.55z" fill="#E3E3E3"/><path d="M62.273 221.36c-1.06-.62-2.125-1.138-3.27-1.6-.23-.102-.357-.366-.27-.608.083-.226.36-.35.613-.256 1.183.446 2.326 1.032 3.406 1.678.214.146.297.427.152.642-.13.223-.42.29-.63.143M65.54 223.675c-.23-.187-.347-.274-.59-.43-.24-.16-.34-.482-.182-.728.144-.25.516-.315.787-.145.278.192.41.285.647.493.26.2.282.54.086.753-.194.21-.534.238-.748.057" fill="#ACACAC"/><path d="M70.323 218.625c-2.718-2.86-6.93-4.75-8.77-5.553l-.03-.013-.013-.007c-1.84-.803-6.09-2.604-10.033-2.65-.327-.003-.437.367-.437.367 3.897.078 8.535 1.857 10.332 2.64 1.81.79 6.27 2.98 8.98 5.786 0 0 .195-.333-.03-.57" fill="#C8C8C8"/></g><g><path fill="#333" d="M71.678 220.842l-.972 10.704 33.982-6.12-4.1-9.792-3.023-1.34-4.443.69-2.512.896-10.57 1.904-2.295-.362-3.64 1.43"/><path d="M100.462 215.546c-.147-.196-.35-.713-.478-.8-.038-.215-.528-.46-1.106-.577-.706-.207-2.928-.803-3.722-.882-.666.01-1.422.145-1.853.223-.432.078-.844.263-1.04.41-.305.166-1.16.985-1.59 1.062l-4.964.894-4.963.894c-.54.097-1.626-.372-1.862-.44-.234-.07-.793-.08-1.117-.02-.43.076-1.187.213-1.922.456-.716.35-2.593 1.686-3.074 2.106-.5.31-.875.71-.836.926-.07.234-.26 1.044-.26 1.044 1.162-.985 4.42-2.68 5.823-2.933 1.293-.234 2.065.958 3.248 1.963 1.622 1.592 1.985 1.75 2.955 1.573l5.61-1.01c.97-.175 1.256-.448 2.33-2.525.652-1.336 1.067-2.74 2.36-2.974 1.296-.233 4.94.22 6.37.737l.09-.127z" fill="#000"/><path d="M88.006 218.122c.193 1.074-.516 2.088-1.594 2.282-1.08.195-2.096-.51-2.29-1.582-.192-1.074.516-2.088 1.595-2.282 1.08-.195 2.096.51 2.29 1.582" fill="#FFF"/><path d="M86.47 217.624c.284-.273.46-.527.873-.712-.43.077-.97.174-1.364.467-.58-.118-1.12-.02-1.55.057.452.03.813.186 1.068.36-.354.508-.563 1.21-.585 2.323 0 0 .474-1.082 1.2-1.99.89.616 1.713 1.465 1.713 1.465-.41-1.034-.85-1.62-1.357-1.97" fill="#000"/><path d="M100.13 214.94l.02.108-.02-.107zM100.17 215.156l.108-.02-.11.02z" fill="#505050"/><path d="M101.99 216.6c-.606-.887-1.4-.966-1.4-.966s-.108.02-.128-.088l-.088.127c-1.43-.52-5.075-.97-6.37-.737-1.294.233-1.71 1.638-2.36 2.974-1.075 2.078-1.36 2.35-2.33 2.526l-5.61 1.01c-.97.175-1.334.02-2.956-1.573-1.183-1.006-1.955-2.197-3.25-1.964-1.4.252-4.66 1.947-5.82 2.932 0 0-.716.35-.975 1.395-.307 1.385-2.673 13.005-1.9 17.3 1.02 5.69 5.217 5.487 5.65 5.41.43-.078 3.846-5.237 5.017-6.778 1.17-1.543 2.25-1.737 3.113-1.89.863-.157 2.05-.372 6.58-1.187l6.473-1.166c.863-.156 2.05-.37 3.684.666 1.634 1.036 6.632 4.68 7.063 4.602.432-.078 4.436-1.352 3.412-7.043-.772-4.294-7.036-14.36-7.806-15.55" fill="#333"/><path d="M100.11 214.833l.02.108-.02-.107zM99.984 214.746l.02.106-.02-.106z" fill="#505050"/><path d="M97.24 227.985c.387 2.148-1.03 4.176-3.188 4.565-2.05.37-4.084-1.038-4.47-3.185-.386-2.147 1.03-4.176 3.08-4.545 2.158-.39 4.193 1.018 4.58 3.165" fill="#737373"/><path d="M96.81 228.063c.327 1.825-.913 3.6-2.855 3.95-1.833.33-3.614-.9-3.942-2.726-.328-1.825.912-3.6 2.746-3.93 1.94-.35 3.722.88 4.05 2.706" fill="#333"/><path d="M86.13 229.987c.327 1.825-.913 3.6-2.746 3.93-1.834.33-3.615-.9-3.943-2.725-.327-1.825.913-3.6 2.747-3.93 1.834-.33 3.615.9 3.943 2.725" fill="#737373"/><path d="M80.184 228.51c-.66.67-.917 1.715-.743 2.682.33 1.824 2.11 3.056 3.944 2.726 1.08-.195 1.864-.78 2.395-1.54l-5.596-3.87z" fill="#000"/><path d="M93.955 232.013c.97-.175 1.777-.652 2.308-1.413l-5.595-3.868c-.552.653-.83 1.59-.655 2.555.328 1.826 2.11 3.056 3.942 2.726" fill="#505050"/><path d="M80.294 224.166c.386 2.147-1.03 4.177-3.19 4.565-2.156.39-4.19-1.017-4.577-3.165-.386-2.147 1.032-4.176 3.19-4.563 2.156-.39 4.192 1.018 4.577 3.164" fill="#737373"/><path d="M79.755 224.264c.328 1.824-.912 3.6-2.746 3.93-1.835.33-3.616-.9-3.943-2.725-.328-1.826.912-3.602 2.745-3.932 1.835-.33 3.615.9 3.943 2.726" fill="#333"/><path d="M77.01 228.194c.97-.175 1.755-.76 2.198-1.393l-5.614-3.975c-.532.76-.702 1.677-.527 2.643.328 1.826 2.108 3.056 3.942 2.726" fill="#505050"/><path d="M99.37 223.723c.154.86-.377 1.62-1.24 1.775-.863.155-1.627-.372-1.78-1.23-.154-.86.377-1.62 1.24-1.776.863-.156 1.626.372 1.78 1.23M98.406 218.355c.135.752-.378 1.62-1.24 1.775-.863.155-1.646-.48-1.78-1.23-.155-.86.356-1.728 1.22-1.883.863-.156 1.646.48 1.8 1.338M101.585 220.553c.154.86-.486 1.64-1.348 1.795-.755.135-1.626-.373-1.78-1.232-.154-.858.485-1.64 1.24-1.774.863-.156 1.734.352 1.888 1.21M96.3 221.505c.153.86-.487 1.64-1.24 1.775-.864.156-1.735-.353-1.89-1.212-.153-.858.486-1.638 1.348-1.794.756-.136 1.627.372 1.78 1.23" fill="#000"/><path d="M95.73 228.257c.232 1.29-.672 2.45-1.968 2.683-1.186.213-2.438-.56-2.67-1.847-.232-1.29.674-2.45 1.86-2.662 1.295-.232 2.547.54 2.78 1.827" fill="#505050"/><path d="M85.1 223.633c.095.538-.26 1.044-.8 1.142-.538.097-1.154-.236-1.25-.772-.098-.537.365-1.064.905-1.16.54-.098 1.048.253 1.144.79M90.905 222.477c.096.537-.238 1.15-.778 1.248-.54.097-1.067-.362-1.164-.9-.096-.535.26-1.043.798-1.14.54-.097 1.048.255 1.145.792" fill="#000"/><path d="M96.922 219.398l-.116-.644-.693-.762.323-.058.274.283c.127.088.147.195.166.302.088-.127.07-.235.158-.36l.158-.362.324-.06-.386.957.116.645-.324.058z" fill="#FCD116"/><path d="M97.683 224.248l-.138.47-.217.038.162-1.582.432-.077.81 1.405-.324.06-.293-.39-.432.076zm.392-.292l-.184-.41s-.126-.088-.146-.195c.02.108.04.216-.07.235l-.03.45.43-.08z" fill="#7FBA00"/><path d="M95.267 222.578l-.274-.283c-.127-.088-.147-.196-.274-.284.02.11.038.216-.05.343l-.05.34-.324.06.276-.937-.566-.674.324-.058.166.303c.127.087.146.195.254.175-.02-.107-.02-.107.07-.234l.05-.34.43-.08-.403.85.693.762-.323.058z" fill="#00BCF2"/><path d="M99.4 220.17c.108-.02.324-.057.43-.077.218-.04.325-.058.452.03.11-.02.236.068.255.176.038.213-.05.34-.138.466.106-.018.34.05.38.265.038.215-.05.342-.158.362-.088.126-.285.273-.5.31l-.432.08-.29-1.61zm.44.587l.108-.02c.215-.04.304-.165.284-.273-.038-.214-.146-.195-.253-.175l-.218.037.077.43zm.135.75l.108-.018c.216-.04.412-.186.374-.402-.02-.106-.255-.175-.47-.137l-.11.02.098.538z" fill="#E81123"/><path d="M85.31 229.138l-1.62.29-.308-1.717c-.02-.106-.273-.282-.382-.263l-1.403.253c-.215.04-.284.273-.265.38l.31 1.72-1.728.308c-.107.02-.196.147-.157.362l.25 1.396c.02.107.148.194.255.176l1.726-.312.31 1.718c.038.215.165.303.38.264l1.403-.253c.11-.02.305-.166.266-.382l-.308-1.716 1.618-.293c.215-.04.305-.166.284-.274l-.25-1.395c-.04-.213-.166-.302-.38-.262M91.557 227.347c-.354.507-.58 1.102-.465 1.746.232 1.288 1.484 2.06 2.67 1.846.756-.137 1.257-.45 1.612-.956l-3.817-2.637z" fill="#737373"/><path d="M78.676 224.458c.232 1.288-.565 2.43-1.86 2.663-1.295.234-2.44-.557-2.67-1.846-.233-1.29.565-2.43 1.86-2.663 1.294-.232 2.44.56 2.67 1.848" fill="#505050"/><path d="M74.503 223.547c-.373.4-.473 1.083-.358 1.727.232 1.29 1.376 2.08 2.67 1.846.648-.116 1.15-.428 1.484-1.043l-3.797-2.53z" fill="#737373"/><path d="M85.31 229.138l-1.62.29-.308-1.717c-.02-.106-.273-.282-.382-.263l-1.403.253c-.215.04-.284.273-.265.38l.31 1.72 2.396 1.562 1.618-.293c.215-.04.305-.166.284-.274l-.25-1.395c-.04-.213-.166-.302-.38-.262" fill="#505050"/><path d="M93.685 230.51c-.97.175-1.97-.422-2.162-1.495-.173-.967.535-1.98 1.506-2.156 1.08-.195 2.096.51 2.27 1.475.193 1.074-.536 1.98-1.615 2.175m-.637-3.543c-.863.156-1.483 1.044-1.31 2.01.175.966 1.065 1.582 1.928 1.425.97-.174 1.59-1.062 1.418-2.028-.174-.966-1.064-1.582-2.036-1.407M76.74 226.69c-1.08.195-1.97-.42-2.163-1.494-.194-1.073.427-1.96 1.505-2.155.972-.174 1.97.422 2.163 1.495.193 1.074-.536 1.98-1.506 2.156m-.638-3.542c-.97.175-1.59 1.063-1.417 2.03.173.965 1.064 1.58 2.035 1.405.97-.174 1.59-1.062 1.417-2.028-.174-.966-1.065-1.582-2.035-1.407" fill="#000"/></g><g transform="translate(0 216)"><mask id="d" fill="#fff"><use xlink:href="#c"/></mask><path d="M9.045 1.074c0 .332-.167.5-.5.5h-2.33c-.167 0-.5-.168-.5-.5v-.5c0-.332.333-.498.5-.498h2.33c.333 0 .5.166.5.5v.498z" fill="#737373" mask="url(#d)"/><path d="M28.855 15.38c0 1.33-1 2.495-2.497 2.495H2.718c-1.33 0-2.497-1.165-2.497-2.495V3.403c0-1.33 1.167-2.496 2.5-2.496h23.638c1.498 0 2.497 1.165 2.497 2.496V15.38z" fill="#969696" mask="url(#d)"/><path d="M27.024 9.39c0 4.326-3.496 7.82-7.99 7.82-4.33 0-7.825-3.494-7.825-7.82 0-4.49 3.495-7.984 7.823-7.984 4.495 0 7.99 3.494 7.99 7.985z" fill="#737373" mask="url(#d)"/><path d="M25.192 9.39c0 3.328-2.663 5.99-6.16 5.99-3.33 0-5.992-2.662-5.992-5.99 0-3.326 2.663-6.154 5.993-6.154 3.496 0 6.16 2.828 6.16 6.155z" fill="#505050" mask="url(#d)"/><path fill="#333" mask="url(#d)" d="M20.365 11.22h-2.497l-1-.997V8.56l1-1h2.497l1 1v1.663M27.19 3.07c0 .333-.333.665-.832.665-.333 0-.666-.332-.666-.665s.333-.666.666-.666c.5 0 .832.333.832.666zM12.54 3.236c0 .5-.5.998-.998.998h-4.33c-.498 0-.83-.5-.83-.998 0-.5.332-.832.83-.832h4.33c.5 0 .998.333.998.832z"/></g></g></svg>