<svg width="255" height="265" viewBox="0 0 255 265" xmlns="http://www.w3.org/2000/svg" xmlns:xlink="http://www.w3.org/1999/xlink"><defs><path id="a" d="M0 0h293v281H0z"/></defs><g transform="translate(-13 -16)" fill="none" fill-rule="evenodd"><mask id="b" fill="#fff"><use xlink:href="#a"/></mask><g mask="url(#b)"><path d="M84.067 72.778c1.818-.387 3.18-1.995 3.18-3.93 0-1.93-1.362-3.54-3.18-3.927l-32.78-.043c-7.633 0-13.782-6.374-13.418-14.09.342-7.224 6.567-12.782 13.8-12.782h70.017c.056 0 .002.073 1.372-.67.715-.388 1.24-1.12 1.235-1.934-.01-1.42-1.163-2.565-2.582-2.565H91.43c-4.42 0-8.277-3.333-8.564-7.742-.313-4.83 3.514-8.844 8.276-8.844h111.23c4.417 0 8.272 3.33 8.558 7.736.313 4.83-3.51 8.85-8.27 8.85h-35.277c-2.936 0-5.494 2.262-5.583 5.196-.09 3.037 2.343 5.528 5.356 5.528l70.995-.003c16.212.003 29.382 12.986 29.687 29.118.317 16.644-13.627 30.27-30.275 30.27h-7.295c-17.82 0-31.814 15.26-30.27 33.015l.586 6.762c4.294-4.026 10.28-6.267 16.783-5.522 9.58 1.1 17.278 8.83 18.334 18.415 1.394 12.63-8.454 23.317-20.805 23.317-8.188 0-30.64.417-30.64.417l-25.375.11c-.184.088-.502.252-1.096.574-.716.39-1.242 1.12-1.236 1.935.01 1.42 1.163 2.564 2.582 2.564h30.284c4.418 0 8.276 3.333 8.562 7.743.314 4.83-3.512 8.843-8.275 8.843H78.47c-4.416 0-8.27-3.33-8.556-7.737-.313-4.83 3.51-8.85 8.27-8.85l37.996-.097c5.005-.013 9.057-4.075 9.057-9.082 0-5.015-4.065-9.083-9.082-9.083H55.063c-13.157 0-24.28-10.314-24.642-23.467-.374-13.648 10.576-24.832 24.142-24.832h17.693c2.874 0 5.363-2.24 5.403-5.114.04-2.903-2.3-5.162-5.195-5.162H30.41C20.797 107.692 13 99.897 13 90.282c0-9.614 7.796-17.5 17.41-17.504h53.657z" fill="#001F50"/><path d="M240.9 89.933c0-1.067-.864-1.93-1.93-1.93-1.063 0-1.926.863-1.926 1.93 0 1.065.863 1.932 1.926 1.932 1.066 0 1.93-.867 1.93-1.932M130.52 24.708c0-1.067-.863-1.93-1.93-1.93-1.068 0-1.932.863-1.932 1.93 0 1.065.864 1.927 1.93 1.927 1.07 0 1.93-.862 1.93-1.927M96.17 120.81c0-1.07-.862-1.934-1.93-1.934-1.067 0-1.93.865-1.93 1.933 0 1.067.863 1.93 1.93 1.93 1.068 0 1.93-.863 1.93-1.93M66.838 137.403c0-1.487-1.208-2.698-2.703-2.698-1.488 0-2.698 1.21-2.698 2.698 0 1.493 1.21 2.703 2.698 2.703 1.495 0 2.703-1.21 2.703-2.703M114.977 202.64c0-1.487-1.208-2.698-2.703-2.698-1.49 0-2.698 1.21-2.698 2.698 0 1.493 1.21 2.703 2.698 2.703 1.495 0 2.703-1.21 2.703-2.703M235.882 60.215c0-1.492-1.214-2.7-2.703-2.7-1.488 0-2.705 1.208-2.705 2.7 0 1.494 1.217 2.7 2.704 2.7 1.488 0 2.702-1.206 2.702-2.7M169.497 89.16c0-.425-.34-.77-.772-.77-.427 0-.77.345-.77.77 0 .426.343.773.77.773.43 0 .772-.347.772-.773M59.84 157.46c0-.86-.7-1.553-1.558-1.553-.857 0-1.55.694-1.55 1.553 0 .857.693 1.554 1.55 1.554.86 0 1.558-.697 1.558-1.554M152.837 65.433c0-11.018-8.925-19.947-19.946-19.947-11.012 0-19.94 8.93-19.94 19.947 0 11.015 8.928 19.945 19.94 19.945 11.022 0 19.947-8.93 19.947-19.945" fill="#FFF"/><path d="M132.89 85.378c-11.012 0-19.94-8.93-19.94-19.945 0-5.61 2.32-10.67 6.042-14.293l28.194 28.19c-3.627 3.724-8.687 6.048-14.295 6.048" fill="#C6C6C6"/><g><path d="M176.507 355.895c1.965-12.25 11.764-91.916 11.764-91.916s1.753-1.146 2.217.478c.213.75 9.755 38.308 9.755 38.308s6.314 42.444 8.815 53.13h13.154l-4.06-56.434-1.74-62.303-47.382-.03c-4.564 21.18-5.827 96.294-6.787 118.765h14.267z" fill="#006FC8"/><path fill="#0063B0" d="M167.66 247.633l48.752-10.475.44 17.247 1.296 45.057 4.064 56.432h-2.473l-9.263-56.383-4.338-43.077"/><path d="M176.507 355.895c1.965-12.25 11.764-91.916 11.764-91.916l-11.095 36.488-4.324 55.427h3.657z" fill="#0063B0"/><path d="M139.016 118.72c.126-.506.948-.696 1.84-.425.635.193 1.13.57 1.316.955.347-.115.823-.113 1.326.04.635.194 1.13.572 1.317.955.346-.114.82-.11 1.325.04.637.196 1.13.572 1.317.956.346-.114.822-.11 1.324.042.892.27 1.514.902 1.39 1.407-.126.504-.95.694-1.84.422-.637-.193-1.203.02-1.39-.362-.346.113-.75-.48-1.252-.633-.636-.194-1.13-.57-1.318-.954-.346.114-.822.11-1.324-.04-.637-.196-1.13-.572-1.318-.955-.346.113-.822.11-1.324-.042-.892-.27-1.513-.902-1.388-1.407" fill="#E3C4AC"/><path d="M96.388 111.24L94.81 135.8c-.052.82-.76 1.44-1.578 1.39l-8.042-.515c-.82-.052-1.44-.76-1.39-1.58l1.576-24.56c.052-.82.76-1.442 1.578-1.39l8.045.515c.82.052 1.44.76 1.388 1.58" fill="#E81123"/><path fill="#E81123" d="M180.43 124.285l-.352 5.508-90.517 1.633 1.063-16.518"/><path fill="#D91021" d="M95.47 125.525l.65-10.087 9.397 9.858 74.73 1.874-.17 2.622-78.098 1.46-.01.144-6.88.016.005-.063"/><path d="M183.063 124.21l-.394 6.117c-.013.204-.19.36-.393.346l-2.002-.127c-.205-.014-.36-.19-.347-.394l.393-6.116c.013-.204.19-.36.394-.347l2.003.128c.204.013.36.19.346.393" fill="#E81123"/><path d="M143.754 132.037c-.388 1.177-.777 2.767-.777 2.767l-4.577-1.124c-.72-1.53-1.162-2.734-1.4-3.68l6.754 2.037z" fill="#E3C4AC"/><path d="M151.71 128.66l-.33.692-.002-.003-2.634 5.766-1.222 12.228-11.522-.377c.69-4.168 1.55-8.866 2.607-13.873 1.223.352 4.39.447 4.39.447-.942-5.858 4.71-5.52 4.833-6.48-1.355-3.497.688-6.738 3.425-5.688-.946 3.458.454 7.29.454 7.29" fill="#F7CAA7"/><path d="M148.492 138.846l-1.113 9.34c.11 1.36 1.03 2.518 2.33 2.935 3.154 1.012 21.026 7.09 25.694 8.678.475.16 19.936.27 33.916.33 7.377.03 12.985 6.636 11.82 13.92l-.263 1.645-3.477.692v71.247H167.033v-72.864c0-1.194-.758-2.26-1.888-2.648l-21.54-7.675c-4.983-1.72-8.526-6.155-9.1-11.397-1.306-11.933.626-.833 0-16.137l13.987 1.936z" fill="#FFB900"/><path d="M173.96 167.7l33.918 36.606 9.522-21.44v64.767h-50.367v-72.866c0-1.194-.758-2.257-1.888-2.647l-21.54-7.675c-4.983-1.72-8.526-6.156-9.1-11.396-.28-2.56-.407-4.776-.434-6.68-.068-7.033 1.152-9.73 1.152-9.73l5.106 16.68c.402 1.616 1.586 2.924 3.155 3.484L173.96 167.7z" fill="#F0AE00"/><path d="M191.165 237.908c-.392.4-1.032.407-1.432.015l-33.53-32.818c-.4-.39-.407-1.03-.017-1.43l23.346-23.853c.39-.4 1.03-.407 1.43-.016l33.533 32.818c.4.39.406 1.033.014 1.432l-23.345 23.852z" fill="#000"/><path fill="#E81123" d="M190.33 234.866l-31.083-30.42v-.002l21.12-21.58 31.084 30.422"/><path fill="#EE4D5A" d="M190.33 234.866l-31.083-30.42v-.002l52.204 8.842"/><path d="M180.347 211.705c-.516.53-.506 1.377.025 1.893.53.517 1.376.505 1.892-.024.516-.53.506-1.377-.025-1.894-.53-.515-1.377-.504-1.893.025M194.855 215.186c-.383.393-.374 1.02.017 1.403.393.382 1.02.374 1.403-.02.383-.39.376-1.02-.017-1.402-.393-.382-1.02-.375-1.403.018M170.932 209.457c-.387.397-.378 1.032.018 1.42.398.387 1.032.38 1.42-.02.387-.396.38-1.03-.018-1.418-.397-.388-1.032-.38-1.42.017M171.71 203.284c-.516.528-.506 1.377.024 1.893.53.517 1.377.505 1.893-.024.516-.53.505-1.377-.025-1.894-.53-.516-1.376-.505-1.892.024M188.996 206.67c-.26.264-.253.687.01.945.266.258.69.253.948-.012s.253-.688-.012-.946c-.265-.26-.688-.253-.946.012M194.284 205.512c-.258.265-.252.688.012.946.265.258.69.253.947-.01.258-.266.253-.69-.012-.947-.264-.258-.687-.252-.946.012M203.222 209.883c-.258.265-.252.688.012.946.265.257.69.252.947-.012.26-.265.254-.688-.01-.946-.266-.26-.69-.254-.948.01M191.07 226.997c-.257.265-.25.688.013.946.265.258.688.253.946-.012.258-.264.253-.687-.012-.945-.265-.26-.69-.253-.947.012M183.526 207.183c-.258.265-.252.688.012.946.265.257.688.252.946-.013.26-.264.254-.688-.01-.945-.266-.26-.69-.254-.948.01M180.256 188.015c-.258.265-.252.688.012.946.265.26.69.254.947-.01.258-.266.253-.69-.012-.947-.265-.26-.69-.253-.947.012" fill="#FFF"/><path fill="#FFF" d="M181.392 212.836l2.72-5.026 5.38-.505 5.25-1.147 8.886 4.345.15-.304-8.992-4.397-.06.01-5.286 1.157-5.54.52-2.68 4.952-9.375-2.41.99-5.785-.333-.056-1.043 6.092"/><path d="M166.923 218.387l.238-.006c-.102-.243-.165-.505-.17-.784-.03-1.2.917-2.196 2.116-2.224l3.683-.088c-1.145-1.092-1.554-2.48-.894-3.32 2.21.37 5.554.817 8.337 1.167.584.075 1.11.202 1.583.352l12.353-3.473v11.744l-6.978 1.645-.028-.042-14.1 3.49c-1.16.3-2.343-.4-2.64-1.56-.055-.207-.066-.414-.06-.615l-.853.113c-1.186.157-2.278-.676-2.438-1.864-.014-.113-.013-.224-.01-.334-1.195.028-2.205-.773-2.242-1.965-.037-1.2.905-2.2 2.103-2.236" fill="#F7CAA7"/><path d="M181.947 213.445l12.222-3.437v11.747l-6.98 1.644-.027-.042-8.54 2.114c-.128.033 3.324-12.027 3.324-12.027" fill="#E3C4AC"/><path d="M181.625 212.05l23.832-5.843c1.497-.388 2.5-1.792 2.382-3.333l-1.15-24.424 14.427-8.365 3.914 35.823c.468 4.865-2.702 9.336-7.446 10.508l-33.7 8.867-2.26-13.232z" fill="#FFB900"/><path d="M213.207 206.39c.15 1.962-1.127 3.75-3.034 4.243l-27.554 7.24-.996-5.822 23.832-5.843c1.497-.387 2.5-1.792 2.383-3.333l-1.15-24.424 6.517 27.94z" fill="#FFCB40"/><path d="M183.65 146.01h17.787v14.735h-.008c-.086 3.1-2.37 6.956-8.887 6.956s-8.8-3.854-8.885-6.955h-.008V146.01z" fill="#F7CAA7"/><path d="M202.973 146.742c-5.483 6.57-10.42 9.89-19.323 12.5v-10.273l19.323-2.27v.042z" fill="#E3C4AC"/><path d="M174.132 146.39l2.96-6.647 1.12-2.512c.206-.462-.013-1.003-.482-1.193l-1.863-.755c-.55-.223-.746-.9-.4-1.383l4.483-5.588c.41-.51.75-1.074 1.015-1.673l3.704-8.43 27.526 6.072-.75 4.027 5.78 1.078s-3.5 33.8-41.985 19.644c-1.062-.392-1.57-1.607-1.108-2.642" fill="#F7CAA7"/><path d="M213.32 125.396s2.265-3.796-2.006-7.895c-3.894-3.734-11.267-7.435-18.95-8.916-4.232-.816-2.255-4.035-2.255-4.035s-6 1.556-7.294 8.272c-1.21 6.28 4.933 7.42 7.82 7.975l3.917.756c1.545.298 2.4 1.967 1.737 3.395l-3.992 8.608 2.01 1.28c.402.255.936.154 1.212-.234 1.032-1.455 3.64-4.495 6.377-2.715 2.977 1.937 1.417 5.06-.107 6.394-1.523 1.335-3.402 1.506-4.113 3.506-.36 1.018-2.387 6.616 3.334 9.383 14.287-4.954 16.103-21.514 16.103-21.514s.298-3.722-3.793-4.26" fill="#593A29"/><path d="M185.37 129.564c-.12.644.302 1.26.945 1.382.644.12 1.263-.305 1.382-.947.12-.644-.304-1.262-.946-1.383-.642-.12-1.26.304-1.38.947" fill="#000"/><path d="M178.196 140.224l7.414 3.077s-4.112 1.73-8.756-.06l1.342-3.016z" fill="#7C7C7C"/><path d="M201.437 160.173c-.092 3.357-2.093 7.527-9.144 7.527-1.463 0-2.717-.186-3.805-.5 8.49.28 10.994-3.263 12.95-7.027" fill="#E3C4AC"/><path d="M178.196 140.224l7.414 3.077s-3.84 1.117-8.484-.673l1.07-2.403z" fill="#FFF"/></g></g></g></svg>