<?xml version="1.0" encoding="UTF-8"?>
<svg width="517px" height="276px" viewBox="0 0 517 276" version="1.1" xmlns="http://www.w3.org/2000/svg" xmlns:xlink="http://www.w3.org/1999/xlink">
    <!-- Generator: Sketch 42 (36781) - http://www.bohemiancoding.com/sketch -->
    <title>Group 2</title>
    <desc>Created with Sketch.</desc>
    <defs>
        <polygon id="path-1" points="164.330481 89.9981053 164.330481 0.922105263 0.00158653846 0.922105263 0.00158653846 89.9981053 164.330481 89.9981053"></polygon>
        <polygon id="path-3" points="164.330481 89.9981053 164.330481 0.922105263 0.00158653846 0.922105263 0.00158653846 89.9981053 164.330481 89.9981053"></polygon>
        <polygon id="path-5" points="103.578 56.9988 103.578 0.584 0.001 0.584 0.001 56.9988 103.578 56.9988"></polygon>
        <polygon id="path-7" points="103.578 56.9988 103.578 0.584 0.001 0.584 0.001 56.9988 103.578 56.9988"></polygon>
        <polygon id="path-9" points="0 122 463 122 463 0 0 0"></polygon>
    </defs>
    <g id="4.6_Squads" stroke="none" stroke-width="1" fill="none" fill-rule="evenodd">
        <g id="4.7_Desktop_Community_Squads_Non-Admin-Empty-Goal" transform="translate(-77.000000, -1009.000000)">
            <g id="Group-2" transform="translate(77.000000, 1009.000000)">
                <g id="Page-1-Copy-2" transform="translate(352.000000, 0.000000)">
                    <g id="Group-3">
                        <mask id="mask-2" fill="white">
                            <use xlink:href="#path-1"></use>
                        </mask>
                        <g id="Clip-2"></g>
                        <path d="M164.332067,64.2707368 C164.332067,50.0570526 152.756683,38.5402105 138.477837,38.5402105 C135.821971,38.5402105 133.261298,38.9412632 130.84976,39.6770526 C128.000337,17.8149474 109.231587,0.920210526 86.4837981,0.920210526 C66.2935096,0.920210526 49.2350481,14.2307368 43.6599519,32.5086316 C39.6523558,30.5728421 35.1719712,29.4581053 30.4187019,29.4581053 C13.6204327,29.4581053 0.00158653846,43.0086316 0.00158653846,59.7296842 C0.00158653846,76.4002105 13.5442788,89.916 30.2790865,89.9949474 L30.2822596,89.9981053 L137.649663,89.9981053 L137.671875,89.9602105 C137.941587,89.9696842 138.204952,89.9981053 138.477837,89.9981053 C152.756683,89.9981053 164.332067,78.4781053 164.332067,64.2707368" id="Fill-1" fill="#EDEDED" mask="url(#mask-2)"></path>
                    </g>
                    <g id="Group-3">
                        <mask id="mask-4" fill="white">
                            <use xlink:href="#path-3"></use>
                        </mask>
                        <g id="Clip-2"></g>
                        <path d="M164.332067,64.2707368 C164.332067,50.0570526 152.756683,38.5402105 138.477837,38.5402105 C135.821971,38.5402105 133.261298,38.9412632 130.84976,39.6770526 C128.000337,17.8149474 109.231587,0.920210526 86.4837981,0.920210526 C66.2935096,0.920210526 49.2350481,14.2307368 43.6599519,32.5086316 C39.6523558,30.5728421 35.1719712,29.4581053 30.4187019,29.4581053 C13.6204327,29.4581053 0.00158653846,43.0086316 0.00158653846,59.7296842 C0.00158653846,76.4002105 13.5442788,89.916 30.2790865,89.9949474 L30.2822596,89.9981053 L137.649663,89.9981053 L137.671875,89.9602105 C137.941587,89.9696842 138.204952,89.9981053 138.477837,89.9981053 C152.756683,89.9981053 164.332067,78.4781053 164.332067,64.2707368" id="Fill-1" fill="#EDEDED" mask="url(#mask-4)"></path>
                    </g>
                    <path d="M43.5013387,33.0231588 C39.5110284,31.1047361 35.0464339,30 30.3130785,30 C13.5708494,30 0,43.4320885 0,60 C0,76.5240976 13.4981258,89.9186313 30.1707933,89.9937409 L30.1739552,90 L124,90 L43.5013387,33.0231588 Z" id="Fill-4" fill="#E9E9E9"></path>
                </g>
                <g id="Page-1" transform="translate(57.000000, 45.000000)">
                    <g id="Group-3">
                        <mask id="mask-6" fill="white">
                            <use xlink:href="#path-5"></use>
                        </mask>
                        <g id="Clip-2"></g>
                        <path d="M103.579,40.7048 C103.579,31.7028 96.283,24.4088 87.283,24.4088 C85.609,24.4088 83.995,24.6628 82.475,25.1288 C80.679,11.2828 68.849,0.5828 54.511,0.5828 C41.785,0.5828 31.033,9.0128 27.519,20.5888 C24.993,19.3628 22.169,18.6568 19.173,18.6568 C8.585,18.6568 0.001,27.2388 0.001,37.8288 C0.001,48.3868 8.537,56.9468 19.085,56.9968 L19.087,56.9988 L86.761,56.9988 L86.775,56.9748 C86.945,56.9808 87.111,56.9988 87.283,56.9988 C96.283,56.9988 103.579,49.7028 103.579,40.7048" id="Fill-1" fill="#EDEDED" mask="url(#mask-6)"></path>
                    </g>
                    <g id="Group-3">
                        <mask id="mask-8" fill="white">
                            <use xlink:href="#path-7"></use>
                        </mask>
                        <g id="Clip-2"></g>
                        <path d="M103.579,40.7048 C103.579,31.7028 96.283,24.4088 87.283,24.4088 C85.609,24.4088 83.995,24.6628 82.475,25.1288 C80.679,11.2828 68.849,0.5828 54.511,0.5828 C41.785,0.5828 31.033,9.0128 27.519,20.5888 C24.993,19.3628 22.169,18.6568 19.173,18.6568 C8.585,18.6568 0.001,27.2388 0.001,37.8288 C0.001,48.3868 8.537,56.9468 19.085,56.9968 L19.087,56.9988 L86.761,56.9988 L86.775,56.9748 C86.945,56.9808 87.111,56.9988 87.283,56.9988 C96.283,56.9988 103.579,49.7028 103.579,40.7048" id="Fill-1" fill="#EDEDED" mask="url(#mask-8)"></path>
                    </g>
                    <path d="M27.3637453,20.9146672 C24.8537114,19.6996662 22.0453375,19 19.0679042,19 C8.53650203,19 0,27.5069894 0,38 C0,48.4652618 8.49075656,56.9484665 18.9784022,56.9960359 L18.9803912,57 L78,57 L27.3637453,20.9146672 Z" id="Fill-4" fill="#E9E9E9"></path>
                </g>
                <g id="Page-1" transform="translate(0.000000, 154.000000)">
                    <path d="M214,79 L214,34 C165.062815,34 170.150773,75.3442431 170.150773,75.3442431 L214,79 Z" id="Fill-1" fill="#D83B01"></path>
                    <mask id="mask-10" fill="white">
                        <use xlink:href="#path-9"></use>
                    </mask>
                    <g id="Clip-4"></g>
                    <polygon id="Fill-3" fill="#FFFFFF" mask="url(#mask-10)" points="209 79 213 79 213 30 209 30"></polygon>
                    <path d="M210,66 L210,62.5433745 L210,53.3607244 C210,53.3607244 207.524966,59.466459 196.004876,58.8601889 C188.913177,56.9667024 181.686809,54.9972739 174.480052,53 C173.920457,54.015091 173.432771,55.0352449 173,56.0465388 C185.512456,59.5158212 198.13997,62.93321 210,66" id="Fill-5" fill="#990000" mask="url(#mask-10)"></path>
                    <polygon id="Fill-6" fill="#C6C6C6" mask="url(#mask-10)" points="213 47 209 52.9228417 209 65.9161408 213 67"></polygon>
                    <polygon id="Fill-7" fill="#FFF100" mask="url(#mask-10)" points="237 70 249 70 249 60 237 60"></polygon>
                    <path d="M252,81 C251.895973,76.3197636 251.52727,71.0236376 250.789865,65 C240.587333,65.6316481 244.826098,65.5567958 232.128239,65.1510177 C227.385141,66.0912672 223.765271,69.3532502 221,73.7183191 C232.816923,76.7557452 243.472432,79.2954695 252,81" id="Fill-8" fill="#FFFFFF" mask="url(#mask-10)"></path>
                    <path d="M251,65.9403126 C250.96033,65.6281339 250.925949,65.3172139 250.883634,65 C240.635474,65.6042169 244.894741,65.533725 232.143386,65.1435015 C230.646494,65.4254694 229.263323,65.9289835 227.98065,66.6150215 C227.966104,66.6225742 227.946269,66.6351621 227.931723,66.6439736 C226.779962,67.2658135 225.712831,68.0361901 224.723718,68.92741 C224.518755,69.1111927 224.316437,69.3037868 224.114118,69.4988986 C223.914444,69.6965279 223.713448,69.9004511 223.519064,70.1094094 C222.601358,71.0874856 221.776215,72.2002518 221,73.3658869 C226.384581,74.6876115 231.516595,75.9061156 236.333892,77 C240.421254,72.6949544 245.272932,68.7851673 251,65.9403126" id="Fill-9" fill="#FFF100" mask="url(#mask-10)"></path>
                    <path d="M413,95.3915783 C390.43966,88.7631001 357.103781,80.9698775 322.656401,68.7785382 L316.61261,66.6655641 C312.371078,69.8989363 291.598577,78.8060354 268.671232,78.8060354 C241.866737,78.8060354 83.566863,29.4106991 83.566863,29.4106991 C76,27.1425126 76,35.0087763 76,35.0087763 L76,109.136345 C76,117 83.9024107,117 83.9024107,117 L413,117 L413,95.3915783 Z" id="Fill-10" fill="#D83B01" mask="url(#mask-10)"></path>
                    <path d="M316.545993,66 C312.300458,69.1043227 291.505732,77.6618805 268.559375,77.6618805 C268.105433,77.6618805 267.608197,77.644342 267.080785,77.6180342 C266.392,77.6180342 265.70584,77.6230452 265,77.6080121 C265,77.6080121 294.839448,91.2404736 345,75.1526157 C337.651656,72.9590446 330.151123,70.5950991 322.592863,68.0294604 L316.545993,66 Z" id="Fill-11" fill="#B82F01" mask="url(#mask-10)"></path>
                    <path d="M413,118 L413,109 L76,109 L76,109.754671 C76,118 83.9024107,118 83.9024107,118 L413,118 Z" id="Fill-12" fill="#B82F01" mask="url(#mask-10)"></path>
                    <path d="M125.5,121 C148.969655,121 168,102.197176 168,78.9993454 C168,55.8028241 148.969655,37 125.5,37 C102.027696,37 83,55.8028241 83,78.9993454 C83,102.197176 102.027696,121 125.5,121" id="Fill-13" fill="#001F50" mask="url(#mask-10)"></path>
                    <path d="M359.5,122 C373.582681,122 385,110.58209 385,96.4986785 C385,82.4152674 373.582681,71 359.5,71 C345.417319,71 334,82.4152674 334,96.4986785 C334,110.58209 345.417319,122 359.5,122" id="Fill-14" fill="#001F50" mask="url(#mask-10)"></path>
                    <path d="M188.5,89 C194.297883,89 199,84.2988978 199,78.4993462 C199,72.7011022 194.297883,68 188.5,68 C182.702117,68 178,72.7011022 178,78.4993462 C178,84.2988978 182.702117,89 188.5,89" id="Fill-15" fill="#A80000" mask="url(#mask-10)"></path>
                    <path d="M412,95 L412,108 L429.953918,108 L430,101.019255 C425.285592,99.0680359 419.177215,97.0962773 412,95" id="Fill-16" fill="#FFFFFF" mask="url(#mask-10)"></path>
                    <path d="M412,109 L412,118 L422.497647,118 C425.526308,118 427.494938,117.702837 428.658919,116.639746 C428.951519,116.370485 429.194068,116.05658 429.389134,115.685475 C429.485384,115.499922 429.570084,115.303209 429.647084,115.085568 C429.79595,114.661448 429.901184,114.173151 429.966633,113.619284 C429.997433,113.341652 430,109.531545 430,109 L412,109 Z" id="Fill-17" fill="#C6C6C6" mask="url(#mask-10)"></path>
                    <path d="M256.115981,40.7812693 C256.115981,40.7812693 256.118538,40.8357519 256.121096,40.9340863 C256.154338,41.8177671 256.044382,46.545792 255.903742,47.3829634 C255.763101,48.2201347 257.664308,52.4179511 257.802392,52.8099599 C257.939197,53.2059553 258.740849,54.4165316 255.717073,54.319526 L254.107375,62.2075406 C254.107375,62.2075406 253.82098,63.4473515 251.338031,62.8254528 C248.858918,62.2075406 242.155467,60.3179252 239,56.2569797 C240.619926,40.6244658 243.216666,38 243.216666,38 L255.695338,38.0571403" id="Fill-18" fill="#62402C" mask="url(#mask-10)"></path>
                    <path d="M253.008494,50.999947 C253.559323,50.9943015 254.002811,50.5440732 253.999987,49.9922259 C253.995749,49.44179 253.540962,48.9957958 252.990133,49.0000299 C252.437892,49.0056754 251.994404,49.4559037 252.000053,50.007751 C252.002878,50.5595983 252.456253,51.0055925 253.008494,50.999947" id="Fill-19" fill="#000000" mask="url(#mask-10)"></path>
                    <path d="M256,57 L252,57.0323383 C252,57.0323383 253.571618,58.7226368 255.543766,59 C256.002652,57.2947761 256,57 256,57" id="Fill-20" fill="#FFFFFF" mask="url(#mask-10)"></path>
                    <path d="M252,44 C252,44 245.529906,47.3491133 245.583135,53 C245.501891,44.0540818 242,44.0831013 242,44.0831013 L252,44 Z" id="Fill-21" fill="#4F3125" mask="url(#mask-10)"></path>
                    <path d="M259,41.0974931 C257.454943,32.3939464 250.091516,25.6896712 241.037247,25.0632844 C240.577765,25.032288 240.120886,25 239.653595,25 C228.799146,25 220,33.7306686 220,44.5006458 C220,55.2706229 228.799146,64 239.653595,64 C239.883986,63.997417 240.10006,63.9793357 240.312229,63.9496308 C240.305721,63.9496308 240.297911,63.9522138 240.292704,63.9522138 C240.441092,63.932841 240.585575,63.9108852 240.72355,63.8824718 C240.745678,63.8798887 240.770409,63.8747227 240.791236,63.8682651 C240.787331,63.8682651 240.779521,63.865682 240.773012,63.865682 C244.381183,63.1153095 245.103598,58.8700864 245.064548,54.3910985 C245.022896,49.4781601 245.064548,41.0974931 245.064548,41.0974931 L259,41.0974931 Z" id="Fill-22" fill="#001F50" mask="url(#mask-10)"></path>
                    <polygon id="Fill-23" fill="#FFFFFF" mask="url(#mask-10)" points="243 40.1562392 243.030459 44 261 43.8299343 259.539237 40"></polygon>
                    <path d="M125.000659,104 C138.255128,104 149,93.2564462 149,80.000659 C149,66.74619 138.255128,56 125.000659,56 C111.74619,56 101,66.74619 101,80.000659 C101,93.2564462 111.74619,104 125.000659,104" id="Fill-24" fill="#C6C6C6" mask="url(#mask-10)"></path>
                    <path d="M124.999358,99 C135.493093,99 144,90.4918094 144,79.9993583 C144,69.5069072 135.493093,61 124.999358,61 C114.508191,61 106,69.5069072 106,79.9993583 C106,90.4918094 114.508191,99 124.999358,99" id="Fill-25" fill="#FFFFFF" mask="url(#mask-10)"></path>
                    <path d="M142,90.7440839 L109.762114,68 C107.405434,71.2185648 106,75.1601501 106,79.4321835 C106,90.2365156 114.881429,99 125.834164,99 C132.512988,99 138.405359,95.7312071 142,90.7440839" id="Fill-26" fill="#C6C6C6" mask="url(#mask-10)"></path>
                    <path d="M360.5,110 C367.955632,110 374,103.954331 374,96.5 C374,89.0443684 367.955632,83 360.5,83 C353.044368,83 347,89.0443684 347,96.5 C347,103.954331 353.044368,110 360.5,110" id="Fill-27" fill="#C6C6C6" mask="url(#mask-10)"></path>
                    <path d="M360,107 C366.074899,107 371,102.074899 371,96 C371,89.9251007 366.074899,85 360,85 C353.925101,85 349,89.9251007 349,96 C349,102.074899 353.925101,107 360,107" id="Fill-28" fill="#FFFFFF" mask="url(#mask-10)"></path>
                    <path d="M369,102.472771 L351.090761,90 C349.780934,91.763839 349,93.9257181 349,96.2681777 C349,102.19427 353.932419,107 360.019262,107 C363.72935,107 367.004571,105.209455 369,102.472771" id="Fill-29" fill="#C6C6C6" mask="url(#mask-10)"></path>
                    <path d="M241,25.0632844 C240.541332,25.032288 240.083962,25 239.618797,25 C228.783566,25 220,33.7306686 220,44.5006458 C220,55.2706229 228.783566,64 239.618797,64 C240.030689,63.9961254 240.403601,63.9431732 240.755723,63.8682651 C230.874211,62.8621717 223.163903,54.5628705 223.163903,44.4735239 C223.163903,34.3028115 231.002846,25.9583071 241,25.0632844" id="Fill-30" fill="#00132E" mask="url(#mask-10)"></path>
                    <path d="M126.886136,41.200945 C126.755072,40.8959881 126.524399,40.6649995 126.253095,40.5170629 C126.705268,40.1238632 126.879583,39.4815071 126.631871,38.9027378 C126.44576,38.4693097 126.066984,38.1773297 125.631849,38.080003 C126.066984,37.6868032 126.230814,37.0561264 125.987034,36.4864409 C125.707867,35.831108 124.989634,35.5001973 124.313341,35.6740876 C124.399843,35.3769168 124.39198,35.0498992 124.259604,34.7410492 C123.952914,34.0299156 123.127207,33.6964096 122.406353,33.9857942 L122.393246,33.9819012 L116.289574,36.8731522 L117.855794,35.4963042 L117.854484,35.484625 C117.892492,35.4560759 117.933122,35.4353128 117.967199,35.4028706 C118.808633,34.6605925 118.882029,33.3836665 118.13234,32.5505502 L117.349886,33.2422184 C116.389183,33.9896873 113.132231,36.569493 112.851753,37.3351295 C112.522781,38.2357257 112.664331,37.8074883 112.455938,38.4329744 L96.0270066,44.8798933 L82.1118916,36.8562823 C73.9347792,33.2603861 77.2507104,34.8980696 67.5257265,29.4841111 C51.1099014,24.748844 33.6049306,56.3112357 33.6049306,56.3112357 L33.6245903,56.3242126 L29.8643506,61.1321503 C28.3177898,63.107233 28.1565805,65.6987179 29.2155814,67.7879972 L27.1945673,75.8868742 L0,105.82975 L8.15483144,113.085129 L37.6836569,83.1085135 C38.3796093,82.3402816 38.8724117,81.4189224 39.1227448,80.4197019 L40.0166045,76.8484617 L52.7560712,86.6109761 L39.1017745,108.104599 L48.5738039,114 L66.5519175,88.4731598 C68.2885218,85.7402267 67.6449952,82.1495213 65.0656464,80.1744386 L54.4821903,72.0625847 C56.3773826,72.1832698 66.8520552,71.5616768 78.5770828,45.5131656 L93.317904,53.9585256 C94.1056014,54.411419 95.0007718,54.6177516 95.8906995,54.5697371 C96.3900552,54.545081 96.8867895,54.4386705 97.3612429,54.2543986 L116.047105,46.9211581 L116.051037,46.9263489 L126.074847,43.0916779 L126.070915,43.0735103 C126.089265,43.0670218 126.108924,43.0644264 126.128584,43.0566403 C126.855992,42.749088 127.194138,41.9211624 126.886136,41.200945" id="Fill-31" fill="#FFF100" mask="url(#mask-10)"></path>
                    <polygon id="Fill-32" fill="#D6CA00" mask="url(#mask-10)" points="73.8301733 20 66 34.707656 75.1698267 40 83 25.292344"></polygon>
                    <path d="M95.4804167,19.3857155 C95.4804167,19.3857155 95.4659106,19.4292516 95.4368983,19.5086409 C95.1784254,20.219303 93.566926,23.9262704 93.1778979,24.5434581 C92.7901886,25.1619262 93.0552552,29.1019396 93.0447053,29.4579109 C93.0341553,29.8151627 93.3216405,31.0367333 90.794936,29.9777827 L86.8914678,35.7027745 C86.8914678,35.7027745 86.2518792,36.5914223 84.3489384,35.2955843 C82.4433601,34.0010267 77.3701701,30.331193 76,26.0915491 C82.3932481,14.2356558 85.4395358,13 85.4395358,13 L96,17.0923896" id="Fill-33" fill="#CE9C5F" mask="url(#mask-10)"></path>
                    <path d="M88.6412038,26.9331483 C89.1575771,27.1313313 89.7362988,26.8740131 89.9329362,26.3577785 C90.1311724,25.8431421 89.8753838,25.2645758 89.3574119,25.0663928 C88.8426374,24.8698081 88.2639157,25.1239298 88.0672782,25.6417627 C87.869042,26.156399 88.1232319,26.7349654 88.6412038,26.9331483" id="Fill-34" fill="#000000" mask="url(#mask-10)"></path>
                    <path d="M88,32.3221043 L85,31 C85,31 85.6438907,33.077988 87.0305466,34 C87.9095659,32.5948316 88,32.3221043 88,32.3221043" id="Fill-35" fill="#FFFFFF" mask="url(#mask-10)"></path>
                    <path d="M90,20.1855912 C90,20.1855912 83.8169038,21.020047 82,26 C84.8759833,18.1135474 82.1164854,17 82.1164854,17 L90,20.1855912 Z" id="Fill-36" fill="#A87E50" mask="url(#mask-10)"></path>
                    <path d="M87.8469508,1.70434502 C79.0877248,-0.809245574 69.6569759,3.5820142 66.245854,12.051807 C62.8628237,20.4522503 66.6043562,29.8759251 74.6265124,33.9387563 C74.4780282,33.9138952 74.3308818,33.8824917 74.1770469,33.8458542 C77.7353153,34.7774922 79.8823155,31.341423 81.4139761,27.4382264 C83.0245608,23.3335238 85.8711755,16.3671749 85.8711755,16.3671749 L97.6428903,20.9049844 C99.2588257,13.1509304 95.2858719,5.17443468 87.8469508,1.70434502" id="Fill-37" fill="#D83B01" mask="url(#mask-10)"></path>
                    <polygon id="Fill-38" fill="#FFFFFF" mask="url(#mask-10)" points="84.1304273 15 83 18.0451727 98 24 97.9396249 20.4818423"></polygon>
                    <path d="M87,1.72329319 C86.6319731,1.54772677 86.2613269,1.37216035 85.8749641,1.22017748 C76.8995615,-2.31604463 66.7559028,2.09538918 63.2197016,11.0754804 C59.68481,20.0529513 64.0945839,30.2004283 73.072606,33.7379606 C73.413129,33.8676701 73.7392454,33.9475921 74.0588132,34 C66.2018979,29.9318378 62.5399651,20.4971082 65.8522069,12.0843323 C69.1906428,3.60604649 78.4240572,-0.793595542 87,1.72329319" id="Fill-39" fill="#A80000" mask="url(#mask-10)"></path>
                    <path d="M112.376164,38 L111.070804,38.478813 L113.689318,44.5399166 L95.5233796,51.6719139 C95.5233796,51.6719139 80.5812266,43.1382301 78.4575809,41.8884251 C76.3326364,40.6360459 75,42.8254571 75,42.8254571 L93.4192169,53.3863734 C94.1998353,53.8342953 95.0869607,54.0389492 95.9675917,53.9938996 C96.4624596,53.9668699 96.9534309,53.8626122 97.4236204,53.6798395 L116,46.3843765 L112.376164,38 Z" id="Fill-40" fill="#D6CA00" mask="url(#mask-10)"></path>
                    <path d="M37.5103108,59.4203599 L39.2267439,60.7369475 L54.7943318,72.3927355 C55.5374618,72.4149619 57.2275894,72.2619919 59.6279652,70.8447318 L40.8195412,56.7636509 C47.1420653,50.9128768 63.4291083,37.7613825 82.1204729,37.7430784 C83.0424802,37.7300041 84,37.8136799 84,37.8136799 C84,37.8136799 83.1292883,37.3077024 82.4335082,36.9285461 C74.1867376,33.2886455 77.5367416,34.9490886 67.7629374,29.4866229 C66.4779144,29.1153112 65.1849996,28.9649561 63.8934001,29.006794 C63.8763016,29.006794 63.8578877,29.0094089 63.8407892,29.0094089 C62.6794019,29.0512468 61.5206451,29.2499771 60.3710953,29.5742211 C60.1304001,29.6435152 59.8910201,29.7154241 59.6516402,29.7951777 C59.410945,29.8749312 59.1689345,29.961222 58.9256087,30.051435 C56.0306897,31.1405289 53.2067956,32.9983948 50.5578329,35.2484914 C50.4907539,35.3034037 50.4263055,35.358316 50.3605418,35.4145357 C45.5242778,39.5656436 41.2877789,44.9810417 38.3007907,49.2851195 C38.1574258,49.4903869 38.0166915,49.6969617 37.8799029,49.8969993 C37.468222,50.5010346 37.0841619,51.0749988 36.725092,51.6215068 C34.8218899,54.5279361 33.7236358,56.5165456 33.7236358,56.5165456 L33.7552024,56.5400794 L29.9698426,61.3749761 C28.4204494,63.3609707 28.2573554,65.9732269 29.3187818,68.0781982 L27.2906287,76.2379035 L0,106.406979 L2.7804901,108.889799 L29.8764582,78.935143 C30.5761841,78.1611412 31.0707273,77.2315545 31.32326,76.2261365 L32.5385736,71.3454796 L52.945056,87.0451658 L39.2398967,108.696299 L42.9239803,111 L56.0543647,90.2523052 C57.7971033,87.5001533 57.1539341,83.8811717 54.5641588,81.8899474 L33.8722618,65.9732269 L34.433884,63.7139783 L37.5103108,59.4203599 Z" id="Fill-41" fill="#D6CA00" mask="url(#mask-10)"></path>
                    <path d="M10.3193128,105.138382 C10.0891547,105.054555 9.90345897,105 9.70076293,105 C9.06390503,105 8.55781878,105.471032 8.4401243,106.083108 C8.43881658,106.101737 8.42573942,106.113712 8.42181627,106.13101 C8.25573629,107.179523 7.02909829,109.219332 4.12858327,109.219332 L0.00404569095,106.70849 L0.00404569095,115.289529 C0.00404569095,115.289529 -0.164649727,116.988705 1.67661499,116.988705 L22.6419246,116.988705 C22.6419246,116.988705 23.9784108,117.216238 23.9784108,115.628832 L23.9784108,112.849209 C23.9784108,112.849209 24.3144939,111.772754 22.3346112,110.752183 C20.3547286,109.731613 10.3193128,105.138382 10.3193128,105.138382 Z" id="Fill-42" fill="#F7F7F7" mask="url(#mask-10)"></path>
                    <path d="M0.00357384965,107 L0.00357384965,116.18043 C0.00357384965,116.18043 -0.149072007,118 1.54084984,118 L3,118 L3,109.124256 L0.00357384965,107 Z" id="Fill-43" fill="#DEDEDE" mask="url(#mask-10)"></path>
                    <path d="M61.3346109,113.752183 C59.3573433,112.731613 49.31931,108.138382 49.31931,108.138382 C49.31931,108.138382 49.291848,108.135721 49.2591551,108.135721 C49.0891519,108.054555 48.9034561,108 48.7020678,108 C48.063902,108 47.5604311,108.471032 47.4401212,109.083108 C47.4388134,109.101737 47.4283517,109.112382 47.4244286,109.129679 C47.2583485,110.179523 46.0290949,112.219332 43.1311947,112.219332 L39.0040408,109.70716 L39.0040408,118.289529 C39.0040408,118.289529 38.8353454,119.988705 40.6779182,119.988705 L61.6419243,119.988705 C61.6419243,119.988705 62.9784108,120.216238 62.9784108,118.628832 L62.9784108,115.849209 C62.9784108,115.849209 63.314494,114.772754 61.3346109,113.752183" id="Fill-44" fill="#F7F7F7" mask="url(#mask-10)"></path>
                    <path d="M43,111.437168 L39.0041464,109 L39.0041464,118.179242 C39.0041464,118.179242 38.8268321,120 40.7912507,120 L43,120 L43,111.437168 Z" id="Fill-45" fill="#DEDEDE" mask="url(#mask-10)"></path>
                    <path d="M381.895568,20.9944616 C381.345353,20.9352689 380.947889,20.4430353 381.00556,19.8947244 C381.061673,19.3464135 381.555775,18.9491996 382.104432,19.0052769 C382.654647,19.0644695 383.052111,19.5535878 382.99444,20.1050141 C382.936769,20.653325 382.445783,21.0520965 381.895568,20.9944616" id="Fill-46" fill="#001F50" mask="url(#mask-10)"></path>
                    <path d="M378.001135,26 L382,26.3848751 C382,26.3848751 380.255094,27.901418 378.249776,28 C377.968767,26.2889939 378.001135,26 378.001135,26" id="Fill-47" fill="#FFFFFF" mask="url(#mask-10)"></path>
                    <path d="M444.031,103 L444,107 L444.031,103 Z" id="Fill-48" fill="#D6CA00" mask="url(#mask-10)"></path>
                    <path d="M383.142747,114 L381.001361,88.3840471 C380.947214,85.6937455 382.512321,83.2449314 384.952804,82.188913 L403.682513,74.094512 L412.73151,67 L417.638261,73.4183469 C418.872039,75.0317447 419.298769,77.1346442 418.789529,79.1096206 C418.284157,81.0859023 416.902119,82.7123535 415.04694,83.5151364 L394.104938,92.5663501 L394.642541,113.733711 L383.142747,114 Z" id="Fill-49" fill="#FFF100" mask="url(#mask-10)"></path>
                    <path d="M419.790695,79.277175 C420.163099,77.8379546 420.030746,76.3347398 419.45592,75 L413.828332,79.3842676 L394.979739,87.481515 C392.52213,88.5393812 390.946872,90.9920635 391.00137,93.6798272 L391.524294,114 L395.485794,113.919028 L394.946002,92.7408077 L416.019938,83.6836448 C417.888448,82.8804501 419.278152,81.2557766 419.790695,79.277175" id="Fill-50" fill="#D6CA00" mask="url(#mask-10)"></path>
                    <path d="M369.943236,115.229971 C372.250719,114.124192 383.962186,109.14943 383.962186,109.14943 L384.032069,109.14943 C384.229854,109.059772 384.447416,109 384.68212,109 C385.425789,109 386.015186,109.510551 386.153635,110.174268 C386.154954,110.192947 386.16814,110.205399 386.172095,110.224078 C386.368561,111.360988 387.799201,113.572547 391.181312,113.572547 L395.995381,110.849192 L395.995381,120.143716 C395.995381,120.143716 396.190528,121.987927 394.04391,121.987927 L369.587224,121.987927 C369.587224,121.987927 368.024728,122.23324 368.024728,120.512309 L368.024728,117.502547 C368.024728,117.502547 367.635753,116.336996 369.943236,115.229971" id="Fill-51" fill="#F7F7F7" mask="url(#mask-10)"></path>
                    <polygon id="Fill-52" fill="#D6CA00" mask="url(#mask-10)" points="391.56649 23 394 39.4099832 383.431006 41 381 24.5925407"></polygon>
                    <path d="M418,73.6860288 C418,73.6860288 412.715368,37.2830167 395.498029,36 C384.351626,37.7369873 390.142384,37.2209352 381.081171,37.7680281 C380.057297,63.3960279 389.057828,81 389.057828,81" id="Fill-53" fill="#FFF100" mask="url(#mask-10)"></path>
                    <path d="M358.018139,40.857844 C358.664309,41.4806277 359.486,41.9179829 360.394799,42.1008537 L385,47 L383.321516,36.9843086 L364.508451,33.4343138 L352.432726,10 L344,14.2009125 L357.114539,39.6429682 C357.349865,40.0995058 357.655399,40.5087271 358.018139,40.857844" id="Fill-54" fill="#FFF100" mask="url(#mask-10)"></path>
                    <path d="M373.490023,15.6374985 C373.490023,15.6374985 373.488762,15.6836804 373.486241,15.7709129 C373.472375,16.5444594 373.642551,20.6726064 373.778692,21.4038195 C373.917354,22.1324669 372.282403,25.8283002 372.166431,26.17723 C372.049198,26.5210285 371.354628,27.59604 374.047192,27.4613429 L375.605249,34.3308976 C375.605249,34.3308976 375.880052,35.4084749 378.084778,34.8286357 C380.292025,34.2462309 386.244408,32.4900366 389,28.8916983 C387.320929,15.2526495 384.961154,13 384.961154,13 L373.825333,13.2501519" id="Fill-55" fill="#F7CAA7" mask="url(#mask-10)"></path>
                    <path d="M378.008563,24.9999632 C377.456746,25.0046468 377.004693,24.5612658 377.000016,24.0070395 C376.996899,23.4574968 377.439599,23.0047485 377.991416,23.0000649 C378.541675,22.9938201 378.993728,23.4387624 378.999963,23.9914275 C379.00464,24.5425314 378.56038,24.9952796 378.008563,24.9999632" id="Fill-56" fill="#000000" mask="url(#mask-10)"></path>
                    <path d="M375,30.0325645 L379,30 C379,30 377.461538,31.6933514 375.492308,32 C375.001465,30.3242877 375,30.0325645 375,30.0325645" id="Fill-57" fill="#FFFFFF" mask="url(#mask-10)"></path>
                    <path d="M378,18.0727273 C378,18.0727273 383.878403,20.9636364 383.925743,26 C383.851949,18.025974 387,18 387,18 L378,18.0727273 Z" id="Fill-58" fill="#DEB695" mask="url(#mask-10)"></path>
                    <path d="M387.254705,1 C396.479277,1.66972443 403.833289,9.26918137 403.997211,18.687594 C404.159811,28.0307122 397.194453,35.8362382 388.108686,36.9299894 C388.258066,36.9603713 388.411412,36.9815066 388.567402,37 C384.854043,36.6380582 384.063517,32.549701 384.026502,28.2222508 C383.986843,23.6715591 383.812346,15.9122665 383.812346,15.9122665 L371,16.135508 C372.278326,8.04993946 378.938314,1.72784648 387.254705,1" id="Fill-59" fill="#D83B01" mask="url(#mask-10)"></path>
                    <polygon id="Fill-60" fill="#FFFFFF" mask="url(#mask-10)" points="384.972547 15 385 18.8311145 369 19 370.246607 15.1582351"></polygon>
                    <path d="M386,1.08177099 C386.406238,1.04621885 386.816308,1.00934996 387.228933,1.00276623 C396.873882,0.830272495 404.82873,8.7465498 404.997357,18.6866658 C405.163429,28.6267818 397.483238,36.8261595 387.838289,36.99997 C387.471653,37.0012867 387.142064,36.9591509 386.82525,36.8972638 C395.605348,35.8069981 402.336373,28.0263456 402.179243,18.7130007 C402.020836,9.32460132 394.912955,1.74936124 386,1.08177099" id="Fill-61" fill="#B82F01" mask="url(#mask-10)"></path>
                    <path d="M352.665234,6.33592923 C352.665234,6.33592923 353.102874,3.14981785 352.373473,1.43510136 C350.310122,0.263081179 349.570207,1.83002121 349.570207,1.83002121 L349.062912,5.88495625 L346.43444,5.11549952 L346.431811,5.11804739 C346.387127,5.09384263 346.349015,5.06836393 346.300388,5.04798097 C345.539445,4.7396887 344.661535,5.08874689 344.342176,5.83017705 C344.176582,6.21490541 344.198924,6.62766034 344.364518,6.98181427 C343.706086,6.89136489 343.041082,7.23150553 342.772978,7.85445973 C342.521959,8.43664802 342.698067,9.08508092 343.154107,9.48764438 C342.704638,9.58828524 342.307738,9.89020783 342.11586,10.3360851 C341.834613,10.9883398 342.083004,11.7272221 342.670468,12.101759 C342.479903,12.2508094 342.322195,12.4393517 342.220999,12.6712079 C341.902954,13.4113641 342.263054,14.2598048 343.026626,14.569371 C343.123879,14.608863 343.223761,14.6343417 343.324957,14.6521768 L348.638414,16 C348.638414,16 353.673253,12.7807663 353.963699,11.80748 C354.258088,10.8354676 352.665234,6.33592923 352.665234,6.33592923" id="Fill-62" fill="#FFF100" mask="url(#mask-10)"></path>
                    <path d="M417.865942,68.4530617 C417.719009,67.7994065 417.553375,67.1063745 417.374383,66.3779033 C417.314274,66.133767 417.251493,65.8870056 417.187377,65.6363066 C415.852955,60.4175655 413.709065,53.6828169 410.515268,47.9482395 C410.471188,47.8707984 410.428444,47.7933573 410.3857,47.7159162 C408.626507,44.6025224 406.554748,41.7975803 404.130348,39.7106089 C403.928648,39.5360383 403.724277,39.3680306 403.517235,39.2039605 C403.312864,39.0425156 403.107157,38.8850083 402.897444,38.7327512 C401.89429,38.0082178 400.837705,37.4018148 399.719676,36.9450437 C399.702312,36.9371683 399.686283,36.9306055 399.668918,36.9240427 C398.425327,36.421332 397.109606,36.1023797 395.717747,36 C386.534414,37.4044399 387.116805,37.4359413 383,37.6735148 L383.084153,38.1827883 C406.422508,36.3110769 412.788728,61.0751584 414.413009,71.2383154 L388.48462,78.7776636 C390.305258,81.005079 391.898816,81.7584888 392.632147,82 L412.086119,76.3441762 L419,74.2453918 C419,74.2453918 418.65671,71.9365976 417.865942,68.4530617" id="Fill-63" fill="#D6CA00" mask="url(#mask-10)"></path>
                    <path d="M379.919183,43.843869 C377.391312,43.3573877 359.797807,39.7281036 359.797807,39.7281036 L348.401279,17.020754 L354.575828,13.9192688 L353.631174,12 L345,16.2463823 L356.920309,39.9986672 C357.159111,40.4731531 357.469158,40.8983244 357.837256,41.2621858 C358.492972,41.9139375 359.32548,42.3697639 360.247705,42.5576923 L381.962853,47 C381.962853,47 382.447054,44.3303503 379.919183,43.843869" id="Fill-64" fill="#D6CA00" mask="url(#mask-10)"></path>
                    <path d="M420.585348,103.531233 L417.291199,83 C416.92776,83.2651438 416.537256,83.5008271 416.118399,83.6869634 L413.34621,84.9162662 L405,88.617566 L408.644701,111.351635 C409.166661,114.588263 411.844769,116.9692 415.003595,117 L442.877565,116.440252 L442.961336,108.113667 L443,103.749508 L420.585348,103.531233 Z" id="Fill-65" fill="#FFF100" mask="url(#mask-10)"></path>
                    <path d="M421.323656,103.438306 L417.991047,83 C417.623365,83.2639437 417.228302,83.4985603 416.804555,83.6838541 L414,84.907593 L416.814985,102.177242 C417.339128,105.399221 420.052414,107.769383 423.24812,107.801376 L443.960885,108 L444,103.655593 L421.323656,103.438306 Z" id="Fill-66" fill="#D6CA00" mask="url(#mask-10)"></path>
                    <path d="M401.625891,41 L392.253158,47.9781143 L393.217157,64.3407239 L378.938,76.6670755 C378.117603,76.5055209 377.428842,76.4612237 376.97676,76.6032354 C374.5528,77.3588937 372.158092,78.4624155 371.005282,79.0356736 L369.989426,79.46692 C370.461454,80.5417789 371.733933,81.0342597 372.828238,80.5678361 C372.874776,80.5469904 372.912006,80.5209332 372.954555,80.4987846 L372.965193,80.503996 L375.000893,79.6349889 L369.480169,84.1090076 L369.480169,84.1233391 C368.879165,84.6744486 368.835286,85.5981758 369.388423,86.197491 C369.631749,86.4580629 369.944218,86.6091946 370.269983,86.6626118 C369.801945,87.2202356 369.804604,88.0410369 370.313862,88.5934493 C370.755307,89.0715986 371.442738,89.1953702 372.018479,88.9595527 C371.921414,89.4090392 372.033105,89.8963085 372.372167,90.2650177 C372.82292,90.7509842 373.524977,90.8682415 374.107366,90.6154868 C374.12731,90.9359902 374.250968,91.2551907 374.487647,91.5131569 C375.05009,92.1189864 376.006112,92.1658894 376.624401,91.6173856 C376.639027,91.6030542 376.652324,91.5835113 376.66695,91.5704827 L376.682906,91.5822084 L380.794197,87.6879621 L401.35996,69.931293 C401.760186,69.5860353 402.093929,69.1834518 402.351882,68.7456911 C402.815931,67.9587641 403.044632,67.0480654 402.992775,66.1217325 L401.625891,41 Z" id="Fill-67" fill="#FFF100" mask="url(#mask-10)"></path>
                    <path d="M400.80939,45 C400.80939,45 398.119466,45.1878154 398.286344,47.6924498 C398.451898,50.1970841 399.382975,67.6819276 399.382975,67.6819276 L384.773152,80.1845169 L380.181342,75.1340832 L378,77.0045189 L384.394364,84 L384.394364,83.9987136 L400.368353,70.3306396 C400.764359,69.9910281 401.095467,69.5948148 401.355056,69.1600092 C401.815959,68.3843058 402.042437,67.4863938 401.993433,66.570472 L400.80939,45 Z" id="Fill-68" fill="#D6CA00" mask="url(#mask-10)"></path>
                    <path d="M395.995526,110 L392,112.511628 L392,122 L394.105059,122 C396.184572,122 395.995526,120.014311 395.995526,120.014311 L395.995526,110 Z" id="Fill-69" fill="#DEDEDE" mask="url(#mask-10)"></path>
                    <path d="M457.07927,121.678274 C454.664916,120.827153 442.905053,116.051565 442.905053,116.051565 C442.905053,116.051565 442.882867,116.028282 442.858071,116.001118 C442.654482,115.926096 442.460029,115.813561 442.302117,115.6467 C441.795755,115.11766 441.780095,114.331215 442.192492,113.759489 C442.202933,113.743967 442.205543,113.727152 442.215983,113.710336 C442.946815,112.758323 443.654156,110.158395 441.348121,107.752492 L436,106.272732 L443.065575,99.6267477 C443.065575,99.6267477 444.33409,98.1702708 445.795753,99.69789 C447.260026,101.225509 462.460018,117.103177 462.460018,117.103177 C462.460018,117.103177 463.711567,118.038375 462.4039,119.265903 C461.094929,120.496018 460.114832,121.419575 460.114832,121.419575 C460.114832,121.419575 459.49232,122.530688 457.07927,121.678274" id="Fill-70" fill="#F7F7F7" mask="url(#mask-10)"></path>
                    <path d="M448,101.556625 C447.119091,100.641709 446.486364,99.9833988 446.235455,99.7267923 C444.706818,98.1374444 443.382727,99.6502134 443.382727,99.6502134 L436,106.554405 L441.255455,108 L448,101.556625 Z" id="Fill-71" fill="#DEDEDE" mask="url(#mask-10)"></path>
                </g>
            </g>
        </g>
    </g>
</svg>