<?xml version="1.0" encoding="UTF-8"?>
<svg width="1400px" height="748px" viewBox="0 0 1400 748" version="1.1" xmlns="http://www.w3.org/2000/svg" xmlns:xlink="http://www.w3.org/1999/xlink">
    <!-- Generator: Sketch 42 (36781) - http://www.bohemiancoding.com/sketch -->
    <title>Group 6</title>
    <desc>Created with Sketch.</desc>
    <defs>
        <path d="M0.73538451,42.4037257 C0.256823729,40.6048533 0.00165942029,38.7181201 0.00165942029,36.7751362 L0.00165942029,22.1580739 C0.00165942029,9.99498249 10.0009565,0.0362256809 22.2064203,0.0362256809 C34.7232319,0.0362256809 44.7476884,9.99498249 44.7476884,22.1580739 L44.7476884,36.7751362 C44.7476884,38.7181201 44.4918821,40.6048533 44.0109732,42.4037257 L0.73538451,42.4037257 L0.73538451,42.4037257 Z" id="path-1"></path>
        <polygon id="path-3" points="0.364112319 23.5505837 45.4183442 23.5505837 45.4183442 0.185578599 0.364112319 0.185578599 0.364112319 23.5505837"></polygon>
    </defs>
    <g id="Artwork-" stroke="none" stroke-width="1" fill="none" fill-rule="evenodd">
        <g id="10.0_Desktop_error" transform="translate(0.000000, -97.000000)">
            <g id="Group-6" transform="translate(-9.000000, 97.000000)">
                <g id="Group-2">
                    <polygon id="Fill-1" fill="#DD5B11" points="4 537 1415 537 1415 0 4 0"></polygon>
                    <polygon id="Fill-2" fill="#FAB811" points="0.5 748 1417.5 748 1417.5 524 0.5 524"></polygon>
                    <g id="Group-81" transform="translate(387.000000, 239.000000)">
                        <path d="M520.881791,82.9725135 C520.881791,118.663783 549.826567,147.599109 585.529493,147.599109 C621.234347,147.599109 650.179123,118.663783 650.179123,82.9725135 C650.179123,47.2793169 621.234347,18.345918 585.529493,18.345918 C549.826567,18.345918 520.881791,47.2793169 520.881791,82.9725135 Z" id="Fill-3" fill="#FAB811"></path>
                        <path d="M501.419436,42.7470921 C530.547333,42.7470921 661.982369,285.456204 661.982369,285.456204 L443.047985,285.456204 L501.417508,42.7470921 L501.419436,42.7470921 Z" id="Fill-5" fill="#FAE926"></path>
                        <path d="M501.417508,42.7470921 L443.049913,285.456204 L340.854575,285.456204 C340.854575,285.456204 472.289611,42.752873 501.417508,42.7470921" id="Fill-7" fill="#FAB811"></path>
                        <path d="M395.418639,179.046043 C408.252571,179.046043 466.165254,285.984964 466.165254,285.984964 L369.700658,285.984964 L395.418639,179.046043 Z" id="Fill-9" fill="#FAE926"></path>
                        <path d="M395.418639,179.046043 L369.700658,285.984964 L324.673952,285.984964 C324.673952,285.984964 382.584708,179.04797 395.418639,179.046043" id="Fill-11" fill="#FAB811"></path>
                        <path d="M435.212887,22.3162393 C435.376733,21.4857169 435.465402,20.6282169 435.465402,19.7475933 C435.465402,12.4790764 429.570815,6.58448652 422.297996,6.58448652 C419.364196,6.58448652 416.655924,7.54411573 414.466175,9.16662135 C411.615261,4.22973371 406.277749,0.90764382 400.163416,0.90764382 C391.263707,0.90764382 384.012092,7.95070562 383.672835,16.7665764 C383.66898,16.8687056 383.66127,16.9708348 383.659342,17.072964 C383.601514,17.0710371 383.543686,17.0671831 383.485858,17.0671831 C376.21304,17.0671831 370.318453,22.961773 370.318453,30.2302899 C370.318453,37.5007337 376.21304,43.3933966 383.485858,43.3933966 L434.927603,43.3933966 C437.055669,43.3933966 439.027599,42.7613517 440.683404,41.6803236 C443.565159,39.7976775 445.475406,36.5507393 445.475406,32.850964 C445.475406,27.1240202 440.905077,22.4665427 435.212887,22.3162393" id="Fill-13" fill="#FAB811"></path>
                        <path d="M56.4008305,278.446672 L55.635575,264.129312 C55.4717294,261.102048 56.1309671,258.088273 57.5496775,255.405936 L66.852254,237.78961 L54.5638318,233.20343 L48.9738045,256.423374 C48.389743,258.855206 48.3396255,261.385312 48.8311624,263.836413 L52.6728605,283.042487 C52.7923714,283.637919 53.3166775,284.065706 53.9277253,284.065706 L62.1604862,284.065706 L61.2583714,282.217745 C60.7032239,281.09047 59.5775081,280.358222 58.3245709,280.310048 L58.2898742,280.308121 C57.2740313,280.267655 56.4548031,279.460256 56.4008305,278.446672" id="Fill-15" fill="#FAB811"></path>
                        <path d="M117.600064,197.683468 L113.097201,197.683468 C111.81535,197.683468 110.543136,197.517749 109.303692,197.192092 L104.86444,196.02435 C104.394106,195.89717 104.00666,195.548389 103.8698,195.080137 C103.553675,194.018378 102.541687,193.253372 101.361998,193.315035 C100.024247,193.386333 99.0180422,194.58876 99.0180422,195.929929 L99.0180422,202.570254 C99.0180422,210.630754 92.7784152,217.500389 84.7249206,217.845316 C80.6654042,218.018743 76.9393619,216.569665 74.1520586,214.093513 C74.1520586,214.093513 68.9668264,209.730861 64.826351,202.552912 C61.1812676,196.490676 54.5445559,192.424777 46.9536843,192.424777 C40.0355436,192.424777 33.9038619,195.796968 30.1142089,200.984361 C27.6044794,204.420142 23.6779671,206.543659 19.4199083,206.537878 L19.2599179,206.537878 C15.8943359,206.537878 12.9952321,208.49953 11.622784,211.339878 L11.6189288,211.339878 L11.6054357,211.378417 C11.350993,211.91026 11.1505231,212.46908 11.0117362,213.052951 L0.0610654372,244.005811 C1.27545068,244.005811 2.38189057,243.296687 2.88113784,242.190608 L10.2638291,225.903889 L10.3081638,239.404215 L14.020713,260.115249 L21.0429439,283.161766 C21.2048619,283.701316 21.7021816,284.06744 22.2631119,284.06744 L30.5980354,284.06744 L29.3663018,281.546968 C29.017407,280.832063 28.3061242,280.367665 27.5100272,280.33876 L26.1607102,280.284805 C25.2200436,280.25012 24.4393673,279.550631 24.2947977,278.62376 L21.31859,259.504401 L22.8336802,238.355946 L27.0801734,238.355946 L66.0735053,238.355946 L81.1897102,283.198378 C81.3651214,283.716732 81.8528031,284.06744 82.4002403,284.06744 L90.7621501,284.06744 L89.8581078,282.217552 C89.308743,281.090277 88.1830272,280.35803 86.93009,280.309856 L86.1571242,280.279024 C85.2415163,280.244339 84.470478,279.577608 84.3027772,278.673861 L76.7793714,238.355946 L77.3537949,238.355946 C107.02913,238.355946 110.442902,206.192951 110.442902,206.192951 L117.600064,206.192951 C119.953658,206.192951 121.856195,204.289108 121.856195,201.93821 C121.856195,199.587311 119.953658,197.683468 117.600064,197.683468" id="Fill-17" fill="#FAB811"></path>
                        <path d="M11.7367049,278.43723 L11.1179467,265.382033 C10.992653,262.801825 11.4706967,260.225471 12.5077432,257.85723 L18.2230642,244.825157 L11.7868224,235.259696 L4.62965984,256.288679 C3.77573497,258.795662 3.60417896,261.48378 4.13234016,264.077477 L7.97403825,283.044606 C8.09162158,283.640039 8.61785519,284.067825 9.22312022,284.067825 L17.4597363,284.067825 L16.555694,282.217938 C16.0044016,281.092589 14.8786858,280.358415 13.623821,280.310241 C12.6021954,280.269775 11.7829672,279.454668 11.7367049,278.43723" id="Fill-19" fill="#FAB811"></path>
                    </g>
                </g>
                <g id="Group" transform="translate(555.000000, 311.000000)">
                    <g id="Page-1">
                        <g id="Group-13" transform="translate(0.304348, 0.913872)">
                            <path d="M58.7154826,0.459665175 C62.1434536,0.459665175 64.9738884,2.94660681 64.9738884,6.37243171 L64.9738884,90.7887138 C64.9738884,94.2365193 62.1434536,96.7234609 58.7154826,96.7234609 L40.8743087,96.7234609 C37.7325261,96.7234609 34.9288232,94.2365193 34.9288232,90.7887138 L34.9288232,6.37243171 C34.9288232,2.94660681 37.7325261,0.459665175 40.8743087,0.459665175 L58.7154826,0.459665175 Z" id="Fill-1" fill="#929291"></path>
                            <path d="M16.7264543,199.155468 C7.63918623,199.155468 0.445164493,206.311706 0.445164493,215.34257 C0.445164493,224.078266 7.63918623,231.234504 16.7264543,231.234504 L16.7264543,199.155468 Z" id="Fill-3" fill="#E2BE91"></path>
                            <path d="M83.4501804,199.460527 C92.3644775,199.460527 99.4201225,206.480171 99.4201225,215.338331 C99.4201225,223.909173 92.3644775,230.928817 83.4501804,230.928817 L83.4501804,199.460527 Z" id="Fill-5" fill="#E2BE91"></path>
                            <path d="M88.5676065,84.6737263 L61.7775413,84.6737263 L61.7775413,62.1342477 L51.5360848,62.1342477 L38.0883746,62.1342477 L38.0883746,84.6737263 L11.2983094,84.6737263 C5.23646159,84.6737263 0.445164493,89.4325142 0.445164493,95.4912944 L0.445164493,215.194201 L16.7264543,215.194201 L16.7264543,206.943646 L16.7264543,122.802121 L19.9028312,122.802121 L19.9028312,194.223191 L51.5360848,194.223191 L58.2159109,194.223191 L79.9646572,194.223191 L79.9646572,122.802121 L83.1394616,122.802121 L83.1394616,206.943646 L83.1394616,215.194201 L99.4207514,215.194201 L99.4207514,95.4912944 C99.4207514,89.4325142 94.6294543,84.6737263 88.5676065,84.6737263" id="Fill-7" fill="#F18A19"></path>
                            <path d="M72.4783145,90.1566161 C72.4783145,102.319708 62.453858,112.278464 49.9386188,112.278464 C37.7331551,112.278464 27.733858,102.319708 27.733858,90.1566161 L27.733858,75.5395539 C27.733858,63.3764625 37.7331551,53.4177056 49.9386188,53.4177056 C62.453858,53.4177056 72.4783145,63.3764625 72.4783145,75.5395539 L72.4783145,90.1566161 Z" id="Fill-9" fill="#DD5B11"></path>
                            <path d="M98.4431507,57.4647949 C98.4431507,60.8796296 95.6457377,63.682149 92.1847449,63.682149 L7.37548406,63.682149 C4.25886087,63.682149 1.42842609,60.8796296 1.42842609,57.4647949 L1.42842609,39.6966646 C1.42842609,36.2708397 4.25886087,33.4777405 7.37548406,33.4777405 L92.1847449,33.4777405 C95.6457377,33.4777405 98.4431507,36.2708397 98.4431507,39.6966646 L98.4431507,57.4647949 Z" id="Fill-11" fill="#929291"></path>
                        </g>
                        <g id="Group-16" transform="translate(28.036232, 54.295195)">
                            <mask id="mask-2" fill="white">
                                <use xlink:href="#path-1"></use>
                            </mask>
                            <g id="Clip-15"></g>
                            <path d="M62.5847739,2.20758949 C62.5847739,24.3294377 44.4353971,42.4037257 22.2070493,42.4037257 C-0.334218841,42.4037257 -18.1486609,24.3294377 -18.1486609,2.20758949 C-18.1486609,-20.2188463 -0.334218841,-37.9885467 22.2070493,-37.9885467 C44.4353971,-37.9885467 62.5847739,-20.2188463 62.5847739,2.20758949" id="Fill-14" fill="#B83818" mask="url(#mask-2)"></path>
                        </g>
                        <g id="Group-52" transform="translate(9.000000, 8.612315)">
                            <polygon id="Fill-17" fill="#F18A19" points="71.2894471 184.011586 11.1961717 184.011586 11.1961717 311.757802 26.5449906 311.757802 26.8563384 203.646493 55.6544399 203.646493 55.9657877 311.757802 71.2894471 311.757802"></polygon>
                            <path d="M81.6210058,41.0507514 C81.6210058,63.1725996 63.471629,81.2154868 41.2432812,81.2154868 C18.702013,81.2154868 0.887571014,63.1725996 0.887571014,41.0507514 C0.887571014,18.6133253 18.702013,0.539037354 41.2432812,0.539037354 C63.471629,0.539037354 81.6210058,18.6133253 81.6210058,41.0507514" id="Fill-19" fill="#AFAFAF"></path>
                            <path d="M81.6210058,41.0507514 C81.6210058,63.1725996 63.471629,81.2154868 41.2432812,81.2154868 C18.702013,81.2154868 0.887571014,63.1725996 0.887571014,41.0507514 C0.887571014,18.6133253 18.702013,0.539037354 41.2432812,0.539037354 C63.471629,0.539037354 81.6210058,18.6133253 81.6210058,41.0507514" id="Fill-21" fill="#AFAFAF"></path>
                            <g id="Group-25" transform="translate(8.028986, 306.879377)">
                                <mask id="mask-4" fill="white">
                                    <use xlink:href="#path-3"></use>
                                </mask>
                                <g id="Clip-24"></g>
                                <path d="M19.7620254,0.185578599 C33.2144529,0.185578599 44.1713804,10.4803237 45.4183442,23.5508977 L19.7620254,23.5508977 L0.364112319,23.5508977 L0.364112319,0.185578599 L19.7620254,0.185578599 Z" id="Fill-23" fill="#1D1C1B" mask="url(#mask-4)"></path>
                            </g>
                            <polygon id="Fill-26" fill="#1D1C1B" points="8.39231159 311.757488 29.0371884 311.757488 29.0371884 284.942794 8.39231159 284.942794"></polygon>
                            <path d="M73.1575341,307.064956 C86.3284906,307.064956 97.5668891,317.359701 98.5276645,330.430275 L73.1575341,330.430275 L53.4482732,330.430275 L53.4482732,307.064956 L73.1575341,307.064956 Z" id="Fill-28" fill="#1D1C1B"></path>
                            <path d="M62.2248225,41.0507514 C62.2248225,52.5591366 52.8230616,61.9291288 41.2434384,61.9291288 C29.6606703,61.9291288 19.9742935,52.5591366 19.9742935,41.0507514 C19.9742935,29.1938175 29.6606703,19.8567961 41.2434384,19.8567961 C52.8230616,19.8567961 62.2248225,29.1938175 62.2248225,41.0507514" id="Fill-29" fill="#DD5B11"></path>
                            <polygon id="Fill-30" fill="#1D1C1B" points="53.4481159 311.757488 73.7816449 311.757488 73.7816449 284.942794 53.4481159 284.942794"></polygon>
                            <path d="M58.7712203,41.0507514 C58.7712203,50.6939304 50.9545029,58.4719031 41.2429667,58.4719031 C31.5565899,58.4719031 23.714713,50.6939304 23.714713,41.0507514 C23.714713,31.3761716 31.5565899,23.282621 41.2429667,23.282621 C50.9545029,23.282621 58.7712203,31.3761716 58.7712203,41.0507514" id="Fill-31" fill="#1D1C1B"></path>
                            <path d="M22.155458,19.8566391 C22.155458,21.7328356 20.5971464,23.282464 18.7023275,23.282464 C16.8326681,23.282464 15.2743565,21.7328356 15.2743565,19.8566391 C15.2743565,17.9914329 16.8326681,16.4418045 18.7023275,16.4418045 C20.5971464,16.4418045 22.155458,17.9914329 22.155458,19.8566391" id="Fill-32" fill="#DEDEDE"></path>
                            <path d="M67.2101616,19.8566391 C67.2101616,21.7328356 65.6534225,23.282464 63.7821906,23.282464 C61.9125312,23.282464 60.3290601,21.7328356 60.3290601,19.8566391 C60.3290601,17.9914329 61.9125312,16.4418045 63.7821906,16.4418045 C65.6534225,16.4418045 67.2101616,17.9914329 67.2101616,19.8566391" id="Fill-33" fill="#DEDEDE"></path>
                            <path d="M22.155458,60.0521473 C22.155458,61.9283438 20.5971464,63.4779722 18.7023275,63.4779722 C16.8326681,63.4779722 15.2743565,61.9283438 15.2743565,60.0521473 C15.2743565,58.1665305 16.8326681,56.9230597 18.7023275,56.9230597 C20.5971464,56.9230597 22.155458,58.1665305 22.155458,60.0521473" id="Fill-34" fill="#DEDEDE"></path>
                            <path d="M67.2101616,60.0521473 C67.2101616,61.9283438 65.6534225,63.4779722 63.7821906,63.4779722 C61.9125312,63.4779722 60.3290601,61.9283438 60.3290601,60.0521473 C60.3290601,58.1665305 61.9125312,56.9230597 63.7821906,56.9230597 C65.6534225,56.9230597 67.2101616,58.1665305 67.2101616,60.0521473" id="Fill-35" fill="#DEDEDE"></path>
                            <path d="M45.0083884,88.4024969 C45.0083884,90.5832809 43.4485043,92.4500572 41.2423377,92.4500572 C39.0613304,92.4500572 37.1665116,90.5832809 37.1665116,88.4024969 C37.1665116,86.2201428 39.0613304,84.3549366 41.2423377,84.3549366 C43.4485043,84.3549366 45.0083884,86.2201428 45.0083884,88.4024969" id="Fill-36" fill="#737272"></path>
                            <path d="M23.4014783,46.6469981 L46.8767899,23.281679" id="Stroke-37" stroke="#DD5B11" stroke-width="1.387"></path>
                            <path d="M35.6072565,58.4714321 L59.0825681,35.1390839" id="Stroke-38" stroke="#DD5B11" stroke-width="1.387"></path>
                            <path d="M46.2544087,58.4714321 L23.4017928,36.0654068" id="Stroke-39" stroke="#DD5B11" stroke-width="1.387"></path>
                            <path d="M59.0822536,47.2687335 L34.6728986,23.281679" id="Stroke-40" stroke="#DD5B11" stroke-width="1.387"></path>
                            <path d="M58.1469522,134.173527 C57.5242565,136.998027 54.6938217,139.484969 51.5771986,139.484969 L30.5958145,139.484969 C27.7905391,139.484969 24.9616768,136.998027 24.3374087,134.173527 L20.9094377,115.497914 C20.2851696,112.389237 22.4677493,110.206883 25.2981841,110.206883 L56.9015609,110.206883 C60.0166116,110.206883 61.9130029,112.389237 61.5764957,115.497914 L58.1469522,134.173527 Z" id="Fill-41" fill="#AFAFAF"></path>
                            <path d="M45.3192645,117.995689 C45.3192645,120.482631 43.4496051,122.347837 41.2434384,122.347837 C38.7495109,122.347837 36.8531196,120.482631 36.8531196,117.995689 C36.8531196,115.814905 38.7495109,113.948129 41.2434384,113.948129 C43.4496051,113.948129 45.3192645,115.814905 45.3192645,117.995689" id="Fill-42" fill="#F18A19"></path>
                            <polygon id="Fill-43" fill="#AFAFAF" points="11.1960145 177.172183 71.5990652 177.172183 71.5990652 167.213426 11.1960145 167.213426"></polygon>
                            <path d="M26.2323848,178.099448 C26.2323848,179.342919 25.2983413,180.586389 24.0262181,180.586389 L15.8965804,180.586389 C14.6511891,180.586389 13.7155732,179.342919 13.7155732,178.099448 L13.7155732,166.275485 C13.7155732,165.032014 14.6511891,163.788543 15.8965804,163.788543 L24.0262181,163.788543 C25.2983413,163.788543 26.2323848,165.032014 26.2323848,166.275485 L26.2323848,178.099448 Z" id="Fill-44" fill="#737272"></path>
                            <path d="M68.1721949,178.099448 C68.1721949,179.342919 66.8984993,180.586389 65.653108,180.586389 L57.8363906,180.586389 C56.5894268,180.586389 55.6553833,179.342919 55.6553833,178.099448 L55.6553833,166.275485 C55.6553833,165.032014 56.5894268,163.788543 57.8363906,163.788543 L65.653108,163.788543 C66.8984993,163.788543 68.1721949,165.032014 68.1721949,166.275485 L68.1721949,178.099448 Z" id="Fill-45" fill="#737272"></path>
                            <path d="M47.1897101,178.099448 C47.1897101,179.342919 46.2540942,180.586389 44.6957826,180.586389 L36.8539058,180.586389 C35.606942,180.586389 34.6728986,179.342919 34.6728986,178.099448 L34.6728986,166.275485 C34.6728986,165.032014 35.606942,163.788543 36.8539058,163.788543 L44.6957826,163.788543 C46.2540942,163.788543 47.1897101,165.032014 47.1897101,166.275485 L47.1897101,178.099448 Z" id="Fill-46" fill="#737272"></path>
                            <path d="M43.1118399,98.9834601 C43.1118399,99.9113531 42.1777964,100.848666 41.2437529,100.848666 C39.9967891,100.848666 39.0611732,99.9113531 39.0611732,98.9834601 C39.0611732,97.7399893 39.9967891,96.801106 41.2437529,96.801106 C42.1777964,96.801106 43.1118399,97.7399893 43.1118399,98.9834601" id="Fill-47" fill="#AFAFAF"></path>
                            <path d="M29.349008,91.8278508 C29.349008,93.0713216 28.413392,93.9992146 27.1680007,93.9992146 C26.2323848,93.9992146 25.2983413,93.0713216 25.2983413,91.8278508 C25.2983413,90.8889675 26.2323848,89.9626446 27.1680007,89.9626446 C28.413392,89.9626446 29.349008,90.8889675 29.349008,91.8278508" id="Fill-48" fill="#AFAFAF"></path>
                            <path d="M58.459558,91.8278508 C58.459558,93.0713216 57.523942,93.9992146 56.5898986,93.9992146 C55.3162029,93.9992146 54.3821594,93.0713216 54.3821594,91.8278508 C54.3821594,90.8889675 55.3162029,89.9626446 56.5898986,89.9626446 C57.523942,89.9626446 58.459558,90.8889675 58.459558,91.8278508" id="Fill-49" fill="#AFAFAF"></path>
                            <polygon id="Fill-50" fill="#B83818" points="66.8991283 76.2400335 63.7825051 76.2400335 55.0050123 110.207825 58.1467949 110.207825"></polygon>
                            <polygon id="Fill-51" fill="#B83818" points="16.2087145 76.2400335 19.3520696 76.2400335 27.7914826 110.207825 24.9610478 110.207825"></polygon>
                        </g>
                    </g>
                </g>
            </g>
        </g>
    </g>
</svg>