<?xml version="1.0" encoding="UTF-8"?>
<svg width="515px" height="324px" viewBox="0 0 515 324" version="1.1" xmlns="http://www.w3.org/2000/svg" xmlns:xlink="http://www.w3.org/1999/xlink">
    <!-- Generator: Sketch 44.1 (41455) - http://www.bohemiancoding.com/sketch -->
    <title>Group 50</title>
    <desc>Created with Sketch.</desc>
    <defs></defs>
    <g id="Artwork-" stroke="none" stroke-width="1" fill="none" fill-rule="evenodd">
        <g id="10.0_Desktop_Maintenance_Page" transform="translate(-443.000000, -270.000000)">
            <g id="Page-1">
                <g id="Group-50" transform="translate(443.000000, 270.000000)">
                    <path d="M503.766689,301.913181 C509.733177,301.913181 514.615212,306.768883 514.615212,312.703629 C514.615212,318.638376 509.733177,323.490082 503.766689,323.490082 L228.419867,323.490082 C222.449377,323.490082 217.567341,318.638376 217.567341,312.703629 C217.567341,311.352825 217.839455,310.002021 218.383682,308.926972 L10.8571417,308.926972 C4.88665196,308.926972 0.00461611606,304.07127 0.00461611606,298.136524 C0.00461611606,292.19778 4.88665196,287.342078 10.8571417,287.342078 L463.617946,287.342078 C469.852546,287.342078 474.470472,292.19778 474.470472,298.136524 C474.470472,299.487328 474.470472,300.562376 473.926245,301.913181 L503.766689,301.913181 Z" id="Fill-2" fill="#0063B0"></path>
                    <path d="M354.833382,169.460023 L333.944672,147.339603 C332.588106,145.988799 331.235542,145.181513 329.602861,144.909754 L329.602861,94.1946451 L85.7291639,94.1946451 L85.7291639,160.016382 L99.8350461,160.016382 L99.8350461,108.761751 L315.50098,108.761751 L315.50098,156.239725 L304.380343,169.19226 C301.395098,172.425398 299.226194,178.631904 299.226194,182.680321 L299.226194,290.313049 C299.226194,294.629228 302.747662,298.134126 307.089473,298.134126 L352.392364,298.134126 C356.734175,298.134126 360.259645,294.629228 360.259645,290.313049 L360.259645,182.680321 C360.259645,178.631904 357.818627,172.425398 354.833382,169.460023" id="Fill-4" fill="#A80000"></path>
                    <path d="M227.061701,42.1315294 L217.837854,19.4715871 C217.297629,18.1247793 215.66895,16.773975 214.312384,16.773975 L212.95982,16.506212 L210.246689,35.6572602 L203.735974,43.2105743 L192.883448,41.8637664 L188.541637,32.4201256 L191.254769,13.5368403 L189.898203,13.2690774 C188.541637,12.9973179 186.640845,13.8085998 185.828506,14.8876447 L170.638172,34.3104523 C169.821831,35.3894972 169.553719,37.2758275 170.097946,38.6266318 L179.317791,61.2865741 C179.862018,62.633382 181.218584,63.9841863 182.843261,64.2519493 L184.744054,64.5237087 L170.910285,161.90551 L191.526882,164.874882 L205.360651,67.2213209 L207.261444,67.4890839 C208.618009,67.7608433 210.5148,66.9495614 211.327139,65.8705166 L226.521475,46.7194683 C227.333814,45.368664 227.605928,43.4823337 227.061701,42.1315294" id="Fill-6" fill="#401367"></path>
                    <path d="M227.061701,42.1315294 L219.470535,22.9804812 L217.569742,36.4685421 L210.786914,44.2896192 L203.735974,43.2105743 L192.883448,41.8637664 L188.541637,32.4201256 L191.254769,13.5368403 L190.44243,19.2038241 L177.689112,35.1177378 C176.876773,36.4685421 176.608661,38.3548724 177.148887,39.7056767 L186.372733,62.3616225 C186.91696,63.7124268 188.541637,65.0632311 189.898203,65.0632311 L192.071109,65.6027536 L178.233339,162.984555 L191.526882,164.874882 L205.360651,67.2213209 L207.261444,67.4890839 C208.618009,67.7608433 210.5148,66.9495614 211.327139,65.8705166 L226.521475,46.7194683 C227.333814,45.368664 227.605928,43.4823337 227.061701,42.1315294" id="Fill-8" fill="#5C2D91"></path>
                    <path d="M167.110701,47.7981136 C156.530288,17.8526202 115.837319,24.3268894 115.837319,24.3268894 L115.569207,24.3268894 C112.856076,24.5986489 108.786379,24.8664118 103.904343,26.2172162 L103.63223,26.2172162 L103.360116,26.2172162 L103.092004,26.2172162 C102.819891,26.2172162 102.547777,26.4849791 102.275664,26.4849791 L101.731437,26.4849791 C93.3279326,28.6430689 88.1697816,31.3406811 87.8976682,32.4197259 C87.3534412,35.92862 85.1845368,37.0076649 84.1000845,37.2754279 C83.0156323,37.5471873 80.0303874,37.2754279 77.861483,36.196383 C74.0638994,34.8495751 68.3655231,34.3100527 68.3655231,34.3100527 L64.840053,35.1173381 L62.399035,35.92862 L61.8548081,35.92862 C59.6859036,36.4681424 58.6014514,38.6262322 58.8695632,40.5125625 L63.7556007,60.746652 C64.2998277,62.6329823 66.4687321,63.9837866 68.3655231,63.4442642 L68.9097501,63.4442642 L75.4204651,61.8256969 C75.4204651,61.8256969 80.3025009,59.1280847 82.475407,56.4304725 C84.1000845,54.5401458 86.5411025,52.9215785 87.6295564,52.6538155 C88.4418951,52.6538155 89.7984608,52.6538155 90.882913,53.4611009 L90.882913,53.7328604 L91.42714,55.6191907 C91.9673653,57.7772804 94.1402714,58.8563253 96.3091758,58.5885623 L102.547777,56.969995 L119.911018,131.424091 L133.744787,127.915197 L116.381546,53.7328604 L122.624149,52.382056 C124.52094,51.8425336 125.877506,49.6844439 125.337281,47.5263541 L125.061166,46.1795463 C143.236745,32.9592484 164.669683,46.9868317 167.110701,47.7981136" id="Fill-10" fill="#FFB900"></path>
                    <path d="M154.363385,179.710949 C154.90361,181.869039 153.547044,184.027129 151.37814,184.566651 L129.673089,189.694113 C127.504184,190.229639 125.33528,188.882831 124.791053,186.724741 L102.273663,90.9575105 C101.733438,89.0711802 103.090003,86.9130905 105.258908,86.3735681 L126.959957,81.2461067 C129.132864,80.7105807 131.301768,82.0573886 131.845995,84.2154783 L154.363385,179.710949 Z" id="Fill-12" fill="#5C2D91"></path>
                    <path d="M109.059293,85.5634851 L105.261709,86.374767 C103.092805,86.910293 101.732237,89.0683827 102.276464,90.9587095 L124.793854,186.721943 C125.334079,188.88403 127.502984,190.230838 129.671888,189.691315 L133.473474,188.61227 L109.059293,85.5634851 Z" id="Fill-14" fill="#401367"></path>
                    <path d="M70.2655154,59.1280847 L65.6555931,39.1657546 C65.1113661,37.0076649 66.4679318,34.8495751 68.3647228,34.3100527 L64.8432543,35.1173381 L62.3982347,35.92862 L61.8540078,35.92862 C59.6851033,36.4681424 58.6006511,38.6262322 58.8687629,40.5125625 L63.7548004,60.746652 C64.2990274,62.6329823 66.4679318,63.9837866 68.3647228,63.4442642 L68.9089497,63.4442642 L75.4196647,61.8256969 L75.1515529,62.0934599 C72.9786468,62.3652193 70.8097424,61.2861745 70.2655154,59.1280847" id="Fill-16" fill="#DB9D00"></path>
                    <polygon id="Fill-18" fill="#DB9D00" points="106.886387 55.8905505 102.276464 56.9695953 109.059293 85.5642844 113.397102 84.4852395"></polygon>
                    <path d="M167.923439,121.711488 C167.383214,119.285636 167.111101,116.855786 167.111101,114.429934 C167.111101,94.1958441 183.662003,78.010171 204.006486,78.010171 C212.141879,78.010171 219.737046,80.7077832 225.703534,85.0239627 C233.84693,71.2641423 248.765151,62.0962574 265.856278,62.0962574 C290.814686,62.0962574 311.427282,82.0585875 311.703397,107.144383 L312.243622,107.144383 C332.588106,107.144383 349.139008,123.330056 349.139008,143.564145 C349.139008,163.794238 332.588106,180.247674 312.243622,180.247674 L168.73978,180.247674 C152.464993,180.247674 139.167448,167.031373 139.167448,150.8457 C139.167448,134.931786 151.920766,121.983248 167.923439,121.711488" id="Fill-20" fill="#FFFFFF"></path>
                    <path d="M151.104026,127.376074 C148.667009,131.692254 147.310444,136.547956 147.310444,141.403658 C147.310444,157.589331 160.599986,170.809628 176.874772,170.809628 L320.382616,170.809628 C329.334349,170.809628 337.469742,167.572494 343.712345,162.445032 C337.20163,172.967718 325.536765,180.249273 312.247224,180.249273 L168.73938,180.249273 C152.464593,180.249273 139.17105,167.032971 139.17105,150.847298 C139.17105,141.403658 143.780972,132.771299 151.104026,127.376074" id="Fill-22" fill="#D2D2D2"></path>
                    <polygon id="Fill-24" fill="#E81123" points="92.2394787 298.135724 360.263247 298.135724 360.263247 174.856846 92.2394787 174.856846"></polygon>
                    <path d="M118.551251,273.317293 C118.551251,273.317293 159.788447,174.856446 360.260045,174.856446 L118.551251,174.856446 L118.551251,273.317293 Z" id="Fill-26" fill="#BA1121"></path>
                    <path d="M360.261646,298.135325 L360.261646,291.661055 L122.894662,291.661055 C122.078322,295.437712 119.093077,298.135325 115.027381,298.135325 L360.261646,298.135325 Z" id="Fill-27" fill="#8A0000"></path>
                    <path d="M124.522541,175.125009 L98.2075675,147.337605 C95.2223226,144.10047 90.6083986,144.10047 87.6271554,147.337605 L63.7531997,174.585486 C63.4850879,174.857246 63.4850879,175.125009 63.4850879,175.392772 L63.4850879,294.35547 C63.4850879,296.517557 65.1097654,298.136124 67.2786699,298.136124 L120.448842,298.136124 C122.621748,298.136124 124.522541,296.517557 124.522541,294.35547 L124.522541,175.125009 Z" id="Fill-28" fill="#A80000"></path>
                    <path d="M244.424141,308.657211 C241.983123,308.657211 239.814218,306.766884 239.814218,304.341032 L239.814218,164.872484 C239.814218,162.446631 241.983123,160.288541 244.424141,160.288541 L345.066109,160.288541 C347.239015,160.288541 349.40792,162.446631 349.40792,164.872484 L349.40792,304.341032 C349.40792,306.766884 347.239015,308.657211 345.066109,308.657211 L244.424141,308.657211 Z" id="Fill-29" fill="#000000"></path>
                    <path d="M246.05362,308.657211 C243.612602,308.657211 241.71181,306.766884 241.71181,304.341032 L241.71181,164.872484 C241.71181,162.446631 243.612602,160.288541 246.05362,160.288541 L346.695589,160.288541 C349.140608,160.288541 351.033398,162.446631 351.033398,164.872484 L351.033398,304.341032 C351.033398,306.766884 349.140608,308.657211 346.695589,308.657211 L246.05362,308.657211 Z" id="Fill-30" fill="#505050"></path>
                    <polygon id="Fill-31" fill="#FFB900" points="253.9189 296.788916 338.830309 296.788916 338.830309 172.155237 253.9189 172.155237"></polygon>
                    <polygon id="Fill-32" fill="#969696" points="342.625492 235.011599 342.897605 239.327779 346.154963 239.327779 346.967302 235.011599"></polygon>
                    <path d="M446.524018,305.148717 L442.454321,297.32764 L447.60847,294.630027 L451.678167,302.722864 C452.494508,304.069672 451.950281,305.688239 450.597717,306.499521 C449.241151,307.306806 447.340358,306.767284 446.524018,305.148717" id="Fill-33" fill="#E81123"></path>
                    <polygon id="Fill-34" fill="#5C2D91" points="324.992939 28.6434685 305.736909 38.3548724 296.236947 43.2105743 419.668419 282.490773 429.436492 277.635071 448.42441 267.923667"></polygon>
                    <polygon id="Fill-35" fill="#28114A" points="294.61307 32.6906861 299.222992 41.5948045 322.012496 29.9930739 317.126458 21.092952"></polygon>
                    <polygon id="Fill-36" fill="#5C2D91" points="451.952282 298.404686 448.42281 267.923667 419.67082 282.490773 442.728435 302.988629"></polygon>
                    <polygon id="Fill-37" fill="#401367" points="296.238948 43.2105743 419.67042 282.490773 429.434492 277.635071 305.734908 38.3548724"></polygon>
                    <path d="M311.702196,3.01775144 C310.617744,0.591898715 307.632499,-0.219383169 305.459593,0.859661702 L294.611069,6.52264904 C293.526617,7.06217148 291.897938,7.87345336 290.27326,8.68073878 C288.916695,9.22026122 287.284014,10.0315431 286.199561,10.5710655 L284.846997,11.378351 C282.674091,12.4573958 281.861753,15.4267675 282.946205,17.5848572 L291.625824,34.3100527 L301.117782,29.1825913 L320.113704,19.4711875 L311.702196,3.01775144 Z" id="Fill-38" fill="#5C2D91"></path>
                    <path d="M300.580358,28.1047454 L291.084399,9.76098259 C290.540172,9.22146016 289.727833,8.95369717 289.183606,9.22146016 C288.099154,9.76098259 287.014701,10.300505 286.198361,10.568268 C283.217118,12.1908318 282.132666,15.9634924 283.489231,18.932864 L290.816287,32.9604473 C291.356512,33.7677327 292.168851,34.0394922 292.713078,33.4999697 L299.76802,29.9950721 C300.580358,29.7233127 300.84847,28.6442678 300.580358,28.1047454" id="Fill-39" fill="#401367"></path>
                    <polygon id="Fill-40" fill="#5C2D91" points="425.366795 222.871945 407.459328 188.614268 411.260913 186.456179 428.892265 220.985615"></polygon>
                    <polygon id="Fill-41" fill="#401367" points="425.366795 222.871945 407.459328 188.614268 409.632234 187.263464 427.5357 221.7929"></polygon>
                    <polygon id="Fill-42" fill="#FFFFFF" points="260.973842 284.375904 331.775367 284.375904 331.775367 195.354702 260.973842 195.354702"></polygon>
                    <path d="M318.755938,185.644897 L306.00262,185.644897 C306.00262,180.249673 301.664811,176.205252 296.50666,176.205252 C291.084399,176.205252 286.742588,180.249673 286.742588,185.644897 L273.453046,185.644897 C272.364592,185.644897 271.284142,186.456179 271.284142,187.802987 L271.284142,195.356301 C271.284142,196.435346 272.364592,197.51439 273.453046,197.51439 L318.755938,197.51439 C320.112503,197.51439 320.924842,196.435346 320.924842,195.356301 L320.924842,187.802987 C320.924842,186.456179 320.112503,185.644897 318.755938,185.644897 L318.755938,185.644897 Z M291.084399,185.644897 C291.084399,182.679522 293.525416,180.249673 296.50666,180.249673 C299.223793,180.249673 301.664811,182.679522 301.664811,185.644897 L291.084399,185.644897 Z" id="Fill-43" fill="#001F50"></path>
                    <path d="M319.02565,235.011599 L273.722759,235.011599 C272.366193,235.011599 271.281741,233.932554 271.281741,232.585747 C271.281741,231.234942 272.366193,230.155897 273.722759,230.155897 L319.02565,230.155897 C320.382216,230.155897 321.466668,231.234942 321.466668,232.585747 C321.466668,233.932554 320.382216,235.011599 319.02565,235.011599" id="Fill-44" fill="#0078D7"></path>
                    <path d="M295.695521,219.90577 L273.722358,219.90577 C272.365793,219.90577 271.28134,218.826726 271.28134,217.475921 C271.28134,216.129113 272.365793,214.778309 273.722358,214.778309 L295.695521,214.778309 C297.052087,214.778309 298.136539,216.129113 298.136539,217.475921 C298.136539,218.826726 297.052087,219.90577 295.695521,219.90577" id="Fill-45" fill="#0078D7"></path>
                    <path d="M319.02565,243.644358 L273.722759,243.644358 C272.366193,243.644358 271.281741,242.565313 271.281741,241.218505 C271.281741,239.867701 272.366193,238.788656 273.722759,238.788656 L319.02565,238.788656 C320.382216,238.788656 321.466668,239.867701 321.466668,241.218505 C321.466668,242.565313 320.382216,243.644358 319.02565,243.644358" id="Fill-46" fill="#0078D7"></path>
                    <path d="M319.02565,252.546878 L273.722759,252.546878 C272.366193,252.546878 271.281741,251.463836 271.281741,250.121025 C271.281741,248.770221 272.366193,247.691176 273.722759,247.691176 L319.02565,247.691176 C320.382216,247.691176 321.466668,248.770221 321.466668,250.121025 C321.466668,251.463836 320.382216,252.546878 319.02565,252.546878" id="Fill-47" fill="#0078D7"></path>
                    <path d="M319.02565,261.179636 L273.722759,261.179636 C272.366193,261.179636 271.281741,260.096595 271.281741,258.753784 C271.281741,257.402979 272.366193,256.323934 273.722759,256.323934 L319.02565,256.323934 C320.382216,256.323934 321.466668,257.402979 321.466668,258.753784 C321.466668,260.096595 320.382216,261.179636 319.02565,261.179636" id="Fill-48" fill="#0078D7"></path>
                    <path d="M319.02565,270.081757 L273.722759,270.081757 C272.366193,270.081757 271.281741,268.998715 271.281741,267.655904 C271.281741,266.3051 272.366193,265.222058 273.722759,265.222058 L319.02565,265.222058 C320.382216,265.222058 321.466668,266.3051 321.466668,267.655904 C321.466668,268.998715 320.382216,270.081757 319.02565,270.081757" id="Fill-49" fill="#0078D7"></path>
                </g>
            </g>
        </g>
    </g>
</svg>