<?xml version="1.0" encoding="UTF-8"?>
<svg width="252px" height="301px" viewBox="0 0 252 301" version="1.1" xmlns="http://www.w3.org/2000/svg" xmlns:xlink="http://www.w3.org/1999/xlink">
    <!-- Generator: Sketch 42 (36781) - http://www.bohemiancoding.com/sketch -->
    <title>Group</title>
    <desc>Created with Sketch.</desc>
    <defs>
        <polygon id="path-1" points="65.5909286 65.1604036 65.5909286 0.365707143 0.793028571 0.365707143 0.793028571 65.1604036"></polygon>
        <polygon id="path-3" points="122.71288 0.39852 0.77624 0.39852 0.77624 121.351308 122.71288 121.351308 122.71288 0.39852"></polygon>
        <polygon id="path-5" points="45.0380947 94.15375 89.5263158 94.15375 89.5263158 0.23245 0.549873684 0.23245 0.549873684 94.15375"></polygon>
    </defs>
    <g id="Artwork-" stroke="none" stroke-width="1" fill="none" fill-rule="evenodd">
        <g id="2.3a_Home_Search_error" transform="translate(0.000000, -345.000000)">
            <g id="Group" transform="translate(0.000000, 345.000000)">
                <g id="Page-1">
                    <g id="Group-3" transform="translate(186.000000, 94.000000)">
                        <mask id="mask-2" fill="white">
                            <use xlink:href="#path-1"></use>
                        </mask>
                        <g id="Clip-2"></g>
                        <path d="M51.3453857,62.7170643 L0.793028571,12.1647071 L12.5920286,0.365707143 L63.1493143,50.9180643 C66.4071,54.17585 66.4071,59.4592786 63.1493143,62.7170643 C59.8866,65.97485 54.6031714,65.97485 51.3453857,62.7170643" id="Fill-1" fill="#004B50" mask="url(#mask-2)"></path>
                    </g>
                    <g id="Group-6" transform="translate(89.000000, 0.000000)">
                        <mask id="mask-4" fill="white">
                            <use xlink:href="#path-3"></use>
                        </mask>
                        <g id="Clip-5"></g>
                        <path d="M122.71288,60.874668 C122.71288,94.276548 95.418,121.351308 61.74456,121.351308 C28.07608,121.351308 0.77624,94.276548 0.77624,60.874668 C0.77624,27.472788 28.07608,0.398028 61.74456,0.398028 C95.418,0.398028 122.71288,27.472788 122.71288,60.874668" id="Fill-4" fill="#004B50" mask="url(#mask-4)"></path>
                    </g>
                    <path d="M200,60.5 C200,87.8402308 177.835306,110 150.5,110 C123.159769,110 101,87.8402308 101,60.5 C101,33.1597692 123.159769,11 150.5,11 C177.835306,11 200,33.1597692 200,60.5" id="Fill-7" fill="#FFFFFF"></path>
                    <g id="Group-11" transform="translate(111.000000, 16.000000)">
                        <mask id="mask-6" fill="white">
                            <use xlink:href="#path-5"></use>
                        </mask>
                        <g id="Clip-10"></g>
                        <path d="M62.7036632,0.23245 C63.8959789,4.9597 64.5341895,9.90475 64.5341895,15.0082 C64.5341895,48.1831 37.6551368,75.07645 4.49292632,75.07645 C3.17197895,75.07645 1.85103158,75.01705 0.549873684,74.9329 C9.64808421,86.6248 23.8420842,94.15375 39.7973474,94.15375 C67.2651368,94.15375 89.5332421,71.87875 89.5332421,44.39635 C89.5332421,25.18045 78.6391368,8.5237 62.7036632,0.23245" id="Fill-9" fill="#231F1F" opacity="0.0474580224" mask="url(#mask-6)"></path>
                    </g>
                    <path d="M196,144.821077 L198.520122,125.143861 C198.906704,122.108598 200.301334,119.296153 202.469128,117.162061 L220.941865,99 L235.34326,113.10184 C248.164073,125.648913 248.227688,146.430311 235.480276,159.056608 L221.411635,173 L196,144.821077 Z" id="Fill-12" fill="#DFB781"></path>
                    <g id="Group-16" transform="translate(212.000000, 121.000000)" fill="#000000" opacity="0.0692047575">
                        <path d="M29.7035,0.156008333 C29.1485,3.01259167 28.5235,5.73150833 27.8835,8.20459167 C24.1835,22.566175 12.5235,33.3582583 0.2985,41.888675 L9.3835,51.682675 L23.7635,37.8373417 C34.2885,27.699175 36.2535,12.2755917 29.7035,0.156008333" id="Fill-14"></path>
                    </g>
                    <path d="M171,164.048835 L194.424852,143 C194.424852,143 225.917823,176.428763 224.979438,176.734319 C224.046019,177.044803 202.289406,198 202.289406,198 L171,164.048835 Z" id="Fill-17" fill="#007D85"></path>
                    <path d="M0,215.78125 L97.3380907,215.78125 L167.308818,160 L204,199.976974 L145.427802,258.353618 C140.812932,262.942434 135.054249,266.223684 128.750892,267.847039 L0,301 L0,215.78125 Z" id="Fill-19" fill="#004B50"></path>
                </g>
            </g>
        </g>
    </g>
</svg>