<?xml version="1.0" encoding="utf-8"?>
<!-- Generator: Adobe Illustrator 21.0.0, SVG Export Plug-In . SVG Version: 6.00 Build 0)  -->
<svg version="1.1" id="Layer_1" xmlns="http://www.w3.org/2000/svg" xmlns:xlink="http://www.w3.org/1999/xlink" x="0px" y="0px"
	 viewBox="0 0 151 191" style="enable-background:new 0 0 151 191;" xml:space="preserve">
<style type="text/css">
	.st0{fill:#522882;}
	.st1{fill:#E81123;}
	.st2{fill:#C50105;}
	.st3{fill:#008272;}
	.st4{fill:#636363;}
	.st5{fill:#00B294;}
	.st6{fill:#D6CA00;}
	.st7{fill:#FFF100;}
	.st8{fill:#FFB900;}
	.st9{fill:#DB9D00;}
	.st10{fill:#F0E300;}
	.st11{fill:#BA1121;}
	.st12{fill:#004B50;}
	.st13{fill:#40A195;}
	.st14{fill:#FFFFFF;}
	.st15{fill:#DEDEDE;}
</style>
<path class="st0" d="M123.7,152.2c-83,0-83,0-83,0c-2.3,0-4.1,2.2-4.1,4.9c0,2.7,1.9,4.9,4.1,4.9c83,0,83,0,83,0
	c2.3,0,4.1-2.2,4.1-4.9C127.9,154.4,126,152.2,123.7,152.2z"/>
<path class="st0" d="M112.1,165.1c-27.2,0-27.2,0-27.2,0c-1.2,0-2.4,0.9-2.9,2.2c-60.1,0-60.1,0-60.1,0c-1.8,0-3.2,1.5-3.2,3.4
	s1.4,3.4,3.2,3.4c68.1,0,68.1,0,68.1,0c1.3,0,2.5-0.8,2.9-2.1c19.2,0,19.2,0,19.2,0c1.8,0,3.1-1.5,3.1-3.5
	C115.2,166.7,113.8,165.1,112.1,165.1z"/>
<path d="M50.5,127.8c-0.5,0-0.9-0.4-0.9-0.9c0-104,0-104,0-104c0-0.5,0.4-0.9,0.9-0.9c63.9,0,63.9,0,63.9,0c0.5,0,0.8,0.4,0.8,0.9
	c0,104,0,104,0,104c0,0.5-0.3,0.9-0.8,0.9C50.5,127.8,50.5,127.8,50.5,127.8"/>
<path class="st1" d="M58.8,119.6c-0.6,0-1.1-0.5-1.1-1.2c0-86.9,0-86.9,0-86.9c0-0.6,0.5-1.1,1.1-1.1c47,0,47,0,47,0
	c0.7,0,1.2,0.5,1.2,1.1c0,86.9,0,86.9,0,86.9c0,0.7-0.5,1.2-1.2,1.2C58.8,119.6,58.8,119.6,58.8,119.6"/>
<path d="M105.9,30.3L105.9,30.3c-47,0-47,0-47,0c-0.6,0-1.1,0.5-1.1,1.1l0,0c0-0.6,0.5-1.1,1.1-1.1
	C105.9,30.3,105.9,30.3,105.9,30.3L105.9,30.3 M57.7,118.3L57.7,118.3"/>
<path class="st2" d="M105.9,30.3c-47,0-47,0-47,0c-0.6,0-1.1,0.5-1.1,1.1c0,86.9,0,86.9,0,86.9l0,0c0,0.3,0.1,0.6,0.2,0.8
	c48.8-88.6,48.8-88.6,48.8-88.6C106.5,30.4,106.2,30.3,105.9,30.3L105.9,30.3"/>
<path d="M116.2,90.2c-0.2,0.7-0.9,1.2-1.8,1c-18-4.3-18-4.3-18-4.3c-0.7-0.2-1.1-0.9-1-1.7c9.1-37.7,9.1-37.7,9.1-37.7
	c0.2-0.8,0.9-1.2,1.7-1c18.1,4.3,18.1,4.3,18.1,4.3c0.7,0.1,1.1,0.9,0.9,1.7L116.2,90.2z"/>
<polygon class="st3" points="116,85.8 97.6,81.3 105,50.6 123.3,55.1 "/>
<path class="st4" d="M116.8,52.2c-0.1-0.1-0.1-0.1-0.1-0.1c-4.4-1-4.4-1-4.4-1c-0.1,0-0.2-0.1-0.1-0.2c0-0.1,0.1-0.2,0.2-0.2
	c4.4,1.1,4.4,1.1,4.4,1.1c0.1,0,0.2,0.1,0.2,0.2C117,52.1,116.9,52.2,116.8,52.2z"/>
<polygon class="st5" points="116,85.8 105,50.6 97.6,81.3 "/>
<path class="st6" d="M31.1,53.8c1.4,0.5,12.5,5.9,12.5,5.9s-9.2-10.9-10.7-11.4c-1.4-0.4-3.1,0.3-3.6,1.9
	C28.8,51.8,29.6,53.3,31.1,53.8z"/>
<path class="st6" d="M35.9,46.2c0,1.6,7.8,13.5,7.8,13.5s-2-12.1-2.1-13.6c0-1.7-1.3-2.9-2.9-2.8C37.1,43.3,35.9,44.6,35.9,46.2z"/>
<path class="st7" d="M32.2,49.5c1,1.2,11.5,10.2,11.5,10.2s-6-12.6-6.9-13.8c-1-1.2-2.8-1.4-4-0.4C31.5,46.4,31.2,48.3,32.2,49.5z"
	/>
<path class="st8" d="M52.5,59.4c-2.3-3.5-7-4.4-10.5-2.1c-3.5,2.4-4.4,7-2.1,10.5l0,0c10.9,15.3,33.4,36.3,33.4,36.3
	S62.7,75.7,53,60.1C52.8,59.9,52.7,59.6,52.5,59.4"/>
<path class="st9" d="M50.6,60.8c0.2,0.2,0.3,0.5,0.4,0.7c7.1,11.6,14.9,30.1,18.4,39c2.5,2.4,3.9,3.7,3.9,3.7S62.7,75.7,53,60.1
	c-0.1-0.2-0.2-0.5-0.4-0.7c-2.3-3.5-7-4.4-10.5-2.1c-0.3,0.2-0.7,0.5-1,0.8C44.4,56.5,48.5,57.6,50.6,60.8z"/>
<path class="st7" d="M116.6,81c-2.4-2.3-2.4-2.3-2.4-2.3C112,81,112,81,112,81c-2.4-2.3-2.4-2.3-2.4-2.3c-2.4,2.3-2.4,2.3-2.4,2.3
	c-2.3-2.3-2.3-2.3-2.3-2.3c-2.4,2.3-2.4,2.3-2.4,2.3c-2.4-2.3-2.4-2.3-2.4-2.3C97.8,81,97.8,81,97.8,81c-2.3-2.3-2.3-2.3-2.3-2.3
	C93.1,81,93.1,81,93.1,81c-2.4-2.3-2.4-2.3-2.4-2.3C88.5,81,88.5,81,88.5,81c-2.4-2.3-2.4-2.3-2.4-2.3C83.7,81,83.7,81,83.7,81
	c-2.3-2.3-2.3-2.3-2.3-2.3C79.1,81,79.1,81,79.1,81c-2.4-2.3-2.4-2.3-2.4-2.3C74.3,81,74.3,81,74.3,81c-2.3-2.3-2.3-2.3-2.3-2.3
	C69.7,81,69.7,81,69.7,81c-2.4-2.3-2.4-2.3-2.4-2.3C65,81,65,81,65,81c-2.4-2.3-2.4-2.3-2.4-2.3C60.3,81,60.3,81,60.3,81
	C58,78.7,58,78.7,58,78.7C55.6,81,55.6,81,55.6,81c-2.4-2.3-2.4-2.3-2.4-2.3C50.9,81,50.9,81,50.9,81c-2.3-2.3-2.3-2.3-2.3-2.3
	c0,78.8,0,78.8,0,78.8c53.9,0,53.9,0,53.9,0l0,0c8.7,0,16.1,0.4,16.3-8.1c0.1-70.8,0.1-70.8,0.1-70.8L116.6,81z"/>
<path class="st10" d="M119,78.7c-2.4,2.3-2.4,2.3-2.4,2.3c-2.4-2.3-2.4-2.3-2.4-2.3C112,81,112,81,112,81c-2.4-2.3-2.4-2.3-2.4-2.3
	c-2.4,2.3-2.4,2.3-2.4,2.3c-2.3-2.3-2.3-2.3-2.3-2.3c-2.4,2.3-2.4,2.3-2.4,2.3c0,76.6,0,76.6,0,76.6l0,0c8.7,0,16.4,1.2,16.3-8.1
	c0-7.2,0-7.2,0-7.2L119,78.7z"/>
<path class="st1" d="M92.5,158.8c0,5.2,4.2,9.3,9.3,9.3c5.2,0,9.3-4.1,9.3-9.3c0-5.1-4.1-9.3-9.3-9.3
	C96.8,149.5,92.5,153.8,92.5,158.8z"/>
<path class="st11" d="M101.8,168.1c-0.4,0-0.9,0-1.3-0.1c4.4-0.6,7.9-4.5,7.9-9.2c0-4.6-3.4-8.5-7.9-9.2c0.4,0,0.9-0.1,1.3-0.1
	c5.2,0,9.3,4.2,9.3,9.3C111.1,164,107,168.1,101.8,168.1z"/>
<polygon class="st12" points="94.5,157.4 98.1,155.2 99.9,159.1 100.4,154.9 104.5,156 101.6,152.9 105,150.5 100.8,150.9 
	101,146.5 98.6,150.1 95.4,147.3 96.8,151.4 92.5,152.1 96.6,153.7 "/>
<rect x="29" y="107.9" class="st3" width="31.7" height="62.6"/>
<rect x="35.7" y="98" class="st3" width="18.3" height="4.5"/>
<rect x="29" y="107.9" class="st13" width="18.4" height="62.6"/>
<rect x="35.7" y="98" class="st13" width="18.3" height="4.5"/>
<path class="st3" d="M47.3,108.1c0,0-0.9,62.4-18.3,62.4c2.8,0,18.4,0,18.4,0L47.3,108.1z"/>
<polygon class="st12" points="54,102.5 47.4,107.9 47.4,170.5 60.7,170.5 60.7,107.9 "/>
<polygon class="st3" points="35.7,102.5 29,107.9 47.4,107.9 54,102.5 "/>
<path class="st1" d="M75.3,168.9h0.1H75.3z"/>
<path class="st14" d="M76.6,156.7c-5.5,0-10-1-10-2.3c0,8.8,0,8.8,0,8.8c0,2.6,0,2.6,0,2.6c0,0.1,0,0.1,0,0.1l0,0
	c0,1.2,4.5,2.3,10,2.3c5.6,0,10-1,10-2.3c0-0.1,0-0.1,0-0.1c0-11.4,0-11.4,0-11.4C86.6,155.6,82.2,156.7,76.6,156.7"/>
<path class="st1" d="M76.6,144.7c-5.5,0-10-1-10-2.3c0,12.8,0,12.8,0,12.8c0,1.3,4.5,2.4,10,2.4c5.6,0,10-1,10-2.4
	c0-12.8,0-12.8,0-12.8C86.6,143.6,82.2,144.7,76.6,144.7"/>
<path class="st14" d="M86.6,142.4c0,1.2-4.4,2.3-10,2.3c-5.5,0-10-1-10-2.3c0-1.3,4.5-2.4,10-2.4C82.2,140,86.6,141.1,86.6,142.4"/>
<path class="st1" d="M76.6,168.1c-5.5,0-10-1-10-2.3c0,3,0,3,0,3l0,0c0,1.2,4.5,2.3,10.1,2.3c5.5,0,9.9-1,9.9-2.3l0,0c0-3,0-3,0-3
	C86.6,167.1,82.2,168.1,76.6,168.1"/>
<path class="st15" d="M86.6,155.2c0,0.7-1.1,1.2-3.1,1.7c0,1.8,0,7.9,0,10.6c2-0.4,3.1-1,3.1-1.7c0-0.1,0-0.1,0-0.1
	C86.6,155.2,86.6,155.2,86.6,155.2"/>
<path class="st11" d="M86.6,142.4c0,0.6-1.1,1.2-3.1,1.7c0,3.6,0,12.2,0,12.8l0,0c2-0.4,3.1-0.9,3.1-1.7
	C86.6,142.4,86.6,142.4,86.6,142.4"/>
<path class="st15" d="M76.6,140L76.6,140c-0.1,0-0.1,0-0.1,0l0,0c-0.5,0-0.9,0-1.4,0.1c4.9,0.1,8.5,1,8.5,2.3c0,0,0,0.7,0,1.7
	c2-0.4,3.1-1,3.1-1.7C86.6,141.1,82.2,140,76.6,140"/>
<path class="st11" d="M86.6,165.9L86.6,165.9c0,0.6-1.1,1.2-3.1,1.7c0,0.8,0,1.3,0,1.3c0,1.1-3.6,2.1-8.4,2.3c0.5,0,1,0,1.6,0
	c5.4,0,9.8-1,9.9-2.3l0,0C86.6,165.9,86.6,165.9,86.6,165.9"/>
<path class="st8" d="M80.3,157.6c0,2-1.7,3.7-3.7,3.7c-2.1,0-3.7-1.8-3.7-3.7c0-2.1,1.7-3.8,3.7-3.8
	C78.7,153.8,80.3,155.5,80.3,157.6"/>
<path class="st9" d="M76.6,153.8c-0.1,0-0.1,0-0.1,0l0,0c0,0.1,0,0.1,0,0.1l0,0c-1,0-1.9,0.4-2.5,1l0,0c5.2,5.3,5.2,5.3,5.2,5.3
	c0.7-0.7,1.1-1.6,1.1-2.6l0,0c0-0.1,0-0.1,0-0.2C80.2,155.4,78.6,153.8,76.6,153.8"/>
</svg>
