<svg width="551" height="320" viewBox="0 0 551 320" xmlns="http://www.w3.org/2000/svg" xmlns:xlink="http://www.w3.org/1999/xlink"><defs><path id="a" d="M114.628.37v39.094H.074V.37h114.554z"/></defs><g fill="none" fill-rule="evenodd"><path d="M541.345 320H9.535C4.4 320 0 315.606 0 310.485c0-5.49 4.402-9.512 9.534-9.512h531.81c5.136 0 9.535 4.022 9.535 9.512 0 5.12-4.4 9.515-9.535 9.515" fill="#000" opacity=".195"/><path d="M129.042 157.2V72.933c0-38.968 31.61-70.946 70.866-70.946 38.93 0 70.87 31.978 70.87 70.946v84.27H129.04z" fill="#3085B7"/><path d="M199.92 3.997c37.93 0 68.873 30.974 68.873 68.947v82.27H131.048v-82.27c0-37.973 30.943-68.947 68.87-68.947m0-3.997c-40.257 0-72.863 32.64-72.863 72.944v86.267h145.728V72.945C272.783 32.64 240.18 0 199.92 0" fill="#854CC7"/><path d="M140.964 68.55c0-32.307 26.284-58.62 58.89-58.62 32.275 0 58.56 26.313 58.56 58.62 0 32.64-26.285 58.954-58.56 58.954-32.606 0-58.89-26.313-58.89-58.953" fill="#AF89DA"/><path d="M152.887 68.49c0-26.646 21.625-48.63 48.575-48.63 26.618 0 48.577 21.984 48.577 48.63 0 26.98-21.96 48.63-48.578 48.63-26.95 0-48.575-21.65-48.575-48.63" fill="#D3BEEC"/><path fill="#5C2D91" d="M127.055 166.205H272.45v-7.328H127.056"/><path d="M330.76 110.663c-6.655-6.33-15.972-6.33-17.3-6.33h-30.944c-1.664-6.328-7.317-10.993-14.308-10.993v29.98c6.99 0 12.644-4.664 14.308-10.992h31.273s6.99 0 11.647 4.33c2.658 2.666 3.99 6.662 3.99 11.656v57.624c0 4.997-1.332 8.993-3.99 11.657-4.658 4.664-11.647 4.332-11.647 4.332h-26.615c-7.654 0-13.64 2.33-17.967 6.66-4.99 5.33-5.99 12.325-5.99 15.653-6.32 1.666-10.98 7.328-10.98 14.324h29.946c0-6.996-4.658-12.658-10.98-14.324.33-2.33 1-6.66 3.995-9.99 2.657-3 6.653-4.33 11.975-4.33h26.284c1.328 0 10.645.332 17.3-6.33 4.658-4.33 6.985-9.992 6.985-17.652v-57.624c0-7.327-2.327-13.322-6.986-17.65M194.945 59.284v232.488c0 3.667-2.995 6.327-6.322 6.327-3.658 0-6.654-2.66-6.654-6.328v-69.28c-.332-9.66-8.318-17.32-17.967-17.32-9.98 0-17.967 7.993-17.967 17.988v68.612c0 3.667-2.66 6.327-6.322 6.327-3.66 0-6.323-2.66-6.323-6.328v-36.637c0-9.99-8.316-17.987-17.962-17.987-9.98 0-18.3 7.996-18.3 17.987v36.637c0 3.667-2.662 6.327-6.324 6.327-3.327 0-6.32-2.66-6.32-6.328V236.15l20.628-31.643c.335-.332.666-.668.666-1-.33-2.667-12.31-4.662-27.28-4.662-14.64 0-26.62 1.995-26.95 4.662 0 .332.33.668.665 1L72.84 236.15v55.622c0 9.994 7.984 17.987 17.964 17.987 9.984 0 17.97-7.994 17.97-17.988v-36.637c0-3.664 2.992-6.33 6.654-6.33 3.327 0 6.32 2.666 6.32 6.33v38.638c1 8.99 8.65 15.986 17.966 15.986 9.98 0 17.966-7.994 17.966-17.988V223.16c0-3.667 2.996-6.328 6.323-6.328 3.66 0 6.653 2.66 6.653 6.328v68.612c0 9.994 7.986 17.987 17.967 17.987 9.98 0 17.967-7.994 17.967-17.988V59.284h-11.645z" fill="#854CC7"/><path d="M283.107 110.23v-1.002c-2.993 5.998-8.65 9.662-14.97 10.327v5.662c8.316 0 14.97-6.663 14.97-14.988" fill="#5C2D91"/><path d="M160.835 69.093c0-21.652 17.632-39.304 39.26-39.304 21.625 0 39.26 17.65 39.26 39.303 0 8.993-2.995 17.322-8.317 23.982h.33-.33c-.663.998-1.332 1.998-2.327 3-3.663 4.66-10.317 14.32-10.317 23.978h-36.6c0-9.66-6.65-19.318-10.643-23.98-.666-1-1.663-2-2.33-2.998-4.99-6.66-7.985-14.99-7.985-23.982" fill="#F4F1FF"/><path d="M160.835 69.093c0-21.65 17.632-39.304 39.257-39.304 21.628 0 39.263 17.654 39.263 39.303 0 8.993-2.995 17.322-8.317 23.982h.33-.33c-.666.998-1.332 1.998-2.33 3-3.66 4.66-10.315 14.32-10.315 23.978h-36.6c0-9.66-6.653-19.318-10.646-23.98-.666-1-1.663-2-2.33-2.998-4.99-6.66-7.982-14.99-7.982-23.982" stroke="#FFF" stroke-width="1.512"/><path d="M172.757 70.35c0-15.655 12.642-28.645 28.28-28.645" stroke="#FFF" stroke-width="1.163" stroke-linecap="round"/><path d="M239.855 69.093c0-21.652-17.635-39.304-39.26-39.304-1.332 0-2.66.332-3.993.332 19.964 1.998 35.598 18.653 35.598 38.97 0 8.994-3.326 17.323-8.317 23.983-.663.998-1.663 1.998-2.326 3-3.662 4.66-10.647 14.32-10.647 23.978h7.983c0-9.66 6.654-19.318 10.315-23.98.997-1 1.663-2 2.33-2.998 5.32-6.66 8.317-14.99 8.317-23.982" fill="#EDE8FF"/><path d="M220.3 121.144s1.995 0 1.995 1.998v2.33s0 2.002-1.995 2.002h-37.597s-1.998 0-1.998-2v-2.332s0-1.998 1.998-1.998H220.3z" fill="#854CC7"/><path d="M220.3 127.102s1.995 0 1.995 2.33v2.33s0 2-1.995 2h-37.597s-1.998 0-1.998-2v-2.33s0-2.33 1.998-2.33H220.3zM220.3 139.018s1.995 0 1.995 1.998v2.663s0 1.998-1.995 1.998h-37.597s-1.998 0-1.998-2v-2.662s0-1.998 1.998-1.998H220.3z" fill="#5C2D91"/><path d="M220.3 133.06s1.995 0 1.995 1.998v2.663s0 2.003-1.995 2.003h-37.597s-1.998 0-1.998-2.002v-2.662s0-1.998 1.998-1.998H220.3z" fill="#854CC7"/><path d="M64.177 186.152c0 4.802-3.882 8.693-8.667 8.693-4.787 0-8.668-3.89-8.668-8.693 0-4.802 3.88-8.693 8.668-8.693 4.785 0 8.667 3.89 8.667 8.692" fill="#F8B746"/><path d="M65.71 147.86c0 3.255-2.63 5.896-5.878 5.896-3.244 0-5.873-2.64-5.873-5.895 0-3.256 2.628-5.893 5.872-5.893 3.247 0 5.877 2.637 5.877 5.894M80.953 166.09c0 2.684-2.17 4.857-4.845 4.857s-4.844-2.173-4.844-4.856 2.17-4.86 4.844-4.86c2.676 0 4.845 2.177 4.845 4.86M35.278 97.35c0 1.984-1.607 3.596-3.585 3.596-1.98 0-3.584-1.612-3.584-3.595 0-1.986 1.603-3.595 3.583-3.595 1.978 0 3.585 1.61 3.585 3.596M48.21 97.344c.174 1.54-.93 2.927-2.462 3.102-1.535.175-2.918-.932-3.092-2.47-.175-1.538.93-2.926 2.46-3.1 1.536-.176 2.92.928 3.093 2.468M51.594 83.175c0 1.987-1.607 3.596-3.585 3.596-1.98 0-3.585-1.608-3.585-3.595 0-1.984 1.604-3.595 3.584-3.595 1.977 0 3.584 1.61 3.584 3.595" fill="#FFC95C"/><path d="M62.798 111.138c0 2.408-1.947 4.36-4.348 4.36-2.398 0-4.347-1.952-4.347-4.36 0-2.408 1.95-4.36 4.347-4.36 2.4 0 4.348 1.952 4.348 4.36" fill="#F9A207"/><path d="M69.89 119.584c0 1.23-.995 2.23-2.22 2.23-1.23 0-2.224-1-2.224-2.23 0-1.233.994-2.23 2.223-2.23 1.225 0 2.22.997 2.22 2.23M74.51 133.45c0 2.074-1.675 3.75-3.74 3.75-2.066 0-3.74-1.676-3.74-3.75 0-2.072 1.674-3.75 3.74-3.75 2.065 0 3.74 1.678 3.74 3.75" fill="#FFC95C"/><path d="M94.69 148.47c0 4.018-3.25 7.278-7.256 7.278-4.007 0-7.257-3.26-7.257-7.28 0-4.02 3.25-7.278 7.257-7.278s7.257 3.26 7.257 7.28" fill="#F9A106"/><path d="M97.04 194.86c0 4.02-3.25 7.28-7.257 7.28s-7.257-3.26-7.257-7.28c0-4.02 3.25-7.278 7.257-7.278s7.257 3.26 7.257 7.28" fill="#FFC95C"/><g><path fill="#A579D6" d="M248.265 246.602v-2.328.997"/><path d="M288.552 275.202c0 12.655-10.312 22.982-23.288 22.982-12.642 0-22.96-10.327-22.96-22.982 0-12.658 10.318-22.984 22.96-22.984 12.976 0 23.288 10.326 23.288 22.984" fill="#32135A"/><path d="M288.552 271.23c0 12.99-10.312 23.317-23.288 23.317-12.642 0-22.96-10.327-22.96-23.317 0-12.657 10.318-22.984 22.96-22.984 12.976 0 23.288 10.327 23.288 22.984" fill="#854CC7"/><path d="M282.543 272.188c0 9.99-8.318 18.32-18.298 18.32-9.65 0-17.967-8.33-17.967-18.32s8.317-17.984 17.967-17.984c9.98 0 18.298 7.993 18.298 17.984" fill="#282828"/><path fill="#854CC7" d="M260.87 266.974h7.01l-3.374 5.13h-4.32v.853h3.8l-3.8 5.562v.25h8.865v-.856h-7.48l3.382-4.957h4.1v-.854h-3.577l3.747-5.69v-.294h-8.352"/><path d="M265.305 281.535c-5.64 0-10.227-4.602-10.227-10.258 0-5.66 4.587-10.26 10.227-10.26 5.642 0 10.23 4.6 10.23 10.26 0 5.656-4.588 10.258-10.23 10.258m0-21.373c-6.108 0-11.08 4.985-11.08 11.115s4.972 11.112 11.08 11.112c6.11 0 11.08-4.984 11.08-11.113 0-6.13-4.97-11.115-11.08-11.115" fill="#854CC7"/></g><g><path d="M374.326 298.546c.13.56-.325 1.256-.906 1.39l-26.206 6.03c-.583.134-1.292-.296-1.42-.858l-12.134-53.05c-.126-.56.33-1.256.912-1.39l26.204-6.03c.583-.134 1.292.296 1.42.858l12.13 53.05z" fill="#000"/><path fill="#00AEEF" d="M364.68 267.082l-23.583 5.427-2.504-10.95 23.583-5.424"/><path fill="#FFF" d="M347.62 276.915l-5.242 1.207-1.155-5.054 5.242-1.205"/><path fill="#00AEEF" d="M353.736 275.51l-5.534 1.272-1.154-5.05 5.533-1.277M359.85 274.104l-5.535 1.27-1.155-5.05 5.534-1.274M365.964 272.696l-5.534 1.273-1.154-5.053 5.533-1.273M356.365 287.017l-11.356 2.61-2.504-10.942 11.358-2.615"/><path fill="#FDB813" d="M361.196 279.998l-5.533 1.273-1.218-5.332 5.53-1.273"/><path fill="#00AEEF" d="M367.312 278.592l-5.533 1.27-1.22-5.333 5.532-1.27"/><path fill="#FFF" d="M362.48 285.61l-5.533 1.274-1.218-5.333 5.53-1.27"/><path fill="#00AEEF" d="M368.596 284.205l-5.533 1.27-1.218-5.332 5.53-1.27M365.18 294.74l5.533-1.272-.71-3.088-5.526 1.273M352.95 297.552l11.65-2.678-.836-3.65-11.647 2.68M347.13 298.893l5.238-1.207-.703-3.085-5.242 1.205"/><path fill="#4BC1BF" d="M351.536 294.038l-5.242 1.207-1.155-5.054 5.24-1.206"/><path fill="#00AEEF" d="M363.765 291.225l-11.648 2.68-1.154-5.05 11.647-2.682"/><path fill="#68217A" d="M369.88 289.82l-5.534 1.27-1.154-5.05 5.533-1.275"/><path d="M350.864 302.807l-1.448-.582 1.037-1.128.31-.067s.068.285-.24.352l-.483.706.757.43.377.222-.31.067z" fill="#969696"/><path d="M351.23 302.107l-1.456.357s-.29.073-.357-.226l.294-.07 1.456-.36.29-.07c.065.3.065.3-.227.37M369.12 298.37c-.617.144-.994-.082-1.064-.38-.137-.6.106-.968.724-1.11.31-.074.687.154.824.752.07.296-.17.668-.484.738m-.274-1.195c-.307.073-.55.442-.48.744 0 0 .377.224.687.15.31-.07.244-.368.244-.368-.07-.296-.137-.598-.45-.527" fill="#969696"/><path d="M368.026 299.187l-.067-.3-.07-.295.553-.442c-.07-.296.24-.37.307-.07l-.483.738s.07.302-.24.37M359.617 299.928l.93-.21-.207-.897-.86.514M359.364 299.965l-.137-.595-.62.143.136.595" fill="#969696"/><path fill="#969696" d="M359.608 299.875l.204.896.93-.212-.203-.894M359.355 299.93l-.62.142.204.897.62-.144"/><path fill="#000" d="M371.393 292.426l2.04-.47-1.477-6.457-2.038.47"/><path d="M352.228 250.152c.063.28-.228.347-.52.416l-5.822 1.336c-.29.068-.583.134-.646-.144-.066-.28.163-.628.455-.696l5.822-1.34c.29-.068.648.147.71.428" fill="#969696"/><path fill="#FFF" d="M337.92 257.287l.314-.07.27 1.192-.31.073"/><path fill="#FFF" d="M338.003 257.563l-.31.07.207.897.307-.07"/><path fill="#FFF" d="M337.777 257.913l-.31.07.137.598.31-.072"/><path fill="#FFF" d="M337.487 257.98l-.313.067.137.6.314-.072"/><path fill="#FFF" d="M337.258 258.327l-.31.07.07.3.307-.07M357.138 252.88l1.238-.285.274 1.196-1.238.285M356.33 253.348l.31-.07.133.598-.307.07"/></g><g transform="translate(407.695 269.966)"><mask id="b" fill="#fff"><use xlink:href="#a"/></mask><path fill="#000" mask="url(#b)" d="M58.54 38.114h56.096V15.63H58.54"/><path fill="#606060" mask="url(#b)" d="M114.108 14.292H.335l-.523 1.424h114.825"/><path fill="#757575" mask="url(#b)" d="M59.328 14.292H.335l-.523 1.424h59.516"/><path fill="#000" mask="url(#b)" d="M.336 39.536H114.11l.525-1.424H-.19"/><path d="M106.734 26.603c0 1.608-1.318 2.677-2.898 2.677-1.578 0-2.895-1.07-2.895-2.677 0-1.873 1.318-2.942 2.896-2.942 1.58 0 2.898 1.07 2.898 2.943" fill="#FFF" mask="url(#b)"/><path d="M104.364 25.264c.53-.266 1.052-.536 1.58-.8-.528 0-1.317 0-2.108.264-.79-.264-1.578-.264-2.107-.264.528.264 1.054.534 1.317.8-.53.536-1.052 1.61-1.318 3.214 0 0 .788-1.34 2.106-2.678 1.317 1.34 2.11 2.678 2.11 2.678-.264-1.605-.793-2.678-1.582-3.214M-.19 15.63v8.833l1.053 1.34v1.87l-1.052 1.34v9.1H59.33V15.63" fill="#333" mask="url(#b)"/><path fill="#737373" mask="url(#b)" d="M59.328 27.94H.075l-.263 1.14h59.516"/><path fill="#000" mask="url(#b)" d="M59.328 24.464H-.188l.263 1.424h59.253"/><path fill="#969696" mask="url(#b)" d="M.074 27.942h59.254v-2.14H.074"/><path fill="#000" mask="url(#b)" d="M4.55 27.474h50.302v-1.138H4.55"/><path fill="#FFF" mask="url(#b)" d="M52.22 27.474h2.63v-1.137M4.553 27.474h.84v-1.138h-.84"/><path fill="#333" mask="url(#b)" d="M90.668.37H23.512L.338 14.29h113.77"/><path fill="#000" mask="url(#b)" d="M59.328.37H23.512L.335 14.29h58.993"/></g><g fill="#FFB900"><path d="M335.188 260.802l1.043-12.038-32.428-2.833-1.046 12.04c-.59 6.77 3.35 13.936 5.596 18.678 2.658 4.404 5.954 5.83 5.205 14.48-.918 10.534-4.08 16.323-8.98 15.893l20.74 1.813c-4.903-.428-7.018-6.678-6.104-17.21.752-8.653 3.867-9.516 7.24-13.392 3.41-4.248 8.146-10.66 8.735-17.428M331.937 312.333c-.063.757-.915 1.824-2.044 1.726l-27.46-2.4c-1.13-.104-1.785-1.3-1.72-2.053.098-1.135.95-2.202 2.08-2.105l27.46 2.4c1.13.1 1.784 1.296 1.684 2.43"/><path d="M333.288 277.092c-.75-.064-1.467-.508-1.81-.915-.343-.413-.65-1.198-.963-1.984.07-.75.51-1.474.918-1.82 1.695-2.128 3.327-3.504 5.396-5.603 2.446-2.06 4.958-4.88 8.285-8.383 1.632-1.38 2.138-2.852 2.235-3.982-.277-1.16-.552-2.328-1.615-3.176-.683-.82-2.15-1.33-3.31-1.05-2.283.18-4.353 2.276-4.176 4.57-.063.753-.472 1.097-1.22 1.03-.375-.03-.718-.44-1.064-.85-.046-3.802 2.872-6.96 6.656-7.013 1.5.132 3.345.674 4.745 1.936 1.026 1.23 2.02 2.832 1.892 4.34.145 2.67-1.147 4.452-2.367 5.487-3.362 3.882-6.214 6.29-8.664 8.355-2.07 2.096-3.733 3.85-5.397 5.602l-.034.375c-.033.38-.033.38.31.786l.375.034s.374.032.41-.344c0 0 .373.035.03-.378.03-.376.474-1.098 1.223-1.03.75.064 1.092.474 1.058.85.246 1.542-1.01 2.95-2.54 3.196l-.378-.034zM302.71 274.313c-1.47-.507-2.462-2.11-2.33-3.62.03-.377.814-.686 1.19-.655.748.066 1.06.855 1.025 1.23l-.03.376c-.033.375.34.41.34.41.376.034.376.034.75.063.035-.373.035-.373.066-.75l.033-.377c-1.338-2.015-2.67-4.028-4.35-6.453-2.056-2.46-4.076-5.293-7.092-9.734-.65-1.195-1.988-3.208-1.382-5.81.506-1.478 1.386-2.92 2.984-3.917 1.223-1.032 3.132-1.245 5.007-1.08 3.34.67 5.67 4.29 4.97 8.026-.035.373-.815.688-1.192.654-.752-.066-1.092-.476-1.026-1.23.57-2.228-1.11-4.65-3.324-5.224-1.092-.475-2.25-.194-3.442.46-.817.687-1.666 1.754-1.763 2.88-.472 1.1.15 2.673 1.143 4.275 2.67 4.034 5.033 7.276 6.714 9.7 1.678 2.425 3.05 4.062 4.353 6.453.718.44.65 1.195.586 1.95-.07.753-.507 1.476-1.29 1.785-.41.344-1.19.654-1.94.588"/></g><g><path fill="#333" d="M389.92 256.597l-1.54 17.016 53.9-9.73-6.5-15.563-4.8-2.13-7.048 1.098-3.98 1.422-16.77 3.028-3.64-.577-5.772 2.275"/><path d="M435.578 248.18c-.23-.31-.557-1.134-.76-1.272-.06-.34-.838-.728-1.752-.917-1.12-.326-4.648-1.275-5.905-1.4-1.057.016-2.254.23-2.94.354-.683.123-1.335.42-1.65.65-.483.262-1.837 1.566-2.523 1.692-.683.12-7.872 1.42-7.872 1.42s-7.185 1.295-7.868 1.42c-.858.154-2.584-.592-2.956-.7-.37-.11-1.256-.124-1.77-.032-.684.123-1.884.338-3.05.725-1.138.555-4.113 2.677-4.877 3.345-.794.5-1.39 1.132-1.326 1.47-.108.373-.408 1.663-.408 1.663 1.84-1.565 7.01-4.26 9.233-4.66 2.055-.37 3.276 1.52 5.154 3.118 2.572 2.53 3.147 2.78 4.687 2.503 1.03-.188 7.872-1.423 8.9-1.607 1.54-.28 1.993-.714 3.693-4.014 1.035-2.128 1.692-4.358 3.747-4.73 2.055-.37 7.835.346 10.1 1.172l.144-.2z" fill="#000"/><path d="M415.82 252.274c.305 1.71-.818 3.317-2.53 3.63-1.71.306-3.324-.812-3.63-2.518-.31-1.705.817-3.32 2.526-3.626 1.712-.31 3.327.808 3.633 2.514" fill="#FFF"/><path d="M413.38 251.482c.45-.433.734-.837 1.386-1.133-.683.123-1.54.278-2.16.742-.918-.186-1.776-.03-2.46.092.716.048 1.29.295 1.696.576-.563.806-.895 1.924-.93 3.69 0 0 .75-1.72 1.908-3.162 1.41.977 2.712 2.33 2.712 2.33-.65-1.645-1.346-2.577-2.152-3.136" fill="#000"/><path d="M435.05 247.218l.034.183-.033-.182zM435.112 247.56l.185-.032-.185.033z" fill="#505050"/><path d="M437.998 249.858c-.96-1.413-2.218-1.537-2.218-1.537s-.17.033-.203-.14l-.14.202c-2.266-.826-8.048-1.543-10.103-1.173-2.053.372-2.713 2.602-3.745 4.73-1.704 3.3-2.156 3.732-3.696 4.013-1.03.184-7.872 1.42-8.898 1.606-1.543.277-2.118.027-4.69-2.504-1.875-1.597-3.098-3.49-5.153-3.12-2.224.402-7.395 3.097-9.232 4.662 0 0-1.137.556-1.546 2.216-.488 2.202-4.244 20.67-3.018 27.498 1.62 9.042 8.28 8.724 8.963 8.598.682-.124 6.104-8.323 7.96-10.772 1.854-2.448 3.566-2.76 4.935-3.007 1.37-.246 3.253-.584 10.44-1.883 7.187-1.296 9.07-1.634 10.268-1.855 1.37-.243 3.25-.584 5.845 1.064 2.59 1.646 10.518 7.434 11.2 7.31.687-.122 7.035-2.15 5.415-11.192-1.226-6.826-11.162-22.824-12.385-24.716" fill="#333"/><path d="M435.02 247.047l.033.183-.033-.183zM434.82 246.907l.032.183-.033-.183z" fill="#505050"/><path d="M430.467 267.95c.615 3.412-1.634 6.637-5.06 7.256-3.248.585-6.475-1.648-7.09-5.06-.61-3.414 1.635-6.64 4.888-7.227 3.42-.618 6.65 1.618 7.262 5.03" fill="#737373"/><path d="M429.784 268.076c.52 2.902-1.447 5.72-4.528 6.276-2.91.525-5.733-1.43-6.25-4.33-.524-2.903 1.443-5.722 4.353-6.25 3.08-.552 5.904 1.4 6.424 4.304" fill="#333"/><path d="M412.844 271.134c.52 2.9-1.45 5.72-4.356 6.247-2.91.522-5.734-1.43-6.257-4.33-.52-2.903 1.45-5.724 4.36-6.25 2.907-.523 5.73 1.432 6.254 4.334" fill="#737373"/><path d="M403.412 268.782c-1.046 1.07-1.454 2.73-1.18 4.266.523 2.9 3.347 4.856 6.254 4.332 1.712-.307 2.96-1.24 3.8-2.446l-8.874-6.152z" fill="#000"/><path d="M425.256 274.353c1.54-.278 2.816-1.038 3.66-2.245l-8.876-6.152c-.874 1.04-1.312 2.528-1.037 4.065.52 2.903 3.344 4.858 6.253 4.333" fill="#505050"/><path d="M403.586 261.88c.614 3.412-1.635 6.637-5.06 7.256-3.42.617-6.648-1.617-7.262-5.03-.61-3.413 1.638-6.638 5.062-7.257 3.42-.618 6.648 1.618 7.26 5.03" fill="#737373"/><path d="M402.73 262.037c.52 2.9-1.448 5.72-4.355 6.247-2.91.522-5.733-1.43-6.253-4.335-.523-2.902 1.446-5.72 4.356-6.248 2.91-.522 5.73 1.43 6.253 4.335" fill="#333"/><path d="M398.374 268.283c1.54-.278 2.79-1.207 3.49-2.213l-8.91-6.325c-.84 1.21-1.108 2.67-.833 4.203.52 2.905 3.345 4.86 6.254 4.335" fill="#505050"/><path d="M433.845 261.175c.246 1.367-.597 2.574-1.964 2.82-1.37.247-2.582-.59-2.825-1.955-.246-1.364.597-2.574 1.97-2.82 1.365-.25 2.577.59 2.82 1.955M432.315 252.644c.215 1.195-.597 2.574-1.966 2.82-1.37.248-2.614-.76-2.828-1.954-.243-1.368.57-2.744 1.938-2.993 1.37-.247 2.61.762 2.855 2.127M437.36 256.138c.245 1.367-.773 2.603-2.14 2.853-1.196.216-2.577-.59-2.823-1.958-.246-1.364.77-2.603 1.967-2.82 1.37-.247 2.75.558 2.995 1.926M428.974 257.652c.246 1.365-.77 2.604-1.966 2.82-1.37.248-2.75-.56-2.996-1.925-.245-1.365.77-2.606 2.138-2.853 1.198-.215 2.578.59 2.824 1.958" fill="#000"/><path d="M428.073 268.384c.365 2.047-1.07 3.89-3.124 4.26-1.882.342-3.87-.883-4.234-2.932-.37-2.048 1.066-3.894 2.95-4.232 2.054-.373 4.038.854 4.407 2.904" fill="#505050"/><path d="M411.208 261.035c.155.854-.41 1.657-1.263 1.814-.857.154-1.835-.376-1.99-1.23-.15-.852.58-1.69 1.436-1.84.858-.16 1.664.4 1.818 1.255M420.416 259.195c.155.855-.377 1.832-1.234 1.984-.852.154-1.69-.577-1.844-1.43-.154-.853.406-1.66 1.263-1.81.86-.155 1.665.4 1.816 1.255" fill="#000"/><path d="M429.962 254.3l-.183-1.02-1.1-1.212.51-.095.438.453c.2.14.23.31.263.482.138-.204.11-.373.25-.576l.248-.574.515-.09-.612 1.515.187 1.027-.515.09z" fill="#FCD116"/><path d="M431.168 262.012l-.217.745-.342.06.257-2.514.683-.123 1.284 2.236-.515.092-.463-.62-.686.124zm.626-.465l-.297-.653s-.2-.138-.232-.31c.032.172.063.34-.108.373l-.05.714.687-.123z" fill="#7FBA00"/><path d="M427.336 259.358l-.432-.45c-.206-.14-.234-.313-.437-.45.03.17.063.34-.077.54l-.08.543-.515.096.44-1.49-.897-1.07.51-.092.264.48c.203.14.232.308.406.28-.03-.172-.03-.172.11-.373l.076-.544.69-.123-.644 1.35 1.1 1.21-.514.095z" fill="#00BCF2"/><path d="M433.892 255.53c.175-.03.515-.09.686-.123.34-.06.512-.092.715.05.17-.033.37.108.403.277.06.338-.077.542-.22.742.17-.03.543.078.606.422.06.34-.08.542-.25.573-.142.202-.45.434-.796.497-.343.06-.512.092-.683.124l-.46-2.56zm.698.932l.17-.03c.344-.062.484-.262.453-.434-.063-.34-.232-.31-.403-.28-.172.03-.343.062-.343.062l.123.682zm.214 1.193l.172-.032c.343-.06.65-.292.59-.633-.03-.172-.402-.28-.745-.218l-.167.028.15.855z" fill="#E81123"/><path d="M411.54 269.78l-2.566.466-.49-2.73c-.03-.172-.436-.45-.605-.42l-2.227.4c-.343.063-.452.433-.42.605l.49 2.73-2.737.496c-.174.032-.314.233-.252.574l.398 2.22c.028.168.234.31.403.277l2.738-.496.49 2.736c.06.338.264.48.605.416l2.223-.402c.176-.028.484-.26.424-.602l-.49-2.732 2.565-.464c.342-.06.482-.264.454-.433l-.398-2.22c-.062-.34-.263-.48-.606-.42M421.452 266.937c-.56.805-.92 1.75-.738 2.775.366 2.05 2.353 3.274 4.236 2.933 1.2-.215 1.992-.71 2.555-1.517l-6.053-4.19z" fill="#737373"/><path d="M401.02 262.345c.366 2.047-.897 3.862-2.95 4.23-2.054.37-3.872-.884-4.238-2.934-.37-2.046.897-3.86 2.953-4.228 2.052-.373 3.867.886 4.235 2.933" fill="#505050"/><path d="M394.4 260.898c-.592.636-.752 1.72-.566 2.743.366 2.05 2.18 3.307 4.236 2.934 1.026-.183 1.82-.68 2.35-1.657l-6.02-4.02z" fill="#737373"/><path d="M411.54 269.78l-2.566.466-.49-2.73c-.03-.172-.436-.45-.605-.42l-2.227.4c-.343.063-.452.433-.42.605l.49 2.73 3.802 2.486 2.564-.464c.342-.06.482-.264.454-.433l-.398-2.22c-.062-.34-.263-.48-.606-.42" fill="#505050"/><path d="M424.83 271.965c-1.54.278-3.125-.668-3.43-2.377-.278-1.534.848-3.148 2.39-3.426 1.708-.31 3.323.81 3.6 2.345.303 1.706-.85 3.148-2.56 3.458m-1.012-5.634c-1.37.25-2.353 1.658-2.075 3.195.274 1.54 1.686 2.514 3.055 2.268 1.538-.278 2.524-1.686 2.246-3.225-.274-1.534-1.686-2.515-3.226-2.237M397.947 265.895c-1.712.307-3.124-.668-3.43-2.377-.308-1.706.678-3.116 2.39-3.426 1.54-.278 3.124.67 3.43 2.377.303 1.702-.85 3.144-2.39 3.425m-1.012-5.634c-1.54.282-2.52 1.69-2.25 3.227.278 1.536 1.69 2.514 3.23 2.236 1.54-.278 2.525-1.686 2.247-3.225-.27-1.537-1.683-2.515-3.227-2.237" fill="#000"/></g><g><path d="M363.87 277.76l-.023-.013c-2.778 6.402-1.77 4.07-4.282 9.85-3.264 7.52 8.595 15.4 16.595 18.895l4.1-9.438c-5.406-2.366-19.483-9.957-16.39-19.295" fill="#231F1F"/><path d="M384.332 309.466c-.11.253-.357.39-.623.324-.916-.177-3.328-.8-7.787-2.75-4.216-1.84-5.876-2.892-6.482-3.35-.205-.144-.274-.42-.174-.646l.535-1.235c.07-.162.247-.193.372-.11.65.473 2.624 1.797 6.543 3.515 4.124 1.8 7.062 2.57 7.93 2.784.147.036.233.21.173.345l-.486 1.12z" fill="#2F2F2F"/><path d="M369.335 302.937l.675.35c.18.108.41.038.496-.157.085-.196.03-.39-.14-.467l-.873-.613-.158.887z" fill="#231F1F"/><path d="M379.11 308.408c-2.04-.183-3.956-1.02-5.454-2.385l.177-.413c1.755.903 3.58 1.7 5.454 2.385l-.177.413zM405.534 295.975c-4.713 8.626-19.364 2.356-24.798-.018l-4.02 9.258c8.022 3.503 21.292 8.14 24.56.616 2.512-5.78 1.497-3.448 4.28-9.847l-.022-.008zM359.55 287.7c4.703-8.603 19.792-3.34 25.197-.977l3.915-9.002c-8-3.497-21.588-7.4-24.857.122-2.513 5.78-1.498 3.45-4.28 9.848l.024.01z" fill="#505050"/><path d="M401.213 305.914l.023.01c2.778-6.398 1.766-4.067 4.28-9.85 3.266-7.517-8.833-14.845-16.856-18.354l-3.913 9.005c5.434 2.374 19.547 9.877 16.466 19.19" fill="#231F1F"/><path d="M388.66 277.72c-4.503-1.97-10.803-4.07-16.016-4.174l-3.336 7.68.326.115c5.148.184 11.247 2.252 15.64 4.175 4.416 1.93 10.08 5.003 13.72 8.66l.305.162 3.338-7.68c-3.625-3.756-9.447-6.96-13.977-8.937" fill="#5E5E5E"/><path d="M374.38 280.534c2.04.372 6.078 1.135 11.53 3.517 5.475 2.395 8.782 4.847 10.442 6.088l2.244-5.163c-1.706-1.32-5.185-3.682-10.48-5.998-5.274-2.305-9.367-3.25-11.49-3.61l-2.245 5.167z" fill="#00BCF2"/><path d="M369.268 281.315c-4.48-.298-7.875 2.08-9.704 6.28.858.377 1.62-.265 1.62-.265s2.287-4.768 8.735-4.177c-.366-.76-.652-1.838-.652-1.838" fill="#231F1F"/><path d="M393.476 300.085l-2.264 5.21c-.586 1.35.338 2.866 1.784 2.93 2.49.137 5.86-.213 7-2.842 1.886-4.34.497-5.468.497-5.468s-2.92.872-7.017.17" fill="#2F2F2F"/><path d="M399.26 294.43c3.272 3.087 3.844 7.198 2.014 11.404-.854-.373-.903-1.376-.903-1.376s1.925-4.923-2.894-9.258c.806-.246 1.783-.77 1.783-.77" fill="#505050"/><path d="M369.268 281.315c-.39.894.2 1.883 1.132 1.967 5.402.4 11.184 2.712 14.11 3.99 2.953 1.29 8.575 3.968 12.548 7.66.692.632 1.812.388 2.2-.504-3.62-3.758-9.45-6.935-13.982-8.913-4.51-1.973-10.798-4.097-16.008-4.2" fill="#C8C8C8"/><path d="M383.165 307.462c-4.616-1.285-8.02-2.53-12.27-5.146-1.358-.95-1.804-2.45-1.192-3.733.832-1.482 1.663-2.97 2.484-4.487.697-1.11 2.235-1.69 3.46-.99 3.562 1.8 7.19 3.39 10.95 4.79 1.216.475 2.102 1.894 1.613 3.204-.53 1.646-1.046 3.268-1.586 4.88-.418 1.45-2.17 1.91-3.46 1.482" fill="#505050"/><path d="M386.383 304.192c-.674.628-1.772.748-2.646.473-4.202-1.184-7.234-2.483-11.087-4.845-.935-.44-1.455-1.4-1.415-2.363-.2.405-.423.797-.646 1.187-.555 1.147-.01 2.61 1.2 3.162 3.838 2.39 6.88 3.662 11.08 4.846 1.17.404 2.76.01 3.105-1.28.148-.398.263-.782.408-1.18" fill="#2F2F2F"/><path d="M376.39 297.565c-.096.23-.33.398-.57.456-.218.072-.484.064-.732-.045-.226-.1-.412-.29-.52-.47-.132-.25-.155-.505-.046-.757.1-.227.268-.373.517-.453.22-.07.505-.052.754.057.27.118.477.318.588.556.066.22.098.453.01.657" fill="#ACACAC"/><path d="M376.45 297.607c-.102.244-.35.424-.607.485l-.398-.928.997-.256c.07.235.104.482.01.7" fill="#E3E3E3"/><path d="M375.508 297.205l-.933.375c-.14-.265-.164-.537-.05-.805.108-.24.287-.397.55-.482l.433.912z" fill="#E3E3E3"/><path d="M384.706 301.202c-.097.226-.332.398-.572.455-.217.07-.483.06-.73-.045-.227-.104-.413-.29-.522-.474-.134-.25-.154-.504-.045-.754.1-.23.268-.372.517-.453.22-.07.506-.053.755.056.27.118.476.32.587.56.086.228.098.45.01.656" fill="#ACACAC"/><path d="M384.766 301.243c-.103.24-.352.424-.608.485l-.398-.927.997-.255c.092.244.104.48.01.698" fill="#E3E3E3"/><path d="M383.823 300.842l-.933.372c-.143-.265-.165-.537-.05-.802.107-.244.287-.397.55-.482l.433.912z" fill="#E3E3E3"/><path d="M389.967 290.392c-1.646-.964-3.307-1.772-5.084-2.495-.36-.157-.558-.567-.42-.943.125-.352.56-.547.95-.4 1.845.695 3.62 1.607 5.3 2.613.33.227.46.666.235 1-.206.348-.652.45-.98.225M395.047 294c-.354-.292-.537-.424-.914-.67-.375-.247-.532-.75-.286-1.133.223-.392.803-.493 1.226-.226.432.3.638.442 1.006.77.4.31.437.842.134 1.172-.303.33-.832.372-1.167.09" fill="#ACACAC"/><path d="M402.49 286.13c-4.23-4.458-10.78-7.402-13.64-8.655l-.046-.017-.023-.012c-2.86-1.252-9.468-4.06-15.608-4.13-.508-.007-.677.573-.677.573 6.062.12 13.273 2.89 16.072 4.116 2.815 1.23 9.752 4.644 13.965 9.016 0 0 .305-.52-.043-.892" fill="#C8C8C8"/></g></g></svg>