<svg width="375" height="297" viewBox="0 0 375 297" xmlns="http://www.w3.org/2000/svg" xmlns:xlink="http://www.w3.org/1999/xlink"><defs><path d="M.185.036v57.876c0 4.325 3.526 7.826 7.878 7.826h.205c4.355 0 7.88-3.5 7.88-7.826V.036H.184z" id="a"/><path d="M.043.043v26.98c0 4.326 3.524 7.827 7.876 7.827h.206c4.33 0 7.84-3.464 7.877-7.757V.043H.043z" id="c"/><path d="M.043.036v57.876c0 4.325 3.524 7.826 7.876 7.826h.206c4.353 0 7.877-3.5 7.877-7.826V.036H.043z" id="e"/><path d="M.498.093v32.75c0 4.325 3.524 7.826 7.876 7.826h.207c4.13 0 7.644-3.476 7.67-7.78V.094H.498z" id="g"/><path d="M.498.036v57.876c0 4.325 3.524 7.826 7.876 7.826h.207c4.146 0 7.67-3.5 7.67-7.826V.036H.498z" id="i"/><path id="k" d="M.05 462.08h662.88V.51H.05z"/><path d="M.007 37.01c.13-11.006 8.582-19.94 19.28-21.168C21.972 7.012 30.226.432 39.933.395h.16c8.05.03 15.064 4.555 18.783 11.122 2.9-2.06 6.425-3.294 10.362-3.294 9.743 0 17.62 7.827 17.62 17.505 0 1.444-.208 2.885-.622 4.12h.622c7.255 0 13.265 5.767 13.265 13.183.003.12.005.242.005.362 0 7.246-6.14 13.026-13.685 13.026H19.492C9.152 56.418.254 48.42.007 37.95v-.94z" id="m"/><path d="M.093 7.71C.95 4.895 2.37 2.31 4.226.09h33.176c.856 1.025 1.62 2.128 2.282 3.295C42.567 1.34 46.064.105 49.972.09h.148c9.71.04 17.547 7.852 17.547 17.506 0 1.444-.208 2.885-.62 4.12h.62c7.255 0 13.265 5.766 13.265 13.182V35.6c-.187 7.085-6.253 12.685-13.68 12.685H.092V7.71z" id="o"/><path id="q" d="M0 413.44h463.964V.51H0z"/></defs><g fill="none" fill-rule="evenodd"><path d="M199.14 79.402v21.833h-23.424c-.207-.413-.415-1.03-.622-1.442-.83-1.65-2.28-4.532-5.803-4.532-3.316 0-4.768 2.884-5.596 4.533-.208.206-.208.41-.415.617 0-.206-.21-.41-.21-.617-.827-1.65-2.278-4.532-5.803-4.532-3.315 0-4.767 2.884-5.595 4.533-.208.206-.208.41-.416.617 0-.206-.207-.41-.207-.617-.83-1.65-2.28-4.532-5.804-4.532-3.316 0-4.768 2.884-5.597 4.533-.21.206-.21.41-.416.617 0-.206-.207-.41-.207-.617-.83-1.65-2.28-4.532-5.803-4.532-3.318 0-4.768 2.884-5.597 4.533-.208.206-.208.41-.415.617 0-.206-.207-.41-.207-.617-.83-1.65-2.28-4.532-5.805-4.532-3.316 0-4.767 2.884-5.597 4.533-.206.206-.206.41-.413.617 0-.206-.208-.41-.208-.617-.828-1.65-2.28-4.532-5.804-4.532-3.317 0-4.768 2.884-5.597 4.533-.205.206-.205.41-.413.617 0-.206-.207-.41-.207-.617-.83-1.65-2.28-4.532-5.805-4.532-3.316 0-4.767 2.884-5.596 4.533-.21.41-.624 1.03-.83 1.442H53.418v53.756H28.544v40.987h6.012v-35.014h18.862v35.014h6.012v-35.014h19.485v35.014h6.01V154.99H59.43v-47.783h31.715c3.315 0 4.975-2.883 5.803-4.736 0-.206.207-.412.207-.617.208.205.208.41.416.618.83 1.854 2.28 4.737 5.597 4.737 3.524 0 4.975-2.883 5.803-4.736 0-.206.208-.412.208-.617.207.205.207.41.415.618.828 1.854 2.28 4.737 5.597 4.737 3.523 0 4.974-2.883 5.804-4.736 0-.206.206-.412.206-.617.208.205.208.41.415.618.83 1.854 2.28 4.737 5.597 4.737 3.524 0 4.974-2.883 5.803-4.736 0-.206.21-.412.21-.617.205.205.205.41.412.618.83 1.854 2.28 4.737 5.597 4.737 3.524 0 4.975-2.883 5.803-4.736 0-.206.21-.412.21-.617.205.205.205.41.413.618.83 1.854 2.28 4.737 5.596 4.737 3.525 0 4.975-2.883 5.805-4.736 0-.206.207-.412.207-.617.21.205.21.41.415.618.83 1.854 2.28 4.737 5.597 4.737 3.523 0 4.974-2.883 5.803-4.736 0-.206.208-.412.208-.617.208.205.208.41.416.618.828 1.854 2.28 4.737 5.595 4.737h29.85V79.402h-6.01z" fill="#654796"/><path d="M40.982 201.538H22.327c-1.245 0-2.28 1.03-2.28 2.266v.207c0 1.237 1.035 2.266 2.28 2.266h18.655c1.243 0 2.28-1.03 2.28-2.265v-.206c0-1.235-1.037-2.266-2.28-2.266" fill="#8C6DAD"/><path d="M23.57 206.276h15.96v57.876c0 4.325-3.523 7.826-7.876 7.826h-.208c-4.352 0-7.876-3.5-7.876-7.826v-57.876" fill="#312357"/><g transform="translate(23.385 206.24)"><path d="M.185 17.955h15.96v39.957c0 4.324-3.523 7.825-7.875 7.825h-.208c-4.353 0-7.877-3.5-7.877-7.825V17.955z" fill="#B8CE23"/><mask id="b" fill="#fff"><use xlink:href="#a"/></mask><path fill="#715C8D" mask="url(#b)" d="M12.83 17.954h3.316V.036H12.83"/><path d="M16.146 41.846H12.83v22.45c2.073-1.442 3.316-3.913 3.316-6.383V41.846m0-23.89H12.83v19.978h3.316v-19.98" fill="#CDD959" mask="url(#b)"/></g><path d="M31.86 216.78c0-1.236-1.035-2.265-2.486-2.265-1.243 0-2.28 1.03-2.28 2.265 0 1.442 1.037 2.47 2.28 2.47 1.45 0 2.487-1.028 2.487-2.47" fill="#B8CE23"/><path d="M31.032 251.38c-1.658 0-3.11 1.443-3.11 3.092 0 1.647 1.452 3.088 3.11 3.088s2.9-1.44 2.9-3.088c0-1.65-1.242-3.09-2.9-3.09M33.52 234.7c-.622 0-1.244.617-1.244 1.235 0 .618.622 1.235 1.243 1.235.62 0 1.036-.617 1.036-1.235 0-.618-.415-1.236-1.037-1.236" fill="#CDD959"/><path d="M34.556 211.012c0-.618-.415-1.236-1.036-1.236-.622 0-1.243.618-1.243 1.236s.62 1.03 1.243 1.03c.62 0 1.036-.412 1.036-1.03" fill="#B8CE23"/><path d="M26.68 241.495c-.622 0-1.037.618-1.037 1.237 0 .618.415 1.236 1.037 1.236.83 0 1.243-.618 1.243-1.236 0-.62-.413-1.237-1.243-1.237" fill="#CDD959"/><path d="M65.65 201.538H47.2c-1.45 0-2.487 1.03-2.487 2.266v.207c0 1.237 1.036 2.266 2.487 2.266h18.45c1.45 0 2.487-1.03 2.487-2.265v-.206c0-1.235-1.038-2.266-2.488-2.266" fill="#8C6DAD"/><path d="M48.445 206.276h15.96v57.876c0 4.325-3.524 7.826-7.876 7.826h-.21c-4.35 0-7.875-3.5-7.875-7.826v-57.876" fill="#312357"/><g transform="translate(48.402 206.24)"><g transform="translate(0 30.888)"><mask id="d" fill="#fff"><use xlink:href="#c"/></mask><path d="M.042.043h15.96v26.98c0 4.325-3.523 7.827-7.875 7.827H7.92C3.565 34.85.04 31.348.04 27.024V.044" fill="#F18919" mask="url(#d)"/></g><mask id="f" fill="#fff"><use xlink:href="#e"/></mask><path fill="#715C8D" mask="url(#f)" d="M12.686 30.93h3.316V.036h-3.316"/><path d="M16.002 41.846h-3.315v22.45c2.072-1.442 3.315-3.913 3.315-6.383V41.846m0-10.915h-3.315v7.004h3.315V30.93" fill="#F7AC50" mask="url(#f)"/></g><g><path d="M55.077 221.516c0-1.442-1.036-2.47-2.28-2.47-1.45 0-2.487 1.028-2.487 2.47 0 1.238 1.036 2.267 2.488 2.267 1.243 0 2.28-1.03 2.28-2.267" fill="#B8CE23"/><path d="M55.7 251.38c-1.66 0-2.903 1.443-2.903 3.092 0 1.647 1.243 3.088 2.902 3.088 1.657 0 3.11-1.44 3.11-3.088 0-1.65-1.453-3.09-3.11-3.09" fill="#F7AC50"/><path d="M59.43 231.403c0-.618-.415-1.236-1.243-1.236-.623 0-1.037.618-1.037 1.236 0 .617.414 1.03 1.037 1.03.828 0 1.243-.413 1.243-1.03M57.772 213.28c0-.413-.415-.825-.83-.825-.413 0-.828.412-.828.824 0 .41.415 1.028.828 1.028.415 0 .83-.618.83-1.03" fill="#B8CE23"/><path d="M51.554 241.495c-.622 0-1.245.618-1.245 1.237 0 .618.622 1.236 1.244 1.236.62 0 1.243-.618 1.243-1.236 0-.62-.622-1.237-1.243-1.237" fill="#F7AC50"/><path d="M90.523 201.538H71.867c-1.244 0-2.28 1.03-2.28 2.266v.207c0 1.237 1.036 2.266 2.28 2.266h18.656c1.243 0 2.28-1.03 2.28-2.265v-.206c0-1.235-1.037-2.266-2.28-2.266" fill="#8C6DAD"/><path d="M73.318 206.276H89.07v57.876c0 4.325-3.522 7.826-7.667 7.826h-.208c-4.353 0-7.877-3.5-7.877-7.826v-57.876" fill="#312357"/></g><g transform="translate(72.82 206.24)"><g transform="translate(0 25.07)"><mask id="h" fill="#fff"><use xlink:href="#g"/></mask><path d="M.497.093H16.25v32.75c0 4.325-3.523 7.826-7.668 7.826h-.208c-4.353 0-7.877-3.502-7.877-7.827V.093" fill="#2B73B9" mask="url(#h)"/></g><mask id="j" fill="#fff"><use xlink:href="#i"/></mask><path fill="#715C8D" mask="url(#j)" d="M13.14 25.163h3.11V.036h-3.11"/><path d="M16.25 41.846h-3.11v22.45c1.868-1.442 3.11-3.913 3.11-6.383V41.846m0-16.683h-3.11v12.77h3.11v-12.77" fill="#529FD7" mask="url(#j)"/></g><g transform="translate(-145 -82.794)"><path d="M224.95 306.577c0-1.236-1.035-2.267-2.487-2.267-1.243 0-2.28 1.03-2.28 2.267 0 1.235 1.037 2.265 2.28 2.265 1.452 0 2.488-1.03 2.488-2.265z" fill="#B8CE23"/><path d="M225.573 334.175c-1.66 0-3.11 1.442-3.11 3.09s1.45 3.088 3.11 3.088c1.658 0 3.11-1.44 3.11-3.088 0-1.648-1.452-3.09-3.11-3.09M228.06 317.492c-.62 0-1.243.618-1.243 1.236s.622 1.236 1.243 1.236c.622 0 1.245-.618 1.245-1.236s-.623-1.236-1.245-1.236M221.427 324.288c-.62 0-1.243.618-1.243 1.238 0 .617.622 1.235 1.243 1.235.622 0 1.037-.617 1.037-1.234 0-.62-.415-1.238-1.037-1.238" fill="#529FD7"/><path d="M491.103 302.045H469.96c-1.45 0-2.694 1.235-2.694 2.676v.21c0 1.44 1.243 2.47 2.694 2.47H491.1c1.66 0 2.695-1.03 2.695-2.47v-.21c0-1.44-1.036-2.675-2.694-2.675" fill="#8C6DAD"/><mask id="l" fill="#fff"><use xlink:href="#k"/></mask><path fill="#402564" mask="url(#l)" d="M470.583 315.432h.206v-8.03h-.207"/><path d="M469.546 374.543h21.97c7.88-3.912 13.06-11.946 13.06-21.214 0-9.68-5.804-18.126-14.094-21.832V307.4H470.79V331.5c-8.5 3.706-14.304 12.15-14.304 21.83 0 9.27 5.39 17.303 13.06 21.215" fill="#004B50" mask="url(#l)"/><path fill="#654796" mask="url(#l)" d="M482.604 295.66h-6.01v-89.8h-5.182v-5.973h11.192"/><path fill="#B8CE23" mask="url(#l)" d="M480.117 295.66h-.83v-92.477h-7.875v-.824h8.705"/><path d="M469.546 374.543h21.97c7.88-3.912 13.06-11.946 13.06-21.214 0-4.738-1.243-9.27-3.73-12.977h-40.627c-2.282 3.708-3.734 8.24-3.734 12.976 0 9.267 5.39 17.3 13.06 21.213" fill="#A03289" mask="url(#l)"/><path d="M491.932 350.034c-.62 0-1.45.207-1.866.825-1.036 1.233-1.036 2.882.208 3.705.414.617 1.037.824 1.658.824.83 0 1.45-.413 2.073-1.03 1.036-1.03.83-2.678-.207-3.708-.62-.41-1.244-.618-1.866-.618M472.862 361.98c-.415 0-.83.206-1.036.618-.414.41-.414 1.236 0 1.854.415.205.62.205 1.036.205.208 0 .622-.205.83-.412.62-.618.62-1.44 0-1.854-.208-.204-.622-.41-.83-.41" fill="#AD579C" mask="url(#l)"/><path d="M481.568 334.792c.414-.617.414-1.442-.207-1.853-.414-.413-1.242-.413-1.864 0-.416.617-.416 1.44.205 2.06.624.41 1.454.41 1.868-.208" fill="#A03289" mask="url(#l)"/><path d="M467.265 345.71c-1.866 0-3.316 1.647-3.316 3.5 0 1.854 1.45 3.5 3.315 3.5 1.866 0 3.524-1.646 3.524-3.5 0-1.853-1.66-3.5-3.525-3.5" fill="#AD579C" mask="url(#l)"/><path d="M479.08 317.287c0-1.856-1.657-3.503-3.524-3.503-1.864 0-3.522 1.647-3.522 3.503 0 1.853 1.658 3.5 3.522 3.5 1.867 0 3.524-1.647 3.524-3.5" fill="#A03289" mask="url(#l)"/><path d="M504.576 353.123v.207-.207m0-.206v.206-.206M490.482 307.4h-2.488v24.097c4.146 1.854 7.67 4.944 10.364 8.857h2.488c2.28 3.706 3.73 7.826 3.73 12.563 0-9.68-5.805-17.712-14.094-21.42V307.4" fill="#4D8185" mask="url(#l)"/><path d="M500.845 340.354h-2.487c2.28 3.707 3.732 8.24 3.732 12.976 0 9.268-5.39 17.3-13.06 21.214h2.488c7.877-3.914 13.058-11.946 13.058-21.214v-.412c0-4.737-1.45-8.857-3.73-12.564" fill="#AD579C" mask="url(#l)"/><path d="M383.315 119.56c0-19.77-16.167-35.836-36.067-35.836-19.898 0-36.067 16.065-36.067 35.837 0 19.773 16.17 35.838 36.068 35.838 19.9 0 36.067-16.065 36.067-35.837" fill="#F6A644" mask="url(#l)"/><path d="M377.304 119.56c0-16.475-13.473-29.864-30.055-29.864-16.584 0-30.058 13.39-30.058 29.865 0 16.477 13.474 29.866 30.057 29.866 16.58 0 30.054-13.39 30.054-29.865" fill="#FEFEFE" mask="url(#l)"/><path d="M347.248 89.696c-16.167 0-29.434 12.77-30.055 28.63v1.235c0 16.478 13.473 29.866 30.055 29.866.622 0 1.452 0 2.073-.206-15.545-1.03-27.775-14.005-27.775-29.66 0-15.857 12.23-28.628 27.776-29.657-.62-.207-1.45-.207-2.072-.207" fill="#CCCBCB" mask="url(#l)"/><path fill="#654796" mask="url(#l)" d="M409.434 151.073h-6.012v-27.186H392.23v-5.973h17.204"/><path fill="#B8CE23" mask="url(#l)" d="M406.945 151.073h-.83v-29.658H392.23v-.824h14.715"/><path fill="#004B50" mask="url(#l)" d="M346.212 119.56h2.073V100.2h-2.073"/><path fill="#004B50" mask="url(#l)" d="M346.42 120.18l15.545 18.124 1.658-1.442-15.546-17.92"/><path fill="#F6A644" mask="url(#l)" d="M347.663 120.18l19.484-12.977-.622-1.03-19.69 12.77"/><path d="M352.638 119.56c0-3.088-2.28-5.56-5.39-5.56-3.108 0-5.596 2.472-5.596 5.56 0 3.09 2.488 5.562 5.597 5.562 3.108 0 5.388-2.472 5.388-5.56M227.44 278.77H226.4v-37.485H177.07v37.486h-.83v-38.31h51.2" fill="#B8CE23" mask="url(#l)"/><path d="M201.943 278.77h-1.037V186.5h35.24c1.243 0 1.864-1.237 2.694-2.678.828-1.442 1.658-3.296 3.316-3.296 1.864 0 2.694 1.854 3.524 3.296.62 1.44 1.243 2.678 2.487 2.678s2.073-1.237 2.695-2.678c.828-1.442 1.658-3.296 3.316-3.296 1.866 0 2.695 1.854 3.524 3.296.62 1.44 1.244 2.678 2.487 2.678 1.242 0 2.072-1.237 2.694-2.678.83-1.442 1.658-3.296 3.316-3.296 1.866 0 2.695 1.854 3.525 3.296.622 1.44 1.243 2.678 2.486 2.678 1.246 0 2.076-1.237 2.696-2.678.83-1.442 1.66-3.296 3.317-3.296 1.866 0 2.694 1.854 3.524 3.296.622 1.44 1.243 2.678 2.488 2.678 1.243 0 2.073-1.237 2.694-2.678.827-1.442 1.657-3.296 3.316-3.296 1.865 0 2.695 1.854 3.523 3.296.62 1.44 1.244 2.678 2.487 2.678 1.244 0 2.072-1.237 2.694-2.678.83-1.442 1.66-3.296 3.318-3.296 1.865 0 2.695 1.854 3.523 3.296.624 1.44 1.246 2.678 2.49 2.678 1.243 0 2.07-1.237 2.694-2.678.83-1.442 1.658-3.296 3.316-3.296 1.866 0 2.695 1.854 3.524 3.296.622 1.44 1.243 2.678 2.487 2.678h26.535v-24.304h.828v25.127H320.3c-1.657 0-2.486-1.647-3.315-3.09-.622-1.44-1.452-2.882-2.695-2.882-1.244 0-1.866 1.443-2.487 2.884-.83 1.442-1.658 3.09-3.524 3.09-1.66 0-2.49-1.648-3.317-3.09-.623-1.44-1.452-2.883-2.695-2.883-1.244 0-1.866 1.443-2.487 2.884-.83 1.442-1.66 3.09-3.523 3.09-1.658 0-2.488-1.648-3.316-3.09-.622-1.44-1.45-2.883-2.694-2.883s-1.866 1.443-2.49 2.884c-.827 1.442-1.657 3.09-3.52 3.09-1.66 0-2.49-1.648-3.32-3.09-.62-1.44-1.45-2.883-2.693-2.883s-1.866 1.443-2.488 2.884c-.83 1.442-1.658 3.09-3.524 3.09-1.657 0-2.485-1.648-3.315-3.09-.62-1.44-1.45-2.883-2.695-2.883-1.243 0-1.865 1.443-2.487 2.884-.83 1.442-1.658 3.09-3.524 3.09-1.66 0-2.488-1.648-3.317-3.09-.623-1.44-1.45-2.883-2.695-2.883-1.243 0-1.865 1.443-2.488 2.884-.828 1.442-1.658 3.09-3.523 3.09-1.658 0-2.487-1.648-3.317-3.09-.62-1.44-1.45-2.883-2.694-2.883-1.243 0-1.866 1.443-2.488 2.884-.828 1.442-1.658 3.09-3.523 3.09h-34.202v91.447z" fill="#B8CE23" mask="url(#l)"/><path fill="#FEFEFE" mask="url(#l)" d="M156.963 374.544h3.937v-45.312h-3.937"/><path d="M160.9 330.88h-3.937v35.632c.62-.207 1.243-.207 1.865-.207.83 0 1.45 0 2.073.207V330.88" fill="#FEFEFE" mask="url(#l)"/><path fill="#004B50" mask="url(#l)" d="M153.647 330.88h94.52v-3.913h-94.52"/><path fill="#013438" mask="url(#l)" d="M248.167 326.967h-94.522v3.912h94.52"/><path fill="#402564" mask="url(#l)" d="M411.713 277.124h-14.718v10.915h14.718M393.68 277.123h21.35v-6.18h-21.35"/><path fill="#FEFEFE" mask="url(#l)" d="M396.995 318.523h14.718V288.04h-14.718"/><path fill="#B2B2B1" mask="url(#l)" d="M400.727 288.04h-3.73v30.482-.206h3.73"/><path fill="#402564" mask="url(#l)" d="M411.713 318.316v.207h-14.718v6.795h4.147v-.205h6.426v.205h4.145"/><path fill="#B2B2B1" mask="url(#l)" d="M411.713 318.316h-10.985v.207h-3.733 14.718"/><path fill="#7B7C7C" mask="url(#l)" d="M396.997 318.523h3.73v-.207h-3.73"/><path fill="#402564" mask="url(#l)" d="M401.14 333.35h6.428v-8.032h-6.427"/><path fill="#2C1D46" mask="url(#l)" d="M401.14 325.318h6.428v-.205h-6.427"/><path fill="#004B50" mask="url(#l)" d="M387.875 342.825h33.787v-4.737h-33.787"/><path d="M420.42 349.005h-38.555v-6.386h38.555c9.95 0 18.034-8.033 18.034-17.92v-.412c0-9.68-8.085-17.71-18.034-17.71h-8.706v-6.387h8.706c13.473 0 24.46 10.71 24.46 24.098v.413c0 13.39-10.987 24.305-24.46 24.305" fill="#FEFEFE" mask="url(#l)"/><path d="M418.347 303.28c0-3.5-3.11-6.59-6.634-6.59-3.732 0-6.633 3.09-6.633 6.59 0 3.71 2.9 6.592 6.633 6.592 3.525 0 6.634-2.883 6.634-6.592" fill="#F6A644" mask="url(#l)"/><path fill="#FEFEFE" mask="url(#l)" d="M387.875 374.544h33.787v-25.54h-33.787"/><path d="M421.25 369.807h-32.96c-2.487 0-4.56 2.06-4.56 4.737h42.286c0-2.678-2.28-4.737-4.767-4.737" fill="#004B50" mask="url(#l)"/><path d="M421.25 369.807h-32.96c-2.487 0-4.56 2.06-4.56 4.737h42.286c0-2.678-2.28-4.737-4.767-4.737" fill="#013438" mask="url(#l)"/><path d="M421.25 369.807h-32.96 32.96zM421.663 349.005H387.875v3.707h33.788" fill="#B2B2B1" mask="url(#l)"/><path d="M514.733 374.543H148.257c-2.696 0-4.77 2.06-4.77 4.738h375.807c0-2.678-2.073-4.737-4.56-4.737" fill="#004B50" mask="url(#l)"/><path d="M514.733 374.543H148.258c-2.696 0-4.77 2.06-4.77 4.738h375.807c0-2.678-2.073-4.737-4.56-4.737" fill="#013438" mask="url(#l)"/><path d="M167.326 374.543c0-4.53-3.73-8.237-8.498-8.237-4.56 0-8.292 3.707-8.292 8.237h16.79" fill="#004B50" mask="url(#l)"/><path d="M158.828 366.306c-4.56 0-8.29 3.707-8.29 8.238h16.788c0-4.53-3.73-8.238-8.498-8.238" fill="#013438" mask="url(#l)"/></g><g><g transform="translate(221.932 75.71)"><mask id="n" fill="#fff"><use xlink:href="#m"/></mask><path d="M86.86 29.85h-.622c.414-1.237.622-2.68.622-4.12 0-9.68-7.877-17.507-17.62-17.507-3.938 0-7.46 1.236-10.363 3.294C55.147 4.927 48.097.395 40.014.395c-9.743 0-18.034 6.592-20.728 15.447-10.78 1.236-19.28 10.3-19.28 21.42v.62c.21 10.503 9.122 18.536 19.486 18.536h66.953c7.67 0 13.888-5.973 13.68-13.387 0-7.414-6.01-13.18-13.265-13.18" fill="#FEFEFE" mask="url(#n)"/></g><g transform="translate(241.125 83.843)"><mask id="p" fill="#fff"><use xlink:href="#o"/></mask><path d="M50.047.09c-3.937 0-7.46 1.03-10.364 3.09L.093 48.285H67.25c7.464 0 13.683-5.972 13.683-13.182v-.205c0-7.414-6.01-13.182-13.265-13.182h-.622c.414-1.235.622-2.678.622-4.118C67.668 7.918 59.79.09 50.048.09" fill="#EAE9E9" mask="url(#p)"/></g></g><g transform="translate(-40.387 -82.794)"><path d="M255.28 322.023c-34.616 10.298-58.04-33.777-58.04-33.777v-28.63l44.566-1.235.415 3.09c0 33.983 0 48.813 13.06 60.553z" fill="#020203"/><path d="M227.09 312.96c-1.45 0-2.49-1.03-2.49-2.47v-20.185H192.06v20.184c0 1.44-1.036 2.47-2.487 2.47h-5.596v23.07h48.09v-23.07h-4.975" fill="#84513A"/><path d="M221.7 312.755c0 .206-29.02 0-29.02 0-16.167 0-29.848 12.36-31.093 28.422l-2.694 29.042c-.207 2.264 1.66 4.323 4.145 4.323h90.584c2.487 0 4.352-2.06 4.145-4.324l-2.696-29.043c-1.24-16.063-14.922-28.422-31.09-28.422h-2.28" fill="#84513A"/><mask id="r" fill="#fff"><use xlink:href="#q"/></mask><path fill="#020203" mask="url(#r)" d="M173.61 272.386h6.22v-10.71h-6.22"/><path d="M188.742 272.798c0 4.738-3.94 8.65-8.706 8.65-4.975 0-8.913-3.912-8.913-8.65 0-4.943 3.938-8.857 8.913-8.857 4.767 0 8.706 3.915 8.706 8.858" fill="#84513A" mask="url(#r)"/><path d="M176.513 278.77c0 1.237-1.037 2.473-2.488 2.473-1.45 0-2.694-1.236-2.694-2.472 0-1.44 1.244-2.675 2.695-2.675 1.45 0 2.488 1.234 2.488 2.676" fill="#F18919" mask="url(#r)"/><path d="M227.504 272.798c0 4.738 3.938 8.65 8.705 8.65 4.768 0 8.707-3.912 8.707-8.65 0-4.943-3.94-8.857-8.708-8.857-4.768 0-8.706 3.915-8.706 8.858" fill="#9A5E44" mask="url(#r)"/><path d="M239.527 278.77c0 1.237 1.243 2.473 2.694 2.473 1.453 0 2.49-1.236 2.49-2.472 0-1.44-1.037-2.675-2.49-2.675-1.45 0-2.693 1.234-2.693 2.676" fill="#F18919" mask="url(#r)"/><path d="M187.29 312.96v.207h.208c-.207 0-.207-.206-.207-.206" fill="#794B38" mask="url(#r)"/><path d="M187.498 313.166h-.207V335h23.838c-9.742-3.502-19.07-9.063-23.63-21.834" fill="#794B38" mask="url(#r)"/><path d="M192.06 297.514h-.21s0 .207.21.207v-.206" fill="#562C85" mask="url(#r)"/><path d="M224.394 296.69l-32.335.825v.205c9.12 11.74 23.837 14.417 29.847 15.035h4.353c-1.036-.206-1.866-1.236-1.866-2.266v-13.8M223.98 312.755h-2.073c1.658.206 2.488.206 2.488.206h2.694-.207c-.21 0-.415 0-.623-.205h-2.28" fill="#794B38" mask="url(#r)"/><path d="M240.148 270.12c0 14.83-10.157 27.19-23.837 30.69-.207 1.03-.828 1.852-1.45 2.47-1.036 1.03-2.696 1.853-4.56 1.853h-4.354c-2.9 0-5.182-1.853-6.01-4.323-13.682-3.5-23.838-15.86-23.838-30.69 0-17.507 14.302-31.718 32.13-31.718 17.618 0 31.92 14.21 31.92 31.718" fill="#84513A" mask="url(#r)"/><path d="M186.254 259.616c1.243-6.59 3.938-12.564 7.67-17.918-10.57 5.15-17.825 16.065-17.825 28.422 0 11.122 5.802 21.008 14.508 26.57-6.012-10.916-6.84-25.54-4.354-37.074" fill="#9A5E44" mask="url(#r)"/><path d="M207.812 228.516c-18.655 0-33.788 14.83-34.202 33.366 3.938 1.647 8.292 2.47 12.853 2.47 15.13 0 27.982-9.68 32.75-23.272 3.94 10.09 12.436 17.712 23.01 20.39-.624-18.33-15.756-32.954-34.41-32.954" fill="#020203" mask="url(#r)"/><path d="M207.812 282.89v-13.8c-1.66 0-3.11 1.236-3.317 2.884l-1.45 10.916h4.767z" fill="#9A5E44" mask="url(#r)"/><path d="M203.044 282.89c1.037 1.647 3.11 2.884 5.39 2.884 2.073 0 4.145-1.237 5.183-2.884h-10.573z" fill="#704632" mask="url(#r)"/><path d="M198.692 289.893c1.243 3.912 4.975 6.797 9.534 6.797 4.354 0 8.085-2.885 9.328-6.797h-18.862z" fill="#D48169" mask="url(#r)"/><path d="M198.692 289.893c1.243 2.883 4.975 4.943 9.534 4.943 4.354 0 8.085-2.06 9.328-4.943h-18.862z" fill="#FEFEFE" mask="url(#r)"/><path d="M192.06 274.033c.83 0 1.657.412 2.072 1.03.415-.412.62-1.03.62-1.648 0-1.44-1.243-2.676-2.693-2.676-1.452 0-2.49 1.235-2.49 2.675 0 .618.208 1.236.623 1.65.415-.62 1.036-1.032 1.866-1.032M223.566 274.033c.83 0 1.45.412 2.072 1.03.207-.618.415-1.03.415-1.648 0-1.44-1.036-2.676-2.487-2.676-1.452 0-2.488 1.235-2.488 2.675 0 .618.208 1.236.62 1.65.416-.62 1.038-1.032 1.868-1.032" fill="#231F20" mask="url(#r)"/><path d="M256.938 360.333l-2.28-25.747c-1.244-12.357-11.607-21.832-24.252-21.832h-1.66v.207c0 11.534-9.327 20.597-20.727 20.597-11.402 0-20.73-9.063-20.73-20.596v-.206h-1.036c-12.643 0-23.007 9.475-24.045 21.832l-2.28 25.747h17.203v14.21h62.394v-14.21h17.41z" fill="#F18919" mask="url(#r)"/><path d="M241.6 329.026h-66.332c-1.865 0-3.316 1.442-3.316 3.295v38.93c0 1.852 1.45 3.293 3.316 3.293h66.33c1.867 0 3.318-1.44 3.318-3.294v-38.93c0-1.852-1.45-3.294-3.317-3.294" fill="#D6D6D6" mask="url(#r)"/><path d="M242.014 371.248v-38.926c0-1.854-1.658-3.296-3.524-3.296h3.11c1.864 0 3.317 1.442 3.317 3.296v38.926c0 1.854-1.453 3.295-3.318 3.295h-3.11c1.866 0 3.524-1.44 3.524-3.295" fill="#B6B5B5" mask="url(#r)"/><path fill="#717070" mask="url(#r)" d="M171.952 374.544h72.965v-3.708h-72.965"/><path fill="#B6B5B5" mask="url(#r)" d="M205.74 351.682h2.486v-2.677h-2.487M208.64 351.682h2.49v-2.677h-2.49M205.74 354.565h2.486v-2.677h-2.487M208.64 354.565h2.49v-2.677h-2.49"/></g></g></svg>