<?xml version="1.0" encoding="utf-8"?>
<!-- Generator: Adobe Illustrator 21.0.0, SVG Export Plug-In . SVG Version: 6.00 Build 0)  -->
<svg version="1.1" id="Layer_1" xmlns="http://www.w3.org/2000/svg" xmlns:xlink="http://www.w3.org/1999/xlink" x="0px" y="0px"
	 viewBox="0 0 198.1 263.8" style="enable-background:new 0 0 198.1 263.8;" xml:space="preserve">
<style type="text/css">
	.st0{fill:#409AE1;}
	.st1{fill:#00BCF2;}
	.st2{fill:#FFFFFF;}
	.st3{fill:#00188F;}
	.st4{fill:#002050;}
	.st5{fill:#CE9C5F;}
	.st6{fill:#5C2D91;}
	.st7{fill:#B4009E;}
	.st8{fill:#008272;}
	.st9{fill:#F0BEB4;}
	.st10{fill:#E3008C;}
	.st11{fill:#F6CAA7;}
	.st12{fill:#8E562E;}
	.st13{fill:#BB9167;}
	.st14{fill:#D8B094;}
	.st15{fill:#72594B;}
	.st16{fill:#613D30;}
	.st17{fill:none;stroke:#FFFFFF;stroke-width:0.6047;stroke-miterlimit:1;}
</style>
<g>
	<rect x="75.4" y="168.8" class="st0" width="85.6" height="54"/>
	<rect x="80.5" y="174.2" class="st1" width="75.1" height="43.2"/>
	<rect x="53.2" y="175.2" class="st2" width="20.2" height="20"/>
	<rect x="51.9" y="173.5" class="st3" width="23.4" height="23.2"/>
	<path class="st2" d="M75.4,173.2h-0.6H51.9h-0.6v0.6v22.6v0.7h0.6h22.9h0.6v-0.7v-22.6V173.2z M74.8,196.4H51.9v-22.6h22.9V196.4z"
		/>
	<path class="st0" d="M34.3,189.4c0,0-0.6,0-0.6,0.7c0,32.1,0,32.1,0,32.1s0,0.6,0.6,0.6c15.4,0,15.4,0,15.4,0s0.6,0,0.6-0.6
		c0-32.1,0-32.1,0-32.1s0-0.7-0.6-0.7c-14.1,0-14.1,0-14.1,0H34.3z"/>
	<rect x="35.3" y="196.8" class="st1" width="13.5" height="20.4"/>
	<polygon class="st0" points="111.7,82.9 111.7,32.9 32,32.9 32,82.9 69.6,85.8 68.3,94.3 58.7,94.3 58.7,95.9 85.4,95.9 85.4,94.3 
		75.4,94.3 74.1,85.8 	"/>
	<rect x="37.2" y="37.8" class="st1" width="69.6" height="40.1"/>
	<rect x="39.4" y="90.2" class="st2" width="20.9" height="20.4"/>
	<rect x="38.4" y="88.3" class="st4" width="23.5" height="23.2"/>
	<path class="st2" d="M62.2,87.9h-0.6H38.8h-0.6v0.7v22.6v0.6h0.6h22.8h0.6v-0.6V88.7V87.9z M61.6,111.2H38.8V88.7h22.8V111.2z"/>
	<path class="st5" d="M100.4,187.6c0,9.5,0,9.5,0,9.5c-11.9-0.4-11.9-0.4-11.9-0.4c-9.9,12.4-9.9,12.4-9.9,12.4l0,0
		c-8,2.9-8,2.9-8,2.9c-0.6-1.3,0.4-2.7,1.3-3.3c4.7-1.2,4.7-1.2,4.7-1.2c1.6-2.3,1.6-2.3,1.6-2.3c-3.8,2.3-3.8,2.3-3.8,2.3l0,0
		c-11.3,2.2-11.3,2.2-11.3,2.2c-0.4-1.3,0.4-2.5,1.9-2.9c8.4-1.6,8.4-1.6,8.4-1.6c4.1-2.2,4.1-2.2,4.1-2.2c-5.5,2.2-5.5,2.2-5.5,2.2
		C61,205.7,61,205.7,61,205.7c0-1.3,1-2.5,2.5-2.5c7.6-0.4,7.6-0.4,7.6-0.4c5.8-1.6,5.8-1.6,5.8-1.6c-7,1.2-7,1.2-7,1.2
		c-2.5-5.1-2.5-5.1-2.5-5.1c0.8-0.6,2.5-0.2,3.2,0.7c1.3,2.2,1.3,2.2,1.3,2.2c6.7-3.1,6.7-3.1,6.7-3.1s4.2-1,3.3-4.5
		c-1.6-0.6-2.9-1-2.9-1c-5.2,3.7-5.2,3.7-5.2,3.7c-1.2,0.7-2.8,0-3.8-0.8c9.9-7,9.9-7,9.9-7H100.4z"/>
	<polygon class="st2" points="76,206.9 74.4,204.7 75.7,204.1 77,206.3 	"/>
	<path class="st2" d="M95.9,195.8c0.6,0,1.3,0.6,1.3,1.3c0,0.6-0.7,1-1.3,1c-0.6,0-1-0.4-1-1C94.9,196.4,95.3,195.8,95.9,195.8z"/>
	<path class="st2" d="M95.9,193.6c0.6-0.4,1.3,0.2,1.3,1c0,0.6-0.7,1.2-1.3,1.2c-0.6,0-1-0.6-1-1.2
		C94.9,193.9,95.3,193.6,95.9,193.6z"/>
	<path class="st2" d="M95.9,191.1c0.6,0,1.3,0.6,1.3,1.2s-0.7,1-1.3,1.3c-0.6,0-1-0.7-1-1.3S95.3,191.1,95.9,191.1z"/>
	<path class="st2" d="M95.9,188.8c0.6,0,1.3,0.4,1.3,1c0,0.6-0.7,1.3-1.3,1.3c-0.6,0-1-0.4-1-1.3C94.9,189.2,95.3,188.8,95.9,188.8z
		"/>
	<path class="st2" d="M95.9,186.3c0.6,0,1.3,0.6,1.3,1.3c0,0.6-0.7,1.2-1.3,1.2c-0.6,0-1.3-0.6-1.3-1.2
		C94.6,186.9,95.3,186.3,95.9,186.3z"/>
	<polygon class="st6" points="155.6,206.9 100.4,197.1 100.4,187.6 125.1,187.6 155.6,187.6 	"/>
	<rect x="129.6" y="43.4" class="st2" width="19.5" height="20.8"/>
	<rect x="127.7" y="42.2" class="st7" width="23.2" height="23.2"/>
	<path class="st2" d="M151.1,41.9h-0.6H128h-0.6v0.7v22.6v0.6h0.6h22.4h0.6v-0.6V42.6V41.9z M150.5,65.1H128V42.6h22.4V65.1z"/>
	<path class="st0" d="M111.1,97.2c0,0-4.8,0-4.8,4.5c0,35,0,35,0,35c4.8-0.4,4.8-0.4,4.8-0.4c45.2,0,45.2,0,45.2,0
		c4.5,0.4,4.5,0.4,4.5,0.4c0-35,0-35,0-35s0-4.5-4.5-4.5c-43,0-43,0-43,0H111.1z"/>
	<path class="st1" d="M112.9,98.8c0,0-4.1,0-4.1,4.5c0,27,0,27,0,27s0,4.5,4.1,4.5c1.3,0,1.3,0,1.3,0c39.8,0,39.8,0,39.8,0
		s4.5,0,4.5-4.5c0-27,0-27,0-27s0-4.5-4.5-4.5H112.9z"/>
	<path class="st0" d="M95.3,138.3c0,0.4,0.4,2.9,6.1,2.9c64.5,0,64.5,0,64.5,0s5.8,0,5.8-2.9H95.3z"/>
	<polygon class="st1" points="105.6,136.3 95.3,138.3 171.7,138.3 161.4,136.3 	"/>
	<polygon class="st0" points="81.8,152.9 81.8,118.8 57.1,118.8 32,118.8 32,152.9 57.1,152.9 	"/>
	<rect x="34.7" y="120.8" class="st1" width="44.5" height="26.7"/>
	<rect x="113.2" y="152.9" class="st8" width="23.4" height="23.3"/>
	<path class="st2" d="M136.6,152.6h-0.2h-22.8h-0.7v0.6v22.6v0.6h0.7h22.8h0.2v-0.6v-22.6V152.6z M136.4,175.8h-22.8v-22.6h22.8
		V175.8z"/>
	<path class="st9" d="M52.6,115.3L52.6,115.3c-2.9-1.9-2.9-1.9-2.9-1.9c-4.5-3.1-4.5-3.1-4.5-3.1c-5.1-3.5-5.1-3.5-5.1-3.5
		c-1,1.3-0.7,3.1,0.6,4.1c6.7,4.8,6.7,4.8,6.7,4.8c1.9,1.6,1.7,3.1,0,4.1c-3.8,2.5-7-1.9-7-1.9c-6.1-6.6-6.1-6.6-6.1-6.6
		c2.2-1.3,2.2-1.3,2.2-1.3c1.7-1,1.9-2.5,1.3-4.1c-7.4,4.1-7.4,4.1-7.4,4.1c4.9,7.7,4.9,7.7,4.9,7.7c-4.9-6.2-4.9-6.2-4.9-6.2
		c-2.2,1.9-2.2,1.9-2.2,1.9c4.7,6.2,4.7,6.2,4.7,6.2c-4.5-4.5-4.5-4.5-4.5-4.5c-2.5,2.2-2.5,2.2-2.5,2.2c4.5,3.9,4.5,3.9,4.5,3.9
		c-3.2-1.3-3.2-1.3-3.2-1.3c0,3.5,0,3.5,0,3.5c17.6,7,17.6,7,17.6,7c1,1.6,1,1.6,1,1.6c9.7-5.1,9.7-5.1,9.7-5.1
		C52.6,115.3,52.6,115.3,52.6,115.3z"/>
	<polygon class="st10" points="44.3,147.4 58.7,147.4 58.7,129 46.4,135.4 	"/>
	<polygon class="st2" points="45.2,132.2 46.8,135.1 58.3,129 56.7,126.2 	"/>
	<path class="st11" d="M127.7,34.3C120,39,120,39,120,39c6.1-4.7,6.1-4.7,6.1-4.7c-1.9-2.5-1.9-2.5-1.9-2.5
		c-5.8,5.1-5.8,5.1-5.8,5.1c4.2-4.5,4.2-4.5,4.2-4.5c-1.9-2.5-1.9-2.5-1.9-2.5l0,0c-3.9,4.5-3.9,4.5-3.9,4.5c1-3.1,1-3.1,1-3.1
		c-3.2-0.4-3.2-0.4-3.2-0.4c-7.4,17.9-7.4,17.9-7.4,17.9c-1.3,0.8-1.3,0.8-1.3,0.8c5.2,9.5,5.2,9.5,5.2,9.5
		c11.2-2.8,11.2-2.8,11.2-2.8l0,0c2.3-2.9,2.3-2.9,2.3-2.9c3.2-4.5,3.2-4.5,3.2-4.5c3.5-5.1,3.5-5.1,3.5-5.1c-1.2-1-3.2-0.6-4.5,0.6
		c-4.7,6.8-4.7,6.8-4.7,6.8c-1.3,1.9-2.9,1.6-4.2,0c-2.3-3.9,2.3-7,2.3-7c6.4-6,6.4-6,6.4-6c1.6,2.2,1.6,2.2,1.6,2.2
		c0.6,1.6,2.5,1.9,4.1,1.3L127.7,34.3z"/>
	<polygon class="st10" points="36.5,37.8 36.5,62.2 108.8,62.2 102.3,50.2 	"/>
	<polygon class="st2" points="105.6,48.9 102.7,50.4 108.8,61.9 111.7,60.3 	"/>
	<path class="st12" d="M120.6,131.9c-1,1.6-1,1.6-1,1.6c-17.9,7.4-17.9,7.4-17.9,7.4c0.2,3.1,0.2,3.1,0.2,3.1
		c3.3-1.2,3.3-1.2,3.3-1.2c-4.5,3.9-4.5,3.9-4.5,3.9l0,0c2.2,2.2,2.2,2.2,2.2,2.2c4.9-4.5,4.9-4.5,4.9-4.5c-5.1,6-5.1,6-5.1,6
		c2.5,1.9,2.5,1.9,2.5,1.9c4.5-6,4.5-6,4.5-6c-4.5,7.6-4.5,7.6-4.5,7.6c7.4,4.1,7.4,4.1,7.4,4.1c0.6-1.6,0.2-3.1-1.3-4.1
		c-2.2-1.2-2.2-1.2-2.2-1.2c6.1-6.8,6.1-6.8,6.1-6.8s3.2-4.5,6.8-1.9c1.8,1,2.2,2.7,0.2,4.2c-6.8,4.7-6.8,4.7-6.8,4.7
		c-1.2,1-1.6,2.9-0.6,4.1c5.2-3.4,5.2-3.4,5.2-3.4c4.5-3.3,4.5-3.3,4.5-3.3c2.9-1.9,2.9-1.9,2.9-1.9l0,0c2.8-11.5,2.8-11.5,2.8-11.5
		L120.6,131.9z"/>
	<polygon class="st10" points="115.4,98.8 121,128.4 133.1,134.8 133.1,98.8 	"/>
	<polygon class="st2" points="120,131.6 121.6,128.7 133.1,134.8 131.6,137.6 	"/>
	<path class="st13" d="M146.6,179.9c-4.7,4.5-4.7,4.5-4.7,4.5c5.1-6,5.1-6,5.1-6c-2.5-1.9-2.5-1.9-2.5-1.9c-4.5,6-4.5,6-4.5,6
		c4.7-7.6,4.7-7.6,4.7-7.6c-7.3-4.1-7.3-4.1-7.3-4.1c-1,1.6-0.4,3.1,1,4.1c2.5,1.3,2.5,1.3,2.5,1.3c-6.2,6.6-6.2,6.6-6.2,6.6
		s-3.2,4.1-7,1.9c-1.6-1-1.9-2.5-0.2-4.1c6.7-4.8,6.7-4.8,6.7-4.8c1.6-1,1.9-2.9,0.6-4.1c-5.1,3.5-5.1,3.5-5.1,3.5
		c-4.1,3.1-4.1,3.1-4.1,3.1c-3.3,1.9-3.3,1.9-3.3,1.9l0,0c-2.9,11.5-2.9,11.5-2.9,11.5c9.9,5.1,9.9,5.1,9.9,5.1
		c0.7-1.6,0.7-1.6,0.7-1.6c17.9-7.4,17.9-7.4,17.9-7.4c-0.4-3.1-0.4-3.1-0.4-3.1c-3.2,1.2-3.2,1.2-3.2,1.2c4.5-3.7,4.5-3.7,4.5-3.7
		L146.6,179.9z"/>
	<polygon class="st10" points="131.9,217.4 128.6,200.3 116.5,193.9 116.5,217.4 	"/>
	<polygon class="st2" points="130,196.8 128.3,199.9 116.5,193.9 118.1,191.1 	"/>
	<path class="st14" d="M48.4,217.2c5.8-8,5.8-8,5.8-8c0-12.1,0-12.1,0-12.1c-1.3,0-2.9,1-2.9,2.5c0,6.3,0,6.3,0,6.3s-1,0.7-2.5,1.9
		c-2.9-1.6-1.6-5.4-1.6-5.4c1.6-7.2,1.6-7.2,1.6-7.2c2.3,0.2,2.3,0.2,2.3,0.2c1.2,0,2.2-0.8,2.5-2.2c-5.8-1-5.8-1-5.8-1
		c-2.9,6.6-2.9,6.6-2.9,6.6c1.9-5.7,1.9-5.7,1.9-5.7c4.2-6.6,4.2-6.6,4.2-6.6c0.6-1,0.6-2.5-0.7-3.3c-6.1,9.3-6.1,9.3-6.1,9.3
		c-1.6,5.7-1.6,5.7-1.6,5.7c0.6-5.1,0.6-5.1,0.6-5.1c3.9-7.6,3.9-7.6,3.9-7.6c0.2-1,0-2.5-1.3-3.3c-4.7,10.5-4.7,10.5-4.7,10.5l0,0
		c-0.7,4.5-0.7,4.5-0.7,4.5c-0.6-2.5-0.6-2.5-0.6-2.5c1.6-4.5,1.6-4.5,1.6-4.5c0.4-1.2-0.2-2.5-1.6-3.1c-2.5,8.2-2.5,8.2-2.5,8.2
		l0,0c4.1,15.3,4.1,15.3,4.1,15.3c-4.9,6.4-4.9,6.4-4.9,6.4H48.4z"/>
	<polygon class="st2" points="40.4,194.8 43.3,194.8 43.3,196.2 40.4,195.8 	"/>
	<path class="st15" d="M141.5,90.5c9.6,0,9.6,0,9.6,0c0-11.7,0-11.7,0-11.7c12.6-10.1,12.6-10.1,12.6-10.1l0,0c2.5-8,2.5-8,2.5-8
		c-1.3-0.4-2.5,0.2-2.9,1.6c-1.6,4.5-1.6,4.5-1.6,4.5c-2.3,1.9-2.3,1.9-2.3,1.9c2.5-4.2,2.5-4.2,2.5-4.2l0,0
		c1.9-11.1,1.9-11.1,1.9-11.1c-1.2-0.2-2.5,0.6-2.5,1.9c-1.6,8.2-1.6,8.2-1.6,8.2c-2.5,4.5-2.5,4.5-2.5,4.5c2.2-5.7,2.2-5.7,2.2-5.7
		c0.4-10.9,0.4-10.9,0.4-10.9c-1.3,0-2.3,1-2.3,2.3c-0.2,7.6-0.2,7.6-0.2,7.6c-1.9,5.8-1.9,5.8-1.9,5.8c1.6-6.8,1.6-6.8,1.6-6.8
		c-5.1-2.9-5.1-2.9-5.1-2.9c-1,1.3-0.7,2.7,0.6,3.5c1.9,1,1.9,1,1.9,1c-2.9,6.8-2.9,6.8-2.9,6.8s-1.3,4.1-4.9,3.4
		c-0.6-1.8-1-2.8-1-2.8c3.9-5.4,3.9-5.4,3.9-5.4c1-1.2,0.4-2.9-1-3.7c-7,9.8-7,9.8-7,9.8V90.5z"/>
	<polygon class="st2" points="161.4,66.3 158.8,64.8 158.2,65.7 160.8,67.3 	"/>
	<path class="st2" d="M142.8,86.1c0-0.7-0.4-1.3-1-1.3c-0.7,0-1.3,0.4-1.3,1c0,1,0.4,1.3,1,1.3C142.5,87.1,142.8,86.7,142.8,86.1z
		 M145.4,86.1c0-0.7-0.7-1.3-1.3-1.3c-0.6,0-1.2,0.6-1.2,1.3c0,0.6,0.6,1,1.2,1C144.6,87.1,145.4,86.7,145.4,86.1z M147.6,86.1
		c0-0.7-0.6-1.3-1.2-1.3c-0.7,0-1,0.6-1,1.3c0,0.6,0.2,1,1,1C147,87.1,147.6,86.7,147.6,86.1z M149.9,86.1c0-0.7-0.4-1.3-1-1.3
		c-0.6,0-1.3,0.6-1.3,1.3c0,0.6,0.7,1,1.3,1C149.5,87.1,149.9,86.7,149.9,86.1z M152.4,86.1c0-0.7-0.6-1.3-1.3-1.3
		c-0.6,0-1.2,0.6-1.2,1.3c0,0.6,0.6,1,1.2,1C151.8,87.1,152.4,86.7,152.4,86.1z"/>
	<path class="st6" d="M151.4,90.5c-9.9,0-9.9,0-9.9,0c0,24.2,0,24.2,0,24.2c0,20,0,20,0,20c14.8,0,14.8,0,14.8,0s1.6,0,2.9-1
		L151.4,90.5z"/>
	<path class="st16" d="M50.1,57.8c9.6,0,9.6,0,9.6,0c0,11.8,0,11.8,0,11.8c12.5,10.1,12.5,10.1,12.5,10.1l0,0c2.7,8,2.7,8,2.7,8
		c-1.3,0.2-2.7-0.4-2.9-1.6c-1.7-4.5-1.7-4.5-1.7-4.5C68,79.7,68,79.7,68,79.7c2.5,4.1,2.5,4.1,2.5,4.1l0,0
		c1.9,11.1,1.9,11.1,1.9,11.1c-1.3,0.4-2.3-0.6-2.5-1.8c-1.7-8.3-1.7-8.3-1.7-8.3c-2.5-4.5-2.5-4.5-2.5-4.5c2.3,5.8,2.3,5.8,2.3,5.8
		c0.2,10.7,0.2,10.7,0.2,10.7c-1.2,0-2.2-1-2.2-2.2c-0.4-7.6-0.4-7.6-0.4-7.6c-1.9-5.8-1.9-5.8-1.9-5.8c1.7,6.6,1.7,6.6,1.7,6.6
		c-5.2,2.9-5.2,2.9-5.2,2.9c-1-1.2-0.6-2.5,0.7-3.5c1.8-1,1.8-1,1.8-1C60,79.7,60,79.7,60,79.7s-1.3-4.1-4.9-3.5
		c-0.6,1.9-1,2.9-1,2.9c3.9,5.3,3.9,5.3,3.9,5.3c1,1.3,0.2,2.9-1,3.5c-7-9.5-7-9.5-7-9.5V57.8z"/>
	<polygon class="st6" points="50.1,37.8 50.1,57.8 60,57.8 63.5,37.8 	"/>
	<polygon class="st2" points="70,81.9 67.4,83.5 66.7,82.6 69.2,80.9 	"/>
	<path class="st2" d="M51.3,62.2c0-0.6-0.2-1-1-1c-0.6,0-1.2,0.4-1.2,1c0,1,0.6,1.2,1.2,1.2C51,63.5,51.3,62.8,51.3,62.2z
		 M53.8,62.2c0-0.6-0.6-1-1.2-1c-0.7,0-1.3,0.4-1.3,1c0,0.6,0.6,1.2,1.3,1.2C53.2,63.5,53.8,62.8,53.8,62.2z M56.1,62.2
		c0-0.6-0.6-1-1.3-1c-0.6,0-1,0.4-1,1c0,0.6,0.4,1.2,1,1.2C55.5,63.5,56.1,62.8,56.1,62.2z M58.3,62.2c0-0.6-0.2-1-1-1
		c-0.6,0-1.2,0.4-1.2,1c0,0.6,0.6,1.2,1.2,1.2C58.1,63.5,58.3,62.8,58.3,62.2z M61,62.2c0-0.6-0.7-1.3-1.3-1c-0.6,0-1.3,0.4-1.3,1
		c0,0.6,0.7,1.2,1.3,1.2C60.3,63.5,61,62.8,61,62.2z"/>
	<path class="st2" d="M125.7,163c0,0.4-0.2,1-1,1c-0.2,0-0.6-0.6-0.6-1c0-0.2,0.4-0.8,0.6-0.8C125.5,162.1,125.7,162.7,125.7,163z
		 M130.6,160.2c-0.4-0.6-2.3-1.3-2.5-1c0,0-1,1-1.6,1c-0.4,0.2-1.7,0.2-1.7,0.2s-1.2,0-1.6-0.2c-0.4,0-1.6-1-1.6-1
		c-0.4-0.4-2.3,0.4-2.5,1c0,0-4.2,8.9-1,9.8c1.2,0.4,1.9-0.8,2.5-1.6c1-0.6,1.9-1.6,4.1-1.6c2.3,0,3.5,1,4.2,1.6
		c1,0.7,1.2,1.9,2.9,1.6C134.7,169.1,130.6,160.2,130.6,160.2z"/>
	<path class="st17" d="M68.7,190.9"/>
	<path class="st17" d="M57.8,190.9"/>
	<path class="st17" d="M55.4,185.2"/>
	<path class="st17" d="M71.2,185.2"/>
	<path class="st17" d="M63.3,177.3"/>
</g>
<path id="Page-1_2_" class="st2" d="M131.9,49.2h6.5v1.5h-5v2.5h5v1.5h-5v2.6h5v1.5h-6.5V49.2z M139.7,50.7v-1.5h7.3l-5.2,8.1h4.8
	v1.5h-7.5l5.2-8.1H139.7z"/>
<path id="Page-1_1_" class="st2" d="M56,180.3h6.5v1.5h-5v2.5h5v1.5h-5v2.6h5v1.5H56V180.3z M63.8,181.8v-1.5h7.3l-5.2,8.1h4.8v1.5
	h-7.5l5.2-8.1H63.8z"/>
<g>
	<polygon id="Fill-1_1_" class="st2" points="48,96.8 52,96.8 50,99.7 47.6,99.7 47.6,100.2 49.8,100.2 47.6,103.4 47.6,103.5 
		52.7,103.5 52.7,103 48.4,103 50.3,100.2 52.7,100.2 52.7,99.7 50.6,99.7 52.8,96.5 52.8,96.3 48,96.3 	"/>
	<path id="Fill-2_2_" class="st2" d="M50.1,105.6c-3.3,0-5.9-2.7-5.9-5.9c0-3.3,2.7-5.9,5.9-5.9c3.3,0,5.9,2.7,5.9,5.9
		C56.1,102.9,53.4,105.6,50.1,105.6 M50.1,93.3c-3.6,0-6.4,2.9-6.4,6.4c0,3.5,2.8,6.4,6.4,6.4c3.6,0,6.4-2.9,6.4-6.4
		C56.6,96.1,53.7,93.3,50.1,93.3"/>
</g>
</svg>
