<?xml version="1.0" encoding="UTF-8"?>
<svg width="108px" height="126px" viewBox="0 0 108 126" version="1.1" xmlns="http://www.w3.org/2000/svg" xmlns:xlink="http://www.w3.org/1999/xlink">
    <!-- Generator: Sketch 42 (36781) - http://www.bohemiancoding.com/sketch -->
    <title>Group 16</title>
    <desc>Created with Sketch.</desc>
    <defs></defs>
    <g id="Homepage" stroke="none" stroke-width="1" fill="none" fill-rule="evenodd">
        <g id="3.4a_Desktop_Accreditations_Complete-for-365" transform="translate(-278.000000, -236.000000)">
            <g id="Group-15" transform="translate(112.000000, 236.000000)">
                <g id="Group-16" transform="translate(165.000000, 0.000000)">
                    <path d="M25.2595475,22.4013546 C27.0081011,20.1032239 27.0081011,16.6560278 25.2595475,14.9351398 L11.8747216,1.72359806 C9.54692574,-0.574532686 6.63718097,-0.574532686 4.30938515,1.72359806 C2.56353828,3.44448606 2.56353828,6.89168218 4.30938515,9.18981292 L17.6942111,22.4013546 C20.0220069,24.1249527 22.9344584,24.1249527 25.2595475,22.4013546" id="Fill-21" fill="#333333" transform="translate(14.785481, 11.847027) scale(-1, 1) translate(-14.785481, -11.847027) "></path>
                    <g id="Group-7" transform="translate(1.000000, 5.000000)">
                        <g id="Page-1" fill="#FFB900">
                            <path d="M82.671115,25.1903364 L82.671115,3.44067402 L23.7343595,3.44067402 L23.7343595,25.1903364 C23.7343595,37.4271792 31.9579179,49.6615206 36.7556206,57.8160806 C42.2379928,65.2952629 48.4050346,67.3339029 48.4050346,82.9676453 C48.4050346,102.000789 43.6098398,112.87687 34.699104,112.87687 L72.3910401,112.87687 C63.4828122,112.87687 58.6876175,102.000789 58.6876175,82.9676453 C58.6876175,67.3339029 64.1674817,65.2952629 69.6523619,57.8160806 C75.1322262,49.6615206 82.671115,37.4271792 82.671115,25.1903364" id="Fill-1"></path>
                            <path d="M82.0441283,116.969159 C82.0441283,118.332421 80.6772971,120.381067 78.6283044,120.381067 L28.7201582,120.381067 C26.6686575,120.381067 25.3018264,118.332421 25.3018264,116.969159 C25.3018264,114.923015 26.6686575,112.87687 28.7201582,112.87687 L78.6283044,112.87687 C80.6772971,112.87687 82.0441283,114.923015 82.0441283,116.969159" id="Fill-3"></path>
                            <path d="M80.5990492,53.780574 C79.2372339,53.780574 77.8729108,53.1001935 77.1932571,52.419813 C76.5110955,51.7394326 75.8289339,50.3761702 75.1467723,49.0154093 C75.1467723,47.652147 75.8289339,46.291386 76.5110955,45.6110056 C79.2372339,41.5262214 81.9633724,38.8046995 85.3691645,34.7174139 C89.4596261,30.6351311 93.5475798,25.1870846 98.9998566,18.3807785 C101.725995,15.6567552 102.408157,12.9352333 102.408157,10.8915905 C101.725995,8.85044915 101.043833,6.80680635 98.9998566,5.44604541 C97.6380414,4.08528448 94.911903,3.40240261 92.8679261,4.08528448 C88.7774645,4.76566495 85.3691645,8.85044915 86.0513261,12.9352333 C86.0513261,14.2959943 85.3691645,14.9763747 84.0073492,14.9763747 C83.3251876,14.9763747 82.643026,14.2959943 81.9633724,13.6156138 C81.2812108,6.80680635 86.0513261,0.680880747 92.8679261,0.000500279755 C95.5940646,0.000500279755 98.9998566,0.680880747 101.725995,2.72202215 C103.769972,4.76566495 105.816457,7.48968821 105.816457,10.2112101 C106.49611,14.9763747 104.452134,18.3807785 102.408157,20.4244213 C96.9558798,27.9111078 92.1857645,32.6762725 88.0953029,36.7610567 C84.6895108,40.8458409 81.9633724,44.2477432 79.2372339,47.652147 L79.2372339,48.3350288 C79.2372339,49.0154093 79.2372339,49.0154093 79.9193955,49.6957898 L80.5990492,49.6957898 C80.5990492,49.6957898 81.2812108,49.6957898 81.2812108,49.0154093 C81.2812108,49.0154093 81.9633724,49.0154093 81.2812108,48.3350288 C81.2812108,47.652147 81.9633724,46.291386 83.3251876,46.291386 C84.6895108,46.291386 85.3691645,46.9717665 85.3691645,47.652147 C86.0513261,50.3761702 84.0073492,53.1001935 81.2812108,53.780574 L80.5990492,53.780574 Z" id="Fill-5"></path>
                            <path d="M25.8061746,53.780574 L25.8061746,53.780574 C23.0800361,53.1001935 21.0360593,50.3761702 21.0360593,47.652147 C21.0360593,46.9717665 22.4003825,46.291386 23.0800361,46.291386 C24.4443593,46.291386 25.1265209,47.652147 25.1265209,48.3350288 L25.1265209,49.0154093 C25.1265209,49.6957898 25.8061746,49.6957898 25.8061746,49.6957898 L27.1704977,49.6957898 L27.1704977,48.3350288 L27.1704977,47.652147 C24.4443593,44.2477432 21.7182209,40.8458409 18.3099208,36.7610567 C14.2219672,32.6762725 10.1315055,27.9111078 3.99957501,20.4244213 C2.63525182,18.3807785 -0.0908866204,14.9763747 0.588767029,10.2112101 C1.27343657,7.48968821 2.63525182,4.76566495 5.36139025,2.72202215 C7.40536709,0.680880747 10.8111592,0.000500279755 14.2219672,0.000500279755 C20.3538977,0.680880747 25.1265209,6.80680635 24.4443593,13.6156138 C24.4443593,14.2959943 23.0800361,14.9763747 22.4003825,14.9763747 C21.0360593,14.9763747 20.3538977,14.2959943 20.3538977,12.9352333 C21.0360593,8.85044915 17.6277592,4.76566495 13.5372976,4.08528448 C11.4958287,3.40240261 9.45185188,4.08528448 7.40536709,5.44604541 C6.04355185,6.80680635 4.67922866,8.85044915 4.67922866,10.8915905 C3.99957501,12.9352333 5.36139025,15.6567552 7.40536709,18.3807785 C12.857644,25.1870846 17.6277592,30.6351311 21.0360593,34.7174139 C24.4443593,38.8046995 27.1704977,41.5262214 29.8966362,45.6110056 C31.2584514,46.291386 31.2584514,47.652147 31.2584514,49.0154093 C31.2584514,50.3761702 30.5762898,51.7394326 29.2119666,52.419813 C28.532313,53.1001935 27.1704977,53.780574 25.8061746,53.780574" id="Fill-7"></path>
                        </g>
                        <g id="Group-9" transform="translate(23.555556, 2.951220)">
                            <polygon id="Fill-18" fill="#E81123" points="0 17.438852 21.9197097 51.6778932 29.3452848 45.6355057 0 0"></polygon>
                            <polygon id="Fill-19" fill="#E81123" points="59.4873661 0 32.9287037 43.97432 40.142544 49.913333 59.4873661 19.3866124"></polygon>
                            <path d="M17.9791317,35.0834009 C21.898082,28.7352746 30.6386414,26.6132176 37.1912749,30.4278677 C43.7327645,34.4518364 45.9095464,42.7271369 41.7677174,49.08609 C37.848767,55.4414341 29.3310864,57.5671001 22.5704327,53.7380142 C16.0177992,49.7176546 14.052752,41.4603988 17.9791317,35.0834009" id="Fill-20" fill="#FFF100"></path>
                            <path d="M20.1072611,33.4471545 C19.4571983,34.2916465 18.5879714,35.1397476 17.9304792,35.9842396 L17.9304792,36.1935582 C16.6229242,38.3156152 15.9654321,40.8779629 15.9654321,43.1985116 C15.9654321,47.6483352 18.3650927,52.3110863 22.5217803,54.8481715 C24.9177262,56.1221275 27.3173868,56.757301 29.9324968,56.757301 C33.4205483,56.757301 37.1426225,55.2704175 39.7651617,52.7333324 L20.1072611,33.4471545 Z" id="Fill-22" fill="#D9CD00"></path>
                        </g>
                    </g>
                    <g id="Group-10" transform="translate(0.000000, 5.000000)">
                        <path d="M11.182734,7.49153156 C11.182734,4.31062943 14.3672317,1.13347837 17.5517293,1.13347837 C21.5323514,1.13347837 24.716849,4.31062943 24.716849,7.49153156 L24.716849,28.9588699 C24.716849,32.9349975 21.5323514,35.3169231 17.5517293,35.3169231 C14.3672317,35.3169231 11.182734,32.9349975 11.182734,28.9588699 L11.182734,7.49153156 Z" id="Fill-45" fill="#3A3A3A" transform="translate(17.949792, 18.225201) scale(-1, 1) rotate(-30.000000) translate(-17.949792, -18.225201) "></path>
                        <path d="M5.14650316,8.45892696 C5.14650316,6.56632506 7.04124435,4.675955 8.93598555,4.675955 C11.304412,4.675955 13.1991532,6.56632506 13.1991532,8.45892696 L13.1991532,21.231758 C13.1991532,23.5975103 11.304412,25.0147299 8.93598555,25.0147299 C7.04124435,25.0147299 5.14650316,23.5975103 5.14650316,21.231758 L5.14650316,8.45892696 Z" id="Fill-45" fill="#393939" transform="translate(9.172828, 14.845342) scale(-1, 1) rotate(-30.000000) translate(-9.172828, -14.845342) "></path>
                        <path d="M18.067742,23.849531 C18.067742,21.8314167 20.7095129,19.8156822 23.3512839,19.8156822 C26.6534976,19.8156822 29.2952686,21.8314167 29.2952686,23.849531 L29.2952686,37.4694228 C29.2952686,39.9920657 26.6534976,41.5032715 23.3512839,41.5032715 C20.7095129,41.5032715 18.067742,39.9920657 18.067742,37.4694228 L18.067742,23.849531 Z" id="Fill-45" fill="#3B3B3B" transform="translate(23.681505, 30.659477) scale(-1, 1) rotate(-30.000000) translate(-23.681505, -30.659477) "></path>
                    </g>
                    <path d="M87.0514762,24.9607249 C87.0514762,22.8544025 89.1849876,20.7505641 91.3184991,20.7505641 C93.9853885,20.7505641 96.1189,22.8544025 96.1189,24.9607249 L96.1189,39.1759168 C96.1189,41.8088197 93.9853885,43.3860776 91.3184991,43.3860776 C89.1849876,43.3860776 87.0514762,41.8088197 87.0514762,39.1759168 L87.0514762,24.9607249 Z" id="Fill-45" fill="#333333" transform="translate(91.585188, 32.068321) scale(-1, -1) rotate(-30.000000) translate(-91.585188, -32.068321) "></path>
                    <path d="M82.4568127,31.3767447 C82.4568127,29.5183802 84.3391656,27.6622071 86.2215186,27.6622071 C88.5744597,27.6622071 90.4568127,29.5183802 90.4568127,31.3767447 L90.4568127,43.9185137 C90.4568127,46.2414694 88.5744597,47.6330513 86.2215186,47.6330513 C84.3391656,47.6330513 82.4568127,46.2414694 82.4568127,43.9185137 L82.4568127,31.3767447 Z" id="Fill-45" fill="#333333" transform="translate(86.456813, 37.647629) scale(-1, -1) rotate(-30.000000) translate(-86.456813, -37.647629) "></path>
                    <path d="M93.2093104,17.0977582 C93.2093104,14.5086519 95.8318379,11.9225987 98.4543653,11.9225987 C101.732525,11.9225987 104.355052,14.5086519 104.355052,17.0977582 L104.355052,34.5711731 C104.355052,37.8075561 101.732525,39.7463327 98.4543653,39.7463327 C95.8318379,39.7463327 93.2093104,37.8075561 93.2093104,34.5711731 L93.2093104,17.0977582 Z" id="Fill-45" fill="#333333" transform="translate(98.782181, 25.834466) rotate(-30.000000) translate(-98.782181, -25.834466) "></path>
                </g>
            </g>
        </g>
    </g>
</svg>