<?xml version="1.0" encoding="UTF-8"?>
<svg width="113px" height="127px" viewBox="0 0 113 127" version="1.1" xmlns="http://www.w3.org/2000/svg" xmlns:xlink="http://www.w3.org/1999/xlink">
    <!-- Generator: Sketch 42 (36781) - http://www.bohemiancoding.com/sketch -->
    <title>Group 20</title>
    <desc>Created with Sketch.</desc>
    <defs></defs>
    <g id="Homepage" stroke="none" stroke-width="1" fill="none" fill-rule="evenodd">
        <g id="3.4a_Desktop_Accreditations_Complete-for-365" transform="translate(-278.000000, -247.000000)">
            <g id="Group-15" transform="translate(112.000000, 236.000000)">
                <g id="Group-20" transform="translate(166.000000, 11.000000)">
                    <g id="Group-19" transform="translate(69.000000, 0.000000)" fill="#000000">
                        <path d="M43.4731813,35.5214167 C43.4731813,24.5177145 34.2912857,14.8116188 22.4899121,14.8116188 C11.3472198,14.8116188 2.16532418,24.5177145 2.16532418,35.5214167 L2.16532418,73.7015762 C2.16532418,84.7052784 11.3472198,93.7640975 22.4899121,93.7640975 C34.2912857,93.7640975 43.4731813,84.7052784 43.4731813,73.7015762 L43.4731813,35.5214167 Z" id="Fill-1"></path>
                        <path d="M4.09277344,3.24609375 C11.0599568,-6.63575842 42.7558594,12.8719942 42.7558594,36.1708984 C42.7558594,60.1140261 25.7683764,54.2878582 2.16562912,54.2878582 C2.16562912,54.2878582 -1.63381476,11.3683571 4.09277344,3.24609375 Z" id="Fill-3"></path>
                    </g>
                    <g id="Group-18" transform="translate(0.000000, 7.000000)" fill="#333333">
                        <path d="M42.3178269,28.5214167 C42.3178269,17.5177145 33.1389808,7.81161879 21.993239,7.81161879 C10.1918654,7.81161879 1.01301923,17.5177145 1.01301923,28.5214167 L1.01301923,66.7015762 C1.01301923,77.7052784 10.1918654,86.7640975 21.993239,86.7640975 C33.1389808,86.7640975 42.3178269,77.7052784 42.3178269,66.7015762 L42.3178269,28.5214167 Z" id="Fill-19"></path>
                        <path d="M1.01332418,6.30371094 C11.0048828,-7.35742188 42.3211813,5.224039 42.3211813,28.5229433 C42.3211813,52.4660709 24.1707592,47.2878582 1.01332418,47.2878582 C1.01332418,47.2878582 -1.15201983,9.26431529 1.01332418,6.30371094 Z" id="Fill-20"></path>
                        <path d="M42.3178269,61.5251954 C42.3178269,49.8772699 33.1389808,40.8184507 21.993239,40.8184507 C10.1918654,40.8184507 1.01301923,49.8772699 1.01301923,61.5251954 L1.01301923,99.705355 C1.01301923,110.709057 10.1918654,119.767876 21.993239,119.767876 C33.1389808,119.767876 42.3178269,110.709057 42.3178269,99.705355 L42.3178269,61.5251954 Z" id="Fill-24"></path>
                    </g>
                </g>
            </g>
        </g>
    </g>
</svg>