<?xml version="1.0" encoding="UTF-8"?>
<svg width="476px" height="398px" viewBox="0 0 476 398" version="1.1" xmlns="http://www.w3.org/2000/svg" xmlns:xlink="http://www.w3.org/1999/xlink">
    <!-- Generator: Sketch 42 (36781) - http://www.bohemiancoding.com/sketch -->
    <title>gorilla</title>
    <desc>Created with Sketch.</desc>
    <defs></defs>
    <g id="Page-1" stroke="none" stroke-width="1" fill="none" fill-rule="evenodd">
        <g id="gorilla" fill-rule="nonzero">
            <g id="Homepage">
                <g id="3.4a_Desktop_Accreditations_Complete-for-365">
                    <g id="Group-15">
                        <g id="Group-26">
                            <g id="Group-16" transform="translate(0.000000, 219.000000)">
                                <path d="M463.913554,154 C463.400254,154 463.137023,154.262782 462.623723,154.262782 L462.623723,154 L424.744813,154 L424.744813,167.388761 L313.393802,167.388761 L202.327958,167.388761 L202.064727,167.388761 L90.9769476,167.388761 L49.2285446,167.388761 L49.2285446,154 L10.8363341,154 L10.8363341,154.262782 C4.65479777,155.024851 0,159.934502 0,166.096748 C0,172.780179 5.42694142,178.180356 12.1173906,178.180356 L463.913554,178.180356 C470.60839,178.180356 476.013396,172.780179 476.013396,166.096748 C476.013396,159.417696 470.60839,154 463.913554,154" id="Fill-6" fill-opacity="0.397843071" fill="#000000"></path>
                                <path d="M424.772252,97.2338512 L383.006301,97.2338512 L383.006301,166.691607 L271.672839,166.691607 L160.585059,166.691607 L160.326215,166.691607 L91,166.691607 L202.092167,166.691607 L202.351011,166.691607 L313.421242,166.691607 L424.772252,166.691607 L424.772252,153.307226 L424.772252,97.2338512 Z M271.672839,97.2338512 L313.421242,97.2338512 L313.421242,2.84217094e-14 L271.672839,2.84217094e-14 L271.672839,97.2338512 Z" id="Fill-8" fill="#DBCF00"></path>
                                <polygon id="Fill-9" fill="#FFF100" points="271.421242 97.2338512 271.421242 2.84217094e-14 160.074618 2.84217094e-14 160.074618 55.5565697 49 55.5565697 49 166.691607 160.074618 166.691607 160.333462 166.691607 271.421242 166.691607 382.754704 166.691607 382.754704 97.2338512"></polygon>
                                <polygon id="Fill-11" fill="#F2E500" points="160.070231 56 160.070231 56 49 56 49 167.135038 160.070231 167.135038 160.333462 167.135038 271.416854 167.135038 305.707052 167.135038"></polygon>
                            </g>
                            <g id="Group-25" transform="translate(178.000000, 0.000000)">
                                <path d="M100.473181,21.5251954 C100.473181,9.87726985 91.2912857,0.818450704 80.145544,0.818450704 C68.3472198,0.818450704 59.1653242,9.87726985 59.1653242,21.5251954 L59.1653242,59.705355 C59.1653242,70.7090571 68.3472198,79.7678762 80.145544,79.7678762 C91.2912857,79.7678762 100.473181,70.7090571 100.473181,59.705355 L100.473181,21.5251954 Z" id="Fill-7" fill="#000000"></path>
                                <g id="Group-24">
                                    <polygon id="Fill-15" fill="#333333" points="36.2203434 50.6468411 44.0879258 58.4111071 33.5978159 58.4111071"></polygon>
                                    <polygon id="Fill-35" fill="#333333" points="47.3639505 54.5305007 39.4963681 62.2947667 49.986478 62.2947667"></polygon>
                                    <g id="Group-11">
                                        <path d="M93.2603159,211.786044 L87.3565797,211.786044 C84.0814698,204.666002 76.8695192,200.138119 69.0019368,200.138119 C67.6876236,200.138119 66.3794093,200.782342 65.7237775,200.782342 C68.3463049,197.549012 69.6575687,193.018076 69.6575687,188.490193 L69.6575687,147.070598 C69.6575687,141.245108 65.0681456,136.717225 59.1644093,136.717225 C53.266772,136.717225 48.6773489,141.245108 48.6773489,147.070598 L48.6773489,220.197587 L97.849739,220.197587 L97.849739,216.31698 C97.849739,213.727874 95.879794,211.786044 93.2603159,211.786044" id="Fill-8" fill="#000000"></path>
                                        <path d="M63.0994203,211.786044 L56.5461511,211.786044 C53.2649423,204.666002 46.7086236,200.138119 38.8410412,200.138119 C37.5297775,200.138119 36.2215632,200.782342 34.90725,200.782342 C37.5297775,197.549012 38.8410412,193.018076 38.8410412,188.490193 L38.8410412,147.070598 C38.8410412,141.245108 34.2516181,136.717225 29.0065632,136.717225 C23.1058764,136.717225 18.5164533,141.245108 18.5164533,147.070598 L18.5164533,220.197587 L67.0332115,220.197587 L67.0332115,216.31698 C67.0332115,213.727874 65.0693654,211.786044 63.0994203,211.786044" id="Fill-9" fill="#333333"></path>
                                        <path d="M95.8810137,130.245986 C95.8810137,156.130943 74.2451621,177.488018 48.0229368,177.488018 C21.7946126,177.488018 0.158760989,156.130943 0.158760989,130.245986 L0.158760989,90.771273 C0.158760989,64.2359858 21.7946126,43.5292411 48.0229368,43.5292411 C74.2451621,43.5292411 95.8810137,64.2359858 95.8810137,90.771273 L95.8810137,130.245986 Z" id="Fill-10" fill="#000000"></path>
                                        <path d="M53.2661621,108.242856 C53.2661621,109.537409 51.9548984,110.831962 50.6436346,110.831962 C49.9880027,110.831962 48.676739,109.537409 48.676739,108.242856 C48.676739,106.948303 49.9880027,106.301026 50.6436346,106.301026 C51.9548984,106.301026 53.2661621,106.948303 53.2661621,108.242856" id="Fill-11" fill="#333333"></path>
                                        <path d="M88.0131264,108.242856 C88.0131264,109.537409 87.3574945,110.831962 86.0462308,110.831962 C84.7380165,110.831962 84.0823846,109.537409 84.0823846,108.242856 C84.0823846,106.948303 84.7380165,106.301026 86.0462308,106.301026 C87.3574945,106.301026 88.0131264,106.948303 88.0131264,108.242856" id="Fill-12" fill="#333333"></path>
                                        <path d="M60.4787225,158.72066 C60.4787225,160.015213 59.1644093,160.66249 57.8561951,160.66249 C57.2005632,160.66249 55.8892995,160.015213 55.8892995,158.72066 C55.8892995,157.426107 57.2005632,156.77883 57.8561951,156.77883 C59.1644093,156.77883 60.4787225,157.426107 60.4787225,158.72066" id="Fill-13" fill="#333333"></path>
                                        <polygon id="Fill-14" fill="#000000" points="38.8407363 176.839825 18.5161484 197.549623 18.5161484 163.25007 40.8106813 170.367059"></polygon>
                                        <polygon id="Fill-16" fill="#333333" points="13.9273352 62.2969039 47.3645604 62.2969039 47.3645604 38.3537762 13.9273352 38.3537762"></polygon>
                                        <polygon id="Fill-17" fill="#333333" points="29.007478 55.177472 41.4644835 68.1199507 25.0736868 68.1199507"></polygon>
                                        <polygon id="Fill-18" fill="#333333" points="0 73 38.6822802 73 0 117.005649"></polygon>
                                        <path d="M0.128401069,50 L41.2753906,50 C41.2753906,50 33.5474228,67.9611901 26.6572266,75.3300781 C19.7670303,82.6989661 0.128401069,94.0056491 0.128401069,94.0056491 L0.128401069,50 Z" id="Fill-18-Copy" fill="#333333"></path>
                                        <path d="M110.961462,31.2334284 L109.650198,31.2334284 C109.650198,13.7600135 95.8819286,0.170258151 78.8355,0.170258151 C61.1334396,0.170258151 47.3651703,14.4072901 47.3651703,31.2334284 L47.3651703,57.1183858 C47.3651703,73.9445241 61.1334396,87.5342794 78.8355,87.5342794 C95.8819286,87.5342794 109.650198,73.9445241 109.650198,57.1183858 L109.650198,42.2340773 L110.961462,42.2340773 C114.239621,42.2340773 116.865198,39.6449709 116.865198,36.4085879 C116.865198,33.8225347 114.239621,31.2334284 110.961462,31.2334284" id="Fill-25" fill="#333333"></path>
                                        <path d="M88.6711978,44.1752964 C88.6711978,45.4698496 87.3568846,46.7644028 86.0486703,46.7644028 C84.0817747,46.7644028 82.7674615,45.4698496 82.7674615,44.1752964 C82.7674615,42.8807433 84.0817747,41.5861901 86.0486703,41.5861901 C87.3568846,41.5861901 88.6711978,42.8807433 88.6711978,44.1752964" id="Fill-26" fill="#FFFFFF"></path>
                                        <path d="M107.682692,44.1752964 C107.682692,45.4698496 106.371429,46.7644028 105.063214,46.7644028 C103.748901,46.7644028 102.437637,45.4698496 102.437637,44.1752964 C102.437637,42.8807433 103.748901,41.5861901 105.063214,41.5861901 C106.371429,41.5861901 107.682692,42.8807433 107.682692,44.1752964" id="Fill-27" fill="#FFFFFF"></path>
                                        <path d="M47.3639505,54.5305007 C44.0888407,54.5305007 41.4632637,51.9413943 41.4632637,48.7050113 L41.4632637,39.6461922 C41.4632637,36.4098092 44.0888407,33.8207028 47.3639505,33.8207028 C50.6421099,33.8207028 53.2676868,36.4098092 53.2676868,39.6461922 L53.2676868,48.7050113 C53.2676868,51.9413943 50.6421099,54.5305007 47.3639505,54.5305007" id="Fill-28" fill="#737373"></path>
                                        <path d="M49.9873929,59.7065762 C47.3648654,59.7065762 44.7423379,60.3538528 44.7423379,57.1174699 L44.7423379,42.8804379 C44.7423379,40.2943847 47.3648654,37.7052784 49.9873929,37.7052784 C52.6099203,37.7052784 55.2324478,40.2943847 55.2324478,42.8804379 L55.2324478,50.6477571 C55.2324478,53.2368635 52.6099203,55.8259699 49.9873929,55.8259699 L49.9873929,59.7065762 Z" id="Fill-29" fill="#333333"></path>
                                        <path d="M101.128203,56.4714145 C91.9463077,56.4714145 85.3930385,63.5914571 85.3930385,72.0029996 L116.863368,72.0029996 C116.863368,63.5914571 109.651418,56.4714145 101.128203,56.4714145" id="Fill-30" fill="#333333"></path>
                                        <path d="M93.9156429,97.2422071 C102.438857,97.2422071 109.650808,90.1221645 109.650808,81.710622 L78.180478,81.710622 C78.180478,90.1221645 85.3924286,97.2422071 93.9156429,97.2422071" id="Fill-31" fill="#333333"></path>
                                        <polygon id="Fill-32" fill="#333333" points="77.5236264 87.5345847 95.2256868 87.5345847 95.2256868 78.4757656 77.5236264 78.4757656"></polygon>
                                        <path d="M97.1944121,58.4123284 C96.5387802,58.4123284 95.224467,57.1177752 95.224467,56.4704986 L95.224467,53.2371688 C95.224467,52.5898922 96.5387802,51.9395624 97.1944121,51.9395624 C98.5056758,51.9395624 99.1613077,52.5898922 99.1613077,53.2371688 L99.1613077,56.4704986 C99.1613077,57.1177752 98.5056758,58.4123284 97.1944121,58.4123284" id="Fill-33" fill="#737373"></path>
                                        <path d="M103.748901,58.4123284 C103.093269,58.4123284 102.437637,57.1177752 102.437637,56.4704986 L102.437637,53.2371688 C102.437637,52.5898922 103.093269,51.9395624 103.748901,51.9395624 C105.063214,51.9395624 105.718846,52.5898922 105.718846,53.2371688 L105.718846,56.4704986 C105.718846,57.1177752 105.063214,58.4123284 103.748901,58.4123284" id="Fill-34" fill="#737373"></path>
                                        <polygon id="Fill-36" fill="#333333" points="49.9873929 60.3535475 41.4641786 68.1208667 51.9573379 68.1208667"></polygon>
                                        <polygon id="Fill-37" fill="#333333" points="51.9558132 65.5311496 44.0882308 73.9426922 54.5752912 73.9426922"></polygon>
                                        <polygon id="Fill-38" fill="#333333" points="59.8237005 73.9439135 51.9561181 81.7081794 51.9561181 71.3548071"></polygon>
                                        <path d="M109.651113,72.6496656 L89.3265247,72.6496656 C84.0814698,72.6496656 79.4889973,76.5333252 79.4889973,81.7084847 L98.5053709,81.7084847 L109.651113,81.7084847 L109.651113,72.6496656 Z" id="Fill-39" fill="#EC008C"></path>
                                        <polygon id="Fill-40" fill="#FFFFFF" points="90.6368736 75.8863539 88.0143462 81.7087901 93.915033 81.7087901"></polygon>
                                        <polygon id="Fill-41" fill="#FFFFFF" points="107.02767 75.8863539 103.749511 81.7087901 109.650198 81.7087901"></polygon>
                                        <polygon id="Fill-42" fill="#333333" points="30.9731538 61.0020454 44.0888407 73.9445241 23.1055714 73.9445241"></polygon>
                                        <polygon id="Fill-43" fill="#333333" points="12.6166813 94.6527954 25.7293187 107.595274 4.7490989 107.595274"></polygon>
                                    </g>
                                </g>
                            </g>
                        </g>
                    </g>
                </g>
            </g>
        </g>
    </g>
</svg>