<?xml version="1.0" encoding="UTF-8"?>
<svg width="700px" height="584px" viewBox="0 0 700 584" version="1.1" xmlns="http://www.w3.org/2000/svg" xmlns:xlink="http://www.w3.org/1999/xlink">
    <!-- Generator: Sketch 42 (36781) - http://www.bohemiancoding.com/sketch -->
    <title>Group 10</title>
    <desc>Created with Sketch.</desc>
    <defs>
        <rect id="path-1" x="0" y="0" width="701.891871" height="584"></rect>
        <polygon id="path-3" points="534.677774 0.494611207 0.195500649 0.494611207 0.195500649 75.1797858 534.677774 75.1797858 534.677774 0.494611207"></polygon>
        <polygon id="path-5" points="0 181.780639 543.95077 181.780639 543.95077 0.638365632 0 0.638365632"></polygon>
    </defs>
    <g id="Homepage" stroke="none" stroke-width="1" fill="none" fill-rule="evenodd">
        <g id="3.4b_Desktop_Accreditations_New-content" transform="translate(0.000000, -152.000000)">
            <g id="Group-10" transform="translate(-2.000000, 152.000000)">
                <mask id="mask-2" fill="white">
                    <use xlink:href="#path-1"></use>
                </mask>
                <use id="Rectangle-1682" fill="#32145A" xlink:href="#path-1"></use>
                <g id="Page-1" mask="url(#mask-2)">
                    <g transform="translate(79.000000, 201.000000)">
                        <path d="M96.5413152,60.7442461 L147.365437,60.7442461 C152.404561,60.7442461 156.324346,64.9288805 156.324346,69.9839747 L156.324346,81.5151224 C156.324346,86.5702166 152.404561,90.4879845 147.365437,90.4879845 L96.5413152,90.4879845 C91.4993897,90.4879845 87.5768025,86.5702166 87.5768025,81.5151224 L87.5768025,69.9839747 C87.5768025,64.9288805 91.4993897,60.7442461 96.5413152,60.7442461 L96.5413152,60.7442461 Z" id="Fill-1" stroke="none" fill="#A80000" fill-rule="evenodd"></path>
                        <g id="Group-5" stroke="none" stroke-width="1" fill="none" fill-rule="evenodd" transform="translate(0.000000, 0.143754)">
                            <mask id="mask-4" fill="white">
                                <use xlink:href="#path-3"></use>
                            </mask>
                            <g id="Clip-4"></g>
                            <path d="M326.695196,0.219640909 C170.646272,0.219640909 2.24119821,13.3980955 2.24119821,13.3980955 C2.24119821,13.3980955 -1.96157378,50.2061114 1.68082861,75.1797858 L528.775681,75.1797858 L534.677774,0.219640909 L326.695196,0.219640909 Z" id="Fill-3" fill="#585858" mask="url(#mask-4)"></path>
                        </g>
                        <mask id="mask-6" fill="white">
                            <use xlink:href="#path-5"></use>
                        </mask>
                        <g id="Clip-7" stroke="none" fill="none"></g>
                        <polygon id="Fill-6" stroke="none" fill="#616161" fill-rule="evenodd" mask="url(#mask-6)" points="532.998347 22.2601409 544.20854 22.2601409 544.20854 19.4419748 532.998347 19.4419748"></polygon>
                        <path d="M475.730535,174.1864 C467.862946,181.197584 461.977664,181.757864 440.661204,181.757864 C419.032339,181.757864 369.080993,165.754257 357.00923,161.537487 C344.936067,157.065028 326.694636,155.92351 326.694636,118.022879 C326.694636,105.372568 328.089956,90.2086829 330.055453,75.3228416 L469.846654,75.3228416 C471.534767,76.4601679 473.215876,77.8601691 474.611196,78.9779346 C477.69463,81.5152621 480.779465,83.7591763 484.1683,86.0114736 C497.056801,94.7048943 511.094059,102.019272 525.966268,107.633249 C540.002126,79.8204503 543.931718,54.5435821 544.2077,35.4675176 C544.492087,68.5924964 534.118245,122.51909 475.730535,174.1864" id="Fill-8" stroke="none" fill="#A8A8A8" fill-rule="evenodd" mask="url(#mask-6)"></path>
                        <path d="M426.064697,22.2606998 L339.886857,22.2606998 C336.527441,36.5848639 332.883638,55.9641222 330.055173,75.3238196 L469.846374,75.3238196 C452.430087,60.7439667 437.548071,42.7563263 426.064697,22.2606998" id="Fill-9" stroke="none" fill="#4A4A4A" fill-rule="evenodd" mask="url(#mask-6)"></path>
                        <polygon id="Fill-10" stroke="none" fill="#000000" fill-rule="evenodd" mask="url(#mask-6)" points="78.8650165 75.3232608 81.9470493 75.3232608 81.9470493 8.49066785 78.8650165 8.49066785"></polygon>
                        <polygon id="Fill-11" stroke="none" fill="#898989" fill-rule="evenodd" mask="url(#mask-6)" points="75.7815828 75.3232608 79.1438004 75.3232608 79.1438004 8.49066785 75.7815828 8.49066785"></polygon>
                        <path d="M544.20728,35.4672382 C543.931298,54.5433026 540.003107,79.8201708 525.965848,107.632969 C511.093639,102.018992 497.05638,94.7046149 484.16788,86.0111942 C480.779045,83.7588968 477.695611,81.5149827 474.610776,78.9776551 C473.215456,77.8612869 471.535748,76.4598885 469.846234,75.3239594 L485.287218,75.3239594 L528.774701,75.3239594 L532.998487,22.2608395 L543.362522,22.2608395 C543.931298,26.189785 544.20728,30.6859965 544.20728,35.4672382" id="Fill-12" stroke="none" fill="#818181" fill-rule="evenodd" mask="url(#mask-6)"></path>
                        <path d="M474.610496,78.9779346 L467.303276,154.526304 L477.419349,154.526304 L484.1676,86.0114736 C480.780165,83.7591763 477.695331,81.5152621 474.610496,78.9779346" id="Fill-13" stroke="none" fill="#B2B2B2" fill-rule="evenodd" mask="url(#mask-6)"></path>
                        <path d="M485.287778,75.3235402 L475.170305,75.3235402 L474.609936,78.9786332 C477.69477,81.5145635 480.779605,83.7584777 484.16844,86.0121722 L485.287778,75.3235402 Z" id="Fill-14" stroke="none" fill="#8D8D8D" fill-rule="evenodd" mask="url(#mask-6)"></path>
                        <path d="M544.358257,19.4395995 L543.362522,19.4395995 C543.697737,20.3016761 543.697737,21.4180443 543.697737,22.26056 L544.358257,22.26056 L544.358257,19.4395995 Z" id="Fill-15" stroke="none" fill="#929292" fill-rule="evenodd" mask="url(#mask-6)"></path>
                        <path d="M543.411847,19.4395995 L543.08654,19.4395995 C543.08654,20.3016761 543.411847,21.4180443 543.411847,22.26056 L543.747061,22.26056 C543.747061,21.4180443 543.747061,20.3016761 543.411847,19.4395995" id="Fill-16" stroke="none" fill="#757575" fill-rule="evenodd" mask="url(#mask-6)"></path>
                        <path d="M343.531921,0.363395333 L540.003107,0.363395333 C540.003107,0.363395333 543.931298,11.5913492 543.931298,19.4394598 L339.886717,19.4394598 L343.531921,0.363395333 Z" id="Fill-17" stroke="none" fill="#585858" fill-rule="evenodd" mask="url(#mask-6)"></path>
                        <polygon id="Fill-18" stroke="none" fill="#717171" fill-rule="evenodd" mask="url(#mask-6)" points="339.887418 19.4395995 343.532622 0.363535054 404.719378 0.363535054 404.719378 19.4395995"></polygon>
                        <polygon id="Fill-19" stroke="none" fill="#898989" fill-rule="evenodd" mask="url(#mask-6)" points="339.887418 19.4395995 343.532622 0.363535054 364.592712 0.363535054 364.592712 19.4395995"></polygon>
                        <path d="M532.998487,22.2606998 L426.064557,22.2606998 C437.549332,42.7563263 452.429947,60.7439667 469.846234,75.3238196 L475.171146,75.3238196 L485.287218,75.3238196 L528.774701,75.3238196 L532.998487,22.2606998 Z" id="Fill-20" stroke="none" fill="#515151" fill-rule="evenodd" mask="url(#mask-6)"></path>
                        <path d="M412.862809,32.3715868 L372.441949,32.3715868 C364.032203,32.3715868 357.283952,39.3771817 357.283952,47.8121191 C357.283952,56.2470566 364.032203,62.978799 372.441949,62.978799 L412.862809,62.978799 C421.272556,62.978799 428.305195,56.2470566 428.305195,47.8121191 C428.305195,39.3771817 421.272556,32.3715868 412.862809,32.3715868" id="Fill-21" stroke="none" fill="#231F1F" fill-rule="evenodd" mask="url(#mask-6)"></path>
                        <path d="M412.30286,37.4174594 C406.675348,37.4174594 402.195193,42.1987011 402.195193,47.812678 C402.195193,53.4266549 406.675348,57.9228664 412.30286,57.9228664 C418.196547,57.9228664 422.694914,53.4266549 422.694914,47.812678 C422.694914,42.1987011 418.196547,37.4174594 412.30286,37.4174594" id="Fill-22" stroke="none" fill="#3D3D3D" fill-rule="evenodd" mask="url(#mask-6)"></path>
                        <path d="M373.001198,37.4174594 C367.401705,37.4174594 362.913144,42.1987011 362.913144,47.812678 C362.913144,53.4266549 367.401705,57.9228664 373.001198,57.9228664 C378.62871,57.9228664 383.393252,53.4266549 383.393252,47.812678 C383.393252,42.1987011 378.62871,37.4174594 373.001198,37.4174594" id="Fill-23" stroke="none" fill="#3D3D3D" fill-rule="evenodd" mask="url(#mask-6)"></path>
                        <path d="M412.30286,50.90805 C410.623152,50.90805 409.227832,49.4884878 409.227832,47.8118397 C409.227832,46.1365887 410.623152,44.7170266 412.30286,44.7170266 C413.992374,44.7170266 415.387695,46.1365887 415.387695,47.8118397 C415.387695,49.4884878 413.992374,50.90805 412.30286,50.90805" id="Fill-24" stroke="none" fill="#231F1F" fill-rule="evenodd" mask="url(#mask-6)"></path>
                        <path d="M373.001198,50.90805 C371.32149,50.90805 369.916364,49.4884878 369.916364,47.8118397 C369.916364,46.1365887 371.32149,44.7170266 373.001198,44.7170266 C374.680906,44.7170266 376.086033,46.1365887 376.086033,47.8118397 C376.086033,49.4884878 374.680906,50.90805 373.001198,50.90805" id="Fill-25" stroke="none" fill="#231F1F" fill-rule="evenodd" mask="url(#mask-6)"></path>
                        <path d="M340.447507,19.4395995 L338.483411,19.4395995 L338.483411,22.26056 L339.887137,22.26056 C339.887137,21.4180443 340.171525,20.3016761 340.447507,19.4395995" id="Fill-26" stroke="none" fill="#2E2E2E" fill-rule="evenodd" mask="url(#mask-6)"></path>
                        <path d="M424.384849,19.4395995 L340.447087,19.4395995 C340.172506,20.3016761 339.888118,21.4180443 339.888118,22.26056 L426.064557,22.26056 C425.504187,21.4180443 424.945219,20.3016761 424.384849,19.4395995" id="Fill-27" stroke="none" fill="#363636" fill-rule="evenodd" mask="url(#mask-6)"></path>
                        <path d="M532.998487,19.4395995 L424.384849,19.4395995 C424.945219,20.3016761 425.504187,21.4180443 426.064557,22.26056 L532.998487,22.26056 L532.998487,19.4395995 Z" id="Fill-28" stroke="none" fill="#484848" fill-rule="evenodd" mask="url(#mask-6)"></path>
                    </g>
                </g>
            </g>
        </g>
    </g>
</svg>