<svg width="195" height="113" viewBox="0 0 195 113" xmlns="http://www.w3.org/2000/svg" xmlns:xlink="http://www.w3.org/1999/xlink"><defs><path id="a" d="M.368 53.544h192.85V.334H.37z"/><path id="c" d="M.755 22.295h40.227V.335H.756v21.96z"/></defs><g fill="none" fill-rule="evenodd"><g transform="translate(0 .38)"><path d="M192.95.336H1.092c-.36 0-.36.725-.36.725V53.916h193.291V1.062s-.715-.724-1.073-.724" fill="#231F1F"/><path d="M10.04 7.94c0 .362-.358.724-.358.724H3.238c-.357 0-.715-.362-.715-.725V4.68c0-.362.358-.725.715-.725h6.444s.36.363.36.725V7.94z" fill="#515050"/><path fill="#FFF" d="M5.03 6.853V5.767h.714-.715v.362h.357v.36H5.03v.363h.714M5.744 6.853h.36c.357 0 .357 0 .357-.362h-.356c0-.36-.36-.36-.36-.36v-.363h.717-.356s-.36 0-.36.362h.36c0 .36.357.36.357.36v.363h-.716z"/><path d="M7.535 6.853h-.717c0-.362-.357-.362-.357-.362 0-.36.358-.36.358-.723h.717-.717v1.087h.717z" fill="#FFF"/><path d="M10.04 16.627c0 .362-.358.724-.358.724H3.238c-.357 0-.715-.36-.715-.723v-6.153c0-.362.358-.725.715-.725h6.444s.36.362.36.724v6.153z" fill="#515050"/><path d="M6.46 14.093l-.356-.362.357.363zM6.46 12.283v.362h-.716c0-.362.36-.362.36-.362v.362h.357v-.362z" fill="#FFF"/><path d="M18.63 16.627c0 .362-.357.724-.357.724H11.83c-.36 0-.716-.36-.716-.723v-6.153c0-.362.357-.725.715-.725h6.443s.357.362.357.724v6.153z" fill="#515050"/><path fill="#FFF" d="M14.335 15.54h.358v-1.448l-.358.362v-.362h.717v1.45M14.693 13.006v-.362l.36.362h-.36zm0-.362v-1.086 1.086z"/><path d="M22.927 25.316s-.358.363-.717.363h-6.444c-.357 0-.357-.364-.357-.364V19.16c0-.36 0-.723.356-.723h6.444c.36 0 .717.362.717.724v6.156z" fill="#515050"/><path d="M19.347 22.782l.357.724h-.357l-.358-.724c-.36 0-.36 0-.717-.362V20.97c.357 0 .716-.36.716-.36.357 0 .714.36.714.36.36.364.36.364.36.726s0 .724-.36.724c0 .362-.357.362-.357.362zm-.358-1.81s-.36 0-.36.362c-.357 0-.357.362-.357.362 0 .362 0 .724.357.724 0 .362.36.362.36.362.357 0 .714 0 .714-.362 0 0 .36-.362.36-.724 0 0-.36-.362-.36-.725h-.715z" fill="#FFF"/><path d="M31.517 25.316s-.36.363-.716.363h-6.443L24 25.315V19.16c0-.36.357-.723.357-.723H30.8c.358 0 .717.362.717.724v6.156z" fill="#515050"/><path d="M28.295 22.782l-.357-1.448c-.36 0-.36 0-.36-.363v.364l-.357 1.448-.714-1.81.715 1.448v.362-.362l.358-1.45h.36l.357 1.45v.362-.362l.358-1.45h.36l-.718 1.812z" fill="#FFF"/><path d="M40.107 25.316s-.358.363-.715.363h-6.444l-.357-.364V19.16c0-.36.358-.723.358-.723h6.444c.357 0 .715.362.715.724v6.156z" fill="#515050"/><path fill="#FFF" d="M35.812 22.782v-1.81h1.074-1.074v.724h1.074v.362h-1.074v.724h1.074"/><path d="M48.698 25.316s-.358.363-.715.363h-6.445l-.358-.364V19.16c0-.36.358-.723.358-.723h6.445c.358 0 .715.362.715.724v6.156z" fill="#515050"/><path d="M45.477 22.782l-.36-.362v-.362h-.713v.724-1.81h1.075v.724c-.36 0-.36 0-.36.362l.36.724zm-1.074-1.81v.724h.716c.36 0 .36-.362.36-.362s0-.363-.36-.363h-.714z" fill="#FFF"/><path d="M57.29 25.316s-.36.363-.718.363H50.13l-.36-.364V19.16c0-.36.36-.723.36-.723h6.442c.36 0 .717.362.717.724v6.156z" fill="#515050"/><path fill="#FFF" d="M53.71 20.972v1.81h-.358v-1.81h-.36 1.075"/><path d="M65.88 25.316l-.36.363h-6.8l-.358-.364V19.16c0-.36.358-.723.358-.723h6.8s.36.362.36.724v6.156z" fill="#515050"/><path d="M62.3 22.058v.724h-.357v-.724l-.36-1.086.36.724v.362c.357 0 .357-.362.357-.362l.358-.724-.358 1.086z" fill="#FFF"/><path d="M74.47 25.316l-.358.363h-6.444c-.357 0-.715-.364-.715-.364V19.16c0-.36.358-.723.715-.723h6.444s.357.362.357.724v6.156z" fill="#515050"/><path d="M71.25 22.058c0 .724 0 .724-.718.724-.357 0-.357 0-.357-.724v-1.086 1.086c0 .362 0 .724.716.724.36 0 .36-.362.36-.724v-1.086 1.086z" fill="#FFF"/><path d="M83.06 25.316l-.357.363H76.26c-.36 0-.717-.364-.717-.364V19.16c0-.36.357-.723.716-.723h6.443s.357.362.357.724v6.156z" fill="#515050"/><mask id="b" fill="#fff"><use xlink:href="#a"/></mask><path fill="#FFF" mask="url(#b)" d="M79.124 22.783h.357v-1.81h-.356"/><path d="M91.652 25.316l-.358.363H84.85c-.36 0-.716-.364-.716-.364V19.16c0-.36.357-.723.716-.723h6.444s.358.362.358.724v6.156z" fill="#515050" mask="url(#b)"/><path d="M88.072 22.782c-.358 0-.715 0-.715-.362-.36 0-.36-.362-.36-.724 0 0 0-.362.36-.725 0 0 .357-.36.715-.36 0 0 .357.36.716.36v.726c0 .362 0 .724-.36.724 0 .362-.356.362-.356.362zm0-1.81c-.358 0-.715 0-.715.362l-.36.362c0 .362.36.724.36.724 0 .362.357.362.715.362 0 0 .357 0 .357-.362.358 0 .358-.362.358-.724 0 0 0-.362-.36-.725h-.356z" fill="#FFF" mask="url(#b)"/><path d="M100.243 25.316l-.36.363H93.44c-.358 0-.715-.364-.715-.364V19.16c0-.36.357-.723.715-.723h6.443s.36.362.36.724v6.156z" fill="#515050" mask="url(#b)"/><path d="M96.305 22.058v.724h-.36v-1.81h1.075v.724c-.357.362-.357.362-.715.362m0-1.086v1.086c.358 0 .358-.362.358-.362.357 0 .357 0 .357-.362s-.357-.362-.715-.362" fill="#FFF" mask="url(#b)"/><path d="M27.22 16.627c0 .362-.356.724-.356.724H20.42c-.357 0-.717-.36-.717-.723v-6.153c0-.362.36-.725.717-.725h6.444s.357.362.357.724v6.153z" fill="#515050" mask="url(#b)"/><path d="M22.927 15.54l.357-.36.358-.363v-.363c0-.362 0-.362-.358-.362l-.357.362v-.362h.715v.725l-.358.362-.357.36h.715-.715zM23.64 12.644h-.714v-.362s0-.36.358-.36h.357v.36c0 .362 0 .362.36.362V11.558h-.716s-.358 0-.358.364l-.357.36c0 .362.356.362.356.725H24 22.927c-.357-.363-.357-.363-.357-.725 0-.36 0-.36.356-.724H24c0 .364.358.364.358.724 0 0 0 .362-.357.362h-.36zm-.356-.722c0 .36-.358.36-.358.36 0 .362.358.362.358.362h.357v-.722h-.356z" fill="#FFF" mask="url(#b)"/><path d="M35.812 16.627c0 .362-.357.724-.357.724H29.01c-.358 0-.716-.36-.716-.723v-6.153c0-.362.358-.725.717-.725h6.445s.357.362.357.724v6.153z" fill="#515050" mask="url(#b)"/><path d="M31.517 15.54h.715v-.723h-.357.357v-.363c0-.362-.357-.362-.357-.362l-.358.362v-.362h.715v.362c0 .363 0 .363-.357.363h.357v.722h-.715zM32.592 11.922h-.36v.36h.36-.36v.363h-.357l.357-.362h-.357v.362h-.358l.358-.362h-.358.358v-.36h-.358.358v-.365.364h.357v-.364.364h.36zm-.717.36h.357v-.36h-.357v.36z" fill="#FFF" mask="url(#b)"/><path d="M44.403 16.627c0 .362 0 .724-.357.724H37.6c-.357 0-.715-.36-.715-.723v-6.153c0-.362.358-.725.715-.725h6.446c.357 0 .357.362.357.724v6.153z" fill="#515050" mask="url(#b)"/><path d="M40.824 15.18v.36-.36h-.717l.717-1.088v1.087h.357-.356zm0-.725l-.717.724h.717v-.725zM40.824 13.006h-.718v-.362l.36.362v-1.084h-.36s0-.364.36-.364v-.362h.358v1.81zm-.358-1.448v.724-.724zm.358.724v.724-.724z" fill="#FFF" mask="url(#b)"/><path d="M52.993 16.627c0 .362 0 .724-.358.724h-6.443c-.358 0-.715-.36-.715-.723v-6.153c0-.362.357-.725.715-.725h6.443c.358 0 .358.362.358.724v6.153z" fill="#515050" mask="url(#b)"/><path d="M48.698 15.54h.718v-.36c0-.363 0-.363-.36-.363h-.358v-.725h.717-.36v.725h.36v.722h-.717zM48.698 12.283l-.358-.36c0-.365 0-.365.358-.365h.358v.364c0 .36 0 .36-.358.36zm0-.725v.724c.358 0 .358-.36.358-.36v-.364h-.358zm0 1.45l.717-1.45h.357l-1.074 1.45zm1.074 0h-.357v-.725h.357v.724zm0-.725h-.357v.362c0 .362 0 .362.357.362v-.724z" fill="#FFF" mask="url(#b)"/><path d="M61.584 16.627c0 .362 0 .724-.358.724h-6.443c-.358 0-.717-.36-.717-.723v-6.153c0-.362.36-.725.717-.725h6.443c.358 0 .358.362.358.724v6.153z" fill="#515050" mask="url(#b)"/><path d="M58.004 14.093c-.358 0-.358 0-.358.362v.362h.358c.36 0 .36.362.36.362s0 .36-.36.36h-.358c-.357-.36-.357-.36-.357-.723 0 0 0-.362.356-.362 0-.362 0-.362.358-.362zm0 .724h-.358v.722h.358v-.723zM58.004 12.283l-.358-.725v.725h-.357l.356-.725h.358l.36.725" fill="#FFF" mask="url(#b)"/><path d="M70.175 16.627c0 .362 0 .724-.358.724h-6.443c-.36 0-.717-.36-.717-.723v-6.153c0-.362.357-.725.717-.725h6.443c.358 0 .358.362.358.724v6.153z" fill="#515050" mask="url(#b)"/><path fill="#FFF" mask="url(#b)" d="M66.238 15.54l.357-1.448h-.715 1.074M66.954 13.006l-.36-.362c0 .362 0 .362-.357.362h-.357v-.362c0-.362 0-.362.357-.362l-.357-.36c0-.364 0-.364.357-.364h.358v.364s0 .36-.358.36c.358 0 .358 0 .358.362.36 0 .36-.362.36-.362v.724zm-.36-.362l-.357-.362c-.357 0-.357 0-.357.362l.357.362c.358 0 .358-.362.358-.362zm-.357-.362c0-.36.358-.36.358-.36v-.364h-.358v.724z"/><path d="M78.766 16.627c0 .362 0 .724-.36.724h-6.443c-.357 0-.715-.36-.715-.723v-6.153c0-.362.358-.725.715-.725h6.444c.36 0 .36.362.36.724v6.153z" fill="#515050" mask="url(#b)"/><path d="M74.83 14.817l-.36-.362s.36 0 .36-.363h.356l.358.363-.358.362.358.362s0 .36-.358.36h-.357c-.36 0-.36 0-.36-.36l.36-.363zm0 0v.722h.356v-.36c0-.363 0-.363-.357-.363zm0 0c.356 0 .356-.362.356-.362v-.363h-.357v.725zM75.186 11.922v.36-.36l-.357.36v-.724.364-.364h.356v.364-.364" fill="#FFF" mask="url(#b)"/><path d="M87.357 16.627c0 .362 0 .724-.36.724h-6.443c-.357 0-.715-.36-.715-.723v-6.153c0-.362.357-.725.714-.725h6.444c.36 0 .36.362.36.724v6.153z" fill="#515050" mask="url(#b)"/><path d="M83.418 15.54c.36 0 .36 0 .36-.36v-.363s0 .362-.36.362v-.363c-.358 0-.358 0-.358-.363l.358-.362h.36v.362c.357 0 .357 0 .357.363 0 .362 0 .362-.358.724h-.36zm.36-1.448c-.36 0-.36 0-.36.362v.363h.36v-.725zM83.777 13.37c-.36-.364-.36-.726-.36-1.088 0-.36 0-.724.36-.724 0 0-.36.364-.36.724 0 .362.36.724.36 1.087" fill="#FFF" mask="url(#b)"/><path d="M95.946 16.627c0 .362 0 .724-.357.724h-6.445c-.357 0-.717-.36-.717-.723v-6.153c0-.362.36-.725.717-.725h6.444c.356 0 .356.362.356.724v6.153z" fill="#515050" mask="url(#b)"/><path d="M92.368 15.54h-.36c-.357-.36-.357-.36-.357-.723 0 0 0-.363.36-.363 0-.362 0-.362.358-.362 0 0 .358.362.358.725 0 .362 0 .362-.358.724zm0-1.448c-.36 0-.36 0-.36.362v1.087h.36v-1.448zM92.01 13.37c0-.364.358-.726.358-1.088 0-.36-.36-.724-.36-.724.36 0 .36.364.36.724 0 .362 0 .724-.36 1.087" fill="#FFF" mask="url(#b)"/><path d="M104.537 16.627c0 .362 0 .724-.357.724h-6.444c-.36 0-.716-.36-.716-.723v-6.153c0-.362.357-.725.716-.725h6.444c.357 0 .357.362.357.724v6.153z" fill="#515050" mask="url(#b)"/><path fill="#FFF" mask="url(#b)" d="M100.6 15.18h.357v-.363h-.358M100.242 13.368h1.072v-.362h-1.072"/><path d="M108.832 25.316s0 .363-.358.363h-6.443c-.357 0-.716-.364-.716-.364V19.16c0-.36.36-.723.717-.723h6.444c.358 0 .358.362.358.724v6.156z" fill="#515050" mask="url(#b)"/><path fill="#FFF" mask="url(#b)" d="M104.895 24.592v-1.81h.36-.36v1.448h.36v.362M105.254 21.696h-.36v-1.45c.36 0 .36-.362.36-.362v.724c0 .362-.36.362-.36.362s.36 0 .36.362v.362z"/><path d="M117.423 25.316s0 .363-.357.363h-6.444c-.358 0-.717-.364-.717-.364V19.16c0-.36.36-.723.717-.723h6.444c.357 0 .357.362.357.724v6.156z" fill="#515050" mask="url(#b)"/><path fill="#FFF" mask="url(#b)" d="M113.486 24.592V22.78h.357v1.812M113.843 20.972v.724h-.357v-.362c0-.362 0-.362.357-.362-.357 0-.357 0-.357-.362v-.725.363h.357v.724z"/><path d="M24.716 33.642c0 .362-.358.724-.358.724h-6.443c-.358 0-.717-.362-.717-.724V27.49c0-.363.36-.363.717-.363h6.443s.358 0 .358.362v6.152z" fill="#515050" mask="url(#b)"/><path d="M21.495 31.47v-.725H20.42v.725h-.357l.715-2.17h.36l.714 2.17h-.357zm-.358-1.81h-.36l-.356 1.085h1.075l-.358-1.084z" fill="#FFF" mask="url(#b)"/><path d="M33.307 33.642c0 .362 0 .724-.358.724h-6.445c-.36 0-.716-.362-.716-.724V27.49c0-.363.356-.363.715-.363h6.444c.357 0 .357 0 .357.362v6.152z" fill="#515050" mask="url(#b)"/><path d="M29.012 31.47v-.362h.714c.357 0 .357 0 .357-.363-.357 0-.357-.362-.357-.362-.358 0-.358-.362-.715-.362v-.36l.357-.36h.714v.36c0-.36-.357-.36-.357-.36s-.358 0-.358.36v.36l.357.363s.357 0 .357.362v.363c-.357.362-.357.362-.715.362h-.358z" fill="#FFF" mask="url(#b)"/><path d="M41.898 33.642c0 .362 0 .724-.36.724h-6.443c-.358 0-.715-.362-.715-.724V27.49c0-.363.357-.363.715-.363h6.443c.36 0 .36 0 .36.362v6.152z" fill="#515050" mask="url(#b)"/><path d="M37.6 31.47V29.3h.36c.358 0 .716 0 .716.36.36 0 .36.36.36.723 0 .362 0 .362-.36.725 0 0-.358.362-.715.362h-.36zm0-2.17v1.808h1.076c.36-.363.36-.363.36-.725 0-.722-.36-1.084-1.075-1.084h-.36z" fill="#FFF" mask="url(#b)"/><path d="M50.846 33.642c0 .362-.357.724-.717.724h-6.444c-.358 0-.358-.362-.358-.724V27.49c0-.363 0-.363.358-.363h6.443c.36 0 .716 0 .716.362v6.152z" fill="#515050" mask="url(#b)"/><path fill="#FFF" mask="url(#b)" d="M46.55 29.3v1.084h.716-.715v1.086-2.17h1.074"/><path d="M59.437 33.642c0 .362-.36.724-.717.724h-6.443c-.358 0-.358-.362-.358-.724V27.49c0-.363 0-.363.357-.363h6.443c.358 0 .717 0 .717.362v6.152z" fill="#515050" mask="url(#b)"/><path d="M56.215 31.108c0 .362-.358.362-.358.362-.357 0-.716 0-.716-.362-.357 0-.357-.363-.357-.725s0-.722.358-.722c0-.36.36-.36.717-.36h.358v.36c0-.36-.358-.36-.358-.36-.357 0-.716.36-.716.36 0 .36-.357.36-.357.723 0 .362.358.362.358.725h1.075v-.725h-.358.358v.725z" fill="#FFF" mask="url(#b)"/><path d="M68.027 33.642c0 .362-.358.724-.358.724h-6.802s-.36-.362-.36-.724V27.49c0-.363.36-.363.36-.363h6.8s.36 0 .36.362v6.152z" fill="#515050" mask="url(#b)"/><path fill="#FFF" mask="url(#b)" d="M64.806 31.47v-1.087h-1.074v1.087h-.358V29.3h.358v1.083h1.074V29.3"/><path d="M76.618 33.642c0 .362 0 .724-.358.724h-6.444c-.357 0-.716-.362-.716-.724V27.49c0-.363.36-.363.717-.363h6.443c.358 0 .358 0 .358.362v6.152z" fill="#515050" mask="url(#b)"/><path d="M73.038 30.746c0 .362 0 .724-.358.724h-.357v-.362h.715V29.3v1.446z" fill="#FFF" mask="url(#b)"/><path d="M85.21 33.642c0 .362 0 .724-.36.724h-6.444c-.358 0-.715-.362-.715-.724V27.49c0-.363.358-.363.716-.363h6.445c.36 0 .36 0 .36.362v6.152z" fill="#515050" mask="url(#b)"/><path fill="#FFF" mask="url(#b)" d="M81.986 31.47l-.715-1.087v1.087h-.356V29.3h.357v1.083l.716-1.084h.36l-1.075 1.083 1.076 1.087"/><path d="M94.157 33.642c0 .362-.357.724-.717.724h-6.443c-.358 0-.358-.362-.358-.724V27.49c0-.363 0-.363.357-.363h6.443c.36 0 .717 0 .717.362v6.152z" fill="#515050" mask="url(#b)"/><path fill="#FFF" mask="url(#b)" d="M89.86 31.47V29.3v1.808h1.075v.362"/><path d="M29.37 41.97c0 .362-.358.724-.717.724H22.21c-.358 0-.358-.362-.358-.725v-6.156c0-.362 0-.362.357-.362h6.443c.36 0 .716 0 .716.362v6.155z" fill="#515050" mask="url(#b)"/><path fill="#FFF" mask="url(#b)" d="M25.075 39.797h1.072-1.432l1.075-1.81h-1.075v-.363h1.432"/><path d="M37.96 41.97c0 .362-.36.724-.716.724H30.8c-.357 0-.357-.362-.357-.725v-6.156c0-.362 0-.362.357-.362h6.444c.357 0 .716 0 .716.362v6.155z" fill="#515050" mask="url(#b)"/><path fill="#FFF" mask="url(#b)" d="M34.738 39.797l-.715-.724v-.362.363l-.36.724h-.357l.717-1.086-.717-1.086h.358l.36.724v.363-.362l.714-.724-.715 1.087"/><path d="M46.55 41.97c0 .362-.358.724-.715.724H39.39c-.356 0-.356-.362-.356-.725v-6.156c0-.362 0-.362.357-.362h6.445c.357 0 .716 0 .716.362v6.155z" fill="#515050" mask="url(#b)"/><path d="M43.33 39.797h-.358c-.36 0-.717 0-.717-.362-.358 0-.358-.362-.358-.724s0-.362.358-.724c.357-.362.357-.362.717-.362h.357v.362l-.358-.362c-.36 0-.36.362-.717.362v1.45c.357 0 .357.362.717.362 0 0 .357 0 .357-.362v.362z" fill="#FFF" mask="url(#b)"/><path d="M55.14 41.97c0 .362-.357.724-.714.724h-6.444s-.36-.362-.36-.725v-6.156c0-.362.36-.362.36-.362h6.444c.357 0 .715 0 .715.362v6.155z" fill="#515050" mask="url(#b)"/><path fill="#FFF" mask="url(#b)" d="M51.204 39.797l-.715-2.173h.356l.358 1.81h.357l.36-1.81h.358"/><path d="M63.732 41.97c0 .362-.358.724-.358.724H56.93c-.358 0-.716-.362-.716-.725v-6.156c0-.362.358-.362.717-.362h6.444s.358 0 .358.362v6.155z" fill="#515050" mask="url(#b)"/><path d="M59.437 39.797v-2.173h.715l.358.362v.362c0 .363-.358.363-.358.363h.358v.725l-.358.362h-.715zm0-1.81v.724h.358c.357 0 .357 0 .357-.362h.358c0-.362-.358-.362-.715-.362h-.358zm0 .724v1.087h.358c.357 0 .357-.362.357-.362.358 0 .358 0 .358-.362 0 0-.358-.362-.715-.362h-.358z" fill="#FFF" mask="url(#b)"/><path d="M72.323 41.97c0 .362-.36.724-.36.724H65.52c-.357 0-.715-.362-.715-.725v-6.156c0-.362.358-.362.715-.362h6.444s.36 0 .36.362v6.155z" fill="#515050" mask="url(#b)"/><path fill="#FFF" mask="url(#b)" d="M69.1 39.797l-1.074-1.81v1.81h-.357v-2.173h.356l1.075 1.81v-1.81h.36v2.173"/><path d="M80.914 41.97c0 .362 0 .724-.36.724h-6.443c-.356 0-.714-.362-.714-.725v-6.156c0-.362.358-.362.715-.362h6.445c.36 0 .36 0 .36.362v6.155z" fill="#515050" mask="url(#b)"/><path d="M78.05 39.797v-1.81.36l-.716 1.45-.716-1.45c0-.36 0-.36-.358-.36v1.81-2.173l1.074 1.81.715-1.81v2.173z" fill="#FFF" mask="url(#b)"/><path d="M102.748 33.642c0 .362-.36.724-.716.724h-6.444c-.358 0-.358-.362-.358-.724V27.49c0-.363 0-.363.358-.363h6.444c.357 0 .716 0 .716.362v6.152z" fill="#515050" mask="url(#b)"/><path d="M98.81 32.918h-.358l.36-.362v.362zm0-1.087v-.36.36zM98.81 29.3v-.365.364z" fill="#FFF" mask="url(#b)"/><path d="M111.338 33.642c0 .362-.358.724-.715.724h-6.444s-.358-.362-.358-.724V27.49c0-.363.357-.363.357-.363h6.443c.357 0 .715 0 .715.362v6.152z" fill="#515050" mask="url(#b)"/><path fill="#FFF" mask="url(#b)" d="M107.4 31.832v-.725M107.4 28.935v-.36.36zm0 0l.36-.36-.36.36z"/><path d="M165.388 33.642c0 .362 0 .724-.358.724h-6.443c-.36 0-.717-.362-.717-.724V27.49c0-.363.358-.363.717-.363h6.443c.358 0 .358 0 .358.362v6.152zM174.337 33.642c0 .362-.358.724-.717.724h-6.444c-.357 0-.357-.362-.357-.724V27.49c0-.363 0-.363.356-.363h6.444c.36 0 .716 0 .716.362v6.152zM182.927 33.642c0 .362-.36.724-.716.724h-6.443c-.357 0-.357-.362-.357-.724V27.49c0-.363 0-.363.357-.363h6.444c.358 0 .717 0 .717.362v6.152zM98.094 41.97c0 .362 0 .724-.357.724h-6.444c-.36 0-.716-.362-.716-.725v-6.156c0-.362.357-.362.716-.362h6.444c.357 0 .357 0 .357.362v6.155z" fill="#515050" mask="url(#b)"/><path fill="#FFF" mask="url(#b)" d="M94.515 41.245v-.362h-.358.358M94.157 38.35v-.363l.358-.362-.358-.363.717.363v.362"/><path d="M89.503 41.97c0 .362 0 .724-.357.724h-6.444c-.357 0-.716-.362-.716-.725v-6.156c0-.362.36-.362.716-.362h6.444c.357 0 .357 0 .357.362v6.155z" fill="#515050" mask="url(#b)"/><path fill="#FFF" mask="url(#b)" d="M85.566 41.245v-.362h.358M85.21 37.987v-.362l1.073-.362-.717.362.717.362v.362"/><path d="M107.043 41.97c0 .362-.358.724-.717.724h-6.443c-.358 0-.358-.362-.358-.725v-6.156c0-.362 0-.362.358-.362h6.443c.36 0 .717 0 .717.362v6.155z" fill="#515050" mask="url(#b)"/><path fill="#FFF" mask="url(#b)" d="M102.748 41.245l.715-1.81M103.106 37.987h-.358s0-.362.358-.362V36.9c-.358 0-.358 0-.358.363V36.9h.358c.357 0 .357.363.357.363v.362h-.357v.362zm0 .362h-.358.358z"/><path d="M174.337 41.97c0 .362-.358.724-.717.724h-6.444c-.357 0-.357-.362-.357-.725v-6.156c0-.362 0-.362.356-.362h6.444c.36 0 .716 0 .716.362v6.155zM165.388 41.97c0 .362 0 .724-.358.724h-6.443c-.36 0-.717-.362-.717-.725v-6.156c0-.362.358-.362.717-.362h6.443c.358 0 .358 0 .358.362v6.155zM182.927 41.97c0 .362-.36.724-.716.724h-6.443c-.357 0-.357-.362-.357-.725v-6.156c0-.362 0-.362.357-.362h6.444c.358 0 .717 0 .717.362v6.155zM146.417 51.743c0 .362 0 .362-.358.362h-6.444c-.36 0-.717 0-.717-.362v-7.24c0-.362.357-.362.716-.362h6.443c.357 0 .357 0 .357.363v7.24zM146.417 41.97c0 .362 0 .724-.358.724h-6.444c-.36 0-.717-.362-.717-.725v-7.242s.357-.362.716-.362h6.443c.357 0 .357.362.357.362v7.24zM137.826 51.743c0 .362 0 .362-.358.362h-6.443c-.358 0-.717 0-.717-.362v-7.24c0-.362.36-.362.717-.362h6.443c.358 0 .358 0 .358.363v7.24zM155.365 51.743c0 .362-.357.362-.716.362h-6.445c-.358 0-.358 0-.358-.362v-7.24c0-.362 0-.362.358-.362h6.444c.358 0 .715 0 .715.363v7.24zM126.014 25.316s0 .363-.357.363h-6.444c-.36 0-.717-.364-.717-.364V19.16c0-.36.358-.723.717-.723h6.444c.357 0 .357.362.357.724v6.156z" fill="#515050" mask="url(#b)"/><path fill="#FFF" mask="url(#b)" d="M122.434 24.23l-.715-1.448h.357l.715 1.448M122.077 22.058h.357v-2.173h-.357"/><path d="M165.745 25.316s-.357.363-.715.363h-6.443c-.36 0-.36-.364-.36-.364V19.16c0-.36 0-.723.36-.723h6.443c.358 0 .715.362.715.724v6.156zM174.337 25.316s-.358.363-.717.363h-6.444c-.357 0-.357-.364-.357-.364V19.16c0-.36 0-.723.356-.723h6.444c.36 0 .716.362.716.724v6.156zM182.927 25.316s-.36.363-.716.363h-6.443c-.357 0-.357-.364-.357-.364V19.16c0-.36 0-.723.357-.723h6.444c.358 0 .717.362.717.724v6.156zM113.128 16.627c0 .362 0 .724-.357.724h-6.444c-.358 0-.715-.36-.715-.723v-6.153c0-.362.358-.725.716-.725h6.445c.358 0 .358.362.358.724v6.153z" fill="#515050" mask="url(#b)"/><path d="M108.832 14.817h1.074-1.074zm0 .362h1.074-1.074z" fill="#FFF" mask="url(#b)"/><path d="M165.388 16.627c0 .362 0 .724-.358.724h-6.443c-.36 0-.717-.36-.717-.723v-6.153c0-.362.358-.725.717-.725h6.443c.358 0 .358.362.358.724v6.153zM173.98 16.627c0 .362 0 .724-.36.724h-6.444c-.357 0-.715-.36-.715-.723v-6.153c0-.362.36-.725.716-.725h6.444c.36 0 .36.362.36.724v6.153zM182.568 16.627c0 .362 0 .724-.357.724h-6.443c-.357 0-.715-.36-.715-.723v-6.153c0-.362.358-.725.715-.725h6.444c.358 0 .358.362.358.724v6.153zM137.826 25.316l-.358.363h-6.443c-.358 0-.717-.364-.717-.364V19.16c0-.36.36-.723.717-.723h6.443s.358.362.358.724v6.156zM146.417 25.316l-.358.363h-6.444c-.36 0-.717-.364-.717-.364V19.16c0-.36.357-.723.716-.723h6.443s.357.362.357.724v6.156zM155.008 25.316l-.36.363h-6.443c-.357 0-.715-.364-.715-.364V19.16c0-.36.358-.723.715-.723h6.444s.358.362.358.724v6.156zM137.826 16.627c0 .362-.358.724-.715.724h-6.443s-.36-.36-.36-.723v-6.153c0-.362.36-.725.36-.725h6.444c.358 0 .716.362.716.724v6.153zM146.417 16.627c0 .362-.358.724-.717.724h-6.443s-.358-.36-.358-.723v-6.153c0-.362.357-.725.357-.725h6.443c.36 0 .717.362.717.724v6.153zM155.008 16.627c0 .362-.36.724-.717.724h-6.442s-.358-.36-.358-.723v-6.153c0-.362.358-.725.358-.725h6.443c.36 0 .718.362.718.724v6.153zM191.52 16.627c0 .362-.36.724-.718.724h-6.444c-.357 0-.715-.36-.715-.723v-6.153c0-.362.358-.725.715-.725h6.444c.357 0 .717.362.717.724v6.153zM191.52 51.743s-.36.362-.718.362h-6.444c-.357 0-.715-.362-.715-.362V35.815c0-.362.358-.362.715-.362h6.444c.357 0 .717 0 .717.362v15.928zM191.52 34.004c0 .362-.36.362-.718.362h-6.444c-.357 0-.715 0-.715-.362V19.162c0-.362.358-.724.715-.724h6.444c.357 0 .717.362.717.724v14.842z" fill="#515050" mask="url(#b)"/><path fill="#FFF" mask="url(#b)" d="M187.58 22.058v.362-.362h-.715.715v-.362.362h.36"/><path d="M18.99 7.94c0 .362-.36.724-.36.724h-6.8s-.36-.362-.36-.725V4.68c0-.362.36-.725.36-.725h6.8s.36.363.36.725V7.94z" fill="#515050" mask="url(#b)"/><path fill="#FFF" mask="url(#b)" d="M16.84 6.853v.362h.36-.36v.363-.725h.36"/><path fill="#FFF" mask="url(#b)" d="M17.198 7.577h.36v-.724h-.36.36v.724"/><path d="M27.938 7.94c0 .362-.36.724-.717.724H20.78s-.358-.362-.358-.725V4.68c0-.362.358-.725.358-.725h6.443c.36 0 .718.363.718.725V7.94z" fill="#515050" mask="url(#b)"/><path fill="#FFF" mask="url(#b)" d="M25.79 6.853v.362h.357-.357v.363-.725h.357M26.147 7.577h.36v-.724h-.36.36v.724h-.36.36"/><path d="M36.886 7.94c0 .362-.357.724-.716.724h-6.444s-.357-.362-.357-.725V4.68c0-.362.356-.725.356-.725h6.444c.36 0 .716.363.716.725V7.94z" fill="#515050" mask="url(#b)"/><path fill="#FFF" mask="url(#b)" d="M34.738 6.853v.362h.358-.358v.363h-.357v-.725h.716"/><path fill="#FFF" mask="url(#b)" d="M35.096 7.577h.36v-.362h-.36.36v-.362h-.36.36v.724"/><path d="M45.835 7.94c0 .362-.358.724-.717.724h-6.444c-.357 0-.357-.362-.357-.725V4.68c0-.362 0-.725.357-.725h6.444c.36 0 .717.363.717.725V7.94z" fill="#515050" mask="url(#b)"/><path fill="#FFF" mask="url(#b)" d="M43.687 6.853v.725h-.358v-.725h.716M44.403 7.577h-.357l.357-.724v.724zm0-.724l-.357.724h.357v-.724z"/><path d="M54.783 7.94c0 .362-.357.724-.716.724h-6.444c-.357 0-.357-.362-.357-.725V4.68c0-.362 0-.725.357-.725h6.444c.36 0 .716.363.716.725V7.94z" fill="#515050" mask="url(#b)"/><path fill="#FFF" mask="url(#b)" d="M52.635 6.853v.725h-.357v-.725M52.993 7.577h.36c0-.362 0-.362-.36-.362v-.362h.36-.36v.362h.36v.362h-.36z"/><path d="M63.732 7.94c0 .362-.358.724-.717.724h-6.443c-.358 0-.358-.362-.358-.725V4.68c0-.362 0-.725.358-.725h6.443c.36 0 .717.363.717.725V7.94z" fill="#515050" mask="url(#b)"/><path fill="#FFF" mask="url(#b)" d="M61.226 6.853v.362h.358-.358v.363-.725h.358M62.3 6.853h-.357v.362h.357v.363h-.357v-.725h.357zm-.357.725h.357v-.363h-.357v.363z"/><path d="M72.68 7.94c0 .362-.357.724-.716.724H65.52c-.357 0-.357-.362-.357-.725V4.68c0-.362 0-.725.357-.725h6.444c.36 0 .716.363.716.725V7.94z" fill="#515050" mask="url(#b)"/><path fill="#FFF" mask="url(#b)" d="M70.175 6.853v.362h.357-.357v.363-.725h.357M70.89 7.577l.36-.724h-.36.36"/><path d="M81.63 7.94c0 .362-.36.724-.716.724H74.47c-.36 0-.36-.362-.36-.725V4.68c0-.362 0-.725.36-.725h6.444c.357 0 .715.363.715.725V7.94z" fill="#515050" mask="url(#b)"/><path fill="#FFF" mask="url(#b)" d="M79.123 6.853v.362h.358-.357v.363-.725h.358M79.84 7.215v-.362h.357c0 .362 0 .362-.357.362.357 0 .357 0 .357.362h-.357v-.362zm0 0v.362h.357v-.362h-.357zm0 0h.357v-.362h-.357v.362z"/><path d="M90.22 7.94c0 .362 0 .724-.36.724h-6.443c-.357 0-.715-.362-.715-.725V4.68c0-.362.358-.725.715-.725h6.444c.36 0 .36.363.36.725V7.94z" fill="#515050" mask="url(#b)"/><path fill="#FFF" mask="url(#b)" d="M88.072 6.853v.362h.357-.358v.363-.725h.357M88.788 7.577h.358v-.362h-.358v-.362h.358v.724h-.358zm0-.724v.362h.358v-.362h-.358z"/><path d="M99.168 7.94c0 .362 0 .724-.357.724h-6.443c-.36 0-.716-.362-.716-.725V4.68c0-.362.358-.725.717-.725h6.444c.358 0 .358.363.358.725V7.94z" fill="#515050" mask="url(#b)"/><path fill="#FFF" mask="url(#b)" d="M96.663 6.853v.362h.357-.357v.363-.725h.357M97.378 7.577v-.724.724h.36"/><path d="M98.094 7.577c-.357 0-.357 0-.357-.362 0 0 0-.362.357-.362.358 0 .358 0 .358.362v.362h-.358zm0-.724v.724c.358 0 .358 0 .358-.362s-.358-.362-.358-.362z" fill="#FFF" mask="url(#b)"/><path d="M108.117 7.94c0 .362 0 .724-.357.724h-6.446c-.357 0-.715-.362-.715-.725V4.68c0-.362.357-.725.714-.725h6.446c.357 0 .357.363.357.725V7.94z" fill="#515050" mask="url(#b)"/><path fill="#FFF" mask="url(#b)" d="M105.61 6.853v.362h.36-.36v.363-.725h.36M106.326 7.577v-.724.724h.36M106.686 7.577h.357v-.724h-.357.357v.724h.358"/><path d="M117.066 7.94c0 .362 0 .724-.358.724h-6.444c-.36 0-.716-.362-.716-.725V4.68c0-.362.357-.725.716-.725h6.444c.358 0 .358.363.358.725V7.94z" fill="#515050" mask="url(#b)"/><path fill="#FFF" mask="url(#b)" d="M114.56 6.853v.362h.357-.357v.363-.725h.357M115.275 7.577v-.724.724h.36"/><path d="M115.634 7.577h.357v-.724h-.356.357c.36 0 .36 0 .36.362h-.36v.362h-.356.715-.716z" fill="#FFF" mask="url(#b)"/><path d="M126.014 7.94c0 .362 0 .724-.357.724h-6.444c-.36 0-.717-.362-.717-.725V4.68c0-.362.358-.725.717-.725h6.444c.357 0 .357.363.357.725V7.94z" fill="#515050" mask="url(#b)"/><path fill="#FFF" mask="url(#b)" d="M123.866 6.853v.362h.357-.357v.363-.725h.357M124.223 7.577h.36v-.724h-.36.36v.724h.357M124.94 7.577h.357v-.362h-.357.357v-.362h-.357.357v.724"/><path d="M126.014 16.627c0 .362 0 .724-.357.724h-10.74c-.357 0-.714-.36-.714-.723v-6.153c0-.362.357-.725.715-.725h10.74c.356 0 .356.362.356.724v6.153z" fill="#515050" mask="url(#b)"/><path d="M117.78 14.093v-1.087h.717l.358.362c0 .363-.358.363-.358.725h-.717zm0-1.087v1.087h.36s.357 0 .357-.362v-.362c0-.362 0-.362-.357-.362h-.36zM118.855 14.093v-1.087h.716-.715v.362h.716-.715v.725h.716M119.93 14.093v-1.087 1.087h.356M120.645 14.093v-1.087h.358-.358v.362h.358-.358v.725h.358M121.72 13.006v1.087-1.087h-.36.717M122.077 14.093v-1.087h.715-.358v.362h.358-.358v.725h.358" fill="#FFF" mask="url(#b)"/><path d="M126.014 33.642c0 .362 0 .724-.357.724H113.13c-.36 0-.718-.362-.718-.724V27.49c0-.363.36-.363.717-.363h12.527c.357 0 .357 0 .357.362v6.152z" fill="#515050" mask="url(#b)"/><path fill="#FFF" mask="url(#b)" d="M117.066 31.108V30.02h.715-.357v.363h.358v.362h-.357v.363h.358M118.855 31.108l-.715-.725v-.362 1.088-1.087l.715 1.088V30.02M119.57 30.022v1.086-1.086h-.356.715"/><path fill="#FFF" mask="url(#b)" d="M119.93 31.108V30.02h.715-.716v.363h.715v.362h-.716v.363h.715M121.36 31.108v-.363h-.357v.363-1.087h.357v1.088zm-.357-1.087v.725c.357 0 .357-.362.357-.362v-.362h-.357zM185.433 39.435V38.35h.358-.357v.723h.358-.357v.362h.715"/><path fill="#FFF" mask="url(#b)" d="M187.222 39.435l-.715-.724h-.36v.725-1.086l.718 1.085V38.35h.357M187.58 38.35v1.085-1.086h-.358.717M188.296 39.435V38.35h.358-.358v.723h.358-.358v.362h.358M189.728 39.435l-.358-.362h-.357v.362-1.086h.715v.723h-.358.358v.362zm-.715-1.086v.723h.715v-.362l-.358-.36h-.357z"/><path d="M16.126 33.642c0 .362-.36.724-.717.724H2.88c-.358 0-.358-.362-.358-.724V27.49c0-.363 0-.363.358-.363H15.41c.357 0 .716 0 .716.362v6.152z" fill="#515050" mask="url(#b)"/><path d="M6.104 31.108h-.717V30.02h.717c-.36 0-.36 0-.36.363-.357 0-.357 0-.357.362v.363h.717zM7.178 31.108v-.363H6.46v.363l.358-1.087.36 1.088zm-.36-.725v-.362l-.357.725h.718l-.36-.362zM7.535 30.746v.362-1.087h.358c.357 0 .357.364.357.364l-.357.362h-.358zm0-.725v.726h.358v-.725h-.358z" fill="#FFF" mask="url(#b)"/><path d="M8.25 31.108h.717v-.363H8.61c0-.362-.36-.362-.36-.362s0-.362.36-.362h.357-.358l-.36.363h.36v.362h.357v.363H8.25zM9.682 31.108V30.02v1.088h.36M10.756 31.108h-.358V30.02h.718c0 .363.356.363.356.725 0 0-.357 0-.357.363h-.36zm0-1.087s-.358 0-.358.363v.725h.718v-.725c0-.362-.36-.362-.36-.362zM12.187 31.108h-.357c-.358 0-.358-.363-.358-.363 0-.362 0-.362.358-.724h.357c-.357 0-.357 0-.357.363-.358 0-.358 0-.358.362l.358.363h.357zM13.26 31.108l-.714-.363v.363-1.087.363l.715-.362-.356.725" fill="#FFF" mask="url(#b)"/><path d="M126.014 41.97c0 .362 0 .724-.357.724h-17.183c-.357 0-.357-.362-.357-.725v-6.156c0-.362 0-.362.357-.362h17.183c.357 0 .357 0 .357.362v6.155z" fill="#515050" mask="url(#b)"/><path d="M115.275 39.435h.36v-.362c-.36 0-.36-.362-.36-.362v-.36h.36-.36v.36s.36 0 .36.363c.356 0 .356 0 .356.362h-.716zM116.708 39.435v-.362h-.36v.362h-.357V38.35h.36v.723h.358v-.724h.358v1.085" fill="#FFF" mask="url(#b)"/><path fill="#FFF" mask="url(#b)" d="M117.065 39.435h.358V38.35h-.358M117.78 38.35v.723h.36-.36v.362h-.357V38.35h.717M118.855 38.35v1.085h-.358V38.35h-.357"/><path d="M20.778 41.97c0 .362-.357.724-.715.724H2.88c-.356 0-.356-.362-.356-.725v-6.156c0-.362 0-.362.357-.362h17.183c.358 0 .715 0 .715.362v6.155z" fill="#515050" mask="url(#b)"/><path d="M9.682 39.435h.716c0-.362-.357-.362-.357-.362-.358 0-.358-.362-.358-.362v-.36h.716-.715v.36c.36 0 .36 0 .36.363h.356v.362h-.715z" fill="#FFF" mask="url(#b)"/><path fill="#FFF" mask="url(#b)" d="M11.472 39.435v-.362h-.716v.362h-.358V38.35h.358v.723h.716v-.724M11.83 39.435V38.35v1.085zM12.187 38.35v.723h.36-.36v.362-1.086h.36M13.26 38.35v1.085h-.356V38.35h.717"/><path d="M14.335 25.316s-.357.363-.715.363H3.24c-.358 0-.716-.364-.716-.364V19.16c0-.36.358-.723.715-.723h10.38c.358 0 .715.362.715.724v6.156z" fill="#515050" mask="url(#b)"/><path fill="#FFF" mask="url(#b)" d="M7.535 21.696v1.086-1.086h-.357v-.362h.715v.362M8.61 22.782v-.362h-.717v.362l.357-1.448.36 1.448zm-.36-1.086l-.357.362h.716l-.36-.362zM8.967 22.782v-1.448h.357v.362h.358s0 .362-.358.362h.358v.362h-.358v.362h-.357zm0-.724h.357v-.362h-.357v.362zm0 .362h.357v-.362h-.357v.362z"/><path d="M9.682 51.743s0 .362-.358.362H2.88c-.357 0-.714-.362-.714-.362v-7.24c0-.362.357-.362.715-.362h6.444c.358 0 .358 0 .358.363v7.24z" fill="#515050" mask="url(#b)"/><path d="M4.313 50.657l-.358.362c-.357 0-.357-.363-.357-.363-.36 0-.36-.362-.36-.362 0-.362 0-.362.36-.362 0-.362 0-.362.357-.362h.358v.363l-.358-.362c-.357 0-.357.363-.357.363s-.36 0-.36.362l.36.362h.715zM4.67 49.57v1.45-1.45h-.357.716M5.744 51.02v-.725h-.357v.724-1.45c.357 0 .357 0 .357.363V51.02zm-.357-1.45v.725h.357v-.362s0-.363-.357-.363zM6.104 51.02v-1.45 1.087h.715l-.002.362" fill="#FFF" mask="url(#b)"/><path d="M18.63 51.743s-.357.362-.715.362H11.47c-.356 0-.356-.362-.356-.362v-7.24c0-.362 0-.362.357-.362h6.445c.358 0 .715 0 .715.363v7.24z" fill="#515050" mask="url(#b)"/><path fill="#FFF" mask="url(#b)" d="M12.187 49.57v.725h.36-.36v.725-1.45h.36M13.62 51.02l-.716-1.087v1.086-1.45l.716 1.087V49.57"/><path d="M35.812 51.743s0 .362-.357.362H29.01c-.358 0-.716-.362-.716-.362v-7.24c0-.362.358-.362.717-.362h6.445c.357 0 .357 0 .357.363v7.24z" fill="#515050" mask="url(#b)"/><path d="M30.084 51.02v-.363h-.357l-.358.362.357-1.45h.357l.36 1.45h-.36zm-.357-1.087v.362h.357l-.357-.362zM30.443 51.02v-1.45 1.087h.715v.362M31.517 49.57v1.45-1.45h-.36.718" fill="#FFF" mask="url(#b)"/><path d="M98.452 51.743s-.358.362-.715.362H37.602c-.358 0-.715-.362-.715-.362v-7.24c0-.362.357-.362.715-.362h60.135c.357 0 .715 0 .715.363v7.24zM27.22 51.743l-.356.362h-6.8l-.36-.362v-7.24c0-.362.36-.362.36-.362h6.8s.357 0 .357.363v7.24zM126.014 51.743s0 .362-.357.362h-7.16c-.358 0-.358-.362-.358-.362v-7.24c0-.362 0-.362.356-.362h7.16c.358 0 .358 0 .358.363v7.24z" fill="#515050" mask="url(#b)"/><path d="M120.286 50.657v.362c-.357 0-.357-.363-.715-.363v-.362c0-.362 0-.362.36-.362 0-.362 0-.362.356-.362v.363-.362c-.357 0-.357.363-.357.363-.36 0-.36 0-.36.362 0 0 0 .362.36.362h.356zM121.003 49.57v1.45-1.45h-.358.715" fill="#FFF" mask="url(#b)"/><path d="M122.077 51.02v-.363c0-.362-.358-.362-.358-.362v.724h-.36v-1.45h.36c.357 0 .357 0 .357.363V51.02zm-.358-1.45v.725h.357v-.362s0-.363-.358-.363zM122.434 51.02v-1.45 1.087h.717v.362" fill="#FFF" mask="url(#b)"/><path d="M182.927 51.743s-.36.362-.716.362h-6.443c-.357 0-.357-.362-.357-.362v-7.24c0-.362 0-.362.357-.362h6.444c.358 0 .717 0 .717.363v7.24zM174.337 51.743s-.358.362-.717.362h-15.032c-.36 0-.717-.362-.717-.362v-7.24c0-.362.358-.362.718-.362h15.032c.36 0 .716 0 .716.363v7.24zM116.708 51.743s0 .362-.36.362h-7.158c-.357 0-.357-.362-.357-.362v-7.24c0-.362 0-.362.357-.362h7.16c.358 0 .358 0 .358.363v7.24z" fill="#515050" mask="url(#b)"/><path d="M111.338 51.02l-.358-.363h-.357v.362h-.358l.715-1.45.358 1.45zm-.358-1.087l-.357.362h.357v-.362zM111.697 51.02v-1.45 1.087h.357v.362M112.412 49.57v1.45-1.45h-.358.717" fill="#FFF" mask="url(#b)"/><path d="M107.4 51.743s0 .362-.357.362h-7.16c-.358 0-.358-.362-.358-.362v-7.24c0-.362 0-.362.358-.362h7.16c.357 0 .357 0 .357.363v7.24z" fill="#515050" mask="url(#b)"/><path fill="#FFF" mask="url(#b)" d="M134.246 47.4l-.357.362.356.725M151.07 47.4l.716.362-.715.725M143.196 47.762l-.36.725-.714-.725M142.122 38.71l.715-.36.36.36M161.093 13.006l-.716-.724v.724h-.358v-1.084h.357l.716 1.084v-1.084M162.166 12.644c0 .363 0 .363-.358.363-.357 0-.357 0-.357-.363v-.722.722c0 .363 0 .363.358.363 0 0 .358 0 .358-.363v-.722.722zM163.597 13.006v-.724h-.357l-.358.724-.357-.724v.724-1.084l.357 1.084.715-1.084M160.02 15.18V14.09h.357v1.087h.357M161.45 15.18h-.357s0-.363-.36-.363v-.725h1.076v.725s0 .362-.357.362zm0-1.088h-.357v.363h-.36c0 .362 0 .362.36.362v.362h.358l.358-.363v-.725h-.357zM162.882 15.18h-.717V14.09h.717-.357c-.36 0-.36 0-.36.363v.362l.36.362h.357zM163.597 15.18l-.357-.725v.724-1.088.363l.357-.363h.36l-.717.363.716.724M166.103 48.124h-.358V47.038c0-.362.358-.362.358-.362.36 0 .36.362.36.724v.724h-.36zm0-1.448l-.358.362V48.124h.718V47.4c0-.362 0-.724-.36-.724zM187.222 13.368h.717v-.362h-.718M170.042 14.093l.715-1.81M178.99 13.37l.358.36-.358-.36v.36-.36h-.36.36v-.364.363h.358M178.99 48.124h.358M161.808 22.782h-.357l.716-1.448h-.715.716M170.4 22.058c-.358 0-.358 0-.358-.362v-.362h.714v.362s0 .362-.358.362c.357 0 .357.362.357.362v.362h-.716v-.362s0-.362.357-.362zm0 0l-.358.362v.362h.714v-.362c0-.362-.358-.362-.358-.362zm0 0c.357 0 .357-.362.357-.362 0-.362-.358-.362-.358-.362v.362h-.358l.357.362zM178.63 22.782h.718v-.724s0 .362-.358.362c0 0-.36 0-.36-.362v-.724h.36c.358 0 .358 0 .358.362V22.782h-.718zm.36-1.448l-.36.362v.362h.718v-.362c0-.362-.358-.362-.358-.362zM162.166 31.108v.362-.362h-.715l.716-1.087v1.088zm0-.725h-.358l-.357.725h.716v-.725zM170.042 31.47h.714v-.362c0-.363 0-.363-.358-.363h-.358v-.724h.715-.358v.725h.357v.725h-.716zM179.348 30.022c-.358 0-.358.362-.358.362-.36 0-.36.362-.36.362h.718v.724h-.718V30.384c.36-.362.36-.362.718-.362zm-.358.724c-.36 0-.36.362-.36.362l.36.362h.358v-.724h-.358zM161.45 39.797h.358V38.71h-.357l.358-.362v1.45h.358M170.042 39.797l.357-.362v-.362c.357 0 .357 0 .357-.362h-.716c0-.362 0-.362.357-.362l.357.363v.363l-.358.362-.358.362h.715-.715zM178.63 39.797h.36c.358 0 .358 0 .358-.362h-.358s0-.362-.36-.362h.36v-.362h-.36c0-.362 0-.362.36-.362v.363h.358c0 .363 0 .363-.358.363l.358.362v.362h-.718zM23.284 48.124h2.148v-1.81h-2.148M21.494 48.126h1.79v-1.45h-1.79M23.284 48.124v1.447l2.148.364v-1.81"/><path fill="#FFF" mask="url(#b)" d="M21.494 49.57h1.79v-1.446h-1.79M103.463 48.124h2.148v-1.81h-2.147"/><path fill="#FFF" mask="url(#b)" d="M102.03 48.126h1.433v-1.45h-1.432"/><path fill="#FFF" mask="url(#b)" d="M103.463 48.124v1.447l2.15.364v-1.81"/><path fill="#FFF" mask="url(#b)" d="M102.03 49.57h1.433v-1.446h-1.432M160.02 5.043c0 .362-.36 1.086-1.075 1.086-.357 0-.717-.725-.717-1.087s.36-1.087.717-1.087c.715 0 1.074.725 1.074 1.087"/><path d="M165.745 5.043c0 .362-.357 1.086-1.074 1.086-.356 0-1.073-.725-1.073-1.087s.717-1.087 1.074-1.087c.718 0 1.075.725 1.075 1.087M171.473 5.043c0 .362-.716 1.086-1.074 1.086-.358 0-1.075-.725-1.075-1.087s.717-1.087 1.074-1.087c.357 0 1.073.725 1.073 1.087" fill="#515050" mask="url(#b)"/><path d="M132.1 14.093v-.725.725zM132.457 14.093v-.725l.358.725v-.725h.36v.725h-.36l-.358-.725" fill="#FFF" mask="url(#b)"/><path d="M133.174 13.73v.363h.717v-.362h-.716v-.362h.717-.716s.357 0 .357.363h.36v.363h-.716v-.362z" fill="#FFF" mask="url(#b)"/><path fill="#FFF" mask="url(#b)" d="M133.89 14.093v-.725h.715-.36v.363h.36-.36v.363h.36M134.605 14.093v-.725h.715v.726-.362h-.357v.363h-.358zm.358-.362h.357v-.362h-.357v.363zM135.68 14.092h.356v-.724h-.357M141.048 14.093v-.725.363h.715v-.362.725-.362h-.715"/><path d="M141.763 13.73s0-.362.36-.362h.357l.357.363h-.357v.363h-.358l-.36-.362zm.36 0v.363h.357v-.724h-.358v.363z" fill="#FFF" mask="url(#b)"/><path fill="#FFF" mask="url(#b)" d="M142.837 14.093v-.725l.36.363v.363-.362l.357-.362v.725-.725l-.358.725-.36-.725M143.91 14.093v-.725h.36-.36v.363h.36-.36v.363h.36M149.637 14.093v-.725h.717v.363h-.357v.363h-.36zm.36-.362h.357v-.362h-.357v.363zM150.354 14.093l.358-.725.36.725v-.362h-.36l-.358.363zm.358-.362v-.362.363z"/><path fill="#FFF" mask="url(#b)" d="M151.428 13.73h.358v.363h-.358l-.357-.362v-.362h.716-.358v.726h.358v-.362M152.143 14.093v-.725h.717-.717v.363h.36-.36v.363h.717M151.07 14.817v.722h-.36v-.36h-.356v-.363h.357v.722c.36 0 .36 0 .36-.36v-.363zM151.428 15.54v-.723h.715l-.357.362h-.358v.36zm0-.36h.358v-.363h-.358v.362zM131.74 22.42v-.724h.717v.724h-.717zm.36 0l.357-.362v-.362h-.357v.724zM132.815 22.42v-.724h.36-.36v.362h.36-.36v.362h.36M133.53 22.42v-.724.724h.36"/><path fill="#FFF" mask="url(#b)" d="M133.89 22.42v-.724h.715-.36v.362h.36-.36v.362h.36M134.963 22.42v-.724h-.358.715-.357M135.32 22.42v-.724h.717-.358v.362h.357-.358v.362h.357M141.763 22.42v-.724h.36-.36v.362h.36-.36v.362h.36M142.48 22.42v-.724l.357.362v-.362.724l-.358-.724M143.196 22.42v-.724h.715v.362c0 .362-.356.362-.356.362h-.358zm0 0h.358v-.362h.357c0-.362-.356-.362-.356-.362h-.358v.724zM149.637 22.42v-.724h.717v.362h-.357v.362h-.36zm.36-.362h.357v-.362h-.357v.362zM150.354 22.42l.358-.724.36.724v-.362h-.36l-.358.362zm.358-.362v-.362.362z"/><path fill="#FFF" mask="url(#b)" d="M151.428 22.058h.358v.362h-.358l-.357-.362v-.362h.716-.358v.724h.358v-.362M152.143 22.42v-.724h.717-.717v.362h.36-.36v.362h.717M149.637 23.868v-1.086h.36v.362s.357 0 .357.362h-.357v.362h-.36zm0-.362h.36v-.362h-.36v.362zM150.354 23.506v-.362c0-.362.358-.362.358-.362v.362h.36v.362l-.36.362h-.358v-.362zm0 0h.718v-.362h-.718v.362zM151.428 23.868l-.357-1.086h.358v.724-.724h.358v.724l.357-.724v1.086h-.357v-.724"/><path fill="#FFF" mask="url(#b)" d="M152.143 23.868v-1.086h.36l.357.724v-.724 1.086l-.358-.724v.724"/></g><path d="M142.333 108.95c0 2.23-1.436 3.714-3.228 3.714H3.227C1.435 112.664 0 111.18 0 108.95V74.8c0-2.225 1.435-3.71 3.227-3.71h135.878c1.792 0 3.228 1.485 3.228 3.71v34.15z" fill="#231F1F"/><path d="M9.32 77.4c0 .37-.357.37-.357.37H4.66s-.358 0-.358-.37v-2.227l.358-.37h4.303l.358.37V77.4zM9.32 83.71c0 .372-.357.372-.357.372H4.66s-.358 0-.358-.372v-4.084c0-.37.358-.37.358-.37h4.303s.358 0 .358.37v4.084zM15.416 83.71c0 .372 0 .372-.36.372h-4.3v-4.826h4.3c.36 0 .36 0 .36.37v4.084zM18.284 90.02s0 .373-.36.373h-3.942c-.36 0-.36-.373-.36-.373v-4.083c0-.37 0-.37.36-.37h3.943c.36 0 .36 0 .36.37v4.083zM24.737 90.02l-.357.373h-4.304l-.357-.373v-4.083c0-.37.356-.37.356-.37h4.304s.357 0 .357.37v4.083zM30.833 90.02l-.36.373H26.17l-.358-.373v-4.083c0-.37.36-.37.36-.37h4.3s.36 0 .36.37v4.083zM36.928 90.02s0 .373-.36.373h-4.303l-.357-.373v-4.083c0-.37.357-.37.357-.37h4.304c.358 0 .358 0 .358.37v4.083zM43.022 90.02s0 .373-.358.373H38.72c-.36 0-.36-.373-.36-.373v-4.083c0-.37 0-.37.36-.37h3.944c.358 0 .358 0 .358.37v4.083zM49.117 90.02s0 .373-.36.373h-3.943c-.358 0-.358-.373-.358-.373v-4.083c0-.37 0-.37.358-.37h3.944c.36 0 .36 0 .36.37v4.083zM55.213 90.02v.373H50.91c-.36 0-.36-.373-.36-.373v-4.083c0-.37 0-.37.36-.37h4.303v4.453zM61.666 90.02l-.36.373h-4.302l-.36-.373v-4.083c0-.37.36-.37.36-.37h4.302s.36 0 .36.37v4.083zM67.76 90.02l-.358.373h-4.304l-.357-.373v-4.083c0-.37.358-.37.358-.37h4.304s.357 0 .357.37v4.083zM73.855 90.02s0 .373-.358.373h-4.303l-.36-.373v-4.083c0-.37.36-.37.36-.37h4.303c.358 0 .358 0 .358.37v4.083zM21.512 83.71c0 .372 0 .372-.36.372h-3.944c-.358 0-.358 0-.358-.372v-4.084c0-.37 0-.37.358-.37h3.944c.36 0 .36 0 .36.37v4.084zM27.605 83.71c0 .372 0 .372-.357.372h-3.945c-.36 0-.36 0-.36-.372v-4.084c0-.37 0-.37.36-.37h3.945c.357 0 .357 0 .357.37v4.084zM34.06 83.71c0 .372-.36.372-.36.372h-4.3c-.36 0-.36 0-.36-.372v-4.084c0-.37 0-.37.36-.37h4.3s.36 0 .36.37v4.084zM40.154 83.71c0 .372-.358.372-.358.372h-4.303s-.358 0-.358-.372v-4.084c0-.37.358-.37.358-.37h4.303s.358 0 .358.37v4.084zM46.25 83.71c0 .372-.36.372-.36.372h-4.302s-.36 0-.36-.372v-4.084c0-.37.36-.37.36-.37h4.302s.36 0 .36.37v4.084zM52.344 83.71c0 .372 0 .372-.36.372h-4.302v-4.826h4.303c.36 0 .36 0 .36.37v4.084zM58.438 83.71c0 .372 0 .372-.357.372h-3.944c-.36 0-.36 0-.36-.372v-4.084c0-.37 0-.37.36-.37h3.945c.358 0 .358 0 .358.37v4.084zM64.534 83.71c0 .372 0 .372-.36.372H60.23c-.357 0-.357 0-.357-.372v-4.084c0-.37 0-.37.357-.37h3.944c.36 0 .36 0 .36.37v4.084zM70.987 83.71c0 .372-.358.372-.358.372h-4.305c-.36 0-.36 0-.36-.372v-4.084c0-.37 0-.37.36-.37h4.304s.357 0 .357.37v4.084zM77.082 83.71c0 .372-.36.372-.36.372h-4.3s-.36 0-.36-.372v-4.084c0-.37.36-.37.36-.37h4.3s.36 0 .36.37v4.084zM79.95 90.02s0 .373-.36.373h-3.944c-.357 0-.357-.373-.357-.373v-4.083c0-.37 0-.37.356-.37h3.945c.36 0 .36 0 .36.37v4.083zM86.044 90.02s0 .373-.358.373h-3.944c-.36 0-.36-.373-.36-.373v-4.083c0-.37 0-.37.36-.37h3.944c.358 0 .358 0 .358.37v4.083zM19.72 96.33s0 .372-.36.372h-3.944c-.36 0-.36-.37-.36-.37v-4.084c0-.372 0-.372.36-.372h3.944c.36 0 .36 0 .36.372v4.083zM25.813 96.33s0 .372-.357.372H21.51c-.358 0-.358-.37-.358-.37v-4.084c0-.372 0-.372.36-.372h3.944c.357 0 .357 0 .357.372v4.083zM32.266 96.33l-.358.372h-4.303l-.358-.37v-4.084c0-.372.358-.372.358-.372h4.303s.358 0 .358.372v4.083zM38.36 96.33s0 .372-.356.372H33.7l-.36-.37v-4.084c0-.372.36-.372.36-.372h4.304c.357 0 .357 0 .357.372v4.083zM44.457 96.33s0 .372-.36.372h-3.944c-.357 0-.357-.37-.357-.37v-4.084c0-.372 0-.372.357-.372h3.945c.36 0 .36 0 .36.372v4.083zM50.91 96.33l-.36.372h-4.302c-.36 0-.36-.37-.36-.37v-4.084c0-.372 0-.372.36-.372h4.302s.36 0 .36.372v4.083zM57.005 96.33l-.36.372h-4.3l-.36-.37v-4.084c0-.372.36-.372.36-.372h4.3s.36 0 .36.372v4.083zM63.1 96.33s0 .372-.36.372h-3.943c-.36 0-.36-.37-.36-.37v-4.084c0-.372 0-.372.36-.372h3.944c.36 0 .36 0 .36.372v4.083zM69.194 96.33s0 .372-.36.372h-3.942c-.36 0-.36-.37-.36-.37v-4.084c0-.372 0-.372.36-.372h3.943c.36 0 .36 0 .36.372v4.083zM22.945 102.27c0 .372 0 .372-.358.372h-3.944c-.36 0-.36 0-.36-.372v-4.083s0-.37.36-.37h3.944c.358 0 .358.37.358.37v4.083zM29.04 102.27c0 .372 0 .372-.36.372h-3.943c-.358 0-.358 0-.358-.372v-4.083s0-.37.357-.37h3.944c.36 0 .36.37.36.37v4.083zM35.493 102.27c0 .372-.357.372-.357.372h-4.304s-.36 0-.36-.372v-4.083l.36-.37h4.304l.357.37v4.083zM41.59 102.27c0 .372-.36.372-.36.372h-4.303s-.36 0-.36-.372v-4.083l.36-.37h4.302l.36.37v4.083zM47.682 102.27c0 .372 0 .372-.357.372H43.02v-4.825h4.305c.357 0 .357.37.357.37v4.083zM53.778 102.27c0 .372 0 .372-.36.372h-3.942c-.36 0-.36 0-.36-.372v-4.083s0-.37.36-.37h3.943c.358 0 .358.37.358.37v4.083zM60.23 102.27c0 .372-.357.372-.357.372H55.57c-.358 0-.358 0-.358-.372v-4.083s0-.37.358-.37h4.303l.358.37v4.083zM75.647 96.33l-.357.372h-4.304l-.358-.37v-4.084c0-.372.358-.372.358-.372h4.304s.357 0 .357.372v4.083zM81.742 96.33s0 .372-.36.372h-4.3l-.36-.37v-4.084c0-.372.36-.372.36-.372h4.3c.36 0 .36 0 .36.372v4.083zM119.387 96.33l-.36.372h-4.3l-.36-.37v-4.084c0-.372.36-.372.36-.372h4.3s.36 0 .36.372v4.083zM125.48 96.33l-.356.372h-4.304l-.358-.37v-4.084c0-.372.358-.372.358-.372h4.304s.357 0 .357.372v4.083zM131.577 96.33s0 .372-.36.372h-3.944c-.358 0-.358-.37-.358-.37v-4.084c0-.372 0-.372.358-.372h3.944c.36 0 .36 0 .36.372v4.083zM72.42 102.27c0 .372 0 .372-.358.372H67.76s-.36 0-.36-.372v-4.083l.36-.37h4.302c.36 0 .36.37.36.37v4.083zM66.326 102.27c0 .372-.36.372-.36.372h-4.3s-.36 0-.36-.372v-4.083l.36-.37h4.3l.36.37v4.083zM78.515 102.27c0 .372 0 .372-.357.372h-3.945c-.36 0-.36 0-.36-.372v-4.083s0-.37.36-.37h3.945c.357 0 .357.37.357.37v4.083zM125.48 102.27c0 .372-.356.372-.356.372h-4.304s-.358 0-.358-.372v-4.083l.358-.37h4.304l.357.37v4.083zM119.387 102.27c0 .372-.36.372-.36.372h-4.3s-.36 0-.36-.372v-4.083l.36-.37h4.3l.36.37v4.083zM131.577 102.27c0 .372 0 .372-.36.372h-3.944c-.358 0-.358 0-.358-.372v-4.083s0-.37.358-.37h3.944c.36 0 .36.37.36.37v4.083zM92.498 90.02l-.36.373h-4.3c-.36 0-.36-.373-.36-.373v-4.083c0-.37 0-.37.36-.37h4.3s.36 0 .36.37v4.083zM119.387 90.02l-.36.373h-4.3l-.36-.373v-4.083c0-.37.36-.37.36-.37h4.3s.36 0 .36.37v4.083zM125.48 90.02l-.356.373h-4.304l-.358-.373v-4.083c0-.37.358-.37.358-.37h4.304s.357 0 .357.37v4.083zM131.577 90.02s0 .373-.36.373h-3.944c-.358 0-.358-.373-.358-.373v-4.083c0-.37 0-.37.358-.37h3.944c.36 0 .36 0 .36.37v4.083zM83.176 83.71c0 .372-.358.372-.358.372h-4.303s-.358 0-.358-.372v-4.084c0-.37.358-.37.358-.37h4.303s.358 0 .358.37v4.084zM119.387 83.71c0 .372-.36.372-.36.372h-4.3s-.36 0-.36-.372v-4.084c0-.37.36-.37.36-.37h4.3s.36 0 .36.37v4.084zM125.48 83.71c0 .372-.356.372-.356.372h-4.304s-.358 0-.358-.372v-4.084c0-.37.358-.37.358-.37h4.304s.357 0 .357.37v4.084zM131.577 83.71c0 .372 0 .372-.36.372h-4.302s-.36 0-.36-.372v-4.084c0-.37.36-.37.36-.37h4.302c.36 0 .36 0 .36.37v4.084zM99.668 90.02l-.358.373h-4.303l-.36-.373v-4.083c0-.37.36-.37.36-.37h4.303s.358 0 .358.37v4.083zM105.763 90.02s0 .373-.36.373h-4.3V85.567h4.3c.36 0 .36 0 .36.37v4.083zM111.86 90.02s0 .373-.36.373h-3.945c-.36 0-.36-.373-.36-.373v-4.083c0-.37 0-.37.36-.37h3.945c.36 0 .36 0 .36.37v4.083zM99.668 83.71c0 .372-.358.372-.358.372h-4.303s-.36 0-.36-.372v-4.084c0-.37.36-.37.36-.37h4.303s.358 0 .358.37v4.084zM105.763 83.71c0 .372 0 .372-.36.372h-4.3s-.36 0-.36-.372v-4.084c0-.37.36-.37.36-.37h4.3c.36 0 .36 0 .36.37v4.084zM111.86 83.71c0 .372 0 .372-.36.372h-3.945c-.36 0-.36 0-.36-.372v-4.084c0-.37 0-.37.36-.37h3.945c.36 0 .36 0 .36.37v4.084zM99.668 109.323c0 .37-.358.37-.358.37h-4.303s-.36 0-.36-.37v-4.083l.36-.372h4.303l.358.372v4.083zM105.763 109.323c0 .37 0 .37-.36.37h-4.3v-4.825h4.3c.36 0 .36.372.36.372v4.083zM111.86 109.323c0 .37 0 .37-.36.37h-3.945c-.36 0-.36 0-.36-.37v-4.083s0-.372.36-.372h3.945c.36 0 .36.372.36.372v4.083zM105.763 103.013c0 .37 0 .37-.36.37h-4.3s-.36 0-.36-.37V98.93l.36-.372h4.3c.36 0 .36.37.36.37v4.085zM137.672 83.71c0 .372 0 .372-.36.372h-3.944c-.36 0-.36 0-.36-.372v-4.084c0-.37 0-.37.36-.37h3.945c.36 0 .36 0 .36.37v4.084zM137.672 108.95c0 .374 0 .374-.36.374h-3.944c-.36 0-.36 0-.36-.373V98.56s0-.37.36-.37h3.945c.36 0 .36.37.36.37v10.393zM137.672 95.96c0 .372 0 .372-.36.372h-3.944c-.36 0-.36 0-.36-.373v-9.65c0-.373 0-.373.36-.373h3.945c.36 0 .36 0 .36.373v9.65zM15.775 77.4c0 .37-.36.37-.36.37h-4.3s-.36 0-.36-.37v-2.227l.36-.37h4.3l.36.37V77.4zM22.228 77.4c0 .37-.36.37-.36.37h-4.3c-.36 0-.36 0-.36-.37v-2.227s0-.37.36-.37h4.3l.36.37V77.4zM28.324 77.4c0 .37 0 .37-.36.37H24.02c-.36 0-.36 0-.36-.37v-2.227s0-.37.36-.37h3.944c.36 0 .36.37.36.37V77.4zM34.777 77.4c0 .37 0 .37-.36.37h-3.944c-.358 0-.358 0-.358-.37v-2.227s0-.37.358-.37h3.944c.36 0 .36.37.36.37V77.4zM41.23 77.4c0 .37 0 .37-.358.37h-4.304s-.36 0-.36-.37v-2.227l.36-.37h4.304c.358 0 .358.37.358.37V77.4zM47.682 77.4c0 .37-.357.37-.357.37H43.02s-.356 0-.356-.37v-2.227l.357-.37h4.305l.357.37V77.4zM54.137 77.4c0 .37-.36.37-.36.37h-4.3s-.36 0-.36-.37v-2.227l.36-.37h4.3l.36.37V77.4zM60.23 77.4c0 .37 0 .37-.357.37H55.93c-.36 0-.36 0-.36-.37v-2.227s0-.37.36-.37h3.943c.358 0 .358.37.358.37V77.4zM66.685 77.4c0 .37 0 .37-.36.37h-3.943c-.36 0-.36 0-.36-.37v-2.227s0-.37.36-.37h3.944c.36 0 .36.37.36.37V77.4zM73.138 77.4c0 .37 0 .37-.36.37h-4.3v-2.967h4.3c.36 0 .36.37.36.37V77.4zM79.59 77.4c0 .37-.357.37-.357.37H74.93s-.36 0-.36-.37v-2.227l.36-.37h4.303l.358.37V77.4zM86.044 77.4c0 .37-.358.37-.358.37h-4.303s-.358 0-.358-.37v-2.227l.358-.37h4.303l.358.37V77.4zM92.498 77.4c0 .37-.36.37-.36.37h-4.3c-.36 0-.36 0-.36-.37v-2.227s0-.37.36-.37h4.3l.36.37V77.4zM92.14 83.71c0 .372 0 .372-.36.372h-6.81c-.36 0-.36 0-.36-.372v-4.084c0-.37 0-.37.36-.37h6.81c.36 0 .36 0 .36.37v4.084zM92.14 96.33l-.36.372h-8.245l-.36-.37v-4.084c0-.372.36-.372.36-.372h8.245s.36 0 .36.372v4.083zM13.265 96.33s0 .372-.358.372H5.02c-.36 0-.36-.37-.36-.37v-4.084c0-.372 0-.372.36-.372h7.887c.358 0 .358 0 .358.372v4.083zM91.78 102.27v.372H80.667c-.36 0-.36 0-.36-.372v-4.083s0-.37.36-.37H91.78v4.453zM16.492 102.27c0 .372-.36.372-.36.372H5.02s-.36 0-.36-.372v-4.083l.36-.37h11.113l.36.37v4.083zM12.19 90.02l-.36.373H5.02c-.36 0-.36-.373-.36-.373v-4.083c0-.37 0-.37.36-.37h6.81s.36 0 .36.37v4.083zM8.963 109.323s0 .37-.36.37H4.66c-.358 0-.358-.37-.358-.37v-4.826s0-.37.358-.37h3.944c.36 0 .36.37.36.37v4.826zM15.416 109.323l-.36.37h-4.3l-.36-.37v-4.826l.36-.37h4.3l.36.37M27.965 109.323l-.36.37h-4.302c-.36 0-.36-.37-.36-.37v-4.826s0-.37.36-.37h4.302l.36.37v4.826zM58.797 109.323l-.36.37H30.833c-.36 0-.36-.37-.36-.37v-4.826s0-.37.36-.37h27.606l.36.37v4.826zM21.512 109.323s0 .37-.36.37h-3.944c-.358 0-.358-.37-.358-.37v-4.826s0-.37.358-.37h3.944c.36 0 .36.37.36.37v4.826zM78.515 109.323s0 .37-.357.37h-3.945c-.36 0-.36-.37-.36-.37v-4.826s0-.37.36-.37h3.945c.357 0 .357.37.357.37v4.826zM131.577 109.323s0 .37-.36.37h-3.944c-.358 0-.358-.37-.358-.37v-4.826s0-.37.358-.37h3.944c.36 0 .36.37.36.37v4.826zM125.124 109.323s0 .37-.36.37h-9.68c-.357 0-.357-.37-.357-.37v-4.826s0-.37.358-.37h9.68c.36 0 .36.37.36.37v4.826zM88.555 109.323s0 .37-.36.37h-4.302l-.36-.37v-4.826l.36-.37h4.302c.36 0 .36.37.36.37v4.826zM72.42 109.323s0 .37-.358.37H67.76l-.36-.37v-4.826l.36-.37h4.302c.36 0 .36.37.36.37v4.826zM66.326 109.323l-.36.37h-4.3l-.36-.37v-4.826l.36-.37h4.3l.36.37M83.535 107.096h5.02-5.02zM82.818 109.694H79.95l-.36-.37v-4.826l.36-.372h2.868M89.63 109.694h2.51c.36 0 .36-.37.36-.37v-4.826s0-.372-.36-.372h-2.51v5.568z" fill="#515050"/><path d="M129.068 107.096v-.37s.357 0 .357.37h-.357z" fill="#515050"/><g><g transform="translate(152.237 87.918)"><mask id="d" fill="#fff"><use xlink:href="#c"/></mask><path d="M41.78 20.772c0 .745-.74 1.86-1.847 1.86H2.603c-1.11 0-1.848-1.115-1.848-1.86V2.178c0-1.115.738-1.86 1.848-1.86h37.33c1.107 0 1.848.745 1.848 1.86v18.594z" fill="#231F1F" mask="url(#d)"/></g><path d="M160.383 104.6c0-.372-.37-.744-.74-.744h-1.848c-.37 0-.737.372-.737.743v1.86c0 .372.368.744.737.744h1.85c.37 0 .738-.372.738-.745v-1.86zM160.383 99.02c0-.37-.37-.743-.74-.743h-1.848c-.37 0-.737.373-.737.743v1.86c0 .374.368.746.737.746h1.85c.37 0 .738-.372.738-.745v-1.86zM160.383 93.072c0-.373-.37-.745-.74-.745h-1.848c-.37 0-.737.372-.737.745v1.858c0 .373.368.745.737.745h1.85c.37 0 .738-.372.738-.745v-1.858zM166.297 104.6c0-.372-.37-.744-1.11-.744h-1.478c-.738 0-.738.372-.738.743v1.86c0 .372 0 .744.737.744h1.478c.74 0 1.11-.372 1.11-.745v-1.86zM166.297 99.02c0-.37-.37-.743-1.11-.743h-1.478c-.738 0-.738.373-.738.743v1.86c0 .374 0 .746.737.746h1.478c.74 0 1.11-.372 1.11-.745v-1.86zM166.297 93.072c0-.373-.37-.745-1.11-.745h-1.478c-.738 0-.738.372-.738.745v1.858c0 .373 0 .745.737.745h1.478c.74 0 1.11-.372 1.11-.745v-1.858zM178.125 104.6c0-.372-.37-.744-.74-.744h-8.132c-.368 0-.738.372-.738.743v1.86c0 .372.37.744.738.744h8.13c.37 0 .742-.372.742-.745v-1.86zM171.84 99.02c0-.37-.368-.743-.738-.743h-1.85c-.368 0-.736.373-.736.743v1.86c0 .374.368.746.737.746h1.85c.37 0 .738-.372.738-.745v-1.86zM171.84 93.072c0-.373-.368-.745-.738-.745h-1.85c-.368 0-.736.372-.736.745v1.858c0 .373.368.745.737.745h1.85c.37 0 .738-.372.738-.745v-1.858zM177.754 99.02c0-.37-.37-.743-.74-.743h-1.846c-.37 0-.74.373-.74.743v1.86c0 .374.37.746.74.746h1.847c.37 0 .74-.372.74-.745v-1.86zM177.754 93.072c0-.373-.37-.745-.74-.745h-1.846c-.37 0-.74.372-.74.745v1.858c0 .373.37.745.74.745h1.847c.37 0 .74-.372.74-.745v-1.858zM183.298 104.6c0-.372-.37-.744-.74-.744h-1.848c-.37 0-.737.372-.737.743v1.86c0 .372.368.744.737.744h1.85c.37 0 .738-.372.738-.745v-1.86zM183.298 99.02c0-.37-.37-.743-.74-.743h-1.848c-.37 0-.737.373-.737.743v1.86c0 .374.368.746.737.746h1.85c.37 0 .738-.372.738-.745v-1.86zM183.298 93.072c0-.373-.37-.745-.74-.745h-1.848c-.37 0-.737.372-.737.745v1.858c0 .373.368.745.737.745h1.85c.37 0 .738-.372.738-.745v-1.858zM189.213 104.6c0-.372-.37-.744-.74-.744h-1.848c-.37 0-.74.372-.74.743v1.86c0 .372.37.744.74.744h1.848c.37 0 .74-.372.74-.745v-1.86zM189.213 99.02c0-.37-.37-.743-.74-.743h-1.848c-.37 0-.74.373-.74.743v1.86c0 .374.37.746.74.746h1.848c.37 0 .74-.372.74-.745v-1.86zM189.213 93.072c0-.373-.37-.745-.74-.745h-1.848c-.37 0-.74.372-.74.745v1.858c0 .373.37.745.74.745h1.848c.37 0 .74-.372.74-.745v-1.858z" fill="#969696"/></g></g></svg>