<?xml version="1.0" encoding="utf-8"?>
<svg version="1.1" xmlns="http://www.w3.org/2000/svg" xmlns:xlink="http://www.w3.org/1999/xlink" x="0px" y="0px" viewBox="0 0 52 52" style="enable-background:new 0 0 52 52;" xml:space="preserve">
  <style type="text/css">
    .st0{fill:#ffffff;}
  </style>
  <path class="st0" d="M26,0.4h-2v3.4c0.7,0,1.4-0.3,2-0.3c12.3,0,22.2,10.2,22.2,22.5S38.3,48.2,26,48.2S3.5,38.3,3.5,26v-0.3H0.4 V26c0,14,11.3,25.6,25.6,25.6C40,51.6,51.6,40,51.6,26S40,0.4,26,0.4L26,0.4z"/>
  <path class="st0" d="M39.7,17.5v1.4h-1h-3.1l-2.4,10.9l-0.7,3.4c0,0.3-0.3,0.3-0.3,0.3c0.3,0.3,0.7,1,0.7,1.4c0,1-1,2-2,2 c-1,0-1.7-1-1.7-2c0-0.3,0-0.7,0.3-1h-7.9c0.3,0.3,0.3,0.7,0.3,1c0,1-0.7,2-1.7,2c-1,0-1.7-1-1.7-2c0-0.3,0-0.7,0.3-1h-1.4h-0.3 h-0.7v-1.7h1h0.3h13l0.3-1.7H18.5h-0.7v-0.3v-0.3l-2-8.5v-1h1h0.7h16.4l0.3-2.7h0.7h0.3h3.4H39.7z"/>
</svg>