<svg xmlns="http://www.w3.org/2000/svg" viewBox="0 0 30 30">
  <defs>
    <style>
      .a {
        fill: #010101;
      }
    </style>
  </defs>
  <path class="a" d="M26.32,20.32v-10C26.36,4.64,21.3,0,15.08,0S3.76,4.64,3.76,10.34v10L0.15,26a0.86,0.86,0,0,0,0,.93,1,1,0,0,0,.86.42H12.3l0.06,0.42A2.63,2.63,0,0,0,15,30a2.59,2.59,0,0,0,2.68-2.18l0.06-.42H29a1.1,1.1,0,0,0,.89-0.46,1,1,0,0,0,0-.93ZM2.78,25.53L5.68,21a0.7,0.7,0,0,0,.09-0.39V10.34c0-4.7,4.14-8.51,9.31-8.51s9.31,3.85,9.31,8.57V20.63a0.7,0.7,0,0,0,.09.39v0.05l2.87,4.46H2.78Z"/>
</svg>