<svg width="175" height="153" viewBox="0 0 175 153" xmlns="http://www.w3.org/2000/svg" xmlns:xlink="http://www.w3.org/1999/xlink"><defs><path id="a" d="M18.71 19.59h132.84v8.397H18.71z"/><mask id="b" x="0" y="0" width="132.839" height="8.396" fill="#fff"><use xlink:href="#a"/></mask></defs><g transform="translate(.56)" fill="none" fill-rule="evenodd"><use stroke="#979797" mask="url(#b)" stroke-width="2" fill="#BA1D1E" xlink:href="#a"/><path fill="#FFF" d="M0 5.598h173.693V153H0z"/><path fill="#ED3B17" d="M0 5.598h173.693v29.854H0z"/><g transform="translate(8.42)" fill="#3E3842"><rect width="3.742" height="12.128" rx="1.871"/><rect x="6.548" width="3.742" height="12.128" rx="1.871"/></g><g transform="translate(26.778)" fill="#3E3842"><rect width="3.742" height="12.128" rx="1.871"/><rect x="6.548" width="3.742" height="12.128" rx="1.871"/></g><g transform="translate(45.137)" fill="#3E3842"><rect width="3.742" height="12.128" rx="1.871"/><rect x="6.548" width="3.742" height="12.128" rx="1.871"/></g><g transform="translate(63.496)" fill="#3E3842"><rect width="3.742" height="12.128" rx="1.871"/><rect x="6.548" width="3.742" height="12.128" rx="1.871"/></g><g transform="translate(118.573)" fill="#3E3842"><rect width="3.742" height="12.128" rx="1.871"/><rect x="6.548" width="3.742" height="12.128" rx="1.871"/></g><g transform="translate(136.93)" fill="#3E3842"><rect width="3.742" height="12.128" rx="1.871"/><rect x="6.548" width="3.742" height="12.128" rx="1.871"/></g><g transform="translate(81.855)" fill="#3E3842"><rect width="3.742" height="12.128" rx="1.871"/><rect x="6.548" width="3.742" height="12.128" rx="1.871"/></g><g transform="translate(100.214)" fill="#3E3842"><rect width="3.742" height="12.128" rx="1.871"/><rect x="6.548" width="3.742" height="12.128" rx="1.871"/></g><g transform="translate(155.29)" fill="#3E3842"><rect width="3.742" height="12.128" rx="1.871"/><rect x="6.548" width="3.742" height="12.128" rx="1.871"/></g><g transform="translate(155.29)" fill="#3E3842"><rect width="3.742" height="12.128" rx="1.871"/><rect x="6.548" width="3.742" height="12.128" rx="1.871"/></g><path fill="#D8D8D8" d="M58.644 46.646H71.35v12.728H58.644zM78.61 46.646h12.707v12.728H78.61zM98.578 46.646h12.706v12.728H98.578zM117.94 46.646h12.706v12.728H117.94z"/><path fill="#4766B3" d="M137.907 46.646h12.706v12.728h-12.706z"/><path fill="#ED3B17" d="M18.71 67.254h12.706v12.728H18.71z"/><path fill="#D8D8D8" d="M38.677 67.254h12.706v12.728H38.677zM58.644 67.254H71.35v12.728H58.644zM78.006 67.254h12.706v12.728H78.006zM97.973 67.254h12.706v12.728H97.972zM117.94 67.254h12.706v12.728H117.94z"/><path fill="#4766B3" d="M137.907 67.254h12.706v12.728h-12.706z"/><path fill="#ED3B17" d="M18.71 87.86h12.706v12.73H18.71z"/><path fill="#D8D8D8" d="M38.677 87.86h12.706v12.73H38.677zM58.644 87.86H71.35v12.73H58.644zM78.006 87.86h12.706v12.73H78.006zM97.973 87.86h12.706v12.73H97.972zM117.94 87.86h12.706v12.73H117.94z"/><path fill="#4766B3" d="M137.907 87.86h12.706v12.73h-12.706z"/><path fill="#ED3B17" d="M18.71 108.47h12.706v12.727H18.71z"/><path fill="#D8D8D8" d="M38.677 108.47h12.706v12.727H38.677zM58.644 108.47H71.35v12.727H58.644zM78.006 108.47h12.706v12.727H78.006zM97.973 108.47h12.706v12.727H97.972zM117.94 108.47h12.706v12.727H117.94z"/><path fill="#4766B3" d="M137.907 108.47h12.706v12.727h-12.706z"/><path fill="#ED3B17" d="M18.71 129.076h12.706v12.728H18.71z"/><path fill="#D8D8D8" d="M38.677 129.076h12.706v12.728H38.677zM58.644 129.076H71.35v12.728H58.644zM78.006 129.076h12.706v12.728H78.006zM97.973 129.076h12.706v12.728H97.972zM117.94 129.076h12.706v12.728H117.94z"/><path fill="#BA1D1E" d="M20.895 19.59h131.903v8.397H20.895z"/></g></svg>