<svg version="1.2" baseProfile="tiny" xmlns="http://www.w3.org/2000/svg" viewBox="0 0 94.9 100.4"><path fill="#FFB902" d="M47.1 100.4C21.2 100.4 0 79.2 0 53.3S21.2 6.1 47.1 6.1c26.6 0 47.8 21.2 47.8 47.1s-21.2 47.2-47.8 47.2z"/><path fill="#FAD117" d="M94.9 47.1c0 26.6-21.2 47.8-47.8 47.8C21.2 94.9 0 73.7 0 47.1 0 21.2 21.2 0 47.1 0c26.6 0 47.8 21.2 47.8 47.1"/><path fill="#FFB902" d="M84.6 47.1c0 20.5-17.1 37.6-37.5 37.6-19.8 0-36.9-17.1-36.9-37.6s17.1-36.9 36.9-36.9c20.5 0 37.5 16.4 37.5 36.9"/><path fill="#FFFC9E" stroke="#FFFC9E" d="M40 36.3h14.4l-7 10.5h-8.8v1.7h7.8l-7.8 11.4v.5h18.2v-1.7H41.4l7-10.2h8.4v-1.7h-7.4l7.7-11.7v-.6H40z"/><path fill="#FFFC9E" stroke="#FFFC9E" d="M47.9 68.1c-11.6 0-21-9.4-21-21s9.4-21 21-21 21 9.4 21 21-9.4 21-21 21m0-43.8c-12.5 0-22.7 10.2-22.7 22.8 0 12.6 10.2 22.8 22.7 22.8s22.7-10.2 22.7-22.8c.1-12.6-10.1-22.8-22.7-22.8"/></svg>