<svg width="82" height="88" viewBox="0 0 82 88" xmlns="http://www.w3.org/2000/svg"><path d="M68.905 31.8c1.964.997 3.738 2.227 5.324 3.692 1.585 1.464 2.937 3.095 4.054 4.89 1.118 1.798 1.98 3.73 2.583 5.8.604 2.067.906 4.203.906 6.407h-5.8c0-2.386-.46-4.635-1.38-6.75-.923-2.113-2.17-3.955-3.74-5.525-1.57-1.57-3.413-2.815-5.528-3.736-2.114-.922-4.364-1.383-6.75-1.383-2.387 0-4.638.46-6.752 1.382-2.115.92-3.957 2.165-5.528 3.735-1.57 1.57-2.817 3.412-3.738 5.526-.922 2.115-1.382 4.364-1.382 6.75 0 2.747-.627 5.36-1.88 7.835-1.254 2.476-2.984 4.53-5.19 6.16 1.965.996 3.74 2.226 5.325 3.69 1.586 1.465 2.938 3.096 4.056 4.892 1.117 1.797 1.978 3.73 2.582 5.798.605 2.068.907 4.204.907 6.408h-5.8c0-2.385-.46-4.635-1.382-6.748-.922-2.114-2.168-3.956-3.738-5.526-1.57-1.57-3.414-2.816-5.528-3.737-2.115-.92-4.365-1.382-6.752-1.382-2.386 0-4.636.462-6.75 1.383-2.115.92-3.958 2.166-5.53 3.736-1.57 1.57-2.816 3.41-3.737 5.525-.92 2.113-1.382 4.363-1.382 6.748h-5.8c0-2.204.302-4.34.906-6.408.605-2.07 1.466-4 2.583-5.798 1.118-1.796 2.47-3.427 4.056-4.89 1.586-1.466 3.36-2.696 5.325-3.693-2.206-1.63-3.935-3.683-5.19-6.16-1.252-2.475-1.88-5.087-1.88-7.835 0-2.386.462-4.635 1.383-6.75.92-2.113 2.167-3.955 3.738-5.525 1.57-1.57 3.414-2.815 5.528-3.736 2.115-.922 4.365-1.383 6.75-1.383 2.75 0 5.363.627 7.84 1.88 2.477 1.253 4.53 2.982 6.162 5.186 1.148-2.265 2.613-4.288 4.396-6.07 1.782-1.78 3.806-3.245 6.07-4.392-2.204-1.63-3.933-3.683-5.187-6.16-1.253-2.475-1.88-5.087-1.88-7.835 0-2.385.46-4.634 1.382-6.748.92-2.114 2.167-3.955 3.738-5.526 1.57-1.57 3.413-2.814 5.528-3.735 2.114-.92 4.365-1.38 6.75-1.38 2.388 0 4.638.46 6.752 1.38 2.115.92 3.958 2.166 5.528 3.736 1.57 1.572 2.817 3.413 3.74 5.527.92 2.114 1.38 4.363 1.38 6.748 0 2.748-.626 5.36-1.88 7.836-1.253 2.477-2.983 4.53-5.188 6.16zM28.26 63.257c1.42-.62 2.652-1.45 3.694-2.492 1.042-1.04 1.873-2.264 2.492-3.668.62-1.404.93-2.906.93-4.507 0-1.57-.31-3.065-.93-4.485-.62-1.42-1.45-2.65-2.492-3.69-1.042-1.042-2.273-1.873-3.693-2.492-1.42-.62-2.914-.928-4.485-.928-1.6 0-3.103.31-4.508.928-1.405.62-2.628 1.45-3.67 2.49-1.042 1.043-1.873 2.273-2.492 3.692-.62 1.42-.93 2.914-.93 4.484 0 1.6.31 3.102.93 4.506.62 1.404 1.45 2.627 2.492 3.668 1.042 1.042 2.265 1.873 3.67 2.492 1.405.62 2.907.928 4.508.928 1.57 0 3.066-.31 4.486-.928zm18.715-45.45c0 1.6.31 3.102.928 4.506.62 1.404 1.45 2.627 2.493 3.67 1.042 1.04 2.265 1.87 3.67 2.49 1.404.62 2.907.928 4.508.928 1.57 0 3.066-.31 4.486-.928 1.42-.62 2.65-1.45 3.693-2.49 1.042-1.043 1.873-2.266 2.492-3.67.62-1.404.93-2.906.93-4.507 0-1.57-.31-3.064-.93-4.483-.62-1.42-1.45-2.65-2.492-3.692-1.042-1.04-2.273-1.872-3.693-2.49-1.42-.62-2.915-.93-4.486-.93-1.6 0-3.104.31-4.508.93-1.405.618-2.628 1.45-3.67 2.49-1.043 1.042-1.873 2.272-2.493 3.692-.62 1.42-.928 2.913-.928 4.483z" fill="#000" fill-rule="evenodd"/></svg>