<svg width="162" height="108" viewBox="0 0 162 108" xmlns="http://www.w3.org/2000/svg" xmlns:xlink="http://www.w3.org/1999/xlink"><defs><path id="a" d="M0 107.17h161.18V.118H0z"/></defs><g fill="none" fill-rule="evenodd"><mask id="b" fill="#fff"><use xlink:href="#a"/></mask><path fill="#333" mask="url(#b)" d="M22.758 12.872L11.616 53.23H146.6l-9-40.358-10.713-7.222-17.57-.425-10.283 1.7H57.04L48.47 3.95l-15 2.974"/><path d="M137.172 12.447c-.43-.85-.857-2.974-1.286-3.4 0-.848-1.714-2.123-3.857-2.972C129.457 4.8 121.315.977 118.316.127c-2.57-.425-5.57-.425-7.285-.425-1.714 0-3.428.425-4.285.85-1.286.425-5.142 2.974-6.856 2.974H60.468c-2.143 0-6-2.55-6.856-2.974-.856-.425-3-.85-4.284-.85-1.714 0-4.714 0-7.714.425-3 .85-11.14 4.673-13.284 5.948-2.142.85-3.856 2.124-3.856 2.973-.43.85-1.714 3.824-1.714 3.824C27.9 9.898 41.612 5.65 47.183 5.65c5.142 0 7.285 5.098 11.14 9.77 5.144 7.223 6.43 8.072 10.286 8.072H90.89c3.856 0 5.142-.85 10.713-8.07 3.428-4.674 6-9.772 11.14-9.772 5.143 0 18.856 4.248 23.998 7.222l.43-.425z" fill="#000" mask="url(#b)"/><path d="M87.464 13.72c0 4.25-3.43 7.648-7.714 7.648-4.285 0-7.713-3.398-7.713-7.647 0-4.247 3.428-7.645 7.713-7.645s7.714 3.398 7.714 7.646z" fill="#FFF" mask="url(#b)"/><path d="M81.893 10.748c1.285-.85 2.142-1.7 3.857-2.124-1.715 0-3.857 0-5.57.85-2.144-.85-4.286-.85-6-.85 1.714.424 3 1.274 3.856 2.124-1.714 1.7-3 4.248-3.856 8.496 0 0 2.57-3.823 6-6.797 2.998 2.974 5.57 6.797 5.57 6.797-.857-4.248-2.143-6.797-3.857-8.496z" fill="#000" mask="url(#b)"/><path d="M136.315 9.898v0zM136.315 10.748h0z" fill="#505050" mask="url(#b)"/><path d="M142.314 17.545c-1.714-3.824-4.714-4.673-4.714-4.673s-.428 0-.428-.425l-.43.425c-5.14-2.974-18.854-7.222-23.996-7.222-5.142 0-7.713 5.098-11.14 9.77-5.572 7.223-6.858 8.072-10.714 8.072H68.61c-3.858 0-5.143-.85-10.286-8.07-3.856-4.674-6-9.772-11.14-9.772-5.572 0-19.284 4.248-24.426 7.222 0 0-3 .85-4.714 4.673C15.9 22.643-1.24 65.55-1.24 82.542c0 22.515 16.284 24.64 17.998 24.64 1.714 0 18.427-17.42 23.997-22.516 5.57-5.098 9.856-5.098 13.284-5.098h51.85c3.428 0 8.142 0 13.712 5.098 5.57 5.097 22.283 22.515 23.997 22.515 1.713 0 17.997-2.123 17.997-24.638 0-16.993-17.14-59.9-19.283-64.997z" fill="#333" mask="url(#b)"/><path d="M136.315 9.473v.425-.425zM135.886 9.048v.425-.425z" fill="#505050" mask="url(#b)"/><path d="M116.174 57.902c0 8.497-6.856 15.294-15.426 15.294-8.142 0-14.998-6.797-14.998-15.294 0-8.496 6.856-15.293 14.998-15.293 8.57 0 15.426 6.796 15.426 15.292z" fill="#737373" mask="url(#b)"/><path d="M114.46 57.902c0 7.222-6 13.17-13.712 13.17-7.285 0-13.284-5.948-13.284-13.17 0-7.222 6-13.17 13.284-13.17 7.713 0 13.712 5.948 13.712 13.17z" fill="#333" mask="url(#b)"/><path d="M72.037 57.902c0 7.222-6 13.17-13.284 13.17-7.285 0-13.284-5.948-13.284-13.17 0-7.222 5.998-13.17 13.283-13.17 7.285 0 13.284 5.948 13.284 13.17z" fill="#737373" mask="url(#b)"/><path d="M50.183 48.13c-3 2.126-4.714 5.95-4.714 9.772 0 7.222 5.998 13.17 13.283 13.17 4.285 0 7.713-1.7 10.284-4.25l-18.854-18.69z" fill="#000" mask="url(#b)"/><path d="M100.748 71.072c3.856 0 7.284-1.275 9.856-3.824L91.75 48.556c-2.572 2.124-4.286 5.523-4.286 9.346 0 7.222 6 13.17 13.284 13.17z" fill="#505050" mask="url(#b)"/><path d="M53.61 31.564c0 8.496-6.855 15.293-15.426 15.293-8.57 0-15.426-6.797-15.426-15.293 0-8.497 6.856-15.294 15.426-15.294S53.61 23.067 53.61 31.564z" fill="#737373" mask="url(#b)"/><path d="M51.468 31.564c0 7.222-6 13.17-13.284 13.17-7.285 0-13.284-5.948-13.284-13.17 0-7.222 6-13.17 13.284-13.17 7.285 0 13.284 5.948 13.284 13.17z" fill="#333" mask="url(#b)"/><path d="M38.184 44.733c3.857 0 7.285-1.7 9.428-3.823L28.757 21.793c-2.57 2.55-3.857 5.947-3.857 9.77 0 7.223 6 13.17 13.284 13.17z" fill="#505050" mask="url(#b)"/><path d="M127.316 43.034c0 3.398-2.57 5.947-6 5.947-3.428 0-6-2.548-6-5.946 0-3.4 2.572-5.948 6-5.948 3.43 0 6 2.55 6 5.948zM127.316 21.793c0 2.974-2.57 5.947-6 5.947-3.428 0-6-2.973-6-5.947 0-3.4 2.572-6.372 6-6.372 3.43 0 6 2.974 6 6.373zM138.03 32.413c0 3.4-3 5.948-6.43 5.948-3 0-5.998-2.548-5.998-5.947 0-3.398 3-5.947 6-5.947 3.427 0 6.427 2.55 6.427 5.947zM117.03 32.413c0 3.4-2.998 5.948-5.998 5.948-3.428 0-6.428-2.548-6.428-5.947 0-3.398 3-5.947 6.428-5.947 3 0 6 2.55 6 5.947z" fill="#000" mask="url(#b)"/><path d="M110.175 57.902c0 5.098-4.285 8.92-9.427 8.92-4.714 0-9-3.822-9-8.92s4.286-8.92 9-8.92c5.142 0 9.427 3.822 9.427 8.92z" fill="#505050" mask="url(#b)"/><path d="M72.466 32.838c0 2.124-1.715 3.823-3.857 3.823-2.144 0-4.286-1.698-4.286-3.822s2.142-3.823 4.285-3.823c2.14 0 3.856 1.7 3.856 3.823zM95.605 32.413c0 2.124-1.714 4.248-3.856 4.248-2.144 0-3.858-2.123-3.858-4.247 0-2.124 1.714-3.823 3.857-3.823 2.14 0 3.855 1.7 3.855 3.823z" fill="#000" mask="url(#b)"/><path d="M120.888 24.767v-2.55l-2.143-3.398h1.286l.858 1.274c.428.424.428.85.428 1.274.43-.425.43-.85.858-1.274l.857-1.275h1.286l-2.142 3.398v2.55h-1.286z" fill="#FCD116" mask="url(#b)"/><path d="M120.46 43.883l-.858 1.7h-.857l1.714-5.948h1.714l2.142 5.948h-1.285l-.856-1.7h-1.715zm1.714-.85l-.43-1.7s-.428-.423-.428-.848c0 .425 0 .85-.428.85l-.43 1.7h1.716z" fill="#7FBA00" mask="url(#b)"/><path d="M112.318 35.812l-.857-1.275c-.428-.424-.428-.85-.856-1.274 0 .425 0 .85-.43 1.274l-.427 1.275h-1.286l1.715-3.4-1.714-2.972h1.287l.428 1.274c.43.425.43.85.857.85 0-.425 0-.425.43-.85l.427-1.274h1.713l-2.142 2.973 2.143 3.4h-1.285z" fill="#00BCF2" mask="url(#b)"/><path d="M129.887 29.44h1.714c.858 0 1.286 0 1.715.424.43 0 .857.425.857.85 0 .85-.428 1.275-.857 1.7.43 0 1.285.424 1.285 1.274 0 .85-.428 1.274-.856 1.274-.43.425-1.286.85-2.143.85h-1.713V29.44zm1.285 2.55h.43c.856 0 1.284-.426 1.284-.85 0-.85-.428-.85-.857-.85h-.858v1.7zm0 2.972h.43c.856 0 1.713-.425 1.713-1.274 0-.425-.857-.85-1.714-.85h-.428v2.124z" fill="#E81123" mask="url(#b)"/><path d="M69.466 54.08h-6.428V47.28c0-.425-.857-1.275-1.285-1.275h-5.57c-.858 0-1.287.85-1.287 1.275v6.797H48.04c-.428 0-.857.424-.857 1.273v5.523c0 .425.43.85.857.85h6.856v6.797c0 .85.43 1.274 1.286 1.274h5.57c.43 0 1.286-.425 1.286-1.274v-6.797h6.428c.857 0 1.285-.425 1.285-.85v-5.523c0-.85-.427-1.274-1.284-1.274zM94.748 51.53c-1.714 1.7-3 3.823-3 6.372 0 5.098 4.286 8.92 9 8.92 3 0 5.142-.848 6.856-2.548L94.748 51.53z" fill="#737373" mask="url(#b)"/><path d="M47.183 31.564c0 5.097-3.857 8.92-9 8.92-5.14 0-8.998-3.823-8.998-8.92 0-5.098 3.857-8.92 9-8.92 5.14 0 8.998 3.822 8.998 8.92z" fill="#505050" mask="url(#b)"/><path d="M31.756 25.19c-1.714 1.276-2.57 3.825-2.57 6.374 0 5.097 3.856 8.92 8.998 8.92 2.57 0 4.714-.85 6.428-2.973L31.756 25.19z" fill="#737373" mask="url(#b)"/><path d="M69.466 54.08h-6.428V47.28c0-.425-.857-1.275-1.285-1.275h-5.57c-.858 0-1.287.85-1.287 1.275v6.797l8.142 7.646h6.428c.857 0 1.285-.425 1.285-.85v-5.523c0-.85-.427-1.274-1.284-1.274z" fill="#505050" mask="url(#b)"/><path d="M100.748 65.124c-3.857 0-7.285-2.974-7.285-7.222 0-3.823 3.428-7.222 7.285-7.222 4.285 0 7.713 3.4 7.713 7.222 0 4.248-3.427 7.222-7.712 7.222zm0-14.02c-3.428 0-6.428 2.975-6.428 6.798 0 3.824 3 6.797 6.428 6.797 3.856 0 6.856-2.974 6.856-6.798 0-3.823-3-6.797-6.856-6.797zM38.184 38.786c-4.285 0-7.285-2.974-7.285-7.222s3-7.222 7.284-7.222c3.857 0 7.285 2.974 7.285 7.222s-3.43 7.222-7.286 7.222zm0-14.02c-3.856 0-6.856 2.974-6.856 6.798 0 3.823 3 6.797 6.856 6.797 3.857 0 6.856-2.973 6.856-6.796 0-3.824-3-6.797-6.856-6.797z" fill="#000" mask="url(#b)"/></g></svg>