<?xml version="1.0" encoding="UTF-8"?>
<svg width="123px" height="133px" viewBox="0 0 123 133" version="1.1" xmlns="http://www.w3.org/2000/svg" xmlns:xlink="http://www.w3.org/1999/xlink">
    <!-- Generator: Sketch 42 (36781) - http://www.bohemiancoding.com/sketch -->
    <title>Page 1</title>
    <desc>Created with Sketch.</desc>
    <defs>
        <polygon id="path-1" points="16.1465878 15.6037381 0.528074324 15.6037381 0.528074324 0.0522205103 16.1465878 0.0522205103 16.1465878 15.6037381"></polygon>
        <polygon id="path-3" points="16.2801932 15.6037381 0.66167973 15.6037381 0.66167973 0.0522205103 16.2801932 0.0522205103 16.2801932 15.6037381"></polygon>
        <polygon id="path-5" points="16.1136027 15.6037381 0.49612973 15.6037381 0.49612973 0.0522205103 16.1136027 0.0522205103 16.1136027 15.6037381"></polygon>
        <polygon id="path-7" points="0 132.736839 153.245608 132.736839 153.245608 0 0 0"></polygon>
    </defs>
    <g id="Community-Hub" stroke="none" stroke-width="1" fill="none" fill-rule="evenodd">
        <g id="4.0a_Desktop_Gold_Community_Hub_Rearrange" transform="translate(-929.000000, -602.000000)">
            <g id="Overlay" transform="translate(300.000000, 90.000000)">
                <g id="Page-1" transform="translate(598.000000, 512.000000)">
                    <path d="M116.011322,101.971573 C116.350538,101.971573 116.689754,102.197307 116.689754,102.647735 L116.689754,107.155135 L111.597349,107.155135 L111.597349,102.647735 C111.597349,102.197307 111.824186,101.971573 112.163403,101.971573 L112.955254,101.971573 L112.955254,81.6867134 L115.331849,81.6867134 L115.331849,101.971573 L116.011322,101.971573 Z" id="Fill-1" fill="#FFB900"></path>
                    <path d="M116.011322,101.971573 L115.331849,101.971573 L115.331849,81.6867134 L114.426578,81.6867134 L114.426578,101.971573 L115.106051,101.971573 C115.445268,101.971573 115.784484,102.197307 115.784484,102.647735 L115.784484,107.155135 L116.689754,107.155135 L116.689754,102.647735 C116.689754,102.197307 116.350538,101.971573 116.011322,101.971573" id="Fill-3" fill="#FF8C00"></path>
                    <path d="M113.747834,81.6867134 L112.954942,81.6867134 L112.954942,101.971573 L112.163091,101.971573 C111.823874,101.971573 111.597036,102.197307 111.597036,102.647735 L111.597036,107.155135 L112.389928,107.155135 L112.389928,102.647735 C112.389928,102.197307 112.729145,101.971573 113.068361,101.971573 L113.747834,101.971573 L113.747834,81.6867134" id="Fill-5" fill="#FFC733"></path>
                    <polygon id="Fill-7" fill="#001F50" points="92.5346459 54.2339126 85.7440784 61.1078794 72.7289973 48.2608017 79.6329838 41.3868349"></polygon>
                    <path d="M78.0483446,42.6260838 C78.5009797,43.0775519 78.5009797,43.6403268 78.0483446,44.0917949 L75.4459527,46.6830557 C74.992277,47.1334836 74.4272635,47.1334836 74.0870068,46.6830557 L31.4196419,4.31058467 C31.0804257,3.85911652 31.0804257,3.29634169 31.4196419,2.9582607 L34.1364932,0.253612757 C34.4757095,-0.0844682358 35.1551824,-0.0844682358 35.4943986,0.253612757 L78.0483446,42.6260838 Z" id="Fill-9" fill="#001F50"></path>
                    <polygon id="Fill-11" fill="#FF8C00" points="149.284791 107.155551 139.551574 116.734166 82.3488986 60.5440643 91.9686959 50.9654496"></polygon>
                    <path d="M72.7293095,49.0499347 C72.5024716,49.0499347 72.2766743,49.0499347 72.1632554,48.8242006 C71.7106203,48.4861196 71.7106203,47.9233448 72.1632554,47.5852638 L78.953823,40.7102568 C79.2930392,40.3721758 79.8590932,40.3721758 80.1983095,40.7102568 C80.6509446,41.0483378 80.6509446,41.7244998 80.1983095,42.0625808 L73.4077419,48.8242006 C73.1819446,49.0499347 72.9551068,49.0499347 72.7293095,49.0499347" id="Fill-13" fill="#FFA940"></path>
                    <path d="M50.6599649,24.8204501 C50.433127,24.8204501 50.2073297,24.7081032 49.9804919,24.5957563 C49.6412757,24.2566351 49.6412757,23.6938603 49.9804919,23.3557793 L54.6213027,18.7349923 C54.9605189,18.3969113 55.526573,18.3969113 55.8657892,18.7349923 C56.2060459,19.0730733 56.2060459,19.6368883 55.8657892,19.9749693 L51.3383973,24.5957563 C51.1126,24.7081032 50.8857622,24.8204501 50.6599649,24.8204501" id="Fill-15" fill="#FFA940"></path>
                    <path d="M81.8965757,61.8971165 C81.6697378,61.8971165 81.4439405,61.7847696 81.2171027,61.6713824 C80.8778865,61.2209545 80.8778865,60.6571394 81.2171027,60.3190584 L91.7421703,49.8385476 C92.1948054,49.5004667 92.7608595,49.5004667 93.1011162,49.8385476 C93.4403324,50.1766286 93.4403324,50.7404437 93.1011162,51.1908716 L82.5750081,61.6713824 C82.3492108,61.7847696 82.122373,61.8971165 81.8965757,61.8971165" id="Fill-17" fill="#FFA940"></path>
                    <polygon id="Fill-19" fill="#FFA940" points="149.284791 107.155551 148.492939 107.94406 89.2528851 55.0224215 92.6481689 51.5292647"></polygon>
                    <polygon id="Fill-21" fill="#DB7A00" points="139.551574 116.734166 140.343426 116.058004 86.4236554 57.7270695 83.0283716 61.2202263"></polygon>
                    <path d="M151.661489,108.733193 C151.661489,107.831297 150.982016,107.155135 150.076746,107.155135 L98.9216919,107.155135 C98.0164216,107.155135 97.2245703,107.831297 97.2245703,108.733193 L97.2245703,113.35294 C97.2245703,114.254836 98.0164216,114.930998 98.9216919,114.930998 L150.076746,114.930998 C150.982016,114.930998 151.661489,114.254836 151.661489,113.35294 L151.661489,108.733193 Z" id="Fill-23" fill="#001F50"></path>
                    <g id="Group-27" transform="translate(71.797297, 117.133101)">
                        <mask id="mask-2" fill="white">
                            <use xlink:href="#path-1"></use>
                        </mask>
                        <g id="Clip-26"></g>
                        <path d="M0.528074324,7.82808335 C0.528074324,12.1107893 4.03677703,15.6039462 8.33733108,15.6039462 C12.6378851,15.6039462 16.1465878,12.1107893 16.1465878,7.82808335 C16.1465878,3.54537735 12.6378851,0.0522205103 8.33733108,0.0522205103 C4.03677703,0.0522205103 0.528074324,3.54537735 0.528074324,7.82808335" id="Fill-25" fill="#001F50" mask="url(#mask-2)"></path>
                    </g>
                    <g id="Group-30" transform="translate(103.013514, 117.133101)">
                        <mask id="mask-4" fill="white">
                            <use xlink:href="#path-3"></use>
                        </mask>
                        <g id="Clip-29"></g>
                        <path d="M0.66167973,7.82808335 C0.66167973,12.1107893 4.17038243,15.6039462 8.46989595,15.6039462 C12.7714905,15.6039462 16.2801932,12.1107893 16.2801932,7.82808335 C16.2801932,3.54537735 12.7714905,0.0522205103 8.46989595,0.0522205103 C4.17038243,0.0522205103 0.66167973,3.54537735 0.66167973,7.82808335" id="Fill-28" fill="#001F50" mask="url(#mask-4)"></path>
                    </g>
                    <g id="Group-33" transform="translate(126.945946, 117.133101)">
                        <mask id="mask-6" fill="white">
                            <use xlink:href="#path-5"></use>
                        </mask>
                        <g id="Clip-32"></g>
                        <path d="M0.49612973,7.82808335 C0.49612973,12.1107893 4.00483243,15.6039462 8.30538649,15.6039462 C12.6059405,15.6039462 16.1136027,12.1107893 16.1136027,7.82808335 C16.1136027,3.54537735 12.6059405,0.0522205103 8.30538649,0.0522205103 C4.00483243,0.0522205103 0.49612973,3.54537735 0.49612973,7.82808335" id="Fill-31" fill="#001F50" mask="url(#mask-6)"></path>
                    </g>
                    <path d="M89.1884757,91.7163802 L68.7033541,91.7163802 C61.2343541,100.280752 63.0448946,124.960664 63.0448946,124.960664 L83.5300162,124.960664 C83.5300162,124.960664 81.7194757,100.280752 89.1884757,91.7163802" id="Fill-34" fill="#FF8C00"></path>
                    <path d="M106.278105,115.043761 C106.391524,114.931414 106.504943,114.931414 106.504943,114.931414 L106.278105,114.931414 L106.278105,115.043761 Z" id="Fill-36" fill="#FF8C00"></path>
                    <path d="M88.7357365,115.043761 C88.8491554,114.931414 88.9625743,114.931414 89.0759932,114.931414 L88.7357365,114.931414 L88.7357365,115.043761 Z" id="Fill-38" fill="#FFA940"></path>
                    <path d="M71.646627,91.7163802 L68.7039784,91.7163802 C61.2339378,100.280752 63.0455189,124.960664 63.0455189,124.960664 L65.9881676,124.960664 C65.9881676,124.960664 64.1765865,100.280752 71.646627,91.7163802" id="Fill-40" fill="#FFA940"></path>
                    <mask id="mask-8" fill="white">
                        <use xlink:href="#path-7"></use>
                    </mask>
                    <g id="Clip-43"></g>
                    <polygon id="Fill-42" fill="#001F50" mask="url(#mask-8)" points="32.3254324 62.0092553 34.135973 62.0092553 34.135973 5.09930162 32.3254324 5.09930162"></polygon>
                    <path d="M151.661489,114.930998 L103.7883,114.930998 C103.7883,114.930998 103.674881,114.930998 103.561462,115.043345 L103.561462,91.7167963 L86.4726649,91.7167963 C79.0026243,100.281168 80.8142054,124.96108 80.8142054,124.96108 L151.661489,124.96108 C152.566759,124.96108 153.245192,124.284919 153.245192,123.383022 L153.245192,116.621403 C153.245192,115.720547 152.566759,114.930998 151.661489,114.930998" id="Fill-44" fill="#FFB900" mask="url(#mask-8)"></path>
                    <path d="M88.1703068,93.4067851 L103.561982,93.4067851 L103.561982,91.7163802 L86.4721446,91.7163802 C79.0031446,100.280752 80.8136851,124.960664 80.8136851,124.960664 L82.3984284,124.960664 C82.1715905,119.213288 81.8323743,100.618833 88.1703068,93.4067851" id="Fill-45" fill="#FFCB40" mask="url(#mask-8)"></path>
                    <path d="M80.7005784,123.834074 L80.7005784,123.721728 L80.7005784,123.834074 Z" id="Fill-46" fill="#F08400" mask="url(#mask-8)"></path>
                    <path d="M151.661489,114.930998 L151.661489,121.24219 C151.661489,122.144086 150.982016,122.932595 150.076746,122.932595 L82.2855297,122.932595 C82.2855297,123.721103 82.3979081,124.397265 82.3979081,124.96108 L151.661489,124.96108 C152.566759,124.96108 153.245192,124.284919 153.245192,123.383022 L153.245192,116.621403 C153.245192,115.720547 152.566759,115.043345 151.661489,114.930998" id="Fill-47" fill="#DB9D00" mask="url(#mask-8)"></path>
                    <path d="M100.393016,114.930998 L100.393016,95.3223 L88.3966243,95.3223 C84.7745027,99.605006 83.8692324,108.733193 83.8692324,114.930998 L100.393016,114.930998 Z" id="Fill-48" fill="#001F50" mask="url(#mask-8)"></path>
                    <path d="M100.393016,114.930998 C100.393016,114.930998 93.3756108,103.549631 88.3966243,95.3223 C84.7745027,99.605006 83.8692324,108.733193 83.8692324,114.930998 L100.393016,114.930998 Z" id="Fill-49" fill="#006FC8" mask="url(#mask-8)"></path>
                    <path d="M84.3220757,124.961185 C84.3220757,129.243891 87.8307784,132.737047 92.1313324,132.737047 C96.3184676,132.737047 99.8271703,129.243891 99.8271703,124.961185 C99.8271703,120.678479 96.3184676,117.185322 92.1313324,117.185322 C87.8307784,117.185322 84.3220757,120.678479 84.3220757,124.961185" id="Fill-50" fill="#001F50" mask="url(#mask-8)"></path>
                    <path d="M87.943677,124.961185 C87.943677,127.215405 89.7542176,129.130503 92.1308122,129.130503 C94.3950284,129.130503 96.2055689,127.215405 96.2055689,124.961185 C96.2055689,122.706964 94.3950284,120.790825 92.1308122,120.790825 C89.7542176,120.790825 87.943677,122.706964 87.943677,124.961185" id="Fill-51" fill="#FF8C00" mask="url(#mask-8)"></path>
                    <path d="M132.082262,124.961185 C132.082262,129.243891 135.590965,132.737047 139.890478,132.737047 C144.192073,132.737047 147.699735,129.243891 147.699735,124.961185 C147.699735,120.678479 144.192073,117.185322 139.890478,117.185322 C135.590965,117.185322 132.082262,120.678479 132.082262,124.961185" id="Fill-52" fill="#001F50" mask="url(#mask-8)"></path>
                    <path d="M115.558686,124.961185 C115.558686,129.243891 119.067389,132.737047 123.367943,132.737047 C127.668497,132.737047 131.063781,129.243891 131.063781,124.961185 C131.063781,120.678479 127.668497,117.185322 123.367943,117.185322 C119.067389,117.185322 115.558686,120.678479 115.558686,124.961185" id="Fill-53" fill="#001F50" mask="url(#mask-8)"></path>
                    <path d="M92.1312284,129.130815 C93.2633365,129.130815 94.2809851,128.679347 94.9604581,127.890838 L89.0751608,122.031115 C88.3967284,122.819623 87.9440932,123.833866 87.9440932,124.961497 C87.9440932,127.214676 89.7546338,129.130815 92.1312284,129.130815" id="Fill-54" fill="#FFA940" mask="url(#mask-8)"></path>
                    <path d="M75.7208635,119.100629 L67.2321338,119.100629 C66.7805392,119.100629 66.5537014,118.762548 66.5537014,118.424467 C66.5537014,118.086386 66.7805392,117.748305 67.2321338,117.748305 L75.7208635,117.748305 C76.0600797,117.748305 76.4003365,118.086386 76.4003365,118.424467 C76.4003365,118.762548 76.0600797,119.100629 75.7208635,119.100629" id="Fill-55" fill="#FFA940" mask="url(#mask-8)"></path>
                    <path d="M75.7208635,122.14367 L67.2321338,122.14367 C66.7805392,122.14367 66.5537014,121.917935 66.5537014,121.467508 C66.5537014,121.129427 66.7805392,120.791346 67.2321338,120.791346 L75.7208635,120.791346 C76.0600797,120.791346 76.4003365,121.129427 76.4003365,121.467508 C76.4003365,121.917935 76.0600797,122.14367 75.7208635,122.14367" id="Fill-56" fill="#FFA940" mask="url(#mask-8)"></path>
                    <path d="M67.4590757,95.3227161 C64.9690622,100.844359 64.0637919,108.733609 63.950373,115.043761 L79.0028324,115.043761 C79.1162514,108.733609 80.0215216,100.844359 82.5115351,95.3227161 L67.4590757,95.3227161 Z" id="Fill-57" fill="#001F50" mask="url(#mask-8)"></path>
                    <path d="M67.4590757,95.3227161 C64.9690622,100.844359 64.0637919,108.733609 63.950373,115.043761 L79.0028324,115.043761 C79.1162514,108.733609 67.4590757,95.3227161 67.4590757,95.3227161" id="Fill-58" fill="#006FC8" mask="url(#mask-8)"></path>
                    <path d="M135.703864,124.961185 C135.703864,127.215405 137.627823,129.130503 139.890999,129.130503 C142.154174,129.130503 144.078134,127.215405 144.078134,124.961185 C144.078134,122.706964 142.154174,120.790825 139.890999,120.790825 C137.627823,120.790825 135.703864,122.706964 135.703864,124.961185" id="Fill-59" fill="#FF8C00" mask="url(#mask-8)"></path>
                    <path d="M119.180184,124.961185 C119.180184,127.215405 120.990724,129.130503 123.367319,129.130503 C125.631535,129.130503 127.442076,127.215405 127.442076,124.961185 C127.442076,122.706964 125.631535,120.790825 123.367319,120.790825 C120.990724,120.790825 119.180184,122.706964 119.180184,124.961185" id="Fill-60" fill="#FF8C00" mask="url(#mask-8)"></path>
                    <path d="M123.367735,129.130815 C124.498803,129.130815 125.517492,128.679347 126.196965,127.890838 L120.425086,122.031115 C119.633235,122.819623 119.1806,123.833866 119.1806,124.961497 C119.1806,127.214676 120.991141,129.130815 123.367735,129.130815" id="Fill-61" fill="#FFA940" mask="url(#mask-8)"></path>
                    <path d="M139.890895,129.130815 C141.023003,129.130815 142.041692,128.679347 142.833543,127.890838 L136.948246,122.031115 C136.156395,122.819623 135.703759,123.833866 135.703759,124.961497 C135.703759,127.214676 137.627719,129.130815 139.890895,129.130815" id="Fill-62" fill="#FFA940" mask="url(#mask-8)"></path>
                </g>
            </g>
        </g>
    </g>
</svg>