<svg width="97" height="97" viewBox="0 0 97 97" xmlns="http://www.w3.org/2000/svg"><g stroke="#000" stroke-width="4" fill="none" fill-rule="evenodd"><path d="M23.384 94.466H73.85c0-12.153-9.648-22.16-22.103-23.62v-7.123c11.523-1.45 20.42-10.74 20.42-22.015 0-.714 6.485-39.522 6.485-39.522h-60.07s6.484 38.808 6.484 39.522c0 11.274 8.898 20.564 20.42 22.015v7.127c-12.453 1.457-22.102 11.463-22.102 23.616z"/><path d="M25.175 42.663c-.395.267-.818.493-1.265.682C17.983 45.79 9.533 39.902 5.03 30.19.525 20.478 1.684 10.62 7.61 8.175c3.702-1.53 8.395.194 12.495 4.076M72.06 42.663c.393.267.814.493 1.264.682 5.926 2.445 14.38-3.443 18.88-13.154 4.5-9.713 3.345-19.57-2.582-22.016-3.704-1.53-8.394.194-12.493 4.076"/></g></svg>