<?xml version="1.0" encoding="UTF-8"?>
<svg width="19px" height="52px" viewBox="0 0 19 52" version="1.1" xmlns="http://www.w3.org/2000/svg" xmlns:xlink="http://www.w3.org/1999/xlink">
    <!-- Generator: Sketch 42 (36781) - http://www.bohemiancoding.com/sketch -->
    <title>Group 5</title>
    <desc>Created with Sketch.</desc>
    <defs></defs>
    <g id="Community-Hub" stroke="none" stroke-width="1" fill="none" fill-rule="evenodd">
        <g id="4.0d_Desktop_Gold_Community_Hub_Squad" transform="translate(-258.000000, -905.000000)" fill="#FFFFFF">
            <g id="Group-5" transform="translate(258.000000, 905.000000)">
                <path d="M13.1668908,2.64556977 L13.1668908,2.64556977 C14.9662782,4.36272886 16.5776872,6.27035159 17.9982998,8.46532886 C18.2824223,8.27469932 18.4717268,8.17930159 18.7560151,7.98751068 L18.7560151,0.1658925 C16.7671575,0.737781136 14.8716259,1.59702432 13.1668908,2.64556977" id="Fill-9"></path>
                <path d="M-3.69482223e-13,43.6637555 L-3.69482223e-13,43.6637555 L-3.69482223e-13,51.5819327 C1.89420541,50.9133191 3.78841081,50.1508009 5.58895856,49.1009282 C3.69359279,47.383935 2.08350991,45.4761464 0.757715315,43.2823305 C0.473427027,43.4731259 0.18947027,43.5683577 -3.69482223e-13,43.6637555" id="Fill-12"></path>
                <path d="M11.3675034,25.7302768 L11.3675034,25.7302768 L11.4621557,26.3988905 C11.5569737,30.5001632 13.2617088,34.3157405 16.1975863,37.0826064 C17.9036476,33.5532223 18.7560151,29.6410859 18.7560151,25.7302768 C18.7560151,13.9026177 11.0833809,3.60016091 -4.972973e-05,0.166008636 L-4.972973e-05,7.98746091 C6.91503495,11.1357518 11.3675034,18.0040564 11.3675034,25.7302768" id="Fill-14"></path>
                <path d="M2.5571027,14.5699373 L2.5571027,14.5699373 C0.852367568,18.0993214 -3.69482223e-13,22.0101305 -3.69482223e-13,25.9209395 C-3.69482223e-13,34.1251441 3.69359279,41.7559668 10.0402667,46.9072782 L10.1349189,47.00251 C12.788,49.1010941 15.6292252,50.6274577 18.7558991,51.5819327 L18.7558991,43.6637555 C17.524591,43.0918668 16.2922883,42.4245805 15.1556324,41.5653373 C10.3255495,37.9405555 7.38851171,32.1221236 7.38851171,26.0163373 L7.29369369,25.8257077 L7.29369369,25.73031 C7.29369369,21.4382418 5.58895856,17.4322009 2.5571027,14.5699373 Z" id="Fill-17"></path>
            </g>
        </g>
    </g>
</svg>