<?xml version="1.0" encoding="UTF-8"?>
<svg width="20px" height="12px" viewBox="0 0 20 12" version="1.1" xmlns="http://www.w3.org/2000/svg" xmlns:xlink="http://www.w3.org/1999/xlink">
    <!-- Generator: Sketch 42 (36781) - http://www.bohemiancoding.com/sketch -->
    <title>Filter</title>
    <desc>Created with Sketch.</desc>
    <defs></defs>
    <g id="Page-1" stroke="none" stroke-width="1" fill="none" fill-rule="evenodd">
        <g id="5.0b_Mobile_Rewards_Hub_Quantity-Remaining" transform="translate(-17.000000, -1481.000000)" fill="#221F20">
            <g id="Filter" transform="translate(17.000000, 1481.000000)">
                <path d="M17.9984,1.2 L19.1984,1.2 L19.1984,0 L17.9984,0 L17.9984,1.2 Z M0,1.2 L15.5984,1.2 L15.5984,0 L0,0 L0,1.2 Z M17.9984,4.8 L19.1984,4.8 L19.1984,3.6 L17.9984,3.6 L17.9984,4.8 Z M0,4.8 L15.5984,4.8 L15.5984,3.6 L0,3.6 L0,4.8 Z M17.9984,8.4 L19.1984,8.4 L19.1984,7.2 L17.9984,7.2 L17.9984,8.4 Z M0,8.4 L15.5984,8.4 L15.5984,7.2 L0,7.2 L0,8.4 Z M17.9984,12 L19.1984,12 L19.1984,10.8 L17.9984,10.8 L17.9984,12 Z M0,12 L15.5984,12 L15.5984,10.8 L0,10.8 L0,12 Z" id="Page-1"></path>
            </g>
        </g>
    </g>
</svg>