<svg xmlns="http://www.w3.org/2000/svg" viewBox="0 0 31 30">
  <defs>
    <style>
      .a {
        fill: #666;
      }
    </style>
  </defs>
  <path class="a" d="M27.77,8.71c0,0.27,0,.54,0,0.82,0,8.37-6.37,18-18,18A17.93,17.93,0,0,1,.07,24.7a13,13,0,0,0,1.51.09,12.71,12.71,0,0,0,7.86-2.71,6.34,6.34,0,0,1-5.92-4.4,6.27,6.27,0,0,0,1.19.11,5.13,5.13,0,0,0,1.52-.22A6.47,6.47,0,0,1,1,11.36V11.28a7.55,7.55,0,0,0,3,.79A6.27,6.27,0,0,1,1.28,6.8a6.36,6.36,0,0,1,.9-3.19,18,18,0,0,0,13.07,6.62A6.34,6.34,0,0,1,26.06,4.45a12.6,12.6,0,0,0,4-1.53,6.34,6.34,0,0,1-2.78,3.5,12.69,12.69,0,0,0,3.64-1A12.85,12.85,0,0,1,27.77,8.71Z"/>
</svg>
