<svg width="164" height="79" viewBox="0 0 164 79" xmlns="http://www.w3.org/2000/svg"><path d="M125.03 59.98h-1.826c-5.662 0-11.14-2.37-15.157-6.56l-13.33-14.033 13.15-14.033c3.832-4.19 9.31-6.56 15.153-6.56h1.826c11.323 0 20.634 9.294 20.634 20.593 0 11.298-9.13 20.593-20.45 20.593zm-68.292-6.56c-3.835 4.19-9.313 6.56-15.156 6.56h-1.826c-11.322 0-20.634-9.295-20.634-20.593v-.547c0-5.65 2.19-10.934 6.39-14.943 3.835-3.645 8.946-5.832 14.244-5.832h2.373c5.478.182 10.59 2.55 14.24 6.56l13.696 14.58L56.738 53.42zM125.03.57h-1.826c-10.773 0-21.183 4.556-28.487 12.392l-12.415 13.12L69.52 12.417C62.58 4.944 52.903.57 42.675.024h-1.46C30.626-.34 20.4 3.486 12.732 10.776 5.06 18.246.678 28.088.678 38.84v.547c0 21.504 17.532 38.816 38.896 38.816H41.4c10.773 0 21.18-4.556 28.485-12.392L82.12 52.69 94.35 65.81c7.304 7.837 17.712 12.393 28.487 12.393h1.825c21.547 0 38.894-17.495 38.894-38.816C163.56 18.065 146.392.57 125.03.57z" fill="#FFF" fill-rule="evenodd"/></svg>