<svg width="54" height="54" viewBox="0 0 54 54" xmlns="http://www.w3.org/2000/svg"><path d="M25.2 39.6h3.6v-18h-3.6v18zm0-21.6h3.6v-3.6h-3.6V18zM27 3.6c-2.155 0-4.23.283-6.216.845-1.987.56-3.85 1.35-5.582 2.36-1.733 1.014-3.312 2.233-4.738 3.66C9.038 11.89 7.82 13.468 6.806 15.2c-1.012 1.732-1.8 3.6-2.36 5.596C3.882 22.795 3.6 24.864 3.6 27s.283 4.205.845 6.202c.56 1.996 1.35 3.864 2.36 5.596 1.014 1.733 2.233 3.312 3.66 4.738 1.425 1.426 3.004 2.645 4.737 3.658 1.732 1.012 3.595 1.8 5.582 2.36 1.987.563 4.06.846 6.216.846 2.136 0 4.205-.283 6.202-.845 1.996-.56 3.864-1.35 5.596-2.36 1.733-1.014 3.312-2.233 4.738-3.66 1.426-1.425 2.645-3.004 3.658-4.737 1.012-1.732 1.8-3.595 2.36-5.582.563-1.987.846-4.06.846-6.216 0-2.136-.283-4.205-.845-6.202-.56-1.996-1.35-3.864-2.36-5.596-1.014-1.733-2.233-3.312-3.66-4.738C42.11 9.038 40.532 7.82 38.8 6.806c-1.732-1.012-3.6-1.8-5.596-2.36C31.205 3.882 29.136 3.6 27 3.6zM27 54c-2.496 0-4.89-.317-7.186-.955-2.3-.64-4.45-1.546-6.456-2.717-2.006-1.17-3.83-2.578-5.467-4.22-1.64-1.636-3.047-3.46-4.218-5.466-1.17-2.007-2.078-4.157-2.717-6.456C.317 31.89 0 29.496 0 27c0-2.496.317-4.89.955-7.186.64-2.3 1.546-4.45 2.717-6.456 1.17-2.006 2.578-3.83 4.22-5.467 1.636-1.64 3.46-3.047 5.466-4.218 2.007-1.17 4.157-2.078 6.456-2.717C22.11.317 24.504 0 27 0c2.496 0 4.89.317 7.186.955 2.3.64 4.45 1.546 6.456 2.717 2.006 1.17 3.83 2.578 5.467 4.22 1.64 1.636 3.047 3.46 4.218 5.466 1.17 2.007 2.078 4.157 2.717 6.456.638 2.295.955 4.69.955 7.186 0 2.496-.317 4.89-.955 7.186-.64 2.3-1.546 4.45-2.717 6.456-1.17 2.006-2.578 3.83-4.22 5.467-1.636 1.64-3.46 3.047-5.466 4.218-2.007 1.17-4.157 2.078-6.456 2.717-2.295.638-4.69.955-7.186.955z" fill="#FFF" fill-rule="evenodd"/></svg>