<svg xmlns="http://www.w3.org/2000/svg" viewBox="0 0 212 44">
  <defs>
    <style>
      .a {
        fill: #010101;
      }
    </style>
  </defs>
  <path class="a" d="M210.55,19.83a5.6,5.6,0,0,0-4.74-2.16,6.65,6.65,0,0,0-5.37,2.48,9.23,9.23,0,0,0-2.06,6.11,9.63,9.63,0,0,0,2,6.49,6.49,6.49,0,0,0,5.18,2.3,9.72,9.72,0,0,0,5.75-1.83V31.63a8.91,8.91,0,0,1-5.45,2.06,5.32,5.32,0,0,1-4.34-1.92,8.22,8.22,0,0,1-1.58-5.34H212.2V25.77h0A9.56,9.56,0,0,0,210.55,19.83ZM200,25.06v0h0a7.49,7.49,0,0,1,1.89-4.45A5.16,5.16,0,0,1,205.72,19a4.27,4.27,0,0,1,3.53,1.59A7.23,7.23,0,0,1,210.63,25H200v0Z"/>
  <path class="a" d="M194.37,19.45a8,8,0,0,1,1.42,5.11V34.65H194.3V25q0-6-4.31-6a5,5,0,0,0-4,1.78,6.37,6.37,0,0,0-1.54,4.35v9.52H183V18.07h1.49v3h0.07a6,6,0,0,1,5.66-3.41,5,5,0,0,1,4.12,1.79h0Z"/>
  <path class="a" d="M178.15,20a7.13,7.13,0,0,0-5.61-2.31h0A7.7,7.7,0,0,0,166.67,20a9.06,9.06,0,0,0-2.2,6.46,9,9,0,0,0,2.11,6.21,8.09,8.09,0,0,0,11.44,0l0,0a9.17,9.17,0,0,0,2.1-6.27A9.38,9.38,0,0,0,178.15,20ZM177,31.75h0a5.63,5.63,0,0,1-4.6,1.94,5.83,5.83,0,0,1-4.65-2,7.82,7.82,0,0,1-1.75-5.2A8,8,0,0,1,167.77,21a5.91,5.91,0,0,1,4.66-2A5.67,5.67,0,0,1,177,20.92a8.14,8.14,0,0,1,1.61,5.43A8.19,8.19,0,0,1,177,31.75Z"/>
  <polygon class="a" points="148.41 11.43 163.81 11.43 163.81 11.86 149.69 33.19 163.59 33.19 163.59 34.64 147.27 34.64 147.27 34.14 161.27 12.9 148.39 12.9 148.41 11.43"/>
  <path class="a" d="M138.82,18.07h4V21h-4v8.29a3.29,3.29,0,0,0,.53,2.11,2.26,2.26,0,0,0,1.78.63,2.54,2.54,0,0,0,1.66-.55v3a6.59,6.59,0,0,1-2.91.55q-4.82,0-4.81-4.62V21H132.3V18.08h2.77V14.24l3.75-1.06v4.89Z"/>
  <path class="a" d="M129.52,17.77a3.18,3.18,0,0,1,1.54.31v3.56a3.1,3.1,0,0,0-2-.53,3.34,3.34,0,0,0-2.78,1.5,6.66,6.66,0,0,0-1.12,4.1v7.93h-3.77V18.07h3.77v3.41h0.06a5.72,5.72,0,0,1,1.69-2.72,3.79,3.79,0,0,1,2.56-1h0.05Z"/>
  <path class="a" d="M117.15,19.87a6.56,6.56,0,0,0-5.27-2.19l0,0a7.52,7.52,0,0,0-5.69,2.44,8.81,8.81,0,0,0-2.29,6.31,9,9,0,0,0,2.06,6.3A7.38,7.38,0,0,0,111.73,35a11.18,11.18,0,0,0,6-1.42v-3a8.16,8.16,0,0,1-4.87,1.59,5.29,5.29,0,0,1-3.72-1.25,4.78,4.78,0,0,1-1.41-3.54H119V25.93A9.1,9.1,0,0,0,117.15,19.87Zm-9.41,4.85a5.42,5.42,0,0,1,1.38-3.1,3.64,3.64,0,0,1,2.74-1.18,3.19,3.19,0,0,1,2.59,1.13,4.82,4.82,0,0,1,1,3.15h-7.71Z"/>
  <path class="a" d="M100.38,19.87a5.94,5.94,0,0,0-4.92-2.22l0,0A6.14,6.14,0,0,0,89.81,21H89.74V18.07H86v24.2h3.75V32.21h0.07A5.42,5.42,0,0,0,94.7,35a6.58,6.58,0,0,0,5.44-2.49,10.27,10.27,0,0,0,2-6.64A9.31,9.31,0,0,0,100.38,19.87ZM97.1,30.43h0A3.82,3.82,0,0,1,93.81,32a3.78,3.78,0,0,1-2.94-1.26,4.38,4.38,0,0,1-1.16-3.07V25.66a5.23,5.23,0,0,1,1.23-3.56,4.05,4.05,0,0,1,3.23-1.42,3.63,3.63,0,0,1,3,1.38,6,6,0,0,1,1.12,3.83A7.63,7.63,0,0,1,97.1,30.43Z"/>
  <path class="a" d="M84.23,18.07l-5.52,8.38,5.45,8.19H79.81L76.9,29.52c-0.17-.31-0.39-0.71-0.64-1.2H76.19a8.24,8.24,0,0,1-.68,1.2l-3,5.13H68.2l5.63-8.12-5.34-8.45h4.37l2.87,5.39c0.21,0.4.43,0.81,0.63,1.23h0l3.71-6.62h4.16Z"/>
  <polygon class="a" points="58.14 31.39 67.32 31.39 67.32 34.65 54.32 34.65 54.32 11.43 66.8 11.43 66.8 14.7 58.14 14.7 58.14 21.28 66.14 21.28 66.14 24.53 58.14 24.53 58.14 31.39"/>
  <path class="a" d="M-0.2,0V44h44V0h-44ZM19.88,16.11H11v4.55h8.88v2.68H11V27.9h8.88v2.67H8.32V13.44H19.88v2.67ZM34.53,27.89v2.67H21.11l9.28-14.45H22.24V13.44H35.3L26,27.89h8.53Z"/>
</svg>