<svg width="96" height="69" viewBox="0 0 96 69" xmlns="http://www.w3.org/2000/svg"><g fill="#000" fill-rule="evenodd"><path d="M34.1 44.848c-1.712 0-3.454-.107-5.343-.327-.594-.07-1.18.137-1.604.552-4.427 4.332-13.633 6.674-17.684 7.46 2.105-2.517 5.768-7.345 5.93-10.64.036-.754-.352-1.464-1.01-1.835-5.974-3.38-9.99-9.467-9.99-15.152 0-10.628 13.88-19.947 29.7-19.947 15.818 0 29.697 9.315 29.697 19.943 0 10.63-13.88 19.948-29.698 19.948m33.656-19.943C67.756 11.93 52.34.968 34.1.968 15.855.968.44 11.93.44 24.905c0 6.654 4.265 13.672 10.747 17.865-.875 2.342-3.773 6.172-5.9 8.525-.04.044-.08.092-.114.14-.5.59-.773 1.32-.773 2.086 0 1.817 1.51 3.293 3.358 3.293.127 0 14.113-1.804 21.454-8.223 1.695.168 3.307.252 4.887.252 18.24 0 33.656-10.963 33.656-23.937"/><path d="M84.74 54.734c6.478-4.193 10.742-11.21 10.742-17.865 0-10.022-9.503-19.337-23.116-22.66-1.066-.264-2.135.394-2.392 1.467-.258 1.074.392 2.15 1.457 2.41 11.64 2.84 20.09 10.74 20.09 18.782 0 5.68-4.016 11.772-9.992 15.15-.657.368-1.045 1.083-1.01 1.837.15 3.107 3.362 7.548 5.924 10.623-4.213-.813-13.29-3.147-17.676-7.444-.428-.415-1.022-.626-1.604-.55-1.888.22-3.635.327-5.34.327-6.57 0-12.882-1.552-18.26-4.496-.962-.527-2.162-.164-2.684.8-.523.967-.167 2.18.796 2.706 5.955 3.26 12.92 4.983 20.147 4.983 1.58 0 3.188-.084 4.887-.25 7.34 6.422 21.327 8.225 21.454 8.225 1.854 0 3.36-1.475 3.363-3.294 0-.83-.325-1.632-.887-2.226-2.07-2.282-5.01-6.18-5.896-8.526"/></g></svg>