<svg xmlns="http://www.w3.org/2000/svg" xmlns:xlink="http://www.w3.org/1999/xlink" viewBox="0 0 141 30">
  <defs>
    <style>
      .a {
        fill: #fff;
      }

      .b {
        fill: #f25022;
      }

      .c {
        fill: #80ba01;
      }

      .d {
        mask: url(#a);
      }

      .e {
        fill: #777;
      }

      .f {
        mask: url(#b);
      }

      .g {
        fill: #02a4ef;
      }

      .h {
        fill: #ffb902;
      }
    </style>
  </defs>
  <path class="b" d="M0.37-.25l14.24,0q0,7.12,0,14.24L0.39,14Z"/>
  <path class="c" d="M16.06-.28l14.24,0q0,7.12,0,14.24L16.09,14q0-7.12,0-14.24"/>
  <path class="e" d="M128.83,4.93a5.59,5.59,0,0,1,4.49-.54c0,0.88,0,1.76,0,2.64a2.94,2.94,0,0,0-2.27-.2,1.8,1.8,0,0,0-1,1.44,19.37,19.37,0,0,0-.05,2.31h4.51c0-1,0-2,0-2.93,1-.29,2-0.62,3-0.93,0,1.28,0,2.57,0,3.86,1,0,2,0,3,0v2.5c-1,0-2,0-3.06,0,0,1.44,0,2.88,0,4.32,0,0.8,0,1.6.05,2.39a1.55,1.55,0,0,0,.67,1.23,2.3,2.3,0,0,0,2.34-.22v2.53a6,6,0,0,1-2.82.44,3.43,3.43,0,0,1-2.43-1.11,4.6,4.6,0,0,1-.88-2.94c0-2.21,0-4.41,0-6.62H130q0,5.2,0,10.39h-3.08q0-5.19,0-10.39c-0.71,0-1.43,0-2.14,0,0-.82,0-1.65,0-2.47,0.71,0,1.42,0,2.14,0a13.13,13.13,0,0,1,.21-3.28,4.2,4.2,0,0,1,1.73-2.37"/>
  <path class="e" d="M62.87,5.24a1.88,1.88,0,0,1,1.71.6,1.76,1.76,0,0,1,.22,2,1.92,1.92,0,0,1-2,.86A1.74,1.74,0,0,1,61.31,7a1.78,1.78,0,0,1,1.56-1.75"/>
  <path class="e" d="M39.26,5.66h4.48Q45.84,11,48,16.27c0.36,0.88.69,1.78,1.07,2.66,1.79-4.43,3.6-8.85,5.37-13.28,1.44,0,2.87,0,4.31,0q0,9,0,18c-1,0-2.07,0-3.11,0,0-4.42,0-8.84,0-13.26,0-.2,0-0.4,0-0.6a2.37,2.37,0,0,0-.16.29c-1.77,4.53-3.58,9-5.34,13.57-0.74,0-1.48,0-2.21,0C46,19.1,44.21,14.57,42.37,10c0-.09-0.1-0.19-0.16-0.27,0,1.94,0,3.87,0,5.81q0,4,0,8H39.29q0-9,0-18"/>
  <path class="e" d="M71.36,10.68a8.43,8.43,0,0,1,4.58,0,3.69,3.69,0,0,1,.88.36c0,1,0,2,0,2.95a4.89,4.89,0,0,0-3.52-1.07,3.62,3.62,0,0,0-2.56,1.43,5,5,0,0,0-.81,3.57,3.86,3.86,0,0,0,1.25,2.56,3.9,3.9,0,0,0,2.88.85,5.87,5.87,0,0,0,2.76-1.14c0,0.93,0,1.86,0,2.79a7.49,7.49,0,0,1-4.21.88,6.24,6.24,0,0,1-4-1.67,6.42,6.42,0,0,1-1.87-4.31,7.8,7.8,0,0,1,1.21-4.78,6.2,6.2,0,0,1,3.41-2.42"/>
  <path class="e" d="M105,10.42a8.15,8.15,0,0,1,4.26.44c0,0.94,0,1.89,0,2.83a5.43,5.43,0,0,0-3.24-.95,1.66,1.66,0,0,0-1.47.82,1.33,1.33,0,0,0,.45,1.58c0.87,0.58,1.92.83,2.82,1.35a4.06,4.06,0,0,1,1.77,1.68,3.76,3.76,0,0,1-.79,4.34,5.89,5.89,0,0,1-4.28,1.31,9.16,9.16,0,0,1-3.13-.71c0-1,0-2,0-3a6.74,6.74,0,0,0,2.8,1.2,3.6,3.6,0,0,0,2.13-.2,1.23,1.23,0,0,0,.36-1.75,3.7,3.7,0,0,0-1.35-.88,12.89,12.89,0,0,1-2.66-1.36,3.19,3.19,0,0,1-1.15-1.75,3.93,3.93,0,0,1,.42-3.07A4.59,4.59,0,0,1,105,10.42"/>
  <path class="e" d="M83.7,10.87a3.48,3.48,0,0,1,2.86-.25c0,1,0,2.06,0,3.08a3.27,3.27,0,0,0-2.08-.49,2.56,2.56,0,0,0-1.92,1.54,5.69,5.69,0,0,0-.43,2.63q0,3.08,0,6.16h-3q0-6.43,0-12.87c1,0,2,0,3,0,0,0.74,0,1.47,0,2.21a4,4,0,0,1,1.59-2"/>
  <path class="e" d="M61.6,10.72c1,0,2,0,3.07,0,0,4.29,0,8.58,0,12.87H61.62q0-6.44,0-12.87"/>
  <path class="e" d="M99.34,13.65a5.45,5.45,0,0,0-2.7-2.71,8.17,8.17,0,0,0-4.41-.51,6.15,6.15,0,0,0-4,2.17,6.86,6.86,0,0,0-1.41,3.94,7.39,7.39,0,0,0,1.14,4.81,5.83,5.83,0,0,0,3.56,2.31,8.85,8.85,0,0,0,3.61,0,6,6,0,0,0,3.53-2.19A6.83,6.83,0,0,0,100,17.71,8.45,8.45,0,0,0,99.34,13.65Zm-3,5.92a2.81,2.81,0,0,1-1.51,1.49,4.15,4.15,0,0,1-2.51.12,3.08,3.08,0,0,1-1.93-1.59,5.94,5.94,0,0,1-.47-3.22,4.09,4.09,0,0,1,1.19-2.69,3.22,3.22,0,0,1,2-.8,3.32,3.32,0,0,1,2.58.87,4.16,4.16,0,0,1,1.07,2.68A6.74,6.74,0,0,1,96.37,19.56Z"/>
  <path class="e" d="M124,14a5.5,5.5,0,0,0-2.65-3,8,8,0,0,0-4.57-.61,6.38,6.38,0,0,0-3.4,1.47,6.31,6.31,0,0,0-2,4,8.53,8.53,0,0,0,.49,4.47,5.71,5.71,0,0,0,3.14,3,8.28,8.28,0,0,0,4.34.36,6,6,0,0,0,3.78-2.22A7,7,0,0,0,124.5,17,8.21,8.21,0,0,0,124,14Zm-2.77,4.37a4,4,0,0,1-.79,1.89,2.88,2.88,0,0,1-1.8,1,4.07,4.07,0,0,1-2.2-.24,3.12,3.12,0,0,1-1.63-1.7,6.11,6.11,0,0,1-.37-2.8,4.45,4.45,0,0,1,.93-2.57,3.15,3.15,0,0,1,2.25-1.08,3.38,3.38,0,0,1,2.47.72,3.53,3.53,0,0,1,1.12,2A7.82,7.82,0,0,1,121.24,18.34Z"/>
  <path class="g" d="M0.39,15.44l14.24,0q0,7.12,0,14.24l-14.24,0Z"/>
  <path class="h" d="M16.09,15.42l14.24,0q0,7.12,0,14.24l-14.24,0q0-7.12,0-14.24"/>
</svg>