<svg width="100" height="22" viewBox="0 0 100 22" xmlns="http://www.w3.org/2000/svg" xmlns:xlink="http://www.w3.org/1999/xlink"><defs><path id="a" d="M11.373 13.995V.04H.057v13.955h11.316z"/><path id="c" d="M.02 10.183h10.172V.013H.022v10.17z"/></defs><g fill="none" fill-rule="evenodd"><path d="M0 .04L10.152.02l.02 10.153-10.153.02L0 .04z" fill="#F25022"/><path d="M11.19.02L21.34 0c.008 3.384.015 6.768.02 10.152l-10.15.02c-.01-3.385-.015-6.77-.02-10.153" fill="#80BA01"/><g transform="translate(88.598 3.15)"><mask id="b" fill="#fff"><use xlink:href="#a"/></mask><path d="M2.96.588c.936-.61 2.145-.67 3.2-.38.01.625.004 1.253.008 1.88-.5-.22-1.09-.362-1.618-.145-.418.167-.666.597-.73 1.026-.078.544-.026 1.095-.038 1.643 1.07 0 2.14-.003 3.212-.005.006-.695-.01-1.39.005-2.086.727-.21 1.446-.442 2.17-.662.008.916-.005 1.833.013 2.75.724-.013 1.45-.006 2.173-.01l.003 1.783c-.728-.03-1.455-.005-2.182-.006.005 1.025.005 2.05.007 3.075.013.568-.028 1.14.04 1.704.04.334.162.703.475.875.525.293 1.19.164 1.67-.16l.003 1.802c-.627.274-1.328.358-2.007.31-.644-.045-1.31-.278-1.732-.79-.487-.577-.613-1.36-.624-2.094-.01-1.573-.006-3.146-.012-4.72-1.07.002-2.142.003-3.213.007.003 2.47.008 4.938.013 7.407-.732 0-1.464.002-2.196.004-.004-2.47-.012-4.936-.012-7.405-.51-.007-1.02.006-1.528-.004 0-.586.002-1.172-.005-1.76.507-.01 1.014-.007 1.522-.005.035-.778-.085-1.58.146-2.34C1.922 1.596 2.358.977 2.96.59" fill="#FFF" mask="url(#b)"/></g><path d="M44.548 3.953c.443-.068.922.083 1.216.428.345.38.41.984.155 1.427-.28.5-.91.734-1.46.615-.57-.1-1.047-.63-1.023-1.22-.018-.623.502-1.178 1.11-1.25M27.72 4.256l3.195-.005c.998 2.522 2.004 5.042 3.004 7.564.254.63.493 1.268.76 1.894 1.274-3.156 2.565-6.304 3.828-9.464 1.024-.02 2.048-.008 3.072-.012.006 4.268.015 8.535.024 12.803-.74 0-1.478.01-2.216 0 .002-3.15-.013-6.3-.014-9.45 0-.14-.004-.282-.014-.423-.044.066-.082.134-.115.205-1.263 3.226-2.55 6.443-3.806 9.672-.527.02-1.053.002-1.58.012-1.314-3.222-2.613-6.45-3.92-9.674-.036-.067-.072-.132-.112-.195-.024 1.38 0 2.76-.004 4.14l.01 5.734c-.696.003-1.393.002-2.09.004l-.023-12.804M50.598 7.833c1.06-.304 2.202-.294 3.262.003.218.06.43.145.626.26-.01.7.003 1.4-.002 2.1-.71-.54-1.608-.88-2.508-.766-.714.066-1.395.438-1.822 1.016-.548.717-.673 1.668-.577 2.544.072.685.357 1.37.89 1.822.555.49 1.332.664 2.056.608.716-.084 1.39-.388 1.97-.812.006.663-.002 1.325.007 1.988-.896.536-1.972.676-3 .627-1.05-.053-2.1-.45-2.862-1.187-.83-.796-1.28-1.93-1.335-3.07-.055-1.183.183-2.418.862-3.408.57-.844 1.46-1.443 2.433-1.725M74.583 7.65c1.014-.182 2.078-.053 3.04.31l.004 2.018c-.673-.46-1.493-.707-2.308-.677-.41.017-.862.192-1.05.583-.147.386-.043.892.322 1.122.623.416 1.366.59 2.012.963.508.284 1.002.657 1.26 1.194.486 1.006.283 2.338-.565 3.09-.812.76-1.98.973-3.055.934-.764-.048-1.53-.197-2.233-.508 0-.708-.007-1.415 0-2.122.59.427 1.272.733 1.993.856.502.08 1.048.083 1.515-.142.447-.223.526-.86.26-1.248-.25-.3-.615-.464-.96-.626-.647-.29-1.328-.53-1.897-.966-.4-.31-.703-.75-.822-1.245-.176-.73-.123-1.552.3-2.19.484-.745 1.325-1.192 2.183-1.346M59.396 7.966C60 7.6 60.77 7.57 61.433 7.79l.003 2.197c-.434-.28-.974-.4-1.485-.346-.622.073-1.115.552-1.37 1.102-.277.58-.328 1.24-.31 1.874l.01 4.388-2.166.004c-.008-3.057-.01-6.115-.02-9.172.724-.01 1.446-.008 2.17-.006-.003.525 0 1.05 0 1.576.234-.572.582-1.128 1.132-1.44M43.64 7.857c.73-.004 1.458-.013 2.186 0-.003 3.057.01 6.114.014 9.17l-2.18.005c-.008-3.058-.01-6.116-.02-9.175M68.426 14.163c-.21.472-.592.872-1.076 1.062-.567.22-1.204.233-1.79.082-.596-.156-1.102-.585-1.378-1.133-.355-.705-.41-1.522-.338-2.296.065-.705.31-1.43.845-1.917.387-.363.917-.54 1.442-.57.66-.046 1.363.14 1.838.618.508.498.706 1.222.76 1.912.042.755.012 1.542-.304 2.243m2.113-4.216c-.383-.847-1.073-1.554-1.922-1.935-.98-.443-2.09-.5-3.144-.365-1.106.142-2.183.665-2.884 1.548-.64.79-.95 1.802-1.008 2.806-.086 1.185.114 2.44.81 3.427.594.852 1.53 1.436 2.54 1.65.845.176 1.728.175 2.57-.003.988-.204 1.91-.752 2.52-1.56.595-.76.893-1.718.96-2.673.066-.978-.034-1.99-.443-2.893M86.15 13.294c-.083.483-.25.965-.565 1.348-.32.385-.793.62-1.282.693-.525.08-1.08.043-1.57-.168-.532-.223-.944-.682-1.16-1.21-.263-.628-.316-1.325-.265-1.998.048-.653.232-1.323.662-1.83.39-.474.993-.737 1.6-.772.62-.044 1.283.098 1.76.516.44.363.685.91.798 1.46.127.644.127 1.312.022 1.96m1.975-3.115c-.34-.91-1.018-1.697-1.89-2.132-1-.503-2.165-.574-3.26-.436-.884.115-1.75.452-2.425 1.045-.822.71-1.303 1.754-1.443 2.82-.133 1.068-.085 2.19.35 3.188.42.98 1.245 1.772 2.236 2.16.978.383 2.065.424 3.093.256 1.052-.175 2.047-.73 2.697-1.582.694-.88.99-2.02.987-3.128.014-.742-.08-1.494-.345-2.19" fill="#FFF"/><g transform="translate(0 11.198)"><mask id="d" fill="#fff"><use xlink:href="#c"/></mask><path d="M.02.03C3.406.025 6.79.017 10.174.012l.02 10.152-10.153.02L.02.03z" fill="#02A4EF" mask="url(#d)"/></g><path d="M11.21 11.21c3.384-.01 6.768-.015 10.152-.02l.02 10.15-10.153.02-.02-10.15" fill="#FFB902"/></g></svg>