<?xml version="1.0" encoding="utf-8"?>
<svg version="1.1" xmlns="http://www.w3.org/2000/svg" xmlns:xlink="http://www.w3.org/1999/xlink" x="0px" y="0px" viewBox="0 0 27 36" style="enable-background:new 0 0 27 36;" xml:space="preserve">
  <style type="text/css">
    .st0{fill:#ffffff;}
  </style>
  <path class="st0" d="M24.7,15.5h-2.2V9c0-5-4.1-9-9-9c-5,0-9,4.1-9,9v6.5H2.3c-1.1,0-2,0.9-2,2V34c0,1.1,0.9,2,2,2h22.4 c1.1,0,2-0.9,2-2V17.6C26.7,16.5,25.8,15.5,24.7,15.5z M18,15.5H9V9c0-2.5,2-4.5,4.5-4.5C16,4.5,18,6.5,18,9C18,9,18,15.5,18,15.5z"/>
</svg>