<svg xmlns="http://www.w3.org/2000/svg" viewBox="0 0 30 30">
  <defs>
    <style>
      .a {
        fill: #010101;
      }
    </style>
  </defs>
  <path d="M22.32,20.06a8.28,8.28,0,0,0-1.84-2A8.9,8.9,0,0,0,18,16.78a7.51,7.51,0,0,0,1.49-1.06,8.27,8.27,0,0,0,1-1.33,6.21,6.21,0,0,0,.9-3.26A6.5,6.5,0,0,0,21,8.64a6.32,6.32,0,0,0-3.39-3.39,6.09,6.09,0,0,0-2.49-.51,6.5,6.5,0,0,0-2.49.51,6.21,6.21,0,0,0-2.07,1.37A6.54,6.54,0,0,0,9.14,8.68a6.39,6.39,0,0,0-.28,4.2,6.31,6.31,0,0,0,.67,1.57,6.61,6.61,0,0,0,1,1.33,6.83,6.83,0,0,0,1.41,1,10,10,0,0,0-2.44,1.33,8.28,8.28,0,0,0-1.87,1.93,8.61,8.61,0,0,0-1.18,2.4,9,9,0,0,0-.41,2.74H7.33a7.61,7.61,0,0,1,.28-2.07,8.17,8.17,0,0,1,.77-1.84,7.24,7.24,0,0,1,2.71-2.69,8.17,8.17,0,0,1,1.84-.77A7.48,7.48,0,0,1,15,17.59a7.71,7.71,0,0,1,3.05.57,7.55,7.55,0,0,1,2.42,1.61,7.09,7.09,0,0,1,1.61,2.42,7.86,7.86,0,0,1,.58,3h1.25A9.09,9.09,0,0,0,22.32,20.06ZM15,16.27a4.86,4.86,0,0,1-2-.41,5.35,5.35,0,0,1-2.72-2.72,4.78,4.78,0,0,1-.41-2h0a4.86,4.86,0,0,1,.41-2A5.35,5.35,0,0,1,13,6.44,4.78,4.78,0,0,1,15,6a4.86,4.86,0,0,1,2,.41A5.35,5.35,0,0,1,19.7,9.17a4.78,4.78,0,0,1,.41,2,4.86,4.86,0,0,1-.41,2A5.35,5.35,0,0,1,17,15.86,4.78,4.78,0,0,1,15,16.27Z"/>
  <path class="a" d="M15,0A15,15,0,1,0,30,15,15,15,0,0,0,15,0Zm0,28.84A13.84,13.84,0,1,1,28.84,15h0A13.86,13.86,0,0,1,15,28.84Z"/>
</svg>