<svg width="283" height="97" viewBox="0 0 283 97" xmlns="http://www.w3.org/2000/svg" xmlns:xlink="http://www.w3.org/1999/xlink"><defs><path id="a" d="M160.41.515v54.24H.104V.516H160.41z"/></defs><g fill="none" fill-rule="evenodd"><path d="M57.838 75.757c.18.776-.456 1.743-1.268 1.93l-36.673 8.365c-.816.187-1.808-.41-1.988-1.19L.93 11.257c-.176-.775.46-1.742 1.276-1.93L38.876.963c.815-.187 1.807.41 1.987 1.19l16.975 73.605z" fill="#000"/><path fill="#00AEEF" d="M44.34 32.102l-33.003 7.53-3.504-15.19 33.002-7.528"/><path fill="#FFF" d="M20.465 45.745L13.13 47.42l-1.616-7.014 7.336-1.67"/><path fill="#00AEEF" d="M29.024 43.794L21.28 45.56l-1.616-7.008 7.744-1.77M37.578 41.844l-7.744 1.763-1.615-7.005 7.742-1.77M46.136 39.89l-7.744 1.767-1.616-7.01 7.744-1.765M32.703 59.76l-15.89 3.624L13.307 48.2l15.895-3.627"/><path fill="#FDB813" d="M39.464 50.022l-7.743 1.766-1.703-7.4 7.74-1.765"/><path fill="#00AEEF" d="M48.022 48.07l-7.743 1.764-1.705-7.4 7.74-1.76"/><path fill="#FFF" d="M41.26 57.81l-7.743 1.767-1.704-7.4 7.74-1.765"/><path fill="#00AEEF" d="M49.82 55.86l-7.744 1.762-1.704-7.4 7.74-1.76M45.038 70.478l7.744-1.766-.992-4.284-7.736 1.766M27.926 74.378l16.3-3.715-1.17-5.064-16.298 3.718M19.778 76.24l7.332-1.676-.984-4.28-7.336 1.67"/><path fill="#4BC1BF" d="M25.945 69.503l-7.335 1.675-1.616-7.013 7.336-1.675"/><path fill="#00AEEF" d="M43.058 65.6l-16.3 3.718-1.615-7.01 16.3-3.718"/><path fill="#68217A" d="M51.616 63.65l-7.744 1.76-1.616-7.004L50 56.636"/><path d="M24.883 81.635l-1.904-.796 1.363-1.544.408-.092s.09.39-.315.48l-.636.968.995.59.496.3-.407.093z" fill="#969696"/><path d="M25.516 80.668l-2.036.465s-.408.095-.5-.294l.412-.093 2.036-.47.404-.09c.092.39.092.39-.316.48M50.46 75.388c-.812.187-1.308-.107-1.4-.497-.18-.78.14-1.26.952-1.447.408-.095.904.203 1.084.983.092.385-.224.87-.636.962m-.36-1.56c-.404.096-.724.578-.632.97 0 0 .496.296.904.2.408-.09.32-.48.32-.48-.092-.387-.18-.78-.592-.69" fill="#969696"/><path d="M49.01 76.538l-.088-.39-.092-.385.728-.577c-.092-.386.316-.482.404-.092l-.636.963s.092.394-.316.48M37.242 77.583l1.224-.274-.272-1.17-1.132.667M36.836 77.676l-.18-.775-.816.188.18.775" fill="#969696"/><path fill="#969696" d="M37.242 77.583l.268 1.17 1.224-.28-.268-1.164M36.836 77.676l-.816.187.268 1.17.816-.187"/><path fill="#000" d="M53.733 67.265l2.856-.652-2.07-8.958-2.85.652"/><path d="M26.914 8.61c.088.39-.32.483-.728.578l-8.147 1.854c-.405.095-.817.187-.905-.2-.092-.39.228-.87.636-.966L25.92 8.02c.408-.097.908.202.996.59" fill="#969696"/><path fill="#FFF" d="M6.892 18.506l.412-.092.356 1.555-.408.095"/><path fill="#FFF" d="M6.982 18.894l-.408.092.272 1.17.404-.092"/><path fill="#FFF" d="M6.666 19.38l-.408.09.18.78.408-.095"/><path fill="#FFF" d="M6.26 19.473l-.412.088.18.784.412-.095"/><path fill="#FFF" d="M5.94 19.955l-.41.09.093.39.404-.09M33.785 12.372l1.628-.37.36 1.56-1.628.37M32.652 13.04l.408-.09.176.778-.404.092"/><g transform="translate(121.747 25.157)"><mask id="b" fill="#fff"><use xlink:href="#a"/></mask><path fill="#000" mask="url(#b)" d="M81.92 52.882h78.502V21.688H81.92"/><path fill="#606060" mask="url(#b)" d="M159.683 19.83H.47l-.733 1.857h160.686"/><path fill="#757575" mask="url(#b)" d="M83.024 19.83H.47l-.733 1.857h83.287"/><path fill="#000" mask="url(#b)" d="M.47 54.737h159.214l.736-1.858H-.265"/><path d="M149.363 36.91c0 2.232-1.844 3.716-4.056 3.716-2.208 0-4.05-1.484-4.05-3.715 0-2.597 1.842-4.08 4.05-4.08 2.212 0 4.056 1.483 4.056 4.08" fill="#FFF" mask="url(#b)"/><path d="M146.047 35.054c.74-.37 1.472-.744 2.212-1.11-.74 0-1.845 0-2.953.366-1.104-.366-2.208-.366-2.948-.366.74.366 1.475.74 1.843 1.11-.74.744-1.472 2.23-1.844 4.46 0 0 1.103-1.86 2.947-3.716 1.844 1.857 2.952 3.715 2.952 3.715-.37-2.228-1.11-3.715-2.213-4.46M-.264 21.686v12.256L1.208 35.8v2.597l-1.472 1.858V52.88h83.287V21.687" fill="#333" mask="url(#b)"/><path fill="#737373" mask="url(#b)" d="M83.024 38.767H.104l-.367 1.488h83.287"/><path fill="#000" mask="url(#b)" d="M83.024 33.943H-.263L.105 35.8h82.92"/><path fill="#969696" mask="url(#b)" d="M.104 38.77h82.92V35.8H.103"/><path fill="#000" mask="url(#b)" d="M6.368 38.025h70.39V36.54H6.37"/><path fill="#FFF" mask="url(#b)" d="M73.075 38.025h3.684V36.54M6.372 38.025h1.104V36.54H6.372"/><path fill="#333" mask="url(#b)" d="M126.88.515H32.902L.472 19.828h159.21"/><path fill="#000" mask="url(#b)" d="M83.024.515h-50.12L.468 19.828h82.554"/></g><g><path d="M95.72 6.445l-.033-.016c-3.888 8.882-2.476 5.644-5.992 13.667-4.567 10.434 12.028 21.365 23.223 26.215l5.735-13.096C111.09 29.936 91.39 19.4 95.72 6.446" fill="#231F1F"/><path d="M124.353 50.44c-.152.35-.5.54-.87.448-1.28-.246-4.657-1.11-10.897-3.814-5.9-2.554-8.223-4.014-9.07-4.65-.29-.2-.385-.58-.245-.895l.75-1.716c.095-.223.343-.266.52-.15.907.655 3.67 2.493 9.154 4.876 5.772 2.498 9.884 3.564 11.1 3.862.203.052.323.295.24.482l-.68 1.555z" fill="#2F2F2F"/><path d="M103.367 41.306l.888.458c.236.14.54.047.652-.207.112-.255.04-.51-.184-.61l-1.148-.798-.208 1.156z" fill="#231F1F"/><path d="M117.046 48.97c-2.856-.254-5.536-1.415-7.632-3.31l.248-.572c2.456 1.253 5.008 2.36 7.632 3.31l-.248.573zM154.024 31.72c-6.596 11.97-27.1 3.27-34.702-.025l-5.628 12.845c11.227 4.86 29.798 11.293 34.37.855 3.516-8.02 2.096-4.785 5.992-13.664l-.032-.01zM89.672 20.24c6.584-11.938 27.698-4.634 35.262-1.357l5.48-12.49c-11.196-4.853-30.21-10.267-34.786.167-3.516 8.02-2.096 4.79-5.988 13.664l.032.016z" fill="#505050"/><path d="M147.977 45.51l.032.015c3.887-8.878 2.47-5.644 5.987-13.667 4.57-10.43-12.36-20.598-23.587-25.467l-5.475 12.496c7.603 3.293 27.354 13.703 23.042 26.624" fill="#231F1F"/><path d="M130.412 6.39C124.108 3.66 115.292.744 107.997.6l-4.667 10.656.456.16c7.203.254 15.74 3.122 21.886 5.79 6.18 2.678 14.107 6.942 19.2 12.018l.427.223 4.67-10.657c-5.07-5.21-13.22-9.654-19.558-12.4" fill="#5E5E5E"/><path d="M110.43 10.295c2.85.517 8.502 1.575 16.134 4.88 7.66 3.323 12.287 6.724 14.61 8.446l3.14-7.163c-2.387-1.83-7.255-5.108-14.666-8.322-7.38-3.198-13.108-4.51-16.08-5.008l-3.14 7.168z" fill="#00BCF2"/><path d="M103.273 11.38c-6.268-.415-11.02 2.887-13.58 8.715 1.2.52 2.27-.37 2.27-.37s3.198-6.615 12.222-5.796c-.512-1.055-.912-2.55-.912-2.55" fill="#231F1F"/><path d="M137.15 37.422l-3.168 7.228c-.82 1.873.472 3.977 2.496 4.065 3.484.19 8.2-.294 9.795-3.942 2.64-6.023.696-7.586.696-7.586s-4.09 1.21-9.82.235" fill="#2F2F2F"/><path d="M145.243 29.575c4.58 4.284 5.38 9.988 2.82 15.824-1.196-.52-1.264-1.91-1.264-1.91s2.69-6.83-4.053-12.845c1.128-.342 2.496-1.07 2.496-1.07" fill="#505050"/><path d="M103.273 11.38c-.544 1.24.28 2.613 1.584 2.728 7.56.557 15.65 3.763 19.746 5.537 4.132 1.79 12 5.505 17.56 10.63.967.874 2.535.536 3.08-.7-5.07-5.216-13.228-9.624-19.568-12.368-6.31-2.737-15.11-5.685-22.402-5.828" fill="#C8C8C8"/><path d="M122.72 47.658c-6.46-1.782-11.222-3.51-17.17-7.14-1.9-1.317-2.524-3.398-1.668-5.18 1.164-2.056 2.328-4.12 3.476-6.225.976-1.54 3.128-2.343 4.843-1.373 4.985 2.5 10.06 4.702 15.324 6.643 1.7.66 2.94 2.63 2.256 4.448-.74 2.284-1.464 4.536-2.22 6.77-.583 2.014-3.035 2.65-4.84 2.058" fill="#505050"/><path d="M127.224 43.12c-.943.872-2.48 1.04-3.703.657-5.88-1.643-10.123-3.445-15.514-6.723-1.308-.608-2.036-1.94-1.98-3.278-.28.56-.592 1.106-.904 1.647-.776 1.59-.012 3.62 1.68 4.388 5.37 3.314 9.627 5.08 15.507 6.723 1.635.56 3.86.016 4.343-1.774.208-.554.367-1.087.57-1.64" fill="#2F2F2F"/><path d="M113.24 33.926c-.135.318-.463.553-.8.632-.303.1-.675.088-1.023-.064-.316-.14-.576-.4-.728-.652-.185-.346-.217-.7-.065-1.05.14-.314.376-.517.724-.63.307-.094.707-.07 1.055.08.38.164.668.443.824.773.09.306.135.628.01.91" fill="#ACACAC"/><path d="M113.24 33.926c-.135.318-.463.553-.8.632l-.523-1.21 1.312-.333c.09.306.135.628.01.91M111.917 33.35l-1.228.49c-.185-.346-.217-.7-.065-1.05.14-.315.376-.518.724-.63l.567 1.19z" fill="#E3E3E3"/><path d="M124.877 38.972c-.136.314-.464.552-.8.632-.304.096-.676.084-1.024-.064-.316-.143-.576-.4-.728-.656-.188-.346-.216-.7-.064-1.046.14-.318.377-.517.725-.63.308-.098.708-.074 1.056.077.38.163.67.445.825.776.12.32.136.625.012.912" fill="#ACACAC"/><path d="M124.877 38.972c-.136.314-.464.552-.8.632l-.524-1.21 1.312-.333c.12.32.136.625.012.912" fill="#E3E3E3"/><path d="M123.553 38.397l-1.228.485c-.188-.346-.216-.7-.064-1.046.14-.318.377-.517.725-.63l.568 1.19z" fill="#E3E3E3"/><path d="M132.24 23.973c-2.304-1.337-4.628-2.458-7.116-3.46-.504-.22-.78-.788-.588-1.31.176-.49.784-.76 1.332-.556 2.58.966 5.064 2.23 7.416 3.627.46.315.644.923.328 1.39-.288.48-.912.623-1.372.31M139.35 28.98c-.497-.405-.753-.588-1.28-.93-.525-.343-.745-1.043-.4-1.572.31-.545 1.123-.684 1.715-.314.604.414.892.613 1.408 1.066.56.43.612 1.17.188 1.627-.423.458-1.163.517-1.63.123" fill="#ACACAC"/><path d="M149.762 18.06c-5.915-6.185-15.083-10.27-19.087-12.008l-.064-.024-.03-.016C126.575 4.272 117.327.38 108.736.28c-.712-.008-.948.795-.948.795 8.482.167 18.574 4.014 22.49 5.713 3.94 1.706 13.647 6.444 19.542 12.51 0 0 .428-.72-.06-1.237" fill="#C8C8C8"/></g><g><path fill="#333" d="M49.94 43.554l-2.156 23.61L123.21 53.66l-9.094-21.592-6.716-2.956-9.863 1.524-5.572 1.973L68.5 36.813l-5.093-.8-8.08 3.155"/><path d="M113.834 31.877c-.324-.43-.78-1.576-1.064-1.766-.084-.473-1.172-1.01-2.452-1.272-1.567-.454-6.503-1.77-8.263-1.942-1.48.02-3.156.32-4.116.49-.957.17-1.87.58-2.31.903-.674.36-2.57 2.17-3.53 2.346-.956.167-11.016 1.97-11.016 1.97l-11.01 1.968c-1.2.214-3.617-.82-4.137-.97-.52-.152-1.76-.172-2.48-.045-.955.17-2.635.47-4.267 1.006-1.592.77-5.756 3.715-6.824 4.642-1.112.692-1.944 1.57-1.856 2.04-.152.518-.572 2.308-.572 2.308 2.576-2.172 9.812-5.91 12.924-6.468 2.875-.513 4.583 2.112 7.21 4.328 3.6 3.512 4.405 3.858 6.56 3.472 1.44-.258 11.016-1.973 12.456-2.227 2.156-.39 2.788-.99 5.168-5.568 1.447-2.952 2.367-6.047 5.243-6.564 2.875-.513 10.962.482 14.134 1.627l.2-.278z" fill="#000"/><path d="M86.184 37.556c.428 2.37-1.144 4.602-3.54 5.036-2.392.425-4.652-1.126-5.08-3.493-.432-2.368 1.144-4.607 3.536-5.033 2.396-.43 4.656 1.122 5.084 3.49" fill="#FFF"/><path d="M82.77 36.457c.632-.6 1.028-1.162 1.94-1.57-.956.17-2.156.384-3.024 1.03-1.284-.26-2.484-.04-3.44.126 1 .068 1.804.41 2.372.8-.788 1.117-1.252 2.67-1.3 5.12 0 0 1.048-2.388 2.668-4.388 1.976 1.356 3.796 3.234 3.796 3.234-.908-2.285-1.884-3.578-3.012-4.353" fill="#000"/><path d="M113.096 30.54l.044.24-.044-.24zM113.182 31.014l.244-.043-.244.044z" fill="#505050"/><path d="M117.22 34.204c-1.343-1.96-3.103-2.132-3.103-2.132s-.24.043-.284-.195l-.196.278c-3.172-1.145-11.263-2.14-14.14-1.627-2.87.517-3.795 3.612-5.24 6.564-2.382 4.578-3.014 5.18-5.17 5.57-1.44.253-11.016 1.968-12.45 2.226-2.16.386-2.965.04-6.565-3.472-2.624-2.216-4.336-4.84-7.212-4.328-3.11.557-10.347 4.296-12.92 6.468 0 0-1.59.77-2.163 3.075-.684 3.056-5.94 28.68-4.223 38.152 2.268 12.546 11.587 12.105 12.543 11.93.956-.17 8.543-11.548 11.14-14.945 2.595-3.397 4.99-3.83 6.907-4.173 1.916-.342 4.55-.81 14.61-2.613 10.056-1.797 12.692-2.267 14.368-2.573 1.916-.338 4.547-.81 8.18 1.476 3.623 2.283 14.718 10.314 15.674 10.143.96-.17 9.844-2.983 7.576-15.53-1.716-9.47-15.62-31.667-17.33-34.292" fill="#333"/><path d="M113.053 30.303l.044.24-.044-.24zM112.772 30.11l.044.238-.044-.24z" fill="#505050"/><path d="M106.682 59.306c.86 4.734-2.288 9.21-7.08 10.068-4.547.81-9.063-2.287-9.923-7.02-.856-4.74 2.287-9.214 6.84-10.03 4.787-.854 9.306 2.248 10.162 6.982" fill="#737373"/><path d="M105.726 59.48c.728 4.027-2.024 7.937-6.336 8.71-4.072.727-8.023-1.986-8.747-6.008-.732-4.03 2.02-7.94 6.09-8.672 4.313-.767 8.265 1.94 8.993 5.97" fill="#333"/><path d="M82.02 63.723c.728 4.026-2.028 7.936-6.096 8.668-4.07.725-8.023-1.984-8.755-6.01-.73-4.025 2.027-7.94 6.1-8.67 4.066-.725 8.018 1.987 8.75 6.013" fill="#737373"/><path d="M68.822 60.46c-1.464 1.484-2.036 3.787-1.652 5.92.732 4.025 4.683 6.738 8.75 6.01 2.397-.426 4.145-1.72 5.32-3.394L68.823 60.46z" fill="#000"/><path d="M99.39 68.19c2.156-.386 3.94-1.44 5.12-3.114L92.09 56.54c-1.223 1.443-1.835 3.507-1.45 5.64.727 4.025 4.678 6.738 8.75 6.01" fill="#505050"/><path d="M69.064 50.884c.86 4.734-2.288 9.21-7.08 10.068-4.787.855-9.303-2.243-10.163-6.98-.85-4.735 2.293-9.21 7.085-10.07 4.787-.854 9.303 2.248 10.16 6.982" fill="#737373"/><path d="M67.87 51.102c.726 4.025-2.03 7.936-6.097 8.667-4.072.723-8.024-1.986-8.752-6.015-.73-4.026 2.025-7.936 6.097-8.668 4.072-.724 8.02 1.985 8.752 6.015" fill="#333"/><path d="M61.77 59.768c2.157-.386 3.905-1.674 4.885-3.07L54.188 47.92c-1.176 1.68-1.552 3.704-1.168 5.832.728 4.03 4.68 6.742 8.75 6.014" fill="#505050"/><path d="M111.41 49.905c.343 1.898-.837 3.572-2.75 3.914-1.92.34-3.615-.82-3.955-2.714-.344-1.893.836-3.572 2.756-3.914 1.913-.346 3.61.82 3.95 2.713M109.268 38.07c.3 1.658-.836 3.57-2.752 3.913-1.916.342-3.655-1.054-3.955-2.713-.34-1.897.797-3.806 2.712-4.153 1.916-.342 3.652 1.06 3.996 2.952M116.327 42.917c.343 1.897-1.08 3.612-2.992 3.958-1.676.298-3.608-.82-3.952-2.717-.344-1.894 1.076-3.612 2.752-3.914 1.916-.342 3.848.775 4.192 2.673M104.593 45.018c.344 1.894-1.08 3.612-2.752 3.91-1.915.347-3.847-.775-4.19-2.67-.345-1.892 1.075-3.614 2.99-3.957 1.677-.297 3.61.82 3.953 2.718" fill="#000"/><path d="M103.33 59.908c.513 2.84-1.495 5.398-4.37 5.91-2.633.475-5.412-1.224-5.924-4.068-.516-2.84 1.492-5.402 4.127-5.87 2.876-.518 5.652 1.184 6.168 4.028" fill="#505050"/><path d="M79.73 49.71c.217 1.186-.575 2.3-1.767 2.52-1.2.214-2.567-.522-2.783-1.707-.212-1.182.812-2.343 2.007-2.554 1.2-.22 2.328.556 2.544 1.74M92.617 47.16c.216 1.184-.528 2.54-1.728 2.752-1.193.214-2.365-.8-2.58-1.98-.217-1.187.567-2.305 1.767-2.515 1.2-.215 2.328.556 2.54 1.742" fill="#000"/><path d="M105.976 40.37l-.256-1.417-1.54-1.683.716-.13.612.627c.28.195.324.43.368.668.192-.282.152-.517.348-.8l.348-.795.72-.127-.856 2.104.26 1.424-.72.13z" fill="#FCD116"/><path d="M107.663 51.067l-.304 1.034-.48.084.36-3.488.955-.17 1.796 3.102-.72.127-.647-.86-.96.172zm.876-.645l-.417-.907s-.28-.19-.324-.43c.043.24.087.474-.153.518l-.068.99.96-.17z" fill="#7FBA00"/><path d="M102.3 47.384l-.604-.624c-.288-.195-.328-.434-.612-.625.044.235.088.474-.108.752l-.112.752-.72.13.616-2.068-1.256-1.484.716-.127.368.665c.284.195.324.43.568.39-.044-.24-.044-.24.152-.517l.108-.756.964-.17-.9 1.872 1.54 1.68-.72.13z" fill="#00BCF2"/><path d="M111.475 42.074l.96-.17c.476-.085.716-.128 1 .067.24-.043.52.152.564.386.083.47-.11.752-.31 1.03.24-.043.76.108.85.585.083.475-.113.753-.35.797-.2.278-.63.6-1.115.688-.48.084-.716.127-.956.17l-.645-3.55zm.976 1.293l.24-.044c.48-.084.677-.362.633-.6-.088-.474-.324-.43-.564-.39l-.48.087.17.947zm.3 1.655l.24-.044c.48-.084.913-.406.83-.88-.045-.238-.565-.39-1.045-.302l-.236.04.21 1.186z" fill="#E81123"/><path d="M80.196 61.847l-3.592.644-.684-3.786c-.044-.24-.612-.624-.848-.585l-3.115.556c-.48.088-.632.6-.588.84l.687 3.787-3.832.688c-.244.044-.44.323-.352.796l.556 3.08c.04.234.327.43.563.385l3.832-.687.684 3.795c.087.47.37.664.846.577l3.112-.557c.244-.04.676-.362.592-.836l-.684-3.79 3.588-.645c.48-.084.676-.366.636-.6l-.556-3.08c-.088-.473-.368-.664-.848-.58M94.066 57.9c-.784 1.118-1.288 2.43-1.032 3.85.512 2.845 3.292 4.543 5.928 4.07 1.68-.3 2.787-.987 3.575-2.105l-8.47-5.815z" fill="#737373"/><path d="M65.474 51.53c.512 2.84-1.256 5.357-4.127 5.87-2.876.513-5.42-1.23-5.932-4.073-.516-2.84 1.256-5.358 4.132-5.867 2.87-.518 5.41 1.23 5.927 4.07" fill="#505050"/><path d="M56.21 49.52c-.83.884-1.053 2.388-.793 3.808.512 2.844 3.052 4.586 5.928 4.07 1.436-.256 2.548-.944 3.288-2.3L56.21 49.52z" fill="#737373"/><path d="M80.196 61.847l-3.592.644-.684-3.786c-.044-.24-.612-.624-.848-.585l-3.115.556c-.48.088-.632.6-.588.84l.687 3.787 5.32 3.448 3.587-.643c.48-.084.676-.366.636-.6l-.556-3.08c-.088-.473-.368-.664-.848-.58" fill="#505050"/><path d="M98.792 64.877c-2.155.385-4.37-.927-4.8-3.298-.387-2.13 1.19-4.37 3.345-4.755 2.39-.43 4.65 1.122 5.04 3.254.423 2.366-1.19 4.367-3.585 4.797m-1.415-7.817c-1.916.346-3.292 2.3-2.904 4.43.384 2.138 2.36 3.49 4.275 3.148 2.152-.386 3.532-2.34 3.144-4.475-.384-2.128-2.36-3.49-4.515-3.103M61.174 56.455c-2.396.425-4.372-.927-4.8-3.298-.432-2.367.948-4.324 3.344-4.753 2.156-.386 4.372.93 4.8 3.297.423 2.364-1.188 4.365-3.344 4.755m-1.416-7.817c-2.156.39-3.528 2.343-3.148 4.475.388 2.132 2.364 3.49 4.52 3.103 2.156-.386 3.532-2.34 3.144-4.475-.38-2.13-2.356-3.488-4.516-3.102" fill="#000"/></g></g></svg>