<svg xmlns="http://www.w3.org/2000/svg" viewBox="0 0 20 30">
  <defs>
    <style>
      .a {
        fill: #1d1d1b;
      }
    </style>
  </defs>
  <path class="a" d="M18.48,19.11c-0.47-.83-0.91-1.62-1.1-2,0.2-.94.33-1.85,0.44-2.73a16.39,16.39,0,0,0-.41-7.24,10.44,10.44,0,0,0-2.69-4.39A10.64,10.64,0,0,0,10.26.05L10,0l-0.21.05A10.64,10.64,0,0,0,5.31,2.73,10.85,10.85,0,0,0,2.59,7.12a15.88,15.88,0,0,0-.47,7.24c0.13,1,.3,1.9.47,2.78-0.41.71-.77,1.38-1,2-1.39,2.51-1.39,2.76-1.39,3s0.13,2,.36,3.59c0.44,3.42.71,3.76,0.91,4a0.89,0.89,0,0,0,.63.28c0.33,0,.63,0,3.93-2.51,1.21-.91,2.34-1.82,2.8-2.18H9.55a9.68,9.68,0,0,1,1.26,0h0.33l0.17,0.13c0.55,0.44,1.56,1.24,2.67,2.07C17.24,30,17.6,30,17.92,30a0.88,0.88,0,0,0,.63-0.28c0.2-.2.52-0.53,0.93-4,0.18-1.43.36-3.25,0.34-3.63C19.83,21.84,19.83,21.51,18.48,19.11Zm-16,9a24.26,24.26,0,0,1-.41-2.7c-0.18-1.59-.33-2.9-0.33-3.23A25.76,25.76,0,0,1,3.1,19.43a14.33,14.33,0,0,0,1.46,3.92,4.14,4.14,0,0,0,2,1.71C4.6,26.6,3.22,27.62,2.47,28.09ZM11.7,23.7a5.47,5.47,0,0,1-.68,0H9.13a2.07,2.07,0,0,0-.41,0H8.42c-1.84,0-3.3,0-4.7-9.55A14.21,14.21,0,0,1,4.08,7.7,9.08,9.08,0,0,1,6.38,4a9.1,9.1,0,0,1,3.69-2.3,9.47,9.47,0,0,1,3.57,2.2,9.53,9.53,0,0,1,2.31,3.76,14.38,14.38,0,0,1,.36,6.52c-0.63,4.42-1.32,7-2.14,8.36A2.4,2.4,0,0,1,11.7,23.7Zm6.25,1.69c-0.17,1.41-.33,2.2-0.41,2.68-0.77-.53-2.22-1.57-4.14-3.1a3.52,3.52,0,0,0,2.06-1.64h0a14,14,0,0,0,1.46-3.92,27.07,27.07,0,0,1,1.36,2.76C18.28,22.44,18.14,23.78,17.94,25.39Z"/>
  <path class="a" d="M10,7.15a3.11,3.11,0,1,0,3.11,3.11A3.11,3.11,0,0,0,10,7.15Zm0,4.69a1.57,1.57,0,1,1,1.57-1.57A1.57,1.57,0,0,1,10,11.83Z"/>
</svg>