<svg width="56" height="87" viewBox="0 0 56 87" xmlns="http://www.w3.org/2000/svg" xmlns:xlink="http://www.w3.org/1999/xlink"><defs><path id="a" d="M10.984 21.12h26.463V5.452H10.984V21.12z"/><path id="c" d="M10.984 21.12h26.463V5.452H10.984V21.12z"/><path id="e" d="M9.46 18.19h22.793V4.697H9.46V18.19z"/><path id="g" d="M9.46 18.19h22.793V4.697H9.46V18.19z"/><path id="i" d="M9.46 18.19h22.793V4.697H9.46V18.19z"/><linearGradient x1="50%" y1="0%" x2="50%" y2="100%" id="k"><stop stop-color="#CACACA" offset="0%"/><stop stop-color="#C3C3C3" offset="52.188%"/><stop stop-color="#F3F3F3" offset="52.745%"/><stop stop-color="#E6E6E6" offset="100%"/></linearGradient></defs><g fill="none" fill-rule="evenodd"><g transform="translate(2.99 52.145)"><path d="M31.293 8.856c-.215 0-.426.01-.635.032.406-.818.635-1.74.635-2.714 0-3.387-2.755-6.132-6.154-6.132-3.154 0-5.752 2.36-6.113 5.404-1.126-1.243-2.756-2.024-4.57-2.024-3.29 0-5.98 2.574-6.146 5.81-.663-.243-1.38-.376-2.13-.376-3.4 0-6.155 2.745-6.155 6.13 0 3.388 2.756 6.133 6.155 6.133h25.113c3.4 0 6.155-2.746 6.155-6.133 0-3.386-2.756-6.13-6.155-6.13" fill="#F3F3F3"/><mask id="b" fill="#fff"><use xlink:href="#a"/></mask><path d="M31.293 8.856c-.215 0-.426.01-.635.033.406-.82.635-1.74.635-2.716 0-.244-.014-.484-.043-.72L10.984 21.118h20.31c3.398 0 6.154-2.746 6.154-6.133 0-3.386-2.756-6.13-6.155-6.13" fill="#F3F3F3" mask="url(#b)"/></g><g transform="rotate(40 -54.65 38.003)"><path d="M31.293 8.856c-.215 0-.426.01-.635.032.406-.818.635-1.74.635-2.714 0-3.387-2.755-6.132-6.154-6.132-3.154 0-5.752 2.36-6.113 5.404-1.126-1.243-2.756-2.024-4.57-2.024-3.29 0-5.98 2.574-6.146 5.81-.663-.243-1.38-.376-2.13-.376-3.4 0-6.155 2.745-6.155 6.13 0 3.388 2.756 6.133 6.155 6.133h25.113c3.4 0 6.155-2.746 6.155-6.133 0-3.386-2.756-6.13-6.155-6.13" fill="#F3F3F3"/><mask id="d" fill="#fff"><use xlink:href="#c"/></mask><path d="M31.293 8.856c-.215 0-.426.01-.635.033.406-.82.635-1.74.635-2.716 0-.244-.014-.484-.043-.72L10.984 21.118h20.31c3.398 0 6.154-2.746 6.154-6.133 0-3.386-2.756-6.13-6.155-6.13" fill="#F3F3F3" mask="url(#d)"/></g><g transform="rotate(-170 22.558 43.35)"><path d="M26.953 7.628c-.185 0-.368.01-.548.027.35-.705.548-1.498.548-2.338 0-2.916-2.374-5.28-5.3-5.28-2.716 0-4.954 2.032-5.265 4.654-.97-1.07-2.374-1.743-3.936-1.743-2.835 0-5.15 2.217-5.294 5.005-.572-.21-1.19-.324-1.835-.324-2.928 0-5.3 2.364-5.3 5.28 0 2.917 2.372 5.282 5.3 5.282h21.63c2.927 0 5.3-2.365 5.3-5.282 0-2.916-2.373-5.28-5.3-5.28" fill="#F3F3F3"/><mask id="f" fill="#fff"><use xlink:href="#e"/></mask><path d="M26.953 7.628c-.185 0-.368.01-.548.028.35-.706.548-1.5.548-2.34 0-.21-.013-.416-.037-.62L9.46 18.19h17.493c2.927 0 5.3-2.365 5.3-5.282 0-2.916-2.373-5.28-5.3-5.28" fill="#F3F3F3" mask="url(#f)"/></g><g transform="rotate(170 25.443 42.92)"><path d="M26.953 7.628c-.185 0-.368.01-.548.027.35-.705.548-1.498.548-2.338 0-2.916-2.374-5.28-5.3-5.28-2.716 0-4.954 2.032-5.265 4.654-.97-1.07-2.374-1.743-3.936-1.743-2.835 0-5.15 2.217-5.294 5.005-.572-.21-1.19-.324-1.835-.324-2.928 0-5.3 2.364-5.3 5.28 0 2.917 2.372 5.282 5.3 5.282h21.63c2.927 0 5.3-2.365 5.3-5.282 0-2.916-2.373-5.28-5.3-5.28" fill="#F3F3F3"/><mask id="h" fill="#fff"><use xlink:href="#g"/></mask><path d="M26.953 7.628c-.185 0-.368.01-.548.028.35-.706.548-1.5.548-2.34 0-.21-.013-.416-.037-.62L9.46 18.19h17.493c2.927 0 5.3-2.365 5.3-5.282 0-2.916-2.373-5.28-5.3-5.28" fill="#F3F3F3" mask="url(#h)"/></g><g transform="rotate(10 -274.956 132.052)"><path d="M26.953 7.628c-.185 0-.368.01-.548.027.35-.705.548-1.498.548-2.338 0-2.916-2.374-5.28-5.3-5.28-2.716 0-4.954 2.032-5.265 4.654-.97-1.07-2.374-1.743-3.936-1.743-2.835 0-5.15 2.217-5.294 5.005-.572-.21-1.19-.324-1.835-.324-2.928 0-5.3 2.364-5.3 5.28 0 2.917 2.372 5.282 5.3 5.282h21.63c2.927 0 5.3-2.365 5.3-5.282 0-2.916-2.373-5.28-5.3-5.28" fill="#F3F3F3"/><mask id="j" fill="#fff"><use xlink:href="#i"/></mask><path d="M26.953 7.628c-.185 0-.368.01-.548.028.35-.706.548-1.5.548-2.34 0-.21-.013-.416-.037-.62L9.46 18.19h17.493c2.927 0 5.3-2.365 5.3-5.282 0-2.916-2.373-5.28-5.3-5.28" fill="#F3F3F3" mask="url(#j)"/></g><path d="M30.12 20.28s-1.434 18.193-2.845 22.785C25.865 47.655 20 53.897 20 53.897s3.004-3.325 7.275-3.325c4.27 0 5.546 1.21 6.412 2.246.866 1.038.937 1.543.937 1.543s1.035-1.315 2.81-2.12c1.595-.722 3.863-1.005 5.28 0 2.993 2.126-4.47-2.542-6.75-8.136-2.277-5.595-3.135-23.66-3.135-23.66l-2.17.035" fill="#E6E6E6"/><g transform="rotate(-32 30.797 -6.266)"><path d="M14.362 28.923s1.69 4.068.76 7.164c3.09-.937 7.386-5.966 8.124-9.775l-.444-4.418-8.44 7.03z" fill="#505050"/><path d="M7.028 24.205s-4.4.148-6.83 2.28c-.43-3.202 2.36-9.197 5.518-11.45l4.2-1.43-2.888 10.6z" fill="#929292"/><path d="M19.465 5.555c-.34-.382-.665-.777-.964-1.186C23.25 1.207 27.768 0 27.768 0s.078.47.156 1.286c-1.664.576-4.793 1.822-8.03 3.978-.142.094-.285.192-.428.29" fill="#B1B1B1"/><path d="M22.522 8.16c-1.16-.746-2.178-1.626-3.058-2.605.144-.1.287-.197.43-.29 3.236-2.156 6.365-3.403 8.03-3.98.167 1.756.332 5.123-.285 8.963-1.772-.364-3.507-1.05-5.118-2.087" fill="#C2C2C2"/><path d="M18.5 4.37c.3.408.623.803.965 1.185-2.563 1.766-5.155 4.103-7.104 7.137-2.605 4.054-3.607 8.64-3.933 12.414l-1.39-.896c.324-3.774 1.326-8.36 3.933-12.414 2.058-3.2 4.83-5.63 7.53-7.427" fill="#505050"/><path d="M22.522 8.162c1.61 1.036 3.347 1.72 5.117 2.086-.515 3.204-1.57 6.736-3.63 9.938-2.606 4.054-6.357 6.87-9.656 8.732l-5.927-3.812c.326-3.775 1.328-8.36 3.935-12.414 1.95-3.034 4.54-5.37 7.103-7.137.88.98 1.897 1.86 3.057 2.607z" fill="#929292"/><path d="M21.418 9.88c-1.95-1.253-4.542-.69-5.794 1.26" fill="#DEDEDE"/><path fill="#505050" d="M6.826 30.75l1.67 1.073 8.377-13.036-1.67-1.073"/><ellipse fill="#D8D8D8" cx="19.07" cy="13.158" rx="4.015" ry="4.022"/><path d="M19.062 16.388c1.785 0 3.232-1.45 3.232-3.238 0-1.79-1.447-3.238-3.232-3.238-1.786 0-3.233 1.45-3.233 3.238s1.446 3.238 3.232 3.238z" fill="url(#k)" transform="rotate(-20 19.062 13.15)"/></g></g></svg>