<svg width="56" height="87" viewBox="0 0 56 87" xmlns="http://www.w3.org/2000/svg"><defs><linearGradient x1="129.365%" y1="60.501%" x2="-12.458%" y2="60.501%" id="a"><stop stop-color="#3C99AE" offset="0%"/><stop stop-color="#C8E1E2" offset="100%"/></linearGradient></defs><g fill="none" fill-rule="evenodd"><g fill="#C8E1E2"><path d="M34.283 61c-.215 0-.427.012-.636.033.407-.82.636-1.74.636-2.715 0-3.386-2.756-6.132-6.155-6.132-3.152 0-5.75 2.36-6.11 5.405-1.128-1.243-2.758-2.024-4.57-2.024-3.293 0-5.98 2.575-6.147 5.81-.664-.242-1.38-.375-2.13-.375-3.4 0-6.155 2.745-6.155 6.132 0 3.386 2.756 6.132 6.155 6.132h25.113c3.4 0 6.155-2.746 6.155-6.132 0-3.387-2.756-6.13-6.155-6.13"/><path d="M34.283 61c-.215 0-.427.012-.636.033.407-.82.636-1.74.636-2.715 0-.244-.015-.484-.043-.72L13.974 73.264h20.31c3.398 0 6.154-2.746 6.154-6.132 0-3.387-2.756-6.13-6.155-6.13"/><path d="M29.922 70.92c-.165-.14-.334-.267-.508-.385.837-.366 1.605-.924 2.232-1.67 2.176-2.595 1.83-6.47-.774-8.655-2.415-2.026-5.923-1.888-8.155.212-.064-1.677-.81-3.323-2.2-4.488-2.52-2.116-6.235-1.872-8.443.5-.353-.613-.816-1.176-1.39-1.658-2.604-2.185-6.48-1.854-8.656.74-2.177 2.595-1.83 6.47.773 8.654l19.24 16.143c2.603 2.184 6.478 1.853 8.655-.74 2.177-2.596 1.83-6.47-.773-8.654"/><path d="M29.922 70.92c-.165-.14-.334-.267-.508-.385.837-.366 1.605-.924 2.232-1.67.156-.188.3-.38.43-.58L6.48 67.257l15.56 13.055c2.603 2.184 6.478 1.853 8.655-.74 2.177-2.596 1.83-6.47-.773-8.654"/><path d="M12.027 77.767c.182.032.363.054.544.067-.466.634-.8 1.38-.944 2.208-.507 2.872 1.42 5.613 4.303 6.12 2.673.473 5.23-1.14 5.99-3.668.77 1.223 2.036 2.13 3.574 2.4 2.792.492 5.457-1.29 6.083-4.01.527.306 1.116.527 1.75.64 2.884.507 5.632-1.41 6.14-4.28.505-2.874-1.422-5.614-4.305-6.123l-21.3-3.755c-2.884-.508-5.632 1.408-6.14 4.28-.505 2.873 1.422 5.613 4.305 6.122"/><path d="M12.027 77.767c.182.032.363.054.544.067-.466.634-.8 1.38-.944 2.208-.037.207-.06.413-.072.617l19.533-10.257-17.226-3.038c-2.882-.508-5.63 1.408-6.137 4.28-.506 2.873 1.42 5.613 4.304 6.122"/><path d="M30.085 77.94c.182-.033.36-.074.535-.123-.223.755-.28 1.57-.134 2.397.507 2.873 3.255 4.79 6.138 4.28 2.674-.47 4.525-2.86 4.375-5.497 1.14.886 2.64 1.305 4.178 1.034 2.792-.492 4.687-3.077 4.344-5.847.6.107 1.23.112 1.865 0 2.882-.508 4.81-3.248 4.303-6.12-.506-2.873-3.255-4.79-6.138-4.28l-21.3 3.755c-2.884.508-4.81 3.25-4.304 6.12.506 2.874 3.254 4.79 6.137 4.28"/><path d="M30.085 77.94c.183-.033.36-.074.535-.123-.223.755-.28 1.57-.134 2.397.037.207.085.41.145.605L45.478 64.5 28.25 67.538c-2.882.508-4.81 3.25-4.302 6.12.506 2.874 3.254 4.79 6.137 4.28"/><path d="M43.972 61.944c-.182-.032-.363-.055-.544-.068.467-.633.8-1.38.945-2.207.507-2.874-1.42-5.615-4.303-6.123-2.674-.47-5.23 1.142-5.992 3.67-.77-1.223-2.035-2.13-3.573-2.4-2.792-.493-5.457 1.29-6.083 4.01-.527-.307-1.116-.527-1.75-.64-2.884-.508-5.632 1.408-6.14 4.28-.505 2.873 1.422 5.614 4.305 6.122l21.3 3.755c2.884.51 5.632-1.408 6.14-4.28.505-2.873-1.422-5.613-4.305-6.12"/><path d="M43.972 61.944c-.182-.032-.363-.055-.544-.068.467-.633.8-1.38.945-2.207.037-.208.06-.414.072-.62L24.912 69.31l17.226 3.037c2.883.51 5.63-1.408 6.138-4.28.506-2.873-1.42-5.613-4.304-6.12"/></g><path d="M30.12 20.28s-1.434 18.193-2.845 22.785C25.865 47.655 20 53.897 20 53.897s3.004-3.325 7.275-3.325c4.27 0 5.546 1.21 6.412 2.246.866 1.038.937 1.543.937 1.543s1.035-1.315 2.81-2.12c1.595-.722 3.863-1.005 5.28 0 2.993 2.126-4.47-2.542-6.75-8.136-2.277-5.595-3.135-23.66-3.135-23.66l-2.17.035" fill="#5DA5A8" opacity=".337"/><g transform="rotate(-32 30.797 -6.266)"><path d="M14.362 28.923s1.69 4.068.76 7.164c3.09-.937 7.386-5.966 8.124-9.775l-.444-4.418-8.44 7.03z" fill="#64A8A7"/><path d="M7.028 24.205s-4.4.148-6.83 2.28c-.43-3.202 2.36-9.197 5.518-11.45l4.2-1.43-2.888 10.6z" fill="#5DA5A8"/><path d="M19.465 5.555c-.34-.382-.665-.777-.964-1.186C23.25 1.207 27.768 0 27.768 0s.078.47.156 1.286c-1.664.576-4.793 1.822-8.03 3.978-.142.094-.285.192-.428.29" fill="#3C99AE"/><path d="M22.522 8.16c-1.16-.746-2.178-1.626-3.058-2.605.144-.1.287-.197.43-.29 3.236-2.156 6.365-3.403 8.03-3.98.167 1.756.332 5.123-.285 8.963-1.772-.364-3.507-1.05-5.118-2.087" fill="#64A8A7"/><path d="M18.5 4.37c.3.408.623.803.965 1.185-2.563 1.766-5.155 4.103-7.104 7.137-2.605 4.054-3.607 8.64-3.933 12.414l-1.39-.896c.324-3.774 1.326-8.36 3.933-12.414 2.058-3.2 4.83-5.63 7.53-7.427" fill="#358395"/><path d="M22.522 8.162c1.61 1.036 3.347 1.72 5.117 2.086-.515 3.204-1.57 6.736-3.63 9.938-2.606 4.054-6.357 6.87-9.656 8.732l-5.927-3.812c.326-3.775 1.328-8.36 3.935-12.414 1.95-3.034 4.54-5.37 7.103-7.137.88.98 1.897 1.86 3.057 2.607z" fill="#3C99AE"/><path d="M21.418 9.88c-1.95-1.253-4.542-.69-5.794 1.26" fill="#DEDEDE"/><path fill="#358495" d="M6.826 30.75l1.67 1.073 8.377-13.036-1.67-1.073"/><ellipse fill="#3085B7" cx="19.07" cy="13.158" rx="4.015" ry="4.022"/><path d="M19.062 16.388c1.785 0 3.232-1.45 3.232-3.238 0-1.79-1.447-3.238-3.232-3.238-1.786 0-3.233 1.45-3.233 3.238s1.446 3.238 3.232 3.238z" fill="url(#a)" transform="rotate(-20 19.062 13.15)"/></g></g></svg>