<?xml version="1.0" encoding="UTF-8"?>
<svg width="78px" height="108px" viewBox="0 0 78 108" version="1.1" xmlns="http://www.w3.org/2000/svg" xmlns:xlink="http://www.w3.org/1999/xlink">
    <!-- Generator: Sketch 41.2 (35397) - http://www.bohemiancoding.com/sketch -->
    <title>Group</title>
    <desc>Created with Sketch.</desc>
    <defs></defs>
    <g id="Page-1" stroke="none" stroke-width="1" fill="none" fill-rule="evenodd">
        <g id="9.1_Desktop_Help_Center" transform="translate(-302.000000, -1162.000000)" fill="#221F20">
            <g id="Contest-Rules" transform="translate(175.000000, 1070.451477)">
                <g id="Group" transform="translate(126.000000, 91.548523)">
                    <polygon id="Fill-1" points="58 57.0171879 33.6746424 81 21 68.4934352 23.0478542 66.4762473 33.6746424 76.9221771 55.9521458 55"></polygon>
                    <path d="M24.124504,24.6008286 L54.959464,24.6008286 L54.959464,31.9016857 C50.232664,29.7739714 45.028504,28.5734 39.540424,28.5734 C34.055464,28.5734 28.851304,29.7739714 24.124504,31.9016857 L24.124504,24.6008286 Z M9.229624,4.74425714 L33.880744,4.74425714 L46.728904,20.6282571 L32.355064,20.6282571 L22.077784,20.6282571 L9.229624,4.74425714 Z M45.203224,4.74425714 L69.854344,4.74425714 L57.003064,20.6282571 L51.745864,20.6282571 L42.045784,8.63825714 L45.203224,4.74425714 Z M74.228584,68.2865429 C74.228584,87.9954 58.669144,104.027114 39.540424,104.027114 C20.414824,104.027114 4.852264,87.9954 4.852264,68.2865429 C4.852264,48.5745429 20.414824,32.5428286 39.540424,32.5428286 C58.669144,32.5428286 74.228584,48.5745429 74.228584,68.2865429 L74.228584,68.2865429 Z M0.999064,68.2865429 C0.999064,90.2142571 18.255784,107.999686 39.540424,107.999686 C60.828184,107.999686 78.081784,90.2142571 78.081784,68.2865429 C78.081784,53.5968286 70.322344,40.7959714 58.812664,33.9288286 L58.812664,24.6008286 L78.081784,0.771685714 L43.396744,0.771685714 L39.540424,5.5394 L35.687224,0.771685714 L0.999064,0.771685714 L20.271304,24.6008286 L20.271304,33.9288286 C8.761624,40.7959714 0.999064,53.5968286 0.999064,68.2865429 L0.999064,68.2865429 Z" id="Fill-2"></path>
                </g>
            </g>
        </g>
    </g>
</svg>