<?xml version="1.0" encoding="utf-8"?>
<!-- Generator: Adobe Illustrator 21.0.2, SVG Export Plug-In . SVG Version: 6.00 Build 0)  -->
<svg version="1.1" id="Layer_1" xmlns="http://www.w3.org/2000/svg" xmlns:xlink="http://www.w3.org/1999/xlink" x="0px" y="0px"
	 viewBox="0 0 30 30" style="enable-background:new 0 0 30 30;" xml:space="preserve">
<style type="text/css">
	.st0{fill:#FFFFFF;}
</style>
<path class="st0" d="M29.6,28.4c-0.3-0.3-0.7-0.8-1.2-1.3c-0.5-0.5-1.1-1.1-1.7-1.8c-0.7-0.7-1.4-1.4-2.1-2.1
	c-0.7-0.7-1.4-1.4-2.1-2.1c-0.7-0.7-1.3-1.3-1.9-1.9l-1.5-1.5L18.3,17c0.8-0.9,1.4-2,1.8-3.1c0.4-1.1,0.6-2.3,0.6-3.5
	c0-0.9-0.1-1.9-0.4-2.8c-0.2-0.9-0.6-1.7-1-2.5c-0.5-0.8-1-1.4-1.6-2.1c-0.6-0.6-1.3-1.2-2.1-1.6c-0.8-0.4-1.6-0.8-2.5-1
	c-1.8-0.5-3.7-0.5-5.5,0C5.9,0.9,4.4,1.8,3.1,3.1c-0.6,0.6-1.2,1.3-1.7,2C1,5.9,0.6,6.7,0.4,7.6c-0.5,1.8-0.5,3.7,0,5.5
	c0.2,0.9,0.6,1.7,1,2.5c0.5,0.8,1,1.4,1.6,2.1c0.6,0.6,1.3,1.2,2.1,1.6c0.8,0.4,1.6,0.8,2.5,1c0.9,0.2,1.8,0.4,2.7,0.4
	c1.2,0,2.4-0.2,3.5-0.6c1.1-0.4,2.2-1,3.1-1.8l11.5,11.5c0.2,0.2,0.4,0.3,0.7,0.3c0.3,0,0.5-0.1,0.7-0.3c0.2-0.2,0.3-0.5,0.3-0.7
	C29.9,28.8,29.8,28.6,29.6,28.4z M16.3,16.3c-0.8,0.8-1.7,1.4-2.7,1.8c-1,0.4-2.2,0.7-3.3,0.7c-1.1,0-2.3-0.2-3.3-0.7
	c-1-0.4-1.9-1-2.7-1.8c-0.8-0.8-1.4-1.7-1.8-2.7c-0.4-1-0.7-2.1-0.7-3.3c0-1.1,0.2-2.2,0.7-3.3c0.4-1,1-1.9,1.8-2.7
	C5.1,3.7,6.1,3,7.1,2.6C8.1,2.2,9.2,2,10.4,2c2.2,0,4.4,0.9,5.9,2.4c0.8,0.8,1.4,1.7,1.8,2.7c0.4,1,0.7,2.1,0.7,3.3
	c0,1.1-0.2,2.2-0.6,3.3C17.7,14.6,17.1,15.5,16.3,16.3z"/>
</svg>
