<svg width="29" height="28" viewBox="0 0 29 28" xmlns="http://www.w3.org/2000/svg"><path d="M9.646 17.5c1.087 0 2.11-.208 3.068-.623.96-.413 1.796-.978 2.51-1.687.71-.712 1.275-1.545 1.69-2.504.416-.956.624-1.976.624-3.06 0-1.086-.208-2.106-.625-3.062-.414-.96-.98-1.792-1.69-2.504-.713-.71-1.548-1.274-2.51-1.687-.958-.415-1.98-.623-3.067-.623-1.088 0-2.11.208-3.068.623-.96.413-1.796.978-2.51 1.687-.71.712-1.276 1.545-1.69 2.504-.416.956-.624 1.976-.624 3.06 0 1.086.208 2.106.624 3.062.414.96.98 1.792 1.69 2.504.714.71 1.55 1.274 2.51 1.687.96.415 1.98.623 3.068.623m18.414 9.543c0 .255-.077.48-.233.67-.155.19-.37.287-.644.287-.238 0-.44-.086-.617-.26L15.812 17.023c-.877.72-1.838 1.27-2.886 1.654-1.045.383-2.14.574-3.28.574-.886 0-1.74-.114-2.563-.34-.82-.23-1.588-.554-2.3-.974-.714-.417-1.364-.92-1.954-1.51-.59-.587-1.095-1.236-1.516-1.948C.896 13.768.57 13 .34 12.182.116 11.362 0 10.51 0 9.625 0 8.74.115 7.89.34 7.068c.23-.82.556-1.585.974-2.296.42-.712.926-1.36 1.515-1.95.59-.587 1.24-1.09 1.952-1.508.713-.42 1.48-.745 2.3-.973C7.907.115 8.76 0 9.647 0c.886 0 1.74.114 2.563.34.82.23 1.586.554 2.3.974.713.417 1.363.92 1.952 1.51.59.587 1.094 1.236 1.515 1.948.42.71.744 1.477.973 2.296.227.82.34 1.673.34 2.557 0 1.14-.19 2.23-.574 3.274-.383 1.044-.935 2.003-1.658 2.878.138.135.4.397.788.78l1.396 1.367c.545.527 1.14 1.108 1.782 1.743.646.632 1.293 1.276 1.946 1.927.654.65 1.286 1.288 1.898 1.906.61.622 1.156 1.182 1.63 1.684.475.5.854.92 1.137 1.25.283.334.425.537.425.61" fill="#221F20" fill-rule="evenodd"/></svg>