<svg xmlns="http://www.w3.org/2000/svg" viewBox="0 0 29.9 29.89" width="30" height="30">
  <path d="M29.58,28.35c-0.29-.3-0.7-0.8-1.21-1.33s-1.05-1.11-1.73-1.79-1.38-1.36-2.06-2.06-1.36-1.39-2.06-2.06-1.34-1.29-1.91-1.86l-1.48-1.46-0.83-.83a10.46,10.46,0,0,0,1.77-3.09,9.89,9.89,0,0,0,.61-3.49,10.31,10.31,0,0,0-.37-2.77,10.55,10.55,0,0,0-1-2.45,10.62,10.62,0,0,0-1.62-2.06,9.85,9.85,0,0,0-2.06-1.62,10.58,10.58,0,0,0-2.45-1,10.31,10.31,0,0,0-5.47,0,10.54,10.54,0,0,0-4.6,2.67A9.84,9.84,0,0,0,1.45,5.16a10.54,10.54,0,0,0-1,2.45,10.22,10.22,0,0,0,0,5.46,10.54,10.54,0,0,0,1,2.45,10.62,10.62,0,0,0,1.62,2.06A9.85,9.85,0,0,0,5.13,19.2a10.58,10.58,0,0,0,2.45,1,10.3,10.3,0,0,0,2.74.37,9.92,9.92,0,0,0,3.5-.61,10.77,10.77,0,0,0,3.09-1.77L28.37,29.65a0.83,0.83,0,0,0,.66.29,0.77,0.77,0,0,0,.68-0.31A1.24,1.24,0,0,0,30,28.91,2.65,2.65,0,0,0,29.58,28.35ZM16.3,16.3a8.69,8.69,0,0,1-2.67,1.79,8.13,8.13,0,0,1-3.27.66,8.13,8.13,0,0,1-3.3-.66,8.32,8.32,0,0,1-2.67-1.8,9,9,0,0,1-1.79-2.67,8.1,8.1,0,0,1-.66-3.26A8.17,8.17,0,0,1,2.6,7.11,8.31,8.31,0,0,1,4.4,4.44,8.69,8.69,0,0,1,7.1,2.66,8.13,8.13,0,0,1,10.37,2a8.27,8.27,0,0,1,5.9,2.43A8.67,8.67,0,0,1,18.06,7.1a8.1,8.1,0,0,1,.66,3.26,8.17,8.17,0,0,1-.62,3.27A8.07,8.07,0,0,1,16.3,16.3Z" transform="translate(-0.05 -0.05)"/>
</svg>