<svg width="230" height="121" viewBox="0 0 230 121" xmlns="http://www.w3.org/2000/svg" xmlns:xlink="http://www.w3.org/1999/xlink"><defs><path id="a" d="M229.252 120.82H0V.573h229.252z"/></defs><g fill="none" fill-rule="evenodd"><mask id="b" fill="#fff"><use xlink:href="#a"/></mask><path d="M1.996 87.077c-3.19 0-3.78 4.42-.827 5.257L95.2 120.89c.12 0 .237.12.355.12l132.662-1.196c1.18 0 1.417-1.673.353-2.03l-93.796-30.707H1.997z" fill="#E5E5E5" opacity=".33" mask="url(#b)"/><path fill="#939393" mask="url(#b)" d="M145.408 29.25l9.215 57.588h.236"/><path d="M98.274 116.708c-1.89 0-3.898-.24-5.67-.837L23.97 95.083c-2.127-.717-4.136-3.226-4.49-5.496l-.355-2.63L6.25 5.952c.117 0 .235-.12.354-.238l-.355-2.63c-.12-.955.354-1.79 1.3-2.03L7.075.694l-2.48.956c-.828.358-1.655 1.314-1.536 2.628l13.703 85.786c.236 1.673 1.417 3.943 2.48 5.137 1.064 1.196 2.363 2.152 4.017 2.63l68.87 20.192c1.89.597 3.78.836 5.79.836h129.945c.236 0 .59-.24.59-.597v-1.552H98.275z" fill="#939393" mask="url(#b)"/><path d="M228.455 116.708H98.275c-1.89 0-3.9-.24-5.67-.837L23.968 95.083c-2.127-.717-4.136-3.226-4.49-5.496l-.355-2.63.59-.118.474 3.584c.235 1.076 1.18 2.03 2.243 2.03h131.245c1.063 0 1.772-.954 1.535-2.03l-.59-3.584h.236l.117.24c.71 4.3 3.662 7.765 7.797 8.96l64.973 19.714c.354.12.708.597.708.956z" fill="#C2C2C2" mask="url(#b)"/><path d="M153.678 92.453H22.433c-1.063 0-2.008-.955-2.244-2.03l-.474-3.585L6.604 5.712l-.355-2.63c-.12-.955.354-1.79 1.3-2.03h131.479c1.063 0 2.008.956 2.244 2.03l4.134 26.167 9.215 57.588.59 3.584c.237 1.076-.472 2.03-1.535 2.03z" fill="#000" mask="url(#b)"/><path d="M153.678 92.93H22.433c-1.18 0-2.48-1.074-2.717-2.388l-.472-3.585L5.777 3.203c-.12-.717.118-1.434.472-1.912.472-.477.944-.716 1.653-.716H139.03c1.18 0 2.48 1.076 2.716 2.51l4.135 26.046 9.215 57.588.59 3.585c.12.717 0 1.434-.472 1.91-.354.48-.945.718-1.535.718zM7.903 1.53c-.354 0-.71.12-.945.36-.236.357-.354.715-.236 1.193l13.35 83.635.59 3.585c.235.956 1.062 1.672 1.77 1.672H153.68c.354 0 .59-.12.827-.358.236-.358.354-.717.236-1.075l-.472-3.704-9.332-57.59L140.8 3.204c-.117-.837-.944-1.673-1.77-1.673H7.902zM93.312 102.25l34.967 10.873h49.85l-33.194-10.872" fill="#B2B2B2" mask="url(#b)"/><path d="M155.213 90.422c.237 1.076-.472 2.03-1.535 2.03H22.433c-1.063 0-2.008-.954-2.244-2.03L6.25 3.082c-.237-1.074.59-2.03 1.653-2.03H139.03c1.063 0 2.008.956 2.244 2.03l13.94 87.34z" fill="#282828" mask="url(#b)"/><path d="M155.213 90.422l-.472.12s.12.12.12.24c0 .357-.237.596-.355.835-.237.24-.473.358-.827.358H22.433c-.354 0-.71-.12-1.063-.477-.354-.36-.59-.717-.71-1.195L6.723 3.083v-.24c0-.357.118-.716.354-.954.118-.24.473-.36.827-.36H139.03c.354 0 .826.24 1.063.478.354.358.59.717.708 1.195l13.94 87.34.473-.12.473-.12-13.94-87.22c-.118-.717-.472-1.314-.945-1.792-.47-.357-1.062-.716-1.77-.716H7.902c-.71 0-1.18.24-1.536.717-.472.36-.59.957-.59 1.554v.36l13.94 87.338c.117.597.472 1.195.944 1.672.474.478 1.183.717 1.773.717h131.245c.59 0 1.063-.238 1.535-.596.355-.478.59-.956.59-1.553 0-.12-.117-.358-.117-.477l-.473.12z" fill="#B2B2B2" mask="url(#b)"/><path fill="#0078D7" mask="url(#b)" d="M145.054 81.222H28.812L16.882 10.73h116.24"/><path fill="#FFF" mask="url(#b)" d="M62.598 77.638h-31.66l-7.56-44.804h31.54"/><path fill="#2F2F2F" mask="url(#b)" d="M25.386 32.834H20.66l7.562 44.804h4.725"/><path fill="#464646" mask="url(#b)" d="M56.928 44.542H27.395l-2.01-11.708H54.92"/><path d="M41.452 40.72c-1.535 0-2.953-1.315-3.19-2.868-.235-1.554.71-2.748 2.245-2.748 1.536 0 3.072 1.194 3.308 2.748.236 1.553-.827 2.867-2.363 2.867zm-.826-5.138c-1.3 0-2.127 1.075-1.89 2.27.236 1.314 1.417 2.39 2.716 2.39 1.3 0 2.127-1.076 1.89-2.39-.236-1.195-1.417-2.27-2.716-2.27zM59.408 59H29.875l1.89 11.59h29.652" fill="#00BCF2" mask="url(#b)"/><path fill="#C8C8C8" mask="url(#b)" d="M58.227 51.95h-29.65v-.478h29.532"/><path fill="#ACACAC" mask="url(#b)" d="M37.436 75.368h-3.662l-.59-3.704h3.66M32.71 54.34h-2.48l.354 1.91h2.363M31.41 47.05h-2.48l.355 1.913h2.48M47.477 47.41H41.57l-.118-1.075h5.79M55.983 49.44H41.925l-.118-1.074h14.058M52.202 54.818H42.87l-.236-1.076h9.332M57.282 56.85H43.224l-.236-1.077h14.058M44.288 72.74H38.38l-.117-1.076h5.788M60.354 74.77h-21.62l-.117-1.075h21.5"/><path fill="#0078D7" mask="url(#b)" d="M52.675 43.11h-21.5l-.236-1.077h21.617M22.67 44.542h4.725l-.827-4.66h-4.725"/><path fill="#5E5E5E" mask="url(#b)" d="M25.032 37.374H22.08l-.237-1.912h2.953M27.04 48.724h-3.07l-.237-1.91h2.953M27.867 53.623h-2.953l-.354-1.792h2.953"/><path d="M60 41.436l.117.24 10.16 8.6c6.142 5.258 14.648 5.258 18.9 0l7.325-8.84H60z" fill="#0060AC" mask="url(#b)"/><path fill="#FF8C00" mask="url(#b)" d="M104.062 38.807h5.67l-6.142-2.867"/><path fill="#FFB900" mask="url(#b)" d="M103.59 35.94h5.67l-5.198 2.867"/><path d="M105.007 35.94c-.472-2.868-3.19-5.138-6.024-5.138h-5.316l.945 5.138c.118.836.472 1.553.945 2.27l-1.772 2.987L66.142 17.54c.118.12.118.24.118.24l2.008 12.186c1.3 7.527 8.27 13.5 15.712 13.5h8.505l-8.86 14.936h9.687c.59 0 1.182 0 1.772-.12l-.236-1.433c-.945-5.14 2.126-9.44 6.852-10.276l-.827-5.377c2.717-.12 4.607-2.39 4.134-5.257M75.002 68.797h4.843c2.954 0 4.962-2.39 4.49-5.377l-.828-5.018-8.623 10.395h.118z" fill="#00BCF2" mask="url(#b)"/><path d="M101.936 47.888l-.236-1.314c-4.726.836-7.797 5.137-6.852 10.275l.236 1.432c4.726-.836 7.797-5.137 6.852-10.394zM102.763 35.82c.118.36-.236.717-.59.717-.355 0-.828-.358-.828-.717-.118-.358.118-.716.59-.716.355 0 .828.358.828.716" fill="#FFF" mask="url(#b)"/><path d="M101.936 35.104c-.473 0-.71.358-.59.716 0 .36.472.717.826.717.355 0 .71-.358.59-.717 0-.358-.472-.716-.826-.716" fill="#FFF" mask="url(#b)"/><path fill="#000" mask="url(#b)" d="M144.345 76.92H28.105l.825 4.78h116.242"/><path fill="#E3E3E3" mask="url(#b)" d="M63.19 81.7H33.655l-.827-4.78H62.36"/><path d="M74.41 79.31c.12.718-.353 1.315-1.062 1.315-.71 0-1.418-.597-1.536-1.314-.118-.716.355-1.314 1.064-1.314.708 0 1.417.598 1.535 1.315z" fill="#0078D7" mask="url(#b)"/><path d="M68.15 79.31c.118.718-.354 1.315-1.063 1.315-.827 0-1.418-.597-1.536-1.314-.235-.716.356-1.314 1.065-1.314.708 0 1.417.598 1.535 1.315z" fill="#464646" mask="url(#b)"/><path fill="#FFB900" mask="url(#b)" d="M81.263 80.625h-3.19l-.472-2.63h3.19"/><path fill="#FFF" mask="url(#b)" d="M87.406 80.625H84.57l-.472-2.63h2.835M32.002 77.877l-2.717.478.236 1.912 2.954.358"/><path d="M133.123 10.73H68.386L94.02 32.595l-.353-1.793h5.316c2.835 0 5.552 2.27 6.024 5.138h4.253l-2.6 1.434 3.073 1.433h-5.08c-.354.717-.827 1.195-1.418 1.673l40.874 34.768-10.987-64.518" fill="#3393DF" mask="url(#b)"/><path d="M106.66 37.374l-1.77 1.075c-.12.118-.237.238-.237.357h5.08l-3.072-1.433" fill="#FFA333" mask="url(#b)"/><path d="M109.26 35.94h-4.253c.12.956.12 1.673-.118 2.51l1.77-1.076 2.6-1.434" fill="#FFC733" mask="url(#b)"/><path d="M102.172 36.537c-.354 0-.827-.358-.827-.717-.118-.358.118-.716.59-.716.355 0 .828.358.828.716.118.36-.236.717-.59.717m-3.19-5.735h-5.316l.354 1.793 9.215 7.885c.59-.478 1.064-.956 1.418-1.673 0-.12.118-.24.236-.358.236-.837.236-1.554.117-2.51-.472-2.868-3.19-5.138-6.024-5.138" fill="#33C9F5" mask="url(#b)"/></g></svg>