<svg width="83" height="114" viewBox="0 0 83 114" xmlns="http://www.w3.org/2000/svg"><g fill="#000" fill-rule="evenodd"><path d="M.845 113.7h81.197V.295H.845V113.7zm5.075-5.04h71.05V5.337H5.92V108.66z"/><path d="M17.338 21.716h48.21v-6.3H17.34M17.338 38.097h48.21v-3.78H17.34M17.338 49.438h48.21v-3.78H17.34M17.338 60.778h48.21v-3.78H17.34M17.338 72.12h29.18v-3.782H17.34M31.63 94.568l-2.174 2.158-2.898-2.88-2.9 2.88-2.173-2.158 2.9-2.88-2.9-2.877 2.173-2.16 2.898 2.88 2.9-2.88 2.172 2.16-2.9 2.878 2.9 2.88zM13.53 101.1h25.374V83.46H13.532v17.64zM58.858 94.478l-2.1 2.084-5.248-5.212 2.098-2.085 3.15 3.128 4.898-4.865 2.098 2.084-4.896 4.866zM43.98 101.1h25.375V83.46H43.98v17.64z"/></g></svg>