<svg width="109" height="101" viewBox="0 0 109 101" xmlns="http://www.w3.org/2000/svg"><g fill="#000" fill-rule="evenodd"><path d="M25.054 21.232h17.903v-3.93H25.054M14.977 21.232h6.046v-3.93h-6.046M66.907 87.107H84.81v-3.93H66.907M88.96 87.107h6.046v-3.93H88.96"/><path d="M56.83 96.756h48.136V4.436H56.83v92.32zm-3.795 0H4.9V4.436h48.135v92.32zm-52.05 3.812H108.88V.504H.986v100.064z"/><path d="M14.977 37.67h27.98v-3.93h-27.98M14.977 54.11h27.98v-3.932h-27.98M14.977 70.55h27.98v-3.933h-27.98M14.977 87.107h27.98v-3.93h-27.98M66.907 21.232h27.98v-3.93h-27.98M66.907 37.67h27.98v-3.93h-27.98M66.907 54.11h27.98v-3.932h-27.98M66.907 70.55h27.98v-3.933h-27.98"/></g></svg>