<?xml version="1.0" encoding="UTF-8"?>
<svg width="40px" height="27px" viewBox="0 0 40 27" version="1.1" xmlns="http://www.w3.org/2000/svg" xmlns:xlink="http://www.w3.org/1999/xlink">
    <!-- Generator: Sketch 43.2 (39069) - http://www.bohemiancoding.com/sketch -->
    <title>Group</title>
    <desc>Created with Sketch.</desc>
    <defs></defs>
    <g id="Page-1" stroke="none" stroke-width="1" fill="none" fill-rule="evenodd">
        <g id="Group">
            <g id="warning-sign" fill-rule="nonzero" fill="#B82025">
                <path d="M13.3,1.7 L13.3,1.7 C16.4,1.7 19.2,2.9 21.5,5.2 C26,9.7 26,17 21.5,21.6 C19.2,23.7 16.5,24.9 13.3,24.9 C10.2,24.9 7.4,23.7 5.1,21.6 C3,19.3 1.8,16.4 1.8,13.4 C1.8,10.3 3,7.3 5.1,5.2 C7.4,3 10.2,1.7 13.3,1.7 M13.3,0 C9.8,0 6.5,1.2 3.9,3.8 C-1.3,9 -1.3,17.5 3.9,22.8 C6.5,25.4 9.8,26.8 13.3,26.8 C16.8,26.8 20.1,25.4 22.7,22.8 C27.9,17.6 27.9,9.1 22.7,3.8 C20.1,1.2 16.8,0 13.3,0" id="Fill-103"></path>
                <path d="M12,19.7 L14,19.7 L14,17.7 L12,17.7 L12,19.7 Z M12,15.8 L14,15.8 L14,6 L12,6 L12,15.8 Z" id="Fill-104"></path>
            </g>
            <rect id="Rectangle" fill="#FFFFFF" transform="translate(33.500000, 13.500000) scale(-1, 1) translate(-33.500000, -13.500000) " x="27" y="0" width="13" height="27"></rect>
        </g>
    </g>
</svg>