<svg xmlns="http://www.w3.org/2000/svg" viewBox="0 0 30 30">
  <defs>
    <style>.cls-1{fill:#fff;fill-rule:evenodd;}</style>
  </defs>
  <path class="cls-1" d="M28.17,3.4a4.87,4.87,0,0,0-1-1.51,4.51,4.51,0,0,0-1.41-1A4,4,0,0,0,24.1.5a4.21,4.21,0,0,0-1.69.35,4.3,4.3,0,0,0-1.45,1L3.57,20.54l-2.09,9,8.36-2.24L27.23,8.61a4.66,4.66,0,0,0,1-1.56,5.1,5.1,0,0,0,.33-1.81A4.86,4.86,0,0,0,28.17,3.4Zm-6.9.72.62-.68a4.91,4.91,0,0,1,.61-.58,2.78,2.78,0,0,1,.7-.4,2.39,2.39,0,0,1,.88-.15,2.46,2.46,0,0,1,1.06.23,2.82,2.82,0,0,1,.87.64,3.05,3.05,0,0,1,.59.94,3,3,0,0,1,.22,1.14,2.88,2.88,0,0,1-.14.94,3.07,3.07,0,0,1-.38.75,5,5,0,0,1-.54.66l-.63.67Zm-1.2,1.29,3.87,4.15L9.67,24.88A6.57,6.57,0,0,0,8.19,22.3a6,6,0,0,0-2.41-1.58ZM4.89,22.35A4.07,4.07,0,0,1,6,22.81a4.31,4.31,0,0,1,1,.77,4.51,4.51,0,0,1,.72,1,4.79,4.79,0,0,1,.43,1.23L3.8,27Z"/>
</svg>