<?xml version="1.0" encoding="UTF-8"?>
<svg width="148px" height="137px" viewBox="0 0 148 137" version="1.1" xmlns="http://www.w3.org/2000/svg" xmlns:xlink="http://www.w3.org/1999/xlink">
    <!-- Generator: Sketch 41.2 (35397) - http://www.bohemiancoding.com/sketch -->
    <title>Page 1</title>
    <desc>Created with Sketch.</desc>
    <defs></defs>
    <g id="Page-1" stroke="none" stroke-width="1" fill="none" fill-rule="evenodd">
        <g id="4.3b_Desktop_Events_Empty" transform="translate(-1145.000000, -833.000000)">
            <g id="Group-12" transform="translate(713.000000, 833.000000)">
                <g id="Page-1" transform="translate(432.000000, -11.000000)">
                    <polygon id="Fill-1" fill="#32135A" points="139.546971 134.125433 147.809533 134.125433 147.809533 38.6916633 139.546971 38.6916633"></polygon>
                    <polygon id="Fill-2" fill="#001F50" points="0 134.127346 139.548885 134.127346 139.548885 38.6935759 0 38.6935759"></polygon>
                    <polygon id="Fill-3" fill="#FFB900" points="5.27939027 129.996097 134.499116 129.996097 134.499116 42.8209999 5.27939027 42.8209999"></polygon>
                    <polygon id="Fill-4" fill="#001F50" points="66.5616493 144.22213 73.218771 144.22213 73.218771 132.979777 66.5616493 132.979777"></polygon>
                    <path d="M93.8776623,141.469111 L45.9019926,141.469111 C42.2873611,141.469111 39.4764063,144.372461 39.4764063,147.66216 L100.299422,147.66216 C100.299422,144.372461 97.4903802,141.469111 93.8776623,141.469111" id="Fill-5" fill="#001F50"></path>
                    <polygon id="Fill-7" fill="#FFCB40" points="104.20242 115.316773 109.022566 115.316773 109.022566 86.8685322 104.20242 86.8685322"></polygon>
                    <polygon id="Fill-8" fill="#FFCB40" points="111.316872 115.314861 117.285128 115.314861 117.285128 97.4204313 111.316872 97.4204313"></polygon>
                    <polygon id="Fill-9" fill="#FFCB40" points="118.660946 115.316773 124.627288 115.316773 124.627288 92.6044658 118.660946 92.6044658"></polygon>
                    <polygon id="Fill-10" fill="#FFCB40" points="126.234641 115.316773 132.202897 115.316773 132.202897 89.1636707 126.234641 89.1636707"></polygon>
                    <polygon id="Fill-11" fill="#FFCB40" points="104.20242 78.3803452 109.022566 78.3803452 109.022566 49.9340165 104.20242 49.9340165"></polygon>
                    <polygon id="Fill-12" fill="#FFCB40" points="111.316872 78.3803452 120.040591 78.3803452 120.040591 49.9340165 111.316872 49.9340165"></polygon>
                    <polygon id="Fill-13" fill="#FFCB40" points="131.284601 76.7745133 125.088637 78.3811102 120.038868 57.7325145 126.234833 56.357344"></polygon>
                    <polygon id="Fill-14" fill="#FFCB40" points="134.498734 83.1978408 134.498734 80.2160734 101.216952 80.2160734 101.216952 42.82253 97.0856716 42.82253 97.0856716 129.997627 101.216952 129.997627 101.216952 121.50944 134.498734 121.50944 134.498734 118.298158 101.216952 118.298158 101.216952 83.1978408"></polygon>
                    <polygon id="Fill-15" fill="#FFCA3E" points="104.20242 129.998009 118.662859 129.998009 118.662859 126.3277 104.20242 126.3277"></polygon>
                    <polygon id="Fill-16" fill="#FFCA3E" points="118.892481 129.996097 122.334896 129.996097 122.334896 127.473357 118.892481 127.473357"></polygon>
                    <polygon id="Fill-17" fill="#FFCA3E" points="123.710714 129.996097 126.695799 129.996097 126.695799 127.473357 123.710714 127.473357"></polygon>
                    <polygon id="Fill-18" fill="#FFCA3E" points="128.303152 129.996097 131.515945 129.996097 131.515945 127.473357 128.303152 127.473357"></polygon>
                    <polygon id="Fill-19" fill="#FFCB40" points="5.27939027 54.5204682 19.7398296 54.5204682 19.7398296 51.309187 5.27939027 51.309187"></polygon>
                    <polygon id="Fill-20" fill="#FFCB40" points="5.27939027 58.6517175 19.7398296 58.6517175 19.7398296 55.6680375 5.27939027 55.6680375"></polygon>
                    <polygon id="Fill-21" fill="#FFCB40" points="5.27939027 63.0086553 19.7398296 63.0086553 19.7398296 59.7973741 5.27939027 59.7973741"></polygon>
                    <polygon id="Fill-22" fill="#FFCB40" points="5.27939027 67.1399045 19.7398296 67.1399045 19.7398296 64.1562245 5.27939027 64.1562245"></polygon>
                    <polygon id="Fill-23" fill="#FFCB40" points="5.27939027 71.4968424 19.7398296 71.4968424 19.7398296 68.2855612 5.27939027 68.2855612"></polygon>
                    <polygon id="Fill-24" fill="#FFCB40" points="5.27939027 75.8556928 19.7398296 75.8556928 19.7398296 72.8739255 5.27939027 72.8739255"></polygon>
                    <polygon id="Fill-25" fill="#FFCB40" points="5.27939027 80.2164559 19.7398296 80.2164559 19.7398296 77.0051747 5.27939027 77.0051747"></polygon>
                    <polygon id="Fill-26" fill="#FFCB40" points="5.27939027 84.3457925 19.7398296 84.3457925 19.7398296 81.3621125 5.27939027 81.3621125"></polygon>
                    <polygon id="Fill-27" fill="#FFCB40" points="5.27939027 88.4732165 19.7398296 88.4732165 19.7398296 85.4914492 5.27939027 85.4914492"></polygon>
                    <polygon id="Fill-28" fill="#FFCB40" points="5.27939027 92.8339796 19.7398296 92.8339796 19.7398296 89.8502996 5.27939027 89.8502996"></polygon>
                    <path d="M39.0845183,108.9229 C38.2846686,108.723988 37.4829055,108.526989 36.6830558,108.131077 C34.0806743,106.346607 33.2808246,102.978492 35.0814431,100.402199 L47.2896743,78.9981199 C48.891287,76.4199144 52.2935183,75.6280916 54.8958998,77.2136498 C57.6992006,78.7992079 58.298131,82.3662356 56.6965183,84.9425285 L44.488287,106.346607 C43.2865991,108.131077 41.0860558,109.121812 39.0845183,108.9229" id="Fill-29" fill="#D83B01"></path>
                    <path d="M92.1267953,38.5436269 C91.7268704,52.7180195 79.7425206,63.6983444 65.5614545,63.0996958 C51.5813076,62.5010472 40.3968074,50.721249 40.9938244,36.5468564 C41.5946684,22.5713758 53.378099,11.3921389 67.5591651,11.9907875 C81.7402312,12.5894361 92.7257257,24.3692343 92.1267953,38.5436269" id="Fill-31" fill="#000000"></path>
                    <path d="M93.9038774,17.0379882 C93.5039526,26.208979 85.9245163,33.1861999 76.7492077,32.9872879 C67.5738992,32.5875513 60.5933933,25.0116818 60.792399,15.8426036 C61.1904103,6.66970023 68.9707658,-0.307520695 77.9470687,0.0922159204 C87.1223772,0.29112792 94.1028831,8.06590946 93.9038774,17.0379882" id="Fill-33" fill="#000000"></path>
                    <path d="M43.2200087,37.2977492 C43.6199336,25.359204 52.4029714,15.6106034 63.5836445,13.2236594 C65.3785224,5.86009014 72.1657632,0.48755352 80.1508649,0.68646552 C81.3506393,0.68646552 82.3475811,0.88537752 83.545442,1.08428952 C81.7486506,0.48755352 79.9518592,0.0897295204 77.9541487,0.0897295204 C69.969047,-0.30809448 63.1837197,5.06444214 61.3869283,12.6250108 C50.2062551,15.0138674 41.4251309,24.563556 41.025206,36.5021012 C40.6252812,47.6449984 47.412522,57.3935991 57.1944151,61.1748397 C55.198618,60.1802797 53.6008323,58.7859831 52.0049601,57.3935991 C46.4136667,52.6177984 43.0210031,45.2561418 43.2200087,37.2977492" id="Fill-35" fill="#4A4A4A"></path>
                    <path d="M51.4645832,129.997053 L86.009285,129.997053 C87.6051573,129.997053 90.2017983,85.2514159 90.2017983,85.2514159 C86.8072212,78.6892325 89.4019487,71.5303132 77.2224202,69.9390172 C67.6376193,68.7455452 58.2537375,70.3368412 58.2537375,70.3368412 C51.4645832,70.5357532 47.0711508,79.6837925 45.6742842,86.4448879 C45.6742842,86.4448879 46.074209,129.997053 51.4645832,129.997053" id="Fill-37" fill="#A80000"></path>
                    <path d="M58.1804498,70.3511858 C51.4314794,70.5500978 47.0629226,79.6962245 45.6737101,86.4554073 C45.6737101,86.4554073 46.0717214,129.999922 51.4314794,129.999922 L53.614801,129.999922 C48.255043,129.999922 48.0560374,86.4554073 48.0560374,86.4554073 C49.2481578,79.6962245 53.614801,70.5500978 60.3637714,70.3511858" id="Fill-39" fill="#BE4040"></path>
                    <path d="M70.7828653,57.5045308 L71.1808766,74.9686218 C71.3798822,78.9372988 68.1919648,82.3111523 64.2041977,82.3111523 C60.0193385,82.5100643 56.8295076,79.3351228 56.630502,75.3645332 L56.2324907,57.9023548 L70.7828653,57.5045308 Z" id="Fill-41" fill="#8C5E4A"></path>
                    <path d="M86.7580438,49.2732079 C86.7580438,52.1000535 84.5862033,54.5214245 81.8230864,54.5214245 C79.2570616,54.5214245 76.8900425,52.3008781 76.8900425,49.4740325 C76.8900425,46.8499242 78.8628774,44.4285532 81.6259943,44.4285532 C84.3910247,44.4285532 86.7580438,46.4463624 86.7580438,49.2732079" id="Fill-43" fill="#9D6952"></path>
                    <path d="M80.935215,45.6319708 C83.7461698,45.4311461 85.9543671,47.6402169 86.1571998,50.4498489 C86.1571998,51.2531474 85.9543671,51.8537086 85.7553615,52.4561824 C86.3562055,51.6547966 86.7580438,50.4498489 86.7580438,49.2449012 C86.7580438,46.4352692 84.3489273,44.4289357 81.536059,44.4289357 C79.5287809,44.4289357 77.7205084,45.8327954 77.1196644,47.6402169 C77.9233411,46.4352692 79.3278617,45.6319708 80.935215,45.6319708" id="Fill-45" fill="#B18775"></path>
                    <path d="M81.1108758,30.7091717 C81.1108758,29.5156997 80.113934,29.7146117 78.9179866,29.9135237 L56.403559,30.3113477 L45.4448536,45.8264837 C45.6438593,50.6003717 45.6438593,54.7756111 45.6438593,54.7756111 C45.6438593,56.1699077 46.2408762,57.3633797 47.237818,58.3579397 C47.6377428,58.5568517 55.4066172,65.1190351 55.4066172,65.1190351 C56.2045533,66.1135951 57.3985872,66.9092431 58.5945346,66.9092431 L64.9703695,66.7103311 C65.9673113,66.7103311 67.3622643,65.9146831 67.9611948,64.9201231 C67.9611948,64.9201231 79.9149284,57.7612037 80.3148532,57.5622917 C81.3098814,56.5677317 81.7078927,55.3742597 81.7078927,53.9799631 C81.7078927,53.7810511 81.1108758,30.7091717 81.1108758,30.7091717" id="Fill-47" fill="#9D6952"></path>
                    <path d="M67.9368931,65.0746624 C67.9368931,65.0746624 79.9135889,58.0591892 80.3116002,57.65754 C81.308542,56.6553295 81.7084668,55.4522944 81.7084668,54.0484348 L81.7084668,47.0329615 L79.5136641,44.4279794 L79.5136641,54.0484348 C79.5136641,55.4522944 78.9147336,56.6553295 78.1167975,57.65754" id="Fill-49" fill="#805443"></path>
                    <path d="M56.3398389,30.4337551 L45.4461931,45.8953379 C45.6432852,50.653925 45.6432852,54.8176887 45.6432852,54.8176887 C45.6432852,56.2062474 46.2383887,57.3939816 47.2276764,58.386629 C47.6237741,58.5836284 55.3486377,65.1266856 55.3486377,65.1266856 C56.1408332,66.1174204 57.5281322,66.9092431 58.5193335,66.9092431 L59.9047189,66.9092431 C58.9154312,66.7122437 57.92423,66.1174204 57.3310401,65.1266856 C57.3310401,65.1266856 49.6042631,58.5836284 49.2081653,58.386629 C48.2188776,57.3939816 47.6237741,56.2062474 47.6237741,54.8176887 C47.6237741,54.8176887 47.426682,50.653925 47.426682,45.8953379 L58.3203278,30.4337551" id="Fill-51" fill="#B18775"></path>
                    <path d="M63.3605286,51.113909 C62.9548632,51.113909 62.5511114,51.3109084 62.145446,51.3109084 C61.9445269,51.113909 61.7397807,50.7199102 61.7397807,50.3259114 C61.7397807,49.3447397 62.3482787,48.5567422 63.3605286,48.5567422 C64.3727785,48.5567422 64.9812765,49.1477404 65.1821957,50.1308247 C65.1821957,50.5229108 64.9812765,51.113909 64.5756112,51.3109084 C64.1718593,51.3109084 63.766194,51.113909 63.3605286,51.113909" id="Fill-53" fill="#000000"></path>
                    <path d="M52.546485,51.5706415 C51.9399005,51.5706415 51.5342352,51.5706415 51.3314025,51.7695535 C50.9257371,51.3717295 50.7248179,50.9739055 50.7248179,50.5760815 C50.7248179,49.5815215 51.5342352,48.7858735 52.3455659,48.7858735 C53.3559023,48.7858735 54.167233,49.5815215 54.167233,50.3771695 C54.167233,50.9739055 53.9624868,51.3717295 53.7615676,51.5706415 L52.546485,51.5706415 Z" id="Fill-55" fill="#000000"></path>
                    <path d="M44.498046,39.9342895 L44.498046,46.8770834 C44.2971268,46.8770834 72.6133346,47.8678181 74.2206879,34.3800544 C86.0710916,21.4852015 46.909076,32.0007609 46.909076,32.0007609" id="Fill-57" fill="#000000"></path>
                    <path d="M81.9667914,38.3745517 L81.7677858,49.4753714 C81.7677858,49.4753714 73.7329327,41.545668 72.5274177,31.2385837 C81.3659475,26.2849098 82.1677106,24.6993517 82.1677106,24.6993517" id="Fill-59" fill="#000000"></path>
                    <path d="M41.4838758,108.909703 C42.2837254,100.19774 44.4861822,95.6438029 46.4877198,94.260982 C49.6890318,91.6866016 54.0920318,94.260982 54.2910375,94.4579813 L58.4950318,95.2498041 L62.8980318,95.2498041 C63.098951,95.0528047 67.9018758,93.0732478 70.703263,96.0397143 C72.5038814,97.8222718 73.9045751,102.573208 73.3056446,111.482171 C73.3056446,112.273994 72.9038063,116.036108 70.9041822,116.233107 C70.9041822,116.233107 69.1035638,116.233107 67.501951,114.846461 C66.4992687,113.857639 64.0978063,110.690348 62.0962687,110.294437 C59.8957254,109.699613 57.494263,109.504527 57.494263,109.504527 C57.494263,109.504527 54.893795,109.305615 52.6913382,109.504527 C50.6917141,109.699613 47.6874942,112.470993 46.6886389,113.262816 C44.886107,114.253551 43.0854886,114.054639 43.0854886,114.054639 C41.083951,113.658727 41.2848701,109.898525 41.4838758,108.909703" id="Fill-61" fill="#000000"></path>
                    <path d="M46.1331453,105.76632 C46.1331453,106.569618 45.9341396,107.172092 45.5361283,107.973478 C44.1373482,110.383373 41.1446094,111.186672 38.7488876,109.981724 L35.7542352,108.375127 C33.3604269,107.172092 32.3634851,103.960811 33.7584382,101.550915 C34.9562991,99.1429327 37.9509515,98.3396343 40.3466733,99.544582 L43.5403313,101.149266 C45.1362035,102.153389 46.1331453,103.960811 46.1331453,105.76632" id="Fill-63" fill="#D83B01"></path>
                    <path d="M50.6048405,109.505674 C50.8057597,108.912763 50.6048405,108.124766 50.4039213,107.730767 C50.6048405,107.53568 50.8057597,107.336768 51.0085924,106.94277 C51.4123442,105.959685 51.0085924,105.169775 50.4039213,104.775776 L48.3832486,103.987779 L45.5550721,102.214784 L49.1907523,101.229787 C49.1907523,101.229787 51.4123442,99.6537923 50.4039213,97.8807978 C43.9400648,99.6537923 44.3438166,98.471796 42.1203112,99.4567929 C40.1015519,100.24479 38.4865445,102.805782 38.0827927,103.987779 L38.0827927,104.186691 L36.2649526,108.717677 L41.7165593,113.051663 L44.5447358,114.430659 C45.354153,114.627658 46.1616567,114.233659 46.5654085,113.445662 C46.5654085,113.051663 46.7663277,112.854664 46.7663277,112.460665 C47.3729122,112.655752 48.1804159,112.263666 48.3832486,111.475668 C48.5841678,111.081669 48.5841678,110.68767 48.5841678,110.490671 C49.3916714,110.68767 50.2010887,110.293672 50.6048405,109.505674" id="Fill-65" fill="#9D6952"></path>
                    <path d="M44.7466117,97.2528862 C44.7466117,97.2528862 42.9211176,100.383838 43.1220367,101.558183 L45.5598559,102.927616 L53.4760711,102.145356 L51.0420789,96.8608 L49.4175039,96.2736271 L44.7466117,97.2528862 Z" id="Fill-67" fill="#000000"></path>
                    <path d="M54.3964722,57.9629847 C54.5954778,59.4452616 55.9961714,60.7152382 57.393038,60.7152382 C58.9927373,60.7152382 60.1925117,59.4452616 60.5924365,57.9629847 L54.3964722,57.9629847 Z" id="Fill-69" fill="#FFFFFF"></path>
                    <path d="M77.2708322,69.8617475 C76.4767231,69.8617475 75.8777926,69.6628355 75.2826892,69.6628355 L75.2826892,69.8617475 C82.8410768,73.2470767 81.4499508,78.6234386 83.0400825,85.195185 C83.0400825,85.195185 85.4281503,129.996288 83.8361051,129.996288 L86.0232537,129.996288 C87.6152989,129.996288 90.2023724,85.195185 90.2023724,85.195185 C87.4162933,78.8223506 89.6034419,71.4549561 77.2708322,69.8617475" id="Fill-71" fill="#990000"></path>
                    <path d="M78.4518542,108.179467 C79.2517038,106.188434 81.0504087,104.792225 83.4499576,104.595225 L88.0519632,103.200929 L75.8532996,78.1150654 C75.05345,75.1294728 76.8521549,72.1438802 79.8506342,71.1474076 C82.8510271,70.3517596 86.6493561,72.9395282 87.6520384,75.9251208 L100.648638,105.79061 C100.847644,106.78517 101.247569,107.582731 101.247569,108.378379 C101.448488,111.564796 99.0489389,114.150652 96.048546,114.351476 L84.4507264,115.147124 C81.2513279,115.546861 78.4518542,113.156092 78.2528485,109.971587 C78.2528485,109.175939 78.2528485,108.975115 78.4518542,108.179467" id="Fill-73" fill="#D83B01"></path>
                    <path d="M65.1544497,108.594122 C65.1544497,107.788911 65.5543745,107.387261 66.1513915,106.983699 C65.9523858,106.784787 65.7533802,106.383138 65.9523858,105.979576 C65.9523858,105.176278 66.7522355,104.371067 67.7510907,104.371067 L70.3496453,104.772716 L74.5440721,104.571891 L70.9485757,101.957346 C70.9485757,101.957346 69.3488765,99.3447136 71.5475062,98.3405906 C77.5425514,102.965295 77.7415571,101.957346 79.7411811,103.768593 C81.539886,105.577927 81.9378973,108.393297 81.539886,109.799069 L81.1399612,115.026247 L72.7472807,116.233107 L68.9489517,115.831458 C67.9520099,115.831458 67.1521603,115.026247 67.3511659,114.022124 C67.3511659,113.620475 67.5520851,113.417738 67.5520851,113.216913 C66.7522355,113.018001 66.1513915,112.21279 66.3523106,111.409491 C66.3523106,111.00593 66.3523106,110.60428 66.7522355,110.401543 L66.5513163,110.401543 C65.7533802,110.202631 64.9554441,109.39742 65.1544497,108.594122" id="Fill-75" fill="#9D6952"></path>
                    <path d="M72.8963435,98.7732242 C72.8963435,98.7732242 73.6751445,103.053657 73.2847873,104.073081 L69.9705778,103.870344 L65.8718268,101.831496 L67.6284344,96.7343762 L69.1898633,96.7343762 L72.8963435,98.7732242 Z" id="Fill-77" fill="#000000"></path>
                    <path d="M56.5005742,54.9812173 L56.5005742,48.5567422 C55.7351679,48.5567422 55.1611131,49.1400899 55.1611131,49.920437 L54.5870584,54.9812173 L56.5005742,54.9812173 Z" id="Fill-79" fill="#B89E7C"></path>
                    <path d="M54.6262854,54.7121123 C55.0223832,55.8061283 55.8145788,56.6247277 56.80578,56.6247277 C57.5998891,56.6247277 58.3920847,56.0777197 58.9852746,54.7121123 L54.6262854,54.7121123 Z" id="Fill-81" fill="#8C5E4A"></path>
                </g>
            </g>
        </g>
    </g>
</svg>