<?xml version="1.0" encoding="UTF-8"?>
<svg width="175px" height="137px" viewBox="0 0 175 137" version="1.1" xmlns="http://www.w3.org/2000/svg" xmlns:xlink="http://www.w3.org/1999/xlink">
    <!-- Generator: Sketch 41.2 (35397) - http://www.bohemiancoding.com/sketch -->
    <title>Page 1</title>
    <desc>Created with Sketch.</desc>
    <defs>
        <polygon id="path-1" points="0 577 309 577 309 0 0 0"></polygon>
    </defs>
    <g id="Page-1" stroke="none" stroke-width="1" fill="none" fill-rule="evenodd">
        <g id="4.3b_Desktop_Events_Empty" transform="translate(-473.000000, -833.000000)">
            <g id="Group-12-Copy" transform="translate(67.000000, 833.000000)">
                <g id="Page-1" transform="translate(405.000000, -40.000000)">
                    <path d="M42,67.2587746 C42,69.8970135 44.1290136,72 46.8316781,72 L129.168322,72 C131.870986,72 134,69.8970135 134,67.2587746 L134,57.7412254 C134,55.1029865 131.870986,53 129.168322,53 L46.8316781,53 C44.1290136,53 42,55.1029865 42,57.7412254 L42,67.2587746 Z" id="Fill-1" fill="#493726"></path>
                    <path d="M38.0642,124 L138.9358,124 C159.361171,124 176,140.51146 176,160.74427 L176,191.627636 L138.9358,191.627636 L138.9358,304 L38.0642,304 L38.0642,191.627636 L1,191.627636 L1,160.74427 C1,140.51146 17.6417961,124 38.0642,124" id="Fill-9" fill="#FCD116"></path>
                    <mask id="mask-2" fill="white">
                        <use xlink:href="#path-1"></use>
                    </mask>
                    <g id="Clip-14"></g>
                    <polygon id="Fill-20" fill="#6D563D" mask="url(#mask-2)" points="88.0221382 140 104 123.923749 104 87 72 87 72 123.923749"></polygon>
                    <path d="M104,112.852128 C98.686837,114.453323 93.3323494,115 88.0221382,115 C82.6676506,115 77.3102112,114.453323 72,112.852128 L72,87 L104,87 L104,112.852128 Z" id="Fill-21" fill="#493726" mask="url(#mask-2)"></path>
                    <path d="M88.2905313,-1 C108.755852,-1 126,15.4748845 126,36.2193995 L126,50 L50,50 L50,36.2193995 C50,15.4748845 67.247128,-1 88.2905313,-1" id="Fill-22" fill="#000000" mask="url(#mask-2)"></path>
                    <path d="M126,38 L126,95.7973291 C115.76734,103.76978 102.27477,108 88.2905313,108 C74.258616,108 60.7660459,103.76978 50,95.7973291 L50,38 L126,38 Z" id="Fill-23" fill="#6D563D" mask="url(#mask-2)"></path>
                    <path d="M53,52 L53,70 L84.2024159,70 L84.2024159,64.5099093 C84.2024159,62.3362445 85.8131513,60.6946591 87.9985113,60.6946591 C90.1421888,60.6946591 91.7499468,62.3362445 91.7499468,64.5099093 L91.7499468,70 L123,70 L123,52 L53,52 Z" id="Fill-26" fill="#FBEEEC" mask="url(#mask-2)"></path>
                    <path d="M79,65.7739743 C79,66.8582935 77.9047542,68 76.8533182,68 L63.1466818,68 C62.0952458,68 61,66.8582935 61,65.7739743 L61,58.1716587 C61,57.0873395 62.0952458,56 63.1466818,56 L76.8533182,56 C77.9047542,56 79,57.0873395 79,58.1716587 L79,65.7739743 Z" id="Fill-27" fill="#00ADEE" mask="url(#mask-2)"></path>
                    <path d="M114,65.7739743 C114,66.8582935 112.948755,68 111.847731,68 L98.1054173,68 C97.0512445,68 96,66.8582935 96,65.7739743 L96,58.1716587 C96,57.0873395 97.0512445,56 98.1054173,56 L111.847731,56 C112.948755,56 114,57.0873395 114,58.1716587 L114,65.7739743 Z" id="Fill-28" fill="#D51F26" mask="url(#mask-2)"></path>
                    <path d="M80,81 C81.0340583,84.012148 83.6192039,86 87.2814936,86 C90.3807961,86 92.9659417,84.012148 94,81 L80,81 Z" id="Fill-29" fill="#493726" mask="url(#mask-2)"></path>
                    <path d="M73,94 L101,94" id="Stroke-30" stroke="#493726" stroke-width="1.095" stroke-linecap="round" mask="url(#mask-2)"></path>
                    <path d="M93,99.742 C92.4317285,98.077 90.730071,97 89.0252565,97 C87.273086,97 85.5682715,98.077 85,99.742 L93,99.742 Z" id="Fill-31" fill="#493726" mask="url(#mask-2)"></path>
                </g>
            </g>
        </g>
    </g>
</svg>