<?xml version="1.0" encoding="UTF-8"?>
<svg width="217px" height="217px" viewBox="0 0 217 217" version="1.1" xmlns="http://www.w3.org/2000/svg" xmlns:xlink="http://www.w3.org/1999/xlink">
    <!-- Generator: Sketch 41.2 (35397) - http://www.bohemiancoding.com/sketch -->
    <title>Group 11</title>
    <desc>Created with Sketch.</desc>
    <defs></defs>
    <g id="Homepage" stroke="none" stroke-width="1" fill="none" fill-rule="evenodd">
        <g id="1.2c_Desktop_Public_Hompeage_EZT_Questions" transform="translate(-1017.000000, -278.000000)">
            <g id="Group-11" transform="translate(1017.000000, 278.000000)">
                <rect id="Rectangle-2" fill="#EC3D23" x="0" y="0" width="216.867647" height="160.208427"></rect>
                <g id="Page-1" transform="translate(23.866916, 49.113779)">
                    <g id="Group" transform="translate(33.913411, 62.327350)">
                        <path d="M0.5,15.4395407 L0.5,0.620760706" id="Path-65" stroke="#EEEEEE" stroke-linecap="round"></path>
                        <polygon id="Rectangle-4" fill="#B4102A" points="3.8191672e-14 0 14.3748713 0 11.1262754 2.92644333 14.3748713 5.85288666 3.8191672e-14 5.85288666"></polygon>
                    </g>
                    <g id="Group-Copy" transform="translate(114.515297, 0.000000)">
                        <path d="M1,24.9757276 L1,1.00417173" id="Path-65" stroke="#EEEEEE" stroke-width="2" stroke-linecap="round"></path>
                        <polygon id="Rectangle-4" fill="#B4102A" points="5.86197757e-14 0 23.5017737 0 18.1905773 4.73395244 23.5017737 9.46790489 5.86197757e-14 9.46790489"></polygon>
                    </g>
                    <ellipse id="Oval-5" fill="#F68B1E" cx="145.077202" cy="31.8826736" rx="19.0476346" ry="19.0505723"></ellipse>
                    <path d="M182.108941,110.991033 L94.0519981,110.991033 L117.528629,20.4322857 C121.288175,26.0761046 182.108941,110.991033 182.108941,110.991033 Z" id="Fill-1" fill="#FAD303"></path>
                    <path d="M94.1149971,110.991033 L53.0120916,110.991033 C53.0120916,110.991033 109.555699,31.598402 117.591628,20.4322857 L94.1149971,110.991033 Z" id="Fill-4" fill="#FDB913"></path>
                    <path d="M40.3471221,71.3868283 C43.6448325,74.6212083 80.7904359,111.287493 80.7904359,111.287493 L25.6450706,111.287493 L40.3471221,71.3868283 Z" id="Fill-6" fill="#FAD303"></path>
                    <path d="M39.4871107,74.0022492 L25.776595,111.287493 L0.0364345441,111.287493 C0.0364345441,111.287493 33.2527646,78.5538141 40.4786464,71.3868283" id="Fill-8" fill="#FDB913"></path>
                </g>
                <path d="M102.947619,69.5040001 C103.014017,69.1672737 103.04995,68.8196096 103.04995,68.4625703 C103.04995,65.5156286 100.661202,63.1257308 97.7139332,63.1257308 C96.5250272,63.1257308 95.4275153,63.5148021 94.5401321,64.1726295 C93.3848154,62.1710217 91.2218188,60.8241162 88.7440199,60.8241162 C85.1374632,60.8241162 82.1987874,63.6796496 82.0613055,67.2539492 C82.0597432,67.2953564 82.0566187,67.3367636 82.0558375,67.3781708 C82.0324031,67.3773895 82.0089687,67.375827 81.9855343,67.375827 C79.0382659,67.375827 76.6495177,69.7657248 76.6495177,72.7126665 C76.6495177,75.6603894 79.0382659,78.049506 81.9855343,78.049506 L102.83201,78.049506 C103.694396,78.049506 104.49351,77.7932502 105.164515,77.354959 C106.33233,76.5916605 107.106447,75.2752244 107.106447,73.7751905 C107.106447,71.453263 105.254347,69.564939 102.947619,69.5040001" id="Page-1" fill="#F68B1E"></path>
                <path d="M29.6264292,38.1407167 C29.6600915,37.9700025 29.6783088,37.793743 29.6783088,37.6127304 C29.6783088,36.1186834 28.467256,34.9070478 26.9730434,34.9070478 C26.3702892,34.9070478 25.8138703,35.1043 25.3639828,35.4378068 C24.7782578,34.4230272 23.681657,33.7401701 22.425457,33.7401701 C20.596997,33.7401701 19.1071407,35.1878747 19.0374398,36.999981 C19.0366478,37.0209737 19.0350637,37.0419664 19.0346676,37.0629591 C19.0227868,37.062563 19.010906,37.0617708 18.9990252,37.0617708 C17.5048125,37.0617708 16.2937598,38.2734065 16.2937598,39.7674535 C16.2937598,41.2618965 17.5048125,42.4731361 18.9990252,42.4731361 L29.5678171,42.4731361 C30.0050317,42.4731361 30.4101681,42.343219 30.7503559,42.1210131 C31.3424173,41.7340344 31.7348808,41.0666247 31.7348808,40.3061342 C31.7348808,39.1289583 30.7958991,38.1716117 29.6264292,38.1407167" id="Page-1-Copy" fill="#F68B1E"></path>
                <rect id="Rectangle-2-Copy" fill="#F68B1E" x="0" y="159.749377" width="216.867647" height="57.1517168"></rect>
            </g>
        </g>
    </g>
</svg>