<?xml version="1.0" encoding="UTF-8"?>
<svg width="471px" height="471px" viewBox="0 0 471 471" version="1.1" xmlns="http://www.w3.org/2000/svg" xmlns:xlink="http://www.w3.org/1999/xlink">
    <!-- Generator: Sketch 43.2 (39069) - http://www.bohemiancoding.com/sketch -->
    <title>appeals-6</title>
    <desc>Created with Sketch.</desc>
    <defs></defs>
    <g id="Page-1" stroke="none" stroke-width="1" fill="none" fill-rule="evenodd">
        <g id="appeals-6" fill-rule="nonzero">
            <g id="Group">
                <path d="M218.9,344.7 L219.2,342.9" id="Shape" fill="#5C005C"></path>
                <rect id="Rectangle-path" fill="#FF8C00" x="0.1" y="0.3" width="470.1" height="325.7"></rect>
                <rect id="Rectangle-path" fill="#FFB900" x="0" y="317" width="470.1" height="153.8"></rect>
                <g transform="translate(10.000000, 122.000000)" id="Shape">
                    <path d="M357.9,56.5 C357.9,81 377.8,100.9 402.3,100.9 C426.8,100.9 446.7,81 446.7,56.5 C446.7,32 426.8,12.1 402.3,12.1 C377.8,12.1 357.9,31.9 357.9,56.5" fill="#FFB900"></path>
                    <path d="M344.6,28.8 C364.6,28.8 454.8,195.5 454.8,195.5 L304.5,195.5 L344.6,28.8 L344.6,28.8 Z" fill="#B60000"></path>
                    <polyline fill="#E80200" points="344.6 28.8 304.5 195.5 234.3 195.5 344.6 28.8"></polyline>
                    <polygon fill="#B60000" points="271.8 122.4 320.4 195.9 254.1 195.9"></polygon>
                    <polyline fill="#E80200" points="271.8 122.4 254.1 195.9 223.2 195.9 271.8 122.4"></polyline>
                    <path d="M299.1,14.8 C299.2,14.2 299.3,13.6 299.3,13 C299.3,8 295.3,4 290.3,4 C288.3,4 286.4,4.7 284.9,5.8 C282.9,2.4 279.3,0.1 275.1,0.1 C269,0.1 264,4.9 263.8,11 L263.8,11.2 L263.7,11.2 C258.7,11.2 254.7,15.2 254.7,20.2 C254.7,25.2 258.7,29.2 263.7,29.2 L299,29.2 C300.5,29.2 301.8,28.8 303,28 C305,26.7 306.3,24.5 306.3,21.9 C306.2,18.1 303,14.9 299.1,14.8" fill="#E80200"></path>
                    <path d="M219,250.9 C216.5,249.6 203.5,243.8 203.5,243.8 C203.5,243.8 203.5,243.8 203.4,243.8 C203.2,243.7 202.9,243.6 202.7,243.6 C201.9,243.6 201.2,244.2 201.1,245 C201.1,245 201.1,245 201.1,245.1 C200.9,246.4 199.3,249 195.6,249 L190.3,245.8 L190.3,256.7 C190.3,256.7 190.1,258.8 192.5,258.8 L219.5,258.8 C219.5,258.8 221.2,259.1 221.2,257.1 L221.2,253.6 C221.1,253.6 221.5,252.2 219,250.9" fill="#FFFFFF"></path>
                    <path d="M161.9,169.3 C161.7,169.3 161.5,169.3 161.3,169.2 L160,169.2 C156.4,169.5 153.3,172.2 152.7,176 L148,205.4 L118.5,224.4 C115.6,226.3 114.3,229.6 115,232.8 C115.1,233.3 115.2,233.7 115.4,234.1 C115.6,234.6 115.8,235.1 116.1,235.5 C117.6,237.9 122.9,239.2 122.9,239.2 L127.4,235.2 L159.8,216.9 C161.7,215.7 163,213.7 163.4,211.4 L168.7,178.4 C169.3,174.1 166.3,170 161.9,169.3" fill="#D83B01"></path>
                    <path d="M201.8,209.8 C201.8,207.7 201,205.6 199.6,204.1 L178.1,174 C175,170.8 169.9,170.7 166.7,173.8 C166.2,174.2 165.8,174.7 165.5,175.3 C163.5,178.4 157.4,179.7 160,182.5 L185.6,213 L190.4,247 C190.3,250.6 195.8,254.8 195.8,254.8 C195.8,254.8 197.5,255.3 198.3,255.3 L198.5,255.3 L204.1,249.8 L201.8,209.8 Z" fill="#D83B01"></path>
                    <path d="M192.3,213 C192.3,210.9 191.5,208.8 190.1,207.3 L168.6,177.2 C167.7,176.3 166.6,175.6 165.5,175.2 C163.5,178.3 157.6,179.9 160.2,182.6 L185.6,212.9 L190.4,246.9 C190.3,250.5 192.6,253.5 195.8,254.7 C196.6,253.5 197.1,252 197.1,250.5 L192.3,213 Z" fill="#B82F01"></path>
                    <path d="M161.2,169.2 L159.9,169.2 C156.3,169.5 153.2,172.2 152.6,176 L147.9,205.4 L118.4,224.4 C118.3,224.4 118.3,224.5 118.2,224.5 L119.7,223.6 L119.9,229.8 C120.2,230.3 120.5,230.6 120.8,231 L152.4,210.7 C154.3,209.5 155.6,207.5 156,205.2 L161.3,172.2 C161.5,171.1 161.4,170.1 161.2,169.2" fill="#B82F01"></path>
                    <path d="M215.2,132.8 C214.9,132.8 214.6,132.7 214.3,132.5 C213.5,132 213.2,130.9 213.7,130.1 L222.9,115.2 C223.4,114.4 224.5,114.1 225.3,114.6 C226.1,115.1 226.4,116.2 225.9,117 L216.7,131.9 C216.4,132.5 215.8,132.8 215.2,132.8" fill="#000000"></path>
                    <path d="M222.5,129.2 C222.4,128.7 222,128.3 221.5,128.1 C221.6,127.8 221.7,127.5 221.6,127.2 C221.5,126.4 220.8,125.9 220,126 L217.9,126.3 L214.5,126.4 L217.3,124 C217.3,124 218.5,121.8 216.6,121.1 C211.9,125.3 211.7,124.4 210.2,126 C208.8,127.6 208.7,130 209,131.1 L209,131.1 L202.5,135.8 L207.6,142.9 L216.6,135.7 L219.8,135.2 C220.6,135.1 221.1,134.4 221,133.6 C221,133.3 220.8,133.1 220.7,132.9 C221.4,132.7 221.8,132 221.7,131.3 C221.7,131 221.5,130.7 221.3,130.5 L221.3,130.5 C222.1,130.7 222.6,129.9 222.5,129.2" fill="#D4B38D"></path>
                    <path d="M142,174.2 L149.6,173.2 C149.3,172.8 149.1,172.4 148.8,172.3 C147.9,171.7 141.3,170.7 141.3,170.7 L135.9,181.2 L135.9,181.2 C135.9,181.2 135.9,181.2 135.9,181.3 C135.5,182.1 135.9,183 136.7,183.4 C137,183.6 137.4,183.6 137.7,183.5 C137.6,184.2 138,184.8 138.6,185.1 C139.1,185.3 139.6,185.3 140,185 C139.9,185.6 140.3,186.3 140.9,186.6 C141.6,186.9 142.4,186.7 142.9,186 C143.1,186.3 143.3,186.6 143.6,186.7 C144.4,187.1 145.3,186.7 145.7,186 L145.7,186 L148.2,180 L148.2,180 C142.9,180.1 142,174.2 142,174.2" fill="#D4B38D"></path>
                    <path d="M148.1,182.7 C148.1,182.7 149.3,184.2 150.4,183.4 C151,177.4 151.1,176.3 151.1,176.3 C151.1,176.3 150.4,174.4 149.7,173.2 L142.1,174.2 C142.1,174.2 143,180.1 148.3,180.1 L148.7,179.2 L148.1,182.7 Z" fill="#593A29"></path>
                    <path d="M148.1,182.7 C148.1,182.7 149.3,184.2 150.4,183.4 C151,177.4 151.1,176.3 151.1,176.3 C151.1,176.3 150.4,174.4 149.7,173.2 L142.1,174.2 C142.1,174.2 143,180.1 148.3,180.1 L148.7,179.2 L148.1,182.7 Z" fill="#4F3125"></path>
                    <polygon fill="#8A0000" points="142 174.2 150.9 177.2 155.7 163.9 146.8 161"></polygon>
                    <polyline fill="#A80000" points="146.8 161 143.1 159.7 138.3 173 142 174.2"></polyline>
                    <polygon fill="#D4B38D" points="178.5 116 164.6 116.3 167.9 101.9 179.2 110.1"></polygon>
                    <path d="M171.1,105 C171.1,105 168.4,108.8 178.7,113.4 C178.9,112 178.9,111.7 178.9,111.7" fill="#4F3125"></path>
                    <path d="M196.4,102 C196.3,101.4 194.7,94.6 195.2,93.4 C195.3,92.9 195.4,92.4 195.5,91.9 L195.5,91.9 C192.2,91.6 191.5,88.4 190.1,86.7 C189.5,87 186.7,80.6 186.2,81 C184.8,81.9 183.6,90.5 182.9,91.3 C182.5,92.5 183,94.2 182.8,94.6 C182.1,95.9 180.9,93.9 180.9,93.9 C180.9,93.9 179.8,91.4 178.5,90.1 C179,88.8 177.5,84.2 173.9,88.4 C172.8,89.6 173.3,95.4 173.1,96.3 C173.1,97.2 172.9,97.1 172.9,97.1 L172.8,97.8 C172.8,97.8 172.2,104.2 167.9,103.5 C167.9,103.5 167.9,103.5 167.8,103.5 L167.8,103.5 L167.8,103.5 L167.8,103.5 C171.7,109.6 179.3,112.3 182.7,113.9 C186.3,115.6 187.1,113.9 187.1,113.9 L189,110.4 C186.4,108.4 185.2,103.2 185.2,103.2 L186.2,103.7 L186.2,103.6 L191.3,106.4 L192.8,103.7 C197.3,104.7 196.4,102.6 196.4,102 M190.4,97.6 C189.9,97.5 189.5,97.1 189.3,96.6 C189.2,96.4 189.2,96.1 189.3,95.9 C189.4,95.3 189.9,94.9 190.5,94.8 L191,94.8 C191.8,95 192.3,95.7 192.1,96.5 C191.9,97.3 191.1,97.8 190.4,97.6" fill="#D4B38D"></path>
                    <path d="M195.7,76.1 C193.2,72 189.2,68.9 184.2,67.5 C181.3,66.7 178.3,66.5 175.5,67 C175.1,63.8 172.9,61 169.5,60 C165.1,58.7 160.5,61.3 159.3,65.7 C158.3,69.2 159.8,72.9 162.7,74.8 C161.3,76.7 160.2,78.8 159.6,81.2 C157.2,89.7 160.7,98.5 167.6,103.2 C167.7,103.2 167.8,103.3 167.9,103.3 L167.9,103.3 C172.1,103.9 174.5,97.9 174.5,97.9 L174.5,97.9 L174.5,97.9 C174.5,97.9 174.5,97.3 174.4,96.4 C174.4,95.6 174.4,94.6 174.5,93.7 C174.7,92 175.1,90.4 176.1,89.6 C176.9,89 177.7,89.4 178.4,90.1 C179.8,91.4 180.8,93.9 180.8,93.9 C180.8,93.9 182,95.9 182.7,94.6 L186.4,83.8 L186.4,83.8 C186.5,84.1 187,86.3 188.6,88.3 C189.9,90 192.1,91.6 195.4,91.9 L195.4,91.9 C197.9,91 200,89 200.8,86.2 C202,82.1 199.8,77.7 195.7,76.1" fill="#000000"></path>
                    <path d="M173.3,114.5 C164,113.5 155.7,120.3 154.7,129.6 L150.1,174.6 C149.7,178.2 152.4,181.5 156,181.9 L176.4,184 C180,184.4 183.3,181.7 183.7,178.1 L188.3,133.1 C189.4,123.7 182.6,115.4 173.3,114.5" fill="#FFF100"></path>
                    <path d="M179.5,181.8 L159.1,179.7 C155.5,179.3 152.8,176 153.2,172.4 L157.8,127.4 C158.2,123.1 160.3,119.3 163.3,116.6 C158.7,119.2 155.4,123.9 154.8,129.6 L150.2,174.6 C149.8,178.2 152.5,181.5 156.1,181.9 L176.5,184 C178.9,184.2 181.1,183.2 182.4,181.4 C181.5,181.7 180.5,181.9 179.5,181.8" fill="#FFB900"></path>
                    <path d="M187.8,140.4 L187.7,140.4 C187.1,140.3 186.7,139.8 186.8,139.2 L187.5,132.9 C187.9,128.7 186.7,124.6 184,121.3 C181.3,118 177.5,116 173.3,115.5 C167.3,114.9 161.4,117.9 157.9,123.4 L157.2,124.7 C156.9,125.2 156.3,125.4 155.8,125.1 C155.3,124.8 155.1,124.2 155.4,123.7 L156.2,122.4 C160.2,116.2 166.8,112.8 173.6,113.5 C178.4,114 182.7,116.3 185.7,120 C188.7,123.7 190.1,128.4 189.6,133.2 L189,139.5 C188.8,140 188.3,140.4 187.8,140.4" fill="#A80000"></path>
                    <path d="M212.6,139.7 C212.6,139.7 212.5,139.6 212.5,139.5 L212.3,139.3 L212.3,139.3 C212.1,139.1 211.9,138.8 211.6,138.5 C209.7,136.4 206,132.5 206,132.5 L191.5,142.8 L178.2,120.3 L165.4,129.6 L184.3,156.5 C185.3,158.2 187,159.3 189,159.6 C189.3,159.6 189.7,159.7 190,159.7 C191.6,159.7 193.2,159.1 194.4,158 C194.3,158 212.6,139.9 212.6,139.7 C212.7,139.8 212.6,139.8 212.6,139.7" fill="#D83B01"></path>
                    <path d="M130.3,137.1 L127.9,160.8 C127.4,165.9 131.1,170.5 136.2,171 L150.4,172.5 L156.2,116.1 C143.2,114.8 131.6,124.2 130.3,137.1" fill="#D83B01"></path>
                    <path d="M128,159.8 L127.9,159.8 C127.2,159.7 126.8,159.2 126.8,158.5 L128,146.4 C128.1,145.7 128.7,145.3 129.3,145.3 C130,145.4 130.4,145.9 130.4,146.6 L129.2,158.7 C129.2,159.4 128.6,159.8 128,159.8" fill="#A80000"></path>
                    <path d="M140.8,165.3 L140.1,165.3 C136.4,164.9 133.7,161.7 134,158 L134.7,150.7 L136.3,150.8 L135.6,158.1 C135.3,160.9 137.4,163.4 140.2,163.7 C141.6,163.8 142.9,163.4 144,162.5 C145.1,161.6 145.7,160.4 145.8,159 L146.5,151.9 L148.1,152.1 L147.4,159.2 C147.2,161 146.4,162.6 145,163.7 C143.9,164.8 142.4,165.3 140.8,165.3" fill="#A80000"></path>
                    <path d="M179.4,171.7 L179.2,171.7 L168.2,170.6 C167.1,170.5 166.3,169.5 166.4,168.4 C166.5,167.3 167.5,166.5 168.6,166.6 L179.6,167.7 C180.7,167.8 181.5,168.8 181.4,169.9 C181.3,170.9 180.4,171.7 179.4,171.7" fill="#FFB900"></path>
                    <path d="M186.2,103.5 L185.2,103 C185.2,103 186.4,108.2 189,110.2 L189.3,109.6 C187.1,107.4 186.3,104 186.2,103.5" fill="#D83B01"></path>
                    <path d="M189.4,109.6 L191.2,106.3 L186.2,103.6 C186.3,104 187.1,107.4 189.4,109.6" fill="#FFFFFF"></path>
                    <path d="M186.5,83.9 L185.2,87.8 L185.1,88.2 C184.9,88.9 184.3,90.5 183.8,91.9 C184.8,90.9 186.4,89.4 188.7,88.4 C187.1,86.4 186.6,84.3 186.5,83.9 L186.5,83.9" fill="#593A29"></path>
                    <path d="M178.4,90.1 C177.7,89.4 176.8,89 176.1,89.6 C175.2,90.3 174.7,92 174.5,93.7 C174.4,94.7 174.4,95.7 174.4,96.4 C174.9,94.8 176.4,90.5 178.4,90.1" fill="#593A29"></path>
                    <path d="M169.3,101.1 L169.3,101.1 C169.2,101.1 169.1,101 169,101 C162,96.3 158.6,87.5 161,79 C161.7,76.6 162.8,74.5 164.1,72.6 C161.2,70.7 159.7,67 160.7,63.5 C160.8,63.1 160.9,62.8 161.1,62.4 C160.3,63.3 159.7,64.4 159.3,65.6 C158.3,69.1 159.8,72.8 162.7,74.7 C161.3,76.6 160.2,78.7 159.6,81.1 C157.2,89.6 160.7,98.4 167.6,103.1 C167.7,103.1 167.8,103.2 167.9,103.2 L167.9,103.2 C171.1,103.6 173.3,100.2 174.1,98.6 C173,100.1 171.4,101.4 169.3,101.1" fill="#505050"></path>
                    <path d="M148.7,152.9 L148.6,152.9 L134.2,151.7 C133.5,151.6 133.1,151.1 133.1,150.4 C133.2,149.7 133.7,149.3 134.4,149.3 L148.8,150.5 C149.5,150.6 149.9,151.1 149.9,151.8 C149.8,152.4 149.3,152.9 148.7,152.9" fill="#A80000"></path>
                    <path d="M192,96.3 C192,97.1 191.4,97.7 190.6,97.7 C189.8,97.7 189.2,97.1 189.2,96.3 C189.2,95.5 189.8,94.9 190.6,94.9 C191.4,94.9 192,95.5 192,96.3" fill="#000000"></path>
                    <path d="M39,190.7 L38.5,180.9 C38.4,178.8 38.8,176.7 39.8,174.9 L46.2,162.8 L37.8,159.6 L34,175.5 C33.6,177.2 33.6,178.9 33.9,180.6 L36.5,193.8 C36.6,194.2 36.9,194.5 37.4,194.5 L43,194.5 L42.4,193.2 C42,192.4 41.2,191.9 40.4,191.9 L40.4,191.9 C39.6,192 39.1,191.4 39,190.7" fill="#E80200"></path>
                    <path d="M81.1,135.2 L78,135.2 C77.1,135.2 76.2,135.1 75.4,134.9 L72.4,134.1 C72.1,134 71.8,133.8 71.7,133.5 C71.5,132.8 70.8,132.2 70,132.3 C69.1,132.3 68.4,133.2 68.4,134.1 L68.4,138.7 C68.4,144.2 64.1,149 58.6,149.2 C55.8,149.3 53.3,148.3 51.3,146.6 C51.3,146.6 47.7,143.6 44.9,138.7 C42.4,134.5 37.8,131.7 32.6,131.7 C27.9,131.7 23.6,134 21,137.6 C19.3,140 16.6,141.4 13.7,141.4 L13.6,141.4 C11.3,141.4 9.3,142.7 8.4,144.7 L8.4,144.7 L8.4,144.7 C8.2,145.1 8.1,145.4 8,145.8 L0.4,167 C1.2,167 2,166.5 2.3,165.8 L7.4,154.6 L7.4,163.9 L9.9,178.1 L14.7,193.9 C14.8,194.3 15.2,194.5 15.5,194.5 L21.2,194.5 L20.4,192.8 C20.2,192.3 19.7,192 19.1,192 L18.2,192 C17.6,192 17,191.5 16.9,190.9 L14.9,177.8 L15.9,163.3 L18.8,163.3 L45.6,163.3 L56.1,194 C56.2,194.4 56.6,194.6 56.9,194.6 L62.6,194.6 L62,193.3 C61.6,192.5 60.9,192 60,192 L59.5,192 C58.9,192 58.3,191.5 58.2,190.9 L53,163.2 L53.4,163.2 C73.8,163.2 76.1,141.1 76.1,141.1 L81,141.1 C82.6,141.1 83.9,139.8 83.9,138.2 C84,136.5 82.7,135.2 81.1,135.2" fill="#E80200"></path>
                    <path d="M8.4,190.7 L8,181.7 C7.9,179.9 8.2,178.2 9,176.5 L12.9,167.5 L8.5,160.9 L3.6,175.3 C3,177 2.9,178.9 3.3,180.6 L5.9,193.6 C6,194 6.3,194.3 6.8,194.3 L12.5,194.3 L11.9,193 C11.5,192.2 10.7,191.7 9.9,191.7 C9,192 8.4,191.4 8.4,190.7" fill="#E80200"></path>
                    <path d="M194.7,152.8 C193.5,153.9 191.9,154.5 190.3,154.5 C190,154.5 189.6,154.5 189.3,154.4 C187.4,154.1 185.6,153 184.6,151.3 L169.4,126.5 C169.5,126.5 165.2,129.5 165.2,129.5 L184.1,156.4 C185.1,158.1 186.8,159.2 188.8,159.5 C189.1,159.5 189.5,159.6 189.8,159.6 C191.4,159.6 193,159 194.2,157.9 C194.2,157.9 212.5,139.8 212.6,139.7 C212.6,139.7 211.6,138.6 210.3,137.3 C205.3,142.4 194.7,152.8 194.7,152.8" fill="#B82F01"></path>
                    <path d="M219,250.9 C216.5,249.6 203.5,243.8 203.5,243.8 C203.5,243.8 203.5,243.8 203.4,243.8 C203.2,243.7 202.9,243.6 202.7,243.6 C201.9,243.6 201.2,244.2 201.1,245 C201.1,245 201.1,245 201.1,245.1 C200.9,246.4 199.3,249 195.6,249 L190.3,245.8 L190.3,256.7 C190.3,256.7 190.1,258.8 192.5,258.8 L219.5,258.8 C219.5,258.8 221.2,259.1 221.2,257.1 L221.2,253.6 C221.1,253.6 221.5,252.2 219,250.9" fill="#FFFFFF"></path>
                    <path d="M131,250.4 C130.7,247.6 128.6,233.6 128.6,233.6 C128.6,233.6 128.6,233.6 128.6,233.5 C128.6,233.3 128.5,233 128.4,232.8 C128,232.1 127.1,231.9 126.4,232.2 C126.4,232.2 126.4,232.2 126.3,232.2 C125.1,232.7 122,232.8 120,229.7 L119.8,223.5 L110.7,229.4 C110.7,229.4 108.8,230.4 110.1,232.4 L124.8,255 C124.8,255 125.5,256.6 127.2,255.5 L130.1,253.6 C129.9,253.7 131.3,253.3 131,250.4" fill="#FFFFFF"></path>
                    <path d="M113.4,235.7 L120.9,230.9 C120.6,230.6 120.2,230.2 120,229.7 L119.8,223.5 L110.7,229.4 C110.7,229.4 108.8,230.4 110.1,232.4 L112.7,236.5 C112.9,236 113.4,235.7 113.4,235.7" fill="#D2D2D2"></path>
                    <path d="M196.9,248.9 C196.5,249 196.1,249 195.6,249 L190.3,245.8 L190.3,256.7 C190.3,256.7 190.1,258.9 192.5,258.9 L197,258.9 L197,248.9 L196.9,248.9 Z" fill="#D2D2D2"></path>
                </g>
            </g>
            <rect id="Rectangle-path" fill="#A80000" transform="translate(144.054795, 241.542715) rotate(5.952324) translate(-144.054795, -241.542715) " x="131.204905" y="228.692825" width="25.6997796" height="25.6997796"></rect>
            <rect id="Rectangle-path" fill="#D83B01" transform="translate(144.054795, 241.542715) rotate(5.952324) translate(-144.054795, -241.542715) " x="135.104872" y="232.592792" width="17.8998465" height="17.8998465"></rect>
            <rect id="Rectangle-path" fill="#A80000" transform="translate(144.054795, 241.542715) rotate(5.952324) translate(-144.054795, -241.542715) " x="138.604842" y="236.092762" width="10.8999065" height="10.8999065"></rect>
            <rect id="Rectangle-path" fill="#E80200" opacity="0.2" x="10.3" y="374" width="309.5" height="12.4"></rect>
            <path d="M220.1,372.8 C217.6,371.5 204.6,365.7 204.6,365.7 C204.6,365.7 204.6,365.7 204.5,365.7 C204.3,365.6 204,365.5 203.8,365.5 C203,365.5 202.3,366.1 202.2,366.9 C202.2,366.9 202.2,366.9 202.2,367 C202,368.3 200.4,370.9 196.7,370.9 L191.4,367.7 L191.4,378.6 C191.4,378.6 191.2,380.7 193.6,380.7 L220.6,380.7 C220.6,380.7 222.3,381 222.3,379 L222.3,375.5 C222.2,375.5 222.7,374.1 220.1,372.8" id="Shape" fill="#FFFFFF"></path>
            <path d="M198,370.8 C197.6,370.9 197.2,370.9 196.7,370.9 L191.4,367.7 L191.4,378.6 C191.4,378.6 191.2,380.8 193.6,380.8 L198.1,380.8 L198.1,370.8 L198,370.8 Z" id="Shape" fill="#D2D2D2"></path>
            <path d="M132.1,372.6 C131.8,369.8 129.7,355.8 129.7,355.8 C129.7,355.8 129.7,355.8 129.7,355.7 C129.7,355.5 129.6,355.2 129.5,355 C129.1,354.3 128.2,354.1 127.5,354.4 C127.5,354.4 127.5,354.4 127.4,354.4 C126.2,354.9 123.1,355 121.1,351.9 L120.9,345.7 L111.8,351.6 C111.8,351.6 109.9,352.6 111.2,354.6 L125.9,377.2 C125.9,377.2 126.6,378.8 128.3,377.7 L131.2,375.8 C131,375.8 132.4,375.4 132.1,372.6" id="Shape" fill="#FFFFFF"></path>
            <path d="M114.5,357.9 L122,353.1 C121.7,352.8 121.3,352.4 121.1,351.9 L120.9,345.7 L111.8,351.6 C111.8,351.6 109.9,352.6 111.2,354.6 L113.8,358.7 C114,358.1 114.5,357.9 114.5,357.9" id="Shape" fill="#D2D2D2"></path>
            <g id="Group" transform="translate(234.000000, 183.000000)">
                <path d="M34.8,36.1 L35.8,35.7 C35.8,35.7 34.1,40.7 31.3,42.4 L31,41.7 C33.5,39.8 34.7,36.6 34.8,36.1" id="Shape" fill="#E80200"></path>
                <path d="M31.1,41.8 L29.6,38.4 L34.8,36.2 C34.7,36.6 33.5,39.8 31.1,41.8" id="Shape" fill="#FFFFFF"></path>
                <path d="M34.8,36.1 L29.6,38.3 L29.6,38.3 L34.8,36.1 L34.8,36.1" id="Shape" fill="#FBD9C0"></path>
                <path d="M53,37.7 C53,37.8 53,37.8 53,37.7 C53,37.8 53,37.8 53,37.7 C53,37.8 53,37.8 53,37.7" id="Shape" fill="#5E2F8E"></path>
                <path d="M37.5,21.1 L37.4,20.7 C37.4,20.7 37.4,20.9 37.5,21.1" id="Shape" fill="#F7CBAC"></path>
                <path d="M25,33.6 C25.1,33 27.4,26.5 27.1,25.3 C27,24.8 27,24.3 27,23.8 L27,23.8 C30.3,23.8 32.5,22.5 34,20.9 C35.8,19.1 36.5,17 36.6,16.7 L36.6,16.7 L37.5,20.7 L37.6,21.1 C37.8,21.8 38.1,23.4 38.5,24.9 C38.8,26.1 39,27.3 39.1,27.7 C39.6,29.1 41.1,27.2 41.1,27.2 C41.1,27.2 42.4,24.9 43.9,23.7 C44.7,23.1 45.6,22.8 46.2,23.4 C47,24.2 47.3,25.9 47.3,27.6 C47.3,28.6 47.2,29.6 47.2,30.3 C47.1,31.2 47,31.7 47,31.7 L47,31.7 L47,31.7 C47,31.7 48.3,36.1 51.2,37.3 L53,36.2 L54.1,44.5 L41.2,49.4 L41.2,45 C39.7,45.5 38.4,45.9 37.4,46.3 C33.7,47.6 33.1,45.8 33.1,45.8 L31.5,42.2 C34.3,40.5 36,35.5 36,35.5 L35,35.9 L35,35.8 L29.7,38 L28.5,35.2 C23.8,36.2 24.8,34.2 25,33.6" id="Shape" fill="#D4B38D"></path>
                <path d="M36.5,16.7 L37.4,20.7 L37.5,21.1 C37.7,21.8 38,23.4 38.4,24.9 C37.6,23.8 36.1,22.1 33.9,20.9 C35.7,19.2 36.4,17.1 36.5,16.7 C36.5,16.8 36.5,16.7 36.5,16.7" id="Shape" fill="#82523E"></path>
                <path d="M43.7,23.7 C44.5,23.1 45.4,22.8 46,23.4 C46.8,24.2 47.1,25.9 47.1,27.6 C47.1,28.6 47,29.6 47,30.3 C46.7,28.7 45.7,24.3 43.7,23.7" id="Shape" fill="#82523E"></path>
                <path d="M34.9,4.8 C34.9,4.8 25.1,12.5 21.9,10.5 C18.6,8.5 20.1,22 26.9,23.9" id="Shape" fill="#000000"></path>
                <path d="M61.6,107.9 L29.7,107.9 C24.7,93.3 31.1,68 32.3,64.3 C33.5,60.3 37,52.4 41.2,49.5 C43.3,48 44.9,47.7 47.4,47.1 C49,46.7 54.1,44.7 54.1,44.7 C54.1,44.7 63.2,56.7 63.2,91.1 L63.2,91.1 C63.1,97.8 62.7,104.1 61.6,107.9" id="Shape" fill="#F2F100"></path>
                <path d="M32.2,64.3 C33.4,60.3 36.9,52.4 41,49.5 C39.9,54.7 36.7,60.4 35.5,64.3 C34.3,68 28,93.3 32.9,107.9 L29.6,107.9 C24.7,93.3 31,68 32.2,64.3" id="Shape" fill="#C60201"></path>
                <polyline id="Shape" fill="#D4B38D" points="3 66.4 4.2 68.3 12.8 62.6 12.2 60.4"></polyline>
                <path d="M12.2,60.4 L3,66.4" id="Shape" fill="#D4B38D"></path>
                <path d="M23,74.5 L26.5,78.5 L43.9,59 C46.3,56.3 50.5,56.1 53.2,58.5 C55.9,60.9 56.1,65.1 53.7,67.8 L31.1,93.1 C29.8,94.5 27.9,95.3 26,95.3 C25.7,95.3 25.4,95.3 25,95.2 C23.4,94.9 22,94.1 21,92.8 C14.1,81.5 13.9,81.2 14.1,81.5 L23,74.5 Z" id="Shape" fill="#FFB700"></path>
                <path d="M8.9,53.8 C8.9,53.8 6.5,52.3 2.3,53.8 C-1.9,55.3 2.5,58.2 2.5,58.2 L2.3,58.9 L2.3,58.9 C2.6,59.9 3.1,60.9 3.4,61.1 C3.8,61.3 8.8,61.1 9.2,65.5 C9.3,66.3 9.6,67.4 9.4,67.9 L13.3,65.1 C14.8,61.2 8.9,53.8 8.9,53.8" id="Shape" fill="#D4B38D"></path>
                <path d="M7.7,70.4 L11.8,69.2 L11.3,64 L11.2,63.3 L11.2,63.3 C10.5,62.5 9.7,62 9.4,61.9 C9,61.9 6.5,61.3 4.3,57.7 C3.9,57.1 2.5,56.5 1.3,57 C1.3,57 -2.86298762e-14,59.9 0.1,63.7 C0.1,67.6 7.7,70.4 7.7,70.4" id="Shape" fill="#D4B38D"></path>
                <polygon id="Shape" fill="#D4B38D" points="9.2 68.2 5.7 69.2 6.9 70.7 15.2 80.8 21.6 75.5 13.1 65"></polygon>
                <path d="M10.8,54.4 L10.8,60.1" id="Shape" fill="#D4B38D"></path>
                <path d="M28.2,8.2 C31.1,4.5 35.3,1.8 40.3,0.9 C42.4,0.5 44.5,0.5 46.5,0.8 C55.5,1.7 62.7,9 63.3,18.1 C64.2,26.3 60,34 53,37.7 C52.9,37.7 52.8,37.7 52.7,37.8 L52.7,37.8 C48.6,37.9 46.8,31.8 46.8,31.8 L46.8,31.8 L46.8,31.8 C46.8,31.8 46.9,31.2 47,30.4 C47.1,29.6 47.2,28.7 47.1,27.7 C47.1,26.1 46.8,24.4 46,23.5 C45.3,22.8 44.5,23.1 43.7,23.8 C42.2,25 40.9,27.3 40.9,27.3 C40.9,27.3 39.5,29.2 38.9,27.8 L36.4,16.8 L36.4,16.8 C36.3,17.1 35.6,19.2 33.8,21 C32.3,22.5 30.1,23.9 26.8,23.9 L26.8,23.9 C24.4,22.8 22.6,20.6 22.1,17.8 C21.4,13.4 24.5,12.2 28.2,8.2" id="Shape" fill="#000000"></path>
                <path d="M49.5,41 C49,42.5 47.1,44.6 41.1,46.5 L41.1,45.1 C43.7,44.3 46.8,43 49.5,41" id="Shape" fill="#82523E"></path>
                <path d="M29.7,107.9 L30,107.9 L61.3,107.9 C61.3,111 60.6,114.5 58.4,118 L60.4,147 L73.6,182.9 L61,187.9 L46,151.3 C45.8,150.8 45.7,150.3 45.6,149.8 L38.9,124.6 C31.2,119 29.7,107.9 29.7,107.9" id="Shape" fill="#E80200"></path>
                <g opacity="0.2" transform="translate(55.000000, 107.000000)" id="Shape" fill="#FFFFFF">
                    <g>
                        <path d="M17.6,75.8 L2.2,41.4 L0.2,10.9 C2.4,7.4 3.1,3.9 3.1,0.8 L6.3,0.8 C6.3,3.9 5.6,7.4 3.4,10.9 L5.4,39.9 L18.6,75.8 L17.6,75.8 Z"></path>
                    </g>
                </g>
                <path d="M21.9,142.7 L29.6,107.9 L47.9,107.9 L61.6,107.9 C61.6,107.9 57.1,122.6 43.9,125.1 L37.7,145 L43.4,185.2 L30.8,187.8 L21.8,146 C21.5,144.9 21.6,143.7 21.9,142.7" id="Shape" fill="#E80200"></path>
                <g opacity="0.2" transform="translate(34.000000, 107.000000)" id="Shape" fill="#FFFFFF">
                    <g>
                        <path d="M8.3,77.9 L0.5,36.8 L6.7,16.9 C17.7,14.8 27.6,0.8 27.6,0.8 C27.6,0.8 23.1,15.5 9.9,18 L3.7,37.9 L9.4,78.1 L8.3,77.9 Z"></path>
                    </g>
                </g>
                <path d="M16.4,187.5 C18.8,186.3 30.9,180.8 30.9,180.8 L31,180.8 C31.2,180.7 31.4,180.6 31.7,180.6 C32.5,180.6 33.1,181.2 33.2,181.9 C33.2,181.9 33.2,181.9 33.2,182 C33.4,183.2 34.9,185.7 38.4,185.7 L43.4,182.7 L43.4,192.9 C43.4,192.9 43.6,194.9 41.4,194.9 L16,194.9 C16,194.9 14.4,195.2 14.4,193.3 L14.4,190 C14.4,190 14,188.7 16.4,187.5" id="Shape" fill="#FFFFFF"></path>
                <polygon id="Shape" fill="#CC0101" points="59.4 184.2 45.9 151.3 62.8 182.8"></polygon>
                <path d="M46.5,185.3 C48.9,184.1 61,178.6 61,178.6 L61.1,178.6 C61.3,178.5 61.5,178.4 61.8,178.4 C62.6,178.4 63.2,179 63.3,179.7 C63.3,179.7 63.3,179.7 63.3,179.8 C63.5,181 65,183.5 68.5,183.5 L73.5,180.5 L73.5,190.7 C73.5,190.7 73.7,192.7 71.5,192.7 L46.1,192.7 C46.1,192.7 44.5,193 44.5,191.1 L44.5,187.8 C44.5,187.8 44.1,186.5 46.5,185.3" id="Shape" fill="#FFFFFF"></path>
                <path d="M31,27.1 L31.5,27.1 C32.1,27.2 32.5,27.7 32.5,28.3 C32.5,28.5 32.5,28.8 32.4,29 C32.2,29.4 31.8,29.8 31.3,29.8 C30.5,29.9 29.8,29.3 29.8,28.5 C29.7,27.9 30.2,27.2 31,27.1" id="Shape" fill="#221F1F"></path>
            </g>
            <g id="Group" transform="translate(9.000000, 197.000000)">
                <path d="M18.8,55 C19.2,52.1 17.4,49.2 14.5,48.6 L14.5,48.6 C11.6,48 8.7,50 8.1,52.9 L0.7,87.5 C0.1,90.6 1.9,93.5 4.8,93.9 L4.8,93.9 C7.9,94.5 10.8,92.7 11.2,89.8 L18.8,55 Z" id="Shape" fill="#C49970"></path>
                <path d="M66.5,127.2 L54.5,99.7 L39.9,106 L51.9,133.5 C53.6,137.5 58.3,139.3 62.2,137.5 C66.2,135.8 68.2,131.1 66.5,127.2 Z" id="Shape" fill="#C49970"></path>
                <path d="M78.5,172.9 C85.3,171.5 92.2,175.4 94.1,182 L81,184.8 L67.5,187.8 L64.7,176 L78.5,172.9 Z" id="Shape" fill="#FFFFFF"></path>
                <polygon id="Shape" fill="#C49970" points="66.7 128.2 77.4 173.2 64.7 176 61.2 161.2 52.2 134.1"></polygon>
                <polygon id="Shape" fill="#E80200" points="73.9 158.5 77.4 173.2 64.7 176 61.2 161.2"></polygon>
                <path d="M59.5,99.9 C42.2,107.5 44.3,114.6 44.3,114.6 L47.4,121.8 L47.6,121.7 C51.4,120 53.7,116.6 54,112.8 C56.8,115.2 61.1,115.7 64.7,114.2 L59.5,99.9 Z" id="Shape" fill="#C60201"></path>
                <path d="M12,48.8 C9.1,49.4 10.8,50.8 11.4,53.7 L11.4,53.7 C12,56.8 14.9,58.6 17.8,58 L43.3,52 C46.2,51.4 48,48.5 47.4,45.4 L47.4,45.4 C46.8,42.5 43.9,40.7 41,41.3 L12,48.8 Z" id="Shape" fill="#C60201"></path>
                <path d="M57.7,131.1 C57.7,136 53.8,140 48.9,140 L48.9,140 C44.2,140 40.2,136.1 40.2,131.1 L40.2,90.1 C40.2,85.2 44.1,81.2 48.9,81.2 L48.9,81.2 C53.8,81.2 57.7,85.1 57.7,90.1 L57.7,131.1 Z" id="Shape" fill="#E1BC8F"></path>
                <path d="M78.6,73.1 C81.3,74.5 81.1,72.3 82.5,69.6 L82.5,69.6 C83.9,66.9 83.1,63.6 80.5,62.2 L51.1,45.3 C48.4,43.9 45.1,44.7 43.7,47.4 L43.7,47.4 C42.3,50.1 43.1,53.4 45.8,54.8 L78.6,73.1 Z" id="Shape" fill="#E1BC8F"></path>
                <path d="M78.6,73.1 C81.3,74.5 81.1,72.3 82.5,69.6 L82.5,69.6 C83.9,66.9 83.1,63.6 80.5,62.2 L51.1,45.3 C48.4,43.9 45.1,44.7 43.7,47.4 L43.7,47.4 C42.3,50.1 43.1,53.4 45.8,54.8 L78.6,73.1 Z" id="Shape" fill="#C60201"></path>
                <path d="M95.1,62.6 C92.8,64.4 85.4,56.6 87.7,54.6 L103.5,41 C105.8,39.2 109.1,39.4 111.1,41.6 L111.1,41.6 C113,43.9 112.7,47.2 110.5,49.2 L95.1,62.6 Z" id="Shape" fill="#E1BC8F"></path>
                <polygon id="Shape" fill="#C60201" points="62.2 63.8 67.3 54.8 55.8 48.2 54.2 60.1"></polygon>
                <rect id="Rectangle-path" fill="#E1BC8F" x="37.7" y="30.5" width="13" height="10.7"></rect>
                <path d="M44.3,39.7 C58.1,39.7 59.9,55.6 59.9,65.6 L59.9,93.2 L37.7,93.2 L37.7,39.7 L44.3,39.7 Z" id="Shape" fill="#F4F100"></path>
                <polygon id="Shape" fill="#55D455" points="59.9 93.3 37.7 93.3 59.9 109.7"></polygon>
                <polygon id="Shape" fill="#C49970" points="50.7 32.7 37.7 28.4 37.7 33.4 50.7 39.7"></polygon>
                <path d="M21,169.2 C25.5,174.6 25.3,182.4 20.6,187.3 L11.7,177.2 L2.6,166.7 L11.7,158.7 L21,169.2 Z" id="Shape" fill="#FFFFFF"></path>
                <polygon id="Shape" fill="#E1BC8F" points="55.2 137.1 20.4 168.6 11.8 158.7 22.9 148.6 40.2 128.5"></polygon>
                <polygon id="Shape" fill="#E80200" points="31.5 158.5 20.4 168.6 11.8 158.7 22.9 148.6"></polygon>
                <path d="M59.9,93.3 L37.7,93.3 L37.7,114.1 L37.9,114.1 C42.6,114.1 46.7,111.4 49,107.5 C51.1,111.4 55.2,114.1 59.9,114.1 L59.9,93.3 Z" id="Shape" fill="#E80200"></path>
                <path d="M25.4,17.3 C25.4,7.6 33.2,1.42108547e-14 42.9,1.42108547e-14 L59,1.42108547e-14 C59,1.42108547e-14 63.3,14.2 63.5,14.8 C64.1,16.5 65.6,17.9 67.4,18.5 L67.4,22 L63.3,22 L63.3,34.8 L42.7,34.6 L42.7,34.6 C42.7,34.6 42.7,34.6 42.5,34.6 L42.5,34.6 C33,34.4 25.4,26.8 25.4,17.3 Z" id="Shape" fill="#E1BC8F"></path>
                <path d="M46.3,22.4 L46.3,7.4 L61.1,7.4 C59.9,3.7 58.8,0 58.8,0 L42.7,0 C33,0 25.2,7.6 25.2,17.3 C25.2,24.1 29.1,30.1 34.9,32.7 L46.3,22.4 Z" id="Shape" fill="#030304"></path>
                <path d="M46.3,12.4 L46.3,22.5 C43.4,22.5 41.2,20.2 41.2,17.4 C41.2,14.6 43.7,12.4 46.3,12.4 Z" id="Shape" fill="#C49970"></path>
                <rect id="Rectangle-path" fill="#030304" x="46.3" y="7.4" width="5.1" height="15"></rect>
                <path d="M15.3,71.2 L18.8,54.9 C19.2,52 17.4,49.1 14.5,48.5 C11.6,47.9 8.7,49.9 8.1,52.8 L4.6,69.3 L15.3,71.2 Z" id="Shape" fill="#C60201"></path>
                <path d="M87.7,54.6 L77,63.8 C74.7,65.7 74.5,69.2 76.6,71.4 C78.4,73.7 82,73.9 84.2,72 L95.1,62.5 L87.7,54.6 Z" id="Shape" fill="#C60201"></path>
            </g>
            <g id="Group" transform="translate(64.000000, 213.000000)">
                <path d="M5.1,1.7 C5.1,2.3 4.9,2.5 4.3,2.5 C3.9,2.5 3.5,2.3 3.5,1.7 C3.5,1.3 3.9,0.9 4.3,0.9 C4.9,0.9 5.1,1.3 5.1,1.7 Z" id="Shape" fill="#030304"></path>
                <path d="M6.6,8.9 L0.4,8.9 C1.2,11.4 3.7,13.4 6.6,13.4 L6.6,8.9 Z" id="Shape" fill="#FFFFFF"></path>
            </g>
        </g>
    </g>
</svg>