<?xml version="1.0" encoding="UTF-8"?>
<svg width="217px" height="217px" viewBox="0 0 217 217" version="1.1" xmlns="http://www.w3.org/2000/svg" xmlns:xlink="http://www.w3.org/1999/xlink">
    <!-- Generator: Sketch 41.2 (35397) - http://www.bohemiancoding.com/sketch -->
    <title>Group 15</title>
    <desc>Created with Sketch.</desc>
    <defs></defs>
    <g id="Homepage" stroke="none" stroke-width="1" fill="none" fill-rule="evenodd">
        <g id="1.2c_Desktop_Public_Hompeage_EZT_Questions" transform="translate(-736.000000, -278.000000)">
            <g id="Group-15" transform="translate(736.000000, 278.000000)">
                <rect id="Rectangle-2" fill="#F7ED00" x="0" y="0" width="217" height="217"></rect>
                <g id="Page-1" transform="translate(27.785185, 120.555556)">
                    <polygon id="Fill-1" fill-opacity="0" fill="#FFFFFF" points="0 0 65.9037037 0 65.9037037 66.8222222 0 66.8222222"></polygon>
                    <g id="Group-16">
                        <path d="M0.025704981,30.996179 L0.312362635,31.283215 L11.3481427,42.6324472 C18.323337,49.3355379 29.3603529,49.3355379 36.0481918,42.6324472 L47.3715975,30.996179 L0.025704981,30.996179 L0.025704981,30.996179 Z" id="Fill-3" fill="#67197C"></path>
                        <polygon id="Fill-5" fill="#9B4299" points="57.5232508 27.7881517 65.0964523 27.7881517 57.5232508 24.0050769"></polygon>
                        <polygon id="Fill-6" fill="#D66DAE" points="57.5232508 24.0050769 65.0964523 24.0050769 57.5232508 27.7881517"></polygon>
                        <path d="M52.8896227,37.7002452 L52.8896227,26.9260605 L46.7978522,26.9260605 L27.0430561,53.1186128 L27.0430561,53.1186128 L39.5362756,53.1186128 C40.1090477,53.1186128 40.9691753,52.8315767 41.8535724,52.8315767 L41.8535724,51.0840451 C41.8535724,44.3799789 46.4872005,38.8493724 52.8896227,37.7002452 L52.8896227,37.7002452 Z" id="Fill-7" fill="#0AB9EC"></path>
                        <path d="M52.8896227,39.4477692 L52.8896227,37.7002452 C46.4872005,38.8493724 41.8535724,44.3799789 41.8535724,51.0840451 L41.8535724,52.8315767 C48.2317252,51.6581171 52.8896227,46.1275106 52.8896227,39.4477692 L52.8896227,39.4477692 Z" id="Fill-8" fill="#F2F2F2"></path>
                        <path d="M13.3790496,0.13413601 L13.3790496,0.422147469 L13.3790496,16.1518835 C13.3790496,25.7526162 21.2376754,33.6058019 30.8175221,33.6058019 L46.7978522,33.6058019 L13.3790496,0.13413601 L13.3790496,0.13413601 Z" id="Fill-9" fill="#0AB9EC"></path>
                        <path d="M52.8896227,30.709143 C49.1151567,30.709143 46.2008106,27.7881517 46.2008106,24.0050769 C46.2008106,20.222002 49.1151567,17.3253355 52.8896227,17.3253355 C56.6640964,17.3253355 59.5784271,20.222002 59.5784271,24.0050769 C59.5784271,27.7881517 56.6640964,30.709143 52.8896227,30.709143 Z" id="Fill-10" fill="#0AB9EC"></path>
                        <path d="M56.6640964,23.7180409 C56.6640964,24.2921129 56.3767333,24.6034814 55.7796917,24.6034814 C55.2069195,24.6034814 54.9195641,24.2921129 54.9195641,23.7180409 C54.9195641,23.1429857 55.2069195,22.8559497 55.7796917,22.8559497 C56.3767333,22.8559497 56.6640964,23.1429857 56.6640964,23.7180409 L56.6640964,23.7180409 Z" id="Fill-11" fill="#FFFFFF"></path>
                        <polygon id="Fill-12" fill="#0AB9EC" points="46.2008106 24.0050769 52.8894242 24.0050769 52.8894242 17.3251443 46.2008106 17.3251443"></polygon>
                        <path d="M13.3790496,66.5024137 L13.3790496,66.5024137 L19.7805062,66.5024137 C23.5549723,66.5024137 26.7557006,63.3181309 26.7557006,59.5352489 L26.7557006,53.1186128 L13.3790496,66.5024137 L13.3790496,66.5024137 Z" id="Fill-13" fill="#0AB9EC"></path>
                        <path d="M48.5413903,53.4056494 L48.5413903,51.3710777 C48.5413903,50.5089875 49.1151325,49.623545 49.9752703,49.623545 L49.9752703,49.623545 C51.1450735,49.623545 51.7188157,50.5089875 51.7188157,51.3710777 L51.7188157,53.4056494" id="Stroke-14" stroke="#041F8C" stroke-width="0.61516"></path>
                        <path d="M49.9752703,49.623545 L49.9752703,53.4056494" id="Stroke-15" stroke="#041F8C" stroke-width="0.61516"></path>
                    </g>
                </g>
                <g id="Page-1" transform="translate(94.377778, 128.133333)" fill="#FFFFFF">
                    <path d="M23.1619358,0 L4.86242166,0 C2.18712016,0 0,2.12347517 0,4.80966997 L0,8.88265367 C0,11.5688485 2.18712016,13.6857868 4.86242166,13.6857868 L7.45093289,13.6857868 L7.45093289,17.8456922 L11.0158085,13.6857868 L23.1619358,13.6857868 C25.8374277,13.6857868 28.0173953,11.5688485 28.0173953,8.88265367 L28.0173953,4.80966997 C28.0173953,2.12347517 25.8374277,0 23.1619358,0 L23.1619358,0 Z" id="Fill-3"></path>
                </g>
                <g id="Page-1-Copy" transform="translate(136.018519, 42.200000) scale(-1, 1) translate(-136.018519, -42.200000) translate(128.518519, 37.200000)" fill="#FFFFFF">
                    <path d="M11.8634305,0 L2.49050865,0 C1.12023228,0 -8.73079387e-13,1.08896163 -8.73079387e-13,2.46649742 L-8.73079387e-13,4.55520701 C-8.73079387e-13,5.93274281 1.12023228,7.01835222 2.49050865,7.01835222 L3.81633148,7.01835222 L3.81633148,9.15163703 L5.64224339,7.01835222 L11.8634305,7.01835222 C13.2338044,7.01835222 14.3503732,5.93274281 14.3503732,4.55520701 L14.3503732,2.46649742 C14.3503732,1.08896163 13.2338044,0 11.8634305,0 L11.8634305,0 Z" id="Fill-3"></path>
                </g>
                <g id="Page-1-Copy-4" transform="translate(103.333333, 56.718519)" fill="#FFFFFF">
                    <path d="M15.8179074,0 L3.32067821,0 C1.49364304,0 0,1.44287415 0,3.26810908 L0,6.03564929 C0,7.86088422 1.49364304,9.29931669 3.32067821,9.29931669 L5.08844197,9.29931669 L5.08844197,12.1259191 L7.52299118,9.29931669 L15.8179074,9.29931669 C17.6450725,9.29931669 19.1338309,7.86088422 19.1338309,6.03564929 L19.1338309,3.26810908 C19.1338309,1.44287415 17.6450725,0 15.8179074,0 L15.8179074,0 Z" id="Fill-3"></path>
                </g>
                <g id="Page-1-Copy-2" transform="translate(166.214815, 53.351852) scale(-1, 1) translate(-166.214815, -53.351852) translate(143.214815, 29.851852)">
                    <polygon id="Fill-1" fill-opacity="0" fill="#FFFFFF" points="4.29878355e-13 0 45.9259259 0 45.9259259 46.6148148 4.29878355e-13 46.6148148"></polygon>
                    <g id="Group-16">
                        <path d="M0.0179128787,21.6227641 L0.21767431,21.8229988 L7.90811335,29.7401608 C12.768876,34.4162 20.4601762,34.4162 25.1206911,29.7401608 L33.0115662,21.6227641 L0.0179128787,21.6227641 L0.0179128787,21.6227641 Z" id="Fill-3" fill="#DA75AE"></path>
                        <polygon id="Fill-5" fill="#EA2A8A" points="40.0858891 19.3848618 45.3633814 19.3848618 40.0858891 16.7458096"></polygon>
                        <polygon id="Fill-6" fill="#DA75AE" points="40.0858891 16.7458096 45.3633814 16.7458096 40.0858891 19.3848618"></polygon>
                        <path d="M36.8568799,26.2994838 L36.8568799,18.7834718 L32.6117437,18.7834718 L18.8453352,37.0552522 L18.8453352,37.0552522 L27.5514115,37.0552522 C27.9505559,37.0552522 28.549948,36.8550175 29.1662525,36.8550175 L29.1662525,35.635949 C29.1662525,30.9592293 32.3952617,27.1011086 36.8568799,26.2994838 L36.8568799,26.2994838 Z" id="Fill-7" fill="#EA2A8A"></path>
                        <path d="M36.8568799,27.5185469 L36.8568799,26.2994838 C32.3952617,27.1011086 29.1662525,30.9592293 29.1662525,35.635949 L29.1662525,36.8550175 C33.6109583,36.0364184 36.8568799,32.1782978 36.8568799,27.5185469 L36.8568799,27.5185469 Z" id="Fill-8" fill="#DA75AE"></path>
                        <path d="M9.3233795,0.0935725432 L9.3233795,0.294487753 L9.3233795,11.2674651 C9.3233795,17.9648835 14.7997738,23.4432226 21.4756252,23.4432226 L32.6117437,23.4432226 L9.3233795,0.0935725432 L9.3233795,0.0935725432 Z" id="Fill-9" fill="#EA2A8A"></path>
                        <path d="M41.5180677,16.7458096 C41.5180677,19.3848618 39.4871752,21.4225293 36.8568799,21.4225293 C34.22659,21.4225293 32.1956868,19.3848618 32.1956868,16.7458096 C32.1956868,14.1067574 34.22659,12.0860588 36.8568799,12.0860588 C39.4871752,12.0860588 41.5180677,14.1067574 41.5180677,16.7458096 L41.5180677,16.7458096 Z" id="Fill-10" fill="#EA2A8A"></path>
                        <path d="M39.4871752,16.5455749 C39.4871752,16.9460444 39.2869221,17.1632533 38.8708653,17.1632533 C38.4717209,17.1632533 38.2714732,16.9460444 38.2714732,16.5455749 C38.2714732,16.1444196 38.4717209,15.9441848 38.8708653,15.9441848 C39.2869221,15.9441848 39.4871752,16.1444196 39.4871752,16.5455749 L39.4871752,16.5455749 Z" id="Fill-11" fill="#FFFFFF"></path>
                        <polygon id="Fill-12" fill="#EA2A8A" points="32.1956868 16.7458096 36.8567416 16.7458096 36.8567416 12.0859254 32.1956868 12.0859254"></polygon>
                        <path d="M9.3233795,46.3917181 L9.3233795,46.3917181 L13.7843249,46.3917181 C16.4146148,46.3917181 18.6450875,44.17038 18.6450875,41.5314623 L18.6450875,37.0552522 L9.3233795,46.3917181 L9.3233795,46.3917181 Z" id="Fill-13" fill="#DA75AE"></path>
                        <path d="M33.8267528,37.2554874 L33.8267528,35.8361814 C33.8267528,35.234792 34.2265732,34.6171122 34.8259723,34.6171122 L34.8259723,34.6171122 C35.6411662,34.6171122 36.0409866,35.234792 36.0409866,35.8361814 L36.0409866,37.2554874" id="Stroke-14" stroke="#000000" stroke-width="0.61516"></path>
                        <path d="M34.8259723,34.6171122 L34.8259723,37.2554874" id="Stroke-15" stroke="#000000" stroke-width="0.61516"></path>
                    </g>
                </g>
                <g id="Page-1-Copy-3" transform="translate(53.503704, 51.207407)">
                    <polygon id="Fill-1" fill-opacity="0" fill="#FFFFFF" points="0 0 52.3555556 0 52.3555556 53.0444444 0 53.0444444"></polygon>
                    <g id="Group-16">
                        <path d="M0.0204206817,24.6052143 L0.248148713,24.8330676 L9.01524922,33.8422519 C14.5565186,39.1632621 23.3246009,39.1632621 28.6375879,33.8422519 L37.6331855,24.6052143 L0.0204206817,24.6052143 L0.0204206817,24.6052143 Z" id="Fill-3" fill="#118171"></path>
                        <polygon id="Fill-5" fill="#1386AA" points="45.6979135 22.0586359 51.7142548 22.0586359 45.6979135 19.0555765"></polygon>
                        <polygon id="Fill-6" fill="#5ECCF4" points="45.6979135 19.0555765 51.7142548 19.0555765 45.6979135 22.0586359"></polygon>
                        <path d="M42.0168431,29.9269988 L42.0168431,21.3742955 L37.1773878,21.3742955 L21.4836822,42.1663215 L21.4836822,42.1663215 L31.4086092,42.1663215 C31.8636337,42.1663215 32.5469407,41.9384681 33.2495279,41.9384681 L33.2495279,40.5512523 C33.2495279,35.2294678 36.9305983,30.8391925 42.0168431,29.9269988 L42.0168431,29.9269988 Z" id="Fill-7" fill="#1BB093"></path>
                        <path d="M42.0168431,31.3142086 L42.0168431,29.9269988 C36.9305983,30.8391925 33.2495279,35.2294678 33.2495279,40.5512523 L33.2495279,41.9384681 C38.3164925,41.0069589 42.0168431,36.6166837 42.0168431,31.3142086 L42.0168431,31.3142086 Z" id="Fill-8" fill="#2F68B9"></path>
                        <path d="M10.6286526,0.106479101 L10.6286526,0.335106754 L10.6286526,12.8215983 C10.6286526,20.4427984 16.8717421,26.6767706 24.4822127,26.6767706 L37.1773878,26.6767706 L10.6286526,0.106479101 L10.6286526,0.106479101 Z" id="Fill-9" fill="#1BB093"></path>
                        <path d="M47.3305972,19.0555765 C47.3305972,22.0586359 45.0153797,24.377361 42.0168431,24.377361 C39.0183126,24.377361 36.703083,22.0586359 36.703083,19.0555765 C36.703083,16.0525171 39.0183126,13.7531014 42.0168431,13.7531014 C45.0153797,13.7531014 47.3305972,16.0525171 47.3305972,19.0555765 L47.3305972,19.0555765 Z" id="Fill-10" fill="#1BB093"></path>
                        <path d="M45.0153797,18.8277231 C45.0153797,19.2834298 44.7870912,19.5305986 44.3127864,19.5305986 C43.8577619,19.5305986 43.6294795,19.2834298 43.6294795,18.8277231 C43.6294795,18.3712361 43.8577619,18.1433827 44.3127864,18.1433827 C44.7870912,18.1433827 45.0153797,18.3712361 45.0153797,18.8277231 L45.0153797,18.8277231 Z" id="Fill-11" fill="#FFFFFF"></path>
                        <polygon id="Fill-12" fill="#1BB093" points="36.703083 19.0555765 42.0166854 19.0555765 42.0166854 13.7529496 36.703083 13.7529496"></polygon>
                        <path d="M10.6286526,52.7905758 L10.6286526,52.7905758 L15.7141304,52.7905758 C18.7126609,52.7905758 21.2553998,50.2628462 21.2553998,47.2599399 L21.2553998,42.1663215 L10.6286526,52.7905758 L10.6286526,52.7905758 Z" id="Fill-13" fill="#1BB093"></path>
                        <path d="M38.5624982,42.3941753 L38.5624982,40.7791029 C38.5624982,40.0947633 39.0182934,39.3918863 39.7016084,39.3918863 L39.7016084,39.3918863 C40.6309294,39.3918863 41.0867247,40.0947633 41.0867247,40.7791029 L41.0867247,42.3941753" id="Stroke-14" stroke="#000000" stroke-width="0.61516"></path>
                        <path d="M39.7016084,39.3918863 L39.7016084,42.3941753" id="Stroke-15" stroke="#000000" stroke-width="0.61516"></path>
                    </g>
                </g>
            </g>
        </g>
    </g>
</svg>