<?xml version="1.0" encoding="UTF-8"?>
<svg width="216px" height="217px" viewBox="0 0 216 217" version="1.1" xmlns="http://www.w3.org/2000/svg" xmlns:xlink="http://www.w3.org/1999/xlink">
    <!-- Generator: Sketch 41.2 (35397) - http://www.bohemiancoding.com/sketch -->
    <title>Group 14</title>
    <desc>Created with Sketch.</desc>
    <defs>
        <rect id="path-1" x="0" y="0" width="216" height="216.209423"></rect>
        <linearGradient x1="50%" y1="0%" x2="50%" y2="100%" id="linearGradient-3">
            <stop stop-color="#FFF5AF" offset="0%"></stop>
            <stop stop-color="#EDB700" offset="51.9490334%"></stop>
            <stop stop-color="#DEA600" offset="52.1058395%"></stop>
            <stop stop-color="#D6A000" offset="100%"></stop>
        </linearGradient>
    </defs>
    <g id="Homepage" stroke="none" stroke-width="1" fill="none" fill-rule="evenodd">
        <g id="1.2c_Desktop_Public_Hompeage_EZT_Questions" transform="translate(-457.000000, -278.000000)">
            <g id="Group-14" transform="translate(457.000000, 278.000000)">
                <g id="Group">
                    <mask id="mask-2" fill="white">
                        <use xlink:href="#path-1"></use>
                    </mask>
                    <use id="Rectangle-2" fill="#9EC0C9" xlink:href="#path-1"></use>
                    <path d="M105.917962,172.58848 C106.285799,170.721522 106.484864,168.79392 106.484864,166.814338 C106.484864,150.475207 93.2513892,137.22457 76.9237569,137.22457 C70.337312,137.22457 64.2571839,139.381751 59.3411514,143.029033 C52.9407888,131.931246 40.9579597,124.463414 27.2311508,124.463414 C7.25111407,124.463414 -9.02891588,140.295738 -9.7905547,160.113215 C-9.79920969,160.342795 -9.81651966,160.572374 -9.82084716,160.801954 C-9.95067196,160.797622 -10.0804968,160.788959 -10.2103216,160.788959 C-26.5379539,160.788959 -39.7714286,174.039596 -39.7714286,190.378727 C-39.7714286,206.72219 -26.5379539,219.968495 -10.2103216,219.968495 L105.277493,219.968495 C110.055046,219.968495 114.482072,218.547701 118.199388,216.117623 C124.668991,211.885563 128.957537,204.586667 128.957537,196.269824 C128.957537,183.396044 118.69705,172.926351 105.917962,172.58848" id="Page-1" fill="#FFFFFF" mask="url(#mask-2)"></path>
                    <path d="M119.697984,177.5434 C121.543679,180.918763 122.595838,184.794538 122.595838,188.918906 C122.595838,202.013571 112.032486,212.627158 99.0033868,212.627158 L-16.0706536,212.627158 C-23.1578664,212.627158 -29.6603682,210.108953 -34.7428571,205.916788 C-29.5800507,214.47707 -20.2230664,220.199529 -9.53441854,220.199529 L105.539622,220.199529 C118.568721,220.199529 129.130467,209.585942 129.130467,196.494505 C129.130467,188.74134 125.426225,181.864704 119.697984,177.5434" id="Page-1" fill="#D2D2D2" mask="url(#mask-2)"></path>
                </g>
                <g id="Page-1" transform="translate(94.716795, 124.736232) rotate(-350.000000) translate(-94.716795, -124.736232) translate(34.716795, 30.736232)">
                    <path d="M20.2486423,110.950371 C24.3745225,104.53776 31.0229308,100.724695 38.0580475,99.9692201 L44.5517724,104.142176 C37.5136811,104.897651 30.8682475,108.710716 26.7423672,115.126301 C11.6250469,138.626321 7.79365987,169.627549 6.8239144,183.77634 C2.60879378,186.045738 3.73034936e-12,187.229513 3.73034936e-12,187.229513 C3.73034936e-12,187.229513 0.0327214727,142.385848 20.2486423,110.950371" id="Fill-1" fill="#FCCB7C"></path>
                    <path d="M44.5517724,104.140689 L63.2595308,116.168797 C65.5916794,123.170322 64.8956044,131.111728 61.0076985,137.155525 C45.8100618,160.792363 19.2788968,177.058862 6.8239144,183.774853 C7.79365987,169.626062 11.6220722,138.627808 26.7453419,115.124814 C30.8682475,108.709229 37.5136811,104.899138 44.5517724,104.140689" id="Fill-3" fill="#FFF5AF"></path>
                    <path d="M64.3559976,116.905533 C64.3559976,116.905533 71.1947854,133.344542 67.431816,145.860437 C79.9314186,142.071166 97.3005713,121.747709 100.284175,106.349709 L98.490443,88.4949288 L64.3559976,116.905533 Z" id="Fill-5" fill="#9D9BCC"></path>
                    <path d="M34.690413,97.833071 C34.690413,97.833071 16.8958812,98.4309072 7.06754064,107.053431 C5.33330259,94.1092355 16.610312,69.8745615 29.3865597,60.7672257 L46.3779281,54.9940909 L34.690413,97.833071 Z" id="Fill-7" fill="#9D9BCC"></path>
                    <path d="M81.0963031,17.6584757 C100.294883,4.88084194 118.571313,1.58095759e-13 118.571313,1.58095759e-13 C118.571313,1.58095759e-13 118.886629,1.89760948 119.201945,5.19909306 C112.473221,7.52797742 99.8159601,12.5634834 86.7243964,21.2782104 C86.1502832,21.6559477 85.5702208,22.0545052 84.993133,22.4530626 C83.6128818,20.909396 82.3040229,19.3121918 81.0963031,17.6584757 Z" id="Fill-9" fill-opacity="0.5" fill="#9D9BCC"></path>
                    <path d="M97.3570902,32.9865798 C92.6689955,29.9676557 88.5490647,26.4103815 84.9913482,22.4515755 C85.5714106,22.053018 86.1484984,21.6574348 86.7255862,21.2767232 C99.81715,12.5649706 112.471436,7.52649026 119.203135,5.1976059 C119.881362,12.2913341 120.54769,25.8988002 118.051934,41.4217216 C110.891881,39.9494384 103.874613,37.1744076 97.3570902,32.9865798" id="Fill-11" fill="#9D9BCC"></path>
                    <path d="M84.9922406,22.4521703 C74.6284578,29.5905132 64.1456878,39.0369203 56.2627875,51.2999985 C45.720524,67.6854696 41.6690107,86.2183923 40.3512278,101.4766 L34.7261091,97.8538912 C36.0379427,82.5986576 40.0924307,64.0657349 50.6346942,47.6802638 C58.957847,34.739043 70.1753628,24.9238216 81.0954106,17.6575834 C82.3031305,19.3112995 83.6119894,20.9085037 84.9922406,22.4521703 Z" id="Fill-13" fill="#C7A7CF"></path>
                    <path d="M97.358875,32.988067 C103.873423,37.1758948 110.893666,39.9479513 118.053719,41.4202345 C115.974418,54.3703782 111.702779,68.6470639 103.376651,81.5882847 C92.8373624,97.9767302 77.6635231,109.359413 64.3220863,116.884416 L40.3521202,101.474518 C41.6669284,86.2163103 45.7214164,67.6863619 56.2636799,51.3008907 C64.1465802,39.0378126 74.6263755,29.5914055 84.993133,22.4530626 C88.5478748,26.4118686 92.6678057,29.9691428 97.358875,32.988067 Z" id="Fill-15" fill="#F0BCBD"></path>
                    <path d="M92.8915016,39.9390283 C85.011576,34.8708049 74.5228566,37.149126 69.4569777,45.0250976" id="Fill-17" fill="#DEDEDE"></path>
                    <polygon id="Fill-19" fill="#9D9BCC" points="33.874161 124.28658 40.6266831 128.626098 74.5112554 75.9362043 67.7557586 71.5966867"></polygon>
                    <ellipse id="Oval-7" fill="#D8D8D8" cx="83.3944954" cy="53.1832788" rx="16.2385321" ry="16.2581008"></ellipse>
                    <path d="M83.3618412,66.2397341 C90.5820776,66.2397341 96.4352357,60.3795225 96.4352357,53.1505852 C96.4352357,45.9216478 90.5820776,40.0614363 83.3618412,40.0614363 C76.1416048,40.0614363 70.2884467,45.9216478 70.2884467,53.1505852 C70.2884467,60.3795225 76.1416048,66.2397341 83.3618412,66.2397341 Z" id="Oval-7-Copy" fill="url(#linearGradient-3)" transform="translate(83.361841, 53.150585) rotate(-20.000000) translate(-83.361841, -53.150585) "></path>
                </g>
            </g>
        </g>
    </g>
</svg>