<?xml version="1.0" encoding="UTF-8"?>
<svg width="468px" height="468px" viewBox="0 0 468 468" version="1.1" xmlns="http://www.w3.org/2000/svg" xmlns:xlink="http://www.w3.org/1999/xlink">
    <!-- Generator: Sketch 43.2 (39069) - http://www.bohemiancoding.com/sketch -->
    <title>appeals-5</title>
    <desc>Created with Sketch.</desc>
    <defs></defs>
    <g id="Page-1" stroke="none" stroke-width="1" fill="none" fill-rule="evenodd">
        <g id="appeals-5" fill-rule="nonzero">
            <path d="M218.2,342.5 L218.5,340.7" id="Shape" fill="#5C005C"></path>
            <rect id="Rectangle-path" fill="#96C2CA" x="0.7" y="0.1" width="467.3" height="323.8"></rect>
            <rect id="Rectangle-path" fill="#A0DBB7" x="0.7" y="314.5" width="467.3" height="152.9"></rect>
            <g id="Group" transform="translate(10.000000, 121.000000)">
                <path d="M343.1,28.8 C363,28.8 452.7,194.5 452.7,194.5 L303.2,194.5 L343.1,28.8 L343.1,28.8 Z" id="Shape" fill="#91C2BD"></path>
                <path d="M343.1,28.8 L303.3,194.5 L233.5,194.5 C233.5,194.5 323.2,28.8 343.1,28.8" id="Shape" fill="#98C9C5"></path>
                <path d="M270.7,121.8 C279.5,121.8 319,194.8 319,194.8 L253.2,194.8 L270.7,121.8 Z" id="Shape" fill="#91C2BD"></path>
                <path d="M270.7,121.8 L253.1,194.8 L222.4,194.8 C222.5,194.9 262,121.8 270.7,121.8" id="Shape" fill="#98C9C5"></path>
                <path d="M297.9,14.8 C298,14.2 298.1,13.6 298.1,13 C298.1,8 294.1,4 289.1,4 C287.1,4 285.2,4.7 283.8,5.8 C281.9,2.4 278.2,0.2 274,0.2 C267.9,0.2 263,5 262.7,11 L262.7,11.2 L262.6,11.2 C257.6,11.2 253.6,15.2 253.6,20.2 C253.6,25.2 257.6,29.2 262.6,29.2 L297.7,29.2 C299.2,29.2 300.5,28.8 301.6,28 C303.6,26.7 304.9,24.5 304.9,22 C304.9,18.1 301.8,14.9 297.9,14.8" id="Shape" fill="#A7CAD2"></path>
                <path d="M252,262.7 L81,262.7 C77.7,262.7 75.1,260.1 75.1,256.8 C75.1,253.5 77.7,250.9 81,250.9 L252,250.9 C255.3,250.9 257.9,253.5 257.9,256.8 C257.9,260 255.3,262.7 252,262.7" id="Shape" fill="#AADEBD"></path>
                <path d="M218.2,249.6 C215.7,248.3 202.8,242.5 202.8,242.5 C202.8,242.5 202.8,242.5 202.7,242.5 C202.5,242.4 202.2,242.3 202,242.3 C201.2,242.3 200.5,242.9 200.4,243.7 C200.4,243.7 200.4,243.7 200.4,243.8 C200.2,245.1 198.6,247.7 194.9,247.7 L189.6,244.5 L189.6,255.3 C189.6,255.3 189.4,257.4 191.7,257.4 L218.5,257.4 C218.5,257.4 220.2,257.7 220.2,255.7 L220.2,252.2 C220.3,252.2 220.8,250.8 218.2,249.6" id="Shape" fill="#FFFFFF"></path>
                <path d="M161.5,168.4 C161.3,168.4 161.1,168.4 160.9,168.3 L159.7,168.3 C156.1,168.6 153,171.3 152.4,175 L147.7,204.2 L118.3,223.1 C115.4,224.9 114.2,228.3 114.8,231.4 C114.9,231.9 115,232.3 115.2,232.7 C115.4,233.2 115.6,233.7 115.9,234.1 C117.4,236.5 122.6,237.8 122.6,237.8 L127,233.8 L159.3,215.6 C161.2,214.4 162.5,212.4 162.9,210.1 L168.2,177.3 C168.8,173.2 165.8,169.1 161.5,168.4" id="Shape" fill="#89BA9B"></path>
                <path d="M201.2,208.7 C201.2,206.6 200.4,204.5 199,203 L177.7,173 C174.6,169.8 169.6,169.7 166.4,172.8 C165.9,173.2 165.6,173.7 165.2,174.2 C163.2,177.2 157.1,178.6 159.8,181.3 L185.2,211.6 L189.9,245.4 C189.8,248.9 195.2,253.1 195.2,253.1 C195.2,253.1 196.8,253.6 197.7,253.6 L197.9,253.6 L203.5,248.2 L201.2,208.7 Z" id="Shape" fill="#89BA9B"></path>
                <path d="M191.7,211.9 C191.7,209.8 190.9,207.7 189.5,206.2 L168.2,176.2 C167.3,175.3 166.2,174.6 165.1,174.2 C163.1,177.2 157.2,178.8 159.9,181.6 L185.1,211.7 L189.8,245.5 C189.7,249 192,252.1 195.1,253.2 C195.9,252 196.4,250.6 196.4,249 L191.7,211.9 Z" id="Shape" fill="#77A388"></path>
                <path d="M160.8,168.3 L159.6,168.3 C156,168.6 152.9,171.3 152.3,175 L147.6,204.2 L118.2,223.1 C118.1,223.1 118.1,223.2 118,223.2 L119.5,222.3 L119.7,228.4 C120,228.8 120.3,229.2 120.6,229.5 L152,209.3 C153.9,208.1 155.2,206.1 155.6,203.8 L160.9,171 C161,170.2 161,169.2 160.8,168.3" id="Shape" fill="#77A388"></path>
                <path d="M214.5,132.1 C214.2,132.1 213.9,132 213.6,131.8 C212.8,131.3 212.5,130.2 213,129.4 L222.1,114.6 C222.6,113.8 223.7,113.5 224.5,114 C225.3,114.5 225.6,115.6 225.1,116.4 L216,131.2 C215.6,131.9 215.1,132.1 214.5,132.1" id="Shape" fill="#000000"></path>
                <path d="M221.7,128.5 C221.6,128 221.2,127.6 220.8,127.4 C220.9,127.1 221,126.9 220.9,126.5 C220.8,125.7 220.1,125.2 219.3,125.3 L217.2,125.6 L213.8,125.7 L216.5,123.4 C216.5,123.4 217.7,121.2 215.8,120.5 C211.1,124.6 210.9,123.8 209.5,125.4 C208.1,127 208,129.4 208.3,130.5 L208.3,130.5 L201.8,135.2 L206.9,142.3 L215.9,135.2 L219,134.7 C219.8,134.6 220.3,133.9 220.2,133.1 C220.2,132.8 220,132.6 219.9,132.4 C220.6,132.2 221,131.6 220.9,130.8 C220.9,130.5 220.7,130.3 220.5,130.1 L220.5,130.1 C221.3,130 221.8,129.3 221.7,128.5" id="Shape" fill="#D4B38D"></path>
                <path d="M141.7,173.3 L149.3,172.3 C149,171.9 148.8,171.5 148.5,171.4 C147.6,170.8 141,169.8 141,169.8 L135.7,180.3 L135.7,180.3 C135.7,180.3 135.7,180.3 135.7,180.4 C135.3,181.2 135.7,182.1 136.4,182.5 C136.7,182.7 137.1,182.7 137.4,182.6 C137.3,183.3 137.7,183.9 138.3,184.2 C138.8,184.4 139.3,184.4 139.7,184.1 C139.6,184.7 140,185.4 140.6,185.7 C141.3,186 142.1,185.8 142.6,185.1 C142.8,185.4 143,185.7 143.3,185.8 C144.1,186.2 145,185.8 145.4,185.1 L145.4,185.1 L147.9,179.1 L147.9,179.1 C142.6,179.2 141.7,173.3 141.7,173.3" id="Shape" fill="#D4B38D"></path>
                <path d="M147.8,181.8 C147.8,181.8 149,183.3 150,182.4 C150.6,176.4 150.7,175.4 150.7,175.4 C150.7,175.4 150,173.5 149.3,172.4 L141.7,173.4 C141.7,173.4 142.6,179.3 147.9,179.2 L148.3,178.3 L147.8,181.8 Z" id="Shape" fill="#593A29"></path>
                <path d="M147.8,181.8 C147.8,181.8 149,183.3 150,182.4 C150.6,176.4 150.7,175.4 150.7,175.4 C150.7,175.4 150,173.5 149.3,172.4 L141.7,173.4 C141.7,173.4 142.6,179.3 147.9,179.2 L148.3,178.3 L147.8,181.8 Z" id="Shape" fill="#A87E54"></path>
                <polygon id="Shape" fill="#9EDAB5" points="141.7 173.3 150.5 176.3 155.4 163.1 146.5 160.1"></polygon>
                <polyline id="Shape" fill="#77A388" points="146.5 160.1 142.8 158.9 138 172.1 141.7 173.3"></polyline>
                <polygon id="Shape" fill="#D4B38D" points="178 115.4 164.1 115.8 167.5 101.4 178.6 109.6"></polygon>
                <path d="M170.7,104.5 C170.7,104.5 168,108.3 178.3,112.8 C178.5,111.4 178.5,111.1 178.5,111.1" id="Shape" fill="#4F3125"></path>
                <path d="M195.7,101.5 C195.6,100.9 194,94.1 194.5,92.9 C194.6,92.4 194.7,91.9 194.8,91.5 L194.8,91.5 C191.5,91.2 190.8,88 189.5,86.4 C188.9,86.7 186.2,80.4 185.6,80.7 C184.2,81.6 183,90.2 182.3,90.9 C181.9,92.1 182.4,93.8 182.2,94.2 C181.5,95.5 180.3,93.5 180.3,93.5 C180.3,93.5 179.2,91 177.9,89.7 C178.4,88.4 177,83.9 173.3,88 C172.2,89.2 172.7,94.9 172.5,95.8 C172.5,96.7 172.3,96.6 172.3,96.6 L172.2,97.3 C172.2,97.3 171.6,103.6 167.3,102.9 C167.3,102.9 167.3,102.9 167.2,102.9 L167.2,102.9 L167.2,102.9 L167.2,102.9 C171.1,108.9 178.7,111.6 182,113.2 C185.6,114.9 186.4,113.2 186.4,113.2 L188.3,109.7 C185.7,107.7 184.5,102.5 184.5,102.5 L185.5,103 L185.5,102.9 L190.5,105.7 L192,103 C196.7,104.2 195.8,102.2 195.7,101.5 M189.8,97.2 C189.3,97.1 188.9,96.7 188.7,96.2 C188.6,96 188.6,95.7 188.7,95.5 C188.8,94.9 189.3,94.5 189.9,94.4 L190.4,94.4 C191.2,94.6 191.7,95.3 191.5,96.1 C191.3,96.8 190.6,97.3 189.8,97.2" id="Shape" fill="#D4B38D"></path>
                <path d="M195.1,75.8 C192.6,71.8 188.6,68.6 183.7,67.2 C180.8,66.4 177.8,66.2 175,66.7 C174.6,63.5 172.4,60.7 169.1,59.8 C164.7,58.6 160.2,61.1 158.9,65.5 C157.9,69 159.4,72.7 162.2,74.6 C160.8,76.5 159.8,78.6 159.1,80.9 C156.7,89.4 160.2,98.1 167.1,102.8 C167.2,102.8 167.3,102.9 167.4,102.9 L167.4,102.9 C171.5,103.5 173.9,97.5 173.9,97.5 L173.9,97.5 L173.9,97.5 C173.9,97.5 173.9,96.9 173.8,96 C173.8,95.2 173.8,94.3 173.9,93.3 C174.1,91.7 174.5,90 175.4,89.2 C176.2,88.6 177,89 177.7,89.7 C179,91 180.1,93.5 180.1,93.5 C180.1,93.5 181.3,95.5 182,94.2 L185.6,83.4 L185.6,83.4 C185.7,83.7 186.2,85.9 187.8,87.9 C189.1,89.6 191.2,91.1 194.5,91.5 L194.5,91.5 C197,90.6 199.1,88.6 199.9,85.9 C201.4,81.7 199.1,77.3 195.1,75.8" id="Shape" fill="#000000"></path>
                <path d="M172.8,113.9 C163.6,112.9 155.3,119.7 154.3,128.9 L149.7,173.6 C149.3,177.2 152,180.5 155.6,180.9 L175.9,183 C179.5,183.4 182.8,180.7 183.2,177.1 L187.8,132.4 C188.8,123.1 182.1,114.9 172.8,113.9" id="Shape" fill="#9EDAB5"></path>
                <path d="M179,180.8 L158.7,178.7 C155.1,178.3 152.4,175 152.8,171.4 L157.4,126.7 C157.8,122.4 159.9,118.7 162.8,116 C158.2,118.6 154.9,123.3 154.3,128.9 L149.7,173.6 C149.3,177.2 152,180.5 155.6,180.9 L175.9,183 C178.3,183.2 180.4,182.2 181.8,180.5 C181,180.8 180,180.9 179,180.8" id="Shape" fill="#89BA9B"></path>
                <path d="M187.2,139.7 L187.1,139.7 C186.5,139.6 186.1,139.1 186.2,138.6 L186.8,132.3 C187.2,128.1 186,124 183.4,120.7 C180.7,117.4 177,115.4 172.8,115 C166.8,114.4 161,117.4 157.5,122.9 L156.8,124.2 C156.5,124.7 155.9,124.9 155.4,124.6 C154.9,124.3 154.7,123.7 155,123.2 L155.8,121.9 C159.7,115.7 166.4,112.3 173.1,113 C177.8,113.5 182.1,115.8 185.1,119.5 C188.1,123.2 189.5,127.9 189,132.6 L188.4,138.9 C188.2,139.3 187.7,139.7 187.2,139.7" id="Shape" fill="#77A388"></path>
                <path d="M218.2,249.6 C215.7,248.3 202.8,242.5 202.8,242.5 C202.8,242.5 202.8,242.5 202.7,242.5 C202.5,242.4 202.2,242.3 202,242.3 C201.2,242.3 200.5,242.9 200.4,243.7 C200.4,243.7 200.4,243.7 200.4,243.8 C200.2,245.1 198.6,247.7 194.9,247.7 L189.6,244.5 L189.6,255.3 C189.6,255.3 189.4,257.4 191.7,257.4 L218.5,257.4 C218.5,257.4 220.2,257.7 220.2,255.7 L220.2,252.2 C220.3,252.2 220.8,250.8 218.2,249.6" id="Shape" fill="#FFFFFF"></path>
                <path d="M211.9,139 C211.9,139 211.8,138.9 211.8,138.8 L211.6,138.6 L211.6,138.6 C211.4,138.4 211.2,138.1 210.9,137.8 C209,135.7 205.3,131.8 205.3,131.8 L190.9,142 L177.7,119.6 C175.8,116.5 169.9,115.3 166.6,118.1 C162.3,121.7 163.4,126.7 165,128.9 L183.8,155.7 C184.8,157.4 186.5,158.5 188.5,158.8 C188.8,158.8 189.1,158.9 189.5,158.9 C191.1,158.9 192.7,158.3 193.9,157.2 C193.7,157.2 211.9,139.2 211.9,139 C212,139.1 211.9,139.1 211.9,139" id="Shape" fill="#89BA9B"></path>
                <path d="M130,136.5 L127.6,160 C127.1,165.1 130.8,169.6 135.8,170.1 L149.9,171.6 L155.7,115.6 C142.9,114.2 131.4,123.6 130,136.5" id="Shape" fill="#89BA9B"></path>
                <path d="M127.8,159 L127.7,159 C127.1,158.9 126.6,158.4 126.6,157.7 L127.8,145.6 C127.9,145 128.5,144.5 129.1,144.5 C129.7,144.6 130.2,145.1 130.2,145.8 L129,157.9 C128.9,158.5 128.4,159 127.8,159" id="Shape" fill="#77A388"></path>
                <path d="M140.5,164.4 L139.9,164.4 C136.2,164 133.5,160.8 133.9,157.1 L134.6,149.9 L136.2,150 L135.5,157.2 C135.2,160 137.3,162.5 140.1,162.8 C141.5,162.9 142.8,162.5 143.8,161.7 C144.9,160.8 145.5,159.6 145.6,158.2 L146.3,151.1 L147.9,151.3 L147.2,158.4 C147,160.2 146.2,161.8 144.8,162.9 C143.6,163.9 142.1,164.4 140.5,164.4" id="Shape" fill="#77A388"></path>
                <path d="M178.9,170.8 L178.7,170.8 L167.7,169.7 C166.6,169.6 165.8,168.6 165.9,167.5 C166,166.4 167,165.6 168.1,165.7 L179.1,166.8 C180.2,166.9 181,167.9 180.9,169 C180.8,170.1 179.9,170.8 178.9,170.8" id="Shape" fill="#89BA9B"></path>
                <path d="M185.6,103.1 L184.6,102.6 C184.6,102.6 185.8,107.8 188.4,109.8 L188.7,109.2 C186.6,106.9 185.7,103.6 185.6,103.1" id="Shape" fill="#D83B01"></path>
                <path d="M188.8,109.1 L190.6,105.8 L185.6,103.1 C185.7,103.6 186.6,106.9 188.8,109.1" id="Shape" fill="#FFFFFF"></path>
                <path d="M186,83.5 L184.7,87.4 L184.6,87.8 C184.4,88.5 183.8,90.1 183.3,91.5 C184.3,90.5 185.9,89 188.2,88 C186.5,86 186,83.9 186,83.5 L186,83.5" id="Shape" fill="#593A29"></path>
                <path d="M177.9,89.6 C177.2,88.9 176.3,88.5 175.6,89.1 C174.7,89.8 174.2,91.5 174.1,93.2 C174,94.2 174,95.2 174,95.9 C174.4,94.3 175.9,90 177.9,89.6" id="Shape" fill="#593A29"></path>
                <path d="M168.9,100.7 L168.9,100.7 C168.8,100.7 168.7,100.6 168.6,100.6 C161.7,95.9 158.2,87.2 160.6,78.7 C161.3,76.3 162.3,74.2 163.7,72.4 C160.8,70.5 159.4,66.8 160.4,63.3 C160.5,62.9 160.6,62.6 160.8,62.2 C160,63.1 159.4,64.2 159,65.4 C158,68.9 159.5,72.6 162.3,74.5 C160.9,76.4 159.9,78.5 159.2,80.9 C156.8,89.4 160.3,98.1 167.2,102.8 C167.3,102.8 167.4,102.9 167.5,102.9 L167.5,102.9 C170.7,103.3 172.9,99.9 173.7,98.3 C172.5,99.6 170.9,100.9 168.9,100.7" id="Shape" fill="#505050"></path>
                <path d="M130.9,119.5 C130.9,112.1 136.9,106.2 144.2,106.2 C151.6,106.2 157.5,112.2 157.5,119.5 C157.5,126.9 151.5,132.8 144.2,132.8 C136.9,132.8 130.9,126.8 130.9,119.5" id="Shape" fill="#77A388"></path>
                <path d="M133.8,119.5 C133.8,113.8 138.5,109.1 144.2,109.1 C149.9,109.1 154.6,113.8 154.6,119.5 C154.6,125.2 149.9,129.9 144.2,129.9 C138.5,129.8 133.8,125.2 133.8,119.5" id="Shape" fill="#9EDAB5"></path>
                <path d="M136.9,119.5 C136.9,115.5 140.2,112.2 144.2,112.2 C148.2,112.2 151.5,115.5 151.5,119.5 C151.5,123.5 148.2,126.8 144.2,126.8 C140.2,126.8 136.9,123.5 136.9,119.5" id="Shape" fill="#77A388"></path>
                <path d="M139.7,119.5 C139.7,117 141.7,114.9 144.3,114.9 C146.8,114.9 148.9,116.9 148.9,119.5 C148.9,122 146.9,124.1 144.3,124.1 C141.7,124 139.7,122 139.7,119.5" id="Shape" fill="#9EDAB5"></path>
                <path d="M148.4,152.1 L148.3,152.1 L134,150.9 C133.4,150.8 132.9,150.3 132.9,149.6 C133,149 133.5,148.5 134.2,148.5 L148.5,149.7 C149.1,149.8 149.6,150.3 149.6,151 C149.5,151.6 149,152.1 148.4,152.1" id="Shape" fill="#77A388"></path>
                <path d="M130.8,249.1 C130.5,246.3 128.4,232.4 128.4,232.4 C128.4,232.4 128.4,232.4 128.4,232.3 C128.4,232.1 128.3,231.8 128.2,231.6 C127.8,230.9 126.9,230.7 126.2,231 C126.2,231 126.2,231 126.1,231 C124.9,231.5 121.9,231.6 119.9,228.5 L119.7,222.4 L110.6,228.3 C110.6,228.3 108.7,229.3 110,231.3 L124.6,253.8 C124.6,253.8 125.3,255.4 127,254.3 L129.9,252.4 C129.7,252.3 131.1,251.9 130.8,249.1" id="Shape" fill="#FFFFFF"></path>
                <path d="M113.2,234.5 L120.6,229.7 C120.3,229.4 120,229 119.7,228.5 L119.5,222.4 L110.4,228.3 C110.4,228.3 108.5,229.3 109.8,231.3 L112.4,235.3 C112.8,234.7 113.2,234.5 113.2,234.5" id="Shape" fill="#D2D2D2"></path>
                <path d="M196.2,247.5 C195.8,247.6 195.4,247.6 194.9,247.6 L189.6,244.4 L189.6,255.2 C189.6,255.2 189.4,257.3 191.7,257.3 L196.1,257.3 L196.1,247.5 L196.2,247.5 Z" id="Shape" fill="#D2D2D2"></path>
                <path d="M191.4,95.8 C191.4,96.6 190.8,97.2 190,97.2 C189.2,97.2 188.6,96.6 188.6,95.8 C188.6,95 189.2,94.4 190,94.4 C190.8,94.5 191.4,95.1 191.4,95.8" id="Shape" fill="#000000"></path>
                <path d="M39.3,189.7 L38.8,179.9 C38.7,177.8 39.1,175.8 40.1,173.9 L46.4,161.9 L38,158.8 L34.2,174.7 C33.8,176.4 33.8,178.1 34.1,179.8 L36.7,192.9 C36.8,193.3 37.1,193.6 37.6,193.6 L43.2,193.6 L42.6,192.3 C42.2,191.5 41.5,191 40.6,191 L40.6,191 C39.9,190.9 39.4,190.4 39.3,189.7" id="Shape" fill="#A7CAD2"></path>
                <path d="M81.1,134.6 L78,134.6 C77.1,134.6 76.3,134.5 75.4,134.3 L72.4,133.5 C72.1,133.4 71.8,133.2 71.7,132.9 C71.5,132.2 70.8,131.7 70,131.7 C69.1,131.7 68.4,132.6 68.4,133.5 L68.4,138 C68.4,143.5 64.1,148.2 58.6,148.4 C55.8,148.5 53.3,147.5 51.4,145.8 C51.4,145.8 47.9,142.8 45,137.9 C42.5,133.8 38,131 32.8,131 C28.1,131 23.9,133.3 21.3,136.8 C19.6,139.1 16.9,140.6 14,140.6 L14,140.6 C11.7,140.6 9.7,141.9 8.8,143.9 L8.8,143.9 L8.8,143.9 C8.6,144.3 8.5,144.6 8.4,145 L0.9,166.1 C1.7,166.1 2.5,165.6 2.8,164.9 L7.8,153.8 L7.8,163 L10.3,177.1 L15.1,192.8 C15.2,193.2 15.5,193.4 15.9,193.4 L21.6,193.4 L20.8,191.7 C20.6,191.2 20.1,190.9 19.5,190.9 L18.6,190.9 C18,190.9 17.4,190.4 17.3,189.8 L15.3,176.7 L16.3,162.3 L19.2,162.3 L45.8,162.3 L56.1,192.9 C56.2,193.3 56.6,193.5 56.9,193.5 L62.6,193.5 L62,192.2 C61.6,191.4 60.9,190.9 60,190.9 L59.5,190.9 C58.9,190.9 58.3,190.4 58.2,189.8 L53.1,162.3 L53.5,162.3 C73.8,162.3 76.1,140.3 76.1,140.3 L81,140.3 C82.6,140.3 83.9,139 83.9,137.4 C84,135.9 82.7,134.6 81.1,134.6" id="Shape" fill="#A7CAD2"></path>
                <path d="M8.9,189.7 L8.5,180.8 C8.4,179 8.7,177.3 9.4,175.7 L13.3,166.8 L8.9,160.3 L4,174.6 C3.4,176.3 3.3,178.1 3.7,179.9 L6.3,192.9 C6.4,193.3 6.7,193.6 7.2,193.6 L12.8,193.6 L12.2,192.3 C11.8,191.5 11.1,191 10.2,191 C9.5,190.9 8.9,190.4 8.9,189.7" id="Shape" fill="#A7CAD2"></path>
                <path d="M194.1,152.1 C192.9,153.2 191.3,153.8 189.7,153.8 C189.4,153.8 189.1,153.8 188.7,153.7 C186.8,153.4 185.1,152.3 184,150.6 L166.1,121.5 C165.8,121 165.2,120 165.1,119.5 C164,121.5 162.4,124.1 164.1,127.7 L183.6,155.7 C184.6,157.4 186.3,158.5 188.3,158.8 C188.6,158.8 188.9,158.9 189.3,158.9 C190.9,158.9 192.5,158.3 193.7,157.2 C193.7,157.2 211.9,139.2 212,139.1 C212,139.1 211,138 209.7,136.7 C204.6,141.7 194.1,152.1 194.1,152.1" id="Shape" fill="#77A388"></path>
            </g>
        </g>
    </g>
</svg>