<svg width="332" height="408" viewBox="0 0 332 408" xmlns="http://www.w3.org/2000/svg"><g fill="none" fill-rule="evenodd"><path d="M.637 200.355h662.317V.753H.637v199.602zM26.407 47.75h26.537V21.576H26.407V47.75zm41.91 0h26.157V21.576H68.317V47.75zm41.55 0h26.537V21.576h-26.537V47.75zm41.936 0h26.157V21.576h-26.157V47.75zm41.524 0h26.537V21.576h-26.537V47.75zm41.936 0h26.157V21.576h-26.157V47.75zm41.524 0h26.537V21.576h-26.537V47.75zm41.936 0h26.157V21.576h-26.157V47.75zM26.407 91.705h26.537V65.496H26.407v26.208zm41.91 0h26.157V65.496H68.317v26.208zm-41.91 44.3h26.537V109.41H26.407v26.595zm83.46-44.3h26.537V65.496h-26.537v26.208zm41.936 0h26.157V65.496h-26.157v26.208zm41.524 0h26.537V65.496h-26.537v26.208zm41.936 0h26.157V65.496h-26.157v26.208zm41.524 0h26.537V65.496h-26.537v26.208zm41.936 0h26.157V65.496h-26.157v26.208zm-250.406 44.3h26.157V109.41H68.317v26.595zm41.55 0h26.537V109.41h-26.537v26.595zm41.936 0h26.157V109.41h-26.157v26.595zm41.524 0h26.537V109.41h-26.537v26.595zm41.936 0h26.157V109.41h-26.157v26.595zm41.524 0h26.537V109.41h-26.537v26.595zm41.936 0h26.157V109.41h-26.157v26.595zM68.317 179.927h26.157v-26.562H68.317v26.562zm41.55 0h26.537v-26.562h-26.537v26.562zm41.936 0h26.157v-26.562h-26.157v26.562zm41.524 0h276.177v-26.562H193.327v26.562zm-166.92 0h26.537v-26.562H26.407v26.562z" fill="#0075DA"/><path d="M289.8 132.907c-8.46-1.535-16.526 3.844-18.058 11.94L259.8 206.88l-29.615-75.508V86.677c0-8.11-6.907-15.05-15.367-15.05-8.086 0-15.013 6.94-15.013 15.05v50.848l16.172 40.844-7.333 2.695L168.66 78.568c-3.072-7.708-12.317-11.552-20.01-8.475-7.673 3.076-11.523 11.94-8.452 19.674l43.455 110.96-6.927 2.702-34.217-86.714c-3.08-8.095-11.944-11.946-20.01-8.87-7.687 3.09-11.524 11.973-8.453 20.055l37.3 95.19-6.92 2.696-31.526-79.792c-3.082-7.688-11.94-11.546-19.634-8.47-8.067 3.084-11.904 11.94-8.833 19.67l55.385 140.643-8.872 30.44L232.49 343.68l5.415-26.595 42.67-57.008L301.74 151c1.54-8.47-3.837-16.552-11.943-18.093" fill="#FCB913"/><path fill="#FCED1F" d="M102.103 407.26H225.58l17.705-62.046-117.71-17.706"/></g></svg>