<svg width="356" height="392" viewBox="0 0 356 392" xmlns="http://www.w3.org/2000/svg" xmlns:xlink="http://www.w3.org/1999/xlink"><defs><path id="a" d="M45.06.93H.192v66.95H45.06V.93z"/></defs><g fill="none" fill-rule="evenodd"><path d="M135.054 19.826h6.2v-6.023c0-2.657.068-6.752 2-9.29C145.288 1.826 148.082 0 152.883 0 160.705 0 164 1.114 164 1.114l-1.55 9.183s-2.584-.747-4.997-.747c-2.41 0-4.57.863-4.57 3.274v7.002h9.89l-.688 8.968h-9.203V59.95h-11.627V28.793h-6.2v-8.968z" fill="#FEFEFE"/><path d="M243.026 318.09s-39.486 20.033-43.71 21.71l-5.488-16.055 18.152-12.66 13.508 1.266 17.538 5.74z" fill="#C2A081"/><path d="M243.026 318.09s-39.486 20.033-43.71 21.71l-5.488-16.055 18.152-12.66 13.508 1.266 17.538 5.74z" fill="#C2A081"/><path fill="#FFF" d="M92.79 313.512h113.92l-56.96 44.42M161.965 352.723l46.993-36.646v73.296"/><path fill="#FFF" d="M140.3 354.882l9.45 7.368 9.45-7.368 47.508 37.055H92.793M137.533 352.723l-46.992 36.65v-73.3"/><path d="M241.887 275.917s-15.132 14.344-67.05 25.6l-13.303 11.886h24.485s-5.7 9.074-7.81 12.664c-1.305 2.22-2.75 4.524-4.192 6.405-1.318 1.722-1.067 4.16.61 5.53 3.032 2.482 7.425 2.38 10.338-.24l16.587-14.885c5.847-5.253 13.95-7.197 21.547-5.172l4.708 1.258c7.324 1.95 15.133.392 21.147-4.217l21.282-16.323-28.35-22.506z" fill="#D0B28D"/><path fill="#FFF" d="M291.136 281.263l-20.408 20.255-30.112-26.732 18.67-19.747"/><g transform="matrix(-1 0 0 1 178.374 42.28)"><mask id="b" fill="#fff"><use xlink:href="#a"/></mask><path d="M.192 42.383L2.5 24.58c.353-2.745 1.63-5.287 3.616-7.218L23.03.928l13.19 12.758c11.737 11.35 11.796 30.152.123 41.575l-12.88 12.62L.192 42.382z" fill="#D0B28D" mask="url(#b)"/></g><path d="M136.704 63.21c.5 2.6 1.058 5.082 1.63 7.333 3.317 13.087 13.762 22.916 24.72 30.693l-8.143 8.92-12.883-12.612c-9.435-9.236-11.192-23.29-5.323-34.335" fill="#C2A081"/><path d="M201.245 101.732L180.112 82.6s-28.427 30.385-27.582 30.666c.844.282 20.48 19.33 20.48 19.33l28.235-30.864z" fill="#FFF"/><path d="M356 148.717H267.91l-63.32-50.645-33.206 36.296 53.01 53c4.17 4.165 9.383 7.145 15.09 8.62L356 226.09v-77.37z" fill="#004B50"/><path fill="#003D41" d="M334.47 148.757v-.038H356v77.37l-82.46-21.303"/><path fill="#004B50" d="M339.987 148.717l-84.738 103 38.273 31.51 62.475-57.45v-77.06"/><path fill="#003D41" d="M356 148.717v77.06l-10.788 9.92"/><path d="M206.93 231.663c-.43.562-13.068-18.848-62.825-17.453-2.793.08-4.422 3.25-3.143 5.73l1.25 2.427s-40.612-10.37-51.41 4.14c-1.387 1.864-.236 4.53 2.072 4.793 13.652 1.548 58.17 7.927 93.285 27.917l20.77-27.554z" fill="#D0B28D"/><path d="M196.32 236.203c2.65-.545 5.324-.865 8.01-1.09l-18.172 24.104c-7.09-4.038-14.566-7.484-22.09-10.477 10.646-4.443 20.908-10.19 32.253-12.537" fill="#C2A081"/><path fill="#FFF" d="M230.918 241.61l-23.987-14.928-22.753 34.023 22.754 16.14"/><path fill="#004B50" d="M352.838 293.713L234.26 242.305l-27.573 36.757 146.15 104.41"/><path fill="#003D41" d="M335.444 285.242l15.01 6.507v89.758"/><path d="M73.997 132.255h54.123c5.144 0 9.31 4.166 9.31 9.31v36.482c0 5.14-4.166 9.31-9.31 9.31h-9.826v16.036l-16.037-16.037h-28.26c-5.144 0-9.31-4.17-9.31-9.31v-36.482c0-5.143 4.166-9.31 9.31-9.31" fill="#004B50"/><path d="M12.208 157.89h49.28v20.818c0 6.53 5.313 11.842 11.847 11.842h2.307v13.133c0 5.14-4.167 9.31-9.31 9.31h-28.26l-16.037 16.036V212.99h-9.827c-5.144 0-9.31-4.17-9.31-9.31V167.2c0-5.143 4.166-9.31 9.31-9.31" fill="#FFF"/><g fill="#FFF"><path d="M105.062 25.04c-1.913.855-3.975 1.433-6.133 1.694 2.206-1.33 3.9-3.436 4.693-5.944-2.063 1.232-4.345 2.124-6.784 2.603C94.895 21.306 92.117 20 89.043 20c-5.895 0-10.677 4.816-10.677 10.745 0 .845.09 1.66.275 2.447-8.878-.45-16.746-4.72-22.018-11.228-.92 1.595-1.445 3.44-1.445 5.41 0 3.72 1.884 7.013 4.75 8.94-1.75-.055-3.397-.54-4.84-1.343v.133c0 5.21 3.682 9.553 8.572 10.536-.9.25-1.84.377-2.818.377-.687 0-1.36-.06-2.007-.187 1.356 4.263 5.302 7.373 9.977 7.456-3.658 2.883-8.263 4.598-13.265 4.598-.863 0-1.716-.046-2.55-.144 4.727 3.046 10.34 4.825 16.373 4.825 19.65 0 30.39-16.37 30.39-30.572 0-.467-.01-.93-.03-1.39 2.087-1.518 3.902-3.408 5.33-5.562M50.544 109.148H39.422v-16.34c0-4.28-1.74-7.197-5.566-7.197-2.927 0-4.554 1.968-5.312 3.87-.284.678-.24 1.628-.24 2.58v17.088H17.287s.142-28.95 0-31.58h11.02v4.957c.65-2.17 4.17-5.262 9.793-5.262 6.967 0 12.444 4.54 12.444 14.327v17.558zM6.142 73.618h-.07c-3.55 0-5.853-2.414-5.853-5.47 0-3.123 2.372-5.486 5.99-5.486 3.62 0 5.844 2.357 5.915 5.476 0 3.057-2.296 5.48-5.983 5.48zm-4.657 35.53h9.812v-31.58H1.485v31.58z"/></g></g></svg>