<svg width="302" height="185" viewBox="0 0 302 185" xmlns="http://www.w3.org/2000/svg"><g fill="none" fill-rule="evenodd"><path d="M.29 90.933h301.69V.343H.29v90.59zm11.74-69.26h12.086V9.792H12.03v11.88zm19.09 0h11.914V9.792H31.12v11.88zm18.925 0h12.088V9.792H50.045v11.88zm19.102 0h11.915V9.792H69.147v11.88zm18.915 0h12.087V9.792H88.06v11.88zm19.102 0h11.914V9.792h-11.914v11.88zm18.914 0h12.088V9.792h-12.088v11.88zm19.102 0h11.915V9.792H145.18v11.88zM12.03 41.62h12.086V29.727H12.03V41.62zm19.09 0h11.914V29.727H31.12V41.62zM12.03 61.728h12.086v-12.07H12.03v12.07zM50.044 41.62h12.088V29.727H50.045V41.62zm19.102 0h11.915V29.727H69.147V41.62zm18.915 0h12.087V29.727H88.06V41.62zm19.102 0h11.914V29.727h-11.914V41.62zm18.914 0h12.088V29.727h-12.088V41.62zm19.102 0h11.915V29.727H145.18V41.62zM31.12 61.728h11.914v-12.07H31.12v12.07zm18.925 0h12.088v-12.07H50.045v12.07zm19.102 0h11.915v-12.07H69.147v12.07zm18.915 0h12.087v-12.07H88.06v12.07zm19.102 0h11.914v-12.07h-11.914v12.07zm18.914 0h12.088v-12.07h-12.088v12.07zm19.102 0h11.915v-12.07H145.18v12.07zM31.12 81.66h11.914V69.606H31.12V81.66zm18.925 0h12.088V69.606H50.045V81.66zm19.102 0h11.915V69.606H69.147V81.66zm18.915 0h125.8V69.606H88.06V81.66zm-76.033 0h12.086V69.606H12.03V81.66z" fill="#0075DA"/><path fill="#02A4EF" d="M164.106 21.672h12.088V9.792h-12.088M183.197 21.672h11.914V9.792h-11.913M202.123 21.672h12.087V9.792h-12.087M221.213 21.672h11.915V9.792h-11.915M240.14 21.672h12.087V9.792H240.14M259.24 21.672h11.916V9.792H259.24M278.156 21.672h12.087V9.792h-12.087M164.106 41.62h12.088V29.727h-12.088M183.197 41.62h11.914V29.727h-11.913M202.123 41.62h12.087V29.727h-12.087M221.213 41.62h11.915V29.727h-11.915M240.14 41.62h12.087V29.727H240.14M259.24 41.62h11.916V29.727H259.24M278.156 41.62h12.087V29.727h-12.087M164.106 61.727h12.088v-12.07h-12.088M183.197 61.727h11.914v-12.07h-11.913M202.123 61.727h12.087v-12.07h-12.087M221.213 61.727h11.915v-12.07h-11.915M240.14 61.727h12.087v-12.07H240.14M259.24 61.727h11.916v-12.07H259.24M278.156 61.727h12.087v-12.07h-12.087M221.213 81.66h11.915V69.606h-11.915M240.14 81.66h12.087V69.606H240.14M259.24 81.66h11.916V69.606H259.24M278.156 81.66h12.087V69.606h-12.087"/><g><path d="M272.073 80.81c-3.675-1.397-7.698.348-9.097 4.034L248.61 121.04l-3.164-1.224 17.182-43.375h-.18c1.405-3.488-.348-7.525-3.865-8.922-3.495-1.396-7.518.35-8.923 3.86l-15.604 39.515-3.325-1.227 19.986-50.36c1.396-3.498-.358-7.527-4.044-8.923-3.502-1.402-7.525.348-8.924 3.86l-18.4 46.512-3.326-1.236 7.52-18.71v-22.9c0-3.847-3.145-7.006-6.998-7.006-3.845 0-7.012 3.16-7.012 7.006v20.28l-13.486 34.275-5.428-28.16c-.7-3.668-4.387-6.116-8.06-5.413-3.852.7-6.318 4.368-5.6 8.048l9.625 49.49 19.448 26.062 2.455 11.882 45.025-6.64-2.794-13.993 25.22-63.83c1.404-3.49-.35-7.698-3.863-9.1M117.198 60.005c-3.853-.697-7.527 1.744-8.225 5.418l-5.44 28.155-13.49-34.27V39.023c0-3.68-3.146-6.83-7-6.83-3.682 0-6.838 3.15-6.838 6.83V62.1l7.367 18.538-3.34 1.224-18.214-46.52c-1.4-3.498-5.61-5.243-9.114-3.846-3.495 1.396-5.25 5.42-3.85 8.93l19.794 50.36-3.156 1.226-15.585-39.356c-1.402-3.674-5.44-5.422-9.115-4.025-3.5 1.403-5.25 5.435-3.85 9.103l16.99 43.202-3.152 1.224-14.36-36.215c-1.404-3.49-5.44-5.24-8.944-3.844-3.674 1.4-5.422 5.42-4.023 8.927L48.88 134.86l-4.04 13.815 46.253 6.99 2.467-12.07 19.436-25.873 9.642-49.506c.7-3.844-1.748-7.512-5.44-8.21" fill="#FCB913"/><path fill="#FCED1F" d="M31.7 184.522h56.246l8.064-28.16-53.617-8.036M204.983 174.898l2.624 9.623h56.07l-5.265-17.485"/></g></g></svg>