<svg width="501" height="452" viewBox="0 0 501 452" xmlns="http://www.w3.org/2000/svg" xmlns:xlink="http://www.w3.org/1999/xlink"><defs><path id="a" d="M11.61.25H.275v11.26H11.61V.25z"/></defs><g fill="none" fill-rule="evenodd"><path d="M500.902 438.566c0 7.143-111.957 13.185-250.45 13.185C112.233 451.75 0 445.71 0 438.567c0-7.143 112.234-13.186 250.45-13.186 138.495 0 250.452 6.043 250.452 13.186" fill="#008171" opacity=".476"/><path d="M314.584 220.465c-1.382.55-2.212 2.197-1.66 3.57.555 1.648 2.213 2.2 3.595 1.648 1.38-.548 2.21-2.197 1.658-3.57-.552-1.373-2.212-2.198-3.594-1.648m8.57-2.747c-1.382.275-2.212 1.922-1.936 3.296.554 1.373 1.936 2.198 3.594 1.924 1.382-.55 2.212-1.924 1.66-3.298-.278-1.647-1.936-2.472-3.318-1.922M332 215.52c-1.383.276-2.49 1.648-2.212 3.297.277 1.373 1.66 2.472 3.317 2.197 1.383-.274 2.49-1.648 2.212-3.02-.277-1.65-1.66-2.748-3.317-2.473m9.122-1.098c-1.382.275-2.764 1.648-2.488 3.02 0 1.65 1.382 2.748 2.764 2.473 1.66 0 2.765-1.373 2.765-2.747-.276-1.647-1.382-2.746-3.04-2.746m9.12 0c-1.38 0-2.764 1.1-2.764 2.746 0 1.374 1.106 2.747 2.488 2.747 1.658 0 2.765-1.098 3.04-2.747 0-1.372-1.105-2.746-2.764-2.746m9.123.824c-1.658-.275-3.04.824-3.04 2.472-.278 1.373.828 2.747 2.21 3.022 1.66.274 3.042-.825 3.042-2.472.276-1.374-.83-2.747-2.213-3.022m8.846 1.373c-1.383-.276-3.04.823-3.318 2.197-.276 1.648.83 3.022 2.212 3.295 1.66.275 3.042-.548 3.316-2.197.277-1.373-.55-2.747-2.21-3.296m8.57 1.648c-1.383-.275-2.765.823-3.042 2.472-.275 1.372.555 2.746 2.213 3.02 1.382.276 2.764-.822 3.04-2.196.276-1.374-.55-3.022-2.21-3.296m8.845 1.372c-1.658 0-3.04 1.1-3.317 2.472-.276 1.374.83 3.023 2.49 3.023 1.38.275 2.762-.824 3.04-2.197.276-1.65-.83-3.023-2.212-3.298m8.57 1.1c-1.66 0-3.04 1.1-3.04 2.472 0 1.647 1.105 3.022 2.487 3.022 1.66 0 2.764-1.1 3.04-2.473 0-1.648-1.104-3.02-2.487-3.02m8.016-.275c-1.382.275-2.487 1.647-2.212 3.296.277 1.375 1.66 2.474 3.042 2.2 1.658-.277 2.487-1.65 2.487-3.022-.275-1.65-1.656-2.473-3.316-2.473m8.57-1.374c-1.382.276-2.488 1.924-1.935 3.297.275 1.374 1.657 2.472 3.04 1.924 1.658-.274 2.488-1.648 2.21-3.296-.276-1.374-1.933-2.197-3.316-1.923m8.293-2.196c-1.382.274-2.212 1.923-1.66 3.296.278 1.374 1.936 2.197 3.318 1.65 1.66-.276 2.212-1.925 1.66-3.298-.278-1.374-1.935-2.198-3.318-1.648m7.74-3.297c-1.382.55-1.935 2.2-1.106 3.57.554 1.375 2.213 1.924 3.595 1.1 1.382-.55 1.935-2.197 1.105-3.57-.553-1.374-2.21-1.923-3.592-1.1m7.186-4.394c-1.382.824-1.658 2.472-.552 3.846.83 1.097 2.487 1.372 3.87.547 1.105-1.098 1.38-2.746.552-3.844-1.105-1.374-2.763-1.65-3.87-.55m5.806-5.77c-.83 1.375-.83 3.023.275 4.12 1.383.826 3.042.826 4.147-.547.83-1.1.83-2.747-.552-3.846-1.106-.824-2.765-.824-3.87.274m4.147-6.318c-.553 1.374.275 3.02 1.935 3.296 1.38.55 3.04-.275 3.316-1.647.553-1.374-.276-3.022-1.658-3.57-1.658-.276-3.04.273-3.593 1.92M58.605 315.78c-1.382.277-2.488 1.375-2.488 3.022 0 1.374 1.382 2.748 3.04 2.473 1.382 0 2.488-1.373 2.488-3.022-.276-1.372-1.382-2.472-3.04-2.472m8.293-1.098c-1.382.274-2.212 1.648-1.936 3.296.277 1.375 1.66 2.473 3.317 1.924 1.382-.274 2.21-1.65 1.934-3.296-.276-1.375-1.658-2.2-3.316-1.924m8.017-2.747c-1.383.824-2.212 2.472-1.383 3.846.553 1.375 2.212 1.924 3.593 1.375 1.383-.825 1.936-2.473 1.383-3.846-.553-1.375-2.212-1.924-3.593-1.375m6.91-4.12c-1.382 1.098-1.382 2.747-.553 3.845 1.106 1.374 2.765 1.374 3.87.55 1.382-1.098 1.382-2.747.553-3.845-1.106-1.1-2.764-1.374-3.87-.55m5.53-5.768c-.83 1.373-.554 3.022.552 3.845 1.382 1.1 3.04.824 3.87-.55 1.105-1.098.83-2.746-.553-3.845-1.105-.824-2.764-.55-3.87.55m4.423-6.867c-.553 1.374 0 3.02 1.382 3.57 1.38.55 3.04 0 3.592-1.373.554-1.098 0-2.747-1.382-3.57-1.105-.55-2.763 0-3.593 1.373m3.317-7.966c-.553 1.373.276 3.022 1.658 3.57 1.383.55 3.042-.273 3.595-1.647.276-1.373-.277-3.022-1.935-3.57-1.383-.55-2.765.273-3.318 1.647m2.488-8.24c-.553 1.373.553 3.022 1.935 3.295 1.383.55 3.04-.274 3.317-1.648.553-1.648-.276-3.023-1.934-3.57-1.383-.276-3.042.547-3.318 1.922m2.488-8.517c-.553 1.374.277 3.02 1.658 3.296 1.382.55 3.04 0 3.594-1.37.553-1.376-.276-3.024-1.66-3.574-1.38-.55-3.04 0-3.592 1.647m5.252-8.515c-1.106 1.1-1.106 3.022 0 3.846 1.106 1.1 3.04 1.1 4.147 0 .827-1.1.827-2.747-.28-3.846-1.103-1.098-2.762-1.098-3.868 0m8.017-5.493c-1.384.548-1.937 2.197-1.384 3.57.83 1.374 2.488 1.922 3.87 1.374 1.107-.825 1.936-2.474 1.107-3.846-.553-1.374-2.212-1.923-3.594-1.1m8.845-3.02c-1.383.274-2.49 1.648-1.936 3.295.276 1.374 1.658 2.197 3.04 1.924 1.66-.275 2.49-1.65 2.212-3.296-.276-1.373-1.658-2.198-3.317-1.923m9.4-1.098c-1.66 0-2.766 1.372-2.766 2.746 0 1.647 1.382 2.746 3.04 2.746 1.383-.274 2.49-1.373 2.49-3.02 0-1.375-1.384-2.748-2.766-2.473m9.122.274c-1.382-.275-2.765.823-3.04 2.472 0 1.373 1.105 2.746 2.487 2.746 1.66.275 3.04-.824 3.04-2.47.277-1.375-.828-2.748-2.487-2.748m8.846 1.098c-1.382 0-2.764.824-3.04 2.472-.278 1.374.828 2.746 2.21 3.02 1.66.276 3.042-.822 3.317-2.196 0-1.647-.83-3.02-2.488-3.296m8.846 1.1c-1.66-.276-3.04.823-3.04 2.47-.277 1.375.828 2.748 2.487 3.022 1.383 0 2.764-1.1 2.764-2.472.275-1.648-.83-2.746-2.212-3.02m8.57.55c-1.66 0-2.765 1.097-3.042 2.745 0 1.373 1.106 2.747 2.765 2.747 1.384.275 2.765-1.1 2.765-2.472.276-1.65-1.105-2.747-2.487-3.02m8.57.273c-1.383 0-2.766 1.373-2.766 2.747 0 1.648 1.383 2.747 2.765 2.747 1.658 0 2.764-1.1 2.764-2.748 0-1.374-1.105-2.747-2.763-2.747m8.846-.274c-1.658.275-2.764 1.373-2.764 3.022.275 1.648 1.657 2.747 3.04 2.472 1.657 0 2.763-1.374 2.487-2.747 0-1.648-1.382-2.746-2.764-2.746M411.06 305.343c.83 1.374 2.764 1.647 3.87.55 1.106-.825 1.382-2.473.553-3.846-1.106-1.1-2.764-1.373-3.87-.55-1.382 1.1-1.382 2.747-.553 3.846m-4.976-7.966c.83 1.373 2.488 1.923 3.87 1.373 1.383-.55 1.936-2.197 1.106-3.57-.553-1.374-2.21-1.923-3.593-1.374-1.383.825-1.936 2.472-1.383 3.57m-3.317-8.24c.277 1.374 1.936 2.198 3.317 1.65 1.66-.55 2.21-2.198 1.66-3.572-.277-1.373-1.937-2.197-3.318-1.648-1.382.55-2.212 1.923-1.66 3.57m-2.764-8.515c.554 1.375 1.936 2.2 3.32 1.65 1.657-.275 2.485-1.923 1.934-3.296-.277-1.375-1.935-2.198-3.318-1.923-1.382.55-2.212 1.924-1.936 3.57m-2.488-8.24c.553 1.374 2.212 1.923 3.595 1.374 1.657-.275 2.21-1.924 1.657-3.296-.553-1.65-2.21-2.198-3.593-1.65-1.383.55-2.21 2.2-1.66 3.573m-3.87-6.592c1.107 1.098 2.766 1.098 3.87 0 1.106-.824 1.106-2.747 0-3.845-1.104-1.1-2.763-1.1-3.87 0-1.105 1.098-1.105 2.746 0 3.845m-6.357-4.395c1.383.55 3.04 0 3.594-1.374.83-1.374 0-3.02-1.382-3.57-1.105-.825-2.763-.276-3.593 1.097-.553 1.374 0 3.022 1.382 3.846m-7.74-2.747c1.38.275 2.764-.55 3.316-1.922.277-1.65-.83-3.022-2.212-3.296-1.38-.275-3.038.55-3.315 1.922-.276 1.65.553 3.02 2.212 3.296m-8.293-.824c1.38 0 2.764-1.098 2.764-2.747 0-1.373-1.106-2.747-2.487-2.747-1.658-.274-3.04 1.1-3.04 2.472 0 1.65 1.105 2.747 2.764 3.022m-8.57 0c1.658 0 2.764-1.373 2.488-2.747 0-1.647-1.383-2.747-3.04-2.472-1.383 0-2.49 1.374-2.49 2.747.277 1.65 1.66 2.747 3.042 2.472m-8.57 1.374c1.382-.275 2.488-1.65 2.212-3.022 0-1.648-1.38-2.472-3.04-2.472-1.383.275-2.488 1.648-2.213 3.297 0 1.37 1.383 2.47 3.042 2.196m-8.846 1.098c1.382-.275 2.486-1.648 2.486-3.022-.277-1.647-1.658-2.746-3.04-2.472-1.66.275-2.765 1.374-2.488 3.022 0 1.374 1.382 2.472 3.04 2.472m-9.12.55c1.656 0 2.762-1.373 2.762-2.747-.277-1.648-1.38-2.747-3.04-2.747-1.383.275-2.488 1.374-2.488 3.02 0 1.375 1.382 2.748 2.765 2.473m-8.846.275c1.383 0 2.764-1.1 2.764-2.747 0-1.37-1.38-2.745-2.763-2.745-1.658 0-2.764 1.374-2.764 2.746 0 1.65 1.106 2.748 2.765 2.748m-9.122-.275c1.658.275 2.765-.824 3.04-2.472 0-1.646-1.105-2.745-2.764-3.02-1.382 0-2.765 1.1-2.765 2.747-.277 1.374 1.106 2.746 2.488 2.746" fill="#FFF"/><path d="M461.648 291.884l-.276-.275-.554-.55c-4.423-3.57-10.504-4.395-12.716-2.198v.275c-.55.275-.55.824-.55 1.373-.278 4.67 7.462 2.473 5.803 6.867-3.04 7.417-14.927 3.296-19.627 0-21.01-13.184-9.122-54.937-33.172-64.276-4.423-1.923-9.4-2.472-14.65-2.746-6.636-.275-13.548.55-20.18 1.373-18.247.55-44.508 3.022-57.776-1.373 0-1.1-.277-2.473-.277-3.846 3.594-1.648 7.464-3.297 11.61-4.945 10.78-3.845 22.668-4.67 34.28-4.12 18.243 1.374 35.107 8.516 52.797 5.494 12.44-1.923 24.88-6.867 33.173-15.107.552-.275 1.106-.825 1.935-1.65 3.04-3.844 4.976-7.69 6.358-11.26 0-.275 0-.55.276-.825v-.55c.276-.55.276-.824.553-1.372v-.55c.277-.55.277-1.1.553-1.65 1.382-7.14 0-12.91-.276-14.557-3.87-12.91-20.732-20.327-29.855-12.086-6.08 6.043 14.098 2.198 17.14 15.383 2.764 11.26-11.888 24.172-37.597 24.72-2.21 0-4.146-.273-6.08-.822-21.286-4.12-52.8-10.437-69.386-10.437-9.4 0-17.97 2.746-23.774 5.218-3.316-17.304-4.423-30.49-4.423-32.96 0-6.593 1.38-9.89 3.318-13.735 11.333-23.9 22.115-48.07 15.756-75.54-6.08-26.095-34.278-46.696-63.58-46.696h-2.488c-29.3 0-57.498 20.6-63.58 46.696-6.358 27.468 4.424 51.64 15.758 75.54 1.658 3.844 3.318 7.14 3.318 13.733 0 2.47-1.107 15.656-4.424 32.687-5.805-2.198-14.098-4.944-23.22-4.944-16.586 0-48.1 6.316-69.386 10.438-1.935.55-3.87.824-6.08.824-24.05-.55-38.427-11.81-37.873-22.524v-1.1c0-.548.276-.823.276-1.097 3.042-13.185 23.22-9.34 17.14-15.383l-2.49-.824h-.55c-.553-.275-1.106-.275-1.66-.275-.275-.274-.552-.274-1.105-.274-.276 0-.83 0-1.382-.273h-6.635c-.276 0-.552.273-.83.273-.552 0-1.38.275-1.934.275-6.358 1.65-11.058 5.77-13.27 13.186-.275 1.648-1.657 7.417-.275 14.558l.275.275c0 .55 0 1.098.277 1.373v.55c.276.548.276.823.553 1.372v.55c.276.275.276.55.276.824 1.382 3.57 3.318 7.416 6.36 11.26.828.825 1.38 1.375 1.934 1.65 8.293 8.24 20.733 13.184 33.173 15.107 17.69 3.022 34.554-4.12 52.798-5.494 11.61-.55 23.498.275 34.278 4.12 3.87 1.648 7.464 3.297 11.058 4.945-.276 1.648-.276 3.297-.552 4.944-14.098 2.747-36.767.825-53.076.275-6.634-.824-13.82-1.648-20.18-1.373h-.276c-5.253.274-10.228.823-14.652 2.747-23.773 9.34-11.886 51.093-32.896 64.277-4.698 3.296-16.586 7.417-19.626 0-.276-.824-.276-1.373-.553-1.922.276-.275.552-.275.83-.55 1.38-1.374 5.804-1.1 5.527-4.395 0-.824-.276-1.373-1.106-1.923-2.487-1.922-9.12-.55-13.544 3.57 0 .276-.276.55-.553.55-2.765 3.297-4.146 7.69-1.382 13.734 7.188 16.758 33.173 16.758 50.036-1.646 16.863-18.13 5.528-41.203 30.96-47.796 10.782-3.02 22.945-1.374 34.83 0 9.124 1.1 17.97 2.197 26.54 1.373 3.87-.273 8.016-.822 11.887-1.92.553 1.647 1.106 3.02 1.934 4.67-8.57 8.514-18.52 15.106-29.578 19.502-16.035 6.318-39.532 3.02-52.8 14.833-11.61 10.162-16.31 27.743-9.123 41.477 3.594 6.592 9.4 11.537 16.586 13.46 4.423 1.098 16.31 1.647 20.733-2.747l1.106-1.1c3.04-3.57 6.634-13.733-.553-13.733-3.872 0-9.4 3.846-14.652 6.318-4.423-3.846-2.765-12.36-.553-17.58 8.017-18.954 19.35-18.68 32.896-18.68 6.91 0 14.1 0 21.84-2.197 8.292-2.472 19.626-9.614 30.96-18.953 1.382 1.1 3.04 2.198 4.423 3.02-.553 6.044-2.21 11.264-4.975 15.658-7.74 12.36-12.164 19.778-22.116 29.942-11.058 10.987-21.285 22.248-22.39 39.006-.83 12.36 8.568 26.37 22.943 26.917 9.95.275 14.65-7.415 16.034-13.184v-.275c.55-2.472.55-4.67.274-5.77l-.275-.273c-.83-4.944-4.148-9.065-9.677-8.79-6.08.55-1.106 6.318-.277 9.614.553 2.197.277 3.845-.552 5.22-4.7.273-9.675-4.945-9.952-9.89.277-9.065 17.968-22.25 23.497-28.018 12.99-13.185 30.96-31.04 40.912-50.268h3.594c9.95 18.954 27.643 37.083 40.636 50.268 5.805 5.768 23.497 18.953 23.773 28.018-.276 4.945-5.252 10.163-9.952 9.89-.83-1.375-1.105-3.023-.553-5.22.83-3.296 5.805-9.065-.276-9.614-5.53-.275-8.846 3.846-9.952 8.79v.274c-.554 1.1-.554 3.297 0 5.77l.276.273c1.382 5.768 6.082 13.458 16.033 13.183 14.377-.548 23.776-14.557 22.947-26.917-1.107-16.758-11.335-28.02-22.393-39.006-9.95-10.164-14.374-17.58-22.114-29.942-3.04-4.943-4.976-11.536-5.252-18.678.83-.55 1.657-1.098 2.487-1.923 12.164 10.44 24.326 18.13 33.172 20.876 7.74 2.197 14.93 2.197 21.563 2.197 13.545 0 25.156-.274 33.172 18.68 1.935 4.67 3.595 12.086.553 16.48-6.08 2.198-8.846-5.218-16.033-5.218-6.91 0-3.594 10.163-.276 13.733l1.105 1.1c4.424 4.394 16.31 3.845 20.733 2.746 7.188-1.92 12.993-6.866 16.587-13.458 7.187-13.734 2.488-31.315-9.123-41.477-13.268-11.812-36.765-8.515-52.798-14.833-12.44-4.944-23.776-12.912-32.622-22.8.277-.824.553-1.648.83-2.746 5.253 1.922 10.78 3.02 16.033 3.295 8.294.825 17.416-.273 26.54-1.372 11.886-1.374 24.048-3.02 34.83 0 25.432 6.593 13.823 29.667 30.96 47.796 16.865 18.404 42.848 18.404 50.037 1.647 2.763-6.59.827-11.535-2.49-14.556" fill="#FFB800"/><path d="M182.448 225.684c1.382.55 3.04 0 3.593-1.648.554-1.374 0-3.02-1.38-3.57-1.66-.55-3.04.274-3.594 1.647-.553 1.374 0 3.022 1.382 3.57m-8.016-2.746c1.38.275 3.04-.55 3.316-1.922.553-1.374-.276-3.022-1.935-3.297-1.38-.55-3.04.275-3.317 1.923-.553 1.375.553 2.747 1.936 3.297m-8.293-1.922c1.38.274 2.762-.825 3.04-2.2.275-1.646-.554-3.02-2.213-3.295-1.38-.274-2.764.824-3.04 2.473-.277 1.373.553 2.747 2.212 3.022m-8.57-1.1c1.657.275 2.763-.824 3.04-2.472 0-1.373-1.107-2.746-2.764-3.02-1.383 0-2.765 1.097-2.765 2.746-.275 1.372 1.106 2.745 2.49 2.745m-8.572 0c1.66 0 2.765-1.373 2.765-2.746-.276-1.65-1.382-2.748-3.04-2.748-1.382 0-2.765 1.373-2.488 2.747 0 1.646 1.382 2.745 2.763 2.745m-8.568.825c1.658-.275 2.487-1.65 2.487-3.022-.276-1.648-1.658-2.746-3.317-2.472-1.382.274-2.487 1.648-2.21 3.022.275 1.647 1.658 2.747 3.04 2.472m-8.57 1.373c1.658-.275 2.488-1.648 2.21-3.297-.275-1.373-1.658-2.472-3.315-2.197-1.383.55-2.49 1.922-2.212 3.295.553 1.648 1.935 2.472 3.318 2.198m-8.57 1.648c1.382-.273 2.488-1.647 2.212-3.02-.277-1.65-1.935-2.747-3.317-2.472-1.382.274-2.488 1.922-2.212 3.295.277 1.374 1.66 2.473 3.318 2.198m-8.845 1.375c1.38 0 2.487-1.648 2.21-3.022-.276-1.373-1.657-2.472-3.04-2.472-1.66.275-2.488 1.65-2.488 3.297.277 1.373 1.66 2.473 3.318 2.198m-9.122 1.098c1.657 0 2.763-1.374 2.486-3.02 0-1.375-1.382-2.473-2.764-2.473-1.66 0-2.764 1.373-2.764 3.02.276 1.375 1.658 2.473 3.04 2.473m-9.398-.275c1.658.275 3.04-.823 3.04-2.197.276-1.647-.83-3.02-2.21-3.295-1.66 0-3.042.824-3.042 2.472-.277 1.373.83 2.747 2.212 3.02m-8.847-1.647c1.383.55 3.042-.55 3.317-1.923.277-1.372-.552-3.02-2.21-3.296-1.383-.274-2.765.55-3.318 1.925-.277 1.647.83 3.02 2.21 3.295m-8.845-2.472c1.384.55 3.043-.275 3.596-1.648.552-1.374-.277-3.02-1.66-3.296-1.658-.55-3.04.275-3.593 1.648-.553 1.373.276 3.02 1.658 3.296m-8.568-3.57c1.382.823 3.04.274 3.87-1.1.552-1.373 0-3.02-1.382-3.57-1.106-.825-2.764-.275-3.594 1.1-.553 1.372-.276 3.02 1.106 3.57m-7.74-4.67c1.106.824 2.763.55 3.87-.55.83-1.373.552-3.02-.552-3.845-1.383-1.1-3.042-.824-3.87.55-1.107 1.098-.83 2.746.552 3.845m-6.91-6.593c.83 1.374 2.763 1.374 3.87.55 1.105-1.098 1.38-2.747.275-4.12-.83-1.1-2.765-1.1-3.87-.275-1.105 1.098-1.382 2.747-.276 3.845m-5.252-8.24c.553 1.373 1.936 2.197 3.594 1.647 1.383-.274 2.212-1.922 1.66-3.296-.277-1.647-1.936-2.197-3.318-1.922-1.66.55-2.212 2.197-1.936 3.57" fill="#FFF"/><path d="M293.85 344.898c5.807 5.768 23.5 18.954 23.776 28.018-.277 4.945-5.254 10.163-9.953 9.89-.83-1.374-1.105-3.023-.552-5.22.83-3.296 5.805-9.065-.276-9.614-5.53-.275-8.846 3.846-9.95 8.79v.274c-.555 1.1-.555 3.297 0 5.77l.274.273c1.383 5.768 6.082 13.458 16.034 13.183 14.374-.548 23.774-14.558 22.944-26.917-1.107-16.758-11.334-28.02-22.39-39.006-3.87-4.12-7.188-7.69-9.953-11.538H269.8c8.018 9.89 16.863 18.68 24.05 26.096M49.758 189.975l.277.275c0 .55 0 1.1.276 1.372v.55c.278.55.278.824.554 1.374v.55c.277.273.277.548.277.823 1.383 3.57 3.318 7.416 6.358 11.26.83.826 1.383 1.374 1.935 1.65 8.293 8.24 20.734 13.184 33.173 15.108 17.692 3.02 34.555-4.12 52.8-5.495 11.61-.55 23.496.275 34.277 4.12 3.87 1.648 7.464 3.297 11.058 4.946v.547h.83l-17.415-34.885c-16.864.55-46.994 6.318-67.727 10.438-1.935.55-3.87.824-6.082.824-24.05-.55-38.424-11.812-37.87-22.524v-1.1c0-.547.275-.823.275-1.098 3.04-13.184 23.222-9.338 17.14-15.38-.83-.276-1.66-.55-2.488-.826h-.553c-.554-.274-1.107-.274-1.66-.274-.276-.275-.553-.275-1.106-.275-.276 0-.828 0-1.38-.275h-6.635c-.277 0-.553.275-.828.275-.555 0-1.383.275-1.936.275-6.358 1.647-11.058 5.768-13.27 13.184-.276 1.648-1.658 7.417-.276 14.56" fill="#FFB800"/><path d="M62.475 179.81c0-.547.276-.823.276-1.098 3.04-13.184 23.222-9.338 17.14-15.38l-2.488-.826h-.553c-.554-.274-1.107-.274-1.66-.274-.276-.275-.553-.275-1.106-.275-.276 0-.83 0-1.382-.275H66.07c-.277 0-.553.275-.83.275-.553 0-1.38.275-1.934.275-6.358 1.647-11.058 5.768-13.27 13.185-.276 1.647-1.658 7.416-.276 14.558l.277.275c0 .55 0 1.1.276 1.372v.55c.278.55.278.824.554 1.374v.55c.277.274.277.548.277.823 1.383 3.57 3.318 7.416 6.358 11.26.83.826 1.383 1.375 1.935 1.65 8.294 8.24 20.734 13.184 33.173 15.108 10.78 1.922 21.286 0 31.79-2.2-8.293-4.668-15.48-10.436-21.285-17.578-.828 0-1.934.274-2.764.274-24.05-.55-38.424-11.812-37.87-22.524v-1.1" fill="#FF8B00"/><path d="M62.475 179.81c0-.547.276-.823.276-1.098 3.04-13.184 23.222-9.338 17.14-15.38l-2.488-.826h-.553c-.554-.274-1.107-.274-1.66-.274-.276-.275-.553-.275-1.106-.275-.276 0-.83 0-1.382-.275H66.07c-.277 0-.553.275-.83.275-.553 0-1.38.275-1.934.275-6.358 1.647-11.058 5.768-13.27 13.185-.276 1.647-1.658 7.416-.276 14.558l.277.275c0 .55 0 1.1.276 1.372v.55c.278.55.278.824.554 1.374v.55c.277.274.277.548.277.823 1.383 3.57 3.318 7.416 6.358 11.26.83.826 1.383 1.375 1.935 1.65 8.294 8.24 20.734 13.184 33.173 15.108 10.78 1.922 21.286 0 31.79-2.2-8.293-4.668-15.48-10.436-21.285-17.578-.828 0-1.934.274-2.764.274-24.05-.55-38.424-11.812-37.87-22.524v-1.1" fill="#FFB800"/><path d="M296.34 155.09v-.275.274z" fill="#FF8B00"/><path fill="#0078D6" d="M262.06 329.516h.278"/><path d="M262.338 329.516c.83 0 1.658.275 2.488.275-.83 0-1.66-.274-2.488-.274M298.275 150.695c11.333-23.898 22.114-48.07 15.757-75.54-6.082-26.095-34.28-46.696-63.58-46.696h-2.49c-2.21 0-4.423 0-6.634.274 27.09 2.747 51.417 22.25 57.22 46.422 6.36 27.468-4.7 51.64-16.033 75.54-1.658 3.844-3.317 7.14-3.317 13.733 0 2.47 1.382 15.655 4.7 32.96 0 29.118-31.514 29.118-31.514 29.118h15.756s31.238 0 31.238-29.117c-3.317-17.305-4.423-30.49-4.423-32.96 0-6.593 1.382-9.89 3.318-13.735" fill="#FFB800"/><path d="M298.275 150.695c11.333-23.898 22.114-48.07 15.757-75.54-6.082-26.095-34.28-46.696-63.58-46.696h-2.49c-2.21 0-4.423 0-6.634.274 27.09 2.747 51.417 22.25 57.22 46.422 6.36 27.468-4.7 51.64-16.033 75.54-1.658 3.844-3.317 7.14-3.317 13.733 0 2.47 1.382 15.655 4.7 32.96 0 29.118-31.514 29.118-31.514 29.118h15.756s31.238 0 31.238-29.117c-3.317-17.305-4.423-30.49-4.423-32.96 0-6.593 1.382-9.89 3.318-13.735" fill="#FFB800"/><path d="M231.93 183.657s3.87 11.262 17.415 11.262c13.268 0 17.14-11.263 17.14-11.263H231.93" fill="#FFB800"/><path d="M237.46 183.657c2.21 4.12 6.633 6.867 11.884 6.867 4.977 0 9.4-2.746 11.888-6.867H237.46M387.563 299.025c-1.658-1.1-3.317-1.647-5.253-2.197.277.823.277 1.373.277 2.197 1.66-.275 3.318-.275 4.976 0" fill="#FFF"/><path d="M376.782 321.55c1.935 4.67 3.594 12.086.553 16.48-6.08 2.2-8.846-5.218-16.034-5.218-6.91 0-3.592 10.163-.275 13.733l1.106 1.1c4.424 4.395 16.31 3.845 20.733 2.746 7.19-1.92 12.993-6.866 16.586-13.458 7.188-13.734 2.488-31.315-9.122-41.478-9.122-7.965-22.945-9.064-35.937-10.986-3.593 6.317-7.74 12.634-12.163 18.402 14.1 0 26.262-.823 34.555 18.68M406.36 222.937c12.44-1.923 24.88-6.867 33.173-15.107.553-.275 1.107-.825 1.934-1.65 3.042-3.844 4.977-7.69 6.36-11.26 0-.275 0-.55.276-.825v-.55c.276-.55.276-.824.553-1.372v-.55c.277-.55.277-1.1.553-1.65 1.38-7.14 0-12.91-.277-14.557-3.87-12.91-20.733-20.327-29.856-12.086-6.08 6.043 14.097 2.198 17.14 15.383 2.764 11.26-11.89 24.172-37.597 24.72-2.21 0-4.146-.273-6.08-.823-3.87-.824-7.742-1.374-11.888-2.197-.553 7.142-1.382 14.008-2.764 20.876 9.4 1.92 18.798 3.295 28.473 1.647M461.648 291.884l-.276-.275-.554-.55c-4.423-3.57-10.504-4.395-12.716-2.198v.275c-.55.275-.55.824-.55 1.373-.278 4.67 7.462 2.473 5.803 6.867-3.04 7.417-14.927 3.296-19.627 0-21.01-13.184-9.122-54.937-33.172-64.276-4.423-1.923-9.4-2.472-14.65-2.746-3.043 0-6.636 0-9.953.274-1.935 8.516-4.422 16.756-7.464 24.722 4.975 0 9.95.274 14.65 1.648 25.432 6.593 13.823 29.667 30.96 47.796 16.865 18.404 42.848 18.404 50.037 1.647 2.763-6.59.827-11.535-2.49-14.556" fill="#FFB800"/><path d="M394.198 310.287c0-1.1-.277-1.922-.553-2.747-1.936-7.69-9.675-12.36-17.14-10.438-3.317.824-5.804 2.473-7.74 4.945-4.146-4.396-10.78-6.593-17.14-4.945-9.674 2.473-15.203 11.81-12.992 21.426h-.274c-7.743 1.924-12.442 9.614-10.23 17.305 1.934 7.417 9.674 12.086 17.14 10.164l54.18-13.735c6.08-1.373 9.952-7.69 8.293-13.734-1.383-6.044-7.464-9.615-13.545-8.24" fill="#FFF"/><path d="M407.743 318.528c-.83-3.846-3.594-6.593-6.91-7.966.552 1.098 1.106 2.197 1.38 3.296 1.383 6.044-2.21 12.36-8.292 13.735l-54.18 13.734c-3.318.824-6.635.55-9.4-.825 3.318 4.67 9.123 6.868 14.93 5.495l54.18-13.735c6.08-1.373 9.952-7.69 8.293-13.734" fill="#D1D1D1"/><path d="M377.335 338.03c-6.08 2.473-8.846-4.943-15.757-4.943-7.187 0-3.594 9.888-.552 13.46 2.763 3.57 10.228 4.943 14.374 3.02 1.935-1.1 4.7-4.944 1.66-6.592" fill="#FFB800"/><path d="M479.063 281.446c-9.398-9.615-20.455-15.658-22.39-16.482-2.49-.275-8.57-1.1-13.27 3.022-.83 1.098-1.658 1.647-8.846 6.316l-.276.275c-.276 0-.276.276-.55.276-6.912 4.67-7.742 5.494-9.124 5.494-5.53 2.746-7.188 8.79-8.017 11.262.276 1.922 1.658 14.557 6.91 26.918 4.975 12.086 13.268 8.515 13.268 8.515 3.594-2.472 1.935-12.635 1.935-15.932-.276-3.57 2.765-5.492 2.765-5.492l8.847-6.043 1.105-.55 8.846-5.768s3.04-2.197 6.08-.824c3.32 1.648 12.165 6.867 15.76 4.395 0 0 6.356-6.043-3.043-15.382" fill="#00188E"/><path d="M429.028 287.763c1.382 1.923.83 4.67-1.105 5.77-1.935 1.372-4.423.823-5.806-1.1-1.382-1.923-.828-4.395 1.107-5.77 1.935-1.097 4.422-.822 5.804 1.1" fill="#0078D6"/><path d="M453.08 283.094c1.38 1.922.828 4.67-1.107 5.768-1.936 1.374-4.422.824-5.53-1.1-1.38-1.922-.828-4.393 1.108-5.767 1.935-1.098 4.423-.55 5.53 1.1" fill="#FFF"/><path d="M449.208 272.106c1.106-.55 1.382-1.648.553-2.472-.552-1.1-1.657-1.374-2.487-.825-1.105.55-1.38 1.922-.83 2.746.553 1.1 1.935 1.374 2.765.55" fill="#FFB800"/><path d="M453.907 279.523c.83-.55 1.106-1.924.554-2.747-.553-.824-1.657-1.1-2.763-.55-.83.55-1.106 1.65-.554 2.747.554.825 1.66 1.1 2.764.55M448.656 275.403c-.83-.826-1.935-1.1-2.765-.55-1.104.55-1.38 1.65-.828 2.746.83.824 1.935 1.1 2.764.55 1.107-.55 1.383-1.923.83-2.747M455.843 271.007c-.554-1.1-1.936-1.374-2.764-.824-.83.55-1.107 1.923-.554 2.746.553.824 1.658 1.098 2.763.55.83-.55 1.106-1.65.553-2.473" fill="#0078D6"/><path d="M441.192 291.334c-.277-.275-.553-.275-.83-.275l-1.935 1.373c-.277 0-.552 0-.83-.274l-1.104-1.925c-.277-.275-.553-.275-.83 0l-2.21 1.374c-.278.274-.278.548 0 .823l1.104 1.648c.277.276.277.825 0 .825l-1.935 1.373c-.276 0-.276.55 0 .824l1.382 1.923c0 .275.553.275.553.275l1.936-1.373c.275 0 .552 0 .828.275l1.107 1.647c.276.274.553.55.83.274l2.21-1.374c.278-.274.278-.548 0-.823l-1.105-1.65c-.276-.274 0-.822.277-.822l1.657-1.374c.277 0 .277-.55.277-.823l-1.382-1.923z" fill="#FFB800"/><path d="M445.338 266.612c-.83.275-1.38.824-1.658 1.1-.553 1.097-1.935 1.647-1.935 1.647l-7.464 5.217-7.74 4.946s-1.105 1.098-2.487 1.098c-.277 0-.83.55-1.382 1.1 2.765.55 6.635 1.373 7.74 1.1 1.66-.55 11.612-7.142 12.994-8.792.553-.823 1.382-4.67 1.934-7.416M471.876 292.433c-8.57-1.923-9.122-2.747-13.546.275-3.04 1.922-13.544 8.79-16.586 10.712-4.423 3.02-3.87 3.846-5.25 12.636-1.384 7.69 0 10.438.275 10.987 3.592-2.472 1.934-12.636 1.934-15.932-.276-3.57 2.763-5.492 2.763-5.492l8.847-6.043 1.106-.55 8.846-5.768s3.04-2.198 6.08-.824c3.32 1.647 12.165 6.867 15.76 4.394-.28-.548-2.49-2.747-10.23-4.394" fill="#001F50"/><path d="M462.754 292.708c-5.252-5.494-14.928-6.868-15.204-2.198-.277 4.67 7.74 2.472 5.804 6.867-.275.274-.275.274-.275.55.274-.276.55-.55.55-.55s3.596 2.198 5.807 1.1c1.38-.826 1.38-4.945 3.04-5.77h.277z" fill="#FFB800"/><path d="M437.045 218.542c-.552.55-1.38.275-1.658-.275L418.8 194.92c-.275-.55-.275-1.374.278-1.65l4.975-3.57c.553-.275 1.383-.275 1.658.274l16.588 23.624c.276.55.276 1.098-.276 1.648l-4.977 3.296z" fill="#505050"/><path fill="#000" d="M432.622 214.422l-11.058-15.657 6.912-4.944 11.057 15.933"/><path fill="#FFB800" d="M432.622 211.675l-2.765-3.846 4.424-3.022 2.766 3.846"/><path fill="#FFF9F9" d="M434.28 208.38l-.276-1.1-.83.55h.555l.276.274-.83.275h-.828l-.554-.55-.276.274.83.55h.83v.55h-.83v.274h.83l.275-.824h.554l-.276.274.553.55v-.55M434.834 208.38s-.277 0-.277-.276c0 0 0-.275.277-.275h.277c0 .274 0 .55-.276.55"/><path fill="#FFB800" d="M429.858 207.555l-2.765-3.846 4.146-3.023 2.764 3.846"/><path fill="#FFF9F9" d="M430.41 202.61l-1.382 1.1 1.66 2.197 1.38-.825-1.934-.55"/><path fill="#FFF9F9" d="M430.687 202.336l-.277.275v1.648l1.66.55h.276"/><path fill="#FFB800" d="M426.817 203.434l-2.764-3.846 4.422-3.02 2.765 3.845"/><path d="M428.752 200.962c.276-.274.553-.824.276-1.1-.276-.274-.276-.274-.553-.274 0-.274 0-.274-.276-.548-.278-.55-.554-.55-.83-.275-.552.275-.552 1.373-.552 1.923.553.274 1.38.55 1.934.274" fill="#FFF"/><path d="M186.318 303.695c0-.825.553-1.1 1.106-1.1h127.99c.552 0 1.105.275 1.105 1.1v78.01c0 .55-.554 1.1-1.107 1.1h-127.99c-.552 0-1.105-.55-1.105-1.1v-78.01" fill="#000"/><path d="M196.546 313.583c0-.824.83-1.647 1.382-1.647h106.98c.83 0 1.383.823 1.383 1.647v57.41c0 .55-.552 1.374-1.38 1.374H197.927c-.553 0-1.382-.824-1.382-1.374v-57.41" fill="#008171"/><path d="M262.06 355.06c.278-.274.554-.274.83-.274-.276 0-.552 0-.83.275M264.826 354.51h-.553" fill="#0078D6"/><path d="M264.273 354.51c-.277 0-.83.276-1.382.276.553 0 1.106-.275 1.383-.275" fill="#FFB800"/><path d="M334.487 92.46c-3.593 0-6.634 3.022-6.634 6.593 0 3.846 3.04 6.593 6.634 6.593 3.594 0 6.636-2.747 6.636-6.593 0-3.57-3.042-6.592-6.636-6.592" fill="#008171"/><g transform="translate(345.822 .193)"><mask id="b" fill="#fff"><use xlink:href="#a"/></mask><path d="M6.08.25C3.04.25.276 2.72.276 5.74c0 3.296 2.765 5.768 5.806 5.768 3.042 0 5.53-2.472 5.53-5.768H9.398c0 1.923-1.382 3.57-3.317 3.57-1.933 0-3.593-1.647-3.593-3.57 0-1.647 1.66-3.296 3.594-3.296 1.936 0 3.318 1.65 3.318 3.296H11.61C11.61 2.722 9.122.25 6.08.25" fill="#008171" mask="url(#b)"/></g><path d="M340.846 135.037c-2.488 0-4.424 1.923-4.424 4.67 0 2.472 1.936 4.67 4.424 4.67 2.764 0 4.7-2.198 4.7-4.67 0-2.747-1.936-4.67-4.7-4.67M327.853 41.644c-2.49 0-4.7 1.923-4.7 4.394 0 2.748 2.21 4.67 4.7 4.67 2.488 0 4.7-1.922 4.7-4.67 0-2.47-2.212-4.394-4.7-4.394M349.968 60.048c-3.317 0-5.805 2.747-5.805 5.768 0 3.297 2.488 5.77 5.805 5.77 3.04 0 5.805-2.473 5.805-5.77H353.562c0 1.923-1.66 3.57-3.594 3.57s-3.594-1.647-3.594-3.57c0-1.922 1.66-3.296 3.594-3.57 1.935.274 3.594 1.648 3.594 3.57H355.773c0-3.02-2.765-5.768-5.805-5.768M358.537 109.217c-3.04 0-5.804 2.747-5.804 5.768 0 3.296 2.764 5.77 5.804 5.77 3.318 0 5.806-2.474 5.806-5.77H362.13c0 1.923-1.657 3.57-3.593 3.57-1.935 0-3.593-1.647-3.593-3.57 0-.824.553-1.647 1.106-2.472.83-.55 1.658-1.1 2.487-1.1 1.936 0 3.594 1.65 3.594 3.572h2.213c0-3.02-2.488-5.768-5.806-5.768" fill="#008171"/><path d="M159.504 291.61l-2.212 9.888 2.212-9.89z" fill="#F4D11E"/><path d="M157.292 301.772l-.276-.275 2.212-9.89c0-.272.276-.272.276-.272.276 0 .276 0 .276.273l-2.212 9.89c0 .274 0 .274-.276.274" fill="#231F1F"/><path d="M156.463 305.892l-1.106 5.22 1.106-5.22z" fill="#F4D11E"/><path d="M155.357 311.386c-.276 0-.276-.275-.276-.55l1.106-4.944s0-.274.277-.274c.276 0 .276.274.276.55l-1.107 4.943-.276.276z" fill="#231F1F"/><path d="M151.487 328.966l-1.106 4.944 1.107-4.944z" fill="#F4D11E"/><path d="M150.38 334.185c-.275 0-.275-.275-.275-.275l1.106-5.218s.277-.275.277 0c.276 0 .276 0 .276.275l-1.106 4.943c0 .275-.276.275-.276.275" fill="#231F1F"/><path d="M148.446 342.975c-.276.55-.553.824-1.106.55l-33.45-7.143c-.275 0-.552-.55-.552-.823l13.546-62.905c0-.55.553-.824.83-.55l33.725 7.144c.275 0 .552.548.552.822l-13.546 62.903" fill="#FFB800"/><path d="M148.17 340.228c-.277 1.1-1.66 1.923-3.042 1.648l-28.472-6.042c-1.382-.275-2.21-1.374-1.935-2.748l12.44-57.683c.277-1.1 1.66-1.924 2.765-1.65l28.75 6.045c1.38.275 2.21 1.373 1.934 2.747l-12.44 57.683" fill="#000"/><path fill="#01B194" d="M146.235 332.262l-26.538-5.768 10.23-47.246 26.536 5.768"/><path d="M144.3 334.185c-.553 0-.83 0-.83.55v.275l-.552.55.552-.276h.554c.276.275.552 0 .552-.274.277-.55 0-.825-.276-.825m-.276 1.1c-.277 0-.554-.275-.554-.55s.277-.55.554-.55c.276.275.552.55.552.825 0 .274-.276.274-.552.274M121.632 330.065l-1.382-.275.83-.55-1.107.55.83 1.1-.553-.825 1.382.275M131.307 332.812l.553.275.277-.55-.83-.275M131.584 332.262l.553.275v-.824h-.553" fill="#737374"/><path fill="#737374" d="M132.136 332.537h.83l.276-.824h-1.106M131.86 333.086l1.106.55v-.824l-.83-.275"/><path d="M142.365 309.188c-2.765-3.296-12.44-4.12-17.97-4.394l-4.7 21.7 26.54 5.768 3.593-16.756c-2.764-1.923-5.528-4.395-7.463-6.318" fill="#005750"/><path d="M139.6 294.356c.83-.825 1.382-.825 1.382.55l.554 5.767c0 1.1 1.106 2.472 2.21 2.747l5.806 1.373c1.106.275 1.383.824 0 1.374l-5.253 2.197c-1.107.55-2.212 1.924-1.935 3.296l.277 5.77c0 1.1-.554 1.373-1.383.274l-3.595-4.395c-.83-.825-2.488-1.375-3.593-.825l-5.53 2.197c-1.105.55-1.658 0-.83-1.1l3.042-4.943c.553-1.1.553-2.748-.276-3.572l-3.594-4.395c-.83-1.1-.552-1.648.553-1.373l5.806 1.373c1.105.275 2.763-.274 3.316-1.373l3.04-4.944" fill="#FFB800"/><path d="M148.447 342.975c-.277.275-.554.55-.83.55.276 0 .553-.275.83-.55m0-.825v.825-.825" fill="#3346A5"/><path d="M126.884 272.655l-13.545 62.903c0 .55.276.824.55.824l33.45 7.143h.276c.277 0 .553-.275.83-.55v-.824l-.553-1.647c-.277.824-1.105 1.648-2.21 1.648-.277 0-.277 0-.554-.274l-28.474-6.043c-1.382-.275-2.212-1.373-1.935-2.747l12.44-57.683c0-.276.277-.55.277-.826l-.553-1.922" fill="#FFC633"/><path d="M144.023 334.185c-.277 0-.553.275-.553.55s.276.55.553.55c.276 0 .553-.275.553-.275 0-.275-.277-.55-.553-.825m-1.106 1.374l.553-.55v-.275c0-.275.276-.55.553-.55h.276c.276 0 .552.275.276.825 0 .274-.277.55-.553.55v-.276h-.553l-.553.275m-9.95-1.924l-1.107-.55.277-.548.83.273v.826m-1.107-.55l-.553-.275v-.547l.83.275-.277.548m1.106-.548h-.83v-.825h1.107l-.277.825m-.83 0l-.552-.275v-.55h.553v.825m-11.334-1.65l-.83-1.097 1.106-.55-.83.55 1.382.275v.274l-1.383-.275.553.824m6.634-56.313c0 .276-.276.55-.276.826l-12.44 57.683c-.275 1.374.554 2.473 1.936 2.747l28.472 6.043c.277.275.277.275.554.275 1.106 0 1.935-.823 2.21-1.647l-2.487-8.515-25.708-5.493 4.7-21.702 4.975-23.897-1.935-6.32" fill="#333"/><path d="M129.372 280.896l-4.976 23.898c1.66 0 3.87.274 6.358.55l-.276-.276-3.594-4.395c-.83-.823-.83-1.373 0-1.373h.553l5.806 1.373c0 .275.276.275.55.275.556 0 1.107-.275 1.66-.55l-6.08-19.502" fill="#00A387"/><path d="M144.023 335.284c-.277 0-.553-.275-.553-.55 0-.274.276-.55.553-.55.276.276.553.55.553.825 0 0-.277.274-.553.274m0-1.1c-.277 0-.553.276-.553.55v.275l-.553.55.553-.276h.553v.275c.276 0 .553-.276.553-.55.276-.55 0-.825-.277-.825h-.277M121.08 329.24l-1.107.55.83 1.1-.554-.825 1.382.275v-.275l-1.383-.274M131.307 332.262v.55l.553.275.277-.55" fill="#8F8F90"/><path fill="#8F8F90" d="M131.584 331.713v.55l.553.274v-.824"/><path fill="#8F8F90" d="M132.136 331.713v.824h.83l.276-.824"/><path fill="#8F8F90" d="M132.136 332.537l-.276.55 1.106.55v-.825"/><path d="M124.396 304.793l-4.7 21.702 25.71 5.493-4.7-14.834-3.04-3.846c-.554-.55-1.66-1.1-2.49-1.1-.55 0-.828.276-1.105.276l-5.528 2.198c-.276 0-.553.275-.828.275-.553 0-.553-.55 0-1.374l3.04-4.944c.553-.825.553-2.473 0-3.297-2.488-.275-4.7-.55-6.358-.55" fill="#00A387"/><path d="M126.884 299.3c-.83 0-.83.55 0 1.374l3.593 4.394.278.275c.55.824.55 2.472 0 3.296l-3.04 4.943c-.554.824-.554 1.374 0 1.374.275 0 .55-.275.828-.275l5.528-2.197c.278 0 .554-.275 1.107-.275.83 0 1.936.55 2.488 1.098l3.04 3.846-5.252-16.755c-.552.274-1.105.547-1.658.547-.277 0-.553 0-.553-.273l-5.805-1.374h-.553" fill="#FFC633"/><path d="M273.948 357.26c0 1.097 1.658 1.372 2.488 1.92.83.55.83 1.65.83 2.474 0 .55-.277 1.648-2.213 1.648h-7.74s-1.658-9.34-5.804-10.438c0-7.142 1.38-7.142 1.38-7.142s10.78 2.197 11.058 11.537" fill="#FFB800"/><path d="M70.49 154.814l42.02 11.263c.553.275.83.825.553 1.373l-11.058 41.478c-.276.55-.83 1.1-1.382.824l-42.02-11.263c-.552-.275-.828-.824-.552-1.373l11.06-41.478c.276-.55.83-.826 1.38-.826z" fill="#008171"/><path d="M112.51 166.077l-4.423-1.1L96.2 208.654l4.423 1.1c.553.274 1.106-.276 1.382-.825l11.057-41.477c.276-.55 0-1.098-.552-1.373" fill="#00A387"/><path d="M60.54 188.052l-2.488 9.065c-.277.55 0 1.1.553 1.372l42.018 11.262c.552.275 1.105-.275 1.38-.824l2.49-9.065-43.954-11.81" fill="#FFF"/><path fill="#001D48" d="M98.964 198.215l5.53 1.648"/><path d="M98.964 198.215l-2.765 10.44 4.423 1.098h.277c.276 0 .83-.275 1.105-.825l2.487-9.065-5.528-1.648" fill="#E5E5E5"/><path d="M94.818 170.472c3.316 5.768 1.38 13.185-4.7 16.48-5.805 3.298-12.992 1.374-16.586-4.67-3.318-5.767-1.106-12.91 4.7-16.48 5.805-3.295 13.27-1.098 16.586 4.67" fill="#FFF"/><path fill="#FFB800" d="M90.395 178.163l-11.61 4.12 3.87-13.734"/><path d="M66.62 195.194c-.276.824-1.38 1.374-2.21 1.1-.83-.276-1.382-1.1-1.382-1.925.276-1.1 1.38-1.648 2.21-1.373 1.106.274 1.66 1.372 1.383 2.197M73.255 196.842c-.276 1.1-1.382 1.647-2.21 1.374-.83-.275-1.383-1.374-1.106-2.2.275-.822 1.105-1.37 1.933-1.097 1.106.274 1.66 1.097 1.382 1.922M79.89 198.765c-.276.824-1.106 1.373-2.21 1.1-.83 0-1.384-1.1-1.107-1.925.276-1.098 1.106-1.647 2.21-1.373.83.275 1.384 1.373 1.107 2.198M86.524 200.688c-.275.824-1.105 1.374-1.934 1.098-1.106-.274-1.66-1.098-1.382-2.197.276-.826 1.382-1.375 2.21-1.1.83.274 1.382 1.1 1.106 2.198M93.435 202.336c-.276 1.098-1.38 1.374-2.21 1.374-1.106-.276-1.66-1.374-1.383-2.2.277-1.098 1.382-1.647 2.212-1.372 1.105.274 1.657 1.373 1.38 2.198" fill="#00A387"/><path d="M96.2 177.888c-.276 3.57-2.488 7.142-6.082 9.065-1.38.824-3.317 1.374-4.976 1.374 1.66 0 3.595-.55 4.976-1.374 3.594-1.923 5.806-5.494 6.082-9.065" fill="#001680"/><path d="M94.818 170.472l-7.188 4.12 2.765 3.57-11.61 4.12 1.105-3.295-6.082 3.57c2.212 3.847 6.082 6.044 10.505 6.044.277 0 .553 0 .83-.274 1.657 0 3.593-.548 4.975-1.373 3.594-1.922 5.805-5.494 6.08-9.065.278-2.472 0-5.22-1.38-7.416" fill="#E5E5E5"/><path fill="#E5A500" d="M87.63 174.592l-7.74 4.394-1.106 3.298 11.61-4.12"/><path d="M292.746 326.22c-1.66-2.472-4.976-3.572-7.74-3.297-4.976 0-7.74 2.197-9.676 6.593-1.382 3.296-1.935 16.755-8.293 15.107v-.274c-1.382.548-.83 1.92-.83 2.745.553 1.923 1.383 2.472 3.318 2.472 3.87.275 8.57.275 11.335-3.02 2.21-2.198 2.21-5.77 4.146-8.24 1.105-1.375 2.212-2.473 3.594-3.298-1.382-.55-1.936-1.648-2.212-2.198 0-.275.276-.55.553-.824.278 0 .554.275.554.55 0 0 .552 1.097 1.934 1.647.83-.55 1.66-1.373 2.764-1.922 2.212-1.65 1.936-3.297.554-6.043" fill="#FFB800"/><path d="M285.006 328.417c0 1.1-.83 1.648-1.66 1.648s-1.657-.55-1.657-1.648c0-.824.827-1.648 1.657-1.648.83 0 1.66.823 1.66 1.647" fill="#005750"/><path d="M225.295 345.447s-5.528.275-7.74-2.747c-2.488-3.02 3.04 7.416 6.91 8.515.554-4.67.83-5.768.83-5.768M223.637 357.26c0 1.097-1.66 1.372-2.212 1.92-.83.55-1.106 1.65-1.106 2.474 0 .55.275 1.648 2.487 1.648h7.74s1.383-9.34 5.53-10.438c0-7.142-1.106-7.142-1.106-7.142s-11.057 2.197-11.333 11.537" fill="#FFB800"/><path d="M249.9 322.924c-24.052 0-22.394 15.107-27.092 28.84 0 0 11.057 2.747 27.09 2.747 15.757 0 26.815-2.745 26.815-2.745-4.424-13.734-2.765-28.84-26.814-28.84z" fill="#01B194"/><path d="M265.93 331.988c-2.764 0-4.146 2.472-5.803 4.12-.553.55-1.107 1.373-1.935 1.923-.554.55-1.383.55-1.936 1.1-1.935 1.373-1.66 3.295.553 4.394.828.275 2.764 3.57 3.87 4.396.276 0 .828.273 1.104.273.83 0 1.66-.548 2.49-.548 1.657-.275 3.316-.824 4.975-1.1 1.104-.274 1.657-.824 1.38-1.922-.276-1.923-.553-4.12-.83-6.317-.276-1.374-.276-3.022-.276-4.396 0-.275-.275-.823-.55-1.098-.554-.275-1.384-.55-2.213-.824h-.83M268.143 349.018c-1.382 0-2.765.275-3.87 1.1l4.7 3.02c1.38-.274 2.763-.55 3.87-.55v-1.098c0-1.373-.83-1.923-2.212-2.197-.83-.275-1.657-.275-2.487-.275" fill="#005750"/><path d="M249.9 322.923h-.278.277z" fill="#3393DE"/><path d="M249.898 322.923h-.553c-5.25 0-9.12.825-12.44 2.198-.552 1.374-.827 2.747-1.38 4.12-.277.826-.554 1.924-.83 2.748l14.927 9.34c1.936-2.2 3.043-5.77 1.66-8.24-.83-1.1-1.66-2.474-1.66-4.122 0-1.648.278-3.57.554-5.493v-.55h-.276M251.833 322.923v.825c.553 3.844 1.382 7.69 2.212 11.536 0 1.098.83 1.648 1.382 1.648.553 0 .83 0 1.383-.55 1.382-1.098 2.763-2.472 4.422-3.845.276-.274.552-.274 1.382-1.1.277-.548 1.106-2.745 2.212-5.217-3.042-1.923-7.188-3.022-12.993-3.297" fill="#005750"/><path d="M274.224 342.7c.277.825.554 1.923.83 3.022-.276-1.1-.553-2.197-.83-3.022" fill="#FFC633"/><path d="M271.46 333.91c.277 1.923.554 4.12.554 4.12.276 2.198-.277 5.22 1.38 7.142 0 .275.554.55.83.825.277-.275.553-.275.83-.275-.277-1.1-.553-2.197-.83-3.022-.83-3.02-1.383-6.043-2.764-8.79M232.76 327.593c-.83.55-1.383 1.374-1.936 1.922l1.66 1.374c.275-1.1.552-2.198 1.105-3.022 0 0-.554-.275-.83-.275M266.208 327.044c0 .274 0 .55-.277.824-.275 1.098 0 2.197 1.383 2.197.554.275 1.382.275 1.937.275-.83-1.1-1.66-2.197-3.042-3.296" fill="#005750"/><path d="M63.027 163.88l-.553 17.03c0-.825 0-1.648.277-2.198 3.042-13.185 23.222-9.34 17.14-15.382-5.805-1.922-11.61-2.197-16.587-1.098 0 .55-.276 1.098-.276 1.648M117.21 341.876c6.08 2.197 17.138-8.79 24.325-8.79 6.91 0 3.593 9.89.277 13.46-2.765 3.57-10.228 4.944-14.1 3.02-2.21-1.097-4.698-4.943-1.657-6.59" fill="#FFB800"/><path d="M186.87 302.87c-.276 0-.552.276-.552.825v78.01c0 .55.553 1.1 1.106 1.1h127.99c.276 0 .83-.275.83-.824l-15.76-9.613H197.93c-.554 0-1.384-.824-1.384-1.373v-57.41c0-.824.83-1.65 1.383-1.65h3.868l-14.927-9.063" fill="#333"/><path d="M262.89 354.786c-.276 0-.552 0-.83.275.278-.274.554-.274.83-.274m-61.092-42.85h-3.87c-.552 0-1.382.823-1.382 1.647v57.41c0 .55.83 1.374 1.383 1.374h102.555L273.95 356.16v1.1c0 1.097 1.656 1.372 2.486 1.92.83.55.83 1.65.83 2.475 0 .548-.278 1.647-2.213 1.647h-7.74s-1.106-5.77-3.317-8.79c-.552.274-.83.274-1.105.274.277 0 .554 0 1.106-.275-.552.276-.83.276-1.105.276-.276 0-.552 0-.83.275-.275-.55-.275-.823-.55-1.098-3.32.275-7.19.55-11.336.55h-.553c-5.527 0-10.78-.55-14.926-.825-3.04 2.473-4.146 9.615-4.146 9.615h-7.74c-2.212 0-2.49-1.1-2.49-1.647 0-.825.278-1.924 1.108-2.474.552-.548 2.212-.823 2.212-1.92.275-1.924.55-3.573 1.38-4.946-1.38-.55-2.21-.55-2.21-.55l.276-.274c0-.275 0-.55.277-.824-3.317-2.198-6.91-8.515-6.358-8.515l.553.55c1.66 2.197 5.53 2.747 7.187 2.747v-.275c1.382-5.768 2.488-11.536 6.082-15.656l-29.026-17.58" fill="#00A387"/><path d="M262.89 354.786c-.276 0-.552 0-.83.275.278-.274.554-.274.83-.274" fill="#3393DE"/><path d="M263.996 354.51c-.553.276-.83.276-1.105.276.276 0 .553 0 1.106-.275" fill="#FFC633"/><path d="M268.972 353.138c-1.66.275-3.593.55-5.805.55l.83.824c2.21 3.02 3.316 8.79 3.316 8.79h7.74c1.935 0 2.212-1.098 2.212-1.648 0-.824 0-1.922-.83-2.473-.83-.548-2.486-.823-2.486-1.92v-1.1l-4.978-3.022M217.002 342.15c-.553 0 3.042 6.32 6.358 8.516.277-1.648.83-3.57 1.382-5.22-1.66 0-5.528-.548-7.187-2.745l-.553-.55M225.02 352.314c-.83 1.374-1.107 3.022-1.383 4.945 0 1.097-1.66 1.372-2.21 1.92-.83.55-1.108 1.65-1.108 2.475 0 .55.276 1.647 2.487 1.647h7.74s1.106-7.142 4.147-9.614c-4.146-.55-7.464-1.1-9.675-1.374" fill="#FFC633"/><path d="M249.622 354.51h.277-.278m-6.36-.273c-4.145-.275-7.462-.55-10.503-.825.83-1.647 1.934-3.295 3.04-4.67 1.105-1.92 2.212-2.196 3.317-2.196 1.106 0 1.935.275 3.042.275H243.262c.83 0 1.106.55 1.106 1.374-.554 1.648-.83 3.296-1.107 4.944v1.1m-12.44-24.722c-3.593 4.12-4.7 9.888-6.08 15.656 0-.55.277-1.098.277-1.647 1.934-.275 3.592-1.1 5.528-1.65.276-.274.83-.274 1.106-.274.552 0 .83.55 1.105 1.375.553 1.922.83 3.846-.554 5.493-.83 1.374-1.935 2.747-2.764 3.846-.276.275-.276.275-.276.55-3.042-.55-4.976-.824-5.806-1.1l-.276-.274-.276.275s.83 0 2.212.55c2.21.274 5.528.823 9.674 1.372 4.147.275 9.4.824 14.928.824h-3.87c0-1.372.276-2.745.276-4.12 0-3.02 3.04-5.767 5.252-6.316h1.658c1.66 1.923 3.042 3.57 4.7 4.944 1.936 1.373 2.488 3.296 2.21 4.944-2.763.275-6.08.55-9.673.55 4.146 0 8.017-.275 11.333-.55.553 0 1.106 0 1.66-.275 2.21 0 4.146-.275 5.804-.55-1.934.275-4.423.55-7.464.825 0-.824.276-1.373.276-1.922.83-.825 1.66-1.374 2.49-1.923l-14.652-8.79c-.553.55-1.382 1.098-2.212 1.373-1.105.275-3.87.825-6.08.825-2.213 0-4.148-.275-4.7-1.65-1.66-2.746-3.04-3.844-2.765-5.767.275-1.098.552-2.747.83-4.12l-2.212-1.1c-.553 1.65-.83 3.572-1.382 5.494 0 0-.276 2.472-2.21 2.472h-.554c-1.382-.548-1.66-.823-1.66-1.098.83-3.02 2.213-5.768 4.148-8.24" fill="#01B194"/><path d="M250.174 354.51h-.276.276z" fill="#5CA9E5"/><path d="M251.833 344.074h-.553c-2.21.55-5.252 3.296-5.252 6.318 0 1.372-.276 2.746-.276 4.12H250.174c3.593 0 6.91-.275 9.674-.55.276-1.648-.277-3.57-2.212-4.944-1.658-1.373-3.04-3.022-4.7-4.944h-1.105" fill="#008171"/><path d="M223.36 350.666c-.277.275-.277.55-.277.824 0-.274 0-.55.277-.824m1.382-5.493v.274-.274" fill="#5CA9E5"/><path d="M224.742 345.447c-.553 1.648-1.104 3.57-1.38 5.22.276-1.65.827-3.572 1.38-5.22" fill="#FFD15C"/><path d="M231.653 341.602c-.277 0-.83 0-1.104.274-1.938.55-3.596 1.373-5.53 1.648 0 .55-.278 1.1-.278 1.65v.273c-.552 1.648-1.105 3.57-1.382 5.22-.277.274-.277.55-.277.823l.277.275c.83.274 2.765.55 5.806 1.098 0-.275 0-.275.276-.55.83-1.097 1.934-2.47 2.764-3.844 1.382-1.65 1.106-3.572.552-5.495-.275-.824-.552-1.373-1.105-1.373M264.273 350.117c-.83.55-1.66 1.1-2.49 1.922 0 .55-.275 1.098-.275 1.922 3.04-.274 5.53-.55 7.464-.824l-4.7-3.02M239.117 346.546c-1.105 0-2.212.275-3.317 2.197-1.106 1.374-2.21 3.022-3.04 4.67 3.04.275 6.357.55 10.503.824v-1.1c.277-1.647.553-3.295 1.106-4.944 0-.823-.277-1.372-1.107-1.372H242.16c-1.108 0-1.937-.274-3.043-.274M234.694 331.988c-.277 1.374-.554 3.02-.83 4.12-.275 1.923 1.106 3.022 2.765 5.77.552 1.37 2.487 1.646 4.7 1.646 2.21 0 4.974-.55 6.08-.824.83-.275 1.66-.823 2.212-1.373l-14.928-9.34M230.824 329.516c-1.935 2.472-3.317 5.218-4.147 8.24 0 .275.277.55 1.66 1.1h.552c1.934 0 2.21-2.473 2.21-2.473.554-1.923.83-3.846 1.383-5.493l-1.66-1.374" fill="#008171"/><path d="M319.56 221.563h-.277.277m.83-.55v.276-.276m.828 0h-.83.83m6.358-1.922c-.276.274-.553.274-1.104.274.55 0 .828 0 1.104-.274" fill="#006CC0"/><path d="M326.47 219.366c-1.658.55-3.592 1.1-5.25 1.648 1.658-.55 3.592-1.098 5.25-1.648" fill="#E5E5E5"/><path d="M320.113 192.447c-8.293.55-15.757 2.747-20.733 4.944.553 1.375.83 3.022 1.105 4.67 3.32 7.966 5.806 16.208 7.188 24.448 3.594-1.65 7.463-3.296 11.61-4.944h.277c.276-.275.553-.275.83-.275v-.276h.828c1.66-.55 3.594-1.1 5.253-1.648.554 0 .83 0 1.106-.275-1.382-5.767-3.317-11.536-5.528-17.03-.83-3.295-1.382-6.592-1.935-9.613" fill="#E5A500"/><path d="M288.875 280.072c.553.275 1.106.825 1.66 1.1-.554-.275-1.107-.825-1.66-1.1m16.033-22.25c4.424 4.945 9.123 9.065 14.376 12.91-5.253-3.845-9.952-7.965-14.376-12.91" fill="#006CC0"/><path d="M304.91 257.822c-3.043 8.515-8.847 15.932-16.034 22.25.552.275 1.106.824 1.66 1.1 2.763 2.47 5.527 4.668 8.015 6.592 8.294-4.12 15.482-10.165 20.733-17.03-5.25-3.847-9.95-7.968-14.374-12.912" fill="#E5A500"/><path d="M321.772 258.37h.276-.276m-.554 0h.554-.554m-7.186-1.098c.553.275 1.104.275 1.657.55-.554-.275-1.105-.275-1.658-.55m-6.082-26.918c5.53 1.923 13.268 2.47 21.838 2.47-8.57 0-16.31-.547-21.838-2.47" fill="#006CC0"/><path d="M315.69 257.822c1.935.275 3.593.55 5.528.55-1.935 0-3.593-.275-5.53-.55" fill="#E5E5E5"/><path d="M307.95 230.354c.83 7.142.553 14.284-1.382 21.7 0 1.1-.277 2.197-.83 3.296 2.765.825 5.53 1.373 8.293 1.923.554.274 1.107.274 1.66.55 1.935.274 3.594.55 5.528.55H322.048v.273h4.147c.83-1.923 1.383-4.12 1.935-6.592 1.658-6.593 1.934-12.91 1.658-19.228-8.57 0-16.31-.55-21.838-2.472" fill="#E5A500"/><path d="M248.24 28.46h-.278 1.107-.83zm1.934 0h.277-.276z" fill="#3393DE"/><path d="M247.963 28.46c-29.58 0-57.498 20.6-63.58 46.696-4.423 18.403-.83 35.71 5.53 52.19 0-1.373.274-2.746.552-4.12.552-.824.828-3.57 11.333-6.043-4.146-13.46-5.528-27.195-2.212-42.027 5.253-21.975 25.71-39.83 49.483-45.05-2.49-.548-5.254-1.097-7.742-1.372 2.212-.275 4.424-.275 6.635-.275" fill="#FFC633"/><path d="M250.45 28.46h-2.489c-2.21 0-4.422 0-6.634.274 2.488.275 5.253.824 7.74 1.373 2.488-.55 5.253-1.098 7.74-1.373-2.21-.275-4.145-.275-6.357-.275M201.522 153.716c1.105 2.747 1.935 5.77 1.935 10.713 0 2.47-1.382 18.128-5.528 37.63-3.043 7.692-5.808 15.658-6.913 23.9l.553 1.098h-.83c-.275 1.647-.275 3.02-.553 4.67 4.147-.824 7.465-2.198 9.676-3.846h.277c0 .275-.277.55-.277.823l6.635-3.846c1.105-7.69 3.593-15.383 6.634-22.8 3.594-16.755 5.252-30.764 5.53-35.983-7.465-2.472-12.44-5.494-13.547-6.867-1.382-1.648-2.488-3.572-3.593-5.494" fill="#FFC633"/><path d="M191.017 225.96c-.277.274-.277.823-.277 1.098h.83l-.553-1.1" fill="#FFC633"/><path d="M266.76 184.756h-.83c-1.38 3.02-6.08 10.164-16.586 10.164-10.78 0-15.48-7.143-16.86-10.164h-1.107s3.87 11.81 17.692 11.81c13.82 0 17.69-11.81 17.69-11.81" fill="#E5A500"/><path d="M265.93 184.756h-5.527c-2.488 3.57-6.635 5.768-11.058 5.768-4.7 0-8.846-2.197-11.334-5.768h-5.527c1.382 3.02 6.08 10.164 16.862 10.164 10.505 0 15.204-7.143 16.586-10.164" fill="#E5A500"/><path d="M260.402 184.756h-22.39c2.487 3.57 6.633 5.768 11.333 5.768 4.423 0 8.57-2.197 11.057-5.768" fill="#E5E5E5"/><path d="M236.905 184.756c2.49 4.394 6.91 7.142 12.164 7.142 5.25 0 9.675-2.748 12.16-7.142h-24.325z" fill="#FFF"/><path d="M307.673 123.226c-1.105-1.374-1.105-9.34-58.604-9.34-57.5 0-57.5 7.966-58.606 9.34-1.935 9.614.553 20.327.553 20.327 5.805 6.042 58.052.824 58.052.824s52.522 5.218 58.05-.824c0 0 2.488-10.713.553-20.327" fill="#000"/><path fill="#FFF" d="M200.14 147.398v-3.57h-7.188v3.57l1.936 1.374h4.698l2.212-1.374M297.998 147.398v-3.57h7.188v3.57l-1.936 1.374h-4.7l-2.21-1.374"/><path d="M302.697 124.874c-13.545-5.768-47.823-5.22-53.628-5.22-5.807 0-40.085-.548-53.63 5.22-.276 6.593 0 21.975 9.675 34.336 1.936 2.198 15.204 10.163 33.45 9.89 4.422 0 4.698-5.77 10.504-5.77 6.08 0 6.08 5.77 10.503 5.77 18.245.273 31.515-7.692 33.45-9.89 9.674-12.36 9.95-27.743 9.674-34.336" fill="#008171"/><path d="M229.442 145.2c1.658 0 2.764.55 3.87 1.375.553-.824.83-1.374.83-2.198 0-2.747-2.212-4.67-4.7-4.67s-4.423 1.923-4.423 4.395c0 .824.275 1.65.552 2.473 1.105-.824 2.488-1.374 3.87-1.374M269.802 145.2c1.382 0 2.764.55 3.87 1.375.276-.824.552-1.374.552-2.198 0-2.747-1.935-4.67-4.422-4.67-2.49 0-4.424 1.923-4.424 4.395 0 .824 0 1.65.553 2.473 1.107-.824 2.49-1.374 3.872-1.374" fill="#005750"/><path d="M199.31 148.772c.553 1.647 1.105 3.02 2.212 4.67h-.277c-.83-1.65-1.382-3.023-1.935-4.67" fill="#3393DE"/><path d="M218.66 166.077c4.977 1.648 11.334 3.022 18.245 3.022-6.91 0-13.268-1.375-18.244-3.023m26.815-1.922c-2.21 1.373-3.317 3.844-5.53 4.67 2.213-.826 3.32-3.297 5.53-4.67m-44.23-10.714h.278v.276c0-.275 0-.275-.277-.275" fill="#FFC633"/><path d="M205.115 159.21c1.106 1.374 6.082 4.395 13.547 6.867-7.465-2.472-12.44-5.493-13.547-6.867m-3.592-5.494c1.104 1.923 2.21 3.846 3.592 5.494-1.382-1.648-2.488-3.57-3.592-5.494" fill="#FFD15C"/><path d="M195.44 127.346c0 4.12.276 10.164 2.21 16.482-1.934-6.318-2.21-12.36-2.21-16.482m12.993-5.768c-4.424.824-8.846 1.648-11.887 2.747 3.04-1.1 7.463-1.923 11.887-2.747m.276 0h-.277.276m1.106 0h-.277.276m1.934-.275c-.553 0-1.107 0-1.934.275.827-.275 1.38-.275 1.934-.275" fill="#333"/><path d="M197.65 143.828c.278 1.647.83 3.296 1.66 4.943-.83-1.646-1.382-3.295-1.66-4.942" fill="#FFF"/><path d="M211.75 121.303c-.553 0-1.106 0-1.935.275H208.435c-4.424.824-8.848 1.648-11.888 2.747-.553.275-.83.275-1.106.55v2.47c0 4.122.277 10.164 2.212 16.483.277 1.647.83 3.296 1.66 4.944.552 1.648 1.103 3.02 1.933 4.67.277 0 .277 0 .277.274 1.105 1.923 2.21 3.845 3.593 5.494 1.107 1.373 6.082 4.395 13.546 6.867 4.977 1.648 11.334 3.022 18.245 3.022h1.66v-.276h1.383c2.212-.824 3.316-3.296 5.528-4.67-7.463-4.944-14.098-10.987-19.628-17.854 0 0 0 .274-.276.274-.275-.55-.275-.824-.55-1.373-5.53-7.14-9.953-15.107-13.27-23.897" fill="#00A387"/><path d="M225.02 145.2c.275.55.275.825.552 1.375.276 0 .276-.275.276-.275-.276-.275-.553-.824-.83-1.1" fill="#3393DE"/><path d="M206.497 224.86l-6.634 3.846c0-.275.277-.55.277-.825h-.277c-5.252 4.122-16.033 4.946-28.473 4.946-11.333 0-24.05-.824-34.278-1.1-5.805-.823-11.886-1.372-17.69-1.372h-2.49c-5.252.275-10.228 1.098-14.65 2.747-12.717 4.945-15.482 18.68-18.245 32.688l11.056-9.065c2.49-5.768 6.36-10.437 12.717-12.91 4.423-1.922 9.4-2.472 14.65-2.747h2.49c6.08 0 11.885.55 17.69 1.1 10.23.55 22.945 1.373 34.28 1.373 12.162 0 23.22-.825 28.472-4.67-.277-4.946.276-9.34 1.105-14.01" fill="#FFC633"/><path d="M200.14 227.88h-.277.277z" fill="#FFD15C"/><path d="M53.352 300.948c.83.275 1.935.55 3.04.55-.828 0-1.934-.275-3.04-.55" fill="#3393DE"/><path d="M91.224 269.36l-7.74 6.318-1.106-1.375c-2.21 9.615-5.53 18.13-13.27 23.074-1.935 1.374-4.975 2.746-8.292 3.57v.275h-.83c-.83 0-1.657.275-2.487.275H56.392c-1.106 0-2.21-.275-3.04-.55-1.66-.274-3.04-.55-4.147-.55-.553 0-.83 0-.83.276-.276.824 4.423 11.536 14.65 11.536 3.32 0 7.188-1.1 11.612-4.12 11.886-7.417 13.27-24.172 16.586-38.73" fill="#FFC633"/><path fill="#FFF" d="M100.07 261.668l-3.04-3.846 2.21-2.197 3.318 3.846"/><path fill="#00188E" d="M83.484 275.677l-4.7-5.494L96.2 255.9l4.7 5.493"/><path fill="#00A387" d="M96.2 255.9l-1.106.824-11.058 9.064-5.252 4.395 4.7 5.494 17.415-14.284-.278-.275-3.316-3.845"/><path fill="#FFF" d="M13.822 330.614l-1.66-1.922 4.977-7.142 4.698 5.493"/><path fill="#008171" d="M11.057 331.713l-.553-.275 1.935-2.472 1.105 1.373"/><path fill="#FFF" d="M70.49 277.326l-1.38-1.648 23.772-20.054 1.383 1.65"/><path fill="#008171" d="M21.838 327.044l-4.7-5.494 61.645-51.368 4.7 5.496"/><path d="M40.36 292.708c4.975-5.494 14.65-6.868 14.927-2.198.277 3.297-4.146 3.022-5.528 4.395-.554.55-2.766 2.197-5.254 3.846-.277 0-.83 0-1.106-.274-1.38-.825-1.38-4.944-3.04-5.768" fill="#FFB800"/><path d="M278.924 44.666c-.277.274-.277.274-.554.274-1.658.55-2.487 2.197-1.935 3.846.277 1.373 1.66 2.197 3.042 2.197.276 0 .552 0 .83-.274 1.382-.276 2.21-1.375 2.21-2.748-1.105-1.1-2.488-2.197-3.593-3.296" fill="#E5A500"/><path d="M279.477 44.666h-.553c1.106 1.1 2.488 2.197 3.594 3.296v-1.1c-.553-1.372-1.66-2.196-3.04-2.196M266.485 39.72c-.554 0-.83 0-1.106.276-1.66.55-2.49 2.197-1.937 3.846.277 1.373 1.66 2.197 3.042 2.197.276 0 .553 0 .828-.276 1.66-.274 2.488-2.197 1.936-3.846-.278-1.372-1.66-2.197-2.765-2.197M290.534 57.85c0 .275 0 .824.276 1.1.277 1.098 1.106 1.648 1.936 1.922-.83-.824-1.382-1.923-2.212-3.022" fill="#E5A500"/><path d="M293.85 55.103h-1.103c-1.107.275-1.937 1.374-2.212 2.747.83 1.1 1.382 2.198 2.212 3.023.274.273.55.273 1.104.273h.83c1.66-.548 2.488-2.472 2.213-4.12-.554-1.098-1.66-1.923-3.042-1.923M280.86 57.3c-.278 0-.554 0-.83.275-1.66.275-2.487 2.198-1.936 3.847.276 1.373 1.66 2.197 2.765 2.197.275 0 .83 0 1.104-.276 1.66-.55 2.49-2.197 1.936-3.845-.276-1.374-1.66-2.2-3.04-2.2" fill="#E5A500"/><path d="M251.004 377.586v1.922l-1.935-.275v-1.647h1.934zm0-.275v-1.647l-1.935.275v1.373h1.934zm.277.276v1.922l2.49.275v-2.197h-2.49zm2.49-.275v-2.196l-2.49.55v1.647h2.49z" fill="#737373"/><path d="M307.12 377.586c.83-3.297 5.805-9.065-.276-9.614-7.463-.275-11.333 7.69-9.675 15.107h10.78c-1.106-1.374-1.382-3.297-.83-5.494M195.717 377.586c-.83-3.297-5.806-9.065.276-9.614 7.464-.275 11.333 7.69 9.676 15.107h-10.783c.83-1.374 1.383-3.297.83-5.494" fill="#FFB800"/></g></svg>