<svg width="432" height="327" viewBox="0 0 432 327" xmlns="http://www.w3.org/2000/svg" xmlns:xlink="http://www.w3.org/1999/xlink"><defs><path id="a" d="M143.26 142.914V.586H.76v142.328z"/></defs><g fill="none" fill-rule="evenodd"><rect fill="#0075DA" opacity=".651" y="312" width="432" height="15" rx="7.5"/><path d="M271.7 144.812c0-2.294-1.314-4.585-3.612-5.567h-.33l-11.162-5.567-5.912 12.442 6.896 3.604v.982c0 1.636.985 2.946 2.627 2.946.985 0 1.97-.655 2.298-1.64 1.643.656 3.283.656 4.596 0 .66.985 1.315 1.64 2.302 1.64 1.64 0 2.956-1.31 2.956-2.946l-.658-5.894zM332.996 52.004c0 .984-.985 1.965-1.972 1.965-.984 0-1.642-.982-1.642-1.966s.658-1.965 1.642-1.965c1.314.325 1.972.98 1.972 1.964" fill="#FFC18F"/><path d="M331.026 50.04l-.985 3.274c.328.33.657.655.986.655.984 0 1.97-.982 1.97-1.966 0-.982-.657-1.637-1.97-1.965" fill="#EBAF8A"/><path d="M315.592 67.72c1.314-2.292 3.94-5.238 4.6-9.822.328-4.583 2.297-6.222-3.286-6.877-3.612 6.878-5.254 11.133-6.568 15.063 1.643.984 3.283 1.637 5.254 1.637" fill="#FFC18F"/><path d="M316.906 51.02c-3.612 6.878-5.254 11.133-6.568 15.063.985.655 1.972.984 3.283 1.308l5.913-15.714c-.656-.326-1.314-.326-2.627-.655" fill="#EBAF8A"/><path d="M330.04 59.535c0 .984-.985 1.637-1.97 1.637-.986-.327-1.642-1.308-1.642-2.292.33-.983 1.314-1.64 2.298-1.31.985 0 1.643.982 1.314 1.965M328.726 63.464c-.33.984-1.313 1.64-2.298 1.31-.984 0-1.642-.98-1.313-1.965 0-.985.984-1.64 1.97-1.64.986.33 1.64 1.31 1.64 2.294M326.428 67.067c0 .98-.984 1.636-1.97 1.636-.986-.328-1.64-1.31-1.64-2.29.326-.985 1.312-1.64 2.297-1.31.984 0 1.642.98 1.313 1.964" fill="#FFC18F"/><path d="M328.4 57.57l-.986 3.275s.327 0 .656.327h.33c.656 0 1.64-.653 1.64-1.637v-.326c0-.985-.328-1.64-1.312-1.64h-.33M327.085 61.17l-1.313 3.605H326.757c.986 0 1.642-.33 1.97-1.31v-.33c0-.98-.657-1.635-1.642-1.964M325.444 65.102l-.985 3.6h.326c.658 0 1.642-.654 1.642-1.635v-.327c0-.655-.326-1.31-.984-1.638" fill="#EBAF8A"/><path fill="#FFF" d="M332.996 15.004l-22.985 62.54 9.85 3.6 22.986-62.538M336.28 36.286l-16.42 44.86 16.42-44.86zm6.566-17.68l-3.61 9.824 3.61-9.824z"/><path fill="#5C005C" d="M317.563 29.082l18.715 7.204 2.956-7.857-18.715-6.878 1.64 4.912"/><path fill="#E5E5E5" d="M332.996 15.004l-3.614 9.822 1.97.655 3.615-9.82"/><path fill="#E57D00" d="M310.01 77.544l1.643.655"/><path fill="#E5E5E5" d="M326.428 32.685l-16.417 44.86 1.643.655L328.4 33.34"/><path fill="#530053" d="M329.383 24.826l-2.956 7.86 1.972.654 2.955-7.86"/><path d="M225.952 170.534c-4.27-3.6-41.37-33.4-41.37-33.4l-1.644 36.02 13.464 3.602-16.42 36.675 16.42 8.84 26.265-36.674s7.555-11.786 3.285-15.062" fill="#5C005C"/><path d="M175.714 222.597l4.27 6.548c4.27 2.294 7.552.33 8.536-.98.658-.985 1.643-1.31 2.627-.656.33 0 .658.325.658.654 0 0 .327 0 .327.326l4.27-6.222-16.418-8.837-4.27 9.496v-.33" fill="#FFC18F"/><path d="M190.163 227.18c.327 0 .656 0 .985.328-.33-.33-.658-.33-.985-.33" fill="#FFA233"/><path d="M219.057 190.508h-3.612l-21.67 30.45 2.626 1.31 22.657-31.76M204.61 153.18c-.657 1.64-1.642 2.95-2.3 4.258 8.537 6.875 16.747 13.423 18.39 14.733 2.955 2.295.657 7.862-1.314 11.79h4.27c1.313-2.294 3.61-6.877 3.61-10.15 0-1.64-.328-2.62-1.313-3.275-1.97-1.963-11.82-9.495-21.344-17.354" fill="#7D337D"/><path d="M193.775 220.96l-2.3 3.275-2.628 3.6c.33-.327.987-.654 1.314-.654.33 0 .66 0 .988.328.326 0 .655.328.655.655 0 0 .33 0 .33.328l4.27-6.22-2.628-1.31" fill="#FFCDA5"/><path d="M205.266 245.19c-2.298-2.948-13.46-17.026-13.46-17.026 0-.328-.33-.655-.66-.655-.984-.658-1.968-.33-2.626.654-.985 1.31-4.268 3.276-8.537.982l-4.27-6.55-6.238 12.117s-1.64 2.29.987 3.6l30.535 16.045s1.642 1.31 2.956-.982l1.97-3.928s1.315-1.31-.657-4.26" fill="#D1D1D1"/><path d="M151.09 174.793c0 5.893-4.6 10.476-10.18 10.476-5.912 0-10.508-4.584-10.508-10.477 0-5.57 4.596-10.153 10.508-10.153 5.58 0 10.18 4.583 10.18 10.153" fill="#FFF"/><path d="M200.657 272.39c1.61.404 3.224-.807 4.03-2.42l13.762-34.373c.805-2.017-.41-4.434-2.435-5.274-2.007-1.21-4.427 0-5.233 2.05l-13.786 34.372c-.807 2.418.394 4.435 2.417 5.646h1.244z" fill="#6D6F70"/><path d="M203.485 236.807h19.83c2.43 0 4.043-2.017 4.043-4.437 0-2.05-1.613-4.063-4.044-4.063h-19.83c-2.02 0-4.072 2.014-4.072 4.063 0 2.42 2.052 4.437 4.073 4.437" fill="#6D6F70"/><g transform="translate(256.552 179.204)"><mask id="b" fill="#fff"><use xlink:href="#a"/></mask><path d="M.76 71.75C.76 32.534 32.737.585 72.01.585c39.276 0 71.252 31.95 71.252 71.163 0 39.244-31.976 71.164-71.25 71.164C32.736 142.914.76 110.994.76 71.75m10.932 0c0 33.162 27.14 59.84 60.32 59.84 33.19 0 59.922-26.678 59.922-59.84 0-33.166-26.732-60.25-59.923-60.25-33.18 0-60.318 27.084-60.318 60.25" fill="#262729" mask="url(#b)"/></g><path d="M29 250.953c0-39.214 31.574-71.163 70.848-71.163s71.25 31.95 71.25 71.163c0 39.245-31.976 71.165-71.25 71.165S29 290.198 29 250.953m10.93 0c0 33.163 26.697 59.842 59.918 59.842 33.19 0 60.324-26.68 60.324-59.842 0-33.165-27.135-60.248-60.324-60.248-33.22 0-59.918 27.083-59.918 60.248" fill="#262729"/><path d="M328.564 243.694h-2.01c-6.49-5.274-17.422-16.194-22.26-26.71-2.87-7.26-9.717-26.278-15.81-44.46l-4.442-12.126c-4.057-12.127-7.694-22.64-8.91-26.313l4.853-10.91c.804-1.626.394-3.238-.807-4.44l-8.924-8.903c-.807-.803-1.613-1.215-2.814-1.215h-26.732c-2.02 0-4.044 2.023-4.044 4.07 0 2.417 2.023 4.436 4.044 4.436h25.12l5.246 5.248-4.044 9.707c-.397 1.202-.807 2.008-.397 3.224.397.834 3.62 10.516 8.102 23.448H171.51l-2.05-7.253c-.41-2.02-2.83-3.224-4.85-2.827-2.42.808-3.63 3.223-2.824 5.245l2.422 8.097-63.553 81.684h-.806c-4.07 0-7.296 3.226-7.296 7.26 0 .803.4 1.61.4 2.015l.406.807c1.21 2.45 3.63 4.466 6.49 4.466 2.015 0 4.034-.806 5.244-2.017l96.37 17.777 81.772-91.4c5.247 15.797 10.93 31.154 13.76 37.64 5.248 12.128 17.41 23.854 24.27 29.903v.808c0 4.063 3.265 7.29 7.298 7.29 4.044 0 7.297-3.227 7.297-7.29 0-4.034-3.252-7.26-7.296-7.26zm-221.05 4.437l59.512-76.41 27.14 92.57-86.653-16.16zm94.36 13.34l-27.947-94.627H277.55c.822 2.43 1.628 4.876 2.435 6.897l-78.112 87.73z" fill="#FCD116"/><path d="M182.837 269.568c0 9.71 7.694 17.372 16.972 17.372 9.73 0 17.422-7.663 17.422-17.372 0-9.308-7.692-17.004-17.423-17.004-9.28 0-16.973 7.696-16.973 17.004" fill="#A7A7A7"/><path d="M188.48 302.327c1.655 0 3.268-.805 4.072-2.45l11.74-31.923c1.2-2.015 0-4.47-2.023-5.275-2.05-.81-4.47.402-5.275 2.42l-12.148 31.55c-.807 2.015.408 4.433 2.43 5.275.397.402.807.402 1.204.402" fill="#A7A7A7"/><path d="M260.947 112.686c0 2.418-1.613 4.44-4.03 4.44H240.3c-2.42 0-4.032-2.022-4.032-4.44 0-2.046 1.613-4.07 4.03-4.07h16.62c2.416 0 4.03 2.024 4.03 4.07" fill="#262729"/><path d="M294.577 121.96c-6.9 0-12.544 5.27-12.544 12.125 0 6.895 5.643 12.138 12.544 12.138V121.96zM176.743 301.52l19.035 4.032c2.418.406 4.44-1.208 4.878-3.225.41-2.45-.847-4.47-3.264-4.872l-19.023-4.03c-2.434-.404-4.443 1.207-4.853 3.224-.395 2.417.806 4.434 3.226 4.87" fill="#A7A7A7"/><path d="M172.87 269.35c-.657 0-1.313.33-1.642.984-.33.982 0 1.966.985 2.62l22 11.46c.985.327 1.972 0 2.627-.983.33-.654 0-1.964-.984-2.293l-22-11.458c-.328-.33-.656-.33-.985-.33" fill="#505050"/><path d="M197.168 157.37l-37.76-3.603 17.73 48.788-5.908 37.982 17.073 2.946s13.464-45.838 13.79-47.148c0-1.31-4.925-38.966-4.925-38.966" fill="#5C005C"/><path d="M173.2 255.27c4.27 2.294 7.552.33 8.536-.98h.33c.328-.982 1.64-1.31 2.626-.656l.656.655 2.956-10.806-17.076-2.947-1.313 9.167 3.285 5.566" fill="#FFC18F"/><path d="M198.482 271.316c-1.97-2.95-13.135-17.025-13.135-17.025-.327-.328-.656-.654-.656-.654-.983-.657-2.297-.33-2.626.655h-.33c-.983 1.31-4.266 3.274-8.535.98l-3.942-6.548-6.238 12.117s-1.643 2.29.984 3.6l30.537 16.044s1.644 1.308 2.957-.98l1.97-3.93s1.315-1.31-.985-4.258" fill="#FFF"/><path fill="#FFA233" d="M185.02 242.828l3.283.655"/><path fill="#737373" d="M184.69 242.828h.33"/><path d="M197.497 160.97c-1.97.655-4.27.655-6.238.983 1.31 10.15 4.595 33.397 4.266 34.38 0 1.31-9.52 40.93-10.835 46.494h.33l3.283.656s13.464-45.84 13.79-47.15c0-.654-.326-2.948-.655-6.547-.656-4.584-1.643-11.134-2.298-17.03-.33-2.29-.658-4.583-.985-6.546 0-1.965-.33-3.602-.658-5.24" fill="#7D337D"/><path d="M184.69 242.828v.655l-3.284 10.807v.327l.33-.327h.328v-.328c.33-.327.985-.655 1.643-.655.326 0 .655 0 .984.328l.66.655 2.953-10.807-3.283-.655h-.33" fill="#FFCDA5"/><path d="M181.736 254.29l-.33.33.33-.33m2.956-.655s.33.326.656.655c-.327-.33-.656-.655-.656-.655m-.985-.33c-.657 0-1.313.33-1.642.656.33-.325.985-.654 1.642-.654" fill="#FFF"/><path fill="#FFC18F" d="M306.838 48.333l28.568-17.354-6.897 19.318-16.418 11.787"/><path fill="#FFF" d="M246.422 144.6l4.925 1.964 6.567-14.08-5.254-2.292"/><path fill="#000" d="M323.585 58.157l-10.18-16.372-33.492 17.68-62.06-.655 15.105 28.816 52.866-7.532"/><path fill="#FFA233" d="M313.405 41.784l-33.493 17.68 33.493-17.68 1.314 1.965"/><path fill="#FFCDA5" d="M314.72 43.75l3.284 5.566"/><path d="M244.452 66.996c-.33.33-.33.984-.658 1.31h2.63c-.66-.326-1.315-.98-1.972-1.31m-19.374-7.858c0 .326.33.655.33 1.31l.984-1.31h-1.314m88.326-17.353l-33.49 17.68H260.54l-4.267 8.842 22.327.328 39.403-19.318-3.285-5.567-1.314-1.965" fill="#333"/><path d="M313.405 64.05l-27.58 16.044-28.24 3.928 28.24-3.928 27.58-16.043zm8.21-8.84l1.97 2.947-1.97-2.948z" fill="#EB7F08"/><path fill="#EBAF8A" d="M320.958 54.226l.658.984"/><path d="M320.958 54.226c-.33.33-37.105 21.94-37.105 21.94l-25.94 1.31c-.657.98-2.955 3.928-5.582 7.2l5.255-.654 28.24-3.93 27.58-16.042 10.18-5.893-1.97-2.947-.657-.984" fill="#050208"/><path d="M258.242 76.82l-29.552-9.823s-4.596-2.618-3.94-17.027c-48.595 20.302-54.834 67.78-56.476 76.948-1.643 9.166-11.822 15.715-11.822 22.265 0 6.55 24.3 19.645 53.193 8.514 4.928-3.928 24.954-42.24 28.895-51.408 3.612-8.843 19.702-29.47 19.702-29.47" fill="#000"/><path d="M223.11 64.05c2.626 10.477 18.06 13.097 18.06 13.097L223.436 64.38l-.328-.33z" fill="#FFF"/><path d="M223.11 64.05l10.506-16.7s23.97 5.238 17.074 10.807c-6.894 5.24-9.52 18.99-9.52 18.99s-6.898 8.514-10.838 5.567c-4.268-2.95-7.552-17.682-7.552-17.682l.33-.98" fill="#FFC18F"/><path fill="#000" d="M221.138 111.2l-23.314-37-16.744 23.248 25.94 29.798 39.072 19.318 8.21-17.355"/><path fill="#333" d="M221.138 111.2l11.822 6.222"/><path d="M254.302 129.21l-.658 1.31.658-1.31z" fill="#FFA233"/><path d="M253.645 130.52l-2.956 6.876 2.955-6.877z" fill="#FFF"/><path d="M197.825 74.2l-3.61 4.912-2.3 3.275 20.688 32.416 38.086 22.592 2.955-6.875.656-1.31-21.342-11.79-11.82-6.22c0-.328-13.79-21.61-23.313-37" fill="#333"/><path d="M247.08 144.6l-.986 1.964.985-1.965z" fill="#EB7F08"/><path d="M248.063 142.306l-.984 2.294.983-2.294z" fill="#EBE7EE"/><path d="M186.005 90.9l-1.972 2.948-2.953 3.6 25.938 29.796 39.074 19.32.987-1.966.983-2.292c-.33 0-38.744-18.992-38.744-18.992L186.004 90.9" fill="#050208"/><path d="M263.496 57.83c1.314.328 2.298.328 2.627-.984l.33-9.824c0-.655.326-1.634.326-2.618 0 0 3.284-9.497 4.268-17.027L236.57 23.45s-9.194 16.697-3.61 30.775c1.64 3.604 5.58 10.806 18.057 16.046 3.614 1.964 3.94.33 4.925-1.635l5.254-10.477c0-.657.658-.984 1.316-.984l.984.655" fill="#FFC18F"/><path d="M233.288 54.554c0 .655.33 1.31.33 1.965.983 1.638 2.626 3.6 4.266 5.566 0-.33-.327-.655-.327-.984-2.3-2.29-3.614-4.91-4.27-6.548" fill="#E5AD80"/><path d="M233.616 43.422c-.658 3.6-.985 7.532-.33 11.13.66 1.64 1.972 4.258 4.27 6.55 0-.327-.33-.655-.33-.982-2.297-4.912-1.968-10.805 0-16.043h-1.968c-.658 0-.985-.327-1.642-.655" fill="#E5AD80"/><path d="M231.318 15.59c-2.3 1.964-4.27 4.258-5.912 6.876-4.925 7.53-3.612 13.752-1.314 22.265.658 3.274-6.238 8.84-5.91 9.496 0 .655 4.597 2.294 15.434 2.294-3.283-12.444 4.598-28.16 9.194-22.267.33.655 1.642 1.638 1.642 1.638L272.36 33.6s.987-16.7-14.446-21.282c-15.433-4.585-26.596 3.273-26.596 3.273" fill="#9D6853"/><path d="M240.84 39.493c.983-1.638 1.64-2.62 2.626-3.93-.656-2.294-2.627-4.583-5.254-4.912-3.612-.98-7.552 1.31-8.208 5.24-.658 3.603 1.64 7.53 5.252 8.187 1.313.328 2.627.328 3.614-.327.655-1.31 1.313-2.95 1.97-4.257" fill="#FFC18F"/><path d="M234.93 32.29c-.985.328-1.972 1.307-2.3 2.29-1.312 2.293-.657 5.24 1.97 6.55l3.94-7.533c-1.313-.326-2.297-.98-3.61-1.307" fill="#E5AD80"/><path d="M257.913 47.023c0-.33.33-.33.33-.656.328-1.307 0-2.618-1.314-2.946-1.315-.654-2.628 0-2.957 1.31-.33.33-.33.656-.33.985 1.315 0 2.957.324 4.27 1.308" fill="#754C28"/><path d="M344.27 27.376c-4.924 2.62-8.865 3.604-8.865 3.604l-13.464 8.514s.988 13.094 5.913 11.13c5.252-1.964 8.866-14.08 8.866-14.08s1.64-1.636 3.28-1.964c4.93-.655 6.242-5.565 4.27-7.204" fill="#FFC18F"/><path d="M240.84 31.634s-2.628 8.84-.33 8.512c2.3-.653 1.642-4.255 5.256-3.6 14.446 10.803 24.297 6.875 24.297 6.875s3.94-2.62 2.298-9.823M234.272 54.226c0 6.55-5.254 11.787-11.82 11.787-6.24 0-11.494-5.238-11.494-11.787 0-6.222 5.254-11.46 11.493-11.46 6.568 0 11.822 5.238 11.822 11.46" fill="#9D6853"/><path d="M215.556 57.174c0-6.548 5.254-11.786 11.822-11.786h.656c-1.64-7.206-2.298-13.1 1.97-20.303 1.64-2.29 3.612-4.585 5.91-6.877 0 0 11.164-7.53 26.597-2.946.986.326 1.97.326 2.628.98-1.97-1.635-4.27-2.943-7.225-3.927-15.43-4.585-26.595 3.273-26.595 3.273-2.298 1.965-4.27 4.26-5.91 6.877-4.598 6.877-3.613 12.77-1.97 20.303h-.985c-6.24 0-11.495 5.238-11.495 11.457 0 5.24 3.285 9.826 7.883 11.134-1.97-1.964-3.284-4.913-3.284-8.186" fill="#81513C"/><path d="M255.615 64.05c-3.285-1.638-4.925-5.893-4.925-5.893-.33-.328 0-.983.327-.983.33 0 .658 0 .658.328 0 0 1.642 3.928 4.27 5.24.328.325.655.654.328.98 0 0-.33.33-.658.33" fill="#754C28"/><path d="M296.33 21.155L262.183 3.802c-3.282-2.294-9.194-3.93-13.46-3.273L210.3.2c-5.91-.655-6.238.33-.657 2.618l16.748 8.516-3.613 15.06s6.24 5.24 24.298 9.497c18.387 4.584 26.268 2.947 26.268 2.947l3.61-15.062h18.717c6.24.655 6.57-.326.658-2.62" fill="#000"/><path fill="#FFA233" d="M291.077 23.776h4.598"/><path d="M250.36.2c-.328 0-.983 0-1.64.33h-8.21c3.942 0 8.21 1.634 11.165 3.273l37.104 18.99c.984.328 1.64.655 2.297.983h4.596c1.314.327 2.298.327 2.956.327 1.313 0 1.968-.327 1.968-.655 0-.327-1.313-1.31-4.267-2.292L262.184 3.803C259.227 1.837 254.303.2 250.36.2" fill="#333"/><path d="M197.168 14.28c-.328 0-.328-.328-.657-.328-.984-.326-1.64-.326-2.624.327-1.643 1.31-3.614 2.62-5.254 3.603-.33.326-.33.326-.33.655.657 2.618 2.3 4.583 4.268 6.22.33.328.33.328.658 0 1.97-.982 3.612-2.292 5.254-3.602.985-.655 1.642-1.308 1.313-2.618v-.33c.658 0 1.314 0 1.972-.325 1.313-.655 1.97-1.965 1.64-3.604 0-.328 0-.328.33-.654 1.64-1.31 11.163-7.532 12.805-8.842.33-.327.33-.327.33-.655-.33-.328-.33-.656-.66-1.31l-.328.327c-1.97 1.31-11.49 7.86-13.133 9.17h-.656c-1.97-1.31-4.268 0-4.926 1.962" fill="#000"/></g></svg>