<svg width="313" height="720" viewBox="0 0 313 720" xmlns="http://www.w3.org/2000/svg" xmlns:xlink="http://www.w3.org/1999/xlink"><defs><path id="a" d="M.067 762.89h569.236V.57H.067z"/></defs><g transform="translate(0 -1)" fill="none" fill-rule="evenodd"><path d="M270.34 385.725c0 .782-.807.782-1.598.782-.792 0-1.584 0-1.584-.782 0-1.592.792-1.592 1.584-1.592.79 0 1.6 0 1.6 1.592zM276.686 385.725c0 .782-.808.782-1.587.782-.805 0-1.59 0-1.59-.782 0-1.592.785-1.592 1.59-1.592.778 0 1.586 0 1.586 1.592M283.892 385.725c0 .782-.78.782-1.587.782-.86 0-1.64 0-1.64-.782 0-1.592.78-1.592 1.64-1.592.807 0 1.587 0 1.587 1.592M291.044 385.725c0 .782-.808.782-1.587.782-.804 0-1.588 0-1.588-.782 0-1.592.783-1.592 1.587-1.592.78 0 1.587 0 1.587 1.592M297.47 385.725c0 .782-.86.782-1.666.782-.808 0-1.587 0-1.587-.782 0-1.592.78-1.592 1.587-1.592.807 0 1.666 0 1.666 1.592M304.595 385.725c0 .782-.78.782-1.587.782-.78 0-1.587 0-1.587-.782 0-1.592.808-1.592 1.588-1.592.808 0 1.587 0 1.587 1.592" fill="#DCDCDC"/><mask id="b" fill="#fff"><use xlink:href="#a"/></mask><path fill="#32135A" mask="url(#b)" d="M57.428 391.282h451.28v-12.747H57.43"/><path d="M562.18 410.49v345.164c0 4.845-3.255 8.033-8.013 8.033H15.15c-3.967 0-7.937-3.188-7.937-8.033V410.49c0-3.99 3.97-7.986 7.936-7.986H52.66c4.766-.782 8.736-5.555 8.736-11.222v-3.184h444.13v3.184c0 5.667 3.17 10.44 8.736 11.222h39.903c4.758 0 8.012 3.995 8.012 7.986" fill="#32135A" mask="url(#b)"/><path fill="#000" mask="url(#b)" d="M57.428 392.954h451.28V390.5H57.43M557.34 508.786c0-1.592-.81-2.39-2.392-2.39v-31.188c1.583 0 2.39-.81 2.39-2.403 0-1.588-.807-2.398-2.39-2.398v-16.782h-53.374c0-1.592-.808-2.398-2.446-2.398-1.615 0-2.395.806-2.395 2.398h-31.11c0-1.592-.78-2.398-2.362-2.398-1.586 0-2.394.806-2.394 2.398h-31.08c0-1.592-.808-2.398-2.395-2.398s-2.366.806-2.366 2.398h-31.11c0-1.592-.78-2.398-2.362-2.398-1.67 0-2.45.806-2.45 2.398h-31.11c0-1.592-.802-2.398-2.39-2.398-1.587 0-2.367.806-2.367 2.398h-30.3c0-1.592-1.588-2.398-3.175-2.398-1.588 0-2.39.806-2.39 2.398h-30.306c0-1.592-1.587-2.398-2.367-2.398-1.584 0-3.25.806-3.25 2.398h-30.234c0-1.592-1.658-2.398-3.242-2.398-.794 0-2.382.806-2.382 2.398h-30.3c0-1.592-1.588-2.398-2.383-2.398-1.588 0-3.18.806-3.18 2.398H179.43c0-1.592-1.592-2.398-2.384-2.398-1.587 0-3.175.806-3.175 2.398h-30.304c0-1.592-.79-2.398-2.446-2.398-1.587 0-3.174.806-3.174 2.398h-30.302c0-1.592-.795-2.398-2.382-2.398-1.588 0-3.175.806-3.175 2.398h.792H71.78c0-1.592-.792-2.398-2.38-2.398-1.586 0-2.382.806-2.382 2.398H22.362v16.782c-1.587 0-2.383.81-2.383 2.398 0 1.592.795 2.403 2.382 2.403v31.187c-1.587 0-2.383.8-2.383 2.39 0 .795.795 1.597 2.382 1.597v31.13c-1.587 0-2.383 1.595-2.383 2.453 0 1.596.795 2.39 2.382 2.39v31.137c-1.587 0-2.383 1.592-2.383 2.386 0 1.597.795 2.39 2.382 2.39v31.2c-1.587 0-2.383 1.593-2.383 2.39 0 1.593.795 2.392 2.382 2.392v27.943H70.2c0 1.597 1.582 2.39 3.173 2.39 1.588 0 2.383-.793 2.383-2.39h31.888c0 1.597.792 2.39 2.383 2.39 1.65 0 2.447-.793 2.447-2.39h31.888c0 1.597.796 2.39 2.383 2.39s2.38-.793 2.38-2.39H358.8c0 1.597.86 2.39 2.447 2.39 1.587 0 2.367-.793 2.367-2.39h31.888c0 1.597.808 2.39 2.395 2.39 1.584 0 2.363-.793 2.363-2.39h32.696c0 1.597.78 2.39 2.367 2.39.808 0 2.474-.793 2.474-2.39h31.89c0 1.597.778 2.39 2.366 2.39 1.587 0 2.39-.793 2.39-2.39h31.89c0 1.597 1.586 2.39 2.366 2.39 1.586 0 2.394-.793 2.394-2.39h43.854V618.25c1.583 0 2.39-.8 2.39-2.39 0-.8-.807-2.39-2.39-2.39v-31.2c1.583 0 2.39-.795 2.39-2.392 0-.794-.807-2.386-2.39-2.386v-31.137c1.583 0 2.39-.794 2.39-2.39 0-.858-.807-2.454-2.39-2.454v-31.128c1.583 0 2.39-.802 2.39-1.596M547.014 428.08H23.156c-3.174 0-5.557-3.21-5.557-6.394v-4.777c0-3.238 2.382-5.636 5.556-5.636h523.858c3.175 0 5.565 2.398 5.565 5.635v4.776c0 3.184-2.39 6.393-5.566 6.393M317.367 738.13H191.4c-4.037 0-6.416-3.252-6.416-7.235v-55.89c0-4.052 2.38-7.24 6.417-7.24h125.967c3.17 0 6.345 3.188 6.345 7.24v55.89c0 3.983-3.174 7.235-6.345 7.235zM191.4 670.155c-2.378 0-4.037 2.458-4.037 4.85v55.89c0 2.39 1.66 3.983 4.038 3.983h125.967c2.395 0 3.978-1.592 3.978-3.983v-55.89c0-2.392-1.583-4.85-3.978-4.85H191.4z"/><path d="M232.026 500.82c0 3.185-2.383 5.575-5.558 5.575h-19.914c-2.383 0-4.83-2.39-4.83-5.575v-19.974c0-3.264 2.447-5.64 4.83-5.64h19.914c3.175 0 5.558 2.376 5.558 5.64v19.974zm35.925-19.974c0-3.264-2.45-5.64-5.623-5.64h-19.123c-3.175 0-5.558 2.376-5.558 5.64v19.974c0 3.185 2.383 5.575 5.558 5.575h19.123c3.174 0 5.624-2.39 5.624-5.575v-19.974zm35.864 0c0-3.264-2.39-5.64-4.758-5.64H279.05c-3.17 0-5.537 2.376-5.537 5.64v19.974c0 3.185 2.367 5.575 5.538 5.575h20.006c2.367 0 4.758-2.39 4.758-5.575v-19.974zm35.063 0c0-3.264-2.39-5.64-4.758-5.64h-19.927c-3.25 0-5.617 2.376-5.617 5.64v19.974c0 3.185 2.367 5.575 5.617 5.575h19.926c2.366 0 4.757-2.39 4.757-5.575v-19.974zm36.73 0c0-3.264-2.475-5.64-5.65-5.64h-19.894c-3.174 0-5.565 2.376-5.565 5.64v19.974c0 3.185 2.39 5.575 5.565 5.575h19.895c3.174 0 5.648-2.39 5.648-5.575v-19.974zm35.838 0c0-3.264-2.363-5.64-5.617-5.64h-19.926c-2.363 0-4.758 2.376-4.758 5.64v19.974c0 3.185 2.395 5.575 4.758 5.575h19.926c3.254 0 5.617-2.39 5.617-5.575v-19.974zm32.696 0c0-3.264-2.39-5.64-5.565-5.64H422.63c-3.252 0-5.616 2.376-5.616 5.64v19.974c0 3.185 2.363 5.575 5.617 5.575h15.945c3.175 0 5.566-2.39 5.566-5.575v-19.974zm32.67 0c0-3.264-2.364-5.64-5.54-5.64h-16.75c-2.447 0-4.837 2.376-4.837 5.64v19.974c0 3.185 2.39 5.575 4.837 5.575h16.75c3.176 0 5.54-2.39 5.54-5.575v-19.974zm25.546 35.11c0-3.188-2.367-5.574-4.84-5.574h-21.487c-3.17 0-5.566 2.386-5.566 5.575v20.776c0 2.387 2.395 4.777 5.565 4.777h21.485c2.474 0 4.84-2.39 4.84-4.777v-20.776zm-35.926 0c0-3.188-2.39-5.574-5.565-5.574h-20.702c-3.226 0-5.62 2.386-5.62 5.575v20.776c0 2.387 2.394 4.777 5.62 4.777h20.702c3.174 0 5.565-2.39 5.565-4.777v-20.776zm-36.646 0c0-3.188-2.39-5.574-5.565-5.574h-21.566c-2.39 0-4.758 2.386-4.758 5.575v20.776c0 2.387 2.367 4.777 4.758 4.777h21.565c3.173 0 5.564-2.39 5.564-4.777v-20.776zm-37.454 0c0-3.188-2.446-5.574-5.62-5.574H365.2c-2.367 0-4.758 2.386-4.758 5.575v20.776c0 2.387 2.39 4.777 4.758 4.777h21.51c3.174 0 5.62-2.39 5.62-4.777v-20.776zm-37.51 0c0-3.188-2.39-5.574-4.757-5.574h-21.51c-3.253 0-5.62 2.386-5.62 5.575v20.776c0 2.387 2.367 4.777 5.62 4.777h21.51c2.367 0 4.758-2.39 4.758-4.777v-20.776zm-36.645 0c0-3.188-2.395-5.574-4.762-5.574h-21.59c-3.173 0-5.537 2.386-5.537 5.575v20.776c0 2.387 2.364 4.777 5.538 4.777h21.59c2.366 0 4.76-2.39 4.76-4.777v-20.776zm-36.73 0c0-3.188-2.394-5.574-5.565-5.574h-20.698c-3.175 0-5.625 2.386-5.625 5.575v20.776c0 2.387 2.45 4.777 5.625 4.777h20.698c3.17 0 5.565-2.39 5.565-4.777v-20.776zm-37.445 0c0-3.188-2.38-5.574-5.558-5.574H217.67c-3.176 0-5.56 2.386-5.56 5.575v20.776c0 2.387 2.384 4.777 5.56 4.777h20.772c3.18 0 5.558-2.39 5.558-4.777v-20.776zm-35.86 0c0-3.188-2.382-5.574-5.624-5.574h-21.5c-2.384 0-4.763 2.386-4.763 5.575v20.776c0 2.387 2.38 4.777 4.762 4.777h21.5c3.243 0 5.626-2.39 5.626-4.777v-20.776zm-37.512 0c0-3.188-2.383-5.574-4.766-5.574H144.36c-3.238 0-5.62 2.386-5.62 5.575v20.776c0 2.387 2.382 4.777 5.62 4.777h21.502c2.383 0 4.766-2.39 4.766-4.777v-20.776zm-36.654 0c0-3.188-2.383-5.574-5.558-5.574h-20.773c-3.175 0-5.558 2.386-5.558 5.575v20.776c0 2.387 2.383 4.777 5.558 4.777h20.773c3.175 0 5.558-2.39 5.558-4.777v-20.776zm-36.654 0c0-3.188-2.38-5.574-5.62-5.574H70.99c-3.176 0-5.56 2.386-5.56 5.575v20.776c0 2.387 2.384 4.777 5.56 4.777H91.7c3.24 0 5.62-2.39 5.62-4.777v-20.776zm6.353 35.978c0-3.19-2.38-5.58-4.762-5.58H77.343c-3.175 0-5.558 2.39-5.558 5.58v20.776c0 2.39 2.383 4.78 5.558 4.78h21.57c2.382 0 4.76-2.39 4.76-4.78v-20.776zm36.654 0c0-3.19-2.383-5.58-5.558-5.58h-20.71c-3.175 0-5.62 2.39-5.62 5.58v20.776c0 2.39 2.445 4.78 5.62 4.78h20.71c3.174 0 5.557-2.39 5.557-4.78v-20.776zm36.717 0c0-3.19-2.383-5.58-5.624-5.58h-20.706c-3.175 0-5.558 2.39-5.558 5.58v20.776c0 2.39 2.383 4.78 5.558 4.78h20.706c3.24 0 5.624-2.39 5.624-4.78v-20.776zm38.242 0c0-3.19-2.383-5.58-5.558-5.58h-21.5c-2.448 0-4.83 2.39-4.83 5.58v20.776c0 2.39 2.382 4.78 4.83 4.78h21.5c3.175 0 5.558-2.39 5.558-4.78v-20.776zm35.926 0c0-3.19-2.45-5.58-5.625-5.58h-21.502c-2.383 0-4.83 2.39-4.83 5.58v20.776c0 2.39 2.447 4.78 4.83 4.78h21.502c3.174 0 5.625-2.39 5.625-4.78v-20.776zm37.438 0c0-3.19-2.364-5.58-5.538-5.58h-20.785c-3.18 0-5.558 2.39-5.558 5.58v20.776c0 2.39 2.378 4.78 5.557 4.78h20.785c3.174 0 5.538-2.39 5.538-4.78v-20.776zm35.87 0c0-3.19-2.395-5.58-4.758-5.58H298.25c-3.255 0-5.618 2.39-5.618 5.58v20.776c0 2.39 2.363 4.78 5.617 4.78h21.512c2.363 0 4.758-2.39 4.758-4.78v-20.776zm37.51 0c0-3.19-2.368-5.58-5.622-5.58h-20.702c-3.174 0-5.57 2.39-5.57 5.58v20.776c0 2.39 2.396 4.78 5.57 4.78h20.702c3.254 0 5.62-2.39 5.62-4.78v-20.776zm37.453 0c0-3.19-2.395-5.58-5.565-5.58h-21.565c-2.395 0-5.566 2.39-5.566 5.58v20.776c0 2.39 3.17 4.78 5.566 4.78h21.565c3.17 0 5.565-2.39 5.565-4.78v-20.776zm36.646 0c0-3.19-2.392-5.58-5.566-5.58h-21.482c-2.395 0-4.84 2.39-4.84 5.58v20.776c0 2.39 2.445 4.78 4.84 4.78h21.482c3.174 0 5.565-2.39 5.565-4.78v-20.776zm36.73 0c0-3.19-2.396-5.58-5.622-5.58h-20.73c-3.175 0-5.538 2.39-5.538 5.58v20.776c0 2.39 2.363 4.78 5.538 4.78h20.73c3.226 0 5.62-2.39 5.62-4.78v-20.776zm87.652 0c0-3.19-2.395-5.58-5.566-5.58h-71.764c-2.39 0-4.786 2.39-4.786 5.58v20.776c0 2.39 2.395 4.78 4.786 4.78h71.764c3.17 0 5.566-2.39 5.566-4.78v-20.776zm0 35.977c0-3.25-2.395-5.642-5.566-5.642h-89.32c-3.174 0-5.54 2.39-5.54 5.643v20.78c0 2.388 2.366 4.778 5.54 4.778h89.32c3.17 0 5.566-2.39 5.566-4.777v-20.78zm-499.91-71.953c0-3.19-2.383-5.575-4.762-5.575h-39.1c-3.18 0-5.558 2.386-5.558 5.575v20.776c0 2.387 2.38 4.777 5.558 4.777h39.1c2.38 0 4.762-2.39 4.762-4.777v-20.776zm7.212 35.977c0-3.19-2.383-5.58-4.83-5.58H16.74c-3.18 0-5.558 2.39-5.558 5.58v20.776c0 2.39 2.38 4.78 5.558 4.78h46.245c2.446 0 4.83-2.39 4.83-4.78v-20.776zm488.72-35.977c0-3.19 3.17-5.575 0-5.575H512.68c-2.395 0-4.76 2.386-4.76 5.575v20.776c0 2.387 2.365 4.777 4.76 4.777h43.854c3.17 0 0-2.39 0-4.777v-20.776zm.803-35.11c0-3.265 3.175-5.64 0-5.64h-70.122c-3.17 0-5.644 2.375-5.644 5.64v19.973c0 3.185 2.475 5.575 5.645 5.575h70.122c3.175 0 0-2.39 0-5.575v-19.974zm-432.954 0c0-3.265-2.383-5.64-5.562-5.64H99.704c-3.175 0-5.62 2.375-5.62 5.64v19.973c0 3.185 2.445 5.575 5.62 5.575h19.118c3.18 0 5.563-2.39 5.563-5.575v-19.974zm-36.654 0c0-3.265-2.38-5.64-4.763-5.64H62.985c-3.18 0-5.557 2.375-5.557 5.64v19.973c0 3.185 2.378 5.575 5.557 5.575h19.982c2.383 0 4.762-2.39 4.762-5.575v-19.974zm14.355-35.99c0-3.18-2.382-5.583-4.765-5.583H77.342c-3.175 0-5.558 2.402-5.558 5.583v19.99c0 3.185 2.383 5.56 5.558 5.56H97.32c2.383 0 4.765-2.375 4.765-5.56v-19.99zm-35.063 0c0-3.18-2.382-5.583-5.624-5.583H13.56c-3.173 0 0 2.402 0 5.583v19.99c0 3.185-3.173 5.56 0 5.56H61.4c3.242 0 5.624-2.375 5.624-5.56v-19.99zm70.922 0c0-3.18-2.38-5.583-4.762-5.583h-19.918c-3.238 0-5.62 2.402-5.62 5.583v19.99c0 3.185 2.382 5.56 5.62 5.56h19.918c2.383 0 4.762-2.375 4.762-5.56v-19.99zm35.926 0c0-3.18-2.45-5.583-4.83-5.583h-19.914c-3.174 0-5.557 2.402-5.557 5.583v19.99c0 3.185 2.382 5.56 5.556 5.56h19.915c2.38 0 4.83-2.375 4.83-5.56v-19.99zm35.858 0c0-3.18-2.38-5.583-5.557-5.583h-19.185c-3.175 0-5.558 2.402-5.558 5.583v19.99c0 3.185 2.383 5.56 5.558 5.56h19.186c3.18 0 5.558-2.375 5.558-5.56v-19.99zm35.86 0c0-3.18-2.384-5.583-5.56-5.583h-19.117c-3.24 0-5.624 2.402-5.624 5.583v19.99c0 3.185 2.383 5.56 5.625 5.56h19.12c3.174 0 5.557-2.375 5.557-5.56v-19.99zm35.857 0c0-3.18-2.394-5.583-5.565-5.583h-19.11c-3.18 0-5.558 2.402-5.558 5.583v19.99c0 3.185 2.38 5.56 5.557 5.56h19.11c3.17 0 5.565-2.375 5.565-5.56v-19.99zm35.922 0c0-3.18-2.367-5.583-5.62-5.583H292.63c-3.175 0-5.566 2.402-5.566 5.583v19.99c0 3.185 2.39 5.56 5.566 5.56h19.114c3.254 0 5.62-2.375 5.62-5.56v-19.99zm35.867 0c0-3.18-2.39-5.583-5.566-5.583h-19.114c-3.254 0-5.62 2.402-5.62 5.583v19.99c0 3.185 2.366 5.56 5.62 5.56h19.114c3.175 0 5.566-2.375 5.566-5.56v-19.99zm35.87 0c0-3.18-2.395-5.583-5.565-5.583H363.61c-2.363 0-4.813 2.402-4.813 5.583v19.99c0 3.185 2.45 5.56 4.813 5.56h19.926c3.17 0 5.564-2.375 5.564-5.56v-19.99zm35.922 0c0-3.18-2.395-5.583-5.65-5.583h-19.893c-2.395 0-4.762 2.402-4.762 5.583v19.99c0 3.185 2.368 5.56 4.763 5.56h19.894c3.254 0 5.65-2.375 5.65-5.56v-19.99zm35.84 0c0-3.18-2.364-5.583-5.54-5.583h-20.004c-2.363 0-5.538 2.402-5.538 5.583v19.99c0 3.185 3.175 5.56 5.538 5.56h20.005c3.175 0 5.538-2.375 5.538-5.56v-19.99zm35.87 0c0-3.18-2.396-5.583-5.566-5.583h-19.9c-3.252 0-5.643 2.402-5.643 5.583v19.99c0 3.185 2.39 5.56 5.644 5.56h19.9c3.17 0 5.565-2.375 5.565-5.56v-19.99zm62.19 0c0-3.18 3.252-5.583 0-5.583h-51.812c-3.175 0-5.538 2.402-5.538 5.583v19.99c0 3.185 2.363 5.56 5.538 5.56h51.81c3.254 0 0-2.375 0-5.56v-19.99zM52.66 480.847c0-3.265-2.38-5.64-5.625-5.64H18.39c-3.238 0-5.62 2.375-5.62 5.64v19.973c0 3.185 2.383 5.575 5.62 5.575h28.647c3.246 0 5.625-2.39 5.625-5.575v-19.974zm107.643 0c0-3.265-2.38-5.64-5.62-5.64h-19.12c-3.18 0-5.558 2.375-5.558 5.64v19.973c0 3.185 2.38 5.575 5.558 5.575h19.12c3.24 0 5.62-2.39 5.62-5.575v-19.974zm35.862 0c0-3.265-2.383-5.64-5.557-5.64h-19.982c-3.175 0-5.558 2.375-5.558 5.64v19.973c0 3.185 2.383 5.575 5.558 5.575h19.982c3.174 0 5.557-2.39 5.557-5.575v-19.974zm259.16 107.064c0-3.25-2.39-5.642-4.84-5.642h-21.51c-3.17 0-5.538 2.39-5.538 5.643v20.78c0 2.388 2.366 4.778 5.536 4.778h21.51c2.45 0 4.84-2.39 4.84-4.777v-20.78zm-36.73 0c0-3.25-2.39-5.642-5.565-5.642H391.55c-3.253 0-5.648 2.39-5.648 5.643v20.78c0 2.388 2.395 4.778 5.648 4.778h21.482c3.175 0 5.566-2.39 5.566-4.777v-20.78zm-36.646 0c0-3.25-2.393-5.642-5.564-5.642H355.6c-3.17 0-5.537 2.39-5.537 5.643v20.78c0 2.388 2.367 4.778 5.538 4.778h20.786c3.17 0 5.565-2.39 5.565-4.777v-20.78zm-37.452 0c0-3.25-2.447-5.642-4.84-5.642h-21.483c-3.175 0-5.62 2.39-5.62 5.643v20.78c0 2.388 2.445 4.778 5.62 4.778h21.482c2.394 0 4.84-2.39 4.84-4.777v-20.78zm-36.73 0c0-3.25-2.367-5.642-5.537-5.642h-20.785c-3.174 0-5.565 2.39-5.565 5.643v20.78c0 2.388 2.39 4.778 5.565 4.778h20.786c3.17 0 5.538-2.39 5.538-4.777v-20.78zm-36.646 0c0-3.25-2.38-5.642-5.62-5.642H244c-2.38 0-4.762 2.39-4.762 5.643v20.78c0 2.388 2.383 4.778 4.762 4.778h21.5c3.243 0 5.622-2.39 5.622-4.777v-20.78zm-37.51 0c0-3.25-2.382-5.642-4.76-5.642h-21.503c-3.18 0-5.625 2.39-5.625 5.643v20.78c0 2.388 2.446 4.778 5.624 4.778h21.5c2.38 0 4.763-2.39 4.763-4.777v-20.78zm-36.653 0c0-3.25-2.38-5.642-5.56-5.642H170.63c-3.175 0-5.558 2.39-5.558 5.643v20.78c0 2.388 2.383 4.778 5.558 4.778H191.4c3.18 0 5.56-2.39 5.56-4.777v-20.78zm-36.655 0c0-3.25-2.38-5.642-5.62-5.642H133.18c-3.174 0-5.557 2.39-5.557 5.643v20.78c0 2.388 2.382 4.778 5.557 4.778h21.502c3.242 0 5.62-2.39 5.62-4.777v-20.78zm-37.51 0c0-3.25-2.383-5.642-4.765-5.642H96.528c-3.242 0-5.625 2.39-5.625 5.643v20.78c0 2.388 2.383 4.778 5.625 4.778h21.502c2.382 0 4.765-2.39 4.765-4.777v-20.78zm-35.858 0c0-3.25-2.383-5.642-5.562-5.642H16.74c-3.18 0-5.558 2.39-5.558 5.643v20.78c0 2.388 2.38 4.778 5.558 4.778h64.635c3.18 0 5.562-2.39 5.562-4.777v-20.78zm-16.74 35.914c0-3.184-2.383-5.575-4.766-5.575H16.74c-3.18 0-5.558 2.39-5.558 5.574v31.2c0 3.185 2.38 5.576 5.558 5.576h48.69c2.384 0 4.767-2.39 4.767-5.576v-31.2zm37.446 0c0-3.184-2.383-5.575-5.558-5.575h-20.71c-3.24 0-5.62 2.39-5.62 5.574v31.2c0 3.185 2.38 5.576 5.62 5.576h20.71c3.175 0 5.558-2.39 5.558-5.576v-31.2zm36.717 0c0-3.184-2.38-5.575-4.83-5.575h-21.5c-3.175 0-5.558 2.39-5.558 5.574v31.2c0 3.185 2.383 5.576 5.558 5.576h21.5c2.45 0 4.83-2.39 4.83-5.576v-31.2zm251.14 0c0-3.184-2.362-5.575-5.616-5.575h-20.706c-3.17 0-5.565 2.39-5.565 5.574v31.2c0 3.185 2.394 5.576 5.565 5.576h20.706c3.254 0 5.617-2.39 5.617-5.576v-31.2zm37.46 0c0-3.184-2.396-5.575-5.567-5.575h-21.565c-2.395 0-5.565 2.39-5.565 5.574v31.2c0 3.185 3.17 5.576 5.565 5.576h21.565c3.17 0 5.566-2.39 5.566-5.576v-31.2zm36.724 0c0-3.184-2.446-5.575-5.645-5.575h-21.483c-2.394 0-4.76 2.39-4.76 5.574v31.2c0 3.185 2.366 5.576 4.76 5.576h21.482c3.198 0 5.644-2.39 5.644-5.576v-31.2zm89.24 0c0-3.184-2.39-5.575-4.757-5.575h-37.454c-2.446 0-4.84 2.39-4.84 5.574v31.2c0 3.185 2.394 5.576 4.84 5.576h37.454c2.367 0 4.758-2.39 4.758-5.576v-31.2zm-52.59 0c0-3.184-2.395-5.575-5.565-5.575h-20.786c-3.175 0-5.538 2.39-5.538 5.574v2.39c0 3.25 2.363 5.64 5.538 5.64h20.785c3.17 0 5.564-2.39 5.564-5.64v-2.39zm0 18.386c0-3.185-2.395-5.575-5.565-5.575h-20.786c-3.175 0-5.538 2.39-5.538 5.575v12.814c0 3.185 2.363 5.576 5.538 5.576h20.785c3.17 0 5.564-2.39 5.564-5.576V642.21zM358.8 623.824c0-3.184-2.392-5.575-5.566-5.575h-198.55c-3.175 0-5.558 2.39-5.558 5.574v31.2c0 3.185 2.383 5.576 5.558 5.576h198.55c3.174 0 5.565-2.39 5.565-5.576v-31.2zM542.98 424.087H19.983c-4.037 0-6.42-3.185-6.42-6.366v-4.045c0-3.995 2.383-6.394 6.42-6.394h523c3.253 0 6.424 2.4 6.424 6.395v4.046c0 3.182-3.17 6.367-6.425 6.367" fill="#32135A" mask="url(#b)"/><path fill="#0078D7" mask="url(#b)" d="M523.057 323.38H46.244V33.38h476.813"/><path fill="#FFF" mask="url(#b)" d="M57.428 308.25h129.94V124.44H57.428"/><path fill="#3D3D3D" mask="url(#b)" d="M46.245 308.25h19.982V124.44H46.245"/><path fill="#585858" mask="url(#b)" d="M66.227 172.363h121.14v-47.926H66.228"/><path d="M126.83 156.448c-6.416 0-11.973-4.857-11.973-11.222 0-6.366 5.557-11.222 11.974-11.222 6.35 0 11.116 4.856 11.116 11.222 0 6.365-4.766 11.222-11.115 11.222m0-20.772c-5.624 0-9.594 3.967-9.594 9.55s3.97 9.55 9.595 9.55c4.762 0 9.528-3.967 9.528-9.55s-4.766-9.55-9.527-9.55M66.227 279.436h121.14V231.51H66.228" fill="#00BCF2" mask="url(#b)"/><path fill="#D2D2D2" mask="url(#b)" d="M66.227 202.768h121.14v-1.592H66.228"/><path fill="#BBB" mask="url(#b)" d="M70.99 299.426h15.15v-16H70.99M70.99 221.166h9.594v-8.828H70.99M70.99 190.764h9.594v-7.966H70.99M122 184.395h23.952v-4.78H122M122 193.135h58.223v-4.78H122M122 214.717h38.305v-4.78H122M122 223.54h58.223v-4.844H122M91.7 288.26h23.95v-4.845H91.7M91.7 297.023h88.52v-4.78H91.7"/><path fill="#0078D7" mask="url(#b)" d="M82.17 166.807h88.458v-4.78H82.17M46.245 172.363h19.982V153.18H46.245"/><path fill="#717171" mask="url(#b)" d="M49.487 142.823h11.91v-7.168h-11.91M49.487 189.172h11.91v-7.168h-11.91M49.487 209.944h11.91v-7.168h-11.91"/><path d="M201.723 159.63l.792.783 35.134 35.934c21.5 21.554 56.568 21.554 78.13 0l35.87-36.716H201.722z" fill="#0060AC" mask="url(#b)"/><path d="M389.883 137.267c0-12.032-9.52-21.582-20.702-21.582h-21.51v21.582c0 3.185.805 6.365 2.392 9.55l-9.6 12.004L244 62.11v50.313c0 31.212 24.742 55.17 55.055 55.17h34.256l-46.245 61.533h47.053v-6.365c0-20.772 15.137-38.364 35.063-42.354V158.82c11.963-.78 20.703-9.628 20.703-21.553M244 272.26h19.913c12.774 0 22.373-10.412 22.373-22.365v-20.772L244 272.26z" fill="#00BCF2" mask="url(#b)"/><path fill="#000" mask="url(#b)" d="M46.245 324.975H523.07v-19.982H46.245"/><path fill="#E9E9E9" mask="url(#b)" d="M66.227 324.975h121.14v-19.982H66.228"/><path d="M234.408 315.423c0 2.375-2.383 4.773-4.766 4.773-3.174 0-5.557-2.398-5.557-4.773 0-3.185 2.383-5.583 5.557-5.583 2.383 0 4.766 2.398 4.766 5.583" fill="#0078D7" mask="url(#b)"/><path d="M208.935 315.423c0 2.375-2.383 4.773-5.62 4.773-3.18 0-5.56-2.398-5.56-4.773 0-3.185 2.38-5.583 5.56-5.583 3.237 0 5.62 2.398 5.62 5.583" fill="#585858" mask="url(#b)"/><path fill="#FFB900" mask="url(#b)" d="M248.76 320.198h12.77V309.84h-12.77"/><path fill="#FFF" mask="url(#b)" d="M275.1 320.198h11.974V309.84H275.1M61.397 309.056l-11.115 2.375v7.987l11.115 1.592"/><path d="M566.938 347.337c0 4.074-3.978 8.04-8.012 8.04H10.388c-3.97 0-7.94-3.966-7.94-8.04V12.58c0-4.776 3.97-8.013 7.94-8.013h548.538c4.034 0 8.012 3.237 8.012 8.014v334.757zM46.243 323.384h476.813V33.38H46.243v290.004z" fill="#000" mask="url(#b)"/><path d="M558.925 357.777H10.387C4.83 357.777 0 353.004 0 347.337V12.58C0 7.023 4.83 1.384 10.388 1.384h548.538c5.62 0 10.38 5.64 10.38 11.198v334.757c0 5.667-4.76 10.44-10.38 10.44zM10.387 7.022c-2.382 0-4.76 2.374-4.76 5.56v334.755c0 2.454 2.378 4.857 4.76 4.857h548.538c2.395 0 4.84-2.403 4.84-4.857V12.58c0-3.184-2.445-5.558-4.84-5.558H10.387z" fill="#A2A2A2" mask="url(#b)"/><path d="M554.166 190.763l-21.51-3.185v-14.403l21.51-3.995v21.583zm4.758-183.74H231.23l26.334 26.354h265.494v265.24l40.707 40.763V12.577c0-3.18-2.446-5.555-4.84-5.555z" fill="#424242" mask="url(#b)"/><path d="M558.925 1.384H225.673l5.558 5.64h327.695c2.395 0 4.84 2.374 4.84 5.554V339.38l5.54 5.584V12.578c0-5.555-4.76-11.194-10.38-11.194" fill="#B6B6B6" mask="url(#b)"/><path d="M523.057 33.38H257.564l90.107 90.263v-7.958h21.51c11.183 0 20.703 9.55 20.703 21.582h17.61l-11.99 5.556 11.99 6.37H386.71c-1.585 2.398-3.98 4.8-7.15 6.392l143.497 143.03V33.38z" fill="#3393DF" mask="url(#b)"/></g></svg>