<svg width="286" height="261" viewBox="0 0 286 261" xmlns="http://www.w3.org/2000/svg" xmlns:xlink="http://www.w3.org/1999/xlink"><defs><path d="M48.237.15C20.163 25.32.513 61.682.513 102.24c0 51.746 28.073 96.493 70.185 120.274-4.21 1.398-7.02 5.588-7.02 9.79 0 6.992 4.21 11.18 11.228 11.18h137.566c5.613 0 9.827-4.188 9.827-11.18 0-4.202-2.81-8.392-4.215-9.79 39.307-23.78 67.38-68.528 67.38-120.274 0-40.557-18.245-76.92-46.325-102.09H48.237z" id="a"/><path d="M.053 42.666h42.61C42.664 19.94 22.78.056.054.056v42.61z" id="c"/><path d="M.14 28.354c15.415 15.32 37.837 26.46 63.058 26.46 26.63 0 49.045-11.14 64.46-26.46C112.244 10.248 89.83.5 63.2.5 37.978.5 15.555 10.248.14 28.354z" id="e"/><path d="M8.442 18.5C4.286 24.12 1.512 31.142.126 35.355 9.83 32.545 18.14 25.523 26.464 18.5 18.14 11.476 9.83 4.452.126.238 1.513 5.858 4.286 12.88 8.442 18.5z" id="g"/><path d="M.265.112v19.51C12.884 19.62 22.7 9.866 22.7.11H.266z" id="i"/><path d="M.263 9.808c0 6.967 4.095 9.755 9.562 9.755 5.462 0 10.923-2.788 10.923-9.755h-4.1c0 4.18-2.728 8.36-6.823 8.36-4.1 0-6.834-4.18-6.834-8.36 0-2.787 2.734-5.575 6.835-5.575 4.095 0 6.823 2.788 6.823 5.575h4.1c0-5.575-5.46-9.755-10.923-9.755C4.358.053.263 4.233.263 9.808z" id="k"/><path d="M.06 7.167c0 4.256 2.832 8.513 7.09 8.513 5.676 0 8.516-4.257 8.516-8.513h-2.84c0 2.838-2.834 5.676-5.675 5.676-2.838 0-4.258-2.838-4.258-5.676s1.42-4.257 4.26-5.676c2.84 1.42 5.674 2.84 5.674 5.677h2.84c0-4.257-2.84-7.094-8.515-7.094C2.893.073.06 2.91.06 7.167z" id="m"/><path d="M.59.378C13.2 17.208 27.213 32.632 46.833 42.45c-4.207 1.402-7.01 5.604-7.01 9.817 0 7.01 4.206 11.213 9.81 11.213h138.716c7.005 0 9.805-4.202 9.805-11.213 0-4.213-2.8-8.415-4.202-9.817 16.812-9.818 30.828-25.243 43.437-42.072H.59z" id="o"/><path d="M.373 3.66c0 1.518 0 3.036 3.034 3.036 1.52 0 3.035-1.518 3.035-3.036 0-1.516-1.516-3.034-3.035-3.034C.373.626.373 2.144.373 3.66z" id="q"/><path d="M8.733.567C4.527.567.326 3.54.326 9.49c0 4.462 4.2 8.925 8.407 8.925H206.28c4.206 0 8.407-4.463 8.407-8.924 0-5.95-4.2-8.923-8.408-8.923H8.732z" id="s"/></defs><g fill="none" fill-rule="evenodd"><g transform="translate(0 17)"><mask id="b" fill="#fff"><use xlink:href="#a"/></mask><path fill="#B2B2B2" mask="url(#b)" d="M-6.114 250.134h298.207V-6.5H-6.114"/></g><g transform="translate(100 103)"><mask id="d" fill="#fff"><use xlink:href="#c"/></mask><path fill="#F08407" mask="url(#d)" d="M-6.605 49.324h55.927V-6.604H-6.605"/></g><g transform="translate(69 111)"><mask id="f" fill="#fff"><use xlink:href="#e"/></mask><path fill="#F08407" mask="url(#f)" d="M-6.5 61.438h140.8V-6.124H-6.5"/></g><g transform="translate(43 123)"><mask id="h" fill="#fff"><use xlink:href="#g"/></mask><path fill="#F08407" mask="url(#h)" d="M-6.46 42.11H33.05V-6.516H-6.46"/></g><g transform="translate(118 154)"><mask id="j" fill="#fff"><use xlink:href="#i"/></mask><path fill="#F08407" mask="url(#j)" d="M-6.334 26.125H29.3V-6.39H-6.334"/></g><g transform="translate(200 103)"><mask id="l" fill="#fff"><use xlink:href="#k"/></mask><path fill="#929292" mask="url(#l)" d="M-6.14 26.066h33.29V-6.45H-6.14"/></g><g transform="translate(181 75)"><mask id="n" fill="#fff"><use xlink:href="#m"/></mask><path fill="#929292" mask="url(#n)" d="M-6.445 22.183H22.17V-6.43H-6.446"/></g><g transform="translate(24 197)"><mask id="p" fill="#fff"><use xlink:href="#o"/></mask><path fill="#D2D2D2" mask="url(#p)" d="M-6.023 70.194h250.025v-76.53H-6.023"/></g><g transform="translate(170 136)"><mask id="r" fill="#fff"><use xlink:href="#q"/></mask><path fill="#FEFEFE" mask="url(#r)" d="M-7.215 14.282H14.03V-6.96H-7.216"/></g><g transform="translate(35)"><mask id="t" fill="#fff"><use xlink:href="#s"/></mask><path fill="#E6E6E6" mask="url(#t)" d="M-6.29 25.28H221.3V-6.298H-6.29"/></g><path d="M146.368 146.805l25.123-26.34c-2.09-.988-4.235-1.892-6.433-2.706l-23.317 24.765 4.628 4.28z" fill="#E41B26"/><path d="M100.053 112.304l34.264 34.5 4.765-4.28-38.507-39.46c-.175 0-.347-.01-.522-.01v9.25z" fill="#CC1D2E"/><path d="M132.498 146.112c2.515-4.14 8.123-5.524 12.33-3.035 4.198 2.624 5.595 8.022 2.938 12.166-2.516 4.144-7.983 5.533-12.322 3.036-4.206-2.626-5.466-8.01-2.946-12.168" fill="#FAE926"/><path d="M133.895 144.32c-.417.553-.976 1.105-1.397 1.657v.135c-.84 1.385-1.26 3.055-1.26 4.57 0 2.9 1.54 5.94 4.206 7.597 1.54.83 3.08 1.243 4.756 1.243 2.24 0 4.63-.97 6.31-2.624l-12.615-12.58z" fill="#D8CC08"/></g></svg>