<svg width="253" height="241" viewBox="0 0 253 241" xmlns="http://www.w3.org/2000/svg" xmlns:xlink="http://www.w3.org/1999/xlink"><defs><path id="a" d="M241 .27H0v240.531h241V.27z"/><path id="c" d="M.303 40.244h37.753V.48H.302v39.764h37.754V.48H.303v39.764z"/><path id="e" d="M13.993 22.115H.063V.155h13.93v21.96z"/><path id="g" d="M38.89 36.423H.26V.227H38.89v36.196z"/><path d="M120.455.27C53.93.27 0 54.115 0 120.536 0 186.956 53.93 240.8 120.455 240.8c61.508 0 112.243-46.03 119.546-105.472h25V30.458h-64.747C179.003 11.677 151.065.27 120.455.27z" id="i"/><path id="k" d="M23.887 31.977V.387H.03v31.59h23.857z"/></defs><g fill="none" fill-rule="evenodd"><g><mask id="b" fill="#fff"><use xlink:href="#a"/></mask><path d="M241 120.536c0 66.42-53.95 120.265-120.5 120.265S0 186.957 0 120.537C0 54.116 53.95.27 120.5.27S241 54.116 241 120.537" fill="#40CDF6" mask="url(#b)"/></g><g><path d="M246.58 114.04l-21.53-21.496 5.025-5.017 21.53 21.496c1.388 1.385 1.388 3.63 0 5.017-1.387 1.385-3.637 1.385-5.024 0z" fill="#004B50"/><path d="M235.485 73.057c0 14.228-11.55 25.76-25.802 25.76-14.25 0-25.802-11.532-25.802-25.76 0-14.228 11.554-25.76 25.803-25.76 14.25 0 25.802 11.532 25.802 25.76" fill="#004B50"/><path d="M230.784 73.057c0 11.636-9.448 21.067-21.1 21.067-11.654 0-21.1-9.43-21.1-21.067 0-11.635 9.446-21.066 21.1-21.066 11.652 0 21.1 9.432 21.1 21.067" fill="#FFF"/><g transform="translate(192.727 53.88)"><mask id="d" fill="#fff"><use xlink:href="#c"/></mask><path d="M26.673.48c.508 2.002.78 4.095.78 6.256 0 14.046-11.408 25.432-25.476 25.432-.562 0-1.12-.026-1.674-.06 3.862 4.95 9.882 8.137 16.654 8.137 11.65 0 21.1-9.43 21.1-21.067 0-8.136-4.623-15.188-11.384-18.698" fill="#231F1F" mask="url(#d)"/></g><path d="M229.068 108.806l1.08-8.328c.167-1.285.765-2.475 1.695-3.38l7.924-7.686 6.177 5.97c5.5 5.31 5.527 14.105.06 19.45l-6.036 5.9-10.9-11.926z" fill="#62402C"/><g transform="translate(236.09 98.617)"><mask id="f" fill="#fff"><use xlink:href="#e"/></mask><path d="M12.408.152c-.234 1.218-.496 2.377-.765 3.43C10.09 9.706 5.197 14.306.063 17.943l3.814 4.173 6.037-5.9C14.332 11.89 15.157 5.317 12.408.15" fill="#000" mask="url(#f)"/></g><path d="M218.264 116.79l9.902-8.95s13.314 14.216 12.92 14.346c-.398.132-9.594 9.043-9.594 9.043l-13.228-14.44z" fill="#FFF"/><path d="M145.77 138.77h41.263l29.662-23.69 15.556 16.98-24.83 24.794c-1.955 1.95-4.397 3.342-7.07 4.032l-54.58 14.08v-36.195z" fill="#004B50"/><g transform="translate(145.51 138.545)"><mask id="h" fill="#fff"><use xlink:href="#g"/></mask><path fill="#000" mask="url(#h)" d="M10.346.245v-.02H.26v36.2l38.63-9.97"/></g><mask id="j" fill="#fff"><use xlink:href="#i"/></mask><path fill="#62402C" mask="url(#j)" d="M97.345 148.998h35.23v-43.575h-35.23"/><path fill="#4F3125" mask="url(#j)" d="M114.96 148.998h17.616v-43.575H114.96"/><path fill="#C6C6C6" mask="url(#j)" d="M140.19 195.994v-62.6l-1.38-4.676-23.858 13.253v59.814"/><path fill="#C6C6C6" mask="url(#j)" d="M140.19 195.994v-62.6l-1.38-4.676-23.858 13.253v59.814"/><path fill="#FFF" mask="url(#j)" d="M114.952 201.784V141.97l-23.86-13.252-1.38 4.677v62.6"/><path fill="#FFF" mask="url(#j)" d="M114.952 141.97l-18.338-20.354-5.52 7.102 6.217 24.486 12.578-13.672"/><g transform="translate(91.064 121.227)" mask="url(#j)"><mask id="l" fill="#fff"><use xlink:href="#k"/></mask><path fill="#ADADAD" mask="url(#l)" d="M23.888 20.744L5.55.388.03 7.49l6.217 24.487 12.577-13.672"/></g><path d="M145.87 112.93l-2.41-13.022-.91-4.92c-.17-.906.45-1.77 1.363-1.906l3.622-.542c1.07-.16 1.705-1.278 1.295-2.277l-5.557-11.796c-.51-1.08-.873-2.218-1.084-3.39l-2.97-16.49-51.37-.983-.387 7.446-10.7-.553s-8.215 61.29 66.017 52.634c2.05-.238 3.466-2.172 3.09-4.2" fill="#62402C" mask="url(#j)"/><path d="M136.155 45.544c-1.19-2.178-2.537-4.56-4.44-6.205-.452-.39-.944-.69-1.457-.94l-.09-.003c-14.254-.91-28.98 2.235-37.572 7.038-9.428 5.27-7.17 13.006-7.17 13.006-7.473-.927-8.655 5.774-8.655 5.774s-4.397 30.04 18.566 45.325c11.378-2.258 10.368-13.06 10.197-15.023-.335-3.852-3.578-5.013-5.656-8.066-2.08-3.05-3.4-9.272 2.748-11.324 5.652-1.886 8.863 4.675 10.02 7.71.308.813 1.204 1.234 2.03.967l4.14-1.332-3.1-17.014c-.515-2.82 1.762-5.372 4.627-5.19l7.27.465c3.073.197 8.127.542 12.02-1.395-.126-4.812-1.128-9.497-3.477-13.79" fill="#191919" mask="url(#j)"/><path fill="#FFF" mask="url(#j)" d="M114.952 141.97l18.337-20.354 5.52 7.102-6.218 24.486-12.577-13.672"/><path d="M156.105 137.944l-12.852-4.624-4.14-4.357-.632-.667s-8.433 41.777-19.696 65.848l-3.88 7.64-3.785-7.64c-11.264-24.07-19.7-65.848-19.7-65.848l-.61.644c.083-.427.14-.644.14-.644l-4.822 5.227-10.368 3.236c-11.918 3.72-20.828 13.673-23.198 25.914l-6.452 33.32-7.316 45.98H66.23l8.483-45.438c.06-.314.333-.542.652-.542.366 0 .663.296.663.662v45.317h77.41v-33.566c0-8.25.905-16.476 2.7-24.53l2.016-9.057s9.698-35.184-2.05-36.876" fill="#004B50" mask="url(#j)"/><path d="M87.857 131.648c3.14 13.65 9.71 39.665 17.706 56.76l3.784 7.637 1.39-2.732c-11.072-24.188-19.316-65.017-19.316-65.017l-.61.644c.083-.428.14-.644.14-.644l-3.093 3.352zM70.472 190.918c0-.365-.296-.662-.663-.662-.32 0-.594.228-.653.54l-8.483 45.44H39.707l-.913 5.737H66.23l4.242-22.722V190.92zM152.532 172.606l-1.95 5.533c-1.795 8.053-2.7 16.28-2.7 24.528v16.274c0 6.468 1.29 12.872 3.795 18.836l1.76 4.194v-33.564c0-8.25.906-16.476 2.7-24.53l2.017-9.057.832-3.407-6.454 1.193z" fill="#003D41" mask="url(#j)"/><path d="M102.338 194.326c-7.455-11.198-16.334-26.685-21.634-43.38l4.286-2.704-3.757-9.196 10.188-10.75s8.882 43.987 20.586 67.698c0 0 2.196 4.29 3.003 5.79 0 0-.724-.017-1.855-.228-4.438-.822-8.318-3.476-10.817-7.23" fill="#003D41" mask="url(#j)"/><path d="M127.575 194.326c7.454-11.198 16.334-26.685 21.634-43.38l-4.288-2.704 3.757-9.196-10.188-10.75s-8.88 43.987-20.585 67.698c0 0-2.196 4.29-3.004 5.79 0 0 .723-.017 1.854-.228 4.44-.822 8.318-3.476 10.818-7.23" fill="#003D41" mask="url(#j)"/><path d="M133.137 78.376c-.063 1.19-1.078 2.103-2.267 2.04-1.192-.06-2.106-1.075-2.045-2.263.063-1.188 1.077-2.102 2.268-2.04 1.19.06 2.106 1.074 2.044 2.263" fill="#000" mask="url(#j)"/><path d="M141.443 100.27l-12.62 2.11 3.743 3.726c.777.772 1.878 1.125 2.96.948l6.84-1.164-.923-5.62z" fill="#4F3125" mask="url(#j)"/><path fill="#FFF" mask="url(#j)" d="M141.443 100.27l-12.62 2.11 2.69 2.677 10.428-1.75"/></g><path d="M139.367 104.15s18.43-.957 21.142 9.39c2.712 10.345 4.228 14.166 4.946 16.712.718 2.547 2.314 7.48 7.58 7.48 5.265 0 5.504-5.252 3.67-8.912-1.836-3.66-.8-6.128 2.552-6.128h10.132c1.915 0 5.106 1.512 2.793 5.57-2.314 4.06-5.505 16.713-18.03 16.713-12.527 0-14.202-13.848-15.4-18.384-1.196-4.535-1.196-21.805-19.226-20.93l-.16-1.51z" fill="#BE6621"/><path d="M136.128 43.75s25.214 2.45 28.076 5.932c2.862 3.482-36.654 12.134-57.45 9.507-20.795-2.628-12.232 4.33-12.232 4.33S69.42 93.532 60.538 94.748c-8.88 1.216 29.443-43.49 29.443-43.49l46.148-7.507z" fill="#003D41"/><path d="M140.424 43.97S106.237 67.302 72.01 73.645c0 0-21.608-34.83 17.295-53.715 32.794-15.92 51.12 24.04 51.12 24.04" fill="#004B50"/><path fill="#004B50" d="M81.18 26.01l-.484-3.607 4.1.72.963-4.568 3.615 2.405"/><path d="M89.375 69.215s-13.5-24.047-4.58-46.09c0 0 16.473 9.86 29.33 36.15 0 0-13.18 8.658-24.75 9.94" fill="#036A6D"/><path d="M191.434 123.21c-.558 2.95-1.903 7.422-5.148 11.855-5.545 7.575-12.295 9.5-17.72 5.17-2.823-2.253-5.515-3.984-7.448-5.127 1.952 4.94 5.562 9.867 13.034 9.867 12.526 0 15.717-12.654 18.03-16.713 1.56-2.736.618-4.313-.748-5.05" fill="#BE6621"/><path d="M186.286 135.065c3.245-4.433 4.59-8.905 5.148-11.854-.66-.357-1.42-.518-2.044-.518h-10.132c-3.35 0-4.388 2.467-2.553 6.128 1.835 3.66 1.595 8.913-3.67 8.913-5.266 0-6.86-4.934-7.58-7.48-.717-2.547-2.233-6.367-4.946-16.714-2.713-10.346-21.143-9.392-21.143-9.392l.16 1.513c18.03-.875 18.03 16.395 19.227 20.93.48 1.823 1.038 5.147 2.346 8.472.005.016.012.03.018.046 1.933 1.143 4.025 5.228 7.45 6.39 5.845 1.984 12.173 1.142 17.718-6.433" fill="#FF8930"/></g></svg>