<svg width="245" height="238" viewBox="0 0 245 238" xmlns="http://www.w3.org/2000/svg" xmlns:xlink="http://www.w3.org/1999/xlink"><defs><path d="M26.383.397C11.368 18.884 1.81 41.953.153 67.17h105.472V.398H26.383z" id="a"/><path d="M88.33 80.852C80.015 45.177 55.565 15.67 23.06.38H.226V80.85H88.33z" id="c"/></defs><g fill="none" fill-rule="evenodd"><path d="M238 119c0 65.722-53.278 119-119 119C53.278 238 0 184.722 0 119 0 53.278 53.278 0 119 0c65.722 0 119 53.278 119 119" fill="#007ACF"/><g transform="translate(0 43.775)"><mask id="b" fill="#fff"><use xlink:href="#a"/></mask><path d="M36.017 13.376c4.5-7.76 12.914-12.98 22.55-12.98 14.198 0 25.74 11.33 26.024 25.41.09-.005.182-.01.273-.01 11.467 0 20.762 9.264 20.762 20.685 0 11.428-9.295 20.69-20.762 20.69H3.758c-9.184 0-16.628-7.418-16.628-16.57 0-9 7.204-16.317 16.178-16.557-.26-1.305-.4-2.653-.4-4.034 0-11.428 9.298-20.687 20.763-20.687 4.626 0 8.9 1.506 12.347 4.053" fill="#329BDA" mask="url(#b)"/></g><path d="M123.376 167.25c-3.632-6.262-10.42-10.474-18.196-10.474-11.456 0-20.77 9.142-21 20.502-.07-.004-.145-.008-.22-.008-9.25 0-16.752 7.476-16.752 16.69 0 9.222 7.5 16.696 16.753 16.696h65.447c7.41 0 13.417-5.986 13.417-13.37 0-7.263-5.813-13.167-13.055-13.36.208-1.054.32-2.142.32-3.256 0-9.22-7.5-16.692-16.752-16.692-3.732 0-7.18 1.215-9.962 3.27" fill="#329BDA"/><g transform="translate(146.818 11)"><mask id="d" fill="#fff"><use xlink:href="#c"/></mask><path d="M84.114 16.022C78.69 6.67 68.552.38 56.938.38 39.828.38 25.918 14.033 25.575 31c-.108-.005-.218-.012-.327-.012-13.82 0-25.02 11.165-25.02 24.93 0 13.77 11.2 24.934 25.02 24.934h97.744c11.07 0 20.04-8.94 20.04-19.97 0-10.847-8.683-19.665-19.498-19.954.312-1.572.48-3.197.48-4.862 0-13.77-11.203-24.93-25.02-24.93-5.574 0-10.723 1.815-14.88 4.886" fill="#329BDA" mask="url(#d)"/></g><g><path d="M36.364 117.015v21.474c.475.784.98 1.542 1.526 2.268 2.5 3.4 5.674 6.19 9.277 8.22 4.367 2.47 9.368 3.826 14.548 3.826h97.776l24.666-12.046 20.44-9.982 6.75-3.297 7.586-3.703 25.166-12.29V64.315H222.94s-.712 1.717-2.18 5.15c-.898 2.088-2.078 4.82-3.552 8.194-.693 1.593-1.456 3.322-2.283 5.2-.898 2.03-1.924 3.88-3.007 5.565-5.194 8.028-13.78 13.19-23.254 14.308-38.688 4.55-62.39-9.46-62.39-9.46s4.34-7.162-23.55-7.162-25.647 8.46-25.647 8.46l-1.2 1.948-12.584 20.497h-26.93z" fill="#FF8930"/><path d="M36.365 116.94v4.904h26.922l12.588-20.5 1.195-1.942s-2.237-8.462 25.646-8.462c27.892 0 23.555 7.164 23.555 7.164s23.7 14.008 62.386 9.46c9.48-1.117 18.066-6.283 23.255-14.308 1.088-1.69 2.11-3.54 3.008-5.565.833-1.88 1.593-3.613 2.282-5.2.842-1.926 1.584-3.633 2.237-5.14.498-1.144.932-2.16 1.32-3.06 1.424-3.322 2.13-5.038 2.166-5.137l.01-.01h21.163V64.24h-21.164s-.67 1.635-2.074 4.913c-.027.072-.063.154-.1.236-.877 2.04-2.028 4.692-3.46 7.96-.026.082-.062.154-.098.236-.69 1.598-1.45 3.323-2.282 5.202-.897 2.034-1.92 3.877-3.007 5.565-5.188 8.026-13.773 13.19-23.254 14.308-37.962 4.467-61.49-8.94-62.358-9.44-.018-.01-.027-.02-.027-.02s.19-.308.236-.798c.01-.1.01-.218 0-.336-.1-2.024-2.925-6.028-23.79-6.028-25.464 0-25.81 7.054-25.673 8.28 0 .054.01.1.018.136.01.027.01.045.01.045v.008l-1.195 1.934-12.588 20.5H36.365z" fill="#FFA753"/><path d="M36.364 136.01v2.723c.47.79.978 1.544 1.52 2.27 2.51 3.404 5.176 6.192 8.78 8.225 4.365 2.47 9.364 3.822 14.544 3.822h97.776l24.667-12.047 10.226-4.993 10.214-4.984 6.756-3.305 7.58-3.694 25.166-12.292v-1.28l-18.184 8.878-7.59 3.705-6.746 3.295-19.805 9.678-.633.308-9.6 4.685-15.068 7.353H68.19c-5.18 0-10.18-1.352-14.543-3.822-1.776-.998-3.45-2.187-4.98-3.53-1.586-1.4-3.035-2.96-4.303-4.686-.072-.1-.154-.208-.217-.308h-7.783z" fill="#BE6621"/><path fill="#BE6621" d="M80.6 156.527l-2.545-7.448-3.37 1.174 3.61 8.9"/><path d="M72.71 162.108c0 3.69 2.984 6.68 6.664 6.68 3.68 0 6.663-2.99 6.663-6.68 0-3.69-2.983-6.68-6.663-6.68s-6.663 2.99-6.663 6.68" fill="#005851"/><path d="M73.975 158.207c1.096-.8 2.445-1.262 3.894-1.262 3.675 0 6.664 2.987 6.664 6.68 0 1.454-.47 2.807-1.268 3.905 1.675-1.207 2.77-3.186 2.77-5.42 0-3.685-2.978-6.68-6.655-6.68-2.227 0-4.2 1.097-5.405 2.777" fill="#008373"/><path fill="#BE6621" d="M148.207 156.527l-2.546-7.448-3.37 1.174 3.61 8.9"/><path d="M143.594 161.15c0 2.554 2.065 4.624 4.612 4.624 2.548 0 4.613-2.07 4.613-4.623 0-2.553-2.066-4.623-4.614-4.623-2.547 0-4.612 2.07-4.612 4.624" fill="#005851"/><path d="M144.288 158.724c.698-.436 1.53-.68 2.41-.68 2.544 0 4.61 2.07 4.61 4.62 0 .89-.246 1.716-.69 2.424 1.322-.8 2.2-2.26 2.2-3.93 0-2.552-2.064-4.63-4.618-4.63-1.657 0-3.106.88-3.912 2.196" fill="#008373"/><path d="M23.275 128.336c.005 1.813.022 3.58.054 5.29.014 1.02.036 2.017.068 2.993.356 12.374 1.457 21.15 2.857 21.16 1.4 0 2.687-8.77 3.293-21.16.032-.742.07-1.5.096-2.267.085-1.937.144-3.948.186-6.017.02-.902.038-1.814.048-2.737.01-.363.01-.726.016-1.09.005-.666.01-1.327.01-1.983.012-1.958.006-3.867-.02-5.718-.197-14.675-1.394-25.604-2.954-25.62-1.59 0-3.027 11.276-3.5 26.323-.048 1.627-.086 3.302-.112 5.014-.01.64-.02 1.28-.027 1.93-.004.385-.004.763-.004 1.142-.01.922-.01 1.834-.01 2.736" fill="#005851"/><path d="M14.017 126.106c0 .82.15 1.563.43 2.23 1.22 2.944 4.886 4.496 8.88 5.29 2.12.423 4.333.636 6.317.726 3.762.182 6.72-.058 6.72-.058v-17.282s-2.836-.32-6.48-.203c-2.017.058-4.284.255-6.454.703-3.624.757-6.997 2.23-8.535 5.014-.49.885-.793 1.904-.862 3.072-.01.165-.016.335-.016.506" fill="#F6F3F7"/><path d="M36.364 125.628v8.666s-2.958.24-6.72.06c-1.984-.092-4.198-.306-6.316-.727-3.995-.795-7.66-2.347-8.88-5.29-.282-.668-.43-1.41-.43-2.23 0-.162.005-.323.014-.48h22.332z" fill="#E8E8E8"/><path d="M217.3 77.35h26.796v-8.198H220.86l-.1.237c-.88 2.04-2.03 4.692-3.46 7.96" fill="#F6F3F7"/><path d="M217.3 77.35c.655-1.498 1.25-2.86 1.788-4.1h25.008v4.1H217.3z" fill="#E8E8E8"/><path d="M36.364 130.776v7.713c.475.784.98 1.542 1.526 2.268h146.266l20.44-9.982H36.364z" fill="#FFF"/><path d="M194.376 135.767l-10.22 4.99H37.706c-.546-.725-.867-1.24-1.342-2.024v-2.966h158.012z" fill="#E8E8E8"/><path fill="#F6F3F7" d="M36.364 123.777v3.702h174.983l7.585-3.703"/><path fill="#E8E8E8" d="M215.14 125.628l-3.793 3.312H36.364v-3.312"/><path fill="#BE6621" d="M232.65 102.903l-23.763 13.252h-14.263l16.003-14.833h21.83"/><path d="M232.457 101.322h-21.83c-.442 0-.8.36-.8.802v5.412c0 .52.487.904.992.78l21.83-5.413c.917-.228.752-1.58-.193-1.58" fill="#F6F3F7"/><path fill="#2AA296" d="M141.245 104.468v15.152h-27.9l.926-16.298"/><path fill="#008373" d="M114.133 105.693l24.83 1.056v12.868h2.28V104.47l-26.976-1.146"/><path d="M132.088 110.454l-5.956 5.97M128.31 110.454l-5.954 5.97" stroke="#FFF" stroke-width="1.903" stroke-linecap="round"/><path fill="#2AA296" d="M110.896 101.565l-.874 18.055-35.19-.813 8.2-19.063"/><path fill="#008373" d="M109.456 103.01l-.797 16.576 1.366.037.87-18.057L83.03 99.74l-.642 1.508"/><path d="M97.44 109.682l-6.458 6.473M93.344 109.682l-6.456 6.473" stroke="#FFF" stroke-width="1.903" stroke-linecap="round"/><path fill="#2AA296" d="M80.6 99.287l-9.048 19.52h-7.78l-2.245-1.952 14.353-20.34"/><path fill="#008373" d="M70.585 118.805h.97L80.6 99.287l-4.717-2.77-.625.88 4.13 2.425"/><path d="M75.062 105.683l-3.947 3.957M72.56 105.683l-3.948 3.957" stroke="#FFF" stroke-width="1.427" stroke-linecap="round"/></g></g></svg>