<svg width="309" height="240" viewBox="0 0 309 240" xmlns="http://www.w3.org/2000/svg" xmlns:xlink="http://www.w3.org/1999/xlink"><defs><path d="M30.09 112.155c2.2-.566 3.845-.742 3.845-.742V21.977C29.045 12.413 17.042 1.943.295.137v112.018H30.09z" id="a"/><path d="M.42 7.654c7.156-1.183 15.16-2.9 23.42-5.394C27.904 1.033 31.81.313 35.534.02v90.35H.42V7.653z" id="c"/><path d="M19.076.25L.184 44.49l116.326 3.143h21.197c.878-8.355 14.94-9.858 14.94-9.858V.25H19.078z" id="e"/><path d="M19.076.25L.184 44.49l116.326 3.143h21.197c.878-8.355 14.94-9.858 14.94-9.858V.25H19.078z" id="g"/><path d="M15.782.363L.184 36.89l137.484 3.715c.18-5.737 6.412-8.418 10.78-9.595V.363H15.782z" id="i"/><path d="M12.487.002L.184 28.814l137.484 3.715c.12-3.8 2.892-6.26 6.02-7.828V.002h-131.2z" id="k"/><path d="M9.193.116L.183 21.213l137.485 3.715c.048-1.513.516-2.813 1.26-3.93V.117H9.193z" id="m"/><path id="o" d="M5.898.23L.184 13.61l133.984 3.62V.23z"/><path id="q" d="M2.604.343L.184 6.01l129.223 3.492V.342H2.604z"/><path d="M6.15 106.552c-3.106-1.026-5.804-1.315-5.804-1.315V15.8C3.193 10.233 8.452 4.356 15.656.06v106.492H6.15z" id="s"/><path d="M28.07 2.58C22.76 1.026 17.724.34 13.01.34 8.445.342 4.18.984.26 2.102v86.16h27.81V2.58z" id="u"/><path d="M.346.25v37.527s14.063 1.503 14.942 9.858h21.196l116.326-3.143L133.918.25H.346z" id="w"/><path d="M.346.25v37.527s14.063 1.503 14.942 9.858h21.196l116.326-3.143L133.918.25H.346z" id="y"/><path d="M.356 31.01c4.368 1.177 10.6 3.858 10.78 9.595L148.62 36.89 133.022.364H.356V31.01z" id="A"/><path d="M.46 24.702c3.13 1.57 5.9 4.028 6.02 7.827l137.485-3.716L131.66.002H.46v24.7z" id="C"/><path d="M.1 20.998c.744 1.117 1.212 2.417 1.26 3.93l137.484-3.715-9.01-21.097H.1v20.882z" id="E"/><path id="G" d="M.205 17.232l133.983-3.62L128.474.23H.204z"/><path id="I" d="M.31 9.502l129.223-3.49-2.42-5.67H.31v9.16z"/><path d="M.46 10.702c5.323-.068 27.103-.798 51-7.974C56.984 1.068 62.208.34 67.094.34c1.655 0 3.27.085 4.845.244v75.25c-4.795-1.06-10.25-1.67-16.454-1.67-23.6 0-35.247 4.55-46.966 7.688H.46v-71.15z" id="K"/><path d="M.05 52.892l56.604-.415V.814C53.598.45 50.318.25 46.796.25 23.374.25 11.68 4.75.05 7.918v44.975z" id="M"/><path id="O" d="M3.846 3.822V.14H.506V3.82h3.34z"/></defs><g fill="none" fill-rule="evenodd"><path d="M271 121c0 65.722-52.16 119-116.5 119S38 186.722 38 121C38 55.278 90.16 2 154.5 2S271 55.278 271 121" fill="#008373"/><path fill="#016859" d="M110.602 0L80 73.22 137 77"/><path fill="#016859" d="M105 105.22L135.602 32 162 109"/><path fill="#016859" d="M130 97.22L160.602 24 187 101M211 117.22L241.602 44 268 121"/><path fill="#016859" d="M157 90.22L187.602 17 214 94M45 120.22L75.602 47 102 124"/><path fill="#016859" d="M54 126.22L84.602 53 111 130"/><g fill="#2AA296"><path d="M209.514 29.623c2.796-4.953 8.023-8.285 14.01-8.285 8.82 0 15.992 7.232 16.17 16.22.055-.004.11-.007.168-.007 7.124 0 12.9 5.915 12.9 13.205 0 7.295-5.776 13.208-12.9 13.208h-50.39c-5.707 0-10.332-4.736-10.332-10.577 0-5.747 4.476-10.418 10.052-10.57-.16-.833-.248-1.694-.248-2.576 0-7.294 5.776-13.205 12.9-13.205 2.873 0 5.527.962 7.67 2.588M94.415 16.772c2.152-3.813 6.176-6.38 10.786-6.38 6.792 0 12.313 5.57 12.45 12.488.042-.002.085-.005.128-.005 5.486 0 9.932 4.554 9.932 10.166 0 5.617-4.446 10.17-9.932 10.17H78.984c-4.393 0-7.954-3.647-7.954-8.144 0-4.424 3.446-8.02 7.74-8.138-.125-.64-.192-1.303-.192-1.982 0-5.615 4.447-10.166 9.93-10.166 2.213 0 4.257.74 5.907 1.992"/></g><g stroke="#2AA296" stroke-linecap="round"><path d="M98.544 191.987c-3.236 2.24-6.633 3.436-10.135 3.436-3.586 0-7.06-1.252-10.365-3.596" stroke-width="3.931"/><path d="M128.872 187.904c-6.602 4.953-17.942 8.573-31.338 9.698-2.878.242-5.852.368-8.893.368" stroke-width="4.655"/><path d="M155.378 190.803c.11.36.17.737.17 1.123 0 2.19-1.895 4.07-4.596 4.875" stroke-width="3"/><path d="M171.427 191.467c.033.228.05.46.05.694 0 3.75-4.33 6.79-9.667 6.79-.366 0-.728-.015-1.083-.042" stroke-width="4"/><path d="M140.18 188.676c1.85-2.194 4.67-3.596 7.83-3.596.54 0 1.068.04 1.584.12M155.757 188.754c1.85-2.194 4.67-3.596 7.83-3.596.54 0 1.068.04 1.584.12" stroke-width="3"/><path d="M158.093 192.53c0 2.573-1.763 4.84-4.445 6.18-1.61.803-3.55 1.273-5.637 1.273-3.882 0-7.252-1.622-8.937-4" stroke-width="4"/></g><path d="M161.945 184.376h-18.207c-3.234 0-5.88-2.702-5.88-6.003 0-3.302 2.646-6.004 5.88-6.004h18.207c3.235 0 5.88 2.7 5.88 6.003 0 3.3-2.645 6.003-5.88 6.003" fill="#000"/><path d="M2.184 175.563L48.21 67.733s24.62.285 52.04-8c27.42-8.282 47.564 6.57 54.28 19.71v89.408s-14.69 1.572-14.97 10.427L2.184 175.563z" fill="#FFB73E"/><g transform="translate(120.713 57)"><mask id="b" fill="#fff"><use xlink:href="#a"/></mask><path fill="#F4AD3A" mask="url(#b)" d="M10.69-1.077L.296 90.655l35.676 21.5.562-101.766"/></g><g transform="translate(76.487 57)"><mask id="d" fill="#fff"><use xlink:href="#c"/></mask><path d="M20.645 1.79L.42 90.37S20.645 80.334 20.645 78.9c0-1.434 14.89-82.56 14.89-82.56L20.644 1.79z" fill="#FFCA5B" mask="url(#d)"/></g><path fill="#FFCA5B" d="M53.03 64.523l-32.586 79.98-12.64-2.295 34.83-83.706"/><g transform="translate(2 130.637)"><mask id="f" fill="#fff"><use xlink:href="#e"/></mask><path d="M153.208 35.872S149.568.25 102.34.25 55.906 18.63 7.744 7.06l-17.36 40.575 21-.143 127.544-.857s7.28-11.382 14.28-10.763" fill="#FFCA5B" mask="url(#f)"/></g><g transform="translate(2 130.637)"><mask id="h" fill="#fff"><use xlink:href="#g"/></mask><path d="M153.208 35.872S149.568.25 102.34.25 55.906 18.63 7.744 7.06l-17.36 40.575 21-.143 127.544-.857s7.28-11.382 14.28-10.763z" stroke="#FFCA5B" mask="url(#h)"/></g><g transform="translate(2 138.238)"><mask id="j" fill="#fff"><use xlink:href="#i"/></mask><path d="M148.448 35.986S144.808.363 97.58.363 51.145 18.746 2.984 7.173l-17.36 40.576 21-.144 127.543-.857s7.28-11.383 14.28-10.764z" stroke="#F4AD3A" stroke-width="2.896" mask="url(#j)"/></g><g transform="translate(2 146.314)"><mask id="l" fill="#fff"><use xlink:href="#k"/></mask><path d="M143.688 35.624S140.048.002 92.82.002 46.385 18.385-1.776 6.812l-17.36 40.575 21-.142 127.543-.858s7.28-11.382 14.28-10.763z" stroke="#F4AD3A" stroke-width="2.896" mask="url(#l)"/></g><g transform="translate(2 153.915)"><mask id="n" fill="#fff"><use xlink:href="#m"/></mask><path d="M138.928 35.738S135.288.116 88.06.116C40.83.116 41.625 18.5-6.536 6.926L-23.896 47.5l21-.14 127.543-.86s7.28-11.38 14.28-10.762z" stroke="#F4AD3A" stroke-width="2.896" mask="url(#n)"/></g><g transform="translate(2 161.517)"><mask id="p" fill="#fff"><use xlink:href="#o"/></mask><path d="M134.168 35.852S130.528.23 83.3.23c-47.23 0-46.435 18.383-94.597 6.81l-17.36 40.575 21-.143 127.544-.857s7.28-11.382 14.28-10.763z" stroke="#F4AD3A" stroke-width="2.896" mask="url(#p)"/></g><g transform="translate(2 169.118)"><mask id="r" fill="#fff"><use xlink:href="#q"/></mask><path d="M129.407 35.966S125.767.343 78.54.343c-47.23 0-46.435 18.383-94.597 6.81l-17.36 40.576 21-.144 127.544-.857s7.28-11.383 14.28-10.764z" stroke="#F4AD3A" stroke-width="2.896" mask="url(#r)"/></g><path d="M307 175.285L261.08 67.397s-24.567.285-51.924-8.003S161.7 65.967 155 79.114v89.455s14.656 1.57 14.935 10.43L307 175.285z" fill="#FFB73E"/><g><g transform="translate(155 63.65)"><mask id="t" fill="#fff"><use xlink:href="#s"/></mask><path fill="#F4AD3A" mask="url(#t)" d="M-4.29 5.647v100.905l19.946-11.18L10.32-.088"/></g><g transform="translate(181.07 57)"><mask id="v" fill="#fff"><use xlink:href="#u"/></mask><path d="M.26-.03l9.27 88.293s18.54-4.013 18.54-4.873c0-.86-11.517-86-11.517-86L.26-.03z" fill="#FFCA5B" mask="url(#v)"/></g><path fill="#FFCA5B" d="M253.525 64.138l34.27 81.412 17.698-6.02-43.26-77.4"/><g transform="translate(155 131.112)"><mask id="x" fill="#fff"><use xlink:href="#w"/></mask><path d="M-.214 35.872S3.426.25 50.654.25 97.088 18.63 145.25 7.06l17.36 40.575-21-.143-127.544-.857S6.786 35.253-.214 35.872" fill="#FFCA5B" mask="url(#x)"/></g><g transform="translate(155 131.112)"><mask id="z" fill="#fff"><use xlink:href="#y"/></mask><path d="M-.214 35.872S3.426.25 50.654.25 97.088 18.63 145.25 7.06l17.36 40.575-21-.143-127.544-.857S6.786 35.253-.214 35.872z" stroke="#FFCA5B" mask="url(#z)"/></g><g transform="translate(159.19 138.713)"><mask id="B" fill="#fff"><use xlink:href="#A"/></mask><path d="M.356 35.986S3.996.363 51.224.363s46.435 18.383 94.596 6.81l17.36 40.576-21-.144-127.543-.857S7.357 35.366.357 35.985z" stroke="#F4AD3A" stroke-width="2.896" mask="url(#B)"/></g><g transform="translate(163.845 146.79)"><mask id="D" fill="#fff"><use xlink:href="#C"/></mask><path d="M.46 35.624S4.1.002 51.33.002c47.227 0 46.433 18.383 94.595 6.81l17.36 40.575-21-.142-127.544-.858S7.46 35.005.46 35.624z" stroke="#F4AD3A" stroke-width="2.896" mask="url(#D)"/></g><g transform="translate(168.966 154.39)"><mask id="F" fill="#fff"><use xlink:href="#E"/></mask><path d="M.1 35.738S3.74.116 50.968.116s46.434 18.383 94.596 6.81l17.36 40.575-21-.14L14.38 46.5S7.1 35.12.1 35.74z" stroke="#F4AD3A" stroke-width="2.896" mask="url(#F)"/></g><g transform="translate(173.622 161.992)"><mask id="H" fill="#fff"><use xlink:href="#G"/></mask><path d="M.205 35.852S3.845.23 51.073.23s46.434 18.383 94.596 6.81l17.36 40.575-21-.143-127.545-.857S7.205 35.233.205 35.852z" stroke="#F4AD3A" stroke-width="2.896" mask="url(#H)"/></g><g transform="translate(178.277 169.593)"><mask id="J" fill="#fff"><use xlink:href="#I"/></mask><path d="M.31 35.966S3.95.343 51.176.343c47.23 0 46.435 18.383 94.597 6.81l17.36 40.576-21-.144L14.59 46.73S7.31 35.346.31 35.965z" stroke="#F4AD3A" stroke-width="2.896" mask="url(#J)"/></g></g><path d="M304.518 172.718h-133.85c-3.863-5.86-10.355-9.718-17.71-9.718-7.35 0-13.844 3.86-17.705 9.718H4.483c-2.476 0-4.483 2.075-4.483 4.64C0 179.925 2.007 182 4.483 182h136.441c1.13-4.557 4.585-8.126 8.99-9.282.98-.258 1.99-.436 3.045-.436s2.064.178 3.043.436c4.406 1.156 7.86 4.725 8.99 9.282h139.524c2.477 0 4.482-2.076 4.482-4.64 0-2.567-2.005-4.642-4.482-4.642" fill="#2A1247"/><g transform="translate(49 57)"><mask id="L" fill="#fff"><use xlink:href="#K"/></mask><path d="M71.94 81.622c-20.807 0-42.23.23-63.037.23-37.75-31.49 65.54-52.05 27.772-83.556h8.11C53.99 3.303 66.03 9.312 65.61 21.64c-.23 6.71-4.07 12.655-7.246 18.32-3.376 6.022-7.92 12.948-7.343 20.238.882 11.187 15.938 11.546 20.92 21.424" fill="#2AA296" mask="url(#L)"/></g><g transform="translate(58 131)"><mask id="N" fill="#fff"><use xlink:href="#M"/></mask><path fill="#008373" mask="url(#N)" d="M.05 4.79v51.054l56.604-4.49V0L46.048-2.036 4.856 3.594"/></g><g><path d="M81.5 154.057c-.99 0-1.8-.455-1.8-1.01v-12.963c0-.556.81-1.01 1.8-1.01.993 0 1.804.454 1.804 1.01v12.962c0 .556-.81 1.01-1.803 1.01M109.54 160.795c-.99 0-1.802-.537-1.802-1.194v-15.308c0-.656.81-1.193 1.802-1.193.99 0 1.802.536 1.802 1.192v15.31c0 .656-.81 1.193-1.802 1.193M101.275 152.55c-.992 0-1.802-.197-1.802-.44v-15.158c0-.242.81-.44 1.802-.44s1.802.198 1.802.44v15.16c0 .24-.81.44-1.802.44M88.843 150.49c-.99 0-1.802-.27-1.802-.597v-7.64c0-.328.812-.596 1.803-.596.99 0 1.803.268 1.803.596v7.64c0 .328-.812.596-1.803.596" fill="#2AA296"/><path d="M91.99 152.392c-.99 0-1.802-.198-1.802-.44v-5.645c0-.242.81-.44 1.802-.44s1.803.198 1.803.44v5.645c0 .242-.81.44-1.803.44" fill="#2AA296"/><path d="M93.783 146.284c0 1.006-.808 1.82-1.802 1.82s-1.802-.814-1.802-1.82c0-1.006.808-1.82 1.803-1.82.995 0 1.803.814 1.803 1.82M87.646 161.952c.99 0 1.803.27 1.803.596v7.64c0 .328-.813.596-1.804.596-.99 0-1.802-.268-1.802-.595v-7.642c0-.327.81-.596 1.802-.596" fill="#2AA296"/><path d="M84.805 160.05c.992 0 1.802.198 1.802.44v5.645c0 .242-.81.44-1.802.44s-1.802-.198-1.802-.44v-5.645c0-.242.81-.44 1.802-.44M83 168.906c0-1.006.808-1.82 1.802-1.82.996 0 1.804.814 1.804 1.82 0 1.006-.808 1.82-1.804 1.82-.994 0-1.8-.814-1.8-1.82M64.447 165.513c-.99 0-1.802-.455-1.802-1.01v-17.72c0-.556.81-1.01 1.802-1.01s1.802.454 1.802 1.01v17.72c0 .555-.81 1.01-1.803 1.01M71.79 157.188c-.992 0-1.803-.268-1.803-.596v-7.64c0-.328.81-.596 1.802-.596.99 0 1.8.268 1.8.596v7.64c0 .328-.81.596-1.8.596M73.6 159.68c0 1.004-.805 1.82-1.8 1.82-.996 0-1.804-.816-1.804-1.82 0-1.006.808-1.82 1.803-1.82.995 0 1.8.814 1.8 1.82M97.39 175.026c-.992 0-1.802-.455-1.802-1.01v-12.963c0-.556.81-1.01 1.802-1.01.99 0 1.802.454 1.802 1.01v12.962c0 .556-.81 1.01-1.802 1.01M104.732 171.458c-.99 0-1.802-.268-1.802-.596v-7.64c0-.328.81-.595 1.802-.595.99 0 1.802.267 1.802.595v7.64c0 .328-.81.596-1.802.596M106.544 173.95c0 1.005-.807 1.82-1.802 1.82s-1.803-.815-1.803-1.82c0-1.006.807-1.82 1.802-1.82s1.802.814 1.802 1.82M111.343 141.65c0 1.005-.807 1.82-1.802 1.82-.994 0-1.802-.815-1.802-1.82 0-1.006.808-1.82 1.803-1.82.996 0 1.803.814 1.803 1.82M72.48 184.896c-.992 0-1.803-.537-1.803-1.194v-15.31c0-.656.81-1.193 1.802-1.193.99 0 1.802.536 1.802 1.193v15.31c0 .656-.812 1.193-1.803 1.193" fill="#2AA296"/><path d="M74.282 165.75c0 1.005-.806 1.82-1.802 1.82-.995 0-1.802-.815-1.802-1.82 0-1.005.807-1.82 1.802-1.82.996 0 1.802.815 1.802 1.82" fill="#2AA296"/><path d="M84.413 177.332c.935-1.65 2.683-2.762 4.686-2.762 2.95 0 5.347 2.41 5.406 5.406l.056-.002c2.383 0 4.314 1.97 4.314 4.4 0 2.432-1.93 4.403-4.314 4.403H77.71c-1.908 0-3.455-1.58-3.455-3.526 0-1.914 1.497-3.47 3.362-3.52-.054-.28-.083-.566-.083-.86 0-2.43 1.932-4.4 4.314-4.4.96 0 1.85.32 2.565.862M63.802 176.735c.624-1.1 1.79-1.842 3.124-1.842 1.967 0 3.566 1.608 3.606 3.605h.038c1.588 0 2.876 1.313 2.876 2.933 0 1.623-1.288 2.937-2.876 2.937H59.332c-1.272 0-2.304-1.053-2.304-2.35 0-1.278.998-2.316 2.242-2.35-.036-.185-.055-.377-.055-.573 0-1.62 1.288-2.934 2.876-2.934.642 0 1.234.213 1.712.575" fill="#FFF"/><path d="M71.264 182.593c.352-.622 1.01-1.04 1.765-1.04 1.11 0 2.013.907 2.035 2.036.007-.002.014-.002.02-.002.9 0 1.626.742 1.626 1.658 0 .916-.726 1.658-1.624 1.658H68.74c-.72 0-1.302-.595-1.302-1.328 0-.72.563-1.308 1.266-1.327-.02-.106-.03-.214-.03-.324 0-.916.726-1.658 1.623-1.658.363 0 .697.12.967.325M99.7 183.068c.353-.62 1.01-1.04 1.765-1.04 1.11 0 2.014.908 2.037 2.036h.02c.898 0 1.626.742 1.626 1.657 0 .917-.728 1.66-1.625 1.66h-6.348c-.718 0-1.3-.595-1.3-1.33 0-.72.563-1.306 1.265-1.325-.02-.105-.03-.213-.03-.324 0-.914.726-1.656 1.624-1.656.362 0 .696.12.966.324" fill="#FFF"/><path d="M107.802 177.11c.624-1.1 1.79-1.84 3.125-1.84 1.967 0 3.566 1.606 3.606 3.604l.037-.002c1.59 0 2.877 1.315 2.877 2.935s-1.288 2.936-2.877 2.936h-11.237c-1.273 0-2.304-1.053-2.304-2.35 0-1.278.997-2.316 2.24-2.35-.036-.186-.055-.377-.055-.573 0-1.62 1.288-2.935 2.877-2.935.64 0 1.233.214 1.71.575" fill="#FFF"/><path d="M241.754 100.706h-5.007c-.59 0-1.072-.82-1.072-1.82s.483-1.82 1.072-1.82h5.007c.59 0 1.073.82 1.073 1.82s-.483 1.82-1.073 1.82" fill="#000"/><path d="M249.833 80.328c0 6.065-4.818 10.98-10.76 10.98-5.945 0-10.763-4.915-10.763-10.98s4.818-10.98 10.762-10.98c5.943 0 10.76 4.915 10.76 10.98" fill="#008373"/><path d="M240.104 88.284l-.218-3.492 5.576-7.833-5.71 5.68-.207-3.3 3.352-4.708-3.433 3.414-.368-5.886-.3 5.813-3.36-3.34 3.294 4.625-.173 3.356-5.685-5.655 5.574 7.83-.182 3.527-4.062-4.04 3.982 5.594-.42 8.13s1.474.92 2.947 0l-.51-8.197 3.932-5.525-4.028 4.006z" fill="#2AA296"/><path d="M219.28 112.527h-7.344c-.865 0-1.573-.82-1.573-1.82s.708-1.82 1.573-1.82h7.343c.864 0 1.572.82 1.572 1.82s-.708 1.82-1.573 1.82" fill="#000"/><path d="M231.127 84.34c0 8.895-7.066 16.105-15.782 16.105-8.716 0-15.782-7.21-15.782-16.104 0-8.893 7.066-16.103 15.782-16.103 8.716 0 15.782 7.21 15.782 16.104" fill="#008373"/><path d="M216.858 96.008l-.32-5.12 8.18-11.488-8.377 8.33-.302-4.837 4.916-6.906-5.034 5.008-.54-8.634-.44 8.527-4.925-4.9 4.83 6.784-.254 4.923-8.337-8.293 8.173 11.482-.266 5.175-5.957-5.924 5.84 8.203-.614 11.92s2.16 1.35 4.32 0l-.752-12.02 5.768-8.103-5.908 5.875zM77.81 192.2c0 1.005-.808 1.82-1.803 1.82-.995 0-1.802-.815-1.802-1.82 0-1.004.807-1.82 1.802-1.82s1.803.816 1.803 1.82" fill="#2AA296"/><path d="M97.96 205.7c-1.97.136-3.972.206-6 .206-8.817 0-17.14-1.313-24.484-3.64" stroke="#2AA296" stroke-width="5.433" stroke-linecap="round"/><path d="M103.732 205.063c0 1.005-.807 1.82-1.803 1.82-.996 0-1.803-.815-1.803-1.82 0-1.005.807-1.82 1.802-1.82s1.802.815 1.802 1.82M67.088 190.267c0 1.005-.807 1.82-1.802 1.82s-1.802-.815-1.802-1.82c0-1.005.807-1.82 1.802-1.82s1.802.815 1.802 1.82M140.684 194.876c0 1.005-.807 1.82-1.802 1.82-.996 0-1.802-.815-1.802-1.82 0-1.005.806-1.82 1.802-1.82.995 0 1.802.815 1.802 1.82M157.835 190.53c0 1.006-.806 1.82-1.803 1.82-.995 0-1.802-.814-1.802-1.82 0-1.003.807-1.818 1.802-1.818.997 0 1.803.815 1.803 1.82M174.09 190.032c0 1.004-.81 1.82-1.804 1.82-.996 0-1.802-.816-1.802-1.82 0-1.005.806-1.82 1.802-1.82.995 0 1.803.815 1.803 1.82" fill="#2AA296"/></g><g><path d="M128.27 110.767c.056.87.473 1.685 1.163 2.23l6.308 3.333 2.248-2.875-2.446-2.31 12.5-5.678-6.68-4.02-11.426 6.36c-.93.477-1.556 1.403-1.66 2.455-.015.17-.017.338-.006.505" fill="#F7CAA7"/><path d="M142.308 113.463c-1.303 1.52-2.81.03-2.81.03l-1.056.517.72 3.083c.038-.147.067-.25.085-.285.136-.22.652-.34 1.162-.227 1.362.744 2.277-1.782 1.898-3.117" fill="#DEB695"/><path d="M128.27 110.767c.056.87.473 1.685 1.163 2.23l6.308 3.333 2.248-2.875-2.446-2.31 12.5-5.678-6.68-4.02-11.426 6.36c-.93.477-1.556 1.403-1.66 2.455-.015.17-.017.338-.006.505" fill="#F7CAA7"/><path d="M128.277 110.262c.102-1.052.728-1.978 1.66-2.453l11.426-6.363 1.075.287s-12.502 6.075-14.16 8.528" fill="#F9D5B9"/><path fill="#DEB695" d="M148.04 105.468l-12.498 5.677-.618-.69 11.286-6.09"/><path d="M183.58 110.767c-.055.87-.473 1.685-1.162 2.23l-6.308 3.333-2.247-2.875 2.446-2.31-12.5-5.678 6.678-4.02 11.426 6.36c.932.477 1.556 1.403 1.66 2.455.016.17.018.338.007.505" fill="#F7CAA7"/><path d="M169.542 113.463c1.304 1.52 2.81.03 2.81.03l1.056.517-.72 3.083c-.038-.147-.066-.25-.084-.285-.136-.22-.652-.34-1.162-.227-1.363.744-2.278-1.782-1.9-3.117" fill="#DEB695"/><path d="M183.58 110.767c-.055.87-.473 1.685-1.162 2.23l-6.308 3.333-2.247-2.875 2.446-2.31-12.5-5.678 6.678-4.02 11.426 6.36c.932.477 1.556 1.403 1.66 2.455.016.17.018.338.007.505" fill="#F7CAA7"/><path d="M183.573 110.262c-.1-1.052-.727-1.978-1.66-2.453l-11.425-6.363-1.075.287s12.5 6.075 14.16 8.528" fill="#DEB695"/><path fill="#F9D5B9" d="M163.81 105.468l12.5 5.677.617-.69-11.287-6.09"/><path d="M121.38 130.097c2.882 10.36 11.294 24.442 33.878 24.442 22.582 0 30.996-14.083 33.88-24.443l-34.286-2.838-33.473 2.837z" fill="#32135A"/><path d="M154.853 127.26l34.284 2.836c-2.77 9.956-10.653 23.337-31.296 24.372 16.435-2.98 23.096-14.747 25.595-23.728l-34.285-2.837 5.703-.644z" fill="#220C3D"/><path d="M152.916 144.12c0 2.91-2.324 5.27-5.192 5.27-2.867 0-5.192-2.36-5.192-5.27 0-2.912 2.325-5.272 5.192-5.272 2.868 0 5.192 2.36 5.192 5.27" fill="#F7CAA7"/><path d="M149.78 190.862s-.515 1.723-2.053 1.723c-1.538 0-2.052-1.723-2.052-1.723l-3.143-46.675h10.39l-3.143 46.675z" fill="#F7CAA7"/><path d="M147.727 192.585c1.5 0 2.05-1.723 2.05-1.723l3.144-46.674-.937 2.174s-3.307 45.996-4.256 46.223" fill="#DEB695"/><path d="M147.727 192.585c-1.5 0-2.052-1.723-2.052-1.723l-3.142-46.674.938 2.174s3.308 45.996 4.257 46.223" fill="#F9D5B9"/><path d="M166.94 144.12c0 2.91-2.324 5.27-5.192 5.27-2.867 0-5.192-2.36-5.192-5.27 0-2.912 2.325-5.272 5.192-5.272 2.868 0 5.192 2.36 5.192 5.27" fill="#F7CAA7"/><path d="M163.803 190.862s-.514 1.723-2.052 1.723-2.05-1.723-2.05-1.723l-3.144-46.675h10.39l-3.143 46.675z" fill="#F7CAA7"/><path d="M161.75 192.585c1.502 0 2.052-1.723 2.052-1.723l3.143-46.674-.938 2.174s-3.307 45.996-4.256 46.223" fill="#DEB695"/><path d="M161.75 192.585c-1.5 0-2.05-1.723-2.05-1.723l-3.143-46.674.938 2.174s3.307 45.996 4.256 46.223" fill="#F9D5B9"/><path d="M154.072 127.776l8.29.104-7.51-.62-33.474 2.837c.24.857.52 1.742.84 2.64l31.854-4.96z" fill="#8562AD"/><path d="M167.19 108.6l4.544-7.342s-4.008-7.327-14.164-7.327h-4.625c-10.154 0-14.164 7.328-14.164 7.328l4.545 7.342 5.3 20.983s2.28 2.12 6.633 2.12c4.352 0 6.695-2.12 6.695-2.12l5.238-20.983z" fill="#FFF"/><path d="M157.57 93.93h-1.18c10.157 0 14.166 7.327 14.166 7.327l-4.544 7.343-5.672 20.983s-1.7 1.925-5.67 2.104c.192.008.385.018.588.018 4.352 0 6.695-2.122 6.695-2.122l5.238-20.983 4.545-7.343s-4.008-7.327-14.165-7.327" fill="#DEDEDE"/><path d="M141.63 107.447s14.123-2.374 14.123 3.12h-2.834l-11.29-3.12zM169.877 107.447s-14.124-2.374-14.124 3.12h2.833l11.29-3.12z" fill="#EBF4EF"/><path d="M152.92 110.417s2.54 1.02 5.292 0v21.816s-2.382 1.773-5.293 0v-21.816z" fill="#C53D42"/><path d="M158.21 110.417h-5.29s2.54 7.472 5.29 0" fill="#900006"/><path d="M152.92 111.33s2.656 1.303 5.292 0v2.773s-2.293 1.93-5.293 0v-2.772zM152.92 128.33s2.656 1.304 5.292 0v2.773s-2.293 1.932-5.293 0v-2.772z" fill="#AF0007"/><path fill="#AF0007" d="M140.747 107.193v19.99l12.172 5.05v-21.816"/><path d="M141.38 126.47l10.905 4.524v-19.698l-10.904-2.888v18.06zm11.145 4.887l-11.384-4.724v-18.54l.152.04 11.233 2.974v20.25z" fill="#900006"/><path fill="#AF0007" d="M170.383 107.193v19.99l-12.17 5.05v-21.816"/><path d="M169.75 108.408l-10.905 2.888v19.698l10.904-4.525v-18.062zm-11.145 2.7l11.234-2.976.15-.04v18.54l-11.385 4.725v-20.25z" fill="#900006"/><path d="M171.545 116.333c-.098-.624-.364-1.05-.66-.993l-3.03.565c-.358.066-.625.806-.597 1.65.027.836.342 1.474.7 1.406l3.03-.562c.357-.07.625-.806.596-1.65-.005-.145-.018-.284-.04-.415" fill="#F7CAA7"/><path d="M171.697 117.977c-.098-.618-.363-1.034-.658-.983l-3.397.594c-.358.064-.626.794-.6 1.63.026.827.34 1.463.698 1.398l3.396-.594c.358-.063.627-.79.6-1.627-.004-.145-.018-.285-.04-.418" fill="#F7CAA7"/><path d="M171.818 119.565c-.114-.547-.39-.898-.684-.812l-3.01.873c-.356.104-.605.8-.556 1.553.047.745.375 1.28.732 1.178l3.01-.87c.357-.106.606-.8.557-1.555-.008-.13-.024-.253-.05-.368" fill="#F7CAA7"/><path d="M171.573 121.606c1.023-.62 5.28-3.463 4.66-7.528-.22-1.03-1.3-.89-2.79-.525-1.492.367-3.02 1.938-3.02 1.938l.91 6.093s.102.107.24.023" fill="#F7CAA7"/><path d="M170.18 121.015l2.762-.75v2.963l-2.352.64c-.574.156-1.13-.366-1.24-1.145-.114-.787.26-1.553.83-1.708M140.305 116.333c.1-.624.365-1.05.66-.993l3.03.565c.36.066.626.806.598 1.65-.028.836-.342 1.474-.7 1.406l-3.03-.562c-.357-.07-.625-.806-.597-1.65.006-.145.02-.284.04-.415" fill="#F7CAA7"/><path d="M140.153 117.977c.1-.618.364-1.034.66-.983l3.394.594c.36.064.627.794.6 1.63-.025.827-.34 1.463-.697 1.398l-3.395-.594c-.36-.063-.627-.79-.6-1.627.004-.145.017-.285.038-.418" fill="#F7CAA7"/><path d="M140.032 119.565c.114-.547.39-.898.685-.812l3.01.873c.356.104.605.8.556 1.553-.047.745-.376 1.28-.733 1.178l-3.01-.87c-.357-.106-.605-.8-.557-1.555.008-.13.025-.253.05-.368" fill="#F7CAA7"/><path d="M140.277 121.606c-1.023-.62-5.28-3.463-4.66-7.528.22-1.03 1.3-.89 2.792-.525 1.49.367 3.018 1.938 3.018 1.938l-.91 6.093s-.102.107-.24.023" fill="#F7CAA7"/><path d="M143.06 121.015l-2.764-.75v2.963l2.352.64c.574.156 1.13-.366 1.24-1.145.115-.787-.258-1.553-.83-1.708" fill="#F7CAA7"/><path d="M151.446 85.685v9.28c0 2.136 1.707 3.87 3.813 3.87 2.104 0 3.81-1.734 3.81-3.87v-9.28h-7.624z" fill="#E3C4AC"/><path d="M167.13 76.186c-.247 6.657-5.762 11.85-12.32 11.6-6.555-.25-11.67-5.85-11.424-12.508.247-6.657 5.762-11.85 12.32-11.6 6.556.25 11.67 5.85 11.425 12.508" fill="#000"/><path d="M162.898 61.06c-.16 4.283-3.707 7.625-7.928 7.464-4.22-.162-7.51-3.765-7.353-8.05.16-4.284 3.71-7.626 7.928-7.465 4.22.16 7.512 3.763 7.353 8.05" fill="#000"/><path d="M167.26 79.415c-.007 1.352-1.093 2.44-2.423 2.43-1.33-.006-2.402-1.11-2.395-2.46.01-1.35 1.096-2.44 2.425-2.43 1.33.008 2.403 1.11 2.394 2.46" fill="#F9D5B9"/><path d="M164.53 77.52c1.33.01 2.4 1.11 2.393 2.462-.003.338-.072.66-.197.952.332-.415.532-.943.535-1.518.01-1.35-1.062-2.453-2.393-2.463-.996-.006-1.857.604-2.228 1.48.444-.56 1.125-.917 1.89-.913" fill="#E3C4AC"/><path d="M143.255 79.262c-.008 1.35 1.064 2.452 2.394 2.46 1.33.01 2.415-1.08 2.422-2.43.008-1.35-1.063-2.45-2.394-2.46-1.33-.01-2.416 1.08-2.423 2.43" fill="#F9D5B9"/><path d="M146.012 77.4c-1.332-.007-2.417 1.08-2.427 2.432 0 .34.065.663.186.955-.326-.418-.52-.95-.515-1.525.007-1.35 1.094-2.44 2.423-2.43 1 .006 1.85.626 2.21 1.506-.437-.566-1.114-.933-1.876-.937" fill="#E3C4AC"/><path d="M164.96 74.123c.005-.72-.525-1.313-1.172-1.317l-16.974-.108c-.65-.005-1.184.582-1.188 1.3l-.066 10.708c0 .056.006.117.01.175-.006.075-.012.147-.013.22-.004.755.298 1.43.776 1.883 0 .002.003.005.005.005l.005.004c.207.193.443.342.703.44l5.742 3.61c.25.537.768.975 1.15.98l2.488.014c.382.005.903-.43 1.162-.963l5.786-3.535c.26-.095.5-.243.71-.432l.002-.003c.002 0 .002-.004.003-.005.485-.447.796-1.12.8-1.873 0-.074-.002-.147-.01-.22.006-.06.013-.12.014-.175l.065-10.707z" fill="#F7CAA7"/><path d="M152.788 91.043l-5.09-3.61c-.258-.098-.495-.25-.702-.44l-.004-.005c-.002 0-.003-.003-.005-.004-.48-.453-.78-1.13-.776-1.883 0-.073.007-.146.013-.22-.002-.058-.008-.118-.01-.175L146.28 74c.004-.707.52-1.28 1.15-1.298l-.616-.004c-.65-.004-1.184.58-1.188 1.302l-.066 10.705c0 .057.006.117.008.176-.004.074-.01.147-.01.22-.005.755.296 1.43.775 1.884l.005.004.005.004c.207.192.443.343.703.44l5.742 3.61c.252.536.252.536 0 0" fill="#F9D5B9"/><path d="M164.96 74.123c.003-.535-.656 10.064-.656 10.064 0 .055-.007.115-.013.174.007.074.012.147.012.222-.005.753-.63 1.612-.802 1.772-.172.158-.452.328-.715.54-.262.213-4.684 3.784-5.197 4.18l5.786-3.536c.26-.095.5-.243.71-.432l.002-.003c.002 0 .002-.004.003-.005.485-.447.796-1.12.8-1.873 0-.074-.002-.147-.01-.22.006-.06.013-.12.014-.175l.065-10.707z" fill="#E3C4AC"/><path d="M152.613 82.492c.47.003.916.136 1.317.36.285-.384.466-.884.467-1.44.01-1.202-.795-2.18-1.793-2.19-1.002-.006-1.815.96-1.82 2.163-.004.566.177 1.08.47 1.467.415-.227.872-.364 1.36-.36M159.335 82.492c.47.003.916.136 1.317.36.287-.384.467-.884.467-1.44.008-1.202-.796-2.18-1.794-2.19-1.002-.006-1.815.96-1.82 2.163-.004.566.177 1.08.47 1.467.415-.227.872-.364 1.36-.36" fill="#32135A"/><path d="M145.443 74.743v3.668s12.4-.363 13.337-8.52c-13.933 1.378-13.933 1.82-13.933 1.82" fill="#000"/><path d="M165.458 75.18v1.812s-7.07-.05-7.55-4.224c3.482-2.008 6.7-3.334 6.7-3.334" fill="#000"/><path d="M152.074 85.167s.727 3.63 3.277 3.63c2.55 0 3.27-3.63 3.27-3.63h-6.546z" fill="#DEB695"/><path d="M152.427 85.167c.584 2.17 1.673 3.63 2.923 3.63 1.248-.003 2.333-1.463 2.916-3.63h-5.84z" fill="#FFF"/></g><g transform="translate(154 79)"><mask id="P" fill="#fff"><use xlink:href="#O"/></mask><path d="M3.823 3.822L3.846.14C2.704.137 1.738.46 1.578.895L.508 3.82l3.315.002z" fill="#F9D5B9" mask="url(#P)"/></g></g></svg>