<svg width="192" height="223" viewBox="0 0 192 223" xmlns="http://www.w3.org/2000/svg" xmlns:xlink="http://www.w3.org/1999/xlink"><defs><path id="a" d="M.436 355.96h219.7V.972H.436z"/></defs><g fill="none" fill-rule="evenodd"><path fill="#E0BB8D" d="M129.31 97.34h27.645V74.527H129.31"/><path fill="#C3986F" d="M129.31 85.955l27.636-5.28-27.636 13.576"/><g transform="translate(-29 -.933)"><path d="M196.487 43.472c-3.527-19.727-22.38-32.857-42.104-29.37l-33.345 5.724s-3.96 30.67-4.395 31.986c-.436 3.92-2.615 7.01-6.14 9.197l.873 7.024 8.79-1.346 4.397 25.863 42.103-7.45v.442c.428 0 .428-.443.428-.443 19.723-3.49 32.448-21.902 29.393-41.628z" fill="#E0BB8D"/><path d="M168.836 3.59l-30.253 5.25-10.97-7.867 1.744 9.642-13.587-9.2 3.526 19.713c1.743 10.084 11.405 17.11 21.467 16.192l4.833 29.368 10.102-1.746-2.214-11.386 28.95 28.924 22.38 6.152-12.727-68.806c-1.74-10.986-12.267-17.98-23.25-16.236" fill="#000"/><path d="M151.298 40.41l3.528 21.043c5.698-.873 9.625-6.595 8.755-12.273-.87-5.708-6.583-9.642-12.282-8.77" fill="#C3986F"/><path d="M130.7 57.046c0 1.347-.907 2.662-2.65 2.662-1.308 0-2.616-1.315-2.616-2.662 0-1.744 1.308-2.617 2.615-2.617 1.743 0 2.65.872 2.65 2.616M121.474 74.584l1.308 8.77c6.576-1.316 11.405-5.68 13.15-11.387l-14.458 2.617z" fill="#FFF"/><path d="M138.584 75.013c.872-1.744.872-3.49-.438-4.79-1.305-1.317-3.52-1.745-4.83-.872l5.268 5.663z" fill="#C3986F"/><path d="M48.677 203.9c-10.098 0-18.416 8.298-18.416 18.848 0 10.08 8.32 18.376 18.417 18.376h118.417c10.497 0 18.852-8.295 18.852-18.376V203.9H48.676z" fill="#00188F"/><path d="M171.937 95.183c-28.958 0-32.918 33.332-32.918 54.358v54.804h46.927V95.184h-14.01z" fill="#424242"/><mask id="b" fill="#fff"><use xlink:href="#a"/></mask><path fill="#00188F" mask="url(#b)" d="M30.26 329.25H69.27V221.84H30.26"/><path d="M195.144 94.74c5.27 0 9.67 3.963 9.67 9.642v98.616c0 5.27-4.4 9.636-9.67 9.636V94.74z" fill="#00BCF2" mask="url(#b)"/><path d="M142.98 260.41h53.507c8.326 0 15.766-6.987 15.766-15.756v-84.6h-7.012v84.6c0 4.802-3.954 8.77-8.753 8.77H142.98v6.986z" fill="#000" mask="url(#b)"/><path d="M205.242 151.287h7.884c3.955 0 7.04 3.062 7.04 7.025v3.488c0 3.963-3.085 7.025-7.04 7.025h-7.884v-17.538zM51.293 198.193l68.437 3.045v2.662H51.293" fill="#000" mask="url(#b)"/><path fill="#000" mask="url(#b)" d="M46.933 200.366l-17.546-66.188 1.744-.43 21.506 64.444"/><path d="M46.933 199.494c0-2.174 2.18-3.918 4.36-3.918 2.65 0 4.394 1.744 4.394 3.918 0 2.617-1.743 4.406-4.395 4.406-2.18 0-4.36-1.79-4.36-4.406" fill="#000" mask="url(#b)"/><path d="M180.69 192.914c0 6.152-5.27 11.43-11.41 11.43-6.14 0-11.412-5.278-11.412-11.43V121.49c0-6.15 5.27-10.957 11.41-10.957 6.142 0 11.413 4.806 11.413 10.958v71.424z" fill="#E0BB8D" mask="url(#b)"/><path d="M169.28 181.527c6.14 0 11.41 4.837 11.41 11.386 0 6.152-5.27 11.43-11.41 11.43h-64.914c-6.14 0-10.97-5.278-10.97-11.43 0-6.55 4.83-11.386 10.97-11.386h64.913z" fill="#E0BB8D" mask="url(#b)"/><path d="M128.05 204.344H82.895c0-12.746 10.06-22.817 22.34-22.817 12.713 0 22.813 10.07 22.813 22.817" fill="#E0BB8D" mask="url(#b)"/><path fill="#000" mask="url(#b)" d="M117.515 204.344h10.534V181.53h-10.535"/><path fill="#424242" mask="url(#b)" d="M157.44 153.476h28.515V109.23H157.44"/></g></g></svg>