<svg width="180" height="221" viewBox="0 0 180 221" xmlns="http://www.w3.org/2000/svg" xmlns:xlink="http://www.w3.org/1999/xlink"><defs><path id="a" d="M.383 396.794h168.224V.386H.383z"/></defs><g transform="translate(6 3.82)" fill="none" fill-rule="evenodd"><mask id="b" fill="#fff"><use xlink:href="#a"/></mask><path fill="#6D4929" mask="url(#b)" d="M78.512 101.403h54.507v-32.65H78.51"/><path d="M138.846 48.04c0 1.908-1.575 3.44-3.108 3.44H75.79c-1.92 0-3.49-1.532-3.49-3.44v-7.315c0-1.906 1.57-3.06 3.49-3.06h59.948c1.533 0 3.108 1.154 3.108 3.06v7.316z" fill="#C3986F" mask="url(#b)"/><path fill="#E0BB8D" mask="url(#b)" d="M105.555 106.035L93.97 94.892V67.99h23.204v26.902"/><path d="M93.97 80.69c3.872 1.153 7.36 1.53 11.586 1.53 3.874 0 7.746-.377 11.618-1.53V62.243H93.97V80.69z" fill="#C3986F" mask="url(#b)"/><path d="M78.51 26.522v42.234c7.33 5.772 16.997 8.833 27.045 8.833 10.082 0 20.132-3.062 27.463-8.834V26.522H78.51z" fill="#E0BB8D" mask="url(#b)"/><path d="M116.79 3.097C113.3 1.54 109.813.774 105.554.774 90.48.774 78.127 13.06 78.127 28.052v13.44c20.483-2.298 36.326-18.446 38.663-38.395" fill="#6D4929" mask="url(#b)"/><path d="M94.354 3.097c3.49-1.557 7.36-2.323 11.2-2.323 15.108 0 27.464 12.285 27.464 27.278v13.44c-20.1-2.298-36.328-18.446-38.664-38.395" fill="#6D4929" mask="url(#b)"/><path d="M47.56 205.9H35.944l-16.61-19.21h25.124v-47.63h19.748v50.3c0 9.223-7.362 16.54-16.644 16.54M145.793 254.28h19.715V137.91h-19.715M69.613 118.32h71.15V89.116h-71.15" fill="#E0BB8D" mask="url(#b)"/><path d="M141.916 89.12h-2.693c-5.41 13.464-18.56 23.036-34.05 23.036-15.46 0-28.615-9.572-34.023-23.035h-2.306c-15.105 0-27.076 11.896-27.076 26.903v60.665h22.436v-38.395h4.64v203.19l54.508-43.408 18.94 41.49V138.294h3.5v35.722h22.815v-57.992c0-15.007-12.006-26.902-26.69-26.902" fill="#00BCF2" mask="url(#b)"/><path fill="#00188F" mask="url(#b)" d="M68.845 189.75h73.452v-8.808H68.845"/><path d="M55.306 186.69h-39.08c0 10.75 8.9 19.208 19.718 19.208 10.848 0 19.362-8.457 19.362-19.21" fill="#E0BB8D" mask="url(#b)"/><path d="M27.078 209.725c0 .766-.416 1.154-1.186 1.154H1.152c-.385 0-1.153-.39-1.153-1.155v-51.443c0-.766.767-1.18 1.152-1.18h24.74c.77 0 1.186.414 1.186 1.18v51.443z" fill="#000" mask="url(#b)"/><path fill="#00BCF2" mask="url(#b)" d="M3.072 187.83h20.9v-10.757h-20.9"/><path fill="#FFB900" mask="url(#b)" d="M3.072 204.368h20.9v-16.532h-20.9M3.072 177.077h10.465v-9.99H3.072"/><path fill="#FFF" mask="url(#b)" d="M13.54 177.077H23.97v-9.99H13.54"/><path fill="#000" mask="url(#b)" d="M25.893 203.602h1.568v-6.543h-1.567"/><path d="M16.996 161.343c0 .376 0 .376-.385.376h-5.407c-.385 0-.385 0-.385-.377 0-.388 0-.388.385-.388h5.408c.386 0 .386 0 .386.388" fill="#A7A7A7" mask="url(#b)"/><path d="M13.922 188.985c0 1.557 1.153 2.71 2.69 2.71h15.106c1.15 0 2.304-1.153 2.304-2.71 0-1.154-1.153-2.295-2.304-2.295H16.61c-1.535 0-2.688 1.14-2.688 2.295" fill="#E0BB8D" mask="url(#b)"/><path d="M103.252 71.467h5.025c3.104 0 6.176-3.1 6.176-6.55l-8.898.765-8.866-.765c0 3.45 3.458 6.55 6.562 6.55" fill="#F472D0" mask="url(#b)"/><path d="M96.69 64.917c2.306 2.685 5.41 4.255 8.864 4.255 3.49 0 6.98-1.57 9.283-4.255l-9.283 1.154-8.864-1.153z" fill="#F2F2F2" mask="url(#b)"/><path d="M110.196 63.775c-1.536 0-3.07.376-4.642 1.532-1.15-1.156-2.687-1.532-4.64-1.532-1.536 0-3.072.376-4.225 1.14 2.688 1.155 5.792 1.533 8.864 1.533 3.106 0 6.21-.378 8.9-1.532-1.154-.765-2.304-1.14-4.258-1.14" fill="#B4009E" mask="url(#b)"/><path d="M90.865 48.807c0 1.14-.768 1.906-1.92 1.906s-1.952-.765-1.952-1.906c0-1.154.8-1.946 1.95-1.946 1.154 0 1.922.793 1.922 1.947M124.536 48.807c0 1.14-.8 1.906-1.954 1.906-1.15 0-1.92-.765-1.92-1.906 0-1.154.77-1.946 1.92-1.946 1.153 0 1.954.793 1.954 1.947" fill="#F2F2F2" mask="url(#b)"/><path d="M101.33 56.46c.386 1.53 2.306 3.1 4.225 3.1 1.954 0 3.874-1.57 4.257-3.1h-8.482z" fill="#C3986F" mask="url(#b)"/></g></svg>