<svg width="194" height="229" viewBox="0 0 194 229" xmlns="http://www.w3.org/2000/svg"><g fill="none" fill-rule="evenodd"><path d="M179.2 169.003c-4.604 2.45-6.446 8.267-3.684 12.86 2.456 4.592 8.287 6.43 12.89 3.98 4.604-2.45 6.446-8.267 3.99-12.86-2.455-4.9-8.286-6.43-13.197-3.98zM146.053 135.935c3.376 6.123 11.355 8.573 17.8 4.9 6.446-3.37 8.594-11.33 5.218-17.76-3.682-6.43-11.662-8.573-18.107-5.205-6.445 3.674-8.593 11.635-4.91 18.065z" fill="#5C2D91"/><path fill="#5C2D91" d="M169.07 123.075l23.327 49.908-16.88 8.88-29.77-45.928"/><path d="M105.54 294.844c-.307 5.206 3.99 9.492 8.9 9.492 5.218.306 9.515-3.674 9.822-8.88l8.286-67.666c.307-8.573-6.445-15.615-15.04-15.615-8.285-.613-15.65 6.123-15.958 14.39l3.99 68.28z" fill="#613D30"/><path d="M160.17 294.538c.308 5.205-3.682 9.798-8.9 9.798-4.91.306-9.514-3.674-9.514-8.573l-9.822-67.667c-.306-8.573 6.446-15.615 14.732-15.92 8.594-.614 15.96 5.816 16.267 14.39l-2.762 67.972z" fill="#613D30"/><path d="M136.538 296.07l-.92 80.832h15.652l12.584-79.302.307-82.976-32.532-8.573c-8.594 24.802 5.524 61.544 4.91 90.02z" fill="#401467"/><path fill="#401467" d="M130.093 376.902H115.36l-15.038-81.14 1.228-88.793h30.69l-4.295 89.405"/><path d="M51.523 61.838c-1.535-9.798-.307-13.166 2.762-21.127 1.842-4.898 3.683-5.816 3.99-3.06.614-5.512 4.91-7.35 4.604-3.675.613-1.225 2.147-3.062 3.682-2.143 1.227.612 0 3.368-.614 4.287 1.534 0 3.376 1.223 1.534 4.897-1.227 2.756-.92 5.205-.92 5.205 2.455-2.45 4.296-2.45 4.91-.918-1.84 3.368-3.376 8.88-6.138 13.166-.307.918-.92 1.53-1.535 2.143l-2.15 22.352-11.048-6.736.92-14.392z" fill="#F6CAA7"/><path d="M59.81 115.114c1.534-5.205-1.228-10.41-6.14-12.247-4.91-1.53-10.434 1.224-11.968 6.123-1.842 5.205.92 10.41 6.138 12.248 4.91 1.53 10.435-1.225 11.97-6.124z" fill="#002050"/><path fill="#5C2D91" d="M99.095 141.14L47.84 121.238l5.83-18.37 53.404 13.165"/><path d="M52.137 102.56c-5.218-.612-10.13 2.756-11.05 7.96-.613 5.206 2.763 10.105 7.98 11.024 5.218.918 10.13-2.756 11.05-7.96.92-5.206-2.763-10.105-7.98-11.023z" fill="#5C2D91"/><path fill="#5C2D91" d="M64.106 68.268l-3.99 45.315-19.028-3.062 6.138-44.09M132.24 112.665l27.317 3.674 5.524 29.086-3.375 41.335 4.297 29.09c-22.098 3.673-46.344-7.35-65.066-6.125l.92-22.964-6.444-50.52 8.593-19.9 28.236-3.675"/><path d="M121.806 99.805l18.722 1.53s.307 13.473 0 18.066c0 3.675-.92 11.942-8.9 11.942-7.673 0-8.287-8.267-8.594-11.94l-1.228-19.597z" fill="#F6CAA7"/><path d="M138.073 105.01c.92 8.573-10.742 9.492-15.346 8.573l-.614-6.736 15.96-1.837z" fill="#DEB695"/><path d="M121.806 77.147c9.822-19.596 32.84-13.166 36.216 2.45 3.376 15.615-7.673 23.882-18.108 27.25-7.98 3.062-16.88.306-21.177-.612-4.604-.92-3.99-3.062-3.99-3.062.614-2.756 2.762-11.635 1.535-13.166-4.91-2.143-2.762-3.368-2.15-3.98.308-.613 6.754-5.818 7.06-7.35.307-.305.307-.917.614-1.53z" fill="#F6CAA7"/><path d="M138.994 87.25c1.227-.305 2.148 0 2.455 1.226.306 1.225-.308 3.062-1.23 4.593-.613 1.224-1.226 2.142-1.84 2.754.614-1.837 2.148-6.735.614-8.573z" fill="#DEB695"/><path d="M123.648 77.147c.307-1.224 4.603-5.205 4.91-4.9.307 0-4.603 4.9-3.683 5.513 2.456 1.53 13.812-1.225 9.515 8.88-.614 1.53 2.455.917 4.604.61 1.227-.305 2.148 0 2.455 1.226.306 1.225-.308 3.062-1.23 4.593-.613 1.224-1.226 2.142-1.84 2.754-1.535 1.53-2.763 8.88 1.534 11.023 0 0 10.742-3.674 15.04-9.186 6.444-8.265 9.207-21.43-3.99-30.923-11.664-8.573-27.316-3.98-30.692 8.573l3.376 1.837z" fill="#282828"/><path d="M125.49 84.495c-.308 0-.92.307-1.228.307 0 0-.307-.307 0-.613 0-.92.613-1.532 1.534-1.532.92.307 1.228.92 1.228 1.837 0 .307-.307.613-.307.92-.307-.613-.614-.613-1.228-.92z" fill="#000"/><path d="M122.113 97.05s-1.534 0-3.07-.307c-.92 0-1.534 0-2.147-.306h-.92c0-.306-.308 0-.308 0-.307.306 0 .612 0 .612h1.227c.614.305 1.228.305 2.15.305 1.534-.306 3.068-.306 3.068-.306z" fill="#8A0000"/><path d="M122.113 97.05h-6.137c-.308 0-.308 0-.308.305 0 0 0 .306.307.306h.92c.614 0 1.228 0 2.15-.305 1.534 0 3.068-.306 3.068-.306z" fill="#8A0000"/><path d="M159.25 86.64c17.494 9.184 26.088 51.744-3.99 50.213 8.9-9.798 16.266-31.23 6.445-43.172-1.84-2.448-3.99-2.754-4.297-2.754" fill="#282828"/><path d="M.575 15.298v2.143L10.703 1.52C4.873 3.663.883 8.868.575 15.298z" fill="#F3F3F3"/><path fill="#8A79C7" d="M84.363 63.063l25.78 16.227 3.99-6.43-25.78-16.227"/><path fill="#8A79C7" d="M55.206 47.447L83.136 64.9l1.227-1.837 3.99-6.43 1.227-1.837-28.236-17.76"/><path fill="#8A79C7" d="M11.624 22.953l10.435 6.43 31.918 19.902 1.228-1.838 6.138-10.41 1.228-1.837L30.96 15.298l-10.436-6.43"/><path fill="#8A79C7" d="M.268 18.053l10.435 6.737.92-1.837 8.9-14.085 1.23-1.837L11.316.6M110.45 80.515l.614.306c.307.308.92 0 1.228-.305l3.99-6.43c.307-.306.307-.918-.307-1.225l-.614-.306c-.306-.306-.92-.306-1.227.306l-3.99 6.43c-.306.307 0 .92.307 1.225z"/><path d="M65.64 58.164c2.456-3.98 3.99-9.492 5.832-12.86-.614-1.53-2.455-1.53-4.91.918-1.842 2.144-3.376 6.737-5.218 5.512" fill="#F6CAA7"/><path fill="#401467" d="M161.705 256.265l-38.978-37.967 26.702-27.25 38.977 38.273"/><path fill="#5C2D91" d="M161.705 256.265l-38.978-37.967 65.68 11.023"/><path d="M167.843 225.034c-1.84 9.798-3.99 12.554-9.207 19.29-3.376 4.287-5.218 4.287-4.91 1.837-2.15 4.9-6.753 5.206-5.525 1.838-.92 1.225-2.76 2.45-3.99 1.225-.92-1.225.922-3.368 1.843-4.287-1.535-.306-2.763-2.143 0-4.9 2.148-2.448 2.455-4.898 2.455-4.898-2.762 1.838-4.91 1.225-4.91-.612 3.068-2.45 6.137-7.348 9.82-10.41.614-.613 1.535-1.225 2.15-1.837l8.9-20.516 8.286 9.798-4.91 13.472z" fill="#F6CAA7"/><path d="M179.506 185.843c4.604 2.45 10.435.612 12.89-3.98 2.456-4.9.614-10.717-4.296-13.167-4.604-2.143-10.435-.306-12.89 4.287-2.456 4.9-.307 10.41 4.296 12.86z" fill="#5C2D91"/><path fill="#5C2D91" d="M157.408 214.93l17.8-41.947 17.19 8.88-19.03 40.11"/></g></svg>