<svg width="246" height="214" viewBox="0 0 246 214" xmlns="http://www.w3.org/2000/svg" xmlns:xlink="http://www.w3.org/1999/xlink"><defs><path id="a" d="M93.145.132H0v177.863h93.145V.132z"/><path id="c" d="M97.864.132H.23v177.863h97.634V.132z"/><path id="e" d="M0 220.56h245.81V.132H0z"/></defs><g fill="none" fill-rule="evenodd"><path fill="#6D4829" d="M86.428 153.175h68.058v-40.782H86.428"/><g transform="translate(0 .265)"><path d="M161.657 85.705c0 2.225-1.795 4.49-4.057 4.49H82.828c-2.226 0-4.007-2.265-4.007-4.49v-8.943c0-2.264 1.782-4.047 4.008-4.047H157.6c2.262 0 4.057 1.783 4.057 4.047v8.943z" fill="#C49970"/><path fill="#E1BC8F" d="M170.148 177.996l-47.91 15.252-52.842-15.252 8.498-40.338h83.762"/><path fill="#E1BC8F" d="M120.013 151.574l-14.324-8.09V103.63h29.093v39.855"/><path d="M105.688 126.932c4.452 1.337 9.39 1.782 14.325 1.782 4.9 0 9.833-.445 14.77-1.782V103.63h-29.095v23.302z" fill="#C49970"/><path d="M86.428 58.843v53.283c9.388 6.717 21.042 11.207 33.585 11.207s25.048-4.49 34.48-11.207V58.843H86.43z" fill="#E1BC8F"/><path d="M134.337 29.706c-4.49-2.262-8.944-3.152-13.88-3.152-19.26 0-34.474 15.247-34.474 34.07V77.65c25.494-3.153 45.645-22.863 48.354-47.944" fill="#6D4829"/><path d="M106.133 29.706c4.454-2.262 8.943-3.152 14.325-3.152 18.814 0 34.035 15.247 34.035 34.07V77.65c-25.093-3.153-45.243-22.863-48.36-47.944" fill="#6D4829"/><mask id="b" fill="#fff"><use xlink:href="#a"/></mask><path d="M93.145 152.463l-23.75 25.532L.002 1.91C12.1-3.472 26.423 1.46 32.25 13.118l60.895 139.346z" fill="#E1BC8F" mask="url(#b)"/><g transform="translate(147.54)"><mask id="d" fill="#fff"><use xlink:href="#c"/></mask><path d="M.23 152.463l22.378 25.532L97.864 1.91C85.77-3.472 71.442 1.46 65.62 13.118L.23 152.463z" fill="#E1BC8F" mask="url(#d)"/></g><path fill="#EB005A" d="M165.7 220.115H73.44l-4.044-42.12h100.3"/><path d="M105.688 103.63c3.563 4.49 8.5 7.16 14.77 7.16 5.826 0 11.17-2.67 14.324-7.16h-29.094z" fill="#FFF"/><path d="M115.522 95.13c1.336 1.337 2.673 2.226 4.936 2.226 1.78 0 3.562-.89 4.453-2.225h-9.388z" fill="#C49970"/><path d="M107.025 81.213c0 1.337-1.337 2.265-2.71 2.265-1.337 0-2.226-.928-2.226-2.265 0-1.334.888-2.225 2.225-2.225 1.373 0 2.71.89 2.71 2.225M138.827 81.213c0 1.337-1.372 2.265-2.71 2.265-1.335 0-2.225-.928-2.225-2.265 0-1.334.89-2.225 2.226-2.225 1.337 0 2.71.89 2.71 2.225" fill="#424242"/><mask id="f" fill="#fff"><use xlink:href="#e"/></mask><path fill="#EB005A" mask="url(#f)" d="M91.327 186.048h7.645v-48.39h-7.645M142.388 186.048h7.608v-48.39h-7.608"/></g></g></svg>