<svg width="249" height="206" viewBox="0 0 249 206" xmlns="http://www.w3.org/2000/svg" xmlns:xlink="http://www.w3.org/1999/xlink"><defs><path id="a" d="M219.72.433H.533v250.035h219.19V.433z"/><path id="c" d="M58.254.433H0v57.39h58.254V.433z"/><path id="e" d="M0 278.284h307.828V.434H0z"/></defs><g fill="none" fill-rule="evenodd"><path fill="#DBDBDB" d="M29.546 58.308H219.11V32.403H29.547"/><g transform="translate(0 .485)"><g transform="translate(29.014)"><mask id="b" fill="#fff"><use xlink:href="#a"/></mask><path d="M190.1-.484H.53v58.306h28.706v192.646H219.72V28.173c0-15.74-12.978-28.657-29.62-28.657" fill="#F2F2F2" mask="url(#b)"/></g><mask id="d" fill="#fff"><use xlink:href="#c"/></mask><path d="M58.254 28.174c0 16.66-12.98 29.65-28.707 29.65C12.904 57.823 0 44.833 0 28.173 0 12.432 12.905-.483 29.548-.483c15.728 0 28.707 12.915 28.707 28.657" fill="#A7A7A7" mask="url(#d)"/><mask id="f" fill="#fff"><use xlink:href="#e"/></mask><path d="M79.476 56.907H226.52M79.476 138.44H226.52M79.476 159.685h119.33M79.476 181.004h130.4M79.476 203.243h103.602M79.476 100.462h139.638M79.476 79.143h119.33" stroke="#A7A7A7" stroke-width="2.463" stroke-linecap="round" mask="url(#f)"/></g></g></svg>