<?xml version="1.0" encoding="UTF-8"?>
<svg width="164px" height="164px" viewBox="0 0 164 164" version="1.1" xmlns="http://www.w3.org/2000/svg" xmlns:xlink="http://www.w3.org/1999/xlink">
    <!-- Generator: Sketch 41.2 (35397) - http://www.bohemiancoding.com/sketch -->
    <title>Group 4</title>
    <desc>Created with Sketch.</desc>
    <defs>
        <rect id="path-1" x="0" y="0" width="164" height="164"></rect>
        <rect id="path-3" x="14" y="0" width="164" height="164"></rect>
        <mask id="mask-4" maskContentUnits="userSpaceOnUse" maskUnits="objectBoundingBox" x="0" y="0" width="164" height="164" fill="white">
            <use xlink:href="#path-3"></use>
        </mask>
        <polygon id="path-5" points="158.728 82.105016 158.728 0.92028358 0.016 0.92028358 0.016 82.105016 158.728 82.105016"></polygon>
        <polygon id="path-7" points="0.016 223 158.728 223 158.728 0.657 0.016 0.657"></polygon>
        <path d="M0.568,12.8 L0.568,6.967 C0.568,4.77595758 0.97983106,2.68361719 1.7273335,0.759 L34.2375422,0.759 C34.987221,2.68361719 35.399,4.77595758 35.399,6.967 L35.399,12.8 L0.568,12.8 L0.568,12.8 Z" id="path-9"></path>
    </defs>
    <g id="Profile-Hub" stroke="none" stroke-width="1" fill="none" fill-rule="evenodd">
        <g id="7.0_Desktop_Bronze_Profile_Empty-state_2" transform="translate(-977.000000, -147.000000)">
            <g id="Group-4" transform="translate(977.000000, 147.000000)">
                <mask id="mask-2" fill="white">
                    <use xlink:href="#path-1"></use>
                </mask>
                <use id="Mask" fill="#D8D8D8" xlink:href="#path-1"></use>
                <g mask="url(#mask-2)">
                    <g transform="translate(-14.000000, 0.000000)">
                        <use id="Rectangle" stroke="#979797" mask="url(#mask-4)" stroke-width="2" fill="#50E3C2" xlink:href="#path-3"></use>
                        <g id="Page-1" stroke="none" stroke-width="1" fill="none" transform="translate(0.000000, 23.000000)">
                            <g id="Group-82" transform="translate(0.000000, 0.343000)">
                                <path d="M48.5905,117.0962 C59.8785,121.0552 64.9755,122.5542 70.6165,124.6202 C82.1115,128.9472 87.9435,120.4772 87.9435,120.4772 L54.0465,106.7442 L48.5905,117.0962 Z" id="Fill-1" fill="#3F2510"></path>
                                <path d="M86.2536,120.4771 L86.2536,86.0611 L94.5256,86.0611 L94.5256,58.5841 C79.2766,58.5841 67.0396,70.8161 67.0396,86.0611 L67.0396,120.4771 L86.2536,120.4771 Z" id="Fill-3" fill="#3F2510"></path>
                                <polygon id="Fill-5" fill="#684525" points="122.0241 40.9063 122.0241 55.4013 114.6721 43.9183"></polygon>
                                <polygon id="Fill-7" fill="#684525" points="119.0055 40.9063 119.0055 55.4013 111.6545 43.9183"></polygon>
                                <polygon id="Fill-9" fill="#3F2510" points="91.7106 39.7749 91.7106 56.3349 97.3536 47.2989"></polygon>
                                <polygon id="Fill-11" fill="#684525" points="104.8884 70.8165 94.5264 69.3105 94.5264 41.6555 115.2384 41.6555 115.2384 70.8165"></polygon>
                                <path d="M94.526,54.2696 L104.888,54.2696 C107.328,54.2696 111.47,54.2696 115.238,52.7576 L115.238,41.6556 L94.526,41.6556 L94.526,54.2696 Z" id="Fill-13" fill="#3F2510"></path>
                                <path d="M104.8884,1.7818 C95.4794,1.7818 87.9434,9.4898 87.9434,18.9008 L87.9434,25.1088 L122.0244,25.1088 L122.0244,18.9008 C122.0244,9.4898 114.2974,1.7818 104.8884,1.7818" id="Fill-15" fill="#684525"></path>
                                <path d="M87.943,19.4664 L87.943,45.9834 C92.645,49.3764 98.477,51.4424 104.888,51.4424 C113.923,51.4424 122.024,45.9834 122.024,45.9834 L122.024,19.4664 L87.943,19.4664 Z" id="Fill-17" fill="#684525"></path>
                                <path d="M125.3981,34.8819 C125.3981,36.5849 123.8981,37.9009 122.3991,37.9009 L121.6491,37.9009 C119.9401,37.9009 118.6311,36.5849 118.6311,34.8819 L118.6311,28.4889 C118.6311,26.7989 119.9401,25.4839 121.6491,25.4839 L122.3991,25.4839 C123.8981,25.4839 125.3981,26.7989 125.3981,28.4889 L125.3981,34.8819 Z" id="Fill-19" fill="#B78963"></path>
                                <path d="M112.03,50.5015 C109.971,51.0665 107.328,51.4415 104.888,51.4415 C98.477,51.4415 92.645,49.3765 87.943,45.9835 L87.943,17.0135 L112.03,17.0135 L112.03,50.5015 Z" id="Fill-21" fill="#B78963"></path>
                                <path d="M103.9479,27.3648 C103.9479,27.9238 104.3229,28.4898 104.8879,28.4898 C105.6379,28.4898 106.0119,27.9238 106.0119,27.3648 C106.0119,26.7998 105.6379,26.2338 104.8879,26.2338 C104.3229,26.2338 103.9479,26.7998 103.9479,27.3648" id="Fill-23" fill="#FFFFFF"></path>
                                <path d="M89.443,27.3648 C89.443,27.9238 90.002,28.4898 90.567,28.4898 C91.145,28.4898 91.711,27.9238 91.711,27.3648 C91.711,26.7998 91.145,26.2338 90.567,26.2338 C90.002,26.2338 89.443,26.7998 89.443,27.3648" id="Fill-25" fill="#FFFFFF"></path>
                                <polygon id="Fill-27" fill="#FFFFFF" points="104.6979 38.0914 104.6979 40.7154 101.4959 40.7154"></polygon>
                                <polygon id="Fill-29" fill="#FFFFFF" points="90.0016 38.0914 90.0016 40.7154 93.2106 40.7154"></polygon>
                                <path d="M105.8288,40.9063 L87.9428,40.9063" id="Stroke-31" stroke="#684525" stroke-width="2.064"></path>
                                <path d="M112.6081,12.6988 C112.6081,14.9488 114.2971,16.6378 116.3631,16.6378 C118.4401,16.6378 112.0301,22.8408 112.0301,20.7818 C112.0301,18.7168 110.3461,17.0128 108.2811,17.0128 C106.2041,17.0128 112.6081,10.6148 112.6081,12.6988" id="Fill-33" fill="#684525"></path>
                                <path d="M92.4606,33.3824 C92.4606,34.3224 93.2106,35.0724 94.1446,35.0724 L95.8536,35.0724 C96.7876,35.0724 97.5366,34.3224 97.5366,33.3824 C97.5366,32.4424 96.7876,31.6924 95.8536,31.6924 L94.1446,31.6924 C93.2106,31.6924 92.4606,32.4424 92.4606,33.3824" id="Fill-35" fill="#D3B39B"></path>
                                <g id="Group-39" transform="translate(0.000000, 65.000000)">
                                    <mask id="mask-6" fill="white">
                                        <use xlink:href="#path-5"></use>
                                    </mask>
                                    <g id="Clip-38"></g>
                                    <path d="M149.319,53.0367 C157.045,56.0557 160.794,64.8877 157.795,72.5957 C154.777,80.3227 145.926,84.0717 138.207,81.0727 C138.207,81.0727 109.781,66.9537 76.075,53.5957 C42.368,40.2447 9.615,30.0847 9.615,30.0847 C1.705,26.8947 -2.063,18.2267 1.142,10.5187 C4.159,2.6267 12.821,-1.1413 20.731,2.0607 C20.731,2.0607 52.358,17.2927 85.3,30.4597 C118.44,43.4347 149.319,53.0367 149.319,53.0367" id="Fill-37" fill="#68217A" mask="url(#mask-6)"></path>
                                </g>
                                <path d="M43.321,93.9532 C43.697,94.1442 43.884,94.7092 43.697,95.0842 C43.509,95.6432 42.947,95.8342 42.571,95.6432 C41.993,95.4592 41.805,94.8932 41.993,94.5182 C42.18,93.9532 42.759,93.7692 43.321,93.9532" id="Fill-40" fill="#FFFFFF"></path>
                                <path d="M46.1364,95.0845 C46.6984,95.2685 46.9024,95.8345 46.6984,96.3935 C46.5114,96.7875 45.9484,96.9715 45.5734,96.7875 C45.0104,96.5965 44.8234,96.2095 45.0104,95.6435 C45.1984,95.2685 45.7604,94.8935 46.1364,95.0845" id="Fill-42" fill="#FFFFFF"></path>
                                <path d="M49.153,96.3936 C49.715,96.5966 49.904,96.9716 49.715,97.5376 C49.528,97.9126 48.966,98.2876 48.591,98.0966 C48.028,97.9126 47.841,97.3466 48.028,96.7876 C48.215,96.3936 48.778,96.2086 49.153,96.3936" id="Fill-44" fill="#FFFFFF"></path>
                                <path d="M52.1706,97.5372 C52.7326,97.7222 52.9206,98.2872 52.7326,98.6622 C52.5456,99.2272 51.9836,99.4122 51.6086,99.2272 C51.0286,99.0372 50.8416,98.4772 51.0286,98.0962 C51.2326,97.5372 51.7956,97.3472 52.1706,97.5372" id="Fill-46" fill="#FFFFFF"></path>
                                <path d="M45.1979,89.0601 C45.5729,89.2511 45.7599,89.8101 45.5729,90.3751 C45.3849,90.7631 45.0109,90.9541 44.4469,90.7631 C44.0729,90.5791 43.6969,90.1851 43.8849,89.6261 C44.0729,89.2511 44.6349,88.8761 45.1979,89.0601" id="Fill-48" fill="#FFFFFF"></path>
                                <path d="M48.2145,90.3755 C48.5905,90.5795 48.7775,91.1445 48.5905,91.5195 C48.4015,91.8945 48.0275,92.2695 47.4645,92.0785 C47.0895,91.8945 46.6985,91.3285 46.9025,90.7635 C47.0895,90.3755 47.6525,90.1855 48.2145,90.3755" id="Fill-50" fill="#FFFFFF"></path>
                                <path d="M51.2321,91.5196 C51.6081,91.7036 51.7951,92.2696 51.6081,92.6446 C51.4201,93.2036 51.0291,93.3946 50.4661,93.2036 C50.0911,93.0196 49.7151,92.4536 49.9041,92.0786 C50.0911,91.5196 50.6541,91.3286 51.2321,91.5196" id="Fill-52" fill="#FFFFFF"></path>
                                <path d="M54.2341,92.6441 C54.6091,92.8291 54.7961,93.3941 54.6091,93.9531 C54.4211,94.3281 53.8591,94.5191 53.4841,94.3281 C53.1081,94.1441 52.7331,93.7691 52.9211,93.2031 C53.1081,92.8291 53.6721,92.4541 54.2341,92.6441" id="Fill-54" fill="#FFFFFF"></path>
                                <path d="M103.5602,117.8462 C103.9482,118.0362 104.3232,118.5962 104.1382,118.9712 C103.9482,119.5362 103.3702,119.7272 102.8102,119.5362 C102.4362,119.3462 102.2452,118.7862 102.4362,118.4112 C102.6202,117.8462 102.9952,117.6612 103.5602,117.8462" id="Fill-56" fill="#FFFFFF"></path>
                                <path d="M106.5788,118.9707 C106.9538,119.1617 107.3278,119.7267 107.1378,120.2857 C106.9538,120.6607 106.3878,120.8517 105.8288,120.6607 C105.4478,120.4767 105.2638,120.1017 105.4478,119.5357 C105.6388,119.1617 106.0128,118.7867 106.5788,118.9707" id="Fill-58" fill="#FFFFFF"></path>
                                <path d="M109.5964,120.2862 C109.9714,120.4772 110.3464,121.0552 110.1564,121.4302 C109.9714,121.9892 109.4064,122.1802 108.8404,121.9892 C108.4654,121.8052 108.2814,121.2392 108.4654,120.8512 C108.6564,120.2862 109.0314,120.1022 109.5964,120.2862" id="Fill-60" fill="#FFFFFF"></path>
                                <path d="M112.6081,121.4302 C112.9891,121.6142 113.3641,122.1802 113.1731,122.5552 C112.9891,123.1142 112.4051,123.3052 111.8451,123.1142 C111.4701,122.9302 111.2801,122.3642 111.4701,121.9892 C111.6551,121.4302 112.0301,121.2392 112.6081,121.4302" id="Fill-62" fill="#FFFFFF"></path>
                                <path d="M105.4479,113.1436 C106.0119,113.1436 106.2039,113.7036 106.0119,114.2686 C105.8289,114.6436 105.2629,114.8466 104.8879,114.6436 C104.3229,114.6436 104.1379,114.0776 104.3229,113.5186 C104.5129,113.1436 105.0729,112.9536 105.4479,113.1436" id="Fill-64" fill="#FFFFFF"></path>
                                <path d="M108.4655,114.2686 C109.0305,114.4526 109.2215,115.0316 109.0305,115.4056 C108.8405,115.9716 108.2805,116.1626 107.8875,115.9716 C107.3275,115.7806 107.1375,115.2216 107.3275,114.8466 C107.5125,114.2686 108.0905,114.0776 108.4655,114.2686" id="Fill-66" fill="#FFFFFF"></path>
                                <path d="M111.4704,115.4058 C112.0304,115.5968 112.2204,116.1618 112.0304,116.5368 C111.8454,117.0958 111.2804,117.2868 110.7214,117.0958 C110.3464,116.9118 110.1564,116.3458 110.3464,115.9718 C110.5304,115.4058 111.0954,115.2218 111.4704,115.4058" id="Fill-68" fill="#FFFFFF"></path>
                                <path d="M114.4889,116.7212 C115.0479,116.7212 115.2379,117.2862 115.0479,117.8462 C114.8639,118.2212 114.2979,118.4112 113.7389,118.2212 C113.3639,118.0362 113.1739,117.6612 113.3639,117.0962 C113.5489,116.7212 114.1139,116.5372 114.4889,116.7212" id="Fill-70" fill="#FFFFFF"></path>
                                <mask id="mask-8" fill="white">
                                    <use xlink:href="#path-7"></use>
                                </mask>
                                <g id="Clip-73"></g>
                                <polygon id="Fill-72" fill="#B78963" mask="url(#mask-8)" points="87.943 51.442 104.328 51.442 104.328 45.422 87.943 45.422"></polygon>
                                <path d="M81.9206,89.251 C81.9206,74.769 87.9426,58.584 94.8996,58.584 L97.7286,58.584 L104.8886,68.186 L112.0296,58.584 L122.0246,58.584 L127.6656,70.816 L127.6656,140.239 L81.9206,140.239 L81.9206,89.251 Z" id="Fill-74" fill="#684525" mask="url(#mask-8)"></path>
                                <path d="M122.0241,58.5845 L122.0241,86.0615 L130.3091,86.0615 L130.3091,176.5455 C140.6591,176.5455 149.1281,168.2575 149.3191,157.9235 L149.5091,157.9235 L149.5091,86.0615 C149.5091,70.8165 137.2661,58.5845 122.0241,58.5845" id="Fill-77" fill="#684525" mask="url(#mask-8)"></path>
                                <polygon id="Fill-78" fill="#684525" mask="url(#mask-8)" points="148.569 153.7808 153.462 157.9238 148.569 140.2388"></polygon>
                                <polygon id="Fill-79" fill="#684525" mask="url(#mask-8)" points="148.569 130.6377 148.569 144.3637 153.462 148.3227"></polygon>
                                <polygon id="Fill-80" fill="#684525" mask="url(#mask-8)" points="148.569 121.2393 148.569 134.7813 153.462 138.9113"></polygon>
                                <path d="M122.3991,25.4839 L122.3991,17.9659 C122.3991,8.3649 114.4891,0.6569 104.8881,0.6569 C95.4791,0.6569 87.5681,8.3649 87.5681,17.9659 L87.5681,25.4839 L122.3991,25.4839 Z" id="Fill-81" fill="#7FBA00" mask="url(#mask-8)"></path>
                            </g>
                            <g id="Group-87" transform="translate(87.000000, 11.343000)">
                                <mask id="mask-10" fill="white">
                                    <use xlink:href="#path-9"></use>
                                </mask>
                                <g id="Clip-84"></g>
                                <polygon id="Fill-83" fill="#007233" mask="url(#mask-10)" points="-0.746 12.8 36.9 12.8 36.9 10.157 -0.746 10.157"></polygon>
                                <polygon id="Fill-85" fill="#FFFFFF" mask="url(#mask-10)" points="-0.746 8.091 36.9 8.091 36.9 5.448 -0.746 5.448"></polygon>
                                <polygon id="Fill-86" fill="#007233" mask="url(#mask-10)" points="-0.746 3.198 36.9 3.198 36.9 0.759 -0.746 0.759"></polygon>
                            </g>
                            <polygon id="Fill-88" fill="#684525" points="82.1106 134.5643 82.1106 223.3433 99.8056 223.3433 99.8056 155.4323 109.9706 155.4323 109.9706 223.3433 127.6656 223.3433 127.6656 134.5643"></polygon>
                            <polygon id="Fill-89" fill="#3F2510" points="61.2067 122.1477 62.5197 125.3377 50.6537 117.0647 57.6267 119.5047 60.6447 120.6287 64.7847 122.1477 67.7897 123.2727 74.7597 125.7127 76.6407 130.2307 68.3497 124.5877 69.4927 127.7907"></polygon>
                            <path d="M40.6794,101.2542 C38.4284,108.0282 41.9924,114.9862 48.5904,117.4392 C55.1724,119.6892 62.3324,116.1242 64.7844,109.7312 L40.6794,101.2542 Z" id="Fill-90" fill="#684525"></path>
                        </g>
                    </g>
                </g>
            </g>
        </g>
    </g>
</svg>