<?xml version="1.0" standalone="no"?>
<!DOCTYPE svg PUBLIC "-//W3C//DTD SVG 1.1//EN" "http://www.w3.org/Graphics/SVG/1.1/DTD/svg11.dtd">
<svg xmlns="http://www.w3.org/2000/svg">
<metadata>Generated by Fontastic.me</metadata>
<defs>
<font id="microsoft-expertzone" horiz-adv-x="512">
<font-face font-family="microsoft-expertzone" units-per-em="512" ascent="480" descent="-32"/>
<missing-glyph horiz-adv-x="512" />

<glyph glyph-name="twitter" unicode="&#108;" d="M481 395c-13-18-28-34-46-47 0-3 0-7 0-12 0-25-3-50-11-74-7-25-18-49-33-71-14-23-32-43-52-61-21-17-45-31-74-41-29-11-60-16-92-16-52 0-99 14-142 42 7-1 14-2 22-2 43 0 81 14 115 40-20 0-38 6-54 18-16 12-27 27-33 46 7-1 13-2 18-2 8 0 16 1 24 4-21 4-39 15-53 31-14 17-21 37-21 59l0 1c13-7 27-11 42-11-13 8-23 19-30 32-8 14-11 29-11 44 0 17 4 33 12 47 23-28 51-51 84-68 33-17 69-27 107-29-2 8-3 15-3 22 0 25 9 47 27 65 18 18 40 27 66 27 26 0 49-10 67-29 21 4 40 11 59 22-7-22-21-39-41-51 18 2 35 7 53 14z"/>
<glyph glyph-name="linkedin" unicode="&#107;" d="M136 333l0-283-94 0 0 283z m6 88c0-14-4-26-14-35-10-9-23-14-39-14l0 0c-16 0-29 5-38 14-10 9-14 21-14 35 0 14 4 26 14 35 10 9 23 14 39 14 16 0 28-5 38-14 9-9 14-21 14-35z m333-208l0-163-94 0 0 152c0 20-3 35-11 47-8 11-20 17-36 17-12 0-22-4-30-10-9-7-15-15-19-25-2-5-3-13-3-23l0-158-94 0c1 76 1 138 1 185 0 47 0 76 0 85l-1 13 94 0 0-41 0 0c4 6 7 12 11 16 4 5 10 10 17 15 6 5 15 10 24 13 10 3 21 4 33 4 33 0 59-11 79-32 20-22 29-54 29-95z"/>
<glyph glyph-name="facebook" unicode="&#109;" d="M384 509l0-76-45 0c-17 0-28-3-33-10-6-7-9-17-9-31l0-54 84 0-11-85-73 0 0-216-87 0 0 216-73 0 0 85 73 0 0 62c0 36 10 63 29 83 20 19 47 29 80 29 28 0 49-1 65-3z"/>
<glyph glyph-name="close" unicode="&#97;" d="M503 42l-211 212 211 211c11 11 9 29 0 38-11 11-29 9-38 0l-209-209-211 211c-12 11-29 9-38 0-11-11-9-29 0-38l209-209-209-209c-11-11-9-29 0-38 11-11 29-11 38 0l207 207 209-209c11-11 29-9 38 0 15 7 15 22 4 33z"/>
<glyph glyph-name="add" unicode="&#98;" d="M381 244l-115 0 0-113-16 0 0 113-113 0 0 18 113 0 0 113 16 0 0-113 115 0z m-112-118l-23 0 0 115-115 0 0 25 115 0 0 115 23 0 0-115 117 0 0-25-117 0z m-14 9l5 0 0 115 117 0 0 7-117 0 0 115-5 0 0-115-115 0 0-7 115 0z m0-135c-140 0-255 115-255 257 0 142 115 255 255 255 140 0 255-115 255-255 0-140-113-257-255-257z m0 485c-126 0-230-102-230-230 0-127 104-228 230-228 126 0 230 102 230 230 0 127-102 228-230 228z"/>
<glyph glyph-name="balloon" unicode="&#99;" d="M414 335c-12 61-56 82-57 84-3 0-6 0-8-3-1-3 0-6 3-8 0 0 41-22 51-76 0-3 3-5 5-5 0 0 0 0 2 0 3 2 4 5 4 8z m-215-15c0 73 51 124 119 124 67 0 120-51 120-124 0-72-52-183-120-183-68 0-119 111-119 183z m130-214c0 0-2 0-3 0-2 0-3 1-5 1 0 0-1 0-1 2-2 0-3 1-5 1 0 0 0 0-2 0-1 0-4 0-6-1 2 4 6 9 11 9 6 0 11-6 11-12m-147 77c-66 6-111 112-111 182 0 71 50 125 118 125 33 0 61-12 83-34-53-15-95-68-95-132 0-39 17-105 45-139-11-7-40-2-40-2z m18-36c0 0-1 0-1 0-2 0-4 0-4 2 0 0-1 0-1 1-2 0-3 2-5 2-1 0-3 0-4 0 1 5 4 6 9 6 1-1 6-4 6-11m118 317c-9 0-19-2-28-3-25 29-60 45-99 45-78 0-137-62-137-146 0-73 47-180 117-196-5-4-7-10-7-17 0-3 2-4 4-6 1-1 3-1 4-1 2 0 5 0 6 1 2 0 2 2 4 2l0-95c0-3 6-5 9-5 3 0 9 2 9 5l0 90c11-1 16 5 16 11 0 6-3 12-7 17 8 2 14 5 22 8 19-25 42-44 68-50-4-5-6-11-6-17 0-3 2-5 3-6 2-2 3-2 5-2 2 0 5 0 6 2 2 0 2 1 3 1l0-94c0-3 7-5 10-5 3 0 9 2 9 5l0 90c11-2 15 4 15 11 0 6-3 12-6 17 72 17 117 122 117 195-2 81-59 143-137 143z m98-143c0 3-3 5-6 5-4 0-5-3-5-6 0-3 0-5 0-7 0-3 1-6 5-6 3 0 4 2 4 5 2 3 2 6 2 9"/>
<glyph glyph-name="bell" unicode="&#100;" d="M257 511c-98 0-177-79-177-177l0-170-56-96c-3-5-3-11 0-16 2-4 7-7 13-7l176 0 1-7c3-21 21-37 42-37 22 0 40 15 42 37l1 7 175 0c6 0 11 3 14 8 3 4 3 10 0 16l-55 96 0 170c0 97-79 176-176 176z m191-434l-383 0 45 77c1 2 1 4 1 7l0 175c0 80 65 145 145 145 80 0 145-66 145-146l0-174c0-3 1-5 2-7l0-1z"/>
<glyph glyph-name="apple" unicode="&#101;" d="M395 240c0 65 53 96 55 97-30 44-76 50-93 51-40 4-77-24-97-24-21 0-51 23-85 22-43 0-83-25-105-64-45-78-11-193 33-256 21-31 46-66 80-65 32 2 44 21 83 21 39 0 50-21 84-20 35 1 57 32 78 63 24 36 34 70 35 72 0 1-67 26-68 103m-64 189c18 22 30 52 27 82-26-1-57-17-75-39-17-19-31-50-27-79 28-2 58 15 75 36"/>
<glyph glyph-name="arrow-down" unicode="&#102;" d="M256 121l256 256-23 22-233-233-233 233-23-22"/>
<glyph glyph-name="bell-active" unicode="&#103;" d="M250 512c-96 0-174-78-174-174l0-168-55-95c-3-5-3-11 0-16 2-4 8-7 13-7l174 0 1-7c3-21 20-37 41-37 22 0 39 16 42 37l1 7 173 0c5 0 10 3 13 7 3 5 3 11 0 16l-54 95 0 168c0 96-78 174-175 174z"/>
<glyph glyph-name="book" unicode="&#104;" d="M116 413l84 0 0-19-84 0z m-48 0l28 0 0-19-28 0z m245-311l84 0 0-19-84 0z m103 0l28 0 0-19-28 0z m-348 233l131 0 0-19-131 0z m0-78l131 0 0-18-131 0z m0-76l131 0 0-19-131 0z m0-79l131 0 0-19-131 0z m245 311l131 0 0-19-131 0z m0-78l131 0 0-19-131 0z m0-78l131 0 0-18-131 0z m0-76l131 0 0-19-131 0z m-311-161l508 0 0 472-508 0z m245 18l-226 0 0 435 226 0z m247 0l-227 0 0 435 227 0z"/>
<glyph glyph-name="arrow-down-bold" unicode="&#105;" d="M512 362l-49 49-207-207-207 207-49-49 256-261z"/>
<glyph glyph-name="arrow-left" unicode="&#106;" d="M117 256l256-256 22 23-233 233 233 233-22 23"/>
<glyph glyph-name="bun" unicode="&#110;" d="M363 0l-211 0-25 156 260 0z m41 236c-6 21-23 37-44 40l-3 0c-1 0-1 1-3 1-1 2-3 4-3 7 0 30-24 53-53 53-3 0-6 0-7 0-14-19-43-23-61-7-3 2-6 4-7 7-29 5-57-13-62-43 0-3-2-5-2-8 0 0 0-2 0-2 0-4-4-7-7-7-28-4-49-29-45-59 1-16 10-28 24-37l252 0c18 11 26 33 21 55z m-236-7l-9-25c-1-5-7-7-11-6-4 1-7 7-6 11l9 27c1 4 7 7 11 6 4-2 7-9 6-13z m14 55c0 5 3 9 8 10 2 0 3 0 3 0l27-10c4-1 7-7 6-11-2-4-7-7-12-6l-25 9c-4 1-7 4-7 8z m59-85c-3-2-8-2-13 0l-18 19c-3 3-4 7-1 11 2 4 8 4 12 2 2 0 2-2 2-2l17-17c4-3 4-8 1-13-1 0-1 0 0 0z m27 87c-4 0-8 3-10 7 0 4 2 7 4 8l26 9 3 0c4 0 8-3 10-9 0-4-3-8-6-8z m44-44l-27-9c-4-1-10 2-11 6-2 4 1 10 5 11l26 7 3 0c4 0 8-2 10-8 0-4-3-9-6-9z m54-21l-9-27c-1-4-7-7-11-6-4 2-7 7-6 11l9 27c1 5 7 7 11 6 4-1 7-7 6-11z m-111 232c6 0 12 2 16 7 3 4 4 8 4 14-1 10-10 38-20 38-10 0-20-28-20-40 0-5 2-10 5-14 4-4 10-7 15-5z m2-115c14 0 25 11 25 25l0 50c0 14-11 25-25 25-14 0-26-11-26-25l0-50c0-14 12-25 26-25z"/>
<glyph glyph-name="burger-nav" unicode="&#111;" d="M0 111l512 0 0 32-512 0z m0 130l512 0 0 32-512 0z m0 128l512 0 0 32-512 0z"/>
<glyph glyph-name="arrow-left-bold" unicode="&#112;" d="M357 0l54 49-207 207 207 207-54 49-256-256z"/>
<glyph glyph-name="arrow-right" unicode="&#113;" d="M395 256l-256 256-22-23 233-233-233-233 22-23"/>
<glyph glyph-name="cake" unicode="&#114;" d="M156 439c6 0 12 3 15 6 3 4 5 9 5 13 0 11-9 39-20 39-10 0-19-27-19-37 0-5 1-11 4-14 3-4 9-7 15-7z m198 0c6 0 12 3 15 6 3 4 5 9 5 13 0 11-9 39-20 39-10 0-19-28-19-39 0-4 1-10 4-13 3-3 9-6 15-6z m-99 0c8 0 14 3 18 7 3 5 6 11 5 17 0 13-11 48-24 48-14 0-24-35-24-48 0-6 1-12 4-17 8-4 15-7 21-7z m216-258l-17 8c-6 3-13 4-21 4-10-1-19-3-28-7-11-6-22-9-34-9-11 1-21 4-30 9-8 4-15 7-23 7-10-1-19-3-28-7-11-6-23-9-35-9-10 1-21 4-30 9-7 4-15 7-22 7-11-1-20-3-29-7-10-6-22-9-34-9-11 1-21 4-30 9-7 4-15 7-22 7-11-1-21-6-30-12-6-1-12-4-17-9-3-1-7-3-10-3l0-115c0-30 19-54 43-54l368 0c24 0 44 24 44 54l0 123c-8 1-12 3-15 4z m25 111c0 12-1 22-1 33 0 18-15 33-33 33l-100 0 0 67-17 0 0-67-81 0 0 67-18 0 0-67-81 0 0 67-18 0 0-67-101 0c-18 0-33-15-33-33l0-112c0-8 4-14 12-15 0 0 1 0 1 0 5 0 9 1 14 3 4 4 10 7 18 9 9 6 18 9 27 12 7-2 16-3 22-8 9-6 20-9 30-9 12 0 24 5 34 9 9 5 18 8 29 8 7-2 16-3 22-8 9-6 20-9 30-9 12 0 24 5 35 9 9 5 18 8 28 8 8-2 17-3 23-8 9-6 19-9 30-9 12 0 23 5 34 9 9 5 18 8 28 8 8 0 14-2 21-5l17-7c4-3 10-5 16-5 3 0 6 2 8 3 9 8 9 27 4 84z m-411-23l-11-26c-3-5-9-6-13-3-2 1-3 6-3 9l9 28c1 4 7 7 12 6 4-3 7-8 6-14z m47 27l-26 9c-5 2-8 8-6 12 1 3 4 6 9 6 1 0 3 0 3 0l28-9c4-1 7-7 6-12-2-4-9-7-14-6z m44-58c-3-3-9-3-14 0l-18 19c-3 3-3 9 0 14 3 3 9 3 14 0l18-18c4-3 6-7 3-12-2-1-2-3-3-3z m28 76c-4-1-10 2-12 6-1 5 2 11 6 12l27 9 3 0c5 0 9-3 11-9 0-4-3-9-6-9z m47-46l-29-9c-4-2-10 1-12 6-1 4 2 10 6 12l29 9 3 0c4 0 9-3 10-9 0-5-3-8-7-9z m85 39l-9-29c-1-4-7-7-12-6-4 2-7 8-6 12l9 29c2 4 8 7 12 6 6-3 8-8 6-12z m69-52l-28-9c-5-3-11 0-12 4-3 5 0 10 4 12 2 0 3 1 3 1l28 9 2 0c4 0 9-3 10-9 0-4-3-7-7-8z m51 38c-3-3-9-3-14 0l-18 18c-3 3-3 9 0 14 3 3 9 3 14 0l18-18c3-3 3-9 0-14z"/>
<glyph glyph-name="calendar" unicode="&#115;" d="M98 493l32 0 0-32 252 0 0 32 32 0 0-32 95 0 0-442-506 0 0 442 95 0z m315-95l-32 0 0 32-251 0 0-32-32 0 0 32-63 0 0-62 442 0 0 62-63 0 0-32z m64-63l-442 0 0-284 442 0z m-379-63l0 32 32 0 0-32z m0-64l0 32 32 0 0-32z m0-62l0 31 32 0 0-31z m94 126l0 32 32 0 0-32z m0-64l0 32 32 0 0-32z m0-62l0 31 32 0 0-31z m0-64l0 32 32 0 0-32z m95 190l0 32 32 0 0-32z m0-64l0 32 32 0 0-32z m0-62l0 31 32 0 0-31z m0-64l0 32 32 0 0-32z m95 126l0 32 32 0 0-32z m0-62l0 31 32 0 0-31z m0-64l0 32 32 0 0-32z"/>
<glyph glyph-name="arrow-right-bold" unicode="&#116;" d="M150 0l-49 49 207 207-207 207 49 49 261-256z"/>
<glyph glyph-name="arrow-up" unicode="&#117;" d="M256 399l-256-256 23-22 233 233 233-233 23 22"/>
<glyph glyph-name="calendar-blank" unicode="&#118;" d="M98 493l32 0 0-32 252 0 0 32 32 0 0-32 95 0 0-442-506 0 0 442 95 0z m315-95l-32 0 0 32-251 0 0-32-32 0 0 32-63 0 0-62 442 0 0 62-63 0 0-32z m64-63l-442 0 0-284 442 0z"/>
<glyph glyph-name="arrow-up-bold" unicode="&#119;" d="M0 155l49-54 207 207 207-207 49 54-256 256z"/>
<glyph glyph-name="calendar-down" unicode="&#120;" d="M100 491l31 0 0-31 250 0 0 31 31 0 0-31 95 0 0-439-502 0 0 439 95 0z m312-95l-31 0 0 33-250 0 0-31-31 0 0 31-64 0 0-62 438 0 0 62-62 0z m62-62l-438 0 0-282 438 0z m-218-251l-92 92 9 8 77-77 0 177 13 0 0-176 78 78 8-9z"/>
<glyph glyph-name="yahoo" unicode="&#121;" d="M412 333c3 1 7 2 12 3l37 0 6 8 0 0 14 21c0 0 0 0 0 0l1 2-200 0 8-31 54 0-92-83c-18 26-62 80-93 124l69 0 0 25 1 5c-1 0-1 0-1 0l0 2-228 0 0-32 68 0c26-20 126-146 131-158 1-11 3-81-2-86-10-10-55-8-66-8l-4-22c20 0 85 2 105 2 39 0 109 0 118-1l1 23c-10 1-64 0-71 1-2 11-4 84-2 91 7 23 122 111 134 114z m33-171l31-3 36 138c-6 0-60 5-67 7z m-5-22l0-34 16-2 17-1 5 33-18 1z"/>
<glyph glyph-name="cart" unicode="&#122;" d="M400 129c6 0 12-2 18-3 11-5 21-14 25-25 5-13 5-25 0-38-4-11-14-20-25-25-12-4-25-4-37 0-11 5-20 14-25 25-3 6-3 13-3 19 0 5 1 11 3 16l-134 0c1-5 3-11 3-16 0-6-2-13-3-19-5-11-14-20-25-25-13-4-25-4-38 0-11 5-20 14-25 25-11 24 0 52 24 63l-111 323-47 0 0 31 70 0 22-64 420 0-75-223-272 0 22-64z m-299 256l54-159 257 0 53 159z m91-305c0 10-8 16-16 16-9 0-15-8-15-16 0-9 8-15 15-15 5 0 8 1 11 4 3 4 5 7 5 11z m208-15c9 0 15 8 15 15 0 8-8 16-15 16-10 0-16-8-16-16 0-4 2-7 5-11 3-3 6-4 11-4z"/>
<glyph glyph-name="cart-cancelled" unicode="&#65;" d="M239 498l0-29c6 0 13 0 19 0 116 0 210-98 210-215 0-117-94-211-210-211-116 0-213 94-213 211l0 3-29 0 0-3c0-133 107-244 242-244 133 0 242 111 242 244 0 133-109 244-242 244z m-49-356c-4 0-8 3-8 9 0 4 3 8 8 8 6 0 7-4 7-8 0-3-1-4-3-6 0-1-2-3-4-3z m100 9c0 4 3 8 8 8 4 0 9-3 9-8 0-4-3-9-9-9-2 0-4 2-5 3-3 2-3 3-3 6z m-100 23c-3 0-7 0-9-1-6-3-10-7-13-13-2-5-2-12 0-18 3-5 7-9 13-12 5-3 12-3 17 0 6 3 10 7 13 12 1 3 1 6 1 10 0 3 0 6-1 8l64 0c-1-2-1-5-1-8 0-3 0-7 1-10 3-5 7-9 12-12 6-3 13-3 18 0 6 3 10 7 13 12 4 11 0 25-11 31l52 156 23 0 0 15-34 0-11-30-202 0 36-109 130 0-11-30-100 0z m-38 167l-39 0-24 37c-1 2-2 4-3 8l-1 0c0-2-1-4-3-8l-25-37-38 0 46 57-42 57 39 0 21-34c1-3 3-6 4-10l0 0c1 3 3 6 5 10l23 34 36 0-43-56z"/>
<glyph glyph-name="cart-complete" unicode="&#66;" d="M258 498l-19 0 0-33c6 0 13 4 19 4 116 0 210-98 210-215 0-117-94-211-210-211-116 0-213 94-213 211l0 3-29 0 0-3c0-133 107-244 242-244 133 0 242 111 242 244 0 133-109 244-242 244z m-119-20l-71-107-45 39-23-26 71-62 97 137z m51-336c-4 0-8 3-8 9 0 4 3 8 8 8 6 0 7-4 7-8 0-3-1-4-3-6 0-1-2-3-4-3z m100 9c0 4 3 8 8 8 4 0 9-3 9-8 0-4-3-9-9-9-2 0-4 2-5 3-3 2-3 3-3 6z m-100 23c-3 0-7 0-9-1-6-3-10-7-13-13-2-5-2-12 0-18 3-5 7-9 13-12 5-3 12-3 17 0 6 3 10 7 13 12 1 3 1 6 1 10 0 3 0 6-1 8l64 0c-1-2-1-5-1-8 0-3 0-7 1-10 3-5 7-9 12-12 6-3 13-3 18 0 6 3 10 7 13 12 4 11 0 25-11 31l52 156 23 0 0 15-34 0-11-30-202 0 36-109 130 0-11-30-100 0z"/>
<glyph glyph-name="cart-processing" unicode="&#67;" d="M183 165c-4 0-8 2-8 8 0 4 3 8 8 8 6 0 7-4 7-8 0-3-1-4-3-6 0-1-2-2-4-2z m97 8c0 4 2 8 8 8 4 0 8-3 8-8 0-4-3-8-8-8-3 0-4 1-6 2-2 2-2 3-2 6z m-97 22c-2 0-6 0-9-1-5-3-9-7-12-12-2-5-2-12 0-17 3-6 7-9 12-12 5-3 12-3 17 0 6 3 10 6 12 12 1 2 1 5 1 9 0 3 0 5-1 8l62 0c-1-3-1-5-1-8 0-3 0-7 1-9 3-6 7-9 12-12 5-3 12-3 17 0 6 3 10 6 12 12 4 10 0 24-10 29l50 150 22 0 0 15-33 0-10-29-194 0 34-104 125 0-10-30-97 0z m83 294l-19 0 0-28c7 0 13 0 19 0 113 0 204-94 204-206 0-113-91-203-204-203-113 0-207 90-207 203l0 3-29 0 0-3c0-128 104-235 236-235 129 0 236 107 236 235 0 128-107 234-236 234m-221-232l44 0-22 27-22 27-23-27-22-27z"/>
<glyph glyph-name="certificate-circle" unicode="&#68;" d="M255 510c144 0 256-112 256-255 0-141-112-253-256-253-139 0-255 112-255 253 0 143 116 255 255 255m0-32c-122 0-221-98-221-223 0-123 99-221 223-221 122 0 225 98 225 221-1 125-103 223-227 223m26-92l-106 0 0-246 186 0 0 164z m7-75l0 36 36-36z m-89 52l67 0 0-74 74 0 0-127-141 0z"/>
<glyph glyph-name="certificate-circle-tick" unicode="&#69;" d="M143 484l-74-109-46 39-23-25 72-63 99 140z m121 20l-20 0 0-34c8 0 14 3 20 3 119-1 216-98 216-218 0-118-94-215-214-215 0 0 0 0-2 0-118 0-216 95-218 215l0 3-29 0 0-3c-2-137 109-246 246-247l1 0c137 0 249 112 249 247 0 135-112 249-249 249z m17-120l-109 0 0-253 192 0 0 170z m8-75l0 37 37-37z m-92 54l69 0 0-77 77 0 0-131-146 0z"/>
<glyph glyph-name="checklist" unicode="&#70;" d="M148 443l216 0 0-28-216 0z m0-85l216 0 0-18-216 0z m0-51l216 0 0-18-216 0z m0-52l216 0 0-17-216 0z m0-50l131 0 0-17-131 0z m-18-148l115 0 0 79-115 0z m81 29l-10-10-13 13-12-11-10 10 13 12-13 13 10 10 13-13 13 13 11-10-15-13z m56-29l115 0 0 79-115 0z m68 29l-9-8-24 23 9 9 15-15 22 22 9-9z m80 403l0-464-320 0 0 464 320 0m15 14l-350 0 0-493 350 0z"/>
<glyph glyph-name="chevron-left" unicode="&#71;" d="M448 11l-247 243 247 247 33-33-213-214 213-213z m-167 0l-247 243 247 247 33-33-213-214 213-213z"/>
<glyph glyph-name="circle-tick" unicode="&#72;" d="M256 478c123 0 224-99 224-222 0-123-100-224-223-224-122 0-223 100-223 224 0 123 99 222 222 222m0 34c-142 0-256-114-256-256 0-142 114-256 255-256 140 0 257 114 257 255 0 141-114 257-256 257m86-135l-111-166-70 60-35-40 110-96 152 212z"/>
<glyph glyph-name="chevron-right" unicode="&#73;" d="M67 501l247-247-247-243-33 33 214 214-214 210z m167 0l247-247-247-243-33 33 213 214-213 210z"/>
<glyph glyph-name="circle-tick-fill" unicode="&#74;" d="M256 512c-142 0-256-114-256-256 0-142 114-256 255-256 140 0 257 114 257 255 0 141-114 257-256 257z m-20-377l-112 96 35 41 71-60 111 167 45-31z"/>
<glyph glyph-name="calendar-plus-2" unicode="&#75;" d="M488 317l-31 0 0-267-426 0 0 267 366 0 0 29-366 0 0 60 60 0 0-29 31 0 0 29 244 0 0-29 31 0 0 88-31 0 0-30-244 0 0 30-31 0 0-30-90 0 0-414 487 0z m-214-30l31 0 0-29-31 0z m-91 0l31 0 0-29-31 0z m-92 0l31 0 0-29-31 0z m275-60l31 0 0-29-31 0z m-92 0l31 0 0-29-31 0z m-91 0l31 0 0-29-31 0z m-92 0l31 0 0-29-31 0z m275-58l31 0 0-30-31 0z m-92 0l31 0 0-30-31 0z m-91 0l31 0 0-30-31 0z m-92 0l31 0 0-30-31 0z m275-60l31 0 0-30-31 0z m-92 0l31 0 0-30-31 0z m-91 0l31 0 0-30-31 0z m271 326l0 56-33 0 0-56-57 0 0-29 2 0 0-3 55 0 0-57 33 0 0 57 57 0 0 32z"/>
<glyph glyph-name="calendar-tick" unicode="&#76;" d="M416 465l0 31-31 0 0-31-258 0 0 31-31 0 0-31-96 0 0-449 512 0 0 449z m65-418l-450 0 0 288 450 0z m0 322l-450 0 0 62 65 0 0-31 31 0 0 31 258 0 0-31 31 0 0 31 65 0z m-269-209l-56 54-15-15 71-70 153 155-14 14z"/>
<glyph glyph-name="clock" unicode="&#77;" d="M256 448c-124 0-224-100-224-224 0-124 100-224 224-224 124 0 224 100 224 224 0 124-100 224-224 224z m0-421c-109 0-197 88-196 197 0 109 89 197 196 197 109 0 196-88 196-197 1-109-87-196-196-197z m13 355c-6 0-12-4-12-12l0-148-108 0c-6 0-12-6-12-12 0-6 6-11 12-11l132 0 0 173c0 6-6 10-12 10z m-209 8c41 46 94 77 154 86l-6 12c-10 21-37 28-58 18l-81-42c-19-10-28-36-17-56z m392 0l9 18c10 20 2 46-18 56l-81 42c-21 10-46 3-58-18l-6-12c60-9 115-40 154-86z"/>
<glyph glyph-name="camera" unicode="&#78;" d="M508 429l0-378-504 0 0 378 136 0 30 32 170 0 32-32z m-32-32l-117 0-32 32-144 0-32-32-115 0 0-314 440 0z m-392-31c8 0 16-8 16-16 0-5-2-9-5-12-6-6-16-6-21 0-6 6-6 16 0 22 1 4 5 7 10 6z m173 0c17 0 33-3 49-10 30-13 55-38 66-68 13-32 13-67 0-98-13-31-37-55-66-67-32-13-67-13-98 0-31 13-55 38-68 67-13 31-13 66 0 98 13 30 37 55 66 68 16 7 33 11 51 10z m0-220c13 0 24 3 36 8 23 10 40 27 50 50 10 23 10 51 0 74-10 23-27 40-50 50-23 10-51 10-74 0-23-10-40-27-50-50-10-23-10-51 0-74 10-23 27-40 50-50 12-6 25-8 38-8z"/>
<glyph glyph-name="cup-circle" unicode="&#79;" d="M256 478c123 0 224-99 224-222 0-123-100-224-223-224-122 0-223 100-223 224 0 123 99 222 222 222m0 34c-142 0-256-114-256-256 0-142 114-256 255-256 140 0 257 114 257 255 0 141-114 257-256 257m108-189c-1 6-7 11-13 13-9 3-17 2-25-2l2 11 1 6-148 0 2-6 1-11c-7 4-16 5-23 2-6-2-10-7-13-13-5-14-3-30 4-44 6-17 22-30 41-33 2 0 3 0 6 0 4-24 23-41 45-46l0-8c-29-5-49-30-51-59l0-4 126 0 0 4c0 29-22 54-51 59l0 8c23 5 41 22 45 46 2 0 3 0 6 0 19 3 35 16 41 33 7 14 9 30 4 44z m-203-39c-6 11-7 23-4 36 1 5 4 8 7 9 9 2 17-1 23-7 5-29 10-60 10-65-10-5-27 8-36 27z m192 0c-9-19-27-32-37-28 0 6 6 35 10 64 6 8 15 11 24 8 3-2 5-5 7-9 3-12 1-25-4-35z"/>
<glyph glyph-name="ez-points" unicode="&#80;" d="M367 405l-209 0 0-35 156 0-69-103-102 0 0-35 81 0-81-118 0-15 220 0 0 35-165 0 67 98 98 0 0 35-77 0 81 120z m-111 107c-142 0-256-114-256-256 0-142 114-256 256-256 142 0 256 116 256 256-2 142-116 256-256 256z m0-475c-125 0-226 97-226 219 0 122 101 219 226 219 125 0 226-97 226-219 0-120-103-219-226-219z"/>
<glyph glyph-name="ez" unicode="&#81;" d="M0 418l216 0 0-51-165 0 0-86 165 0 0-50-165 0 0-86 165 0 0-51-216 0z m266-51l0 51 244 0-175-273 160 0 0-51-251 0 174 273z"/>
<glyph glyph-name="cup" unicode="&#82;" d="M507 447c-6 13-15 25-30 31-19 7-40 4-56-8l4 28 3 13-344 0 3-12 4-28c-16 11-37 15-56 8-14-5-24-17-30-31-9-33-5-69 11-100 23-48 60-79 94-79 4 0 9 0 13 1 11-54 53-95 106-106l0-20c-65-11-115-67-116-134l0-11 288 0 0 11c-2 67-51 123-117 134l0 20c54 10 97 51 106 105 4-2 8-2 12-2 34 0 72 31 94 79 17 31 20 67 11 101z m-472-90c-14 26-18 55-10 83 3 8 10 16 18 20 15 7 35-1 54-18 10-67 22-138 24-150-26-10-65 20-86 65z m237-173l-9-1 0-56 9-2c56-5 101-48 107-104l-245 0c7 55 51 99 107 104l10 2 0 56-10 1c-55 6-98 51-99 106 0 2 0 4-32 199l293 0c-32-195-32-199-32-199-2-55-44-99-99-106z m206 173c-21-45-60-75-85-64 1 12 13 82 24 149 19 16 39 24 52 17 8-4 15-11 18-19 8-28 4-57-9-83z"/>
<glyph glyph-name="cross-circle" unicode="&#83;" d="M337 151l-82 77-77-77-29 27 78 77-78 82 27 27 78-77 77 77 32-31-78-78 78-77z m175 106c0 140-112 254-252 255-2 0-3 0-5 0-140 0-255-115-255-255 0-141 115-256 255-256 142-1 257 114 257 256z m-31 0c-2-124-102-223-226-223-122 0-221 99-221 221 0 0 0 2 0 2-1 122 96 222 218 224 2 0 2 0 3 0 124 1 226-100 226-224z"/>
<glyph glyph-name="expand" unicode="&#84;" d="M96 321l-15 16 174 175 175-175-15-15-160 158z m319-130l15-15-175-176-174 176 15 15 159-159z"/>
<glyph glyph-name="envelope" unicode="&#85;" d="M0 416l512 0 0-320-512 0z m32-288l448 0 0 222-224-111-224 111z m443 256l-439 0 220-110z"/>
<glyph glyph-name="copy" unicode="&#86;" d="M137 19c-9-6-20-7-32-7-16 0-30 6-39 16-9 11-15 25-15 41 0 17 6 32 16 44 11 12 26 16 42 16 11 0 20-1 27-4l0-19c-8 4-16 7-26 7-12 0-21-4-29-12-8-8-11-19-11-31 0-12 4-23 11-30 7-6 16-10 28-10 11 0 20 2 28 8z m68-7c-16 0-30 6-39 16-10 11-15 25-15 42 0 19 5 32 15 43 9 11 23 16 40 16 16 0 28-5 39-16 11-11 15-24 15-42 0-18-5-33-15-44-9-11-23-15-40-15z m1 100c-11 0-19-4-25-12-7-8-10-18-10-31 0-12 3-23 10-31 6-8 14-12 24-12 11 0 19 4 25 10 7 7 10 18 10 31 0 14-3 25-10 31-6 7-13 14-24 14z m93-58l0-41-19 0 0 114 34 0c13 0 23-3 30-10 6-7 10-15 10-25 0-11-4-21-10-27-7-7-17-11-30-11z m0 58l0-42 12 0c8 0 15 1 19 5 4 4 7 10 7 17 0 13-8 20-23 20z m155 15l-38-72 0-42-19 0 0 41-36 73 23 0 23-49c0 0 1-3 3-7 0 2 1 4 2 7l23 49z m-265 129l167 0 0 224-167 0z m-34 256l0-224 20 0 0 205 147 0 0 19z"/>
<glyph glyph-name="conversation-fill" unicode="&#87;" d="M260 438l-224 0c-20-1-36-20-36-40l0-143c-1-21 13-38 33-41 2 0 2 0 3 0l54 0 117-77-23 77 76 0c21 0 36 16 36 35 0 0 0 1 0 1l0 148c2 20-13 37-33 40-1 0-1 0-3 0m216-62l-161 0 0-126c0-29-23-53-53-53 0 0-2 0-2 0l-44 0 0-9c0-20 15-36 34-36 0 0 2 0 2 0l76 0-23-77 117 77 54 0c20 0 36 17 36 37 0 2 0 2 0 3l0 144c0 20-14 37-36 40z"/>
<glyph glyph-name="duplicate" unicode="&#88;" d="M348 358l0-71 71 0z m-154-317l247 0 0 216-123 0 0 123-124 0z m-123 93l93 0 0 278 101 0-60 63-132 0z m269 276l131-133 0-268-307 0 0 93-123 0 0 401 176 0 93-93z"/>
<glyph glyph-name="drag-and-drop" unicode="&#89;" d="M397 512l-287 0 0-32 287 0z m-298-245l155 157 155-157-23-22-116 117 0-362-32 0 0 362-117-117z"/>
<glyph glyph-name="conversation" unicode="&#90;" d="M218 140l-126 82-48 0c-23 0-42 20-42 44 0 1 0 1 0 3l0 133c0 24 19 45 42 46l206 0c24 0 42-20 42-43 0-2 0-2 0-3l0-136c0-24-18-42-42-42l-57 0z m-174 288c-14-1-23-14-23-28l0-131c-2-14 8-26 21-27 1 0 1 0 2 0l54 0 87-57-17 57 82 0c13 0 24 10 24 22 0 2 0 2 0 3l0 135c2 14-7 25-21 28-1 0-1 0-3 0z m250-364l24 83-58 0c-24 0-42 18-42 42l0 18 51 0c22 0 39 17 40 39 0 0 0 0 0 2l0 124 157 0c24-1 42-22 42-46l0-132c2-23-15-45-39-46-1 0-1 0-3 0l-46 0z m-56 123c0-12 11-22 24-22l82 0-17-58 89 58 52 0c14 0 23 11 23 25 0 2 0 2 0 3l0 132c0 14-9 26-23 28l-139 0 0-107c0-32-25-59-58-59 0 0-1 0-1 0z"/>
<glyph glyph-name="controller" unicode="&#48;" d="M477 369c-11 16-23 38-39 48l6 6c-28 22-71 15-71 15l-5-5c-33-10-33-38-115-38-81 0-76 28-107 38l-4 7c0 0-44 5-71-16l0-5c-16-11-22-33-33-49-16-38-43-140-38-216 5-59 16-71 43-71 28-6 71 48 103 76 38 27 184 27 222 0 32-28 70-82 97-76 33 0 38 10 43 71 12 73-14 177-31 215m-379-60c-22 0-38 15-38 38 0 22 16 38 38 38 21 0 39-16 39-38 0-21-18-38-39-38m75-103c-21 0-43 22-43 43 0 28 21 49 43 49 28 0 49-22 49-49 1-22-21-43-49-43m82 103c-16 0-33 15-33 32 0 23 16 33 33 33 22 0 38-10 38-33 0-15-16-32-38-32m76-92c-22 0-33 15-33 32 0 23 11 39 33 39 21 0 38-16 38-39 0-17-16-32-38-32m38 114c-5 0-16 5-16 16 0 5 11 15 16 15 10 0 16-10 16-15 0-11-6-16-16-16m43-43c-10 0-16 5-16 15 0 11 6 16 16 16 11 0 16-5 16-16 0-10-5-15-16-15m0 81c-5 0-16 10-16 16 0 10 11 15 16 15 11 0 16-5 16-15 0-6-5-16-16-16m44-38c-11 0-16 5-16 16 0 5 5 15 16 15 10 0 15-10 15-15 0-11-5-16-15-16"/>
<glyph glyph-name="device" unicode="&#49;" d="M502 142l-302-104c-4 0-7 3-9 8l-170 420c-1 3-1 7 0 8 0 0 0 0 2 0l339-5c3 0 8-3 9-8l131-311c2-3 0-8 0-8m-325-96l-166 410c-1 5-3 9 4 13 0-1 0-3 1-4l167-421c2-3 3-5 5-8-8 0-10 5-11 10m-146 6c8 30 49 154 61 188l60-152c-16-6-111-34-121-36m476 87c2 3 2 10 0 15l-131 311c-3 6-8 13-14 11l-339 5c-2 0-3 0-5-2-16-10-15-16-11-26l81-204c-5-13-54-166-63-197 0-1 0-3 1-5 2-1 3-1 5-1l2 0c10 3 106 31 121 36l16-39c3-7 7-14 16-14 4 0 7 0 12 2l2 0 302 103c3 2 5 3 5 5m-321-113c-13 0-16 8-19 15l-17 36c-11-3-40-12-67-20-24-6-45-13-50-14l-4 0c-1 0-4 0-8 3-3 3-3 6-3 8l0 2c8 27 56 173 64 194l-80 203c-4 12-5 20 13 31 3 2 6 2 8 2l337-5c5 2 13 0 18-13l131-311c1-7 1-13 0-18 0-5-5-7-7-8l-304-103c-5-2-8-2-12-2z m5 12l2-4c0 0 2 0 2 0 0 2-2 2-4 4z m-166 433c0 0 0-2 0-2l170-420c1-3 3-5 3-5l299 103c0 2 0 3 0 3l-131 311c-1 4-4 5-6 5z m160-422l1-3z m-93 180c-13-41-45-136-56-170 23 6 88 26 110 33z m109-157l-149 376 303 2 119-285z m159 383c0 1-2 1-3 1l-310-1c-1 0-1 0-3-2 0-2 0-2 0-3l152-383c0-2 2-2 4-2 0 0 0 0 1 0l278 95c2 0 2 2 2 2 0 0 0 2 0 3z m-159-393l-1 0c-5 0-7 3-7 5l-154 384 0 5 2 2c2 2 3 3 6 3l310 2c5 0 6-3 6-5l121-291 0-3c0-4-1-5-5-5z m-144 383l146-366 265 89-116 279z"/>
<glyph glyph-name="day" unicode="&#50;" d="M46 81c-27 9-46 34-46 63 0 34 28 62 62 62 4 0 6 0 10-1 12 26 40 40 69 34 2 38 33 67 71 65 26-1 49-17 59-42 7 3 15 3 22 3 51 0 92-42 92-93 0-50-41-92-92-92m-229 23l229 0c39 0 71 31 72 71 2 39-31 71-70 72-9 0-18-1-26-4l-12-5-2 12c-7 25-34 39-58 32-19-6-33-23-34-44 0-3 0-7 1-9l4-22-19 10c-21 11-45 3-57-17-1-2-2-5-3-8l-2-10-11 3c-3 1-8 2-12 2-23 0-42-19-41-42 0-21 16-38 37-41z m212 231c5 9 13 17 24 24l-28 28c-6 7-16 7-23 1 0 0 0 0-1-1-7-7-7-18 0-25z m81 41l18 0 0 38c0 9-8 16-18 18-9 0-16-6-17-15 0-2 0-2 0-3l0-38z m80-41l26 27c7 7 7 18 0 25-3 7-13 7-20 0l-31-28c10-6 18-14 25-24m57-41l-41 0c1-5 2-11 3-17 0-3-3-10-3-14l41 0c7 0 18 7 18 14-1 9-8 16-18 17m-57-72c-6-9-14-17-24-24l31-28c3-3 7-7 10-7 4 0 7 4 11 7 6 7 6 17 0 24z m-80 130c-40 0-72-31-74-71 3 0 6 1 10 1 44 0 84-28 99-68 23 12 38 37 37 63 1 40-30 74-72 75z"/>
<glyph glyph-name="connections" unicode="&#51;" d="M68 103c0-4 0-7 2-11 1-3 3-6 6-9 3-2 6-4 9-6 4-1 7-2 11-2 4 0 8 1 11 2 4 2 6 4 9 6 3 3 5 6 6 9 2 4 3 7 3 11 0 5-1 8-3 12-1 3-3 6-6 9-3 2-5 4-9 6-3 1-7 2-11 2-4 0-7-1-11-2-3-2-6-4-9-6-3-3-5-6-6-9-2-4-2-7-2-12m45-30c5-1 9-4 13-7 4-3 8-7 10-10 3-4 5-9 7-13 1-5 2-10 2-16l-7 0c0 7-2 12-4 17-2 5-5 10-9 13-3 4-8 7-13 9-5 2-10 4-17 4-4 0-7-1-11-2-3-1-7-2-10-4-3-2-6-4-8-6-3-3-5-6-6-9-3-2-4-6-5-9 0-4-1-8-1-11l-7 0c0 5 1 10 2 15 2 5 4 9 6 13 4 2 7 6 11 9 4 3 8 6 13 7-3 1-6 3-8 6-2 2-4 4-5 6-2 3-3 6-4 9 0 3-1 6-1 9 0 5 1 9 3 14 2 4 4 7 7 11 4 3 7 5 11 7 4 2 9 3 14 3 5 0 10-1 14-3 4-2 8-4 11-7 4-4 6-7 8-11 2-5 2-9 2-14 0-4 0-6-1-9-1-3-2-6-3-9-2-2-4-4-6-6-3-3-5-5-8-6m-15-71c-52 0-95 42-95 94 0 52 43 94 95 94 53 0 95-42 95-94 0-52-43-94-95-94z m0 178c-46 0-84-38-84-84 0-47 38-84 84-84 47 0 85 37 85 84 0 46-38 84-85 84z m241 108c0-6 1-11 3-16 2-5 5-9 8-12 3-4 8-6 12-8 5-3 10-3 16-3 5 0 10 0 15 3 5 2 9 4 12 8 4 3 7 7 9 12 2 5 2 10 2 16 0 5 0 10-2 15-2 5-5 9-9 12-3 4-7 6-12 9-5 2-10 2-15 2-6 0-11 0-16-2-4-3-9-5-12-9-3-3-6-7-8-12-2-5-3-10-3-15m63-43c7-2 13-6 19-11 5-4 10-9 14-15 4-5 7-12 9-19 2-7 4-13 4-20l-10 0c0 8-2 16-4 23-3 7-7 13-13 19-6 5-12 9-20 12-7 3-15 4-23 4-6 0-11 0-16-2-5-1-10-3-14-5-4-3-8-6-12-9-3-4-7-8-9-12-3-4-4-9-5-14-2-5-2-10-2-16l-11 0c0 8 2 15 4 21 2 7 5 13 9 19 4 5 9 10 14 14 6 4 12 8 19 11-4 2-8 4-11 7-4 3-6 6-9 11-2 3-4 7-4 11-2 5-2 9-2 14 0 6 1 13 4 19 2 6 6 11 10 15 4 4 10 8 16 11 6 2 12 4 19 4 7 0 13-2 20-4 6-3 11-7 16-11 4-4 8-10 10-15 3-6 4-13 4-19 0-5-1-9-2-14-1-4-3-8-5-11-2-4-5-7-8-11-4-3-8-5-11-7m-21-99c-70 0-127 56-127 126 0 70 57 127 127 127 70 0 127-57 127-127 0-70-57-126-127-126z m0 239c-62 0-113-50-113-113 0-62 50-112 113-112 63 0 114 50 114 112 0 63-52 113-114 113z m-321 49c0-3 1-6 2-9 2-3 3-5 5-7 2-3 5-5 8-5 2-2 6-2 9-2 2 0 6 0 9 2 2 1 5 2 7 5 2 2 4 4 5 7 2 3 2 6 2 9 0 3 0 6-1 9-2 3-3 6-5 8-2 2-5 4-8 5-2 1-6 2-9 2-2 0-7-1-9-2-3-2-6-3-8-5-2-2-3-5-5-8-1-3-2-6-2-9m38-26c4-2 9-4 12-6 3-3 6-6 9-9 2-4 4-7 6-11 1-5 2-9 2-13l-7 0c0 5 0 10-2 14-2 4-5 8-8 11-3 3-7 6-11 8-4 2-9 2-14 2-3 0-6 0-10-1-4-1-7-2-9-3-3-2-5-4-7-6-2-2-4-5-6-7-1-3-2-5-3-8-1-3-2-6-2-10l-6 0c0 4 1 9 2 13 2 4 4 7 6 11 2 3 5 6 9 9 3 2 7 4 11 6-3 1-5 3-6 5-2 2-4 4-5 6-2 2-2 5-4 8 0 2-1 5-1 7 0 4 1 8 2 12 1 3 4 7 6 10 4 2 6 4 11 5 3 2 7 2 11 2 5 0 9 0 12-2 4-1 7-3 10-6 3-3 5-6 6-10 1-3 2-7 2-11 0-3-1-5-1-7-1-3-2-5-4-7-1-2-2-5-5-7-1-2-3-4-6-5m-12-62c-45 0-83 37-83 82 0 45 38 82 83 82 45 0 82-36 82-82 0-46-37-82-82-82z m0 154c-40 0-72-33-72-72 0-40 32-72 72-72 39 0 72 32 72 72 0 39-32 72-72 72z m90-372l109 72 8-11-109-72z m-28 263l7 12 126-72-6-12z"/>
<glyph glyph-name="connect" unicode="&#52;" d="M63 192l0 32 161 0 0-161-32 0 0 105-169-168-23 23 170 169z m449 297l-168-169 105 0 0-32-161 0 0 161 32 0 0-105 169 168z"/>
<glyph glyph-name="cup-progress" unicode="&#53;" d="M356 292c-9-19-25-31-35-26 0 4 5 33 10 60 5 6 13 9 21 8 4-2 6-5 7-8 4-12 3-24-3-34z m-180 0c-5 10-7 22-4 34 2 3 4 6 7 7 8 2 17-1 22-7 5-27 9-56 10-61-10-3-26 8-34 27z m192 37c-2 5-6 10-12 12-8 3-16 2-23-3l2 12 1 5-139 0 1-5 2-12c-7 5-16 6-23 3-6-2-10-7-12-12-4-14-3-29 4-41 6-17 21-30 38-33 2 0 4 1 5 1 5-21 22-38 44-42l0-8c-28-4-48-27-48-55l0-4 117 0 0 4c0 28-20 51-47 55l0 8c21 4 38 21 43 43 1 0 3-1 5-1 17 3 32 15 38 32 7 13 8 27 4 41z m-97 166l-19 0 0-29c7 0 13 0 19 0 116 0 209-95 209-210 0-115-93-207-209-207-115 0-211 92-211 207l0 3-29 0 0-3c0-131 106-239 240-239 132 0 241 108 241 239 0 131-109 239-241 239m-225-237l45 0-23 28-22 27-23-27-23-28z"/>
<glyph glyph-name="cup-fill" unicode="&#54;" d="M506 447c-4 14-15 25-28 31-18 7-40 4-57-7l5 28 1 12-342 0 3-13 4-28c-17 11-38 14-57 7-12-6-24-17-28-31-10-33-6-68 10-99 23-49 61-80 95-80 4 0 8 0 11 2 10-54 52-96 106-105l0-20c-66-10-116-66-117-134l0-9 288 0 0 10c-1 68-51 125-117 135l0 19c54 10 96 51 106 105 4-1 8-1 13-1 34 0 72 31 94 79 16 30 20 66 10 99z m-471-91c-14 26-17 56-10 84 3 8 9 15 17 18 15 7 34 0 54-18 11-67 23-137 24-149-25-10-65 20-85 65z m442 0c-22-45-60-75-87-65 2 12 13 82 24 149 19 17 39 24 54 18 9-4 14-10 17-18 9-28 6-58-8-84z"/>
<glyph glyph-name="compress" unicode="&#55;" d="M423 512l15-16-183-184-183 184 16 16 167-167z m-335-512l-16 16 183 183 183-183-15-16-168 167z"/>
<glyph glyph-name="community" unicode="&#56;" d="M420 327c33-17 59-48 70-84 4-13 6-26 6-38l-34 0c0 14-3 26-9 39-9 24-29 44-55 55-25 11-53 11-79 0-24-10-43-30-55-55-5-13-8-25-8-39 0-33-16-64-41-84 34-17 59-48 71-84 4-13 5-26 5-38l-34 0c0 14-2 26-8 39-10 24-30 44-55 55-25 11-54 11-79 0-24-10-44-30-55-55-6-13-9-25-9-39l-33 0c0 12 1 25 5 38 3 12 9 24 16 34 12 21 32 39 55 50-26 20-41 50-43 82 0 14 3 27 9 40 10 24 30 43 55 55 13 5 25 8 39 8 33 0 64-15 82-41 14 27 36 48 62 62-25 20-41 50-42 82 0 14 3 27 8 40 10 24 30 43 55 55 26 11 54 11 79 0 24-10 44-30 55-55 6-13 9-26 9-40-1-32-17-62-42-82z m-266-190c9 0 19 1 27 5 17 8 30 20 37 37 7 17 7 37 0 54-7 17-20 29-37 36-17 7-36 7-53 0-17-7-30-19-37-36-7-17-7-37 0-54 7-17 20-29 37-37 8-4 17-5 26-5z m136 273c0-8 1-18 5-26 8-17 20-30 37-37 17-7 37-7 54 0 17 7 29 20 36 37 7 17 7 36 0 53-7 17-21 30-36 37-17 7-37 7-54 0-17-7-29-20-37-37-4-10-5-18-5-27z"/>
<glyph glyph-name="cup-circle-tick" unicode="&#57;" d="M143 484l-73-109-47 40-23-27 73-62 99 139z m122 21l-21 0 0-34c8 0 13 3 21 3 119-1 215-99 215-219 0-120-95-216-214-216 0 0 0 0-1 0-120 0-217 96-218 216l0 2-30 0 0-2c-1-137 110-248 246-249 0 0 2 0 2 0 136 0 248 112 248 249 0 136-112 250-248 250m113-185c-1 6-7 10-13 13-9 3-17 2-25-3l2 12 1 6-147 0 2-6 1-12c-7 5-16 6-24 3-6-3-11-7-14-13-4-15-2-31 5-44 6-17 22-30 41-33 1 0 2 0 5 0 5-23 24-41 45-44l0-8c-29-5-49-30-50-59l0-4 123 0 0 4c0 29-22 54-51 59l0 8c24 5 41 22 45 45 2 0 3 0 6 0 19 3 35 16 41 34 10 13 12 27 7 42z m-203-39c-6 11-8 23-5 36 2 4 5 7 7 9 9 1 18-2 24-7 4-30 10-60 10-64-10-6-26 7-36 26z m190 0c-9-19-26-32-36-28 0 6 6 35 10 64 6 7 14 10 23 7 3-1 6-4 7-8 3-11 2-24-4-35z"/>
<glyph glyph-name="cup-circle-star-tick" unicode="&#33;" d="M143 484l-73-109-47 40-23-27 73-62 99 139z m122 21l-21 0 0-34c8 0 13 3 21 3 119-1 215-99 215-219 0-120-95-216-214-216 0 0 0 0-1 0-120 0-217 96-218 216l0 2-30 0 0-2c-1-137 110-248 246-249 0 0 2 0 2 0 136 0 248 112 248 249 0 136-112 250-248 250m113-185c-1 6-7 10-13 13-9 3-17 2-25-3l2 12 1 6-147 0 2-6 1-12c-7 5-16 6-24 3-6-3-11-7-14-13-4-15-2-31 5-44 6-17 22-30 41-33 1 0 2 0 5 0 5-23 24-41 45-44l0-8c-29-5-49-30-50-59l0-4 123 0 0 4c0 29-22 54-51 59l0 8c24 5 41 22 45 45 2 0 3 0 6 0 19 3 35 16 41 34 10 13 12 27 7 42z m-203-39c-6 11-8 23-5 36 2 4 5 7 7 9 9 1 18-2 24-7 4-30 10-60 10-64-10-6-26 7-36 26z m119-38l-23 16-24-16 9 28-23 16 29 0 9 27 8-27 28 0-23-16z m73 38c-9-19-27-32-37-28 0 6 6 35 10 64 6 7 15 10 24 7 3-1 5-4 7-8 3-11 1-24-4-35z"/>
<glyph glyph-name="cog" unicode="&#34;" d="M447 266c0-2 0-4 0-5 0-2 0-3 0-5 0-2 0-3 0-5 0-1 0-3 0-5l65-40-41-96-74 18c-3-5-8-8-13-13l16-74-95-41-41 65-18 0-40-65-96 41 18 74c-5 3-8 8-13 13l-74-18-41 97 65 41c0 2 0 3 0 5 0 1 0 3 0 5 0 1 0 3 0 4 0 2 0 4 0 5l-65 41 41 95 74-17c3 4 8 8 13 13l-18 72 96 41 40-65 18 0 41 65 95-41-18-74c5-3 8-8 13-13l75 18 40-96z m-29-33l2 12c0 3 0 8 0 11 0 5 0 8 0 11l-2 12 58 37-21 52-68-16c-5 6-9 11-16 17-5 5-11 12-18 17l16 68-51 22-38-60-11 2c-3 0-8 0-11 0-4 0-8 0-12 0l-11-2-41 60-51-21 16-68c-7-5-12-9-18-16-5-5-10-11-16-18l-68 16-21-51 60-38-2-11c0-3 0-8 0-11 0-5 0-8 0-12l2-11-60-37 21-52 68 16c5-6 9-11 16-18 5-5 11-11 18-16l-16-68 51-23 38 60 11-1c3 0 8 0 11 0 4 0 8 0 12 0l11 1 37-60 52 21-16 68c6 5 11 10 18 17 5 4 11 11 16 17l68-16 21 52z m-162 117c13 0 26-3 37-8 23-10 41-28 50-50 10-25 10-51 0-73-9-23-27-41-50-50-24-10-50-10-73 0-22 9-40 27-50 50-10 24-10 50 0 73 10 22 28 40 50 50 10 5 23 8 36 8z m0-160c8 0 18 1 26 4 16 7 29 20 36 36 6 16 6 36 0 52-7 16-20 29-36 36-16 6-36 6-52 0-16-7-29-20-36-36-6-16-6-36 0-52 7-16 20-29 36-36 8-3 16-4 26-4z"/>
<glyph glyph-name="coffee" unicode="&#35;" d="M274 6l-137 0-5 4c-98 110-69 278-69 285l3 12 285 0 1-12c2-7 29-175-75-285z m-124 29l111 0c75 84 70 205 65 244l-236 0c-4-39-11-160 60-244z m218 251l0-36c36-11 54-53 48-88-3-23-16-42-36-54-12-11-23-11-36-17-6-12-12-17-18-29l7 0c24 0 47 6 66 17 27 18 47 45 53 77 10 59-26 116-84 130m-124 96c3 11 8 22 17 29 13 11 20 30 17 48-4 30-40 47-40 47-6 0-12 0-12-5-5-6-5-6 0-12 8-7 13-15 18-23-2-15-8-26-18-36-17-18-23-29-17-48 6-29 42-48 42-48l6 0c6 0 6 0 6 6 5 6 5 11 0 11-9 9-15 19-19 31m-48 29c-4 13-16 24-29 29-6 0-6 0-12-6 0-6 0-6 6-12 3-3 6-7 6-11 0-6-6-12-12-18-8-7-13-17-11-28 6-18 29-24 29-29l6 0c2 0 5 2 5 5 6 6 6 12 0 12-3 3-5 7-5 12 0 5 1 13 5 17 8 7 12 17 12 29"/>
<glyph glyph-name="cup-circle-star" unicode="&#36;" d="M256 478c123 0 224-99 224-222 0-123-100-224-223-224-122 0-223 100-223 224 0 123 99 222 222 222m0 34c-142 0-256-114-256-256 0-142 114-256 255-256 140 0 257 114 257 255 0 141-114 257-256 257m110-186c-2 6-8 10-13 13-9 3-18 2-25-3l1 12 2 6-148 0 1-6 2-12c-8 5-16 6-25 3-6-3-10-7-13-13-5-14-3-31 4-44 6-17 22-30 41-33 2 0 3 0 6 0 4-24 23-41 47-44l0-9c-29-4-50-29-51-58l0-5 124 0 0 5c0 29-22 54-51 58l0 9c23 4 41 22 45 45 2 0 3 0 6 0 19 3 35 16 41 34 9 13 10 28 6 42z m-205-39c-6 11-7 23-4 36 1 5 4 8 7 9 9 2 17-1 23-7 5-30 10-60 10-65-10-5-27 8-36 27z m118-38l-23 16-23-16 8 27-23 17 29 0 9 27 10-27 28 0-23-17z m74 38c-9-19-27-32-37-28 0 6 6 35 10 64 6 8 15 11 24 8 3-2 5-5 7-9 3-10 1-24-4-35z"/>
<glyph glyph-name="ez-points-tick" unicode="&#37;" d="M139 485l-70-107-47 38-22-26 70-60 96 136z m120 19l-19 0 0-32c6 0 13 3 19 3 117-1 211-96 211-214 0-117-92-210-209-210 0 0 0 0-2 0-117 0-211 93-213 210l0 3-28 0 0-3c-2-133 107-242 240-242l1 0c135 0 243 109 243 242 0 133-110 243-243 243z m80-138l-160 0 0-27 119 0-53-80-79 0 0-27 63 0-63-90 0-11 170 0 0 27-126 0 51 74 75 0 0 27-59 0 62 93z"/>
<glyph glyph-name="hero-badge" unicode="&#38;" d="M229 487l58-72-113 0-58 72z m167 0l-58-72-22 0-44 56 13 16z m-68-123c-23 10-47 16-72 16-25 0-47-6-70-16l0 29 142 0z m-72-8c90 0 164-74 164-167 0-94-72-166-164-166-90 0-164 74-164 168 0 93 74 165 164 165z m94-4l0 43 93 115-169 0-18-21-16 21-171 0 93-115 0-43c-54-33-89-95-89-161 0-106 84-189 185-189 101 0 185 85 185 189-2 66-37 128-93 161z m-94-128l0 13 70 0-49-77 45 0 0-14-72 0 49 78z m-57 13l61 0 0-13-47 0 0-25 47 0 0-14-47 0 0-25 47 0 0-14-61 0z m57-171l-131 150 53 51 158 0 49-49z m-103 150l103-119 101 121-29 29-142 0z"/>
<glyph glyph-name="message-lock" unicode="&#39;" d="M260 406c-18 0-28 0-32-7-8-3-8-18-8-35l0-18 75 0 0 15c0 17 0 35-8 39-3 6-14 6-27 6z m187 106l-382 0c-38 0-61-31-61-68l0-253c0-34 26-62 59-62 0 0 2 0 2 0l129 0-38-129 200 129 91 0c38 0 61 31 61 69l0 246c2 35-26 65-61 68z m-107-288c0-9-6-17-16-17 0 0-2 0-2 0l-129 0c-10-2-21 7-21 17l0 105c0 7 8 14 18 17l0 15c0 24 0 45 14 62 16 13 37 19 57 18 19 1 38-5 52-18 15-17 15-38 15-62l0-18c9 0 15-6 15-14z"/>
<glyph glyph-name="message-next" unicode="&#40;" d="M447 512l-382 0c-38 0-61-31-61-68l0-253c0-34 26-62 59-62 0 0 2 0 2 0l129 0-38-129 200 129 91 0c38 0 61 31 61 69l0 246c2 35-26 65-61 68z m-166-282l-58 0 72 68-160 0 0 47 160 0-72 65 58 0 95-90z"/>
<glyph glyph-name="industry-event" unicode="&#41;" d="M414 235c3 2 5 4 7 6 2 2 2 4 4 7 4 6 9 14 11 23 2 8 4 17 6 25 2 9 2 17 4 26 0 8 2 16 2 25 0 4-2 8-4 10-4 5-6 5-10 5-30 0-60 0-89-2-30-3-59-5-89-9l0-55c0-8 2-17 4-25 4-9 9-15 15-21 6-7 13-11 21-15 9-4 17-4 26-4l23 0c8 0 15 2 19 4 6 4 10 6 15 10l10 11c4 4 6 4 11 4 4 0 8 0 10-2 2-2 4-4 4-6 0-2 3-7 3-9-3-2-3-6-3-8z m-321 122c49 11 97 19 146 26 49 6 97 10 148 10-6 15-13 28-23 41-11 12-21 21-34 31-13 9-25 15-40 19-15 4-30 7-47 7-19 0-38-5-55-11-17-6-31-17-46-27-13-13-25-26-34-43-8-17-13-34-15-53z m127-10c-27-4-55-9-80-13-28-4-53-10-81-17l0-46c28 6 53 12 81 17 27 4 53 8 80 12z m211 46c7 0 13-2 19-4 7-2 11-6 15-10 4-5 9-11 11-15 2-7 4-13 4-19 0-7 0-15-2-26 0-8-2-19-4-29-2-11-5-21-9-32-4-10-6-19-12-27-5-9-11-15-17-21-7-7-15-9-24-11l-6-59c-2-11-4-19-8-28-5-8-11-17-17-23-7-6-15-11-26-15-8-4-19-6-29-6-9 0-19 0-28 0-8 0-19 0-27 0l-17-55c-2-4-4-6-6-8-3-3-7-3-9-3-4 0-8 3-10 5-5 4-5 6-5 10 0 2 0 4 2 11 3 4 5 10 7 17 2 6 4 10 6 17 2 6 4 8 4 10-12 4-25 9-36 15-10 6-21 15-31 23-11 9-19 19-26 30-8 10-14 21-19 34 0 2-2 4-2 6 0 4 2 8 4 10 5 5 7 5 11 5 4 0 6 0 8-2 3-3 5-5 7-7 4-8 8-17 12-23 5-8 11-15 17-21 13-13 30-23 47-32 17-6 36-10 55-10l40 0c6 0 13 0 17 2 6 2 10 4 15 8 4 4 8 9 10 13 2 4 4 10 7 17l8 65c-6-4-13-6-19-8-6-2-13-2-21-2l-23 0c-11 0-22 2-30 4-11 4-19 8-27 13-9 6-15 12-22 21-6 8-10 17-14 27-24-2-45-6-68-10-21-5-44-9-68-13l-31-192c0-5-2-7-7-11-2-2-6-4-10-4-4 0-9 2-11 4-4 4-4 6-4 11 0 2 0 2 0 2l27 171c-2 0-6 2-8 2-4 0-6 2-8 2-3 2-5 2-7 7-2 4-2 6-2 8l0 80c0 5 2 7 4 11 2 2 5 4 9 6 4 2 6 2 10 2 5 0 7 2 11 2 2 24 8 47 17 68 10 21 23 40 40 55 17 15 36 27 57 36 21 8 44 13 70 13 21 0 40-3 59-9 19-6 36-15 51-25 14-11 29-26 40-40 12-17 21-34 27-53l2 0z"/>
<glyph glyph-name="find" unicode="&#42;" d="M490 512l-337 0c-7 0-12-6-12-12l0-146c-48-6-85-48-85-98 0-24 9-45 21-62l-64-65c-2-2-3-6-3-9 0-3 2-7 4-9 3-3 6-3 8-3 4 0 7 1 9 4l64 65c13-10 29-17 46-19l0-145c0-6 5-12 12-12l235 0c3 0 7 1 9 4l101 103c2 2 3 5 3 8l0 384c1 6-5 12-11 12z m-90-467l0 61 60 0z m-247 285c40 0 72-33 72-74 0-42-32-75-72-75 0 0-1 0-1 0-39 1-71 34-71 75 0 41 32 74 72 74z m12-173c24 3 45 15 60 32 2 2 3 5 5 7 0 0 1 1 1 1 1 2 2 4 4 6 0 0 1 0 1 1 1 2 2 4 3 6 0 1 1 2 1 2 1 1 2 4 2 6 0 0 1 1 1 2 1 2 2 4 2 6 0 1 1 2 1 3 0 2 0 4 1 6 0 2 0 2 1 4 0 2 1 3 1 5 0 2 0 5 0 7 0 1 0 1 0 2 0 3 0 7-1 10 0 0 0 1 0 1 0 2-1 6-2 8 0 1 0 1 0 2 0 2 0 5-1 8 0 1 0 1-1 2-1 2-2 5-2 7 0 0 0 1-1 1-1 2-3 5-4 7 0 0 0 1 0 1-2 3-3 5-5 8-14 23-39 39-67 43l0 136 311 0 0-357-88 0c-7 0-12-6-12-13l0-92-211 0z"/>
<glyph glyph-name="flag" unicode="&#43;" d="M273 445l189 0 0-252-221 0 0 64-158 0 0-252-32 0 0 504 222 0z m-190-158l158 0 0 190-158 0z m347-62l0 189-157 0 0-189z"/>
<glyph glyph-name="info" unicode="&#44;" d="M256 0c67-1 132 25 179 73 100 100 100 262 0 362-47 49-112 77-179 77-68 0-132-28-180-77-101-100-101-262 0-362 48-48 113-74 180-73m0 33c-58 0-115 24-156 66-85 86-85 225 0 313 88 84 226 84 313 0 39-43 63-99 63-157 0-59-22-115-63-158-42-40-99-64-157-64m19 278l0-186-38 0 0 186z m0 76l0-38-38 0 0 38z"/>
<glyph glyph-name="microsoft" unicode="&#45;" d="M0 512l233 0 0-233-233 0z m271 0l233 0 0-233-233 0z m-271-271l233 0 0-233-233 0z m271 0l233 0 0-233-233 0z"/>
<glyph glyph-name="microsoft-content" unicode="&#46;" d="M0 512l245 0 0-245-245 0z m267 0l245 0 0-245-245 0z m-267-267l245 0 0-245-245 0z m267 0l245 0 0-245-245 0z m5-5l-299 0 0 299 299 0z m-245 54l191 0 0 191-191 0z m512-54l-299 0 0 299 299 0z m-245 54l191 0 0 191-191 0z m-22-321l-299 0 0 299 299 0z m-245 54l191 0 0 191-191 0z m512-54l-299 0 0 299 299 0z m-245 54l191 0 0 191-191 0z"/>
<glyph glyph-name="list" unicode="&#47;" d="M471 386l30 0 0 30-30 0z m-460 0l399 0 0 30-399 0z m460-94l30 0 0 30-30 0z m-460 0l399 0 0 30-399 0z m460-91l30 0 0 29-30 0z m-460 0l399 0 0 29-399 0z m460-92l30 0 0 30-30 0z m-460 0l399 0 0 30-399 0z"/>
<glyph glyph-name="flag-check" unicode="&#58;" d="M273 445l0 64-222 0 0-506 32 0 0 254 158 0 0-64 220 0 0 252z m-84-158l0 64-54 0 0-64-52 0 0 64 52 0 0 63-52 0 0 63 52 0 0-63 54 0 0 63 52 0 0-63-52 0 0-63 52 0 0-64z m189-62l0 62-53 0 0-62-54 0 0 62 54 0 0 64-54 0 0 63 54 0 0-63 53 0 0 63 52 0 0-63-52 0 0-64 52 0 0-62z"/>
<glyph glyph-name="flag-fill" unicode="&#59;" d="M273 445l189 0 0-252-221 0 0 64-158 0 0-252-32 0 0 504 222 0z"/>
<glyph glyph-name="location" unicode="&#60;" d="M299 272c24 25 24 63 0 89-11 11-26 18-43 18-17 0-32-7-43-18-24-26-24-64 0-89 23-24 61-25 86 0-1-1-1-1 0 0z m-72 74c16 17 43 17 58 0 17-16 17-43 0-60-8-8-18-12-29-12-11 0-22 4-29 12-17 17-17 44 0 60z m29-346l7 8c4 5 118 127 163 257l0 2c22 67 7 140-42 190-69 70-180 73-250 6-1-2-3-3-4-4-49-51-66-125-44-191 44-133 159-255 163-260z m-114 445c61 61 160 64 223 4 2-2 3-3 5-4 43-45 59-111 37-171l0-2c-36-108-126-214-151-243-25 29-115 134-151 245-22 58-6 126 37 171z"/>
<glyph glyph-name="mortar-board" unicode="&#61;" d="M512 153c0-6-4-10-10-10-6 0-11 4-11 10l0 163-234 107-228-102 82-46c5 0 6-4 6-7l0-123 140-56 145 56 0 107-141-53c-3-2-4-2-7 0l-82 35c-5 1-8 7-6 12 1 4 7 7 12 6l79-34 151 59c4 1 10 0 12-6 0-2 0-3 0-3l0-129c0-5-3-8-6-9l-153-59c-1-1-4-1-7 0l-148 57c-5 2-6 5-6 9l0 123-96 53c-4 3-5 9-3 13 2 2 3 3 5 5l249 111c3 2 6 2 8 0l243-111c3-2 6-5 6-9z"/>
<glyph glyph-name="night" unicode="&#62;" d="M300 252c-8 0-15-1-23-2-15 35-56 51-92 37-24-11-40-35-42-60-28 5-57-9-69-36-3 0-7 1-9 1-36 0-64-28-64-63 0-29 19-55 47-64l252 0c52 3 93 46 90 98-1 48-41 88-90 89z m0-166l-239 0c-23 1-42 20-41 44 1 23 20 42 45 41 3 0 9-1 12-3l11-4 2 11c6 23 31 35 52 29 3-1 5-1 8-4l20-10-4 23c-1 4-1 6-1 10 0 27 22 48 48 48 22 0 41-15 47-37l3-11 11 4c39 14 81-5 95-43 14-39-6-81-44-95-9-2-18-3-25-3z m66 245c0 46 20 89 55 117-3 0-5 0-8 0-84 0-153-69-153-153 11-6 20-15 26-25 4 0 9 1 13 1 61 0 111-49 111-110 0-5 0-12-1-17l3 0c35 0 70 13 98 36-80 4-143 70-144 151z"/>
<glyph glyph-name="lock-circle" unicode="&#63;" d="M318 274l0 17c0 23 0 43-14 60-10 10-27 17-50 17-27 0-43-7-53-17-14-17-14-37-14-60l0-13c-10-4-17-10-17-17l0-100c0-10 11-17 21-17l123 0c10 0 17 7 17 17l0 100c0 7-7 13-13 13m-94 54c3 6 13 6 30 6 13 0 23 0 27-6 6-4 6-20 6-37l0-13-70 0 0 16c0 17 0 30 7 34m27 177c140 0 250-110 250-251 0-137-110-247-250-247-137 0-251 110-251 247 0 141 114 251 251 251m0-30c-121 0-218-97-218-221 0-120 97-217 218-217 120 0 220 97 220 217 0 124-100 221-220 221"/>
<glyph glyph-name="following" unicode="&#64;" d="M282 230l-59 0 71 68-160 0 0 46 160 0-71 66 59 0 94-90z m166 282l-384 0c-38 0-60-31-60-68l0-253c0-31 23-61 60-61l131 0-39-130 199 130 91 0c39 0 61 31 61 69l0 245c1 37-30 68-59 68z"/>
<glyph glyph-name="global" unicode="&#91;" d="M449 372c-3 5-5 7-7 11-2 4-4 6-6 11 0-3 0-3-2-5 0 0 0-2 0-4 0-2 0-2 2-4 2-2 2-2 4-4 2-3 4-3 6-3 3 0 0-2 3-2z m-17 26c0-2 0-2 0-2l4 0z m-275-119c6 0 12-2 19-4-3 0-5-2-7-2-2 0-4 0-6 0-4 0-6 0-9 0 0 2 3 2 3 2 0 0 0 2 0 4z m-34 11c2 0 4 0 6-2 2 0 6-2 9-2 2 0 6-2 8-5 2-2 4-2 6-2-2 0-2 0-4 0-2 0-2 0-4 0-2 0-6 0-9 2-2 0-4 3-6 5-2 2-4 2-6 2-2 0-5 2-7 2-2 0-4 0-4 0-2 0-2-2-4-2 0 0 0 0-2 0 2 2 4 2 6 2 6 0 9 0 11 0z m133-262c19 0 38 2 57 6 19 4 36 13 53 21 17 8 32 19 44 34 15 13 26 27 36 42-2 4-4 11-6 15-2 4-2 11-2 17 0 6 0 10 0 15 0 4 2 6 2 10 0 2 0 5 2 9 0 2 0 4 0 8 0 2-2 7-4 11-2 4-4 8-9 15 0 2 0 2 0 4 0 2 0 4 0 6 0 2 0 4 0 7 0 2 0 4-2 4-4 0-8 2-12 2-5 2-9 4-13 6l2 2c-2 0-4-2-6-2-2 0-4-2-7-2-2 0-4-2-6-2-2 0-4 0-6 0l-5 0 0 2c-2 0-4-2-8-2-2 0-6-2-8-2-3 0-5 0-7 2-4 2-6 2-10 4-5 2-7 4-9 7-2 2-4 4-4 6 0 0-2 2-4 2-2 0-2 2-5 2-2 0-2 2-2 2 0 0-2 2-2 5l2 2-6 0-2 8c0 0 2-2 2 0 2 0 2 0 2 0l-8 4 6 17c-2 9-2 15-2 21 2 5 4 9 6 13 4 2 7 6 11 9 4 2 8 6 13 12l0 2 16 22 5 0c4 0 10 0 17 0 6 0 12 0 17 2 6 0 12 2 16 2 7 0 11 2 17 4-6 6-10 13-17 19-6 6-12 11-19 17-2 0-4-2-6-2-2-2-6-2-8-4-3-3-5-5-7-7-2-2-2-4-2-6l2-4c-2-5-6-9-10-9-5-2-9-2-11-2-4 0-8 0-13 0-4 0-8 0-12-2l-5 8 5 15-5 7 45 12c-2 5-4 9-9 11-4 2-8 4-12 4l0 2 15 2c-15 9-32 13-49 17-17 4-34 7-51 7-15 0-30-3-42-5-15-2-28-6-43-12-12-7-25-13-38-19-12-9-23-17-33-28 4 0 8-2 10-4 2-2 4-4 6-6 3-3 5-5 7-7 2-2 4-4 8-4l5 2 0 6 8 13-6 19c0 0 2 2 4 2 2 2 2 2 4 2 4 0 9 0 13 0 2 0 4-2 6-2 2-2 4-4 6-6 3-2 5-6 7-9l8 7c2 0 5-2 9-4 4-3 8-5 10-7 5-2 7-4 11-6 2-2 4-4 4-6 0-3 0-5-2-7-2-2-4-2-6-4-2 0-7-2-9-2-4 0-6-2-8-2-2 0-7-2-7-2-2-2-2-2-2-5l15-4c-4-2-6-6-10-8-5-2-9-5-13-7l0-4-23-8 0-7-3 0 3 9c-3 0-3 0-3 0l0-7-4 3 0-3 2-2c0 0 2-2 2-4 0 0 0 0-2-2 0 0-2 0-2-2l-2 0c2 0 2 0 2 0-2 0-4-2-6-2-2-2-6-4-9-7-2-2-4-6-4-10 0-2 0-7 0-9 0-2 0-6 0-8-2 6-6 10-10 15-5 4-11 4-17 4l-11 0 6-4c-2 0-6 0-8 0-2 0-6 0-8 0-3 0-7 0-9-2-2-3-6-3-8-5l-3-10c0-7 3-11 5-13 2-4 6-4 12-4 5 0 11 0 15 2 4 2 11 4 15 4-2-4-4-6-4-10-2-5-4-7-4-11l4-2c4 2 8 2 10 2 5-2 7-4 11-8 4-5 6-7 11-11 4-4 6-6 10-8l-8-5-22 11 0-2c0-2 0-2 0 0l-8 15c-6 0-11 0-17 2-6 2-13 4-19 6-6 2-13 4-17 9-6 2-10 6-15 8l-2-28c0-21 2-40 9-59 6-19 12-38 23-55 11-17 23-34 36-46 15-15 30-26 49-36 0 4 0 6 0 10 0 5 2 7 2 11 2 4 2 6 4 10 2 5 2 7 2 11 0 6 0 11-2 17-2 6-4 13-6 17-3 6-5 13-9 17-2 6-4 10-6 17-2 6-4 10-4 15 0 4 0 8 2 12l-5 2c0 2 3 5 5 7 2 2 4 4 4 6 2 2 2 4 4 6 2 2 2 5 2 9 0 2 0 4-2 6 0 2-2 4-2 4l6-2c2 7 7 11 13 13 4 2 11 4 19 4 0 0 2 0 6-2 3 0 7-2 9-2l8-2c2 0 5-2 7-2 0-2 0-2 2-2 2 0 2 0 2-2l0-3c0 0 2 0 4-2 2-2 4-2 6-4 3-2 5-2 7-4 2-2 2-2 4-2 2 0 6 0 13-2 6-3 10-5 17-9 6-2 12-6 19-10 6-5 12-9 17-13 4-4 8-9 12-13 5-4 5-8 5-10l-9-9c0-8 0-15-2-19-2-4-4-8-8-10-5-3-9-7-13-9-4-2-11-4-17-8 0-5 0-7-2-11-2-4-4-8-7-11-2-4-6-6-8-8-4-2-6-4-11-4l-10 8c0 0 0 0 0-2 0 0 0 0-2 0 2-4 2-6 2-10 0-5-2-9-4-13-3-4-5-9-7-13-2-4-4-6-6-10 8-3 19-5 27-7-8-12 3-12 11-12z m0 484c23 0 47-2 68-8 21-7 42-15 61-26 19-10 36-25 53-40 15-15 30-34 40-53 11-19 19-40 26-61 6-21 8-45 8-68 0-23-2-47-8-68-7-21-15-42-26-61-10-19-25-36-40-53-15-17-34-30-53-40-19-11-40-19-61-26-21-6-45-8-68-8-23 0-47 2-68 8-21 7-42 15-61 26-19 10-36 25-53 40-15 15-30 34-40 53-11 19-19 40-26 61-6 21-8 45-8 68 0 23 2 47 8 68 7 21 15 42 26 61 10 19 25 36 40 53 15 15 34 30 53 40 19 11 40 19 61 26 21 6 45 8 68 8z"/>
<glyph glyph-name="logo" unicode="&#93;" d="M0 512l0-512 512 0 0 512c0 0-512 0-512 0z m234-187l-104 0 0-53 104 0 0-31-104 0 0-54 104 0 0-31-135 0 0 200 135 0z m170-138l0-31-156 0 108 167-94 0 0 32 152 0-108-168z"/>
<glyph glyph-name="outlook" unicode="&#94;" d="M319 268l0-134 169 0c0 0 25 3 23 35l0 176-124-84c0 1-35-28-68 7z m0 140l171 0c0 0 20 1 20-20l-155-103-36 23z m-136-147c0 29-14 53-33 53-18 0-32-24-32-53 0-30 14-54 32-54 19 0 33 24 33 54z m-182 199l0-401 299-59 0 512z m150-290c-37 0-68 40-68 90 0 51 31 91 68 91 38 0 68-40 68-91 0-50-30-90-68-90z"/>
<glyph glyph-name="paper" unicode="&#95;" d="M279 512l169-169 0-343-384 0 0 512z m-182-480l318 0 0 288-159 0 0 160-159 0z m191 425l0-104 105 0z"/>
<glyph glyph-name="logo-text" unicode="&#96;" d="M43 231l-43 0 0 75 41 0 0-11-28 0 0-21 25 0 0-10-25 0 0-22 29 0 0-11z m53 53l-18-27 18-26-14 0-9 16c-1 1-2 3-3 4l0 0c0 0-1-1-2-4l-10-16-14 0 18 26-17 27 14 0 9-17c1-1 2-3 2-4l1 0 12 21z m19-45l0-33-12 0 0 78 12 0 0-9 0 0c4 7 10 11 18 11 7 0 12-3 16-8 4-4 6-11 6-19 0-9-2-16-6-21-5-6-10-8-18-8-7 0-12 3-16 9z m0 21l0-7c0-4 1-7 3-10 3-3 6-4 10-4 4 0 8 2 10 5 3 4 4 9 4 15 0 5-1 9-3 12-3 3-6 5-10 5-5 0-8-2-11-5-2-3-3-7-3-11z m95-6l-37 0c1-5 2-9 5-11 3-3 7-4 12-4 6 0 11 1 16 5l0-10c-5-3-12-5-20-5-8 0-14 3-18 8-5 5-7 11-7 20 0 8 3 15 8 20 5 6 11 8 18 8 8 0 13-2 17-7 4-4 6-11 6-19l0-5z m-12 9c0 4-1 7-3 10-2 2-5 4-8 4-4 0-6-2-9-4-2-3-4-6-4-10z m52 10c-2 1-4 1-7 1-3 0-6-1-9-5-2-3-3-7-3-13l0-26-12 0 0 54 12 0 0-11 0 0c1 4 3 7 6 9 2 2 5 3 8 3 2 0 4 0 5-1z m37-42c-2-1-5-1-9-1-11 0-16 5-16 15l0 30-9 0 0 9 9 0 0 13 12 3 0-15 13 0 0-10-13 0 0-27c0-3 1-5 2-6 1-2 3-2 6-2 1 0 3 0 5 1l0-10z m24 4l44 0 0-4-52 0 0 1 45 69-42 0 0 5 50 0 0-2z m74-5c-7 0-14 2-18 7-5 6-7 12-7 21 0 8 2 15 7 20 5 5 11 8 19 8 8 0 14-3 18-8 4-4 7-11 7-20 0-8-3-15-7-20-5-5-11-8-19-8z m1 51c-7 0-12-2-16-6-3-4-5-10-5-18 0-7 2-12 5-17 4-4 9-6 15-6 7 0 12 2 15 6 4 5 5 10 5 18 0 8-1 13-5 17-3 4-8 6-14 6z m69-50l0 31c0 13-5 19-14 19-5 0-9-2-12-6-4-3-5-8-5-14l0-30-5 0 0 53 5 0 0-9 0 0c4 7 10 11 18 11 6 0 10-2 13-6 3-4 5-10 5-17l0-32z m17 27c0-8 2-13 5-18 3-4 8-6 14-6 6 0 12 2 18 6l0-5c-6-4-12-6-19-6-7 0-12 3-17 8-4 5-6 12-6 21 0 8 2 14 7 20 4 5 10 8 17 8 7 0 12-3 15-7 4-5 6-11 6-19l0-2z m34 4c0 6-1 11-4 14-3 3-7 5-11 5-5 0-9-1-13-5-3-3-5-8-6-14l34 0z"/>
<glyph glyph-name="goal" unicode="&#123;" d="M255 0c-140 0-255 115-255 257 0 142 115 255 255 255 140 0 255-115 255-255 0-140-113-257-255-257z m0 485c-126 0-230-102-230-230 0-127 104-228 230-228 126 0 230 102 230 230 0 127-102 228-230 228z m104-241l-97 99 0-223-14 0 0 223-99-99-9 13 113 115 117-115z m-91-127l-25 0 0 214-92-92-18 18 122 124 124-124-18-18-92 92 0-214z m-16 9l7 0 0 228 100-101 4 4-110 109-107-109 3-4 103 101z"/>
<glyph glyph-name="google" unicode="&#124;" d="M5 256c-2-107 72-209 173-242 96-32 213-8 276 73 47 58 57 134 52 205-82 1-164 1-245 0 0-29 0-58 0-87 49-1 98-1 147-1-12-43-41-82-83-97-83-37-188 11-214 97-31 83 20 183 105 207 52 18 106-2 151-30 22 21 44 44 65 67-51 43-117 69-184 63-132-1-248-123-243-255z"/>
<glyph glyph-name="medal" unicode="&#125;" d="M350 354l0 42 94 116-170 0-18-21-18 21-170 0 94-116 0-43c-56-34-92-97-92-164-2-104 82-189 186-190 104 1 186 86 186 190 0 68-34 131-92 165z m-94 3c91-1 165-76 164-166 1-91-73-167-164-167-91 1-165 76-164 167 0 90 73 166 164 166z m71 9c-46 19-98 19-142 0l0 30 142 0z m70 124l-58-72-23 0-45 55 13 17z m-168 0l58-72-113 0-58 72z m24-372c42 0 74 32 74 74 0 42-32 74-74 74-42 0-74-32-74-74 0-42 34-74 74-74z m-60 74c0 33 27 61 62 61 34 0 61-27 61-61 0-34-27-61-61-61-35 0-62 27-62 61z"/>
<glyph glyph-name="pause" unicode="&#126;" d="M341 0l42 0 0 512-42 0z m-212 0l42 0 0 512-42 0z"/>
<glyph glyph-name="pencil" unicode="&#92;" d="M505 461c-9 20-25 36-45 44-11 4-21 7-32 7-12 0-22-1-32-6-11-4-21-10-28-17l-329-330-39-159 159 39 328 330c8 8 15 16 19 27 5 10 6 20 6 32 0 11-3 23-7 33z m-131-13l11 12c3 4 8 7 12 10 4 3 9 6 13 7 6 2 12 3 18 3 7 0 13-1 20-4 13-6 22-16 28-28 3-6 4-13 4-20 0-6-1-12-3-16-1-5-4-9-7-13-3-5-6-9-10-12l-12-12z m-22-23l73-73-271-271c-11 35-39 63-73 73z m-288-298c31-8 55-31 61-62l-81-21z"/>
<glyph glyph-name="medal-star" unicode="&#57344;" d="M291 134c-2 8-4 16-8 24-2 7-6 15-8 23 6 6 14 10 20 16 6 5 14 9 19 15l-48 0-14 45-14-45-46 0c6-6 13-10 19-15 6-6 14-10 20-16-2-8-6-16-8-23-2-8-4-16-8-24l37 29z m0 43l23-76-60 47-60-47 23 76-60 47 74 0 23 72 23-74 74 0z m-62 310l58-72-113 0-58 72z m167 0l-58-72-24 0-44 56 13 16z m-68-123c-23 10-47 16-72 16-25 0-49-6-72-16l0 29 142 0z m-72-8c90 0 164-74 164-167 0-94-74-166-164-166-90 0-164 74-164 168 0 93 74 165 164 165z m94-4l0 43 93 115-169 0-18-21-18 21-169 0 93-115 0-43c-56-33-91-95-91-161 0-106 84-189 185-189 101 0 185 85 185 189 0 66-35 128-91 161z"/>
<glyph glyph-name="heart" unicode="&#57345;" d="M257 26l-215 214c-17 17-30 41-38 66-3 11-4 23-4 36 0 12 1 25 4 37 6 24 19 48 38 65 41 41 104 54 158 32 17-7 33-19 47-32l8-10 9 9c57 55 147 55 204 0 9-9 18-19 25-31 6-10 12-23 15-35 5-23 5-50 0-73-3-12-9-23-15-35-6-12-15-22-23-31z m-113 424c-14 0-27-1-40-7-14-6-27-13-37-24-13-14-23-30-28-49-4-18-4-38 0-56 5-19 15-35 28-49l188-188 188 188c8 7 14 14 18 23 4 9 9 18 10 26 3 9 3 19 3 28 0 9-1 19-3 28-4 19-14 35-28 49-42 43-110 43-153 0l-33-35-35 35c-10 11-22 18-35 24-13 6-28 7-43 7z"/>
<glyph glyph-name="heart-fill" unicode="&#57346;" d="M469 437c17-17 30-38 36-60 2-11 4-23 4-34 0-22-6-46-17-66-6-10-13-20-21-28l-215-213-212 212c-8 8-15 18-21 28-6 9-10 21-13 32-4 11-5 22-5 35 0 11 1 23 4 34 5 22 18 43 35 60 13 13 27 23 44 30 32 14 68 14 102 0 17-7 31-17 44-30l23-24 24 24c13 13 27 23 44 30 32 14 70 14 102 0 14-7 30-17 42-30z"/>
<glyph glyph-name="medal-tick" unicode="&#57347;" d="M229 127l116 116 2 1-14 12-104-106-50 51-12-12z m121 227l0 42 94 116-170 0-18-21-18 21-170 0 94-116 0-43c-56-34-92-97-92-164-2-104 82-189 186-190 104 1 186 86 186 190 0 68-34 131-92 165z m-94 3c91-1 165-76 164-166 1-91-73-167-164-167-91 1-165 76-164 167 0 90 73 166 164 166z m71 9c-46 19-98 19-142 0l0 30 142 0z m70 124l-58-72-23 0-45 55 13 17z m-168 0l58-72-113 0-58 72z"/>
<glyph glyph-name="pin" unicode="&#57348;" d="M16 3c-3 0-5 2-8 3l-8 3 0 8c0 16 62 93 123 160l-91 89 10 10c36 37 91 49 140 32l110 116c-5 29 7 60 33 78l10 7 177-178-9-10c-22-21-52-32-83-31l-110-110c19-47 5-101-32-135l-10-8-89 89-8-7c-101-87-135-116-155-116z m55 263l89-89-8-9c-42-45-73-82-94-109 26 20 59 49 96 82l27 23 88-89c25 28 30 70 14 104l-4 8 133 133 7-1c19-3 39 1 54 13l-140 140c-12-13-18-31-12-48l1-7-133-140-8 3c-35 16-79 10-110-14z"/>
<glyph glyph-name="pin-circle" unicode="&#57349;" d="M256 512c-67 1-132-25-180-73-101-100-101-263 0-363 46-48 112-76 179-77 68 0 132 27 178 77 101 100 101 263 0 363-45 48-110 74-177 73m0-33c60 0 115-24 156-67 85-86 85-226 0-313-88-84-226-84-313 0-39 44-61 99-63 157 0 58 22 115 63 157 41 42 97 66 157 66m99-179l-63-64c12-24 6-50-13-67l-46 46c-50-43-80-70-86-67 0 3 23 37 67 83l-48 48c17 19 46 25 70 13l62 67c-4 15 2 29 13 37l83-83c-9-12-25-16-39-13"/>
<glyph glyph-name="message" unicode="&#57350;" d="M139 1l39 137-93 0c-38 0-70 31-70 69 0 0 0 2 0 2l0 226c0 44 29 76 70 76l342 0c39-3 70-37 70-76l0-219c0-44-29-77-70-77l-77 0z m-54 478c-28 0-38-24-38-46l0-224c0-21 16-39 37-39 0 0 1 0 1 0l138 0-28-94 144 94 88 0c28 0 38 24 38 46l0 219c0 22-16 42-38 45z"/>
<glyph glyph-name="helmet-circle" unicode="&#57351;" d="M268 375c-59 0-107-48-107-107l0-62c0 0 0 0 0-1l0-29c0-12 9-21 20-21l173 0c12 0 21 9 21 21l0 91c0 60-48 108-107 108z m93-107l0-45-102 0c0 0 0 1 0 1 0 15-11 29-24 32 6 21 29 75 90 86 23-18 36-45 36-74z m-135-27c9 0 16-8 16-17 0-9-7-16-16-16-9 0-17 7-17 16 0 9 8 17 17 17z m42 120c14 0 29-3 41-9-61-18-83-76-88-94-16-4-27-17-27-34 0 0 0-1 0-1l-18 0 0 45c-1 51 41 93 92 93z m93-183c0-5-3-8-7-8l-173 0c-5 0-8 3-8 8l0 28c0 0 0 2 0 2l0 1 23 0c9-15 30-21 45-10 4 3 9 6 10 10l110 0 0-1c0 0 0-2 0-2z m-40 149l-2 0c-3 0-7-3-7-6 0-3 1-5 3-6 7-5 12-12 15-20 1-3 4-6 7-4 3 1 6 4 5 7-3 12-11 23-21 29z m-65 152c123 0 223-100 223-223 0-123-100-223-223-223-123 0-223 100-223 223 0 123 100 223 223 223m0 33c-142 0-256-114-256-256 0-142 114-256 256-256 142 0 256 114 256 256 0 142-114 256-256 256"/>
<glyph glyph-name="helmet-circle-tick" unicode="&#57352;" d="M142 484l-73-110-46 41-23-26 73-63 100 139z m121 21l-19 0 0-34c6 0 13 4 19 4 120-1 215-99 215-219 0-118-95-215-213-215 0 0-2 0-2 0-120 0-216 95-216 215l0 3-29 0 0-3c0-136 109-247 245-249 138 0 249 111 249 249 0 138-111 249-249 249m2-133c-57 0-104-47-104-104l0-60c0 0 0 0 0-2l0-28c0-11 9-20 20-20l167 0c12 0 21 9 21 20l0 88c0 59-47 106-104 106z m90-104l0-44-99 0c0 0 0 1 0 1 0 15-10 28-23 31 5 20 27 73 87 83 22-17 35-44 35-71z m-131-27c9 0 16-7 16-16 0-8-7-16-16-16-9 0-16 8-16 16 0 9 7 16 16 16z m41 117c13 0 28-3 39-8-58-18-80-75-85-93-16-2-26-16-26-32 0 0 0-1 0-1l-17 0 0 44c-2 49 38 90 89 90z m90-178c0-4-2-7-7-7l-168 0c-4 0-7 3-7 7l0 28c0 0 0 1 0 1l0 2 22 0c8-15 29-21 43-11 5 3 9 6 11 11l104 0 0-2c0 0 0-1 0-1z m-39 145l-1 0c-3 0-8-3-8-6 0-3 2-4 3-6 7-4 12-12 15-19 1-3 4-6 7-4 3 1 6 4 4 7-2 12-10 22-20 28z"/>
<glyph glyph-name="message-fill" unicode="&#57353;" d="M65 512l382 0c35-3 63-33 61-68l0-245c0-38-23-68-61-68l-91 0-200-130 38 130-129 0c-34 0-61 26-61 60 0 0 0 1 0 1l0 252c0 37 23 68 61 68"/>
<glyph glyph-name="pin-circle-fill" unicode="&#57354;" d="M256 512c-67 1-132-25-180-73-101-100-101-263 0-363 46-48 112-76 179-77 68 0 132 27 178 77 101 100 101 263 0 363-45 48-110 74-177 73m99-212l-63-64c12-24 6-50-13-67l-46 46c-50-43-80-70-86-67 0 3 23 37 67 83l-48 48c17 19 46 25 70 13l62 67c-4 15 2 29 13 37l83-83c-9-12-25-16-39-13"/>
<glyph glyph-name="prize" unicode="&#57355;" d="M366 313l-17 18-118-117-63 64-17-17 80-81z m-110 199l-40-55-58 35-17-66-66 11 11-66-66-17 35-58-55-40 55-40-35-58 66-17-11-66 66 11 17-66 58 35 40-55 40 55 58-35 17 66 66-11-11 66 66 17-35 58 55 40-55 40 35 58-66 17 11 66-66-11-17 66-58-35z m0-40l33-46 48 29 14-54 56 10-8-59 55-13-30-48 46-33-46-34 30-48-55-15 10-56-58 8-14-55-48 30-33-46-33 46-48-30-15 55-57-10 10 57-55 13 30 48-46 33 46 34-30 48 55 13-10 60 57-10 13 55 48-30z"/>
<glyph glyph-name="squad" unicode="&#57356;" d="M458 366l-200 60c-2 1-4 1-6 0l-200-60 0 63 203 61 203-61z m0-85l-200 60c-2 0-4 0-6 0l-200-60 0 63 203 61 203-61z m0-78c0-75-119-154-203-181-84 27-203 106-203 181l0 56 203 61 203-61z m14 245l-214 64c-2 0-4 0-6 0l-213-64c-5-2-8-6-8-11l0-234c0-95 144-179 221-203 1 0 2 0 3 0 1 0 2 0 3 0 77 24 221 108 221 203l0 234c0 5-3 9-7 11z"/>
<glyph glyph-name="triangle-right" unicode="&#57357;" d="M16 18l0 476 500-238z m35 423l0-370 390 185z"/>
<glyph glyph-name="trash" unicode="&#57358;" d="M464 416l-32 0 0-368c0-6-1-13-4-19-4-12-15-20-26-25-6-3-12-4-19-4l-255 0c-6 0-13 1-19 4-12 5-21 15-26 26-3 6-3 12-3 18l0 368-32 0 0 32 128 0 0 32c0 4 1 9 2 13 3 7 9 13 18 18 3 0 7 1 11 1l96 0c4 0 9-1 13-3 7-3 13-9 18-17 1-5 3-9 3-13l0-32 127 0z m-64 0l-288 0 0-368c0-9 7-16 16-16l256 0c9 0 16 7 16 16z m-193-320l-31 0 0 256 31 0z m0 352l96 0 0 32-96 0z m64-352l-32 0 0 256 32 0z m64 0l-32 0 0 256 32 0z"/>
<glyph glyph-name="social" unicode="&#57359;" d="M433 65c7 0 14 2 18 5 7 2 12 7 17 9 4 5 7 9 9 16 2 5 5 12 5 19 0 7-3 14-5 19-2 7-7 11-9 16-5 5-10 7-17 9-4 3-11 5-18 5-7 0-14-2-19-5-7-2-11-7-16-9-5-5-7-9-9-16-3-5-5-12-5-19 0-7 2-14 5-19 2-7 7-11 9-16 5-5 9-7 16-9 5-5 12-5 19-5m-177 414c-7 0-14-2-19-4-7-3-11-7-16-10-5-4-7-9-9-16-3-4-5-11-5-18 0-7 2-14 5-19 2-7 7-12 9-16 5-5 9-7 16-10 5-2 12-4 19-4 7 0 14 2 19 4 7 3 11 7 16 10 5 4 7 9 9 16 3 5 5 12 5 19 0 7-2 14-5 18-2 7-7 12-9 16-5 5-9 7-16 10-5 4-12 4-19 4m0-446c19 0 40 2 58 9 19 7 37 14 51 25-4 7-7 14-9 21-2 7-5 17-5 24 0 11 3 21 7 30 5 9 10 19 17 26 7 7 16 14 25 16 10 5 21 7 31 7 2 0 4 0 7 0 2 0 4 0 7 0 2 11 2 21 2 32 0 19-2 38-9 56-5 19-14 35-24 51-9 17-23 31-37 42-14 12-30 21-49 31-2-7-7-14-11-21-5-7-12-12-17-17-7-4-14-7-21-9-7-2-16-5-23-5-7 0-16 0-23 5-7 2-14 5-21 9-7 5-12 10-17 17-4 7-9 11-11 21-19-7-35-17-49-31-14-11-28-25-37-42-10-16-19-32-24-51-4-18-9-37-9-56 0-11 0-21 2-32 12 2 24 2 35-2 12-3 21-10 31-17 9-7 16-16 21-28 4-11 7-21 7-35 0-7-3-16-5-23-2-7-7-14-9-21 16-11 32-21 51-25 18-5 39-7 58-7m-223 79c0-7 2-14 4-19 3-7 7-12 10-16 4-5 9-7 16-10 4-2 11-4 18-4 7 0 14 2 19 4 7 3 12 7 16 10 5 4 7 9 10 16 2 5 4 12 4 19 0 7-2 14-4 18-3 7-7 12-10 17-4 4-9 7-16 9-5 2-12 5-19 5-7 0-14-3-18-5-7-2-12-7-16-9-5-5-7-10-10-17-4-4-4-11-4-18m442 67c4-4 11-7 16-14 5-4 9-9 12-16 2-5 4-12 7-19 2-7 2-14 2-18 0-12-2-21-7-31-5-9-9-18-16-25-7-7-17-14-26-16-9-5-21-7-30-7-16 0-30 4-42 11-19-14-40-25-63-32-23-7-46-12-70-12-23 0-46 5-69 12-24 7-45 18-63 32-14-9-28-11-42-11-12 0-21 2-30 7-10 4-19 9-26 16-7 7-14 16-16 25-5 10-7 21-7 31 0 7 0 14 2 18 2 7 5 12 7 19 2 7 7 12 12 16 4 5 9 10 16 14-2 7-2 14-5 23 0 7 0 14 0 24 0 23 3 44 10 67 7 21 16 42 30 61 11 18 28 35 44 49 19 14 37 25 58 32 0 12 3 21 7 30 5 10 9 19 16 26 7 7 17 12 26 16 9 5 21 7 30 7 10 0 21-2 31-7 9-4 18-9 25-16 7-7 14-16 16-26 5-9 7-20 7-30 21-9 42-18 59-32 18-14 32-31 44-49 11-19 23-40 30-61 7-21 9-44 9-67 0-7 0-14 0-24-2-9-2-16-4-23"/>
<glyph glyph-name="private" unicode="&#57360;" d="M332 223c0-10-7-16-16-16l-128 0c-10 0-21 7-21 16l0 105c0 8 8 14 17 17l0 15c0 24 0 45 13 62 11 11 28 17 55 17 24 0 41-8 52-17 15-18 15-38 15-62l0-18c7 0 13-8 13-14z m105 287l-376 0c-38 0-60-31-60-68l0-250c0-31 22-61 60-61l129 0-38-129 195 129 91 0c38 0 61 30 61 68l0 243c-2 37-32 68-62 68z m-178-114c-18 0-29 0-32-7-7-3-7-17-7-35l0-18 75 0 0 15c0 18 0 36-7 39-3 6-14 6-29 6"/>
<glyph glyph-name="preview-circle-tick" unicode="&#57361;" d="M143 484l-73-109-47 40-23-27 73-62 99 139z m122 21l-21 0 0-34c8 0 13 3 21 3 119-1 215-99 215-219 0-120-95-216-214-216 0 0 0 0-1 0-120 0-217 96-218 216l0 2-30 0 0-2c-1-137 110-248 246-249 0 0 2 0 2 0 136 0 248 112 248 249 0 136-112 250-248 250m-9-210c-3 0-7 0-10-1 3-3 6-9 6-13 0-12-9-21-21-21-6 0-10 2-14 6-2-3-2-7-2-10-1-22 16-39 37-39 1 0 1 0 3 0 21 0 39 17 39 39 0 20-18 38-38 39z m0 54c-83 0-132-93-132-93 0 0 49-93 132-93 83 0 132 93 132 93 0 0-49 93-132 93z m0-160c-36 0-67 29-67 66 0 36 29 66 66 66 36 0 66-29 66-65 0-36-29-65-65-67z"/>
<glyph glyph-name="shopping-bag" unicode="&#57362;" d="M337 437c-4 42-40 73-81 73-41 0-77-31-81-73l-106 0 0-435 374 0 0 435z m-81 53c32 0 57-23 61-53l-122 0c4 30 29 53 61 53z m167-462l-334 0 0 384 334 0z"/>
<glyph glyph-name="traingle-left" unicode="&#57363;" d="M496 18l-500 238 500 238z m-425 238l390-185 0 370z"/>
<glyph glyph-name="traiangle-down" unicode="&#57364;" d="M256 17l-239 478 478 0z m-188 446l188-376 188 376z"/>
<glyph glyph-name="search" unicode="&#57365;" d="M505 27c-5 6-12 14-20 23-9 8-18 18-30 30-11 12-23 24-35 36-12 12-24 24-36 36-12 12-23 23-33 33l-39 39c13 16 24 35 30 53 7 19 11 40 11 60 0 16-2 33-7 48-4 16-10 29-17 43-9 14-17 24-28 36-10 10-22 21-36 27-13 7-27 14-41 18-30 8-63 8-94 0-29-12-56-28-77-50-10-10-20-22-29-34-7-14-14-28-17-43-9-31-9-64 0-94 3-16 10-29 17-41 9-14 17-24 27-36 11-11 23-21 36-28 14-7 28-13 41-17 16-3 31-7 47-7 20 0 41 4 60 11 18 6 37 17 53 30l197-197c3-3 6-5 12-5 5 0 8 2 12 5 3 4 5 9 5 12-4 6-5 9-9 12z m-228 208c-13-14-29-24-46-31-17-7-36-12-56-12-19 0-40 3-57 12-17 7-32 17-46 31-14 13-24 29-31 46-7 17-12 36-12 56 0 19 4 38 12 57 7 17 17 32 31 46 15 10 31 21 48 27 17 7 36 12 56 12 38 0 74-15 101-41 14-15 24-30 31-46 7-17 12-36 12-56 0-19-3-38-10-57-9-17-19-32-33-44z"/>
<glyph glyph-name="preview-circle" unicode="&#57366;" d="M256 295c-3 0-7 0-10-1 3-3 6-9 6-13 0-12-9-21-21-21-6 0-10 2-14 6-2-3-2-7-2-10-1-22 16-39 37-39 1 0 1 0 3 0 21 0 39 17 39 39 0 20-16 38-38 39z m0 55c-83 0-133-94-133-94 0 0 50-94 133-94 83 0 133 94 133 94 0 0-50 94-133 94z m0-161c-37 0-67 29-67 66 0 36 29 67 66 67 36 0 67-29 67-66 1-37-29-67-66-67z m0 323c-142 0-256-114-256-256 0-142 114-256 255-256 140 0 257 114 257 255 0 141-114 257-256 257z m0-480c-123 0-222 100-222 223 0 122 99 223 222 223 123 0 222-99 222-222 0-123-99-224-222-224z"/>
<glyph glyph-name="preview" unicode="&#57367;" d="M257 331c-7 0-13-1-20-2 7-8 11-16 11-26 0-21-17-38-38-38-10 0-20 4-27 9-2-7-3-12-3-19-2-40 30-74 71-77 1 0 4 0 6 0 41 0 75 34 77 77-5 42-37 75-77 76z m0 103c-160 0-255-178-255-178 0 0 95-178 255-178 159 0 254 178 254 178 0 0-96 178-254 178z m0-305c-70 0-127 57-127 127 0 70 57 127 127 127 69 0 126-57 126-127 0-70-57-127-126-127z"/>
<glyph glyph-name="scholar" unicode="&#57368;" d="M262 444c-2 1-5 1-8 0l-248-112c-8-3-8-13-1-17l95-52 0-124c0-4 2-7 6-9l149-59c3-2 5-2 7 0l154 59c4 1 7 5 7 9l0 130c0 7-7 11-13 9l-151-59-79 34c-4 2-10 0-12-6-2-5 0-10 5-12l82-35c2-1 5-1 7 0l142 53-1-107-145-56-140 56 0 123c0 4-1 7-5 9l-82 45 227 102 235-107 0-163c0-5 4-10 9-10 5 0 10 4 10 10l0 169c0 4-2 7-6 8z"/>
<glyph glyph-name="tick-fat" unicode="&#57369;" d="M187 62l-187 187 59 61 128-130 266 270 59-59z"/>
<glyph glyph-name="tick-box" unicode="&#57370;" d="M512 447l-289-289-149 150 25 26 126-126 261 263z m-512 37l34 0 0-456-34 0z m0-422l448 0 0-34-448 0z m0 422l318 0 0-34-318 0z m414-197l34 0 0-259-34 0z"/>
<glyph glyph-name="sandwich" unicode="&#57371;" d="M174 371c9 1 19-5 21-15 2-9-5-19-14-21-11-3-20 4-23 14-1 10 5 19 16 22m-70-66c-1 1-1 2-1 3-3 9 4 19 14 21 10 3 20-5 22-14 0-3 0-6 0-9 15-2 28-7 41-14l50 95-114-8c-2-9-9-17-19-19-13-3-25 3-29 15l-13 0 32-74c5 1 11 3 17 4m69 40c3 1 5 3 4 7-1 3-3 4-7 4-3-1-4-4-4-7 1-2 4-4 7-4m-83-228l7 14c-25 9-44 29-48 55-8 40 18 78 58 87 20 4 41 0 58-11l9 17c-17 10-38 15-58 14-1 0-1 0-1 0-3 0-6-1-9-2-24-5-46-19-60-39-13-20-18-45-13-68 6-31 29-56 57-67m25 199c-4-1-5-3-4-7 0-1 0-2 1-3 3 0 4 0 7 0 1 1 2 3 1 5 0 3-2 6-5 5m3-66l9-23c2-3 1-8-2-8-3-2-8 0-9 4l-9 21c-2 3 0 7 4 9l0 0c3 1 6-1 7-3m-9-47c-2-4-5-4-9-4l-22 12c-5 2-4 10 1 12l1 0c1 0 3 0 4-1l23-11c2-1 3-5 2-8m-13-28c0 0-4-2-8-3-3-1-5-2-7-2-2-1-3-1-5-1-3-1-7 2-8 5 0 3 2 7 5 7 0 0 2 1 3 1 2 1 5 2 8 2 4 2 8 3 8 3 0 0 0 0 1 0 3 1 7-2 8-5 1-2-1-6-5-7m8 83c-33-6-55-38-47-71 4-22 19-39 39-46l1 0 29 58 24 49 0 1c-14 9-31 13-46 9m26-186l-11 0 176 343 176-343z m379 1l-192 375c-4 9-13 13-22 13-10 0-19-5-23-13l-192-375c0-1 0-1 0-2l-15 0 1 1c0-1 0-1-1-2l-24 0 19 39 1 0 3 8c-10 7-19 16-26 26l-36-70c-4-8-3-17 1-24 4-7 12-12 21-12l463 0c8 0 16 5 21 12 4 7 5 17 1 24z m-301 318l22 44 16 30c-5 7-12 10-20 10-9 0-18-6-22-14l-13-26-25-48z m70-115c0-9 7-16 16-16 9 0 16 7 16 16 0 9-7 16-16 16-9 0-16-7-16-16m-16-64c-9 0-16-7-16-16 0-8 7-16 16-16 9 0 16 8 16 16 0 9-7 16-16 16m-40-63c-9 0-16-8-16-16 0-9 7-16 16-16 9 0 16 7 16 16 0 8-7 16-16 16m72 0c-9 0-16-8-16-16 0-9 7-16 16-16 9 0 16 7 16 16 0 8-7 16-16 16m71-32c9 0 16 7 16 16 0 8-7 16-16 16-8 0-15-8-15-16 0-9 7-16 15-16m-31 63c8 0 16 8 16 16 0 9-8 16-16 16-9 0-16-7-16-16 0-8 7-16 16-16"/>
<glyph glyph-name="present" unicode="&#57372;" d="M64 2l380 0 0 233-380 0z m22 428c8-7 50-28 126-35 0 0-69 70-83 70-8 0-48-27-43-35z m214-35c76 7 118 28 124 35 9 8-33 35-41 35-13 0-83-70-83-70z m166-70l0-57-420 0 0 57 13 57 103 0c-41 6-76 26-96 41-35 20 41 50 63 77 27 35 83-20 123-62 48 42 96 97 131 62 21-27 96-57 63-77-20-15-63-35-103-43l110 0z"/>
<glyph glyph-name="position-number" unicode="&#57373;" d="M277 42l0 69-42 0 0-69c-102 10-183 91-193 193l69 0 0 42-69 0c10 102 91 183 193 193l0-69 42 0 0 69c102-10 183-91 193-193l-69 0 0-42 69 0c-10-102-91-183-193-193m-21 470c-141 0-256-115-256-256 0-141 115-256 256-256 141 0 256 115 256 256 0 141-115 256-256 256m89-256c0-49-40-89-89-89-49 0-89 40-89 89 0 49 40 89 89 89 49 0 89-40 89-89"/>
<glyph glyph-name="rosette" unicode="&#57374;" d="M215 217c3 0 6 0 9-1 8-2 14-8 20-13 5-4 10-8 13-8 4 0 9 5 14 8 6 6 12 11 20 14 2 0 5 1 8 1 6 0 11-2 17-3 5-1 9-1 12-1 1 0 3 0 3 0 3 1 5 8 7 14 2 7 5 16 11 22 6 6 14 8 22 11 5 1 12 4 14 7 1 2 0 9-2 15-2 8-3 16-1 24 2 8 8 14 13 20 4 5 9 11 9 14 0 3-5 9-9 13-5 6-11 12-13 21-2 8-1 17 1 24 2 6 3 13 2 15-2 3-9 5-14 7-8 2-16 5-22 11-6 6-9 14-11 22-2 5-4 12-7 14 0 1-2 1-3 1-3 0-7-1-12-2-6-1-11-3-17-3-2 0-5 1-8 1-8 3-14 8-20 13-5 4-10 9-14 9-3 0-8-5-13-9-6-5-12-11-20-13-3 0-5-1-9-1-5 0-11 2-16 3-5 1-9 2-12 2-2 0-3 0-3-1-3-1-5-8-7-14-3-7-5-15-11-21-6-6-15-9-22-11-6-2-13-5-14-7-2-3 0-10 1-16 2-7 4-16 1-24-2-8-7-14-13-20-4-5-8-10-8-14 0-3 5-8 8-13 6-6 12-12 14-20 2-9 0-17-2-25 0-6-2-13 0-15 1-3 8-6 14-7 7-3 16-5 22-11 6-6 8-15 11-22 1-6 4-13 7-14 0 0 1 0 3 0 3 0 7 0 12 1 4 1 10 2 15 2m42-44c-11 0-19 8-27 14-4 4-8 8-11 9-3 0-9-1-15-2-5-1-11-2-16-2-6 0-10 1-14 3-10 6-13 17-16 26-2 5-4 11-6 13-3 3-9 4-14 6-9 4-20 7-25 16-6 10-4 21-1 31 1 5 2 11 1 15-1 3-6 7-9 11-7 8-15 16-15 27 0 12 8 20 15 28 3 4 8 8 8 11 1 3 0 9-1 15-2 10-4 21 1 30 5 10 16 14 25 17 6 1 12 3 14 5 2 3 4 9 6 14 3 10 6 20 16 26 4 2 9 3 14 3 5 0 11-1 16-2 6-2 12-3 15-2 2 1 7 5 11 9 8 6 16 14 27 14 12 0 20-8 28-14 4-4 9-8 12-9 3-1 9 1 15 2 5 1 11 2 16 2 6 0 10-1 14-3 10-6 13-17 16-26 2-5 4-11 6-14 2-2 8-4 13-5 10-4 21-7 26-17 6-9 3-20 1-30-1-6-2-12-1-15 1-3 5-7 8-11 7-8 14-17 14-28 0-11-7-19-14-27-4-4-8-8-8-11-1-4 0-10 1-15 2-10 4-21-1-31-5-9-16-13-26-16-5-2-11-3-13-6-2-2-4-8-6-13-3-10-6-20-16-26-4-2-9-3-14-3-5 0-11 1-16 2-6 2-12 2-15 2-3-1-7-6-11-9-8-6-17-14-28-14m0 300c-72 0-132-60-132-133 0-72 59-132 132-132 73 0 132 60 132 132 0 73-59 133-132 133m0-286c-84 0-153 69-153 153 0 85 69 154 153 154 85 0 154-69 154-154 0-84-69-153-154-153m46-184c-1 0-3 0-4 0-6 2-11 6-13 13l-37 133 20 5 35-126 21 22c4 5 11 7 18 5l28-8-32 116 20 5 34-122c2-6 0-13-4-17-5-5-11-6-17-5l-33 10-23-25c-4-4-8-6-13-6m-76 0c-5 0-10 2-13 5l-23 26-33-10c-6-2-13 0-17 4-5 5-7 11-5 17l34 121 20-5-32-114 29 8c6 2 13 0 18-5l20-22 14 51 21-6-16-57c-2-6-7-11-13-13-1 0-3 0-4 0m20 290c-8 0-15 4-19 10l-22 33c-4 5-2 11 2 15 6 3 12 1 15-3l22-33c0 0 1 0 1 0 1 0 1 0 1 0l48 70c3 5 10 6 15 3 5-3 6-10 3-15l-48-70c-4-6-11-10-18-10"/>
<glyph glyph-name="tick" unicode="&#57375;" d="M512 410l-337-337-175 176 28 28 147-147 309 309z"/>
<glyph glyph-name="xbox-connect" unicode="&#57376;" d="M381 435c-18-8-55-28-93-63 0 0 168-160 137-276 38 42 61 98 61 160 0 72-31 136-80 180-6 2-15 3-25-1z m-137-106c-176-171-181-229-181-235 44-50 108-81 180-81 72 0 137 32 182 82-1 10-13 71-181 234z m-45 43c-37 35-75 55-93 63-10 4-20 3-26 1-49-45-80-109-80-180 0-62 24-119 62-162-32 117 137 278 137 278z m45 39c0 0 76 62 121 55-36 21-77 33-122 33-45 0-86-12-122-33 45 9 123-55 123-55z"/>
<glyph glyph-name="suitcase" unicode="&#57377;" d="M455 60l57 0 0 336-57 0z m-285 392l0-56-84 0 0-336 342 0 0 336-86 0 0 56z m29-56l114 0 0 27-114 0z m-199-336l57 0 0 336-57 0z"/>
<glyph glyph-name="rocket" unicode="&#57378;" d="M257 391c-29 0-52-24-52-54 0-30 24-54 52-54 28 0 52 24 52 54 0 30-24 54-52 54z m25-55c0-15-12-27-26-27-14 0-26 12-26 27 0 15 12 27 26 27 15 0 26-12 26-27z m143-201c0 4-1 9-23 50-8 15-16 28-19 35 3 16 5 32 7 47 7 46 5 87-7 123-9 30-25 55-46 75-32 32-67 43-77 46l-3 1-5-1c-12-4-46-15-76-46-22-20-38-46-47-75-12-35-15-77-8-123 2-17 5-33 8-48-7-12-13-24-19-34-23-42-23-47-23-51 0-4 3-34 6-61 8-58 13-64 16-68l0-1c3-3 7-4 11-4 6 0 11 0 68 42 21 16 40 32 48 38l5 0c2 0 5 0 8 0 7 0 15 0 21 0l6 0 3-3c9-7 27-21 46-35 56-43 61-43 67-43 4 0 8 1 11 5 3 3 9 9 16 69 3 24 6 55 6 62z m-227-51c-35-27-58-44-71-52-2 7-4 21-7 46-3 27-5 49-6 55 2 4 9 20 24 47 7-30 15-52 25-67 10-15 21-24 35-29z m152 29c9 15 17 37 25 67 16-29 23-44 24-47 0-5-3-28-6-55-3-24-6-38-7-46-13 9-38 27-70 52 13 5 25 14 34 29z m14 157c-11-75-22-119-37-143-10-17-22-20-42-20-4 0-8 0-12 0l0 0c-3 0-5 0-8 0-3 0-5 1-8 1-6 0-11 0-16-1-2 0-5 0-7 0-2 0-4 0-5 0-32 0-57 0-81 163-6 41-4 78 6 110 8 25 22 48 40 65 24 24 51 35 63 39 12-4 38-15 62-38 18-18 31-40 39-64 11-32 12-69 6-112z"/>
<glyph glyph-name="plus-one" unicode="&#57379;" d="M42 57c0 75 60 135 133 135 75 0 133-60 133-133l39 0c0 17-3 36-9 53-5 17-12 33-22 47-11 15-22 27-36 37-15 12-30 21-48 26 10 6 19 12 29 20 7 8 14 16 20 26 6 10 10 20 13 30 7 28 6 56-6 82-13 30-36 53-66 66-31 13-66 13-97 0-29-14-53-37-66-67-10-26-12-55-4-82 2-10 7-20 12-30 6-10 12-19 20-26 9-9 18-14 28-20-17-6-33-14-48-26-12-10-25-23-35-37-22-30-32-65-32-101z m47 237c-6 11-9 24-9 36 0 11 3 26 9 36 10 23 27 40 49 48 23 11 48 11 71 0 23-10 41-27 49-48 4-10 7-23 7-35 2-11-1-26-7-36-10-23-27-40-49-48-21-9-48-10-71 0-22 8-39 25-49 47z m343-44l0 80-35 0 0-80-80 0 0-35 80 0 0-80 35 0 0 80 80 0 0 35z"/>
<glyph glyph-name="plus-circle" unicode="&#57380;" d="M371 265l-106 0 0 106c0 6-4 9-9 9-6 0-9-4-9-9l0-105-106 0c-6 0-9-4-9-9 0-6 4-10 9-10l105 0 0-104c0-6 4-10 9-10 6 0 10 5 10 10l0 104 104 0c6 0 10 4 10 9 1 6-2 9-8 9z m-115 227c63 0 123-24 167-69 45-45 69-104 69-167 0-63-24-123-69-167-45-45-104-69-167-69-63 0-123 24-167 69-45 45-69 104-69 167 0 63 24 123 69 167 44 45 104 69 167 69m0 20c-141 0-256-115-256-256 0-141 115-256 256-256 141 0 256 114 256 256 0 142-114 256-256 256z"/>
<glyph glyph-name="return" unicode="&#57381;" d="M492 436l0-202-454 0 124 123-15 14-147-147 147-148 15 15-124 122 474 0 0 223z"/>
<glyph glyph-name="store" unicode="&#57382;" d="M455 264c0-16-12-28-28-28-16 0-28 12-28 28l0 28-45 138 45 0 56-138z m-114 18l0-18c0-16-12-28-28-28-16 0-28 12-28 28l0 28-11 138 46 0 22-138 0-10z m-113 10l0 0 0-28c0-16-13-29-29-29-15 0-28 13-28 29l0 28 22 138 46 0z m-143-174l80 0 0 80-80 0z m-28 146l0 28 57 138 45 0-45-138 0 0 0-28c0-16-13-29-29-29-15 0-28 13-28 29z m455 1l0 27-84 180-349 0-79-180 0-28c0-16 13-28 28-28 5 0 8 0 12 2l0-201 214 0 0 135 133 0 0-135 80 0 0 204c4-3 10-5 17-5 15 0 28 12 28 28 0 0 0 1 0 1z"/>
<glyph glyph-name="winner-cup" unicode="&#57383;" d="M381 405l0 92-250 0 0-92c0-52 35-104 55-138 23-32 49-41 49-107 0-81-20-127-57-127l159 0c-37 0-58 46-58 127 0 66 23 75 47 107 23 34 55 86 55 138m-3-390c0-6-6-14-15-14l-211 0c-8 0-14 8-14 14 0 9 5 18 14 18l211 0c9 0 15-9 15-18m-6 268c-6 0-12 3-15 6-3 3-6 9-8 15 0 5 2 11 5 14 12 18 23 29 38 46 17 18 34 41 57 70 12 12 15 23 15 32-3 8-6 17-15 23-5 6-17 8-25 6-18-3-32-21-29-38 0-6-3-9-9-9-3 0-5 3-8 6-3 29 17 55 46 58 11 0 25-3 37-12 9-8 18-20 18-32 2-20-6-34-15-43-23-32-43-52-61-69-14-18-26-32-37-47l0-2c0-3 0-3 3-6l2 0c0 0 3 0 3 3 0 0 3 0 0 3 0 2 3 8 9 8 5 0 8-3 8-6 3-11-5-23-17-26z m-232 0c-11 3-20 15-20 26 0 3 5 6 8 6 6 0 9-6 9-8l0-3c0-3 3-3 3-3l5 0 0 9c-11 14-23 29-37 46-18 17-35 37-61 69-6 9-17 23-14 44 2 11 8 23 20 32 9 8 23 11 38 11 26-3 46-29 43-58 0-3-6-6-9-6-5 0-8 3-8 9 3 17-11 35-29 38-8 2-17 0-26-6-6-6-11-15-11-23-3-9 2-20 11-32 23-29 43-52 57-70 15-17 26-28 38-46 6-3 6-8 6-14 0-6-3-12-9-15-3-3-8-6-14-6"/>
<glyph glyph-name="welcome" unicode="&#57384;" d="M374 353l6 5 0-8c0-1 0-4 3-6l6-4-7-2c-2 0-5-2-5-5l-3-7-5 6c-1 1-3 3-6 3l-8 0 5 6c2 2 2 5 2 6l-2 8 8-2c1-3 4-1 6 0z m-23 21c-3 0-7 0-8-2-2-1-3-5-2-8l7-17-11-15c-2-2-2-5 0-8 1-2 3-3 6-5l19 0 10-15c2-2 3-3 7-3 3 0 4 1 6 4l6 17 19 5c3 0 4 3 4 6 0 3 0 7-3 8l-15 11 0 19c0 3-2 4-3 6-2 1-5 0-8 0l-16-11z m-38 91c2 0 4 3 5 5l3 17 13-13c1-1 3-3 6-1l17 1-9-15c-2-2-2-5 0-6l7-16-17 3c-1 0-4 0-6-1l-12-13-2 17c0 2-1 5-3 7l-16 7z m-37-12l27-14 3-28c0-3 1-5 4-6 0 0 2 0 2 0 1 0 3 0 5 1l21 19 28-6c3 0 6 0 8 3 1 1 1 4 0 7l-12 27 15 25c2 1 2 4 0 7-2 2-5 4-8 4l-28-4-20 22c-1 2-3 2-6 2-3 0-5-3-5-6l-4-28-28-13c-2-1-5-3-5-6 0-3 2-5 3-6z m-46-186c0 3 1 4 4 4 3 0 5-1 5-4 0-4-2-5-5-5-1 0-4 3-4 5z m26 0c0 10-9 20-20 20-11 0-20-10-20-20 0-11 9-21 20-21 11 0 20 11 20 21z m185 169c6 0 10-5 10-11 0-6-4-11-10-11-7 0-11 5-11 11 0 6 4 11 11 11z m0-38c14 0 26 13 26 27 0 14-12 26-26 26-14 0-27-12-27-26 0-14 13-27 27-27z m-70-167c11-14 8-26 0-31-6-5-17-6-25 3-11 12-8 29-2 42 0 0 0 1 2 1 9-3 19-7 25-15z m-79-53c-3-3-8-6-13-8-4-1-11-1-17-1-25 0-56 14-82 37 0 0-2 2-3 3-3 2-5 5-8 8l-8 8c0 0-1 1-1 3-2 1-3 3-5 4 0 2-1 2-3 4-2 1-2 3-3 4 0 2-2 2-2 3 0 2-1 3-3 5-1 2-3 2-4 3-2 2-2 3-3 5 0 0 0 1-2 1-2 3-3 5-5 8 0 0 0 2 0 2 0 1-1 4-3 6 0 0 0 1 0 1-1 5-3 7-3 8 0 0 0 2 0 2 0 1-1 4-1 6 0 0 0 0 0 1 0 2 0 5-2 7 0 4 0 9 0 14 0 1 0 3 0 4 0 0 0 2 0 2 2 6 5 11 8 14 6 6 15 9 28 9 3 0 6 0 9 0-6-15-8-25-8-28 0-5 3-8 8-8 3 0 8 3 8 8 0 2 0 13 8 27 9-4 20-7 29-13 2-8 5-14 9-20 2-2 2-3 3-3 0 0 0 0 2 0 2-2 3-2 5-3 0 0 1 0 1 0 2 0 3-2 5-2 0 0 1 0 1 0 2 0 3-1 7-1l1 0c2 0 5 0 6 0l2 0c12-13 23-27 29-41-18-7-35-21-49-39-2-3-2-7 1-10 3-2 8-2 11 1 13 16 28 28 45 34 14-29 14-52 2-65z m-273-113c-2 0-2 0-3 0 0 0 0 1 0 1l9 24c6-5 14-10 23-13z m100 192c-6 6-10 13-15 20l5 11c1-11 4-21 10-31z m-45-169c-23 0-40 9-43 20l11 27c11-19 29-31 56-38z m52 20c-28 2-62 13-75 45l8 19c20-31 60-45 96-53z m56 24c-32 3-100 17-115 60l14 33c25-44 83-70 142-78z m-14 65c0 0 1-2 1-2 3-1 6-4 9-8 0 0 0 0 2-1 3-2 5-3 8-6 0 0 1 0 1-2 3-1 6-3 10-6 0 0 1 0 1-2 3-1 6-3 9-4 4-2 7-3 10-5-67 8-118 44-132 79l8 19c9-14 24-25 42-34 6-8 12-16 20-22 4-2 7-5 11-6z m85 167c15 0 28-12 28-28 0-14-11-24-25-26-2 0-2 0-3 0-2 0-3 0-5 0l-1 0c-2 0-2 0-3 2 0 0 0 0-2 0 0 0-2 0-3 1 0 0-2 0-2 2 0 0-1 0-1 1l-3 3c0 0 0 0 0 2 0 1-2 1-2 3-1 3-1 6-3 9l0 2c-3 15 11 29 25 29z m-65 48c-6-7-13-10-19-9-3 0-6 3-8 6 0 2 0 5 2 7 3 4 8 4 12 4 2 0 3 0 5 0 3 0 8-3 11-6-2 0-3 0-3-2z m-10 47c-4-2-10-3-18 0-3 2-5 5-3 8 1 3 6 7 17 7l4 0c4 0 8-3 11-7-3-3-6-6-11-8z m332-230c-1 3-6 5-10 3-16-9-28 0-50 19-16 12-33 28-54 31-24 5-44-6-56-20-3 0-8 0-11 0-9 0-19-2-28-5-6 14-17 27-28 39 14 6 25 22 25 37 0 24-19 42-44 42-20 0-37-14-41-32-8 3-16 6-22 9 3 5 6 9 11 15 11 13 15 27 11 39 0 3-2 6-5 10 8 15 6 34 0 46 6 9 12 19 15 31 0 3-1 8-4 9-3 0-8-1-10-4-1-8-4-16-9-22-5 6-12 11-20 12-23 2-34-7-37-17-3-9 1-18 9-24 8-7 20-5 31 0 3 1 8 3 11 6 1-6 1-16 0-24-5 4-9 5-16 7-12 1-23 0-31-10-3-4-4-12-1-20 3-8 11-15 20-15 6-2 20 0 33 14 1-8 0-16-8-24-6-7-13-14-16-20-6 0-11 2-17 2-15 0-29-5-39-14-4-5-7-11-10-17l-107-258c-2-4-2-11 1-15 3-5 9-8 14-8 2 0 5 0 6 1l162 66 99 40c6 2 12 6 17 11 19 17 19 46 5 79 6 2 14 3 21 3l2 0c-11-20-8-42 5-56 7-8 17-11 24-11 8 0 16 3 21 8 12 11 18 31 1 51-6 8-15 16-25 19 10 8 24 12 38 9 18-3 32-15 48-28 20-17 40-34 66-20 3-1 5 3 3 6z"/>
<glyph glyph-name="star-front" unicode="&#57385;" d="M257 499l0-258 62 76z m0-258l100-45 155 120z m0-112l161-114-161 226z m-95 67l-60-183 155 228z m95 45l-63 75-194 0z"/>
<glyph glyph-name="reply" unicode="&#57386;" d="M491 42c-17 76-131 134-267 138l0-136-224 218 224 208 0-138c165-23 288-131 288-256 0-12 0-23-2-34z m-286 159l9 0c127-2 235-47 279-114-6 112-125 211-279 228l-7 2 0 110-179-167 179-171 0 112z"/>
<glyph glyph-name="play-triangle" unicode="&#57387;" d="M110 443l0-371 266 186z m-36 69l364-256-364-256z"/>
<glyph glyph-name="play-and-learn" unicode="&#57388;" d="M209 180c-15 0-28-13-28-29 0-16 13-29 28-29 16 0 29 13 29 29 1 16-12 29-29 29z m23-24l0-10c0-1-1-2-2-2l-13 0c-1 0-1-1-1-1l0-13c0-1-1-2-2-2l-10 0c-1 0-2 1-2 2l0 13c0 1-1 1-1 1l-13 0c-1 0-2 1-2 2l0 10c0 1 1 2 2 2l13 0c1 0 1 1 1 1l0 13c0 1 1 2 2 2l10 0c1 0 2-1 2-2l0-13c0-1 1-1 1-1l13 0c1-1 2-2 2-2z m-40 52c0 15-12 27-27 27-15 0-27-12-27-27 0-15 12-27 27-27 15 0 27 12 27 27z m45 0c0 4-3 7-7 7-4 0-8-3-8-7 0-5 4-8 8-8 4 0 7 3 7 8z m110 35c-6 0-12-6-12-12 0-7 6-12 12-12 7 0 12 5 12 12-1 6-5 12-12 12z m24-23c-7 0-13-6-13-12 0-7 6-13 13-13 6 0 12 6 12 13 0 6-6 12-12 12z m-25-25c-6 0-12-5-12-12 0-6 6-12 12-12 7 0 12 6 12 12-1 8-5 12-12 12z m-24 25c-6 0-12-6-12-12 0-7 6-13 12-13 7 0 12 6 12 13 0 6-5 12-12 12z m-33-12c0 4-4 7-8 7-4 0-7-3-7-7 0-5 3-8 7-8 4 0 8 3 8 8z m175-69c-4 10-34 100-39 111-4 11-11 17-16 20-2 3-2 5-2 5-1 3-4 7-8 9-1 1-1 1-2 2 4 7 7 17 7 25l0 75 24 10 0-71c0-8 6-13 13-13 8 0 13 5 13 13l0 81 7 3c4 2 8 6 8 12 0 5-4 10-8 12l-200 78c-3 1-7 1-10 0l-202-78c-4-2-8-8-8-12 0-5 4-10 8-12l57-23 0-75c0-8 3-17 8-24-2-1-3-2-5-3-4-2-6-6-8-9 0 0 0-2-1-5-6-4-12-9-17-20-5-11-35-100-38-111-2-8-20-70 4-107 11-15 25-24 44-26 1 0 2 0 3 0 7 0 14 4 20 10 0 0 0 0 1 1 24 22 51 48 54 51 1 1 3 2 4 3 4 3 5 3 9 3l138 0c5 0 6 0 9-3 2-1 4-3 6-4 6-4 33-29 55-51 5-4 14-12 24-10 19 2 34 11 43 25 25 38 6 100 5 108z m-331 172l0 65 117-46c2 0 3 0 5 0 2 0 3 0 5 0l117 46 0-65c0-24-50-51-123-51-71 0-121 27-121 51z m-43 110l165 64 165-64-165-64z m340-370c-2-4-6-7-14-9-47 46-59 54-62 56-1 0-1 1-2 1-5 3-14 10-30 10l-137 0c-15 0-24-7-29-9-1 0-1-1-1-1 0 0-1 0-1-1-2-1-7-4-60-56-8 2-12 6-14 9-13 21-5 64-1 77 13 40 35 102 37 109 1 2 2 3 3 4 5 1 7 3 9 8 3 3 4 7 6 10 2 1 5 3 8 4 26-17 67-28 115-28 47 0 87 10 114 27 2-1 4-2 6-3 1-3 3-7 6-10 2-4 4-7 9-8 1 0 2-2 3-4 3-7 24-69 37-108 3-15 11-58-2-78z m-148 121c-10-10-10-28 0-38 10-10 28-10 38 0 10 10 10 28 0 38-10 11-27 11-38 0z m19-38c-11 0-20 8-20 20 0 11 9 19 20 19 11 0 19-8 19-19 1-11-8-20-19-20z m0 33c-7 0-13-6-13-13 0-7 5-13 13-13 7 0 13 5 13 13 0 7-6 13-13 13z"/>
<glyph glyph-name="replied" unicode="&#57389;" d="M282 37l0 139c-128-4-234-59-249-132l-29 0c0 11-4 22-4 33 0 124 117 230 282 256l0 142 230-215z m29 168l0-99 161 154-161 150 0-99-15 0c-139-15-248-99-263-198 47 59 146 95 263 99z"/>
<glyph glyph-name="star-fill" unicode="&#57390;" d="M354 198l61-198-159 122-159-122 61 198-158 122 196 0 60 192 60-192 196 0z"/>
<glyph glyph-name="webinar" unicode="&#57391;" d="M191 284c0-9 1-17 4-25 4-8 8-15 14-20 7-6 13-11 21-14 7-3 17-5 24-5 10 0 18 2 25 5 8 3 16 8 20 14 7 6 11 12 14 20 4 8 5 17 5 25 0 9-1 17-5 25-3 8-7 15-14 20-6 6-12 11-20 14-7 3-17 5-25 5-9 0-17-2-24-5-8-3-16-8-21-14-6-6-10-12-14-20-3-8-4-16-4-25z m105-71c13-5 22-10 31-18 10-7 17-15 24-24 6-10 11-21 15-31 3-11 5-24 5-36l-17 0c0 14-3 26-8 39-5 12-12 21-20 31-9 9-19 15-31 20-13 5-25 8-39 8-9 0-19-2-26-3-8-2-17-7-24-10-7-4-14-9-20-15-6-6-11-13-15-20-5-8-8-16-10-24-1-7-3-17-3-26l-17 0c0 12 2 25 5 36 3 10 9 21 15 31 7 9 14 17 24 24 9 8 20 13 31 18-7 3-13 7-19 12-5 5-9 11-14 17-3 6-6 12-9 20-2 8-3 14-3 22 0 11 1 22 6 33 5 9 11 18 17 26 8 8 15 14 26 17 10 5 20 6 33 6 11 0 22-1 32-6 10-5 19-11 27-17 8-6 14-16 17-26 5-10 6-21 6-33 0-8-1-16-3-22-2-8-5-14-9-20-3-6-8-12-14-17-6-5-6-9-13-12z m-293 209l0-334 507 0 0 334z m486-313l-466 0 0 293 466 0z"/>
<glyph glyph-name="webcam" unicode="&#57392;" d="M257 425c-74 0-132-60-132-132 0-72 59-132 132-132 72 0 132 60 132 132 0 74-60 132-132 132z m105-132c0-58-47-105-107-105-59 0-106 47-106 105 0 58 48 105 106 105 58 0 107-47 107-105z m120-265l-61 120c80 91 71 229-20 308-90 79-228 71-307-20-73-82-73-206 0-288l-63-120c-4-10 0-22 9-26 3-1 4-1 7-1l418 0c10 0 19 8 19 18 0 3 0 6-2 9z m-368 98c82-71 199-68 282 1 1 1 51-99 51-99l-385 0z m143-15c-102 0-183 83-182 182 0 101 81 181 182 181 100 0 181-82 181-181 0-101-81-182-181-182z m7 263l-2 0c-46 0-86-39-86-87l0-3c0-5 6-11 11-11 6 0 12 6 12 11l0 3c0 36 28 64 63 64l2 0c5 0 11 6 11 11 0 6-6 12-11 12z"/>
<glyph glyph-name="star-back" unicode="&#57393;" d="M257 499l-63-183-194 0 162-120-60-183 155 116 161-114-61 181 155 120-193 1z"/>
<glyph glyph-name="rank" unicode="&#57394;" d="M229 487l58-72-113 0-58 72z m167 0l-58-72-24 0-44 56 13 16z m-68-123c-23 10-47 16-72 16-25 0-49-6-72-16l0 29 142 0z m-72-8c90 0 164-74 164-167 0-94-74-166-164-166-90 0-164 74-164 168 0 93 74 165 164 165z m94-4l0 43 93 115-169 0-18-21-18 21-169 0 93-115 0-43c-56-33-91-95-91-161 0-106 84-189 185-189 101 0 185 85 185 189 0 66-35 128-91 161z"/>
<glyph glyph-name="play" unicode="&#57395;" d="M0 448l512 0 0-384-512 0z m480-351l0 318-448 0 0-318z m-32 286l0-256-384 0 0 256z m-33-224l0 192-318 0 0-192z m-223 161l127-64-127-64z m24-38l0-50 50 26z"/>
<glyph glyph-name="pin-fill" unicode="&#57396;" d="M427 310l-127-128c20-46 14-100-27-134l-93 95c-102-89-163-143-176-136 0 7 47 74 135 168l-95 95c37 38 93 50 141 27l128 134c-9 29 2 58 26 74l169-168c-20-22-51-32-81-27"/>
<glyph glyph-name="profile" unicode="&#57397;" d="M256 512c-141 0-256-115-256-256 0-141 115-256 256-256 141 0 256 115 256 256 0 141-115 256-256 256z m-31-292c-10 5-19 10-26 18-8 8-13 16-18 26-4 10-7 20-7 31 0 11 3 22 7 31 5 10 10 19 18 26 7 8 16 13 26 18 9 4 20 7 31 7 11 0 22-3 31-7 10-5 18-10 26-18 8-7 13-16 17-26 5-10 7-20 7-31 0-11-2-22-7-31-4-10-9-18-17-26-8-8-16-13-26-18-10-4-20-6-31-6-11 0-22 2-31 6z m-88-127c2 10 7 20 12 30 5 9 11 17 19 25 8 7 16 14 25 19 9 5 19 9 30 12 10 3 21 4 33 4 18 0 35-3 49-9 16-7 28-15 40-26 10-11 19-24 26-39 5-13 8-28 9-44-37-24-80-37-124-37-44 0-87 13-123 37 0 10 1 19 4 28z m271-7c-1 8-3 14-5 21-5 15-12 29-20 41-10 15-20 25-32 34-10 8-21 14-34 20 6 4 11 8 17 13 7 8 13 15 18 23 5 8 9 17 12 27 3 9 4 20 4 30 0 15-3 30-9 44-5 13-14 25-24 35-10 10-22 18-35 23-14 6-28 10-44 10-14 0-29-4-43-10-13-5-26-13-36-24-10-9-17-21-23-35-6-13-9-28-9-43 0-11 1-21 4-30 3-11 7-20 12-28 6-9 11-17 18-23 5-5 11-9 17-13-12-6-24-12-33-20-13-9-24-21-33-33-8-13-15-27-20-42-2-6-4-13-5-20-49 44-76 105-76 170 0 126 102 228 227 228 126 0 228-102 228-228-1-65-28-126-76-170z"/>
<glyph glyph-name="star" unicode="&#57398;" d="M354 198l61-198-159 122-159-122 61 198-158 122 196 0 60 192 60-192 196 0z m0-111l-19 61c-7 21-13 40-19 61 17 13 33 26 49 39l50 39-125 0-37 117-37-116-123 0 52-38c16-13 34-26 50-39-7-21-13-42-20-61l-19-61 100 77z"/>
<glyph glyph-name="triangle-up" unicode="&#57399;" d="M495 15l-478 0 239 478z m-427 34l376 0-188 376z"/>
<glyph glyph-name="article-in-progress" unicode="&#57400;" d="M275 298c-3 0-5 0-9-1 4-4 6-8 6-13 0-11-10-19-19-19-5 0-11 2-13 6-2-4-2-8-2-9 0-23 15-37 37-37 19 0 37 14 37 37 0 18-18 36-37 36m-1-97c-34 0-61 27-61 61 0 33 27 60 61 60 33 0 60-27 60-60 2-34-25-61-60-61m0 147c-78 0-124-86-124-86 0 0 46-87 124-87 77 0 123 87 123 87 0 0-46 86-123 86m-2 146l-19 0 0-30c6 0 13 0 19 0 114 0 208-96 208-210 0-114-92-206-208-206-116 0-212 94-212 208l0 4-28 0 0-4c0-131 105-238 240-238 131 0 239 109 239 238 0 131-108 238-239 238m-225-236l44 0-44 55-24-28-22-27z"/>
<glyph glyph-name="author" unicode="&#57401;" d="M46 512l0-353 22 0c90 0 136-15 176-44l0 353c-38 29-86 44-175 44z m419-399l0 352-22 0c-90 0-136-15-176-44l0-353c40 29 86 45 176 45z m-441-23l0 331-21-22 0-328 66 0c67 0 110-8 144-24l32 0c-41 38-132 44-198 44z m464 331l0-331-22 0c-66 0-158-7-198-45l33 0c33 17 76 25 144 25l64 0 0 329z"/>
<glyph glyph-name="back" unicode="&#57402;" d="M254 417c-10 0-19 0-29-1l0 84c0 5-3 9-8 12-4 1-10 0-13-4l-171-171c-5-4-5-11 0-16l171-171c5-5 13-5 18 0 3 3 3 6 3 9l0 87c3 0 7 0 10 0 78 0 141-63 141-140 0-32-12-62-33-86-3-4-3-10 0-14 2-3 5-5 10-5 1 0 4 0 6 2 74 36 122 112 122 193 0 124-102 223-227 221z m138-365c6 18 10 35 10 53 0 91-74 164-166 164-8 0-16 0-24-1-6-2-11-6-11-12l0-68-142 141 141 141 0-69c0-2 1-7 4-8 3-3 8-3 11-3 13 3 26 4 39 4 110 0 202-89 203-199 0-55-24-106-65-143z"/>
<glyph glyph-name="thoughts" unicode="&#57403;" d="M412 98c-70-70-178-84-263-34-5 4-12 3-16-2-1 0-1 0-2-1-28-21-55-26-73-26l0 0c21 15 34 38 42 56 1 3 1 6 0 9 0 3-1 6-3 8-76 86-72 218 9 299 84 85 222 85 306 0 84-85 84-223 0-309m20 329c-46 47-108 72-173 72-65 0-126-25-173-72-89-90-95-234-15-331-8-16-20-35-39-44-9-5-14-14-13-24 2-10 10-18 19-20 5 0 12-1 20-1 21 0 53 5 86 29 36-20 76-30 115-30 63 0 126 25 173 73 46 46 71 108 71 174 0 66-25 128-71 174m-173-157c10 0 17-8 17-17 0-10-7-17-17-17-9 0-17 7-17 17 0 9 8 17 17 17m88 0c10 0 18-8 18-17 0-10-8-17-18-17-9 0-17 7-17 17 0 9 8 17 17 17m-176 0c9 0 17-8 17-17 0-10-8-17-17-17-10 0-17 7-17 17 0 9 7 17 17 17"/>
<glyph glyph-name="youtube-play" unicode="&#57404;" d="M366 256c0 7-3 12-9 15l-146 92c-6 4-12 4-19 0-6-3-9-8-9-16l0-182c0-8 3-13 9-16 3-2 6-3 9-3 4 0 7 1 10 3l146 92c6 3 9 8 9 15z m146 0c0-18 0-33 0-43 0-10-1-23-3-39-1-16-3-30-6-42-3-14-10-26-20-35-10-10-22-15-35-17-43-4-106-7-192-7-86 0-149 3-192 7-13 2-25 7-35 17-10 9-17 21-20 35-3 12-5 26-6 42-2 16-3 29-3 39 0 10 0 25 0 43 0 18 0 33 0 43 0 10 1 23 3 39 1 16 3 30 6 42 3 14 10 26 20 35 10 10 22 15 35 17 43 4 106 7 192 7 86 0 149-3 192-7 13-2 25-7 35-17 10-9 17-21 20-35 3-12 5-26 6-42 2-16 3-29 3-39 0-10 0-25 0-43z"/>
<glyph glyph-name="youtube" unicode="&#57405;" d="M314 157l0-61c0-12-4-19-11-19-5 0-9 2-13 6l0 86c4 5 8 7 13 7 7 0 11-7 11-19z m97-1l0-13-26 0 0 13c0 13 4 20 13 20 8 0 13-7 13-20z m-276 63l30 0 0 26-89 0 0-26 30 0 0-163 29 0z m82-163l25 0 0 141-25 0 0-108c-6-8-11-12-16-12-4 0-6 2-6 6-1 1-1 4-1 10l0 104-25 0 0-112c0-9 1-16 2-20 2-7 8-11 17-11 9 0 19 6 29 17z m122 42l0 57c0 13 0 23-2 28-3 11-10 16-20 16-10 0-19-5-27-16l0 62-25 0 0-189 25 0 0 14c9-11 17-16 27-16 10 0 17 5 20 16 2 5 2 14 2 28z m97 3l0 4-26 0c0-10 0-16-1-18-1-6-5-10-11-10-9 0-13 7-13 20l0 25 51 0 0 29c0 15-3 26-8 33-7 10-17 15-30 15-13 0-23-5-31-15-5-7-8-18-8-33l0-49c0-15 3-26 9-33 7-10 17-15 31-15 13 0 24 5 30 15 4 5 6 10 6 16 1 1 1 7 1 16z m-174 261l0 60c0 13-4 20-12 20-8 0-12-7-12-20l0-60c0-13 4-20 12-20 8 0 12 7 12 20z m206-215c0-44-3-77-8-100-2-11-8-20-16-28-9-7-18-12-29-13-35-4-88-6-159-6-71 0-124 2-159 6-11 1-20 6-29 13-8 8-14 17-16 28-5 22-8 55-8 100 0 45 3 78 8 100 2 12 8 21 16 29 9 7 18 12 30 13 35 4 87 6 158 6 71 0 124-2 159-6 11-1 20-6 29-13 8-8 14-17 16-29 5-21 8-54 8-100z m-285 365l29 0-35-114 0-77-28 0 0 77c-3 14-9 34-18 61-7 19-13 37-18 53l30 0 20-75z m105-95l0-50c0-16-2-27-8-34-7-10-17-14-30-14-13 0-23 4-30 14-5 7-8 19-8 34l0 50c0 15 3 26 8 33 7 10 17 15 30 15 13 0 23-5 30-15 6-7 8-18 8-33z m96 46l0-142-26 0 0 15c-10-12-20-17-29-17-9 0-15 3-17 10-2 5-3 12-3 22l0 112 26 0 0-105c0-6 1-9 1-10 0-4 2-6 6-6 5 0 10 4 16 12l0 109z"/>
<glyph glyph-name="print" unicode="&#57406;" d="M125 0l325 0 0 448-325 0z m-66 512l0-448 39 0 0 409 287 0 0 39z"/>
<glyph glyph-name="warning-sign" unicode="&#57407;" d="M252 479c60 0 112-23 155-66 86-86 86-224 0-310-43-40-95-63-155-63-59 0-112 23-155 63-39 43-62 99-62 155 0 59 23 115 62 155 43 43 96 66 155 66m0 33c-66 0-128-23-178-73-99-98-99-260 0-359 50-50 112-76 178-76 66 0 129 26 178 76 99 99 99 261 0 359-49 50-112 73-178 73m-24-373l37 0 0 37-37 0z m0 74l37 0 0 185-37 0z"/>
<glyph glyph-name="field-trainer-icon" unicode="&#57408;" d="M68 454l0-443 376 0 0 443-82 0 0-47-212 0 0 47z m188 58c-22 0-40-15-45-35l-49 0 0-58 188 0 0 58-49 0c-5 20-23 35-45 35z"/>
</font>
</defs>
</svg>
