<svg width="30" height="30" viewBox="0 0 30 30" xmlns="http://www.w3.org/2000/svg"><g fill="none" fill-rule="evenodd"><path d="M14.995 30c8.282 0 14.995-6.716 14.995-15 0-8.284-6.713-15-14.995-15C6.715 0 0 6.716 0 15c0 8.284 6.714 15 14.995 15z" fill="#027D00"/><path d="M21.043 13c-.553 1.2-1.66 2.03-2.305 1.753 0-.37.37-2.213.645-4.057.37-.46.922-.645 1.477-.46.183.09.367.276.46.552.184.646.092 1.475-.277 2.213M8.965 13c-.368-.737-.46-1.474-.275-2.304.09-.276.275-.46.46-.553.553-.092 1.106.092 1.475.46.276 1.845.645 3.78.645 4.058-.645.37-1.658-.46-2.305-1.66m12.908-2.488c-.092-.37-.46-.646-.83-.83-.553-.184-1.105-.092-1.566.184l.09-.737.093-.37h-9.312l.092.37.094.736c-.46-.276-1.015-.368-1.57-.184-.367.184-.644.46-.828.83-.277.922-.185 1.936.276 2.766.37 1.106 1.383 1.936 2.583 2.12h.367c.277 1.475 1.476 2.582 2.86 2.766v.553c-1.844.277-3.136 1.844-3.227 3.688v.277h7.836v-.277c0-1.844-1.382-3.41-3.226-3.688v-.553c1.475-.277 2.58-1.383 2.858-2.858h.37c1.197-.184 2.21-1.014 2.58-2.12.646-.83.737-1.752.46-2.674" fill="#FFF"/></g></svg>