<svg width="30" height="30" viewBox="0 0 30 30" xmlns="http://www.w3.org/2000/svg"><g fill="none" fill-rule="evenodd"><path d="M14.995 30c8.282 0 14.995-6.716 14.995-15 0-8.284-6.713-15-14.995-15C6.715 0 0 6.716 0 15c0 8.284 6.714 15 14.995 15z" fill="#027D00"/><path d="M18.523 8.34v.898h-7.11V8.34h-.896v.898H7.86V21.66h14.218V9.238H19.42V8.34h-.897zm.86 2.657h.038V10.1h1.76v1.758H8.758v-1.76h1.76v.9h.896v-.9h7.073v.9h.897zM8.76 20.762H21.18v-7.97H8.758v7.97zm7.072-6.21h.898v-.898h-.898v.897zm-2.656 0h.897v-.898h-.896v.897zm-2.657 0h.897v-.898h-.897v.897zm8.006 1.794h.898v-.897h-.897v.896zm-2.693 0h.898v-.897h-.898v.896zm-2.656 0h.897v-.897h-.896v.896zm-2.657 0h.897v-.897h-.897v.896zm8.006 1.76h.898v-.898h-.897v.898zm-2.693 0h.898v-.898h-.898v.898zm-2.656 0h.897v-.898h-.896v.898zm-2.657 0h.897v-.898h-.897v.898zm8.006 1.795h.898v-.897h-.897v.898zm-2.693 0h.898v-.897h-.898v.898zm-2.656 0h.897v-.897h-.896v.898z" fill="#FFF"/></g></svg>