<svg width="30" height="30" viewBox="0 0 30 30" xmlns="http://www.w3.org/2000/svg"><g fill="none" fill-rule="evenodd"><path d="M14.995 30c8.282 0 14.995-6.716 14.995-15 0-8.284-6.713-15-14.995-15C6.715 0 0 6.716 0 15c0 8.284 6.714 15 14.995 15z" fill="#1E7CD0"/><path d="M10.58 20.893c-.26 0-.524-.175-.524-.527 0-.262.175-.524.525-.524.352 0 .44.262.44.613 0 .174-.088.263-.176.35 0 .088-.175.088-.263.088zm6.39-.438c0-.264.176-.527.527-.527.262 0 .525.176.525.527 0 .263-.175.526-.525.526-.175 0-.263-.087-.35-.175-.176-.087-.176-.262-.176-.35zm-6.39-1.49c-.174 0-.436 0-.61.087-.35.176-.614.438-.79.79-.174.35-.174.787 0 1.14.176.35.44.612.79.787.35.174.786.174 1.137 0 .35-.176.612-.44.787-.79.088-.175.088-.35.088-.614 0-.175 0-.35-.088-.524h4.115c-.09.175-.09.35-.09.524 0 .177 0 .44.09.615.174.35.436.614.786.79.35.174.788.174 1.138 0 .35-.176.613-.44.788-.79.263-.7 0-1.576-.7-1.928l3.326-9.987h1.488V8.1h-2.188l-.7 1.928H7.08l2.276 6.922h8.316l-.7 1.927-6.39.088z" fill="#FFF"/></g></svg>