<svg width="30" height="30" viewBox="0 0 30 30" xmlns="http://www.w3.org/2000/svg"><g fill="none" fill-rule="evenodd"><path d="M14.995 30c8.282 0 14.995-6.716 14.995-15 0-8.284-6.713-15-14.995-15C6.715 0 0 6.716 0 15c0 8.284 6.714 15 14.995 15z" fill="#D43E34"/><g fill="#FFF"><path d="M6.642 9.862c-.554.055-.942.553-.942 1.106v5.2c-.055.552.332.994.83 1.05h2.217l3.434 2.267-.664-2.268h3.27c.497 0 .94-.387.94-.885v-5.42c.056-.553-.277-.995-.83-1.106h-.11l-8.144.056zm6.87 11.393l-4.987-3.263H6.642c-.942 0-1.662-.775-1.662-1.715v-5.365c0-.94.72-1.77 1.662-1.825h8.143c.94 0 1.66.775 1.66 1.715V16.277c0 .94-.72 1.66-1.66 1.66h-2.272l.998 3.318z"/><path d="M14.286 19.374c0 .498.443.886.942.886h3.268l-.665 2.267 3.49-2.267h2.05c.554 0 .943-.443.943-.996V13.954c0-.553-.39-1.05-.943-1.106h-5.484v4.203c0 1.274-.997 2.324-2.27 2.324h-1.33zm2.216 4.868l.94-3.264h-2.27c-.94 0-1.662-.718-1.662-1.66V18.6h1.995c.886 0 1.55-.664 1.607-1.55v-4.976h6.203c.942.055 1.662.885 1.662 1.825v5.198c.055.94-.61 1.77-1.55 1.825H21.486l-4.985 3.32z"/></g></g></svg>