<svg width="30" height="30" viewBox="0 0 30 30" xmlns="http://www.w3.org/2000/svg"><g fill="none" fill-rule="evenodd"><path d="M14.995 30c8.282 0 14.995-6.716 14.995-15 0-8.284-6.713-15-14.995-15C6.715 0 0 6.716 0 15c0 8.284 6.714 15 14.995 15z" fill="#027D00"/><g fill="#FFF"><path d="M19.672 21.066c-.117.817-.175 1.284-.233 1.576-.467-.292-1.283-.933-2.39-1.81.524-.174.932-.466 1.223-.933.408-.7.7-1.46.874-2.277.292.525.583 1.05.816 1.633-.116.06-.233.876-.29 1.81M16 20.074H14.08c-1.05 0-1.923 0-2.74-5.603-.232-1.225-.115-2.51.234-3.735.234-.818.7-1.576 1.34-2.16.583-.642 1.34-1.05 2.157-1.342.756.29 1.514.7 2.096 1.284.64.642 1.05 1.342 1.34 2.218.35 1.225.408 2.51.233 3.794-.35 2.567-.758 4.085-1.224 4.902-.35.467-.932.76-1.515.642m-5.36 2.568c-.116-.525-.175-1.05-.233-1.576-.116-.934-.175-1.692-.175-1.867.233-.527.525-1.11.816-1.636.175.817.466 1.576.874 2.276.29.467.7.818 1.165.993-1.223.933-2.04 1.517-2.447 1.81m9.323-5.254c-.29-.468-.524-.935-.64-1.17.116-.524.174-1.107.232-1.574.233-1.4.175-2.86-.233-4.203-.29-.992-.816-1.868-1.573-2.57-.7-.757-1.633-1.283-2.623-1.574l-.117-.06-.116.06c-.99.29-1.865.816-2.622 1.516-.7.76-1.282 1.635-1.574 2.57-.407 1.34-.524 2.8-.29 4.2.057.584.174 1.11.29 1.635-.233.41-.466.82-.582 1.17-.816 1.458-.816 1.634-.816 1.75 0 .116.058 1.167.233 2.102.233 1.984.408 2.218.524 2.334.06.117.234.176.35.176.175 0 .35 0 2.273-1.46.7-.526 1.34-1.05 1.63-1.284h1.341l.118.058c.35.233.932.7 1.573 1.226 1.924 1.46 2.1 1.46 2.273 1.46.117 0 .292-.06.35-.176.117-.116.29-.29.525-2.334.116-.818.233-1.868.174-2.102.06-.175.06-.35-.7-1.75"/><path d="M15.01 13.128c-.524 0-.932-.41-.932-.934 0-.526.408-.876.932-.876.525 0 .933.41.933.934 0 .467-.408.876-.933.876m0-2.685c-.99 0-1.806.817-1.806 1.81 0 .99.816 1.81 1.806 1.81.99 0 1.807-.82 1.807-1.81 0-.993-.816-1.81-1.807-1.81"/></g></g></svg>