<svg width="16" height="16" viewBox="0 0 16 16" xmlns="http://www.w3.org/2000/svg"><path d="M7.953 10.016c.287 0 .555-.054.805-.16.25-.107.468-.255.656-.442.187-.188.335-.406.442-.656.106-.25.16-.518.16-.805 0-.287-.054-.555-.16-.804-.107-.252-.255-.47-.442-.658-.188-.187-.406-.335-.656-.442-.25-.106-.518-.16-.805-.16-.287 0-.555.054-.805.16-.25.107-.468.255-.656.442-.187.188-.335.406-.442.657-.106.248-.16.516-.16.803 0 .287.054.555.16.805.107.25.255.468.442.656.188.187.406.335.656.442.25.106.518.16.805.16zm0-5c.407 0 .788.077 1.144.23.357.154.668.363.935.63.265.265.474.576.628.933.154.355.23.736.23 1.143 0 .407-.076.788-.23 1.145-.154.356-.363.668-.628.934-.267.265-.578.474-.935.628-.356.154-.737.23-1.144.23-.407 0-.788-.076-1.144-.23-.358-.154-.67-.363-.936-.628-.265-.266-.474-.578-.628-.934-.154-.357-.23-.738-.23-1.145 0-.407.076-.788.23-1.144.154-.358.363-.67.628-.934.267-.267.578-.476.935-.63.355-.153.736-.23 1.143-.23zm5.016 3.672l.03-.37c.01-.124.016-.248.016-.373 0-.12-.006-.24-.016-.367l-.03-.368 1.843-1.148-.672-1.625-2.116.493c-.162-.198-.327-.38-.496-.548-.17-.166-.354-.333-.55-.5l.49-2.116-1.624-.672-1.156 1.843-.368-.03c-.124-.01-.247-.017-.367-.017-.125 0-.25.006-.37.016-.123.01-.247.022-.373.03L6.062 1.095l-1.625.672.492 2.116c-.198.162-.38.328-.548.496-.166.17-.333.354-.5.552l-2.117-.493-.672 1.625 1.844 1.156-.03.372c-.01.122-.017.246-.017.37 0 .12.006.244.016.368l.03.368-1.843 1.148.672 1.625 2.117-.493c.162.197.327.38.496.547.17.166.354.333.55.5l-.49 2.117 1.624.673 1.156-1.844.368.03c.124.01.247.016.367.016.125 0 .25-.006.37-.016l.373-.03 1.148 1.843 1.625-.672-.493-2.116c.197-.162.38-.327.547-.496.166-.17.333-.354.5-.55l2.117.49.673-1.624-1.844-1.156zm.912-1.016c0 .046.002.094.004.14.003.048.004.094.004.14 0 .048 0 .094-.004.142-.002.047-.004.094-.004.14l2.024 1.258-1.242 2.993-2.32-.532c-.126.136-.255.265-.39.39l.53 2.32-2.992 1.243-1.258-2.024c-.046 0-.093.002-.14.004-.048.003-.094.004-.14.004-.048 0-.094 0-.14-.004-.05-.002-.096-.004-.142-.004l-1.258 2.024-2.992-1.242.53-2.32c-.135-.126-.264-.255-.39-.39l-2.32.53L0 9.493l2.024-1.258c0-.046-.002-.093-.004-.14-.003-.048-.004-.094-.004-.14 0-.048 0-.094.004-.14.002-.048.004-.096.004-.142L0 6.414l1.242-2.992 2.32.53c.126-.134.255-.264.39-.39l-.53-2.32L6.414 0l1.258 2.024c.046 0 .093-.002.14-.004.048-.003.094-.004.14-.004.048 0 .094 0 .14.004.05.002.096.004.142.004L9.492 0l2.992 1.242-.53 2.32c.135.126.264.256.39.39l2.32-.53 1.242 2.992-2.024 1.258z" fill="#FFF" fill-rule="evenodd"/></svg>