<?xml version="1.0" encoding="UTF-8"?>
<svg width="1399px" height="705px" viewBox="0 0 1399 705" version="1.1" xmlns="http://www.w3.org/2000/svg" xmlns:xlink="http://www.w3.org/1999/xlink">
    <!-- Generator: Sketch 41.2 (35397) - http://www.bohemiancoding.com/sketch -->
    <title>Illustration</title>
    <desc>Created with Sketch.</desc>
    <defs>
        <rect id="path-1" x="0" y="1.13686838e-13" width="1403" height="705"></rect>
    </defs>
    <g id="6.0_Mission-Hub" stroke="none" stroke-width="1" fill="none" fill-rule="evenodd">
        <g id="6.0b_Deskop_Mission_Hub_Empty-State" transform="translate(0.000000, -93.000000)">
            <g id="Illustration" transform="translate(-4.000000, 93.000000)">
                <g id="Space">
                    <mask id="mask-2" fill="white">
                        <use xlink:href="#path-1"></use>
                    </mask>
                    <use id="Rectangle-160" fill="#D58F8F" xlink:href="#path-1"></use>
                    <g id="Illus" mask="url(#mask-2)">
                        <g transform="translate(-673.801921, -142.532609)">
                            <polygon id="Fill-1" fill="#3F3F3F" points="416.255506 883.414675 2110.55132 883.414675 2110.55132 18.5769119 416.255506 18.5769119"></polygon>
                            <path d="M888.373858,443.7701 C888.373858,446.602596 890.631392,448.90046 893.416234,448.90046 C896.201075,448.90046 898.458609,446.602596 898.458609,443.7701 C898.458609,440.935508 896.201075,438.637644 893.416234,438.637644 C890.631392,438.637644 888.373858,440.935508 888.373858,443.7701" id="Fill-66" fill="#EBF8F9"></path>
                            <path d="M1806.61143,549.038918 C1804.81529,548.617504 1802.89968,548.110128 1800.86255,547.508407 C1801.08501,546.822821 1801.28892,546.156105 1801.52992,545.447457 C1800.83371,545.692758 1800.18076,545.900321 1799.50514,546.126753 C1798.91604,544.057417 1798.41757,542.109683 1798.00355,540.283552 C1797.58954,542.109683 1797.09106,544.057417 1796.50196,546.126753 C1795.82635,545.900321 1795.1734,545.692758 1794.47719,545.447457 C1794.71818,546.156105 1794.9221,546.822821 1795.14456,547.508407 C1793.10948,548.110128 1791.19388,548.617504 1789.39773,549.036822 C1791.19388,549.460333 1793.10948,549.967709 1795.14456,550.56943 C1794.92416,551.255016 1794.71818,551.919635 1794.47719,552.628283 C1795.1734,552.382982 1795.82635,552.17542 1796.4999,551.948988 C1797.09106,554.02042 1797.58954,555.968154 1798.00355,557.794285 C1798.41757,555.968154 1798.91604,554.018324 1799.5072,551.946891 C1800.18076,552.173323 1800.83371,552.382982 1801.52992,552.628283 C1801.28892,551.919635 1801.08501,551.255016 1800.86255,550.56943 C1802.89968,549.967709 1804.81529,549.460333 1806.61143,549.038918" id="Fill-2" fill="#EBF8F9"></path>
                            <path d="M1806.2137,189.195651 C1804.4155,188.774236 1802.49989,188.266861 1800.46275,187.665139 C1800.68727,186.979554 1800.89119,186.312837 1801.13219,185.604189 C1800.43598,185.849491 1799.78302,186.05915 1799.10741,186.283485 C1798.51831,184.214149 1798.01778,182.266416 1797.60582,180.440284 C1797.1918,182.266416 1796.69333,184.214149 1796.10217,186.283485 C1795.42862,186.05915 1794.77566,185.849491 1794.07739,185.604189 C1794.32045,186.312837 1794.52437,186.979554 1794.74477,187.665139 C1792.70969,188.266861 1790.79614,188.774236 1789,189.193554 C1790.79614,189.617066 1792.70969,190.124441 1794.74477,190.726163 C1794.52437,191.411748 1794.32045,192.076368 1794.07739,192.785016 C1794.77566,192.539715 1795.42862,192.332152 1796.10217,192.10572 C1796.69333,194.177153 1797.1918,196.124886 1797.60582,197.951018 C1798.01984,196.124886 1798.51831,194.175056 1799.10947,192.103624 C1799.78302,192.330055 1800.43598,192.539715 1801.13219,192.785016 C1800.89119,192.076368 1800.68521,191.411748 1800.46275,190.726163 C1802.49989,190.124441 1804.4155,189.617066 1806.2137,189.195651" id="Fill-8" fill="#EBF8F9"></path>
                            <path d="M1944.72597,371.137247 C1944.72597,373.971839 1942.46843,376.267607 1939.68359,376.267607 C1936.90081,376.267607 1934.64328,373.971839 1934.64328,371.137247 C1934.64328,368.302655 1936.90081,366.004791 1939.68359,366.004791 C1942.46843,366.004791 1944.72597,368.302655 1944.72597,371.137247" id="Fill-12" fill="#EBF8F9"></path>
                            <path d="M2072.56872,190.523215 C2070.77052,190.1018 2068.85491,189.594425 2066.81778,188.992703 C2067.0423,188.307117 2067.24622,187.640401 2067.48721,186.931753 C2066.791,187.177055 2066.13805,187.386714 2065.46243,187.611049 C2064.87333,185.541713 2064.3728,183.593979 2063.96084,181.767848 C2063.54683,183.593979 2063.04836,185.541713 2062.45719,187.611049 C2061.78364,187.386714 2061.13069,187.177055 2060.43242,186.931753 C2060.67547,187.640401 2060.87939,188.307117 2061.09979,188.992703 C2059.06677,189.594425 2057.15117,190.1018 2055.35502,190.521118 C2057.15117,190.94463 2059.06677,191.452005 2061.09979,192.053727 C2060.87939,192.739312 2060.67547,193.403932 2060.43242,194.11258 C2061.13069,193.867279 2061.78364,193.659716 2062.45719,193.433284 C2063.04836,195.504717 2063.54683,197.45245 2063.96084,199.278582 C2064.37486,197.45245 2064.87333,195.50262 2065.46449,193.431187 C2066.13805,193.657619 2066.791,193.867279 2067.48721,194.11258 C2067.24622,193.403932 2067.04024,192.739312 2066.81778,192.053727 C2068.85491,191.452005 2070.77052,190.94463 2072.56872,190.523215" id="Fill-16" fill="#EBF8F9"></path>
                            <path d="M1764.56356,169.289627 C1764.56356,171.413474 1762.87041,173.136872 1760.78178,173.136872 C1758.69315,173.136872 1757,171.413474 1757,169.289627 C1757,167.163683 1758.69315,165.440284 1760.78178,165.440284 C1762.87041,165.440284 1764.56356,167.163683 1764.56356,169.289627" id="Fill-31" fill="#EBF8F9"></path>
                            <path d="M2001.39914,755.405805 C2001.39914,757.529652 1999.70599,759.253051 1997.61735,759.253051 C1995.52872,759.253051 1993.83557,757.529652 1993.83557,755.405805 C1993.83557,753.279861 1995.52872,751.556463 1997.61735,751.556463 C1999.70599,751.556463 2001.39914,753.279861 2001.39914,755.405805" id="Fill-35" fill="#EBF8F9"></path>
                            <path d="M1967.25208,653.941672 C1967.25208,656.065519 1965.55893,657.788917 1963.4703,657.788917 C1961.38167,657.788917 1959.68852,656.065519 1959.68852,653.941672 C1959.68852,651.815728 1961.38167,650.092329 1963.4703,650.092329 C1965.55893,650.092329 1967.25208,651.815728 1967.25208,653.941672" id="Fill-37" fill="#EBF8F9"></path>
                            <path d="M1739.73137,761.674824 C1739.73137,763.798671 1738.03822,765.522069 1735.94959,765.522069 C1733.86095,765.522069 1732.1678,763.798671 1732.1678,761.674824 C1732.1678,759.54888 1733.86095,757.825481 1735.94959,757.825481 C1738.03822,757.825481 1739.73137,759.54888 1739.73137,761.674824" id="Fill-39" fill="#EBF8F9"></path>
                            <path d="M1529.20931,549.038918 C1531.00545,548.617504 1532.92106,548.110128 1534.95819,547.508407 C1534.73574,546.822821 1534.53182,546.156105 1534.29082,545.447457 C1534.98703,545.692758 1535.63999,545.900321 1536.3156,546.126753 C1536.9047,544.057417 1537.40317,542.109683 1537.81719,540.283552 C1538.23121,542.109683 1538.72968,544.057417 1539.31878,546.126753 C1539.99439,545.900321 1540.64734,545.692758 1541.34356,545.447457 C1541.10256,546.156105 1540.89864,546.822821 1540.67618,547.508407 C1542.71126,548.110128 1544.62687,548.617504 1546.42301,549.036822 C1544.62687,549.460333 1542.71126,549.967709 1540.67618,550.56943 C1540.89658,551.255016 1541.10256,551.919635 1541.34356,552.628283 C1540.64734,552.382982 1539.99439,552.17542 1539.32084,551.948988 C1538.72968,554.02042 1538.23121,555.968154 1537.81719,557.794285 C1537.40317,555.968154 1536.9047,554.018324 1536.31354,551.946891 C1535.63999,552.173323 1534.98703,552.382982 1534.29082,552.628283 C1534.53182,551.919635 1534.73574,551.255016 1534.95819,550.56943 C1532.92106,549.967709 1531.00545,549.460333 1529.20931,549.038918" id="Fill-43" fill="#EBF8F9"></path>
                            <path d="M802.750945,332.665139 C802.526427,331.979554 802.322507,331.312837 802.081512,330.604189 C802.777722,330.849491 803.430676,331.05915 804.106289,331.283485 C804.69539,329.214149 805.19592,327.266416 805.607879,325.440284 C806.021897,327.266416 806.520367,329.214149 807.111528,331.283485 C807.785081,331.05915 808.438035,330.849491 809.136306,330.604189 C808.89325,331.312837 808.68933,331.979554 808.468932,332.665139 C810.504009,333.266861 812.417557,333.774236 814.213697,334.193554 C812.417557,334.617066 810.504009,335.124441 808.468932,335.726163 C808.68933,336.409652 808.89325,337.076368 809.136306,337.785016 C808.438035,337.539715 807.785081,337.332152 807.111528,337.10572 C806.520367,339.177153 806.021897,341.124886 805.607879,342.951018 C805.19386,341.124886 804.69539,339.175056 804.104229,337.103624 C803.430676,337.330055 802.777722,337.539715 802.081512,337.785016 C802.322507,337.076368 802.528487,336.409652 802.750945,335.726163 C800.713808,335.124441 798.7982,334.617066 797,334.195651 C798.7982,333.774236 800.713808,333.266861 802.750945,332.665139 Z" id="Fill-45" fill="#EBF8F9"></path>
                            <path d="M995.929291,669.040067 C997.727492,668.618652 999.6431,668.111277 1001.68024,667.509555 C1001.45572,666.823969 1001.2518,666.157253 1001.0108,665.448605 C1001.70701,665.693906 1002.35997,665.903566 1003.03558,666.127901 C1003.62468,664.058565 1004.12521,662.110831 1004.53717,660.2847 C1004.95119,662.110831 1005.44966,664.058565 1006.04082,666.127901 C1006.71437,665.903566 1007.36733,665.693906 1008.0656,665.448605 C1007.82254,666.157253 1007.61862,666.823969 1007.39822,667.509555 C1009.43124,668.111277 1011.34685,668.618652 1013.14299,669.03797 C1011.34685,669.461482 1009.43124,669.968857 1007.39822,670.570579 C1007.61862,671.256164 1007.82254,671.920784 1008.0656,672.629432 C1007.36733,672.38413 1006.71437,672.176568 1006.04082,671.950136 C1005.44966,674.021569 1004.95119,675.969302 1004.53717,677.795433 C1004.12315,675.969302 1003.62468,674.019472 1003.03352,671.948039 C1002.35997,672.174471 1001.70701,672.38413 1001.0108,672.629432 C1001.2518,671.920784 1001.45778,671.256164 1001.68024,670.570579 C999.6431,669.968857 997.727492,669.461482 995.929291,669.040067" id="Fill-47" fill="#EBF8F9"></path>
                            <path d="M1993,271.195651 C1994.7982,270.774236 1996.71381,270.266861 1998.75094,269.665139 C1998.52643,268.979554 1998.32251,268.312837 1998.08151,267.604189 C1998.77772,267.849491 1999.43068,268.05915 2000.10629,268.283485 C2000.69539,266.214149 2001.19592,264.266416 2001.60788,262.440284 C2002.0219,264.266416 2002.52037,266.214149 2003.11153,268.283485 C2003.78508,268.05915 2004.43804,267.849491 2005.13631,267.604189 C2004.89325,268.312837 2004.68933,268.979554 2004.46893,269.665139 C2006.50401,270.266861 2008.41756,270.774236 2010.2137,271.193554 C2008.41756,271.617066 2006.50401,272.124441 2004.46893,272.726163 C2004.68933,273.411748 2004.89325,274.076368 2005.13631,274.785016 C2004.43804,274.539715 2003.78508,274.332152 2003.11153,274.10572 C2002.52037,276.177153 2002.0219,278.124886 2001.60788,279.951018 C2001.19386,278.124886 2000.69539,276.175056 2000.10423,274.103624 C1999.43068,274.330055 1998.77772,274.539715 1998.08151,274.785016 C1998.32251,274.076368 1998.52849,273.411748 1998.75094,272.726163 C1996.71381,272.124441 1994.7982,271.617066 1993,271.195651" id="Fill-49" fill="#EBF8F9"></path>
                            <path d="M991,161.572741 C991,164.407332 993.257534,166.7031 996.042375,166.7031 C998.827217,166.7031 1001.08475,164.407332 1001.08475,161.572741 C1001.08475,158.738149 998.827217,156.440284 996.042375,156.440284 C993.257534,156.440284 991,158.738149 991,161.572741" id="Fill-55" fill="#EBF8F9"></path>
                            <path d="M871,253.755367 C872.7982,253.333952 874.713808,252.826577 876.750945,252.224855 C876.526427,251.539269 876.322507,250.872553 876.081512,250.163905 C876.777722,250.409206 877.430676,250.618866 878.106289,250.843201 C878.69539,248.773865 879.19592,246.826131 879.607879,245 C880.021897,246.826131 880.520367,248.773865 881.111528,250.843201 C881.785081,250.618866 882.438035,250.409206 883.136306,250.163905 C882.89325,250.872553 882.68933,251.539269 882.468932,252.224855 C884.501949,252.826577 886.417557,253.333952 888.213697,253.75327 C886.417557,254.176782 884.501949,254.684157 882.468932,255.285879 C882.68933,255.971464 882.89325,256.636084 883.136306,257.344732 C882.438035,257.09943 881.785081,256.891868 881.111528,256.665436 C880.520367,258.736868 880.021897,260.684602 879.607879,262.510733 C879.19386,260.684602 878.69539,258.734772 878.104229,256.663339 C877.430676,256.889771 876.777722,257.09943 876.081512,257.344732 C876.322507,256.636084 876.528487,255.971464 876.750945,255.285879 C874.713808,254.684157 872.7982,254.176782 871,253.755367" id="Fill-57" fill="#EBF8F9"></path>
                            <path d="M1185.31457,580.616314 C1185.31457,583.448809 1187.5721,585.746674 1190.35694,585.746674 C1193.14178,585.746674 1195.39932,583.448809 1195.39932,580.616314 C1195.39932,577.781722 1193.14178,575.483858 1190.35694,575.483858 C1187.5721,575.483858 1185.31457,577.781722 1185.31457,580.616314" id="Fill-61" fill="#EBF8F9"></path>
                            <path d="M2005,433.132456 C2005,435.964952 2007.25753,438.262816 2010.04238,438.262816 C2012.82722,438.262816 2015.08475,435.964952 2015.08475,433.132456 C2015.08475,430.297864 2012.82722,428 2010.04238,428 C2007.25753,428 2005,430.297864 2005,433.132456" id="Fill-66" fill="#EBF8F9"></path>
                            <path d="M751,227.849342 C751,229.97319 752.693151,231.696588 754.781782,231.696588 C756.870413,231.696588 758.563563,229.97319 758.563563,227.849342 C758.563563,225.723398 756.870413,224 754.781782,224 C752.693151,224 751,225.723398 751,227.849342" id="Fill-68" fill="#EBF8F9"></path>
                            <path d="M890.797824,202.021552 C890.797824,204.1454 892.490974,205.868798 894.579605,205.868798 C896.668236,205.868798 898.361387,204.1454 898.361387,202.021552 C898.361387,199.895608 896.668236,198.17221 894.579605,198.17221 C892.490974,198.17221 890.797824,199.895608 890.797824,202.021552" id="Fill-70" fill="#EBF8F9"></path>
                            <path d="M1801,445.289627 C1801,447.413474 1802.69315,449.136872 1804.78178,449.136872 C1806.87041,449.136872 1808.56356,447.413474 1808.56356,445.289627 C1808.56356,443.163683 1806.87041,441.440284 1804.78178,441.440284 C1802.69315,441.440284 1801,443.163683 1801,445.289627" id="Fill-72" fill="#EBF8F9"></path>
                            <path d="M1129.07107,792.24942 C1129.07107,795.084012 1131.32861,797.379779 1134.11345,797.379779 C1136.89623,797.379779 1139.15376,795.084012 1139.15376,792.24942 C1139.15376,789.414828 1136.89623,787.116963 1134.11345,787.116963 C1131.32861,787.116963 1129.07107,789.414828 1129.07107,792.24942" id="Fill-74" fill="#EBF8F9"></path>
                            <path d="M1334.4214,755.405805 C1334.4214,757.529652 1336.11455,759.253051 1338.20318,759.253051 C1340.29181,759.253051 1341.98496,757.529652 1341.98496,755.405805 C1341.98496,753.279861 1340.29181,751.556463 1338.20318,751.556463 C1336.11455,751.556463 1334.4214,753.279861 1334.4214,755.405805" id="Fill-76" fill="#EBF8F9"></path>
                            <path d="M1368.56825,653.941672 C1368.56825,656.065519 1370.2614,657.788917 1372.35003,657.788917 C1374.43866,657.788917 1376.13181,656.065519 1376.13181,653.941672 C1376.13181,651.815728 1374.43866,650.092329 1372.35003,650.092329 C1370.2614,650.092329 1368.56825,651.815728 1368.56825,653.941672" id="Fill-78" fill="#EBF8F9"></path>
                            <path d="M1596.08917,761.674824 C1596.08917,763.798671 1597.78232,765.522069 1599.87095,765.522069 C1601.95958,765.522069 1603.65273,763.798671 1603.65273,761.674824 C1603.65273,759.54888 1601.95958,757.825481 1599.87095,757.825481 C1597.78232,757.825481 1596.08917,759.54888 1596.08917,761.674824" id="Fill-80" fill="#EBF8F9"></path>
                            <path d="M857.703527,761.674824 C857.703527,763.798671 859.396678,765.522069 861.485309,765.522069 C863.57394,765.522069 865.267091,763.798671 865.267091,761.674824 C865.267091,759.54888 863.57394,757.825481 861.485309,757.825481 C859.396678,757.825481 857.703527,759.54888 857.703527,761.674824" id="Fill-82" fill="#EBF8F9"></path>
                            <path d="M720.675739,443.7701 C720.675739,446.602596 718.418205,448.90046 715.633364,448.90046 C712.848523,448.90046 710.590989,446.602596 710.590989,443.7701 C710.590989,440.935508 712.848523,438.637644 715.633364,438.637644 C718.418205,438.637644 720.675739,440.935508 720.675739,443.7701" id="Fill-107" fill="#EBF8F9"></path>
                            <path d="M718.251774,202.021552 C718.251774,204.1454 716.558623,205.868798 714.469992,205.868798 C712.381362,205.868798 710.688211,204.1454 710.688211,202.021552 C710.688211,199.895608 712.381362,198.17221 714.469992,198.17221 C716.558623,198.17221 718.251774,199.895608 718.251774,202.021552" id="Fill-111" fill="#EBF8F9"></path>
                            <path d="M751.34607,761.674824 C751.34607,763.798671 749.65292,765.522069 747.564289,765.522069 C745.475658,765.522069 743.782507,763.798671 743.782507,761.674824 C743.782507,759.54888 745.475658,757.825481 747.564289,757.825481 C749.65292,757.825481 751.34607,759.54888 751.34607,761.674824" id="Fill-123" fill="#EBF8F9"></path>
                            <path d="M412.020982,888.206855 L2108.17679,888.206855 L2108.17679,513.610922 C1851.39877,501.27877 1565.63944,494.372598 1265.00223,494.372598 C958.923035,494.372598 670.471559,501.38989 412.020982,513.908638 L412.020982,888.206855 Z" id="Fill-126" fill="#FAE4A8"></path>
                            <path d="M795.680456,722.67151 L795.680456,649.762536 C795.680456,598.767137 756.06238,557.655071 709.585191,557.655071 L702.540696,557.655071 C653.770957,557.655071 614.152881,598.767137 614.152881,649.762536 L614.152881,722.67151 L795.680456,722.67151 Z" id="Fill-128" fill="#BCA97E"></path>
                            <path d="M888.634628,722.67151 L888.634628,720.151407 C888.634628,669.153912 849.210173,628.041846 800.255052,628.041846 L793.397998,628.041846 C744.442877,628.041846 705.016363,669.153912 705.016363,720.151407 L705.016363,722.67151 L888.634628,722.67151 Z" id="Fill-130" fill="#DDC997"></path>
                            <path d="M1263.95832,560.895354 L1263.95832,517.30931 C1263.95832,486.824868 1287.64183,462.24862 1315.42639,462.24862 L1319.63661,462.24862 C1348.79093,462.24862 1372.47444,486.824868 1372.47444,517.30931 L1372.47444,560.895354 L1263.95832,560.895354 Z" id="Fill-134" fill="#BCA97E"></path>
                            <path d="M1208.39064,560.895354 L1208.39064,559.387904 C1208.39064,528.901365 1231.95881,504.327215 1261.22436,504.327215 L1265.32335,504.327215 C1294.5889,504.327215 1318.15706,528.901365 1318.15706,559.387904 L1318.15706,560.895354 L1208.39064,560.895354 Z" id="Fill-136" fill="#DDC997"></path>
                            <path d="M1391.943,560.895354 L1391.943,559.387904 C1391.943,543.508319 1404.35326,528.901365 1421.09526,528.901365 L1423.82655,528.901365 C1439.19879,528.901365 1453.0921,543.508319 1453.0921,559.387904 L1453.0921,560.895354 L1391.943,560.895354 Z" id="Fill-138" fill="#DDC997"></path>
                            <path d="M2052.67956,552.082121 L2052.67956,517.949609 C2052.67956,494.07572 2071.228,474.829009 2092.98561,474.829009 L2096.28334,474.829009 C2119.11615,474.829009 2137.66253,494.07572 2137.66253,517.949609 L2137.66253,552.082121 L2052.67956,552.082121 Z" id="Fill-140" fill="#BCA97E"></path>
                            <path d="M2009.16229,552.082121 L2009.16229,550.90174 C2009.16229,527.027851 2027.62011,507.78114 2050.53737,507.78114 L2053.74859,507.78114 C2076.66792,507.78114 2095.12367,527.027851 2095.12367,550.90174 L2095.12367,552.082121 L2009.16229,552.082121 Z" id="Fill-142" fill="#DDC997"></path>
                            <path d="M1297.64234,925.767923 L1297.64234,826.355934 C1297.64234,756.824569 1351.66249,700.767998 1415.03411,700.767998 L1424.63893,700.767998 C1491.13526,700.767998 1545.15335,756.824569 1545.15335,826.355934 L1545.15335,925.767923 L1297.64234,925.767923 Z" id="Fill-146" fill="#BCA97E"></path>
                            <path d="M1170.89972,925.767923 L1170.89972,922.33161 C1170.89972,852.796051 1224.65622,796.741577 1291.4059,796.741577 L1300.7553,796.741577 C1367.50498,796.741577 1421.26149,852.796051 1421.26149,922.33161 L1421.26149,925.767923 L1170.89972,925.767923 Z" id="Fill-148" fill="#DDC997"></path>
                        </g>
                    </g>
                </g>
                <g id="Group" transform="translate(1158.000000, 197.000000)">
                    <g id="Group-146" transform="translate(0.000000, 51.000000)">
                        <path d="M78.4442902,62.5714054 L36.2243295,44.3854829 C25.5622128,41.9223429 26.0858692,55.0924284 35.6068349,54.8146061 C22.7956272,59.3375536 30.6360364,78.0202878 42.6131999,72.4278878 C36.387726,78.9720744 55.182922,97.5717887 59.682561,80.354649 C69.8564566,97.908444 94.7445719,79.1930248 78.4442902,62.5714054" id="Fill-126" fill="#B3BAB3"></path>
                        <path d="M55.3276822,58.5814192 L8.75048025,38.5180715 C-3.01210227,35.801296 -2.43398036,50.3304231 8.06933321,50.0244916 C-6.06413972,55.0141806 2.58537773,75.6240212 15.7988428,69.4550582 C8.93093828,76.6745164 29.6658941,97.1934928 34.6294742,78.2002513 C45.8539637,97.5654478 73.3104889,76.9183464 55.3276822,58.5814192" id="Fill-128" fill="#B3BAB3"></path>
                        <path d="M38.075107,9.35182629 C35.4187648,5.01452953 33.1974905,-2.19512321 25.3839859,0.722991743 C18.922276,3.13579692 18.6125444,9.57669895 20.9270007,14.059117 C2.01303047,4.88509701 -4.88112249,29.17592 12.705989,31.5573476 C8.02720446,32.855595 9.02136416,39.2239363 10.8902531,42.1891177 C15.0821291,48.8431258 23.5695625,46.9519728 29.7202283,42.0779887 L38.075107,9.35182629 Z" id="Fill-130" fill="#C9CCCA"></path>
                        <path d="M50.8603944,29.331762 C47.6790834,25.1454698 32.6249464,16.8872829 32.6249464,16.8872829 C28.4521005,16.7480449 22.4103657,18.4123641 21.1950629,23.3138036 C20.1188768,27.6550225 24.1880413,32.7140036 28.2519562,33.3742402 C23.8245004,34.1756759 18.4540695,37.9122227 19.4311677,42.9149857 C20.8827064,50.3403593 26.251825,48.9322904 31.0539772,47.8196937 C28.338576,50.8718171 32.5166716,56.159593 35.2957253,57.1937458 C45.354784,60.9374833 55.2301036,35.0830109 50.8603944,29.331762" id="Fill-132" fill="#DEE1DE"></path>
                        <path d="M79.5518432,44.7926724 C84.7332854,40.2037013 83.0127001,34.7283135 79.7132711,31.8755685 C83.9589564,34.4570282 90.7284293,29.8170685 91.6983091,25.3536077 C92.4949493,21.6837383 89.9140714,18.0844683 87.7492312,15.9958982 L88.8424788,15.4905884 C89.9632872,11.3239072 82.3092419,7.28208266 78.6679269,7.92597675 C75.1827902,8.54176177 72.7705585,11.6893253 71.7166836,14.5486073 C74.4458652,0.263963893 57.7918858,-4.07790876 51.0932837,7.81615522 C51.1943402,3.4187181 44.6440418,0.66533544 40.6562474,1.18437291 C35.066642,1.91324795 29.2093024,5.43342023 27.0897408,10.5773823 C24.5587349,16.7195436 28.1554275,25.7118351 36.0096172,26.2230282 C22.3814268,34.0040144 36.6940453,53.3326038 46.6586096,42.9466247 C44.7090067,50.5674545 50.9659788,53.3025336 56.1552955,52.873053 C61.1208443,52.4618759 66.2845688,47.3787079 64.3612143,42.8256903 C67.7977914,48.1232718 73.9609253,49.7444467 79.5518432,44.7926724" id="Fill-134" fill="#FBFBFB"></path>
                        <path d="M88.0235274,59.0085466 C89.8005469,52.4872395 85.9531817,45.0971656 78.7880136,45.7560948 C82.7613713,42.3222109 87.6763918,35.0530715 84.5902314,29.8267433 C82.0454451,25.5169019 74.4314286,23.6009084 70.1601511,26.1437998 C70.1601511,26.1437998 37.6921423,37.7973023 37.4335951,37.439075 C27.7590761,44.8579116 35.4216521,57.255978 43.9071168,52.5454187 C32.2849635,62.0619773 43.2338443,74.6326204 54.3546525,64.9238741 C52.6051939,82.5038171 76.5319601,81.1415072 72.3007114,66.5051734 C78.2538578,69.184688 86.0371767,66.2986044 88.0235274,59.0085466" id="Fill-136" fill="#FBFBFB"></path>
                        <path d="M40.6563787,1.18463439 C35.066117,1.91285573 29.2094337,5.43368171 27.0898721,10.5769901 C24.5588662,16.7198051 28.1555588,25.7114429 36.0097485,26.2232897 C22.381558,34.0042759 36.6941766,53.3322116 46.6587409,42.9462325 C44.7091379,50.567716 50.96611,53.3027951 56.1554267,52.8733144 C61.1209755,52.4614837 66.2847,47.3789694 64.3613455,42.8252981 C67.7979226,48.1228795 73.9604003,49.7447082 79.5519744,44.7929339 C83.1906645,41.5708486 83.4229632,37.912092 82.0980732,35.0312379 C77.0308117,39.2207986 67.5577494,40.2843678 65.2642919,33.3518837 C66.0635569,41.4015404 55.4979033,36.9942978 55.4427816,31.8320321 C52.8697782,37.2250537 43.6637938,42.612192 38.1056865,34.2409151 C34.4768395,28.7746792 41.4858294,22.112173 45.6993604,19.252891 C38.8708285,22.3246253 31.468112,18.5553935 32.5941701,12.4099637 C34.0227415,4.60936653 42.9977396,-1.17129892 50.9825153,7.6654121 L51.015982,6.91757977 C50.284963,3.05029301 44.3646272,0.701550397 40.6563787,1.18463439" id="Fill-138" fill="#DEE1DE"></path>
                        <path d="M53.9118413,66.0902049 C52.3362786,84.6454677 77.6154957,82.4693018 72.7687211,66.9177886 C79.2638978,69.8581293 86.9684714,66.2163689 88.9876327,58.5438969 C90.7935254,51.6820123 86.4927184,43.799049 78.7461473,44.3664602 C78.969259,44.1788485 79.1969643,43.977509 79.4240133,43.7676714 C78.9042941,43.8971039 78.0689375,44.7854817 77.5669361,44.9776694 C81.3467116,47.7820406 85.2131069,52.0480841 82.4635827,56.9521384 C79.5716608,62.1124429 73.1932896,62.81517 68.293362,60.7056814 C71.1833153,65.6051598 71.0638849,71.2348207 64.1684195,71.9682716 C56.7597971,72.7553259 56.8116378,63.2185026 55.4263763,55.7748254 C50.8565228,75.9244615 34.7097944,64.8834755 41.0146699,53.4130088 C28.4725087,65.9829982 44.0673636,81.4057326 53.9118413,66.0902049" id="Fill-140" fill="#DEE1DE"></path>
                        <path d="M66.9441265,22.4150974 C88.3444802,20.4866836 87.4920621,9.31495764 87.4920621,9.31495764 L83.9281801,5.71764881 L83.8940571,5.68300273 L80.3301751,2.0856939 C80.3301751,2.0856939 69.1279968,1.08945573 66.9100035,22.3804513 L66.8673498,22.4222881 C66.880474,22.4216344 66.892942,22.4196733 66.9060663,22.4190196 C66.9047538,22.4314399 66.9027852,22.4438601 66.9014728,22.4569341 L66.9441265,22.4150974 Z" id="Fill-142" fill="#FDAC00"></path>
                        <path d="M66.9441265,22.4150974 C88.3444802,20.4866836 87.4920621,9.31495764 87.4920621,9.31495764 L83.9281801,5.71764881 L83.8940571,5.68300273 L80.3301751,2.0856939 C80.3301751,2.0856939 69.1279968,1.08945573 66.9100035,22.3804513 L66.8673498,22.4222881 C66.880474,22.4216344 66.892942,22.4196733 66.9060663,22.4190196 C66.9047538,22.4314399 66.9027852,22.4438601 66.9014728,22.4569341 L66.9441265,22.4150974 Z" id="Fill-144" fill="#FDAC00"></path>
                    </g>
                    <g id="Group-196" transform="translate(59.000000, 0.000000)">
                        <path d="M42.6644781,38.0526374 C32.2694393,27.8385814 15.6817372,27.8052427 5.61546017,37.9807305 C3.2767241,40.3451619 1.50232951,43.0547466 0.277839745,45.9460599 C9.80471132,41.7761103 21.4294895,43.6097376 29.4090155,51.4508641 C37.3891977,59.2932981 39.3939224,70.8513605 35.3431318,80.4019115 C38.226523,79.1422324 40.919613,77.3360604 43.2603177,74.971629 C53.3265947,64.7961412 53.0595169,48.2673472 42.6644781,38.0526374" id="Fill-148" fill="#5C2D91"></path>
                        <path d="M33.601679,56.7930933 C37.9444835,64.0302014 38.5481976,72.8420718 35.343263,80.4021076 C38.2266542,79.1424285 40.9197442,77.3362565 43.2604489,74.9718251 C51.7163841,66.4220882 52.875909,53.3886258 46.8663285,43.3844074 L33.601679,56.7930933 Z" id="Fill-150" fill="#03171B"></path>
                        <path d="M36.9652198,20.6316742 C28.3747613,29.3160732 22.3894606,39.1078393 19.4050129,48.3263109 C22.1427253,49.7337261 24.7255718,51.5706219 27.0406843,53.8461502 C29.3551406,56.120371 31.2345289,58.6671846 32.6873801,61.3767694 C41.8907397,58.270389 51.6302236,52.168757 60.2200259,43.4850117 C73.8672464,29.690643 80.9549816,13.0997475 79.8505785,0.461773388 C67.1555201,-0.45994303 50.6111279,6.83665176 36.9652198,20.6316742" id="Fill-152" fill="#FBFBFB"></path>
                        <path d="M79.8507754,0.461708018 C78.4018614,0.356462385 26.6405925,53.4675927 26.6405925,53.4675927 C26.7738033,53.5944105 26.9089828,53.7166523 27.040225,53.8460848 C29.3553375,56.1203057 31.2347258,58.6671193 32.6869208,61.376704 C41.8909365,58.2703236 51.6297643,52.1686917 60.2202227,43.4849463 C73.8667871,29.6905777 80.9545223,13.0996821 79.8507754,0.461708018" id="Fill-154" fill="#CFCFCF"></path>
                        <path d="M28.272983,47.6263947 C22.5967577,53.3632623 18.698208,59.3269636 17.7663884,63.2203984 C21.6583759,62.2365805 27.5872425,58.2673166 33.2628116,52.5297953 C38.9383807,46.7929277 42.8369304,40.827919 43.7694062,36.935138 C39.8761062,37.9196095 33.9478959,41.8895271 28.272983,47.6263947" id="Fill-156" fill="#1C6077"></path>
                        <path d="M17.8174416,63.0344208 C17.8023487,63.0958686 17.7806938,63.1605849 17.7662571,63.2200715 C21.6582447,62.2362536 27.5871112,58.2669897 33.2626803,52.5294685 C38.9382494,46.7932546 42.8367991,40.8275922 43.769275,36.9354648 C43.7095598,36.9518073 43.6432825,36.9746868 43.5835673,36.9877608 L17.8174416,63.0344208 Z" id="Fill-158" fill="#03171B"></path>
                        <path d="M58.0698848,5.36955378 C61.0444894,7.93467096 64.0079384,10.6475242 66.9320147,13.5211876 C69.8541223,16.3935436 72.633176,19.3168882 75.2462083,22.246116 C78.8074655,14.5553404 80.4197759,6.97700106 79.850841,0.461577279 C73.3051361,-0.0136623214 65.735742,1.71210459 58.0698848,5.36955378" id="Fill-160" fill="#FD6425"></path>
                        <path d="M67.2132011,13.8021477 C70.030315,16.5836395 72.7181553,19.4121976 75.2465364,22.2459853 C78.8077936,14.5552096 80.4194478,6.97687032 79.8505129,0.461446539 C79.7330511,0.452948444 79.6169018,0.446411448 79.4987838,0.439874452 L67.2132011,13.8021477 Z" id="Fill-162" fill="#DD3428"></path>
                        <path d="M59.9852336,20.6872386 L59.9137066,20.6159854 C58.5382883,19.2634809 56.7238648,18.5163023 54.8044476,18.5130338 C52.8856866,18.5084579 51.0948867,19.2477921 49.7634345,20.5937596 C47.0480333,23.3392978 47.0900308,27.8459028 49.8566165,30.6391611 L49.9274873,30.7097607 C52.7708496,33.5036727 57.3249541,33.5121708 60.0777593,30.728718 C62.7925043,27.9838334 62.751163,23.4791896 59.9852336,20.6872386" id="Fill-164" fill="#FDAC00"></path>
                        <path d="M58.7005693,21.8417375 C56.5481971,19.7250582 53.0998082,19.7185212 51.015682,21.8247413 C48.9302434,23.9342298 48.9873338,27.3674601 51.1403621,29.4834856 C53.2927342,31.5982038 56.7391545,31.6067019 58.8245931,29.4985207 C60.9080631,27.391647 60.8529414,23.9564556 58.7005693,21.8417375" id="Fill-166" fill="#127570"></path>
                        <polygon id="Fill-168" fill="#E81123" points="19.4502915 51.3773229 30.2305261 61.9685637 33.6723529 58.4895745 22.8940869 47.8970263"></polygon>
                        <path d="M42.6644781,38.0526374 C32.2694393,27.8385814 15.6817372,27.8052427 5.61546017,37.9807305 C3.2767241,40.3451619 1.50232951,43.0547466 0.277839745,45.9460599 C9.80471132,41.7761103 21.4294895,43.6097376 29.4090155,51.4508641 C37.3891977,59.2932981 39.3939224,70.8513605 35.3431318,80.4019115 C38.226523,79.1422324 40.919613,77.3360604 43.2603177,74.971629 C53.3265947,64.7961412 53.0595169,48.2673472 42.6644781,38.0526374" id="Fill-170" fill="#5C2D91"></path>
                        <path d="M33.601679,56.7930933 C37.9444835,64.0302014 38.5481976,72.8420718 35.343263,80.4021076 C38.2266542,79.1424285 40.9197442,77.3362565 43.2604489,74.9718251 C51.7163841,66.4220882 52.875909,53.3886258 46.8663285,43.3844074 L33.601679,56.7930933 Z" id="Fill-172" fill="#47237A"></path>
                        <path d="M36.9652198,20.6316742 C28.3747613,29.3160732 22.3894606,39.1078393 19.4050129,48.3263109 C22.1427253,49.7337261 24.7255718,51.5706219 27.0406843,53.8461502 C29.3551406,56.120371 31.2345289,58.6671846 32.6873801,61.3767694 C41.8907397,58.270389 51.6302236,52.168757 60.2200259,43.4850117 C73.8672464,29.690643 80.9549816,13.0997475 79.8505785,0.461773388 C67.1555201,-0.45994303 50.6111279,6.83665176 36.9652198,20.6316742" id="Fill-174" fill="#FBFBFB"></path>
                        <path d="M58.0486892,5.34288284 C56.8130439,5.91552367 55.9468453,6.41625756 55.9468453,6.41625756 C55.8963171,6.40449097 66.8425731,14.9718778 74.0950173,24.6335577 C74.0950173,24.6335577 75.0078068,22.85288 75.2460114,22.2455931 C75.0904894,16.2309032 66.3018552,5.61155337 58.0486892,5.34288284" id="Fill-176" fill="#5C2D91"></path>
                        <path d="M28.272983,47.6263947 C22.5967577,53.3632623 18.698208,59.3269636 17.7663884,63.2203984 C21.6583759,62.2365805 27.5872425,58.2673166 33.2628116,52.5297953 C38.9383807,46.7929277 42.8369304,40.827919 43.7694062,36.935138 C39.8761062,37.9196095 33.9478959,41.8895271 28.272983,47.6263947" id="Fill-178" fill="#5C2D91"></path>
                        <path d="M17.8174416,63.0344208 C17.8023487,63.0958686 17.7806938,63.1605849 17.7662571,63.2200715 C21.6582447,62.2362536 27.5871112,58.2669897 33.2626803,52.5294685 C38.9382494,46.7932546 42.8367991,40.8275922 43.769275,36.9354648 C43.7095598,36.9518073 43.6432825,36.9746868 43.5835673,36.9877608 L17.8174416,63.0344208 Z" id="Fill-180" fill="#48257A"></path>
                        <path d="M58.0335308,5.35138093 C61.0081353,7.91649811 64.0083321,10.647655 66.9317522,13.5206647 C69.8545161,16.3930207 72.6329135,19.3170189 75.2459458,22.2455931 C78.8078592,14.5554711 80.4195135,6.9771318 79.8505785,0.461708018 C73.3055298,-0.0135315815 65.6993879,1.69393174 58.0335308,5.35138093" id="Fill-182" fill="#E81123"></path>
                        <path d="M67.2132011,13.8021477 C70.030315,16.5836395 72.7181553,19.4121976 75.2465364,22.2459853 C78.8077936,14.5552096 80.4194478,6.97687032 79.8505129,0.461446539 C79.7330511,0.452948444 79.6169018,0.446411448 79.4987838,0.439874452 L67.2132011,13.8021477 Z" id="Fill-184" fill="#DD3428"></path>
                        <path d="M66.4588865,13.1050425 C69.2760004,15.8865342 72.7178272,19.4197805 75.2462083,22.2535682 C78.8074655,14.5627926 80.4197759,6.98445324 79.850841,0.469029454 C79.732723,0.460531359 79.6172299,0.453994363 79.4984557,0.447457367 L66.4588865,13.1050425 Z" id="Fill-186" fill="#DD3428"></path>
                        <path d="M59.9852336,20.6872386 L59.9137066,20.6159854 C58.5382883,19.2634809 56.7238648,18.5163023 54.8044476,18.5130338 C52.8856866,18.5084579 51.0948867,19.2477921 49.7634345,20.5937596 C47.0480333,23.3392978 47.0900308,27.8459028 49.8566165,30.6391611 L49.9274873,30.7097607 C52.7708496,33.5036727 57.3249541,33.5121708 60.0777593,30.728718 C62.7925043,27.9838334 62.751163,23.4791896 59.9852336,20.6872386" id="Fill-188" fill="#FFB900"></path>
                        <path d="M58.7005693,21.8417375 C56.5481971,19.7250582 53.0998082,19.7185212 51.015682,21.8247413 C48.9302434,23.9342298 48.9873338,27.3674601 51.1403621,29.4834856 C53.2927342,31.5982038 56.7391545,31.6067019 58.8245931,29.4985207 C60.9080631,27.391647 60.8529414,23.9564556 58.7005693,21.8417375" id="Fill-190" fill="#5C2D91"></path>
                        <path d="M79.8507754,0.461708018 C78.4018614,0.356462385 26.6405925,53.4675927 26.6405925,53.4675927 C26.7738033,53.5944105 26.9089828,53.7166523 27.040225,53.8460848 C29.3553375,56.1203057 31.2347258,58.6671193 32.6869208,61.376704 C41.8909365,58.2703236 51.6297643,52.1686917 60.2202227,43.4849463 C73.8667871,29.6905777 80.9545223,13.0996821 79.8507754,0.461708018" id="Fill-192" fill-opacity="0.2" fill="#000000"></path>
                    </g>
                </g>
                <g id="Group-173" transform="translate(996.000000, 371.000000)">
                    <path d="M43.7058932,52.7266899 C41.7228109,53.9985984 41.1095808,56.8088988 42.3781433,58.8124144 C42.6942161,59.3080981 42.9925937,59.7750553 43.283039,60.2297886 C33.2809819,58.0398568 33.2761004,58.0386344 33.2761004,58.0386344 L30.0281166,57.3271969 C27.6844184,56.8143996 25.4182129,58.2873931 24.9105438,60.6136226 C24.5011136,62.4900084 25.357195,64.3119975 26.9107112,65.2349104 L24.0392079,64.6059849 C21.6955097,64.0931876 19.4335754,65.5472339 18.9216351,67.8930218 C18.410305,70.2375874 19.8600907,72.5045304 22.2037889,73.0179389 C23.2465852,73.2459167 24.2009054,73.4549474 25.0911568,73.6499204 C23.2709923,73.8882886 21.6936791,75.3545588 21.2860795,77.2242215 C20.7741391,79.5693982 22.2202638,81.8558997 24.5633518,82.368697 C25.0197659,82.4689339 25.4578745,82.5648924 25.8837796,82.6577949 C24.7641008,83.2225443 23.8884937,84.2554733 23.5974382,85.589113 C23.0897691,87.9153426 24.5590806,90.2067336 26.8789819,90.7146413 L45.2825962,94.744287 L45.3222579,94.5621492 C47.8093482,96.0174178 50.652173,97.1383597 53.8763599,97.8442964 C57.483129,98.6339676 60.3534119,98.6590269 62.6757539,98.0649399 L79.8468063,101.824435 L84.0466696,102.743681 L109.905453,108.405843 C118.745119,110.340904 127.519496,104.910998 129.460476,96.014973 C131.402066,87.1177258 125.740823,78.2834322 116.901158,76.348371 C116.901158,76.348371 116.880412,76.3434814 91.0417638,70.6862086 C91.0417638,70.6862086 91.0307806,70.6837638 86.8425106,69.7669629 C84.5738644,69.2700568 81.0720461,68.5036112 75.6823334,67.3233829 C71.8284416,66.479926 67.0238907,65.4274386 60.9910491,64.106634 C58.9884411,63.6684032 57.1298353,63.2613436 55.4054689,62.8836216 L49.7613114,54.052384 C48.4933591,52.0482572 45.7091115,51.4388902 43.7058932,52.7266899" id="Fill-128" fill="#004B1C"></path>
                    <path d="M152.80343,197.761172 L152.80343,137.443006 C152.80343,95.2542727 119.496799,61.2421813 80.424585,61.2421813 L74.502796,61.2421813 C33.5042464,61.2421813 0.198225829,95.2542727 0.198225829,137.443006 L0.198225829,197.761172 L152.80343,197.761172 Z" id="Fill-130" fill="#BCA97E"></path>
                    <path d="M104.762009,25.2769983 C104.762009,25.2769983 108.556713,33.639445 101.346836,37.4405016 C101.346836,37.4405016 75.1628268,26.4174986 85.4089557,0.37974146 C85.4089557,0.37974146 87.116237,23.3761644 104.762009,25.2769983" id="Fill-134" fill="#E81123"></path>
                    <path d="M102.16533,21.8712051 L95.6809561,17.8592843 L97.7311582,21.6798993 C97.7311582,21.6798993 94.8706382,22.778838 95.108608,23.208512 C95.3471881,23.6381861 96.7298541,25.0231666 96.7298541,25.0231666 L94.6796521,24.9278193 L96.7298541,27.6977805 L92.343276,26.8861061 L94.5844641,31.0410478 L92.4866681,30.849742 L93.5355661,32.2347226 L88.5290459,32.3783548 L97.0636222,36.5332965 C97.0636222,36.5332965 105.02585,35.6733372 102.16533,21.8712051" id="Fill-136" fill="#004B1C"></path>
                    <path d="M101.616718,49.7904211 C101.616718,41.2116093 108.402521,34.434617 117.007268,34.434617 C125.612015,34.434617 132.622973,41.2116093 132.622973,49.7904211 L132.622973,78.9605813 C132.622973,87.5393931 125.612015,94.5682001 117.007268,94.5682001 C108.402521,94.5682001 101.616718,87.5393931 101.616718,78.9605813 L101.616718,49.7904211 Z" id="Fill-138" fill="#004B1C"></path>
                    <path d="M106.827954,188.680523 L111.34572,188.680523 C113.839523,184.266453 119.050453,181.051982 125.162007,181.051982 C126.061412,181.051982 126.961426,181.252006 127.86144,181.452029 C126.061412,179.053915 124.69339,176.238407 124.69339,173.040741 L124.69339,144.775624 C124.69339,140.961624 128.330668,137.946635 132.622668,137.946635 C136.915889,137.946635 140.534252,140.961624 140.534252,144.775624 L140.534252,194.693155 L103.434747,194.693155 L103.434747,191.678708 C103.434747,190.079604 105.00962,188.680523 106.827954,188.680523" id="Fill-140" fill="#004B1C"></path>
                    <path d="M129.904503,188.680523 L134.441185,188.680523 C136.916072,184.266453 142.127613,181.051982 148.238557,181.051982 C149.139182,181.051982 150.038586,181.252006 150.956905,181.452029 C148.913415,179.053915 147.788855,176.238407 147.788855,173.040741 L147.788855,144.775624 C147.788855,140.961624 151.407218,137.946635 155.700438,137.946635 C160.011354,137.946635 163.629717,140.961624 163.629717,144.775624 L163.629717,194.693155 L126.511907,194.693155 L126.511907,191.678708 C126.511907,190.079604 128.105085,188.680523 129.904503,188.680523" id="Fill-142" fill="#0E6D0E"></path>
                    <path d="M105.009314,132.98882 C105.009314,153.102821 121.075332,169.140114 141.22772,169.140114 C161.136647,169.140114 177.430261,153.102821 177.430261,132.98882 L177.430261,102.696496 C177.430261,82.8074168 161.136647,66.5274774 141.22772,66.5274774 C121.075332,66.5274774 105.009314,82.8074168 105.009314,102.696496 L105.009314,132.98882 Z" id="Fill-144" fill="#004B1C"></path>
                    <path d="M137.366201,116.480475 C137.366201,117.380774 138.059365,118.060429 138.959379,118.060429 C139.858783,118.060429 140.533641,117.380774 140.533641,116.480475 C140.533641,115.579566 139.858783,114.679267 138.959379,114.679267 C138.059365,114.679267 137.366201,115.579566 137.366201,116.480475" id="Fill-146" fill="#0E6D0E"></path>
                    <path d="M110.670679,116.480475 C110.670679,117.380774 111.571303,118.060429 112.489013,118.060429 C113.389027,118.060429 114.063885,117.380774 114.063885,116.480475 C114.063885,115.579566 113.389027,114.679267 112.489013,114.679267 C111.571303,114.679267 110.670679,115.579566 110.670679,116.480475" id="Fill-148" fill="#0E6D0E"></path>
                    <polygon id="Fill-150" fill="#004B1C" points="147.78916 168.689904 163.630022 184.746144 163.630022 158.304994 146.87023 163.731844"></polygon>
                    <polygon id="Fill-152" fill="#0E6D0E" points="141.677605 81.4413224 166.797462 81.4413224 166.797462 62.6799085 141.677605 62.6799085"></polygon>
                    <polygon id="Fill-154" fill="#0E6D0E" points="155.700255 75.8008575 145.970338 85.737757 158.418604 85.737757"></polygon>
                    <polygon id="Fill-155" fill="#0E6D0E" points="177.429956 89.8135483 148.013828 89.8135483 177.429956 123.03658"></polygon>
                    <path d="M154.135756,72.5908931 C154.135756,67.3761295 153.178995,62.7035008 167.939229,62.7035008 C173.158702,62.7035008 177.433007,66.8229929 177.433007,72.0377565 L177.433007,89.7686862 C177.433007,94.9834498 173.158702,99.255742 167.939229,99.255742 C162.710604,99.255742 155.279842,95.5714247 155.279842,90.3572724 L154.135756,72.5908931 Z" id="Fill-156" fill="#0E6D0E"></path>
                    <path d="M110.445889,67.1993702 C110.445889,68.5580692 111.571059,69.4583677 112.714535,69.4583677 C113.839095,69.4583677 114.73911,68.5580692 114.73911,67.1993702 C114.73911,66.0772059 113.839095,65.1769074 112.714535,65.1769074 C111.571059,65.1769074 110.445889,66.0772059 110.445889,67.1993702" id="Fill-157" fill="#FFFFFF"></path>
                    <path d="M95.9549876,67.1993702 C95.9549876,68.5580692 96.8733073,69.4583677 98.2236338,69.4583677 C99.348194,69.4583677 100.266514,68.5580692 100.266514,67.1993702 C100.266514,66.0772059 99.348194,65.1769074 98.2236338,65.1769074 C96.8733073,65.1769074 95.9549876,66.0772059 95.9549876,67.1993702" id="Fill-158" fill="#FFFFFF"></path>
                    <path d="M139.634237,78.9606424 C141.902884,78.9606424 143.702302,79.6323519 143.702302,77.3806889 L143.702302,66.2990106 C143.702302,64.2765478 141.902884,62.452114 139.634237,62.452114 C137.366201,62.452114 135.791329,64.2765478 135.791329,66.2990106 L135.791329,72.1830389 C135.791329,74.4347019 137.366201,76.2511901 139.634237,76.2511901 L139.634237,78.9606424 Z" id="Fill-159" fill="#0E6D0E"></path>
                    <polygon id="Fill-160" fill="#0E6D0E" points="153.900837 80.0825012 144.17092 89.813426 160.011781 89.813426"></polygon>
                    <polygon id="Fill-161" fill="#0E6D0E" points="167.701076 105.848763 157.968108 115.579688 173.811411 115.579688"></polygon>
                    <path d="M117.709157,100.736681 L117.709157,100.736681 C104.842308,100.736681 94.314887,90.191637 94.314887,77.3032498 L94.314887,32.98326 C94.314887,20.0942616 104.842308,9.54921747 117.709157,9.54921747 L117.709157,9.54921747 C130.576005,9.54921747 141.103427,20.0942616 141.103427,32.98326 L141.103427,77.3032498 C141.103427,90.191637 130.576005,100.736681 117.709157,100.736681" id="Fill-162" fill="#0E6D0E"></path>
                    <path d="M134.759394,25.2769983 C134.759394,25.2769983 130.964689,33.639445 138.174567,37.4405016 C138.174567,37.4405016 164.358576,26.4174986 154.112447,0.37974146 C154.112447,0.37974146 152.405166,23.3761644 134.759394,25.2769983" id="Fill-163" fill="#E81123"></path>
                    <path d="M126.70454,76.6151601 C126.70454,81.971111 119.702734,86.312469 111.065648,86.312469 C102.429172,86.312469 95.4273657,81.971111 95.4273657,76.6151601 C95.4273657,71.2592092 102.429172,75.8694954 111.065648,75.8694954 C119.702734,75.8694954 126.70454,71.2592092 126.70454,76.6151601" id="Fill-164" fill="#AC2890"></path>
                    <path d="M120.821437,79.2079953 C120.821437,81.7799275 116.353705,83.865344 110.842566,83.865344 C105.331428,83.865344 100.863696,81.7799275 100.863696,79.2079953 C100.863696,76.6360632 105.331428,78.8498318 110.842566,78.8498318 C116.353705,78.8498318 120.821437,76.6360632 120.821437,79.2079953" id="Fill-165" fill="#8E1C79"></path>
                    <path d="M117.518415,64.6629488 C117.518415,66.4568226 116.066799,67.9102577 114.276533,67.9102577 C112.485657,67.9102577 111.034041,66.4568226 111.034041,64.6629488 C111.034041,62.8690751 112.485657,61.41564 114.276533,61.41564 C116.066799,61.41564 117.518415,62.8690751 117.518415,64.6629488" id="Fill-166" fill="#F2F2F2"></path>
                    <path d="M106.896477,64.6629488 C106.896477,66.4568226 105.44486,67.9102577 103.654595,67.9102577 C101.863719,67.9102577 100.412102,66.4568226 100.412102,64.6629488 C100.412102,62.8690751 101.863719,61.41564 103.654595,61.41564 C105.44486,61.41564 106.896477,62.8690751 106.896477,64.6629488" id="Fill-167" fill="#F2F2F2"></path>
                    <path d="M132.823356,24.5456967 L139.30773,20.5337759 L137.257528,24.3543909 C137.257528,24.3543909 140.118048,25.4533296 139.880079,25.8830037 C139.641498,26.3126777 138.258832,27.6976583 138.258832,27.6976583 L140.309035,27.602311 L138.258832,30.3722721 L142.645411,29.5605977 L140.404222,33.7155395 L142.502019,33.5242337 L141.45312,34.9092142 L146.459641,35.0528464 L137.925064,39.2077881 C137.925064,39.2077881 129.962836,38.3478289 132.823356,24.5456967" id="Fill-168" fill="#004B1C"></path>
                    <path d="M117.574368,75.159647 L120.535568,79.0120444 L121.762028,74.2941869 C121.031644,74.4323183 120.331158,74.5600592 119.743555,74.6920785 C118.821575,74.8992755 118.487807,75.010514 117.574368,75.159647" id="Fill-169" fill="#F2F2F2"></path>
                    <path d="M104.088859,75.0959599 L101.12766,78.9483573 L99.9011994,74.2304998 C100.631584,74.3686311 101.33207,74.4963721 101.919672,74.6283914 C102.841653,74.8355884 103.175421,74.9468269 104.088859,75.0959599" id="Fill-170" fill="#F2F2F2"></path>
                    <path d="M230.947491,197.761172 L230.947491,195.675755 C230.947491,153.485188 197.803778,119.47493 156.648413,119.47493 L150.88405,119.47493 C109.728684,119.47493 76.5849714,153.485188 76.5849714,195.675755 L76.5849714,197.761172 L230.947491,197.761172 Z" id="Fill-171" fill="#DDC997"></path>
                    <path d="M112.951102,156.83524 C114.706587,157.752652 116.909334,156.893304 117.822162,155.141603 C117.822162,155.141603 117.823993,155.137325 119.72287,151.492735 C120.270201,153.301889 121.034755,155.828593 122.1044,159.364999 C122.85431,161.262777 124.820917,162.290817 126.804,161.821415 C128.594876,161.268278 129.714554,159.119297 129.142816,157.331535 C129.142816,157.331535 129.140986,157.327256 126.449486,148.782061 C126.953494,148.829734 127.456891,148.865184 127.960289,148.889021 C128.54057,150.73118 129.457059,153.642939 130.909285,158.255059 C131.46943,160.036709 133.629464,161.165596 135.424611,160.614905 C137.214267,160.036098 138.333335,157.887116 137.773801,156.106078 C137.773801,156.106078 137.77197,156.099966 135.337966,148.370723 C135.712616,148.299823 136.086656,148.224646 136.458865,148.1403 C136.804226,149.282023 137.194741,150.571045 137.639562,152.03976 C138.393743,153.92348 140.35913,154.950297 142.349535,154.501676 C144.231327,153.743787 145.253988,151.78 144.695064,149.998961 C144.695064,149.998961 144.693233,149.992849 143.349008,145.733392 C149.288492,142.85586 154.374946,138.119055 157.637574,131.855471 C159.116038,129.017667 159.845813,126.597923 159.970289,124.482558 L167.67014,109.700671 L169.509831,106.170377 L180.834756,84.4299711 C184.705733,76.9983829 181.804331,67.7344153 174.351602,63.8392338 C166.913518,59.9513867 157.649168,62.8570344 153.778191,70.2886226 C153.778191,70.2886226 153.769038,70.3057362 142.453265,92.0284171 C142.453265,92.0284171 142.448384,92.0375851 140.614185,95.559323 C139.620813,97.4662689 138.086823,100.410422 135.72665,104.941864 C134.038894,108.181227 131.934386,112.220652 129.29231,117.292394 C122.970854,129.428394 119.386661,136.308068 117.357816,140.202638 C114.706587,145.292717 114.705977,145.293939 114.705977,145.293939 C113.872472,146.893451 112.780251,148.989869 111.340839,151.753718 C110.428011,153.50603 111.182192,155.910493 112.951102,156.83524" id="Fill-172" fill="#0E6D0E"></path>
                </g>
            </g>
        </g>
    </g>
</svg>