<?xml version="1.0" encoding="UTF-8"?>
<svg width="72px" height="36px" viewBox="0 0 72 36" version="1.1" xmlns="http://www.w3.org/2000/svg" xmlns:xlink="http://www.w3.org/1999/xlink">
    <!-- Generator: Sketch 41.2 (35397) - http://www.bohemiancoding.com/sketch -->
    <title>flag</title>
    <desc>Created with Sketch.</desc>
    <defs></defs>
    <g id="Page-1" stroke="none" stroke-width="1" fill="none" fill-rule="evenodd">
        <g id="flag">
            <g id="Group">
                <rect id="Rectangle-path" fill="#FFFFFF" x="0.246153846" y="0" width="71.5384615" height="35.7538462"></rect>
                <polyline id="Shape" fill="#D21D23" points="71.7846154 14.3076923 39.6 14.3076923 39.6 0 32.4615385 0 32.4615385 14.3076923 0.246153846 14.3076923 0.246153846 21.4461538 32.4615385 21.4461538 32.4615385 35.7538462 39.6 35.7538462 39.6 21.4461538 71.7846154 21.4461538"></polyline>
                <path d="M47.9384615,23.8461538 L53.2615385,23.8461538 L71.7846154,33.1076923 L71.7846154,35.7846154 L47.9384615,23.8461538 Z M24.0923077,11.9076923 L18.7692308,11.9076923 L0.246153846,2.64615385 L0.246153846,0 L24.0923077,11.9076923 Z M24.0923077,23.8461538 L29.4153846,23.8461538 L5.56923077,35.7846154 L0.246153846,35.7846154 L24.0923077,23.8461538 Z M47.9384615,11.9076923 L42.6153846,11.9076923 L66.4615385,0 L71.7846154,0 L47.9384615,11.9076923 Z" id="Shape" fill="#D21D23"></path>
                <path d="M0.246153846,23.8461538 L0.246153846,31.7846154 L16.0923077,23.8461538 L0.246153846,23.8461538 Z M71.7846154,23.8461538 L71.7846154,31.7846154 L55.9384615,23.8461538 L71.7846154,23.8461538 Z M0.246153846,11.9076923 L0.246153846,4 L16.0923077,11.9384615 L0.246153846,11.9384615 L0.246153846,11.9076923 Z M71.7846154,11.9076923 L71.7846154,4 L55.9384615,11.9384615 L71.7846154,11.9384615 L71.7846154,11.9076923 Z M30.0615385,35.7538462 L30.0615385,24.8615385 L8.24615385,35.7538462 L30.0615385,35.7538462 Z M42,35.7538462 L42,24.8615385 L63.8153846,35.7538462 L42,35.7538462 Z M30.0615385,0 L30.0615385,10.8923077 L8.24615385,0 L30.0615385,0 Z M42,0 L42,10.8923077 L63.7846154,0 L42,0 Z" id="Shape" fill="#00305C"></path>
            </g>
        </g>
    </g>
</svg>