<?xml version="1.0" encoding="UTF-8"?>
<svg width="291px" height="98px" viewBox="0 0 291 98" version="1.1" xmlns="http://www.w3.org/2000/svg" xmlns:xlink="http://www.w3.org/1999/xlink">
    <!-- Generator: Sketch 41.2 (35397) - http://www.bohemiancoding.com/sketch -->
    <title>Page 1</title>
    <desc>Created with Sketch.</desc>
    <defs>
        <polygon id="path-1" points="285.50975 0.264824427 0.104394355 0.264824427 0.104394355 40.2527145 285.50975 40.2527145 285.50975 0.264824427"></polygon>
        <polygon id="path-3" points="0 97.8825496 290.461388 97.8825496 290.461388 0.895465649 0 0.895465649"></polygon>
    </defs>
    <g id="Page-1" stroke="none" stroke-width="1" fill="none" fill-rule="evenodd">
        <g id="4.1_Desktop_Conversations_P1" transform="translate(-1083.000000, -604.000000)">
            <g id="Pod-3" transform="translate(1053.000000, 495.000000)">
                <g id="Page-1" transform="translate(30.000000, 109.000000)">
                    <path d="M51.5515851,33.0773191 L78.6908884,33.0773191 C81.3817033,33.0773191 83.4748087,35.3178534 83.4748087,38.0244489 L83.4748087,44.1984489 C83.4748087,46.9050443 81.3817033,49.0026931 78.6908884,49.0026931 L51.5515851,49.0026931 C48.859274,49.0026931 46.7646725,46.9050443 46.7646725,44.1984489 L46.7646725,38.0244489 C46.7646725,35.3178534 48.859274,33.0773191 51.5515851,33.0773191 L51.5515851,33.0773191 Z" id="Fill-1" fill="#A80000"></path>
                    <g id="Group-5" transform="translate(0.000000, 0.630641)">
                        <mask id="mask-2" fill="white">
                            <use xlink:href="#path-1"></use>
                        </mask>
                        <g id="Clip-4"></g>
                        <path d="M174.450236,0.1176 C91.1224982,0.1176 1.19676555,7.1736 1.19676555,7.1736 C1.19676555,7.1736 -1.04745039,26.8813252 0.897536761,40.2527145 L282.358123,40.2527145 L285.50975,0.1176 L174.450236,0.1176 Z" id="Fill-3" fill="#585858" mask="url(#mask-2)"></path>
                    </g>
                    <mask id="mask-4" fill="white">
                        <use xlink:href="#path-3"></use>
                    </mask>
                    <g id="Clip-7"></g>
                    <polygon id="Fill-6" fill="#616161" mask="url(#mask-4)" points="284.612961 12.4721832 290.599033 12.4721832 290.599033 10.9632824 284.612961 10.9632824"></polygon>
                    <path d="M254.032826,93.8164473 C249.831654,97.570371 246.689004,97.8703557 235.30634,97.8703557 C223.756857,97.8703557 197.083603,89.3017145 190.637466,87.043974 C184.190582,84.6493328 174.449937,84.038142 174.449937,63.7454092 C174.449937,56.9721878 175.195016,48.8531496 176.244561,40.8829817 L250.890924,40.8829817 C251.792351,41.4919282 252.690037,42.241516 253.435117,42.8399893 C255.081623,44.1985237 256.728878,45.3999588 258.538464,46.6058824 C265.420726,51.2605084 272.916407,55.1767679 280.857939,58.1826 C288.352872,43.2910885 290.451214,29.7573634 290.598585,19.5436687 C290.750443,37.2794244 285.21097,66.1527679 254.032826,93.8164473" id="Fill-8" fill="#A8A8A8" mask="url(#mask-4)"></path>
                    <path d="M227.512029,12.4724824 L181.494381,12.4724824 C179.700504,20.1419176 177.754769,30.5179481 176.244412,40.8835053 L250.890774,40.8835053 C241.590743,33.0771695 233.643975,23.4462382 227.512029,12.4724824" id="Fill-9" fill="#4A4A4A" mask="url(#mask-4)"></path>
                    <polygon id="Fill-10" fill="#000000" mask="url(#mask-4)" points="42.1127121 40.8832061 43.7584704 40.8832061 43.7584704 5.09974046 42.1127121 5.09974046"></polygon>
                    <polygon id="Fill-11" fill="#898989" mask="url(#mask-4)" points="40.4662057 40.8832061 42.2615784 40.8832061 42.2615784 5.09974046 40.4662057 5.09974046"></polygon>
                    <path d="M290.59836,19.5435191 C290.45099,29.7572137 288.353396,43.2909389 280.857715,58.1824504 C272.916183,55.1766183 265.420502,51.2603588 258.538239,46.6057328 C256.728653,45.3998092 255.082147,44.198374 253.434892,42.8398397 C252.689813,42.2421145 251.792874,41.4917786 250.890699,40.8835802 L259.135949,40.8835802 L282.357599,40.8835802 L284.613036,12.4725573 L290.147273,12.4725573 C290.45099,14.5761908 290.59836,16.9835496 290.59836,19.5435191" id="Fill-12" fill="#818181" mask="url(#mask-4)"></path>
                    <path d="M253.434743,42.8399893 L249.532799,83.2900504 L254.934627,83.2900504 L258.53809,46.6058824 C256.729252,45.3999588 255.081997,44.1985237 253.434743,42.8399893" id="Fill-13" fill="#B2B2B2" mask="url(#mask-4)"></path>
                    <path d="M259.136248,40.8833557 L253.733672,40.8833557 L253.434443,42.8403634 C255.081698,44.1981496 256.728952,45.3995847 258.538539,46.6062565 L259.136248,40.8833557 Z" id="Fill-14" fill="#8D8D8D" mask="url(#mask-4)"></path>
                    <path d="M290.59836,10.9620107 L290.147273,10.9620107 C290.299131,11.4235832 290.299131,12.0213084 290.299131,12.4724076 L290.59836,12.4724076 L290.59836,10.9620107 Z" id="Fill-15" fill="#929292" mask="url(#mask-4)"></path>
                    <path d="M290.147273,10.9620107 L289.999903,10.9620107 C289.999903,11.4235832 290.147273,12.0213084 290.147273,12.4724076 L290.299131,12.4724076 C290.299131,12.0213084 290.299131,11.4235832 290.147273,10.9620107" id="Fill-16" fill="#757575" mask="url(#mask-4)"></path>
                    <path d="M183.440789,0.748241221 L288.353396,0.748241221 C288.353396,0.748241221 290.45099,6.75990534 290.45099,10.9619359 L181.494306,10.9619359 L183.440789,0.748241221 Z" id="Fill-17" fill="#585858" mask="url(#mask-4)"></path>
                    <polygon id="Fill-18" fill="#717171" mask="url(#mask-4)" points="181.49468 10.9620107 183.441163 0.748316031 216.113955 0.748316031 216.113955 10.9620107"></polygon>
                    <polygon id="Fill-19" fill="#898989" mask="url(#mask-4)" points="181.49468 10.9620107 183.441163 0.748316031 194.68693 0.748316031 194.68693 10.9620107"></polygon>
                    <path d="M284.613036,12.4724824 L227.511954,12.4724824 C233.644648,23.4462382 241.590669,33.0771695 250.890699,40.8835053 L253.734121,40.8835053 L259.135949,40.8835053 L282.357599,40.8835053 L284.613036,12.4724824 Z" id="Fill-20" fill="#515151" mask="url(#mask-4)"></path>
                    <path d="M220.462423,17.8860473 L198.878302,17.8860473 C194.387626,17.8860473 190.784163,21.6369786 190.784163,26.1532076 C190.784163,30.6694366 194.387626,34.273742 198.878302,34.273742 L220.462423,34.273742 C224.953099,34.273742 228.70842,30.6694366 228.70842,26.1532076 C228.70842,21.6369786 224.953099,17.8860473 220.462423,17.8860473" id="Fill-21" fill="#231F1F" mask="url(#mask-4)"></path>
                    <path d="M220.163419,20.5877053 C217.158413,20.5877053 214.766079,23.1476748 214.766079,26.1535069 C214.766079,29.1593389 217.158413,31.5666977 220.163419,31.5666977 C223.310557,31.5666977 225.712616,29.1593389 225.712616,26.1535069 C225.712616,23.1476748 223.310557,20.5877053 220.163419,20.5877053" id="Fill-22" fill="#3D3D3D" mask="url(#mask-4)"></path>
                    <path d="M199.176932,20.5877053 C196.186889,20.5877053 193.790066,23.1476748 193.790066,26.1535069 C193.790066,29.1593389 196.186889,31.5666977 199.176932,31.5666977 C202.181938,31.5666977 204.72613,29.1593389 204.72613,26.1535069 C204.72613,23.1476748 202.181938,20.5877053 199.176932,20.5877053" id="Fill-23" fill="#3D3D3D" mask="url(#mask-4)"></path>
                    <path d="M220.163419,27.810829 C219.26648,27.810829 218.521401,27.0507679 218.521401,26.153058 C218.521401,25.2560962 219.26648,24.4960351 220.163419,24.4960351 C221.065593,24.4960351 221.810673,25.2560962 221.810673,26.153058 C221.810673,27.0507679 221.065593,27.810829 220.163419,27.810829" id="Fill-24" fill="#231F1F" mask="url(#mask-4)"></path>
                    <path d="M199.176932,27.810829 C198.279994,27.810829 197.529678,27.0507679 197.529678,26.153058 C197.529678,25.2560962 198.279994,24.4960351 199.176932,24.4960351 C200.073871,24.4960351 200.824187,25.2560962 200.824187,26.153058 C200.824187,27.0507679 200.073871,27.810829 199.176932,27.810829" id="Fill-25" fill="#231F1F" mask="url(#mask-4)"></path>
                    <path d="M181.793759,10.9620107 L180.744962,10.9620107 L180.744962,12.4724076 L181.494531,12.4724076 C181.494531,12.0213084 181.646389,11.4235832 181.793759,10.9620107" id="Fill-26" fill="#2E2E2E" mask="url(#mask-4)"></path>
                    <path d="M226.615016,10.9620107 L181.793535,10.9620107 C181.646913,11.4235832 181.495054,12.0213084 181.495054,12.4724076 L227.511954,12.4724076 C227.212725,12.0213084 226.914244,11.4235832 226.615016,10.9620107" id="Fill-27" fill="#363636" mask="url(#mask-4)"></path>
                    <path d="M284.613036,10.9620107 L226.615016,10.9620107 C226.914244,11.4235832 227.212725,12.0213084 227.511954,12.4724076 L284.613036,12.4724076 L284.613036,10.9620107 Z" id="Fill-28" fill="#484848" mask="url(#mask-4)"></path>
                </g>
            </g>
        </g>
    </g>
</svg>