<?xml version="1.0" encoding="UTF-8"?>
<svg width="374px" height="158px" viewBox="0 0 374 158" version="1.1" xmlns="http://www.w3.org/2000/svg" xmlns:xlink="http://www.w3.org/1999/xlink">
    <!-- Generator: Sketch 41.2 (35397) - http://www.bohemiancoding.com/sketch -->
    <title>Group 10</title>
    <desc>Created with Sketch.</desc>
    <defs>
        <polygon id="path-1" points="0.158028169 0.0269236279 0.158028169 81.5594112 115.356096 81.5594112 115.356096 0.0269236279 0.158028169 0.0269236279"></polygon>
    </defs>
    <g id="Page-1" stroke="none" stroke-width="1" fill="none" fill-rule="evenodd">
        <g id="4.1a_Desktop_Conversations_Filter" transform="translate(-91.000000, -554.000000)">
            <g id="Pod-1" transform="translate(0.000000, 495.000000)">
                <g id="Group-10" transform="translate(91.000000, 60.000000)">
                    <g id="Group-3" transform="translate(0.000000, 52.591408)">
                        <mask id="mask-2" fill="white">
                            <use xlink:href="#path-1"></use>
                        </mask>
                        <g id="Clip-2"></g>
                        <path d="M97.5639577,75.3153837 C96.8212254,78.8107681 93.3656761,81.5594112 89.8943239,81.5594112 L4.84356338,81.5594112 C1.38801408,81.5594112 -0.587338028,78.8107681 0.155394366,75.3153837 L17.6965211,6.27095109 C18.7026338,2.77556676 22.1581831,0.0269236279 25.6137324,0.0269236279 L110.416915,0.0269236279 C113.893535,0.0269236279 116.10593,2.77556676 115.120887,6.27095109 L97.5639577,75.3153837 Z" id="Fill-1" fill="#A2A2A2" mask="url(#mask-2)"></path>
                    </g>
                    <path d="M265.690127,139.630629 C265.942972,141.367729 264.952662,142.877099 263.224887,142.877099 L41.4481549,142.877099 C39.4728028,142.877099 37.7239577,141.367729 37.2288028,139.630629 L3.3633662,3.51188909 C2.86821127,1.5311713 4.10083099,0.0165047572 5.82860563,0.0165047572 L227.626408,0.0165047572 C229.354183,0.0165047572 231.324268,1.5311713 231.577113,3.51188909 L265.690127,139.630629 Z" id="Fill-4" fill="#424242"></path>
                    <path d="M265.690127,139.630629 C265.942972,141.367729 264.952662,142.877099 263.224887,142.877099 L41.4481549,142.877099 C39.4728028,142.877099 37.7239577,141.367729 37.2288028,139.630629 L3.3633662,3.51188909 C2.86821127,1.5311713 4.10083099,0.0165047572 5.82860563,0.0165047572 L227.626408,0.0165047572 C229.354183,0.0165047572 231.324268,1.5311713 231.577113,3.51188909 L265.690127,139.630629 L265.690127,139.630629 Z" id="Stroke-6" stroke="#BBBBBB" stroke-width="0.332"></path>
                    <polygon id="Fill-8" fill="#E81123" points="219.216676 17.2175029 23.3934366 17.2175029 49.5892394 124.414585 245.417746 124.414585"></polygon>
                    <polygon id="Fill-10" fill="#1E1E1E" points="169.51787 37.6713269 28.5725465 37.6713269 49.590293 124.409819 190.535617 124.409819"></polygon>
                    <path d="M45.1481211,51.8726497 C45.8855859,54.3776752 44.4053887,56.358393 41.9401493,56.358393 C39.4696423,56.358393 37.2309099,54.3776752 36.4881775,51.8726497 C35.9982901,49.6430182 37.4784873,47.6358202 39.7172197,47.6358202 C42.1877268,47.6358202 44.6529662,49.6430182 45.1481211,51.8726497" id="Fill-12" fill="#A2A2A2"></path>
                    <polygon id="Fill-14" fill="#0078D7" points="96.0848141 46.1502819 112.656701 46.1502819 116.359828 60.8467842 99.7879408 60.8467842"></polygon>
                    <polygon id="Fill-16" fill="#0078D7" points="64.6830366 62.0913529 81.2549239 62.0913529 84.9633183 76.8143354 68.3861634 76.8143354"></polygon>
                    <polygon id="Fill-18" fill="#0078D7" points="100.029197 62.0913529 116.61162 62.0913529 120.061901 76.8143354 103.505817 76.8143354"></polygon>
                    <polygon id="Fill-20" fill="#0078D7" points="82.2441803 62.0913529 98.8002648 62.0913529 102.519194 76.8143354 85.947307 76.8143354"></polygon>
                    <polygon id="Fill-22" fill="#00BCF2" points="68.631107 78.0530784 85.2029944 78.0530784 88.9061211 92.7548767 72.3553042 92.7548767"></polygon>
                    <polygon id="Fill-24" fill="#5C2D91" points="103.998865 78.0530784 120.302104 78.0530784 124.031569 92.7548767 107.459682 92.7548767"></polygon>
                    <polygon id="Fill-26" fill="#0078D7" points="86.1896169 78.0530784 102.772039 78.0530784 106.222321 92.7548767 89.6504338 92.7548767"></polygon>
                    <polygon id="Fill-28" fill="#0078D7" points="60.9809634 46.1502819 94.8464 46.1502819 98.5495268 61.100994 64.4365127 61.100994"></polygon>
                    <polygon id="Fill-30" fill="#0078D7" points="151.951459 46.1502819 168.533882 46.1502819 171.984163 60.8467842 155.680924 60.8467842"></polygon>
                    <polygon id="Fill-32" fill="#107C10" points="120.553896 62.0913529 137.125783 62.0913529 140.82891 76.8143354 124.272825 76.8143354"></polygon>
                    <polygon id="Fill-34" fill="#E81123" points="138.111879 62.0913529 172.477738 62.0913529 175.954358 76.8143354 141.815006 76.8143354"></polygon>
                    <polygon id="Fill-36" fill="#0078D7" points="124.523563 78.0530784 141.079648 78.0530784 144.556268 92.7548767 128.22669 92.7548767"></polygon>
                    <polygon id="Fill-38" fill="#D83B01" points="159.622673 78.0530784 176.194561 78.0530784 179.897687 92.7548767 163.3258 92.7548767"></polygon>
                    <polygon id="Fill-40" fill="#00188F" points="142.06469 78.0530784 158.636577 78.0530784 162.086859 92.7548767 145.54131 92.7548767"></polygon>
                    <polygon id="Fill-42" fill="#107C10" points="116.851823 46.1502819 133.42371 46.1502819 136.884527 60.8467842 120.302104 60.8467842"></polygon>
                    <polygon id="Fill-44" fill="#0078D7" points="134.167496 46.1502819 150.72358 46.1502819 154.44251 60.8467842 137.870623 60.8467842"></polygon>
                    <polygon id="Fill-46" fill="#00BCF2" points="47.3684169 66.0829759 41.2000507 66.0829759 39.7198535 59.6112188 45.8882197 59.6112188"></polygon>
                    <polygon id="Fill-48" fill="#0078D7" points="49.3421887 73.5668055 43.1738225 73.5668055 41.4460479 67.3439622 47.8619915 67.3439622"></polygon>
                    <polygon id="Fill-50" fill="#00188F" points="51.090507 81.299549 44.9010704 81.299549 43.4208732 75.0555215 49.5892394 75.0555215"></polygon>
                    <polygon id="Fill-52" fill="#0078D7" points="53.0642789 89.0126971 46.8748423 89.0126971 45.3946451 82.7898538 51.5840817 82.7898538"></polygon>
                    <polygon id="Fill-54" fill="#0078D7" points="54.7920535 96.7454405 48.6026169 96.7454405 47.1224197 90.5225972 53.3118563 90.5225972"></polygon>
                    <polygon id="Fill-56" fill="#585858" points="78.2750394 44.3935865 60.4863352 44.3935865 59.9753775 42.6564864 78.027462 42.6564864"></polygon>
                    <polygon id="Fill-58" fill="#585858" points="134.167496 44.3935865 116.357721 44.3935865 115.867834 42.6564864 133.914651 42.6564864"></polygon>
                    <polygon id="Fill-60" fill="#585858" points="54.2979521 105.471191 50.8424028 105.471191 49.8573606 101.975807 53.3129099 101.975807"></polygon>
                    <polygon id="Fill-62" fill="#585858" points="55.2851014 109.710668 51.8295521 109.710668 51.0920873 106.215284 54.5476366 106.215284"></polygon>
                    <polygon id="Fill-64" fill="#585858" points="56.2727775 113.949616 52.8172282 113.949616 52.0797634 110.454232 55.5300451 110.454232"></polygon>
                    <polygon id="Fill-66" fill="#BBBBBB" points="241.462828 59.612278 235.278659 60.8462546 236.263701 65.3372939 242.700715 66.0840351"></polygon>
                    <path d="M33.5293634,124.412467 L37.4748,140.125808 C37.9699549,141.862908 39.4712225,142.879747 40.9514197,142.879747 L115.372152,142.879747 L64.6819831,128.649296 L33.5293634,124.412467 Z" id="Fill-68" fill="#870000"></path>
                    <polygon id="Fill-70" fill="#000000" points="243.443975 116.20308 47.6154676 116.20308 49.5908197 124.411937 245.414059 124.411937"></polygon>
                    <polygon id="Fill-72" fill="#585858" points="107.458628 124.412467 49.5887127 124.412467 47.6133606 116.20361 105.478008 116.20361"></polygon>
                    <polygon id="Fill-74" fill="#FFFFFF" points="57.2599268 117.94018 52.8193352 118.686921 53.5568 122.17701 58.4925465 122.674837"></polygon>
                    <path d="M126.002707,120.442028 C126.255552,121.432387 125.507552,122.428042 124.274932,122.428042 C123.042313,122.428042 121.788623,121.432387 121.541045,120.442028 C121.298735,119.181571 122.0362,118.185916 123.284623,118.185916 C124.52251,118.185916 125.760397,119.181571 126.002707,120.442028" id="Fill-76" fill="#0078D7"></path>
                    <path d="M115.372679,120.442028 C115.614989,121.432387 114.877524,122.428042 113.644904,122.428042 C112.412285,122.428042 111.153327,121.432387 110.911017,120.442028 C110.658172,119.181571 111.400904,118.185916 112.654594,118.185916 C113.892482,118.185916 115.119834,119.181571 115.372679,120.442028" id="Fill-78" fill="#585858"></path>
                    <polygon id="Fill-80" fill="#FFB900" points="137.619358 122.426982 132.420231 122.426982 131.182344 118.190153 136.634315 118.190153"></polygon>
                    <polygon id="Fill-82" fill="#FFFFFF" points="148.006549 122.426982 143.31838 122.426982 142.06469 118.190153 147.021507 118.190153"></polygon>
                    <path d="M372.024648,156.585891 L159.381944,156.585891 C158.144056,156.585891 156.906169,156.585891 155.921127,156.336977 L33.5283099,124.412467 L261.989634,124.412467 L372.519803,153.090506 C374.489887,153.588334 373.994732,156.585891 372.024648,156.585891" id="Fill-84" fill="#A80000"></path>
                    <path d="M295.114972,150.837572 L231.081958,150.837572 C230.59207,150.837572 230.096915,150.837572 229.607028,150.588659 L192.749592,140.12369 C192.259704,139.880072 192.259704,139.133331 193.002437,139.133331 L256.540296,139.133331 L258.041563,139.133331 L295.114972,149.847213 C295.857704,150.090831 295.610127,150.837572 295.114972,150.837572" id="Fill-86" fill="#870000"></path>
                </g>
            </g>
        </g>
    </g>
</svg>