<?xml version="1.0" encoding="UTF-8"?>
<svg width="411px" height="134px" viewBox="0 0 411 134" version="1.1" xmlns="http://www.w3.org/2000/svg" xmlns:xlink="http://www.w3.org/1999/xlink">
    <!-- Generator: Sketch 41.2 (35397) - http://www.bohemiancoding.com/sketch -->
    <title>Group 22</title>
    <desc>Created with Sketch.</desc>
    <defs>
        <polygon id="path-1" points="0 138.705 412.243 138.705 412.243 0.68 0 0.68"></polygon>
    </defs>
    <g id="Page-1" stroke="none" stroke-width="1" fill="none" fill-rule="evenodd">
        <g id="4.1_Desktop_Conversations_P1" transform="translate(-138.000000, -243.000000)">
            <g id="Recommended" transform="translate(0.000000, 145.000000)">
                <g id="Page-1" transform="translate(138.000000, 97.000000)">
                    <g id="Group-22" transform="translate(0.000000, 0.609000)">
                        <path d="M383.2626,92.4025 C383.2626,98.3495 378.5486,102.7975 372.9266,102.7975 C367.3146,102.7975 362.5806,98.3495 362.5806,92.4025 C362.5806,86.7745 367.3146,82.3015 372.9266,82.3015 C378.5486,82.3015 383.2626,86.7745 383.2626,92.4025 L383.2626,92.4025 Z" id="Fill-5" fill="#FFFFFF"></path>
                        <path d="M375.6029,88.2485 C377.0709,87.0685 378.8489,86.1595 380.6159,85.5695 C378.5489,85.2755 375.6029,85.2755 373.2159,86.4545 C370.5599,85.2755 367.9129,85.2755 365.5469,85.5695 C367.3139,86.1595 369.0919,87.0685 370.5599,88.2485 C368.5029,90.6325 366.4349,94.1715 365.5469,99.8245 C365.5469,99.8245 368.7919,94.4915 373.2159,90.3125 C377.6599,94.4915 380.6159,99.8245 380.6159,99.8245 C379.7279,94.1715 377.9599,90.6325 375.6029,88.2485" id="Fill-7" fill="#424242"></path>
                        <polygon id="Fill-9" fill="#424242" points="0.3195 53.8167 0.3195 85.5697 4.7425 90.3127 4.7425 97.1457 0.3195 101.2987 0.3195 133.9617 213.6615 133.9617 213.6615 53.8167"></polygon>
                        <polygon id="Fill-11" fill="#868686" points="213.6616 97.7351 1.4986 97.7351 0.3196 101.2991 213.6616 101.2991"></polygon>
                        <polygon id="Fill-13" fill="#000000" points="213.6616 85.5697 0.3196 85.5697 1.4986 90.3127 213.6616 90.3127"></polygon>
                        <mask id="mask-2" fill="white">
                            <use xlink:href="#path-1"></use>
                        </mask>
                        <g id="Clip-16"></g>
                        <polygon id="Fill-15" fill="#A7A7A7" mask="url(#mask-2)" points="1.499 97.735 213.663 97.735 213.663 90.313 1.499 90.313"></polygon>
                        <polygon id="Fill-17" fill="#000000" mask="url(#mask-2)" points="17.742 96.261 197.689 96.261 197.689 91.813 17.742 91.813"></polygon>
                        <polygon id="Fill-18" fill="#FFFFFF" mask="url(#mask-2)" points="188.8451 96.2609 197.6931 96.2609 197.6931 91.8119"></polygon>
                        <polygon id="Fill-19" fill="#FFFFFF" mask="url(#mask-2)" points="17.742 96.261 20.396 96.261 20.396 91.813 17.742 91.813"></polygon>
                        <polygon id="Fill-20" fill="#424242" mask="url(#mask-2)" points="338.6428 0.3906 73.3018 0.3906 2.3838 49.0736 410.4658 49.0736"></polygon>
                        <polygon id="Fill-21" fill="#000000" mask="url(#mask-2)" points="213.6616 0.3906 73.3016 0.3906 2.3836 49.0736 213.6616 49.0736"></polygon>
                    </g>
                </g>
            </g>
        </g>
    </g>
</svg>