<?xml version="1.0" encoding="UTF-8"?>
<svg width="90px" height="90px" viewBox="0 0 90 90" version="1.1" xmlns="http://www.w3.org/2000/svg" xmlns:xlink="http://www.w3.org/1999/xlink">
    <!-- Generator: Sketch 41.2 (35397) - http://www.bohemiancoding.com/sketch -->
    <title>Group 9</title>
    <desc>Created with Sketch.</desc>
    <defs></defs>
    <g id="4.6_Squads" stroke="none" stroke-width="1" fill="none" fill-rule="evenodd">
        <g id="4.6_Desktop_Community_Stores" transform="translate(-739.000000, -211.000000)">
            <g id="Group-9" transform="translate(739.000000, 211.000000)">
                <circle id="Oval" fill="#FFFFFF" cx="45" cy="45" r="45"></circle>
                <g id="Group-8" transform="translate(33.000000, 13.000000)">
                    <path d="M16.4586135,3.30696222 L16.4586135,3.30696222 C18.7078477,5.45341108 20.722109,7.83793949 22.4978748,10.5816611 C22.8530279,10.3433741 23.0896586,10.224127 23.4450189,9.98438835 L23.4450189,0.207365625 C20.9589468,0.92222642 18.5895324,1.9962804 16.4586135,3.30696222" id="Fill-9" fill="#0082A5"></path>
                    <path d="M0,54.5796943 L0,54.5796943 L0,64.4774159 C2.36775676,63.6416489 4.73551351,62.6885011 6.9861982,61.3761602 C4.61699099,59.2299187 2.60438739,56.845183 0.947144144,54.1029131 C0.591783784,54.3414074 0.236837838,54.4604472 0,54.5796943" id="Fill-12" fill="#1A1C43"></path>
                    <path d="M14.2093793,32.162846 L14.2093793,32.162846 L14.3276946,32.9986131 C14.4462171,38.125204 16.577136,42.8946756 20.2469829,46.353258 C22.3795595,41.9415278 23.4450189,37.0513574 23.4450189,32.162846 C23.4450189,17.3782722 13.8542261,4.50020114 -6.21621621e-05,0.207510795 L-6.21621621e-05,9.98432614 C8.64379369,13.9196898 14.2093793,22.5050705 14.2093793,32.162846" id="Fill-14" fill="#1A1C43"></path>
                    <path d="M3.19637838,18.2124216 L3.19637838,18.2124216 C1.06545946,22.6241517 0,27.5126631 0,32.4011744 C0,42.6564301 4.61699099,52.1949585 12.5503333,58.6340977 L12.6686486,58.7531375 C15.985,61.3763676 19.5365315,63.2843222 23.4448739,64.4774159 L23.4448739,54.5796943 C21.9057387,53.8648335 20.3653604,53.0307256 18.9445405,51.9566716 C12.9069369,47.4256943 9.23563964,40.1526545 9.23563964,32.5204216 L9.11711712,32.2821347 L9.11711712,32.1628875 C9.11711712,26.7978023 6.9861982,21.7902511 3.19637838,18.2124216 Z" id="Fill-17" fill="#0082A5"></path>
                </g>
            </g>
        </g>
    </g>
</svg>