<?xml version="1.0" encoding="UTF-8"?>
<svg width="268px" height="360px" viewBox="0 0 268 360" version="1.1" xmlns="http://www.w3.org/2000/svg" xmlns:xlink="http://www.w3.org/1999/xlink">
    <!-- Generator: Sketch 41.2 (35397) - http://www.bohemiancoding.com/sketch -->
    <title>Page 1</title>
    <desc>Created with Sketch.</desc>
    <defs>
        <polygon id="path-1" points="0.373432389 359.342166 267.548514 359.342166 267.548514 0.364946033 0.373432389 0.364946033"></polygon>
    </defs>
    <g id="4.6_Squads" stroke="none" stroke-width="1" fill="none" fill-rule="evenodd">
        <g id="4.6_Desktop_Community_Stores" transform="translate(-168.000000, -863.000000)">
            <g id="Group-6" transform="translate(96.000000, 837.000000)">
                <g id="Page-1" transform="translate(72.000000, 26.000000)">
                    <path d="M136.56664,183.012284 C136.56664,183.414281 136.200639,183.792194 135.821633,183.792194 C135.455632,183.792194 135.076626,183.414281 135.076626,183.012284 C135.076626,182.647338 135.455632,182.269425 135.821633,182.269425 C136.200639,182.269425 136.56664,182.647338 136.56664,183.012284 L136.56664,183.012284 Z" id="Fill-1" fill="#DCDCDC"></path>
                    <path d="M139.923444,183.012284 C139.923444,183.414281 139.557443,183.792194 139.178437,183.792194 C138.801289,183.792194 138.435288,183.414281 138.435288,183.012284 C138.435288,182.647338 138.801289,182.269425 139.178437,182.269425 C139.557443,182.269425 139.923444,182.647338 139.923444,183.012284" id="Fill-3" fill="#DCDCDC"></path>
                    <path d="M142.9397,183.012284 C142.9397,183.414281 142.9397,183.792194 142.194693,183.792194 C141.815687,183.792194 141.815687,183.414281 141.815687,183.012284 C141.815687,182.647338 141.815687,182.269425 142.194693,182.269425 C142.9397,182.269425 142.9397,182.647338 142.9397,183.012284" id="Fill-5" fill="#DCDCDC"></path>
                    <path d="M260.039737,190.852881 L241.336533,190.852881 C239.103371,190.474968 237.210198,188.248241 237.210198,186.019662 L238.73737,186.019662 L238.73737,180.041587 L26.9547585,180.041587 L26.9547585,186.019662 L28.8163469,186.019662 C28.8163469,188.248241 26.9547585,190.474968 24.688154,190.852881 L7.11082151,190.852881 C5.24737531,190.852881 3.35420316,192.703547 3.35420316,194.591262 L3.35420316,355.625089 C3.35420316,357.85552 5.24737531,359.34124 7.11082151,359.34124 L260.039737,359.34124 C262.29891,359.34124 263.800071,357.85552 263.800071,355.625089 L263.800071,194.591262 C263.800071,192.703547 262.29891,190.852881 260.039737,190.852881" id="Fill-7" fill="#D83B01"></path>
                    <path d="M126.849223,183.012284 C126.849223,183.414281 126.477648,183.792194 126.106074,183.792194 C125.734499,183.792194 125.361067,183.414281 125.361067,183.012284 C125.361067,182.647338 125.734499,182.269425 126.106074,182.269425 C126.477648,182.269425 126.849223,182.647338 126.849223,183.012284" id="Fill-9" fill="#D83B01"></path>
                    <path d="M130.206213,183.012284 C130.206213,183.414281 129.827207,183.792194 129.461206,183.792194 C129.0822,183.792194 128.716199,183.414281 128.716199,183.012284 C128.716199,182.647338 129.0822,182.269425 129.461206,182.269425 C129.827207,182.269425 130.206213,182.647338 130.206213,183.012284" id="Fill-11" fill="#D83B01"></path>
                    <path d="M133.222283,183.012284 C133.222283,183.414281 132.843277,183.792194 132.477276,183.792194 C132.074118,183.792194 131.695112,183.414281 131.695112,183.012284 C131.695112,182.647338 132.074118,182.269425 132.477276,182.269425 C132.843277,182.269425 133.222283,182.647338 133.222283,183.012284" id="Fill-13" fill="#D83B01"></path>
                    <mask id="mask-2" fill="white">
                        <use xlink:href="#path-1"></use>
                    </mask>
                    <g id="Clip-16"></g>
                    <polygon id="Fill-15" fill="#A80000" mask="url(#mask-2)" points="26.9540154 186.385534 238.729195 186.385534 238.729195 185.270318 26.9540154 185.270318"></polygon>
                    <path d="M260.809453,241.543144 L260.809453,256.098378 C261.188459,256.098378 261.933466,256.468881 261.933466,257.211741 C261.933466,257.584097 261.188459,258.326957 260.809453,258.326957 L260.809453,272.88219 C261.188459,272.88219 261.933466,273.252694 261.933466,273.995553 C261.933466,274.367909 261.188459,275.110769 260.809453,275.110769 L260.809453,289.63451 C261.188459,289.63451 261.933466,290.005013 261.933466,290.749725 C261.933466,291.120229 261.188459,291.894582 260.809453,291.894582 L260.809453,304.560247 L240.226083,304.560247 C240.226083,305.304959 239.481076,306.047819 239.103928,306.047819 C238.358921,306.047819 237.953905,305.304959 237.953905,304.560247 L223.025899,304.560247 C223.025899,305.304959 222.243734,306.047819 221.498727,306.047819 C221.132726,306.047819 220.38772,305.304959 220.38772,304.560247 L205.420698,304.560247 C205.420698,305.304959 205.041692,306.047819 204.296685,306.047819 C203.553536,306.047819 203.17453,305.304959 203.17453,304.560247 L188.207509,304.560247 C188.207509,305.304959 187.462502,306.047819 187.096501,306.047819 C186.351494,306.047819 185.608345,305.304959 185.608345,304.560247 L170.639465,304.560247 C170.639465,305.304959 170.262317,306.047819 169.4913,306.047819 C169.114152,306.047819 168.748151,305.304959 168.748151,304.560247 L70.3347828,304.560247 C70.3347828,305.304959 69.5897759,306.047819 68.844769,306.047819 C68.4713366,306.047819 67.7263297,305.304959 67.7263297,304.560247 L52.7593082,304.560247 C52.7593082,305.304959 52.3858758,306.047819 51.6408689,306.047819 C51.2692944,306.047819 50.895862,305.304959 50.895862,304.560247 L35.5554081,304.560247 C35.5554081,305.304959 35.1838336,306.047819 34.4369688,306.047819 C33.6622359,306.047819 33.2888035,305.304959 33.2888035,304.560247 L10.4648389,304.560247 L10.4648389,291.894582 C9.71983198,291.894582 9.34639959,291.120229 9.34639959,290.749725 C9.34639959,290.005013 9.71983198,289.63451 10.4648389,289.63451 L10.4648389,275.110769 C9.71983198,275.110769 9.34639959,274.367909 9.34639959,273.995553 C9.34639959,273.252694 9.71983198,272.88219 10.4648389,272.88219 L10.4648389,258.326957 C9.71983198,258.326957 9.34639959,257.584097 9.34639959,257.211741 C9.34639959,256.468881 9.71983198,256.098378 10.4648389,256.098378 L10.4648389,241.543144 C9.71983198,241.543144 9.34639959,240.800284 9.34639959,240.427928 C9.34639959,240.057425 9.71983198,239.312713 10.4648389,239.312713 L10.4648389,224.79453 C9.71983198,224.79453 9.34639959,224.416616 9.34639959,223.675609 C9.34639959,223.297695 9.71983198,222.5289 10.4648389,222.5289 L10.4648389,214.726095 L31.4253573,214.726095 C31.4253573,213.985087 32.1703642,213.607174 32.5437966,213.607174 C33.2888035,213.607174 34.0338104,213.985087 34.0338104,214.726095 L48.255825,214.726095 C48.255825,213.985087 48.6292574,213.607174 49.3742643,213.607174 C50.1508551,213.607174 50.5224296,213.985087 50.5224296,214.726095 L65.1178766,214.726095 C65.1178766,213.985087 65.4894511,213.607174 66.2363159,213.607174 C66.9813228,213.607174 67.3547552,213.985087 67.3547552,214.726095 L81.9483443,214.726095 C81.9483443,213.985087 82.3217767,213.607174 83.0667836,213.607174 C83.8117905,213.607174 84.183365,213.985087 84.183365,214.726095 L98.778812,214.726095 C98.778812,213.985087 99.1522444,213.607174 99.8972513,213.607174 C100.642258,213.607174 101.015691,213.985087 101.015691,214.726095 L115.237705,214.726095 C115.237705,213.985087 115.982712,213.607174 116.727719,213.607174 C117.50431,213.607174 117.875884,213.985087 117.875884,214.726095 L132.476905,214.726095 C132.476905,213.985087 132.842906,213.607174 133.587913,213.607174 C134.33292,213.607174 134.711926,213.985087 134.711926,214.726095 L148.93394,214.726095 C148.93394,213.985087 149.678947,213.607174 150.423954,213.607174 C150.789955,213.607174 151.533104,213.985087 151.533104,214.726095 L165.756976,214.726095 C165.756976,213.985087 166.500125,213.607174 167.245132,213.607174 C167.624138,213.607174 168.369145,213.985087 168.369145,214.726095 L182.59116,214.726095 C182.59116,213.985087 183.336167,213.607174 183.715173,213.607174 C184.458322,213.607174 185.203329,213.985087 185.203329,214.726095 L199.427201,214.726095 C199.427201,213.985087 200.17035,213.607174 200.575366,213.607174 C201.318515,213.607174 202.063522,213.985087 202.063522,214.726095 L216.285537,214.726095 C216.285537,213.985087 216.651538,213.607174 217.396545,213.607174 C218.141552,213.607174 218.886559,213.985087 218.886559,214.726095 L233.108573,214.726095 C233.108573,213.985087 233.487579,213.607174 234.232586,213.607174 C234.975735,213.607174 235.354741,213.985087 235.354741,214.726095 L260.809453,214.726095 L260.809453,222.5289 C261.188459,222.5289 261.933466,223.297695 261.933466,223.675609 C261.933466,224.416616 261.188459,224.79453 260.809453,224.79453 L260.809453,239.312713 C261.188459,239.312713 261.933466,240.057425 261.933466,240.427928 C261.933466,240.800284 261.188459,241.543144 260.809453,241.543144" id="Fill-17" fill="#A80000" mask="url(#mask-2)"></path>
                    <path d="M148.934126,347.419731 L89.8054732,347.419731 C88.3154594,347.419731 86.7920039,345.932159 86.7920039,344.075936 L86.7920039,317.970253 C86.7920039,316.112178 88.3154594,314.996962 89.8054732,314.996962 L148.934126,314.996962 C150.790141,314.996962 151.912296,316.112178 151.912296,317.970253 L151.912296,344.075936 C151.912296,345.932159 150.790141,347.419731 148.934126,347.419731 L148.934126,347.419731 Z M89.8054732,316.112178 C88.6870339,316.112178 87.942027,316.855038 87.942027,317.970253 L87.942027,344.075936 C87.942027,345.189299 88.6870339,346.304515 89.8054732,346.304515 L148.934126,346.304515 C150.045134,346.304515 150.790141,345.189299 150.790141,344.075936 L150.790141,317.970253 C150.790141,316.855038 150.045134,316.112178 148.934126,316.112178 L89.8054732,316.112178 Z" id="Fill-18" fill="#A80000" mask="url(#mask-2)"></path>
                    <path d="M256.682933,202.77087 L11.20966,202.77087 C9.3462138,202.77087 8.22963238,201.285151 8.22963238,199.801284 L8.22963238,197.937651 C8.22963238,196.088838 9.3462138,194.968065 11.20966,194.968065 L256.682933,194.968065 C258.171088,194.968065 259.661102,196.088838 259.661102,197.937651 L259.661102,199.801284 C259.661102,201.285151 258.171088,202.77087 256.682933,202.77087" id="Fill-19" fill="#A80000" mask="url(#mask-2)"></path>
                    <path d="M108.870962,237.083022 C108.870962,238.198238 107.75438,239.313454 106.262509,239.313454 L97.2889839,239.313454 C95.7989701,239.313454 94.648947,238.198238 94.648947,237.083022 L94.648947,227.386943 C94.648947,225.903076 95.7989701,224.795271 97.2889839,224.795271 L106.262509,224.795271 C107.75438,224.795271 108.870962,225.903076 108.870962,227.386943 L108.870962,237.083022 Z M125.733013,227.386943 C125.733013,225.903076 124.58299,224.795271 123.466409,224.795271 L114.119452,224.795271 C112.629438,224.795271 111.510999,225.903076 111.510999,227.386943 L111.510999,237.083022 C111.510999,238.198238 112.629438,239.313454 114.119452,239.313454 L123.466409,239.313454 C124.58299,239.313454 125.733013,238.198238 125.733013,237.083022 L125.733013,227.386943 Z M142.938771,227.386943 C142.938771,225.903076 141.816616,224.795271 140.326602,224.795271 L130.949919,224.795271 C129.461763,224.795271 128.337751,225.903076 128.337751,227.386943 L128.337751,237.083022 C128.337751,238.198238 129.461763,239.313454 130.949919,239.313454 L140.326602,239.313454 C141.816616,239.313454 142.938771,238.198238 142.938771,237.083022 L142.938771,227.386943 Z M159.395806,227.386943 C159.395806,225.903076 158.273651,224.795271 156.783638,224.795271 L147.406955,224.795271 C146.2848,224.795271 145.173792,225.903076 145.173792,227.386943 L145.173792,237.083022 C145.173792,238.198238 146.2848,239.313454 147.406955,239.313454 L156.783638,239.313454 C158.273651,239.313454 159.395806,238.198238 159.395806,237.083022 L159.395806,227.386943 Z M176.231848,227.386943 C176.231848,225.903076 175.107835,224.795271 173.617821,224.795271 L164.646154,224.795271 C163.156141,224.795271 162.007975,225.903076 162.007975,227.386943 L162.007975,237.083022 C162.007975,238.198238 163.156141,239.313454 164.646154,239.313454 L173.617821,239.313454 C175.107835,239.313454 176.231848,238.198238 176.231848,237.083022 L176.231848,227.386943 Z M193.092041,227.386943 C193.092041,225.903076 191.942018,224.795271 190.453862,224.795271 L181.469191,224.795271 C179.979177,224.795271 178.868169,225.903076 178.868169,227.386943 L178.868169,237.083022 C178.868169,238.198238 179.979177,239.313454 181.469191,239.313454 L190.453862,239.313454 C191.942018,239.313454 193.092041,238.198238 193.092041,237.083022 L193.092041,227.386943 Z M208.425064,227.386943 C208.425064,225.903076 207.275041,224.795271 205.786885,224.795271 L198.303374,224.795271 C196.81336,224.795271 195.691205,225.903076 195.691205,227.386943 L195.691205,237.083022 C195.691205,238.198238 196.81336,239.313454 198.303374,239.313454 L205.786885,239.313454 C207.275041,239.313454 208.425064,238.198238 208.425064,237.083022 L208.425064,227.386943 Z M223.771091,227.386943 C223.771091,225.903076 222.621068,224.795271 221.132912,224.795271 L213.649402,224.795271 C212.146383,224.795271 211.037233,225.903076 211.037233,227.386943 L211.037233,237.083022 C211.037233,238.198238 212.146383,239.313454 213.649402,239.313454 L221.132912,239.313454 C222.621068,239.313454 223.771091,238.198238 223.771091,237.083022 L223.771091,227.386943 Z M236.099934,243.803957 C236.099934,242.688741 234.975921,241.543885 233.487765,241.543885 L223.392085,241.543885 C222.24392,241.543885 221.132912,242.688741 221.132912,243.803957 L221.132912,253.496331 C221.132912,254.98205 222.24392,256.097266 223.392085,256.097266 L233.487765,256.097266 C234.975921,256.097266 236.099934,254.98205 236.099934,253.496331 L236.099934,243.803957 Z M218.886744,243.803957 C218.886744,242.688741 217.775737,241.543885 216.651724,241.543885 L206.531892,241.543885 C205.041878,241.543885 203.919723,242.688741 203.919723,243.803957 L203.919723,253.496331 C203.919723,254.98205 205.041878,256.097266 206.531892,256.097266 L216.651724,256.097266 C217.775737,256.097266 218.886744,254.98205 218.886744,253.496331 L218.886744,243.803957 Z M201.684702,243.803957 C201.684702,242.688741 200.575552,241.543885 199.048381,241.543885 L189.329849,241.543885 C187.841693,241.543885 186.717681,242.688741 186.717681,243.803957 L186.717681,253.496331 C186.717681,254.98205 187.841693,256.097266 189.329849,256.097266 L199.048381,256.097266 C200.575552,256.097266 201.684702,254.98205 201.684702,253.496331 L201.684702,243.803957 Z M184.081359,243.803957 C184.081359,242.688741 182.970352,241.543885 181.469191,241.543885 L171.750659,241.543885 C170.262503,241.543885 169.114338,242.688741 169.114338,243.803957 L169.114338,253.496331 C169.114338,254.98205 170.262503,256.097266 171.750659,256.097266 L181.469191,256.097266 C182.970352,256.097266 184.081359,254.98205 184.081359,253.496331 L184.081359,243.803957 Z M166.879317,243.803957 C166.879317,242.688741 165.757162,241.543885 164.267148,241.543885 L154.145459,241.543885 C152.657303,241.543885 151.53329,242.688741 151.53329,243.803957 L151.53329,253.496331 C151.53329,254.98205 152.657303,256.097266 154.145459,256.097266 L164.267148,256.097266 C165.757162,256.097266 166.879317,254.98205 166.879317,253.496331 L166.879317,243.803957 Z M149.679133,243.803957 C149.679133,242.688741 148.55512,241.543885 147.040954,241.543885 L136.945274,241.543885 C135.821261,241.543885 134.712111,242.688741 134.712111,243.803957 L134.712111,253.496331 C134.712111,254.98205 135.821261,256.097266 136.945274,256.097266 L147.040954,256.097266 C148.55512,256.097266 149.679133,254.98205 149.679133,253.496331 L149.679133,243.803957 Z M132.073932,243.803957 C132.073932,242.688741 130.949919,241.543885 129.827764,241.543885 L119.739516,241.543885 C118.249502,241.543885 117.101337,242.688741 117.101337,243.803957 L117.101337,253.496331 C117.101337,254.98205 118.249502,256.097266 119.739516,256.097266 L129.827764,256.097266 C130.949919,256.097266 132.073932,254.98205 132.073932,253.496331 L132.073932,243.803957 Z M114.491026,243.803957 C114.491026,242.688741 113.374445,241.543885 112.256005,241.543885 L102.132458,241.543885 C100.642444,241.543885 99.5240047,242.688741 99.5240047,243.803957 L99.5240047,253.496331 C99.5240047,254.98205 100.642444,256.097266 102.132458,256.097266 L112.256005,256.097266 C113.374445,256.097266 114.491026,254.98205 114.491026,253.496331 L114.491026,243.803957 Z M97.6624163,243.803957 C97.6624163,242.688741 96.543977,241.543885 95.0539632,241.543885 L85.3019901,241.543885 C83.8119763,241.543885 82.693537,242.688741 82.693537,243.803957 L82.693537,253.496331 C82.693537,254.98205 83.8119763,256.097266 85.3019901,256.097266 L95.0539632,256.097266 C96.543977,256.097266 97.6624163,254.98205 97.6624163,253.496331 L97.6624163,243.803957 Z M80.4585162,243.803957 C80.4585162,242.688741 79.3084931,241.543885 77.8184793,241.543885 L67.7265155,241.543885 C66.6080762,241.543885 65.4896369,242.688741 65.4896369,243.803957 L65.4896369,253.496331 C65.4896369,254.98205 66.6080762,256.097266 67.7265155,256.097266 L77.8184793,256.097266 C79.3084931,256.097266 80.4585162,254.98205 80.4585162,253.496331 L80.4585162,243.803957 Z M62.8514578,243.803957 C62.8514578,242.688741 61.7330185,241.543885 60.6145792,241.543885 L50.5226154,241.543885 C49.0010177,241.543885 47.8844363,242.688741 47.8844363,243.803957 L47.8844363,253.496331 C47.8844363,254.98205 49.0010177,256.097266 50.5226154,256.097266 L60.6145792,256.097266 C61.7330185,256.097266 62.8514578,254.98205 62.8514578,253.496331 L62.8514578,243.803957 Z M45.6475577,243.803957 C45.6475577,242.688741 44.5291184,241.543885 43.412537,241.543885 L33.2889893,241.543885 C31.7989755,241.543885 30.6805362,242.688741 30.6805362,243.803957 L30.6805362,253.496331 C30.6805362,254.98205 31.7989755,256.097266 33.2889893,256.097266 L43.412537,256.097266 C44.5291184,256.097266 45.6475577,254.98205 45.6475577,253.496331 L45.6475577,243.803957 Z M49.0010177,260.556277 C49.0010177,259.441061 47.8844363,258.325845 46.3944225,258.325845 L36.3006008,258.325845 C35.1840193,258.325845 34.0339962,259.441061 34.0339962,260.556277 L34.0339962,270.250503 C34.0339962,271.736222 35.1840193,272.881078 36.3006008,272.881078 L46.3944225,272.881078 C47.8844363,272.881078 49.0010177,271.736222 49.0010177,270.250503 L49.0010177,260.556277 Z M65.8630693,260.556277 C65.8630693,259.441061 64.7464878,258.325845 63.5964647,258.325845 L53.5045009,258.325845 C52.0126292,258.325845 50.8941899,259.441061 50.8941899,260.556277 L50.8941899,270.250503 C50.8941899,271.736222 52.0126292,272.881078 53.5045009,272.881078 L63.5964647,272.881078 C64.7464878,272.881078 65.8630693,271.736222 65.8630693,270.250503 L65.8630693,260.556277 Z M83.0669693,260.556277 C83.0669693,259.441061 81.9485301,258.325845 80.8300908,258.325845 L70.7065431,258.325845 C69.2165293,258.325845 68.09809,259.441061 68.09809,260.556277 L68.09809,270.250503 C68.09809,271.736222 69.2165293,272.881078 70.7065431,272.881078 L80.8300908,272.881078 C81.9485301,272.881078 83.0669693,271.736222 83.0669693,270.250503 L83.0669693,260.556277 Z M101.015876,260.556277 C101.015876,259.441061 99.8974371,258.325845 98.4074232,258.325845 L88.6870339,258.325845 C87.1654363,258.325845 86.0488548,259.441061 86.0488548,260.556277 L86.0488548,270.250503 C86.0488548,271.736222 87.1654363,272.881078 88.6870339,272.881078 L98.4074232,272.881078 C99.8974371,272.881078 101.015876,271.736222 101.015876,270.250503 L101.015876,260.556277 Z M117.87607,260.556277 C117.87607,259.441061 116.727905,258.325845 115.237891,258.325845 L105.517502,258.325845 C104.027488,258.325845 102.909049,259.441061 102.909049,260.556277 L102.909049,270.250503 C102.909049,271.736222 104.027488,272.881078 105.517502,272.881078 L115.237891,272.881078 C116.727905,272.881078 117.87607,271.736222 117.87607,270.250503 L117.87607,260.556277 Z M135.45526,260.556277 C135.45526,259.441061 134.333105,258.325845 133.222098,258.325845 L123.092976,258.325845 C121.602962,258.325845 120.484523,259.441061 120.484523,260.556277 L120.484523,270.250503 C120.484523,271.736222 121.602962,272.881078 123.092976,272.881078 L133.222098,272.881078 C134.333105,272.881078 135.45526,271.736222 135.45526,270.250503 L135.45526,260.556277 Z M152.657303,260.556277 C152.657303,259.441061 151.53329,258.325845 150.045134,258.325845 L139.923444,258.325845 C138.435288,258.325845 137.311275,259.441061 137.311275,260.556277 L137.311275,270.250503 C137.311275,271.736222 138.435288,272.881078 139.923444,272.881078 L150.045134,272.881078 C151.53329,272.881078 152.657303,271.736222 152.657303,270.250503 L152.657303,260.556277 Z M170.262503,260.556277 C170.262503,259.441061 169.114338,258.325845 167.624324,258.325845 L157.528644,258.325845 C156.038631,258.325845 154.890465,259.441061 154.890465,260.556277 L154.890465,270.250503 C154.890465,271.736222 156.038631,272.881078 157.528644,272.881078 L167.624324,272.881078 C169.114338,272.881078 170.262503,271.736222 170.262503,270.250503 L170.262503,260.556277 Z M187.462687,260.556277 C187.462687,259.441061 186.35168,258.325845 184.824508,258.325845 L175.107835,258.325845 C173.617821,258.325845 172.495666,259.441061 172.495666,260.556277 L172.495666,270.250503 C172.495666,271.736222 173.617821,272.881078 175.107835,272.881078 L184.824508,272.881078 C186.35168,272.881078 187.462687,271.736222 187.462687,270.250503 L187.462687,260.556277 Z M204.662872,260.556277 C204.662872,259.441061 203.553722,258.325845 202.063708,258.325845 L192.308019,258.325845 C190.819863,258.325845 189.69585,259.441061 189.69585,260.556277 L189.69585,270.250503 C189.69585,271.736222 190.819863,272.881078 192.308019,272.881078 L202.063708,272.881078 C203.553722,272.881078 204.662872,271.736222 204.662872,270.250503 L204.662872,260.556277 Z M221.877919,260.556277 C221.877919,259.441061 220.753906,258.325845 219.263892,258.325845 L209.547219,258.325845 C208.059063,258.325845 206.910898,259.441061 206.910898,260.556277 L206.910898,270.250503 C206.910898,271.736222 208.059063,272.881078 209.547219,272.881078 L219.263892,272.881078 C220.753906,272.881078 221.877919,271.736222 221.877919,270.250503 L221.877919,260.556277 Z M263.042802,260.556277 C263.042802,259.441061 261.931794,258.325845 260.809639,258.325845 L227.126409,258.325845 C225.625248,258.325845 224.51424,259.441061 224.51424,260.556277 L224.51424,270.250503 C224.51424,271.736222 225.625248,272.881078 227.126409,272.881078 L260.809639,272.881078 C261.931794,272.881078 263.042802,271.736222 263.042802,270.250503 L263.042802,260.556277 Z M263.042802,277.340089 C263.042802,276.226726 261.931794,275.11151 260.809639,275.11151 L218.520743,275.11151 C217.39673,275.11151 216.285723,276.226726 216.285723,277.340089 L216.285723,287.032463 C216.285723,288.520035 217.39673,289.635251 218.520743,289.635251 L260.809639,289.635251 C261.931794,289.635251 263.042802,288.520035 263.042802,287.032463 L263.042802,277.340089 Z M28.81709,243.803957 C28.81709,242.688741 27.7005086,241.543885 26.1770531,241.543885 L7.85657157,241.543885 C6.36655776,241.543885 5.24811846,242.688741 5.24811846,243.803957 L5.24811846,253.496331 C5.24811846,254.98205 6.36655776,256.097266 7.85657157,256.097266 L26.1770531,256.097266 C27.7005086,256.097266 28.81709,254.98205 28.81709,253.496331 L28.81709,243.803957 Z M32.17055,260.556277 C32.17055,259.441061 31.0521107,258.325845 29.5620969,258.325845 L7.85657157,258.325845 C6.36655776,258.325845 5.24811846,259.441061 5.24811846,260.556277 L5.24811846,270.250503 C5.24811846,271.736222 6.36655776,272.881078 7.85657157,272.881078 L29.5620969,272.881078 C31.0521107,272.881078 32.17055,271.736222 32.17055,270.250503 L32.17055,260.556277 Z M261.554646,243.803957 C261.554646,242.688741 262.676801,241.543885 261.554646,241.543885 L240.971276,241.543885 C239.481262,241.543885 238.359107,242.688741 238.359107,243.803957 L238.359107,253.496331 C238.359107,254.98205 239.481262,256.097266 240.971276,256.097266 L261.554646,256.097266 C262.676801,256.097266 261.554646,254.98205 261.554646,253.496331 L261.554646,243.803957 Z M261.554646,227.386943 C261.554646,225.903076 263.042802,224.795271 261.554646,224.795271 L228.616423,224.795271 C227.126409,224.795271 226.004254,225.903076 226.004254,227.386943 L226.004254,237.083022 C226.004254,238.198238 227.126409,239.313454 228.616423,239.313454 L261.554646,239.313454 C263.042802,239.313454 261.554646,238.198238 261.554646,237.083022 L261.554646,227.386943 Z M58.3795585,227.386943 C58.3795585,225.903076 57.2611192,224.795271 56.112954,224.795271 L46.765997,224.795271 C45.2759832,224.795271 44.1575439,225.903076 44.1575439,227.386943 L44.1575439,237.083022 C44.1575439,238.198238 45.2759832,239.313454 46.765997,239.313454 L56.112954,239.313454 C57.2611192,239.313454 58.3795585,238.198238 58.3795585,237.083022 L58.3795585,227.386943 Z M41.517507,227.386943 C41.517507,225.903076 40.4009255,224.795271 38.9090539,224.795271 L29.5620969,224.795271 C28.4436576,224.795271 27.3252183,225.903076 27.3252183,227.386943 L27.3252183,237.083022 C27.3252183,238.198238 28.4436576,239.313454 29.5620969,239.313454 L38.9090539,239.313454 C40.4009255,239.313454 41.517507,238.198238 41.517507,237.083022 L41.517507,227.386943 Z M48.2560108,210.610541 C48.2560108,209.113706 47.1375715,208.005901 45.6475577,208.005901 L36.3006008,208.005901 C35.1840193,208.005901 34.0339962,209.113706 34.0339962,210.610541 L34.0339962,219.925001 C34.0339962,221.408868 35.1840193,222.529641 36.3006008,222.529641 L45.6475577,222.529641 C47.1375715,222.529641 48.2560108,221.408868 48.2560108,219.925001 L48.2560108,210.610541 Z M31.4255431,210.610541 C31.4255431,209.113706 30.3071038,208.005901 28.81709,208.005901 L6.36655776,208.005901 C4.87468608,208.005901 6.36655776,209.113706 6.36655776,210.610541 L6.36655776,219.925001 C6.36655776,221.408868 4.87468608,222.529641 6.36655776,222.529641 L28.81709,222.529641 C30.3071038,222.529641 31.4255431,221.408868 31.4255431,219.925001 L31.4255431,210.610541 Z M65.1180624,210.610541 C65.1180624,209.113706 63.9698971,208.005901 62.4798833,208.005901 L53.1310685,208.005901 C52.0126292,208.005901 50.8941899,209.113706 50.8941899,210.610541 L50.8941899,219.925001 C50.8941899,221.408868 52.0126292,222.529641 53.1310685,222.529641 L62.4798833,222.529641 C63.9698971,222.529641 65.1180624,221.408868 65.1180624,219.925001 L65.1180624,210.610541 Z M81.9485301,210.610541 C81.9485301,209.113706 80.8300908,208.005901 79.3084931,208.005901 L69.963394,208.005901 C68.4715224,208.005901 67.3549409,209.113706 67.3549409,210.610541 L67.3549409,219.925001 C67.3549409,221.408868 68.4715224,222.529641 69.963394,222.529641 L79.3084931,222.529641 C80.8300908,222.529641 81.9485301,221.408868 81.9485301,219.925001 L81.9485301,210.610541 Z M98.7789978,210.610541 C98.7789978,209.113706 97.6624163,208.005901 96.1705447,208.005901 L86.7920039,208.005901 C85.3019901,208.005901 84.1835508,209.113706 84.1835508,210.610541 L84.1835508,219.925001 C84.1835508,221.408868 85.3019901,222.529641 86.7920039,222.529641 L96.1705447,222.529641 C97.6624163,222.529641 98.7789978,221.408868 98.7789978,219.925001 L98.7789978,210.610541 Z M115.237891,210.610541 C115.237891,209.113706 114.119452,208.005901 113.001012,208.005901 L103.655913,208.005901 C102.132458,208.005901 101.015876,209.113706 101.015876,210.610541 L101.015876,219.925001 C101.015876,221.408868 102.132458,222.529641 103.655913,222.529641 L113.001012,222.529641 C114.119452,222.529641 115.237891,221.408868 115.237891,219.925001 L115.237891,210.610541 Z M132.073932,210.610541 C132.073932,209.113706 130.949919,208.005901 129.827764,208.005901 L120.484523,208.005901 C118.994509,208.005901 117.87607,209.113706 117.87607,210.610541 L117.87607,219.925001 C117.87607,221.408868 118.994509,222.529641 120.484523,222.529641 L129.827764,222.529641 C130.949919,222.529641 132.073932,221.408868 132.073932,219.925001 L132.073932,210.610541 Z M148.934126,210.610541 C148.934126,209.113706 147.810113,208.005901 146.661948,208.005901 L137.311275,208.005901 C135.821261,208.005901 134.712111,209.113706 134.712111,210.610541 L134.712111,219.925001 C134.712111,221.408868 135.821261,222.529641 137.311275,222.529641 L146.661948,222.529641 C147.810113,222.529641 148.934126,221.408868 148.934126,219.925001 L148.934126,210.610541 Z M165.757162,210.610541 C165.757162,209.113706 164.646154,208.005901 163.156141,208.005901 L154.145459,208.005901 C152.657303,208.005901 151.53329,209.113706 151.53329,210.610541 L151.53329,219.925001 C151.53329,221.408868 152.657303,222.529641 154.145459,222.529641 L163.156141,222.529641 C164.646154,222.529641 165.757162,221.408868 165.757162,219.925001 L165.757162,210.610541 Z M182.591346,210.610541 C182.591346,209.113706 181.469191,208.005901 179.979177,208.005901 L171.005652,208.005901 C169.491486,208.005901 168.369331,209.113706 168.369331,210.610541 L168.369331,219.925001 C168.369331,221.408868 169.491486,222.529641 171.005652,222.529641 L179.979177,222.529641 C181.469191,222.529641 182.591346,221.408868 182.591346,219.925001 L182.591346,210.610541 Z M199.427387,210.610541 C199.427387,209.113706 198.303374,208.005901 196.81336,208.005901 L187.841693,208.005901 C186.35168,208.005901 185.203514,209.113706 185.203514,210.610541 L185.203514,219.925001 C185.203514,221.408868 186.35168,222.529641 187.841693,222.529641 L196.81336,222.529641 C198.303374,222.529641 199.427387,221.408868 199.427387,219.925001 L199.427387,210.610541 Z M216.285723,210.610541 C216.285723,209.113706 215.137557,208.005901 213.649402,208.005901 L204.662872,208.005901 C203.174716,208.005901 202.063708,209.113706 202.063708,210.610541 L202.063708,219.925001 C202.063708,221.408868 203.174716,222.529641 204.662872,222.529641 L213.649402,222.529641 C215.137557,222.529641 216.285723,221.408868 216.285723,219.925001 L216.285723,210.610541 Z M233.108759,210.610541 C233.108759,209.113706 231.997751,208.005901 230.509595,208.005901 L221.498913,208.005901 C220.008899,208.005901 218.886744,209.113706 218.886744,210.610541 L218.886744,219.925001 C218.886744,221.408868 220.008899,222.529641 221.498913,222.529641 L230.509595,222.529641 C231.997751,222.529641 233.108759,221.408868 233.108759,219.925001 L233.108759,210.610541 Z M262.676801,210.610541 C262.676801,209.113706 263.800814,208.005901 262.676801,208.005901 L237.954091,208.005901 C236.465935,208.005901 235.354927,209.113706 235.354927,210.610541 L235.354927,219.925001 C235.354927,221.408868 236.465935,222.529641 237.954091,222.529641 L262.676801,222.529641 C263.800814,222.529641 262.676801,221.408868 262.676801,219.925001 L262.676801,210.610541 Z M24.6870393,227.386943 C24.6870393,225.903076 23.5686,224.795271 22.0785862,224.795271 L8.60157847,224.795271 C7.48313918,224.795271 6.36655776,225.903076 6.36655776,227.386943 L6.36655776,237.083022 C6.36655776,238.198238 7.48313918,239.313454 8.60157847,239.313454 L22.0785862,239.313454 C23.5686,239.313454 24.6870393,238.198238 24.6870393,237.083022 L24.6870393,227.386943 Z M75.2100262,227.386943 C75.2100262,225.903076 74.0915869,224.795271 72.9750055,224.795271 L63.5964647,224.795271 C62.104593,224.795271 60.9880116,225.903076 60.9880116,227.386943 L60.9880116,237.083022 C60.9880116,238.198238 62.104593,239.313454 63.5964647,239.313454 L72.9750055,239.313454 C74.0915869,239.313454 75.2100262,238.198238 75.2100262,237.083022 L75.2100262,227.386943 Z M92.0404939,227.386943 C92.0404939,225.903076 90.9239125,224.795271 89.4320408,224.795271 L80.4585162,224.795271 C78.9369186,224.795271 77.8184793,225.903076 77.8184793,227.386943 L77.8184793,237.083022 C77.8184793,238.198238 78.9369186,239.313454 80.4585162,239.313454 L89.4320408,239.313454 C90.9239125,239.313454 92.0404939,238.198238 92.0404939,237.083022 L92.0404939,227.386943 Z M214.015402,277.340089 C214.015402,276.226726 212.904395,275.11151 211.403234,275.11151 L201.318701,275.11151 C199.79153,275.11151 198.68238,276.226726 198.68238,277.340089 L198.68238,287.032463 C198.68238,288.520035 199.79153,289.635251 201.318701,289.635251 L211.403234,289.635251 C212.904395,289.635251 214.015402,288.520035 214.015402,287.032463 L214.015402,277.340089 Z M196.436212,277.340089 C196.436212,276.226726 195.325204,275.11151 193.83519,275.11151 L184.081359,275.11151 C182.591346,275.11151 181.469191,276.226726 181.469191,277.340089 L181.469191,287.032463 C181.469191,288.520035 182.591346,289.635251 184.081359,289.635251 L193.83519,289.635251 C195.325204,289.635251 196.436212,288.520035 196.436212,287.032463 L196.436212,277.340089 Z M179.23417,277.340089 C179.23417,276.226726 178.123162,275.11151 176.974997,275.11151 L166.879317,275.11151 C165.391161,275.11151 164.267148,276.226726 164.267148,277.340089 L164.267148,287.032463 C164.267148,288.520035 165.391161,289.635251 166.879317,289.635251 L176.974997,289.635251 C178.123162,289.635251 179.23417,288.520035 179.23417,287.032463 L179.23417,277.340089 Z M162.007975,277.340089 C162.007975,276.226726 160.88582,275.11151 159.395806,275.11151 L149.300127,275.11151 C147.810113,275.11151 146.661948,276.226726 146.661948,277.340089 L146.661948,287.032463 C146.661948,288.520035 147.810113,289.635251 149.300127,289.635251 L159.395806,289.635251 C160.88582,289.635251 162.007975,288.520035 162.007975,287.032463 L162.007975,277.340089 Z M144.428785,277.340089 C144.428785,276.226726 143.30663,275.11151 141.816616,275.11151 L132.073932,275.11151 C130.572771,275.11151 129.461763,276.226726 129.461763,277.340089 L129.461763,287.032463 C129.461763,288.520035 130.572771,289.635251 132.073932,289.635251 L141.816616,289.635251 C143.30663,289.635251 144.428785,288.520035 144.428785,287.032463 L144.428785,277.340089 Z M127.228601,277.340089 C127.228601,276.226726 126.106446,275.11151 124.58299,275.11151 L114.864459,275.11151 C113.374445,275.11151 112.256005,276.226726 112.256005,277.340089 L112.256005,287.032463 C112.256005,288.520035 113.374445,289.635251 114.864459,289.635251 L124.58299,289.635251 C126.106446,289.635251 127.228601,288.520035 127.228601,287.032463 L127.228601,277.340089 Z M110.020985,277.340089 C110.020985,276.226726 108.870962,275.11151 107.380948,275.11151 L97.2889839,275.11151 C96.1705447,275.11151 94.648947,276.226726 94.648947,277.340089 L94.648947,287.032463 C94.648947,288.520035 96.1705447,289.635251 97.2889839,289.635251 L107.380948,289.635251 C108.870962,289.635251 110.020985,288.520035 110.020985,287.032463 L110.020985,277.340089 Z M92.7855008,277.340089 C92.7855008,276.226726 91.6689194,275.11151 90.1770477,275.11151 L80.0850839,275.11151 C78.5634862,275.11151 77.4469048,276.226726 77.4469048,277.340089 L77.4469048,287.032463 C77.4469048,288.520035 78.5634862,289.635251 80.0850839,289.635251 L90.1770477,289.635251 C91.6689194,289.635251 92.7855008,288.520035 92.7855008,287.032463 L92.7855008,277.340089 Z M75.2100262,277.340089 C75.2100262,276.226726 74.0915869,275.11151 72.6015731,275.11151 L62.4798833,275.11151 C61.361444,275.11151 60.2430047,276.226726 60.2430047,277.340089 L60.2430047,287.032463 C60.2430047,288.520035 61.361444,289.635251 62.4798833,289.635251 L72.6015731,289.635251 C74.0915869,289.635251 75.2100262,288.520035 75.2100262,287.032463 L75.2100262,277.340089 Z M58.0061261,277.340089 C58.0061261,276.226726 56.8579609,275.11151 55.3679471,275.11151 L45.2759832,275.11151 C44.1575439,275.11151 43.0391046,276.226726 43.0391046,277.340089 L43.0391046,287.032463 C43.0391046,288.520035 44.1575439,289.635251 45.2759832,289.635251 L55.3679471,289.635251 C56.8579609,289.635251 58.0061261,288.520035 58.0061261,287.032463 L58.0061261,277.340089 Z M40.7725001,277.340089 C40.7725001,276.226726 39.6540608,275.11151 38.164047,275.11151 L7.85657157,275.11151 C6.36655776,275.11151 5.24811846,276.226726 5.24811846,277.340089 L5.24811846,287.032463 C5.24811846,288.520035 6.36655776,289.635251 7.85657157,289.635251 L38.164047,289.635251 C39.6540608,289.635251 40.7725001,288.520035 40.7725001,287.032463 L40.7725001,277.340089 Z M33.2889893,294.125754 C33.2889893,293.010538 32.17055,291.895323 30.6805362,291.895323 L7.85657157,291.895323 C6.36655776,291.895323 5.24811846,293.010538 5.24811846,294.125754 L5.24811846,308.647642 C5.24811846,310.135214 6.36655776,311.248577 7.85657157,311.248577 L30.6805362,311.248577 C32.17055,311.248577 33.2889893,310.135214 33.2889893,308.647642 L33.2889893,294.125754 Z M50.8941899,294.125754 C50.8941899,293.010538 49.3744501,291.895323 48.2560108,291.895323 L38.164047,291.895323 C36.6740332,291.895323 35.5555939,293.010538 35.5555939,294.125754 L35.5555939,308.647642 C35.5555939,310.135214 36.6740332,311.248577 38.164047,311.248577 L48.2560108,311.248577 C49.3744501,311.248577 50.8941899,310.135214 50.8941899,308.647642 L50.8941899,294.125754 Z M68.09809,294.125754 C68.09809,293.010538 66.9815086,291.895323 65.4896369,291.895323 L55.3679471,291.895323 C53.8779332,291.895323 52.759494,293.010538 52.759494,294.125754 L52.759494,308.647642 C52.759494,310.135214 53.8779332,311.248577 55.3679471,311.248577 L65.4896369,311.248577 C66.9815086,311.248577 68.09809,310.135214 68.09809,308.647642 L68.09809,294.125754 Z M185.606673,294.125754 C185.606673,293.010538 184.458508,291.895323 183.336352,291.895323 L173.240673,291.895323 C171.750659,291.895323 170.639651,293.010538 170.639651,294.125754 L170.639651,308.647642 C170.639651,310.135214 171.750659,311.248577 173.240673,311.248577 L183.336352,311.248577 C184.458508,311.248577 185.606673,310.135214 185.606673,308.647642 L185.606673,294.125754 Z M203.174716,294.125754 C203.174716,293.010538 202.063708,291.895323 200.575552,291.895323 L190.819863,291.895323 C189.329849,291.895323 188.207694,293.010538 188.207694,294.125754 L188.207694,308.647642 C188.207694,310.135214 189.329849,311.248577 190.819863,311.248577 L200.575552,311.248577 C202.063708,311.248577 203.174716,310.135214 203.174716,308.647642 L203.174716,294.125754 Z M220.387905,294.125754 C220.387905,293.010538 219.263892,291.895323 217.775737,291.895323 L208.059063,291.895323 C206.531892,291.895323 205.420884,293.010538 205.420884,294.125754 L205.420884,308.647642 C205.420884,310.135214 206.531892,311.248577 208.059063,311.248577 L217.775737,311.248577 C219.263892,311.248577 220.387905,310.135214 220.387905,308.647642 L220.387905,294.125754 Z M262.676801,294.125754 C262.676801,293.010538 261.554646,291.895323 260.04048,291.895323 L242.838438,291.895323 C241.337277,291.895323 240.226269,293.010538 240.226269,294.125754 L240.226269,308.647642 C240.226269,310.135214 241.337277,311.248577 242.838438,311.248577 L260.04048,311.248577 C261.554646,311.248577 262.676801,310.135214 262.676801,308.647642 L262.676801,294.125754 Z M237.954091,294.125754 C237.954091,293.010538 236.844941,291.895323 235.354927,291.895323 L225.259247,291.895323 C223.771091,291.895323 222.621068,293.010538 222.621068,294.125754 L222.621068,295.239117 C222.621068,296.726689 223.771091,297.841905 225.259247,297.841905 L235.354927,297.841905 C236.844941,297.841905 237.954091,296.726689 237.954091,295.239117 L237.954091,294.125754 Z M237.954091,302.702912 C237.954091,301.1857 236.844941,300.070484 235.354927,300.070484 L225.259247,300.070484 C223.771091,300.070484 222.621068,301.1857 222.621068,302.702912 L222.621068,309.019998 C222.621068,310.135214 223.771091,311.248577 225.259247,311.248577 L235.354927,311.248577 C236.844941,311.248577 237.954091,310.135214 237.954091,309.019998 L237.954091,302.702912 Z M168.369331,294.125754 C168.369331,293.010538 167.245318,291.895323 166.13431,291.895323 L72.6015731,291.895323 C71.4534079,291.895323 70.3349686,293.010538 70.3349686,294.125754 L70.3349686,308.647642 C70.3349686,310.135214 71.4534079,311.248577 72.6015731,311.248577 L166.13431,311.248577 C167.245318,311.248577 168.369331,310.135214 168.369331,308.647642 L168.369331,294.125754 Z" id="Fill-20" fill="#D83B01" mask="url(#mask-2)"></path>
                    <path d="M254.815027,200.908349 L9.34732852,200.908349 C7.85545684,200.908349 6.36544303,199.800543 6.36544303,197.938762 L6.36544303,196.088097 C6.36544303,194.591262 7.85545684,193.105543 9.34732852,193.105543 L254.815027,193.105543 C256.316188,193.105543 257.806202,194.591262 257.806202,196.088097 L257.806202,197.938762 C257.806202,199.800543 256.316188,200.908349 254.815027,200.908349" id="Fill-21" fill="#D83B01" mask="url(#mask-2)"></path>
                    <polygon id="Fill-22" fill="#FF8C00" mask="url(#mask-2)" points="245.43853 150.215492 245.43853 14.8872046 21.7060827 14.8872046 21.7060827 150.958352 245.43853 150.958352"></polygon>
                    <polygon id="Fill-23" fill="#FFFFFF" mask="url(#mask-2)" points="21.7073832 143.131093 87.9423986 143.131093 87.9423986 57.4132358 21.7073832 57.4132358"></polygon>
                    <polygon id="Fill-24" fill="#585858" mask="url(#mask-2)" points="21.7073832 79.7638646 87.9423986 79.7638646 87.9423986 57.4058257 21.7073832 57.4058257"></polygon>
                    <path d="M59.4968831,72.3011814 C56.4852716,72.3011814 54.2502509,70.0744548 54.2502509,67.1030161 C54.2502509,64.0963795 56.4852716,61.5028543 59.4968831,61.5028543 C62.4787686,61.5028543 64.7453731,64.0963795 64.7453731,67.1030161 C64.7453731,70.0744548 62.4787686,72.3011814 59.4968831,72.3011814 M59.4968831,62.6106601 C56.858704,62.6106601 54.9933999,64.4983758 54.9933999,67.1030161 C54.9933999,69.3315951 56.858704,71.5583217 59.4968831,71.5583217 C62.1053362,71.5583217 63.9687824,69.3315951 63.9687824,67.1030161 C63.9687824,64.4983758 62.1053362,62.6106601 59.4968831,62.6106601" id="Fill-25" fill="#00BCF2" mask="url(#mask-2)"></path>
                    <polygon id="Fill-26" fill="#00BCF2" mask="url(#mask-2)" points="21.7073832 129.715158 87.9423986 129.715158 87.9423986 107.357119 21.7073832 107.357119"></polygon>
                    <polygon id="Fill-27" fill="#D2D2D2" mask="url(#mask-2)" points="31.0524823 93.9226592 87.9423986 93.9226592 87.9423986 93.1797995 31.0524823 93.1797995"></polygon>
                    <polygon id="Fill-28" fill="#BBBBBB" mask="url(#mask-2)" points="33.2893609 138.675787 40.4012971 138.675787 40.4012971 131.584349 33.2893609 131.584349"></polygon>
                    <polygon id="Fill-29" fill="#BBBBBB" mask="url(#mask-2)" points="33.2893609 102.127461 38.1644185 102.127461 38.1644185 98.4113101 33.2893609 98.4113101"></polygon>
                    <polygon id="Fill-30" fill="#BBBBBB" mask="url(#mask-2)" points="33.2893609 88.3465802 38.1644185 88.3465802 38.1644185 84.6304292 33.2893609 84.6304292"></polygon>
                    <polygon id="Fill-31" fill="#BBBBBB" mask="url(#mask-2)" points="57.6349232 85.376994 68.8453263 85.376994 68.8453263 83.1169221 57.6349232 83.1169221"></polygon>
                    <polygon id="Fill-32" fill="#BBBBBB" mask="url(#mask-2)" points="57.6349232 89.0894399 84.5573547 89.0894399 84.5573547 87.2313644 57.6349232 87.2313644"></polygon>
                    <polygon id="Fill-33" fill="#BBBBBB" mask="url(#mask-2)" points="57.6349232 99.5228209 75.5838302 99.5228209 75.5838302 97.2923893 57.6349232 97.2923893"></polygon>
                    <polygon id="Fill-34" fill="#BBBBBB" mask="url(#mask-2)" points="57.6349232 103.248234 84.5573547 103.248234 84.5573547 101.390159 57.6349232 101.390159"></polygon>
                    <polygon id="Fill-35" fill="#BBBBBB" mask="url(#mask-2)" points="43.0394762 133.842568 54.2498793 133.842568 54.2498793 131.582496 43.0394762 131.582496"></polygon>
                    <polygon id="Fill-36" fill="#BBBBBB" mask="url(#mask-2)" points="43.0394762 137.555014 84.5573547 137.555014 84.5573547 135.696939 43.0394762 135.696939"></polygon>
                    <polygon id="Fill-37" fill="#0078D7" mask="url(#mask-2)" points="38.9094254 77.172192 80.0854554 77.172192 80.0854554 74.9417604 38.9094254 74.9417604"></polygon>
                    <polygon id="Fill-38" fill="#3D3D3D" mask="url(#mask-2)" points="21.7073832 143.131093 31.0543402 143.131093 31.0543402 57.4132358 21.7073832 57.4132358"></polygon>
                    <polygon id="Fill-39" fill="#0078D7" mask="url(#mask-2)" points="21.7073832 79.7638646 31.0543402 79.7638646 31.0543402 70.8143505 21.7073832 70.8143505"></polygon>
                    <polygon id="Fill-40" fill="#717171" mask="url(#mask-2)" points="23.197397 65.9829837 28.8174616 65.9829837 28.8174616 62.607696 23.197397 62.607696"></polygon>
                    <polygon id="Fill-41" fill="#717171" mask="url(#mask-2)" points="23.197397 87.605573 28.8174616 87.605573 28.8174616 84.2617782 23.197397 84.2617782"></polygon>
                    <polygon id="Fill-42" fill="#717171" mask="url(#mask-2)" points="23.197397 97.2960943 28.8174616 97.2960943 28.8174616 93.9208067 23.197397 93.9208067"></polygon>
                    <polygon id="Fill-43" fill="#000000" mask="url(#mask-2)" points="21.7073832 150.957981 245.445404 150.957981 245.445404 141.636111 21.7073832 141.636111"></polygon>
                    <polygon id="Fill-44" fill="#E9E9E9" mask="url(#mask-2)" points="31.0524823 150.957981 87.9423986 150.957981 87.9423986 141.636111 31.0524823 141.636111"></polygon>
                    <path d="M110.392931,146.137915 C110.392931,147.623634 109.244766,148.729587 107.754752,148.729587 C106.26288,148.729587 105.146299,147.623634 105.146299,146.137915 C105.146299,145.017142 106.26288,143.898221 107.754752,143.898221 C109.244766,143.898221 110.392931,145.017142 110.392931,146.137915" id="Fill-45" fill="#0078D7" mask="url(#mask-2)"></path>
                    <path d="M98.0341766,146.137915 C98.0341766,147.623634 96.9157373,148.729587 95.7972981,148.729587 C94.2757004,148.729587 93.159119,147.623634 93.159119,146.137915 C93.159119,145.017142 94.2757004,143.898221 95.7972981,143.898221 C96.9157373,143.898221 98.0341766,145.017142 98.0341766,146.137915" id="Fill-46" fill="#585858" mask="url(#mask-2)"></path>
                    <polygon id="Fill-47" fill="#FFB900" mask="url(#mask-2)" points="116.728276 148.731255 123.093348 148.731255 123.093348 143.899888 116.728276 143.899888"></polygon>
                    <polygon id="Fill-48" fill="#FFFFFF" mask="url(#mask-2)" points="129.462135 148.731255 134.710625 148.731255 134.710625 143.899888 129.462135 143.899888"></polygon>
                    <polygon id="Fill-49" fill="#FFFFFF" mask="url(#mask-2)" points="28.8167184 143.532904 23.5700863 144.64071 23.5700863 148.366123 28.8167184 148.731069"></polygon>
                    <path d="M266.034163,161.026231 C266.034163,163.252958 264.544149,165.140673 262.297981,165.140673 L5.24830425,165.140673 C2.9816997,165.140673 1.48982802,163.252958 1.48982802,161.026231 L1.48982802,5.23503043 C1.48982802,2.96940099 2.9816997,1.48553413 5.24830425,1.48553413 L262.297981,1.48553413 C264.544149,1.48553413 266.034163,2.96940099 266.034163,5.23503043 L266.034163,161.026231 Z M21.7053396,150.216789 L245.437787,150.216789 L245.437787,14.8885014 L21.7053396,14.8885014 L21.7053396,150.216789 Z" id="Fill-50" fill="#000000" mask="url(#mask-2)"></path>
                    <path d="M262.298724,166.261632 L5.24718953,166.261632 C2.23557808,166.261632 0.000557361774,164.034905 0.000557361774,161.026416 L0.000557361774,5.23521568 C0.000557361774,2.22672655 2.23557808,0 5.24718953,0 L262.298724,0 C265.289899,0 267.523062,2.22672655 267.523062,5.23521568 L267.523062,161.026416 C267.523062,164.034905 265.289899,166.261632 262.298724,166.261632 L262.298724,166.261632 Z M5.24718953,2.60464021 C3.72559188,2.60464021 2.60901046,3.71244594 2.60901046,5.23521568 L2.60901046,161.026416 C2.60901046,162.510283 3.72559188,163.656992 5.24718953,163.656992 L262.298724,163.656992 C263.799885,163.656992 264.910893,162.510283 264.910893,161.026416 L264.910893,5.23521568 C264.910893,3.71244594 263.799885,2.60464021 262.298724,2.60464021 L5.24718953,2.60464021 Z" id="Fill-51" fill="#A2A2A2" mask="url(#mask-2)"></path>
                    <polygon id="Fill-52" fill="#BBBBBB" mask="url(#mask-2)" points="260.039737 78.2790715 249.944057 80.140852 249.944057 86.8617871 260.039737 87.9695928"></polygon>
                    <path d="M260.039737,87.969778 L249.944057,86.8619723 L249.944057,80.1410373 L260.039737,78.2792567 L260.039737,87.969778 Z M262.29891,2.60575172 L107.380205,2.60575172 L119.740631,14.8879456 L245.438716,14.8879456 L245.438716,139.417906 L264.911079,158.421035 L264.911079,5.23447467 C264.911079,3.71170493 263.800071,2.60575172 262.29891,2.60575172 L262.29891,2.60575172 Z" id="Fill-53" fill="#424242" mask="url(#mask-2)"></path>
                    <path d="M262.298724,-0.000185251793 L104.771566,-0.000185251793 L107.380019,2.60445496 L262.298724,2.60445496 C263.799885,2.60445496 264.910893,3.71226068 264.910893,5.23503043 L264.910893,158.421591 L267.523062,161.026231 L267.523062,5.23503043 C267.523062,2.2265413 265.289899,-0.000185251793 262.298724,-0.000185251793" id="Fill-54" fill="#B6B6B6" mask="url(#mask-2)"></path>
                    <polygon id="Fill-55" fill="#FFA333" mask="url(#mask-2)" points="245.43853 14.8879456 119.740445 14.8879456 245.43853 139.417906"></polygon>
                </g>
            </g>
        </g>
    </g>
</svg>