<svg width="252" height="254" viewBox="0 0 252 254" xmlns="http://www.w3.org/2000/svg" xmlns:xlink="http://www.w3.org/1999/xlink"><defs><path id="a" d="M251.96 252.75V.566H.39V252.75z"/><path d="M.108.806c22.982 24.94 55.88 40.554 92.42 40.554 36.536 0 69.434-15.613 92.413-40.554H.11z" id="c"/><path d="M1.435.044C.497 6.254.01 12.614.01 19.087c0 33.972 13.403 64.807 35.198 87.48h181.175c2.24-2.33 4.394-4.75 6.452-7.247V.044H1.435z" id="e"/><path d="M.172.446C.064 2.582.01 4.73.01 6.896c0 35.973 15.026 68.428 39.133 91.4h173.303c3.683-3.51 7.152-7.24 10.39-11.168V.446H.17z" id="g"/></defs><g fill="none" fill-rule="evenodd"><g transform="translate(0 .038)"><mask id="b" fill="#fff"><use xlink:href="#a"/></mask><path d="M251.96 126.658c0 69.637-56.317 126.093-125.787 126.093C56.705 252.75.39 196.296.39 126.66.39 57.02 56.704.564 126.172.564c69.47 0 125.787 56.456 125.787 126.094" fill="#3963A3" mask="url(#b)"/></g><g transform="translate(33.27 212.055)"><mask id="d" fill="#fff"><use xlink:href="#c"/></mask><path d="M198.885 13.644c-73.01 92.582-265.466 0-265.466 0-2.542 0-4.55-3.023-4.55-6.418 0-3.588 2.008-6.42 4.55-6.42h265.465c2.54 0 4.546 2.832 4.546 6.42 0 3.395-2.005 6.418-4.545 6.418" fill="#5D2E90" mask="url(#d)"/></g><g transform="translate(0 108.238)"><mask id="f" fill="#fff"><use xlink:href="#e"/></mask><path d="M222.835 8.97v-.19c0-4.748-29.458-8.736-65.48-8.736h-96.37C24.846.044-4.612 4.032-4.612 8.78v5.314c0 2.47 7.63 4.75 19.917 6.268.237 2.85-.12 7.595-.12 7.595s-11.33 71.585-11.808 74.81c-.596 3.23-.715 3.8.12 3.8.955 0 1.55-.952 1.55-.952s11.688-63.417 13.597-75.38c.715-4.746 2.03-7.405 3.1-9.113 10.975.948 24.57 1.708 39.243 1.708h96.37c14.55 0 28.148-.76 39.12-1.708 1.192 1.708 2.385 4.367 3.1 9.114 2.028 11.962 13.6 75.38 13.6 75.38s.595.952 1.548.952c.955 0 .834-.572.238-3.8-.594-3.226-11.925-74.81-11.925-74.81s-.24-4.747-.12-7.596c12.285-1.517 19.918-3.797 19.918-6.268V8.97z" fill="#5D2E90" mask="url(#f)"/></g><g transform="translate(0 120.43)"><mask id="h" fill="#fff"><use xlink:href="#g"/></mask><path d="M222.835.636c-1.312 4.56-30.295 8.36-65.48 8.36h-96.37c-36.14 0-65.598-3.8-65.598-8.55v5.32c0 2.47 7.63 4.75 19.917 6.27.237 2.85-.12 7.6-.12 7.6s-11.33 71.63-11.808 74.86c-.596 3.23-.715 3.8.12 3.8.955 0 1.55-.948 1.55-.948s11.688-63.463 13.597-75.43c.715-4.754 2.03-7.412 3.1-9.123 10.975.95 24.57 1.71 39.243 1.71h96.37c14.55 0 28.148-.76 39.12-1.71 1.192 1.71 2.385 4.37 3.1 9.122 2.028 11.968 13.6 75.43 13.6 75.43s.595.95 1.548.95c.955 0 .834-.57.238-3.8-.594-3.23-11.925-74.86-11.925-74.86s-.24-4.752-.12-7.602c12.285-1.52 19.918-3.8 19.918-6.27V.635z" fill="#402466" mask="url(#h)"/></g><path fill="#939292" d="M103.155 84.567l3.902 24.396h.083"/><path d="M83.265 121.572c-.846 0-1.642-.102-2.438-.352l-28.886-8.798c-.895-.302-1.743-1.362-1.89-2.322l-.2-1.113-5.428-34.268c.05 0 .15-.05.2-.104l-.2-1.112c-.05-.405.2-.758.547-.858l-.15-.152-1.047.402c-.397.155-.746.558-.646 1.113l5.727 36.292c.1.705.597 1.668 1.046 2.173.447.505 1.045.907 1.692 1.11l29.085 8.542c.746.253 1.592.355 2.39.355h54.777c.152 0 .252-.102.252-.254v-.656h-54.83z" fill="#939292"/><path d="M138.096 121.547H83.24c-.845 0-1.642-.1-2.44-.353l-28.895-8.757c-.896-.302-1.744-1.36-1.894-2.315l-.2-1.108.25-.05.25 1.51c.05.453.5.855.946.855h55.302c.447 0 .746-.403.696-.856l-.25-1.51h.1v.102c.3 1.81 1.595 3.27 3.29 3.774l27.402 8.304c.2.05.3.253.3.403" fill="#C2C1C1"/><path d="M106.564 111.346h-55.26c-.448 0-.895-.405-.945-.86l-.25-1.518-5.478-34.333-.198-1.112c-.05-.405.198-.758.547-.858h55.41c.45 0 .896.405.946.858l1.79 11.073 3.885 24.372.25 1.518c.05.455-.25.86-.696.86" fill="#020302"/><path d="M106.617 111.515H51.26c-.546 0-1.045-.455-1.145-1.01l-.25-1.515-5.686-35.385c-.05-.303.05-.605.25-.808.148-.202.398-.302.647-.302h55.357c.55 0 1.045.455 1.145 1.057l1.796 11.01 3.89 24.326.25 1.515c.05.305-.05.607-.25.81-.15.2-.4.302-.65.302zm-61.54-38.618c-.15 0-.3.053-.35.153-.1.15-.15.3-.15.502l5.688 35.336.25 1.515c.05.405.4.707.746.707h55.357c.15 0 .3-.05.35-.15.1-.152.15-.302.15-.455l-.25-1.565-3.89-24.332-1.797-11.003c-.05-.353-.4-.708-.746-.708H45.077zM81.105 115.426l14.756 4.59h21.118l-14.078-4.59" fill="#B2B2B2"/><path d="M107.26 110.485c.05.455-.247.86-.696.86h-55.26c-.448 0-.895-.405-.945-.86l-5.926-36.963c-.05-.452.248-.857.697-.857h55.26c.45 0 .896.405.946.857l5.924 36.963z" fill="#272727"/><path d="M107.28 110.455l-.2.05v.1c0 .152-.05.255-.148.355-.1.1-.198.15-.347.15H51.288c-.2 0-.347-.05-.497-.203-.15-.15-.25-.302-.25-.502l-5.928-36.85v-.1c0-.154.05-.304.15-.406.1-.1.2-.154.35-.154h55.294c.15 0 .35.103.5.203.146.15.246.302.246.504l5.93 36.9.2-.05.2-.05-5.93-36.85c-.05-.303-.2-.555-.4-.758-.2-.15-.447-.302-.746-.302H45.11c-.248 0-.498.1-.647.302-.148.153-.248.403-.248.658v.15l5.927 36.9c.05.253.2.506.4.708.2.2.45.303.746.303h55.297c.247 0 .496-.103.646-.253.15-.202.25-.402.25-.657v-.2l-.2.05z" fill="#B2B2B2"/><path fill="#5D2E90" d="M102.562 106.583l-4.58-29.837H48.878l4.665 30.007h49.104"/><path fill="#020302" d="M102.306 104.713h-49.1l.336 2.04h49.104"/><path d="M72.954 105.776c.064.396-.195.724-.647.724-.387 0-.71-.328-.774-.724-.065-.393.192-.724.58-.724.39 0 .777.33.84.724" fill="#3175BB"/><path d="M70.283 105.776c.064.396-.195.724-.583.724-.387 0-.774-.328-.84-.724-.063-.393.194-.724.58-.724.455 0 .778.33.843.724" fill="#464646"/><path fill="#FDB813" d="M75.594 106.5H74.32l-.17-1.446h1.358"/><path fill="#FEFEFE" d="M78.307 106.5h-1.272l-.17-1.446h1.187M54.842 105.01l-1.172.31.09.932 1.353.205"/><path d="M166.295 73.107l14.75 1.007v14.108s-.84 17.46-6.872 17.46c-6.034 0-6.704-17.46-6.704-17.46l-1.175-15.115z" fill="#8E553B"/><path d="M178.072 71.757c.504 7.404-2.352 11.11-11.086 10.604l-.84-9.257 11.926-1.346z" fill="#744530"/><path d="M160.215 66.767c-3.708-1.34-2.192-2.35-1.854-2.854.336-.336 4.55-4.366 4.887-5.54 0-.34.17-.675.337-1.008v-.172c2.526 1.346 4.715 1.18 6.57.674 1.01 1.68 1.515 3.526 1.852 4.7-.337 1.01-.503 2.018-.672 2.354-.17 1.345 1.685.335 1.685.335s1.852-1.175 3.535-1.51c1.18 1.176.34 5.038-.167 6.38-.337.506-.506 1.176-.506 1.176s-1.178 5.375 2.19 6.72c-5.56 2.52-12.3.84-15.33.504-3.37-.503-3.202-2.016-3.202-2.016.337-2.015 1.516-8.733.675-9.74" fill="#8E553B"/><path d="M173.484 55.694l-.838 3.368v.338c-.17.672-.502 2.02-.837 3.197-.338-1.176-.84-3.03-1.845-4.714 2.01-.672 3.35-2.02 3.52-2.19M176.193 63.743c.855-.167 1.54 0 1.882.67.344 1.005-.17 2.344-.856 3.682-.343.67-.856 1.342-1.198 2.01.513-1.34 1.368-5.19.17-6.362" fill="#744530"/><path d="M174.427 73.025s-1.027 5.39 2.224 6.952h.172c4.446 0 8.893-2.085 11.972-5.387.514.172 1.027.348 1.71.522 5.472.867 10.605-2.782 11.458-8.342.856-5.563-2.735-10.775-8.208-11.647-.684-.174-1.198-.174-1.882-.174-.856-1.738-2.05-3.477-3.933-5.213-1.712-1.74-3.936-2.957-6.5-3.824-4.278-1.39-8.55-.87-12.315.867-3.59-.695-7.184 1.392-8.382 5.044-.684 2.432-.17 4.864 1.198 6.775v-.173c2.565 1.39 4.792 1.217 6.67.693 2.055-.693 3.42-2.084 3.592-2.258l-2.393 9.56c-.174 1.39 1.708.348 1.708.348s1.882-1.218 3.593-1.565c.854-.174 1.54 0 1.88.695.345 1.04-.168 2.432-.852 3.824-.343.693-.858 1.388-1.198 2.084-.342.522-.513 1.217-.513 1.217" fill="#3C3C3C"/><path d="M166.474 62.39c-.336 0-.668.168-.837.34-.166-.172-.166-.34-.166-.684 0-.51.502-1.022 1.17-1.022.5.17 1.003.68 1.003 1.193 0 .34-.167.513-.333.682-.17-.17-.5-.51-.836-.51" fill="#020302"/><path d="M164.424 71.57h-2.19c-.507 0-1.18 0-1.517-.425h-.675c-.166-.422-.335 0-.335.424 0 0 0 .423.17.423v.422h2.356c1.013-.422 2.19-.846 2.19-.846" fill="#891719"/><path d="M164.424 71.222s-1.178.36-2.19.36c-.507.362-1.18.362-1.517.362-.337-.362-.675-.362-.675-.362-.166 0-.166.362-.335.724 0 0 .17.36.335.36h.675c.504 0 1.01-.36 1.516-.36 1.18-.362 2.19-1.084 2.19-1.084" fill="#891719"/><path d="M112.346 113.197c-.17-.502 0-1.005.335-1.34-.165-.337-.334-.504-.503-.84-.17-.67.338-1.343 1.01-1.677l2.015-.502 3.026-1.175-3.36-1.005s-1.85-1.51-.507-2.85c5.714 1.842 5.714.837 7.563 1.842 1.176.505 2.015 1.344 2.52 2.35.336.502 8.233 4.025 8.233 4.025l-1.68 7.545-9.408-2.35-4.54.337c-.67.166-1.342-.167-1.68-1.006v-.67c-.67.166-1.173-.336-1.51-1.006 0-.166 0-.502.168-.838-.84.336-1.51-.17-1.68-.84" fill="#8E553B"/><path d="M152.997 130.6c2.69 2.18 6.557 1.845 8.74-.838l22.857-29.337 1.008-1.005c2.858-3.69 2.352-9.055-1.345-11.904-3.696-2.85-9.076-2.18-11.932 1.344l-20.17 33.19c-2.18 2.517-1.68 6.538.842 8.55" fill="#015249"/><path d="M143.083 209.57l-1.008 6.046c-.504 1.346-1.85 1.68-3.866 1.513l-18.656-1.85c-3.025-.335-12.438-2.687-12.438-2.687-3.867-1.343-1.683-3.023-.673-2.856 3.194.17 11.428-1.344 17.816-2.184 5.377-.84 18.823 2.017 18.823 2.017" fill="#AD9FCD"/><path d="M143.215 204.555c-.337 1.836.167 3.84-.166 5.01-.505 1.5-22.5 0-22.5 0-.503 0-3.523-1-2.35-1.17 5.374-.667 16.622-3.338 16.622-5.508l8.393 1.668z" fill="#8E553B"/><path fill="#8E553B" d="M118 209.717l-10.408.224 17.146-52.465 8.76 2.475M142.71 209.417l-10.034-.3 8.087-47.814h10.41"/><path fill="#028272" d="M162.25 156.57h11.608v-4.125H162.25"/><path d="M147.093 204.687l7.227-48.064 24.705-3.685-2.184-14.903-30.42 4.688c-3.36.503-5.883 3.18-6.387 6.53l-7.056 51.08 14.116 4.354z" fill="#9B7AB6"/><path fill="#583894" d="M149.45 155.072l25.23-3.304-2.018-13.057 4.192-.675 2.17 14.86-24.708 3.678-7.19 48.114-4.567-1.127"/><path fill="#C2B6D9" d="M128.633 110.038l-3.37 8.18 3.22 1.2 2.845-7.88.15-.525"/><path d="M131.45 110.862l-3.192 8.87 26.394 11.71c3.026 1.34 6.726-.17 8.07-3.347 1.177-3.01-.168-6.692-3.362-7.862l-.17-.17-.67-.166-27.07-9.035z" fill="#AD9FCD"/><path d="M123.907 204.236l13.118-44.417 43.05-4.69-1.684-14.92-48.093 5.197c-3.194.334-5.718 2.682-6.557 5.698l-14.127 48.607 14.294 4.524z" fill="#9B7AB6"/><path d="M123.925 204.236l-4.204-1.34 12.442-41.268c.84-3.02 3.363-5.37 6.557-5.703l41.016-4.53.337 3.69-43.035 4.7-13.113 44.45z" fill="#583894"/><path d="M154.868 102.308c1.848-8.045 6.722-16.423 12.942-16.423 1.68 0 9.075-.167 10.758-.167 6.89 0 7.897 4.023 8.57 5.698 2.185 5.696 3.193 38.037 3.193 48.09 0 10.22 0 16.587-5.712 16.587H172.01c-5.712 0-28.402 1.006-21.68-6.7 9.747-10.895 2.354-37.535 4.538-47.085" fill="#AD9FCD"/><path d="M169.133 206.714c1.668 0 3.004-1.34 3.004-3.02v-39.222c0-1.68-1.336-3.018-3.004-3.018-1.502 0-2.837 1.338-2.837 3.018v39.223c0 1.68 1.335 3.02 2.837 3.02" fill="#402466"/><path d="M150.658 155.973h36.948c4.7 0 8.565 3.826 8.565 8.483h-53.91c0-4.657 3.863-8.483 8.398-8.483" fill="#5D2E90"/><path d="M172.695 156.638h-16.48c-4.37 0-8.07 3.495-8.408 7.816h-5.55c0-4.655 3.87-8.48 8.41-8.48H187.66c1.178 0 2.186.33 3.196.664h-18.16zM152.49 210.73c.842 0 1.684-.166 2.187-.837 3.698-4.193 9.076-6.542 14.454-6.542 5.547 0 10.928 2.35 14.457 6.543 1.176 1.174 3.025 1.174 4.204.17 1.343-1.176 1.343-3.022.333-4.196-4.874-5.368-11.763-8.386-18.992-8.386-7.057 0-13.95 3.02-18.823 8.387-1.01 1.174-1.01 3.02.167 4.195.674.502 1.347.67 2.017.67" fill="#402466"/><path d="M183.573 210.35c-1.272 1.246-1.272 3.266 0 4.512 1.27 1.246 3.334 1.246 4.605 0 1.274-1.246 1.274-3.266 0-4.512-1.27-1.244-3.334-1.244-4.605 0M150.263 210.35c-1.285 1.246-1.285 3.266 0 4.512 1.286 1.246 3.372 1.246 4.66 0 1.286-1.246 1.286-3.266 0-4.512-1.288-1.244-3.374-1.244-4.66 0M175.668 112.213h3.356c-2.686.84-4.867 3.855-4.867 7.037v16.25c0 3.354 2.015 6.367 4.867 7.037h-3.356c-3.524 0-6.378-3.18-6.378-7.037v-16.25c0-3.854 2.854-7.037 6.378-7.037" fill="#402466"/><path d="M172.81 135.5c0 3.855 2.863 7.037 6.4 7.037 0 0 3.54-.166 5.393-.166 2.02 0 5.39.167 5.39.167 3.54 0 6.405-3.182 6.405-7.037v-16.25c0-3.853-2.866-7.036-6.405-7.036 0 0-2.864.334-5.39.334-2.528 0-5.392-.334-5.392-.334-3.537 0-6.4 3.183-6.4 7.037v16.25z" fill="#9B7AB6"/><path d="M179.198 112.213s.67.167 1.514.167c-2.86.672-5.043 3.52-5.043 6.87v16.25c0 3.52 2.352 6.367 5.375 6.87-1.006.167-1.847.167-1.847.167-3.53 0-6.388-3.18-6.388-7.037v-16.25c0-3.854 2.86-7.037 6.388-7.037" fill="#5D2E90"/><path d="M187.44 161.454c1.35 0 2.366-1.008 2.366-2.18v-31.672c0-1.172-1.015-2.177-2.367-2.177-1.185 0-2.202 1.005-2.202 2.177v31.672c0 1.172 1.017 2.18 2.2 2.18" fill="#402466"/><path d="M119.198 209.72l-.84 6.048c-.674 1.343-1.85 1.68-3.868 1.512l-18.664-1.85c-3.197-.334-12.446-2.685-12.446-2.685-3.866-1.346-1.68-3.026-.84-2.86 3.364.172 11.434-1.34 17.825-2.18 5.55-.84 18.833 2.014 18.833 2.014" fill="#AD9FCD"/><path d="M119.404 204.72c-.168 1.853.17 3.876-.168 5.055-.338 1.517-22.56 0-22.56 0-.504 0-3.536-1.01-2.357-1.18 5.555-.67 16.833-3.368 16.833-5.56l8.25 1.685z" fill="#8E553B"/><path d="M141.542 130.77c2.687 2.01 6.554 1.676 8.74-1.007l22.854-29.337 1.01-1.005c2.857-3.69 2.353-8.887-1.345-11.736-3.696-3.02-8.908-2.347-11.764 1.343L140.7 122.052c-2.183 2.682-1.848 6.537.842 8.717" fill="#AD9FCD"/><path fill="#B2B2B2" d="M105.27 96.6l17.972 24.47 1.872-.3-19.02-25.82"/><path d="M142.036 120.076l.842.167.168-.503s12.802-22.805 17.857-29.682c2.19-2.85 3.54-3.854 6.067-4.19-2.36 0-4.55 1.174-6.067 3.187-4.884 6.37-18.53 30.685-18.53 30.685l-.337.336z" fill="#C2B6D9"/><path fill="#8E553B" d="M112.31 120.92l8.385.675-.45 6.682-9.81-.676"/><path fill="#C2B6D9" d="M114.032 119.87l-.675 8.556 2.847.227h.15l.523-8.107v-.45"/><path d="M116.875 119.888v.669l-.673 8.903 28.565 2.515c3.36.505 6.554-2.013 6.892-5.372.334-3.358-2.02-6.38-5.38-6.715h-.166l-.84-.167-28.4.168z" fill="#AD9FCD"/><path fill="#C2B6D9" d="M116.877 120.705h.45l24.71-.413.898.413.147-1.444h-.673l-25.533.41"/><path d="M173.185 100.653c-7.733 8.55-16.136 20.28-24.373 28.325-.335.334-.672.67-1.01.836-1.176.672-2.52.84-3.866.672-9.076-.672-18.32-1.508-27.564-2.347v.67l-.17.837c9.583.84 19.162 1.678 28.575 2.516 1.345.167 2.522-.17 3.7-.672.167-.165.502-.332.67-.5 4.54-3.687 8.406-8.882 12.272-13.073 3.863-4.357 7.9-12.907 11.765-17.264" fill="#583894"/><path d="M99.735 127.432l10.715.167s2.01-5.694 1.842-6.7c0-.335-.17-.67-.335-1.005-.5-.67-1.17-1.508-1.507-2.01-.335-.334-.503-.503-.836-.67-1.005-.336-3.182-.838-6.7-1.172-.667.503-.332 1.508.17 1.842.5.502 3.514.335 3.514.335h-.67l-5.858-.67-.17.168c-.666-.167-1.336.502-1.336 1.34 0 .334 0 .5.166.837-.67 0-1.172.67-1.172 1.34s.335 1.173.84 1.34c-.338.336-.673.67-.673 1.172 0 .67.335 1.172 1.005 1.34-.166.335-.333.504-.333.838-.17.838.5 1.507 1.338 1.507" fill="#8E553B"/></g></svg>