<svg width="213" height="213" viewBox="0 0 213 213" xmlns="http://www.w3.org/2000/svg" xmlns:xlink="http://www.w3.org/1999/xlink"><defs><path id="a" d="M0 0V212.66h212.657V0H0z"/><path id="c" d="M0 .874V129.24h128.934V.875H0z"/></defs><g fill="none" fill-rule="evenodd"><g><mask id="b" fill="#fff"><use xlink:href="#a"/></mask><path d="M212.657 106.33c0 58.724-47.603 106.328-106.327 106.328C47.604 212.658 0 165.054 0 106.328 0 47.606 47.603.002 106.33.002c58.724 0 106.327 47.605 106.327 106.33" fill="#B8D432" mask="url(#b)"/></g><path fill="#0072C6" d="M162.036 54.89l-6.646-6.597-11.357 10.46 6.918 6.878"/><path fill="#DBDBDB" d="M151.78 44.423l14.126 14.06 6.644-6.616-14.122-14.063"/><path fill="#A7A7A7" d="M155.39 48.294l10.516 10.19 6.645-6.617-10.234-10.47"/><path fill="#0072C6" d="M97.27 43.873h14.674v-8.267H97.27"/><path fill="#DBDBDB" d="M89.52 35.61h30.176V21H89.52"/><path fill="#A7A7A7" d="M97.27 35.61h22.424V21H97.27"/><g transform="translate(40 41.35)"><mask id="d" fill="#fff"><use xlink:href="#c"/></mask><path d="M128.934 65.057c0 35.264-28.77 64.184-64.467 64.184C29.05 129.24 0 100.32 0 65.058 0 29.52 29.05.874 64.467.874c35.696 0 64.467 28.645 64.467 64.183" fill="#DBDBDB" mask="url(#d)"/></g><path d="M162.587 106.407c0 31.693-26.013 57.59-58.12 57.59-31.828 0-57.84-25.897-57.84-57.59 0-31.965 26.012-57.836 57.84-57.836 32.107 0 58.12 25.872 58.12 57.837" fill="#F8F8F8"/><path d="M128.274 53.792c-7.198-3.304-15.227-5.22-23.807-5.22v57.008l23.807-51.788z" fill="#00B294"/><path d="M118.87 106.407c0 7.993-6.654 14.335-14.674 14.335-8.03 0-14.405-6.342-14.405-14.335 0-7.994 6.377-14.61 14.406-14.61 8.02 0 14.675 6.616 14.675 14.61" fill="#DBDBDB"/><path d="M125.77 59.03l-5.525 12.116c11.338 2.198 21.853 6.617 31.256 12.955-5.243-11.035-14.374-19.85-25.73-25.07zm-21.303-4.42c-20.47 0-38.455 12.136-46.755 29.49 13.274-9.08 29.602-14.33 46.755-14.33V54.61z" fill="#FAFAFA"/><path d="M104.467 54.61v15.16c5.543 0 10.787.548 15.778 1.377l5.524-12.115c-6.347-2.774-13.554-4.42-21.303-4.42" fill="#40C5AF"/><path d="M104.467 69.22c-.27 0-.55-.278-.55-.548V55.71c0-.27.28-.55.55-.55.55 0 .83.28.83.55V68.67c0 .27-.28.55-.83.55M104.467 157.38c-.27 0-.55-.275-.55-.55v-12.96c0-.276.28-.55.55-.55.55 0 .83.274.83.55v12.96c0 .275-.28.55-.83.55M85.65 74.442c-.27 0-.55-.28-.55-.55l-6.365-11.018c-.282-.27-.282-.82.27-.82.28-.278.552 0 .832.272l6.365 11.017c.28.27 0 .82-.27.82 0 .28-.28.28-.28.28M129.928 150.762c-.27 0-.55-.275-.55-.275l-6.375-11.29c-.272-.274-.272-.55.28-.824.28-.274.55 0 .83.275l6.366 11.015c.28.274 0 .824-.27.824 0 .275-.282.275-.282.275M71.808 88.223s-.27 0-.27-.27l-11.34-6.346c-.28-.27-.28-.55 0-.818 0-.282.552-.55.823-.282l11.068 6.347c.27.27.55.55.27.82 0 .28-.27.548-.55.548M148.464 132.305s-.27 0-.27-.274l-11.07-6.343c-.55-.274-.55-.548-.27-.824 0-.274.552-.55.822-.274l11.068 6.34c.27.277.55.553.27.827 0 .274-.27.548-.55.548M155.39 106.956h-13.02c-.272 0-.552-.27-.552-.548 0-.55.28-.83.55-.83h13.022c.28 0 .55.28.55.83 0 .28-.27.548-.55.548M66.845 106.956h-13.02c-.282 0-.553-.27-.553-.548 0-.55.27-.83.553-.83h13.02c.27 0 .55.28.55.83 0 .28-.28.548-.55.548M137.406 88.223c-.28 0-.55-.27-.55-.548-.28-.27-.28-.55.27-.82l11.067-6.347c.27-.27.822 0 .822.28.28.27 0 .55-.27.82l-11.068 6.346c0 .27-.27.27-.27.27M60.75 132.305c-.28 0-.55-.274-.55-.548-.28-.274-.28-.55 0-.826l11.336-6.34c.273-.276.553 0 .824.273.28.276 0 .55-.27.824l-11.07 6.344-.27.275zM123.563 74.442c-.28 0-.28 0-.28-.28-.55 0-.55-.548-.28-.82l6.374-11.016c.28-.27.55-.55.83-.27.274 0 .554.55.274.818l-6.366 11.02c-.28.27-.28.548-.55.548M79.286 150.762c-.28 0-.28 0-.28-.275-.55 0-.55-.55-.27-.824l6.364-11.015c.28-.275.55-.55.83-.275.272.275.554.55.272.825l-6.365 11.29c-.28 0-.28.274-.55.274" fill="#A7A7A7"/><path d="M104.467 69.22c-.27 0-.55-.278-.55-.548V55.71c0-.27.28-.55.55-.55.55 0 .83.28.83.55V68.67c0 .27-.28.55-.83.55M104.467 157.38c-.27 0-.55-.275-.55-.55v-12.96c0-.276.28-.55.55-.55.55 0 .83.274.83.55v12.96c0 .275-.28.55-.83.55M85.65 74.442c-.27 0-.55-.28-.55-.55l-6.365-11.018c-.282-.27-.282-.82.27-.82.28-.278.552 0 .832.272l6.365 11.017c.28.27 0 .82-.27.82 0 .28-.28.28-.28.28M129.928 150.762c-.27 0-.55-.275-.55-.275l-6.375-11.29c-.272-.274-.272-.55.28-.824.28-.274.55 0 .83.275l6.366 11.015c.28.274 0 .824-.27.824 0 .275-.282.275-.282.275M71.808 88.223s-.27 0-.27-.27l-11.34-6.346c-.28-.27-.28-.55 0-.818 0-.282.552-.55.823-.282l11.068 6.347c.27.27.55.55.27.82 0 .28-.27.548-.55.548M148.464 132.305s-.27 0-.27-.274l-11.07-6.343c-.55-.274-.55-.548-.27-.824 0-.274.552-.55.822-.274l11.068 6.34c.27.277.55.553.27.827 0 .274-.27.548-.55.548M155.39 106.956h-13.02c-.272 0-.552-.27-.552-.548 0-.55.28-.83.55-.83h13.022c.28 0 .55.28.55.83 0 .28-.27.548-.55.548M66.845 106.956h-13.02c-.282 0-.553-.27-.553-.548 0-.55.27-.83.553-.83h13.02c.27 0 .55.28.55.83 0 .28-.28.548-.55.548M137.406 88.223c-.28 0-.55-.27-.55-.548-.28-.27-.28-.55.27-.82l11.067-6.347c.27-.27.822 0 .822.28.28.27 0 .55-.27.82l-11.068 6.346c0 .27-.27.27-.27.27M60.75 132.305c-.28 0-.55-.274-.55-.548-.28-.274-.28-.55 0-.826l11.336-6.34c.273-.276.553 0 .824.273.28.276 0 .55-.27.824l-11.07 6.344-.27.275zM123.563 74.442c-.28 0-.28 0-.28-.28-.55 0-.55-.548-.28-.82l6.374-11.016c.28-.27.55-.55.83-.27.274 0 .554.55.274.818l-6.366 11.02c-.28.27-.28.548-.55.548M79.286 150.762c-.28 0-.28 0-.28-.275-.55 0-.55-.55-.27-.824l6.364-11.015c.28-.275.55-.55.83-.275.272.275.554.55.272.825l-6.365 11.29c-.28 0-.28.274-.55.274" fill="#A7A7A7"/><path d="M98.102 69.77c-.28.28-.55 0-.832-.55l-2.207-12.683c0-.28.272-.55.553-.55.27 0 .82 0 .82.55l2.217 12.684c0 .28-.28.55-.55.55M113.6 156.555c-.552.275-.824 0-.824-.275l-2.215-12.686c0-.548 0-.824.553-.824.28 0 .55 0 .55.55l2.487 12.686c0 .274-.27.55-.55.55M80.39 78.033c-.28 0-.552 0-.552-.27l-8.302-9.64c-.28-.28-.28-.83 0-1.1.273 0 .824 0 .824.27l8.3 9.642c.28.28.28.83 0 1.098h-.27zM137.406 145.54c-.28.275-.55 0-.83 0l-8.303-9.936c0-.276 0-.825.282-1.1.27 0 .55 0 .822.275l8.3 9.913c.28.276.28.574 0 .848h-.27zM69.05 94.02h-.28L56.61 89.6c-.28 0-.552-.55-.28-.827 0-.27.55-.55.83-.27l12.16 4.42c.282 0 .554.27.282.82 0 .278-.28.278-.55.278M152.333 124.314h-.28l-12.16-4.397c-.282-.274-.552-.548-.282-.823 0-.573.283-.573.834-.573l11.89 4.42c.55.276.55.55.55.824 0 .276-.28.55-.55.55M154.558 98.143l-12.74 2.196c-.272 0-.552 0-.552-.55-.27-.278 0-.548.552-.548l12.74-2.476c.28 0 .56.28.56.55 0 .55 0 .827-.56.827M67.396 113.574l-12.75 2.2c-.27 0-.55-.277-.55-.55-.272-.275 0-.825.28-.825l12.74-2.198c.55 0 .83.274.83.55 0 .274 0 .548-.55.822M133.518 82.705s-.28 0-.55-.27c-.282-.278 0-.55.27-.828l9.683-8.264c.28-.28.832-.28 1.113 0 0 .27 0 .82-.28 1.1l-9.684 8.262h-.552zM65.742 139.473s-.28 0-.56-.275c-.27-.274-.27-.824 0-.824l9.963-8.267c.27-.274.83-.274 1.104 0 0 .275 0 .55-.273.825l-9.964 8.266c0 .275 0 .275-.27.275M117.758 71.696c-.3 0-.3 0-.57-.28-.28 0-.55-.268-.28-.818l4.44-11.846c0-.55.55-.55.83-.55.273.28.554.55.273.83l-4.41 12.116c0 .27-.282.27-.282.548M87.315 154.357h-.28c-.27 0-.55-.573-.55-.847l4.41-12.114c.3-.274.58-.548.85-.274.56 0 .56.548.56.824l-4.44 12.136c0 .275-.28.275-.55.275M91.746 71.417c-.27.28-.55 0-.85-.27L86.482 59.03c0-.28.28-.548.552-.827.28 0 .55 0 .83.548l4.44 11.847c0 .55 0 .82-.56.82M122.18 154.357c-.28.275-.832 0-.832-.275l-4.44-12.136c-.272-.276 0-.824.28-.824.57-.274.85 0 .85.274l4.412 12.114c.28.274 0 .847-.27.847M75.977 82.705h-.83l-9.965-8.263c-.273-.28-.273-.828 0-1.1.28-.278.56-.278.83 0l9.965 8.265c.27.28.27.55.27.83l-.27.268zM143.753 139.473c-.28 0-.55 0-.832-.275l-9.682-8.266c-.27-.274-.553-.55-.27-.825.27-.274.83-.274 1.1 0l9.685 8.267c.28 0 .28.55.28.824-.28 0-.28.275-.28.275M67.667 100.34h-.55l-12.742-2.196c-.28 0-.55-.28-.28-.83 0-.268.28-.547.553-.547l12.75 2.474c.55 0 .55.272.55.55 0 .27-.28.55-.28.55M154.838 115.773h-.28l-12.74-2.198c-.552-.274-.823-.55-.552-.825 0-.274.28-.55.553-.55l12.738 2.2c.56 0 .56.55.56.823 0 .275 0 .275-.28.55M152.333 89.6l-11.89 4.422c-.55.27-.832 0-.832-.28-.27-.55 0-.82.283-.82l12.16-4.42c.28-.28.55 0 .83.27 0 .28 0 .83-.55.83M69.322 119.917l-12.16 4.398c-.28 0-.833-.275-.833-.55-.272-.275 0-.55.28-.825l12.16-4.42c.28 0 .832 0 .832.575.27.274 0 .548-.28.822M129.106 78.033h-.55c-.28-.27-.28-.82-.28-1.098l8.298-9.64c.28-.27.832-.27 1.102-.27.28.27.28.82 0 1.098l-8.3 9.64c0 .27-.27.27-.27.27M72.09 145.54c0 .275-.282 0-.552 0-.28-.273-.28-.57 0-.847l8.3-9.914c.27-.276.55-.276.82-.276.28.275.28.824 0 1.1l-8.3 9.937h-.27zM111.393 69.77h-.28c-.55 0-.55-.27-.55-.55l2.214-12.683c0-.55.27-.55.822-.55.28 0 .55.27.55.55l-2.486 12.684c0 .28 0 .55-.27.55M95.886 156.555c0 .275 0 .275-.27 0-.28 0-.553-.275-.553-.55l2.207-12.685c.28-.55.55-.55.83-.55.272 0 .552.276.552.824l-2.215 12.686s-.27.275-.55.275" fill="#DBDBDB"/><path d="M110.01 101.736l17.432-42.426-2.224-1.107-21.302 40.76c-2.486 0-4.993 1.657-6.095 4.15-1.653 3.573-.27 7.985 3.337 9.638 3.862 1.65 8.03 0 9.684-3.597 1.105-2.467.824-5.222-.83-7.417" fill="#636363"/></g></svg>